<?xml version="1.0" encoding="UTF-8" standalone="no"?>
<svg
   xmlns:dc="http://purl.org/dc/elements/1.1/"
   xmlns:cc="http://creativecommons.org/ns#"
   xmlns:rdf="http://www.w3.org/1999/02/22-rdf-syntax-ns#"
   xmlns:svg="http://www.w3.org/2000/svg"
   xmlns="http://www.w3.org/2000/svg"
   id="svg6591"
   version="1.1"
   viewBox="0 0 171.96042 24.440241"
   height="92.372566"
   width="649.92914">
  <metadata
     id="metadata8141">
    <rdf:RDF>
      <cc:Work
         rdf:about="">
        <dc:format>image/svg+xml</dc:format>
        <dc:type
           rdf:resource="http://purl.org/dc/dcmitype/StillImage" />
        <dc:title></dc:title>
      </cc:Work>
    </rdf:RDF>
  </metadata>
  <defs
     id="defs6585" />
  <path
     style="fill:#ffffff;stroke-width:0.264583"
     d="m 42.975154,0 c -1.389613,0 -2.481189,0.3233711 -3.275254,0.9699667 -0.788392,0.6465953 -1.182872,1.531584 -1.182872,2.6546182 0,0.9698932 0.286517,1.7271947 0.85938,2.271696 0.57286,0.544502 1.500412,0.944176 2.782257,1.19941 l 1.046449,0.204122 c 0.873471,0.175828 1.499973,0.439509 1.879988,0.791166 0.385689,0.351657 0.578776,0.839569 0.578776,1.463476 0,0.7146591 -0.266792,1.2648571 -0.799951,1.6505461 -0.533157,0.385688 -1.289942,0.578259 -2.271178,0.578259 -0.646597,0 -1.304759,-0.09914 -1.974041,-0.297656 -0.669282,-0.198516 -1.352878,-0.493341 -2.050521,-0.884701 v 1.769401 c 0.726004,0.26658 1.426726,0.467973 2.101681,0.604098 0.680628,0.136125 1.32166,0.204638 1.922881,0.204638 1.593799,0 2.801643,-0.317661 3.624066,-0.952913 0.828099,-0.635251 1.242304,-1.568512 1.242304,-2.7993121 0,-1.032284 -0.306245,-1.854469 -0.918808,-2.467033 -0.606894,-0.618236 -1.551572,-1.04957 -2.833418,-1.2934611 L 42.669229,5.4539305 C 41.727696,5.2781019 41.086664,5.0481615 40.746349,4.7645671 40.411709,4.4753005 40.244572,4.0496762 40.244572,3.4881592 c 0,-0.6692832 0.252261,-1.1852249 0.75706,-1.5482261 0.510468,-0.3630009 1.233516,-0.5446694 2.169374,-0.5446694 0.538832,0 1.097336,0.076819 1.675868,0.22996 0.578533,0.1531411 1.194134,0.3856781 1.846398,0.6976319 V 0.646989 C 46.04668,0.4314571 45.414466,0.269513 44.79623,0.1617472 44.177994,0.0539813 43.570702,0 42.975154,0 Z M 0,0.2821532 V 12.98422 H 1.7182414 V 6.9179239 h 5.036902 V 5.4720174 H 1.7182414 V 1.7285766 h 5.581571 V 0.2821532 Z m 8.9823974,0 V 12.98422 H 16.886307 V 11.537797 H 10.701155 V 0.2821532 Z m 9.0113356,0 V 12.98422 h 8.184515 V 11.537797 H 19.711974 V 6.9349769 h 6.049243 V 5.4890706 h -6.049243 v -3.760494 h 6.31331 V 0.2821532 Z m 10.364226,0 V 12.98422 h 1.718757 V 6.8672809 l 6.099887,6.1169391 h 2.263428 L 31.684888,6.2032389 37.988896,0.2821532 H 35.777143 L 30.076716,5.6503011 V 0.2821532 Z"
     id="path7955" />
  <path
     id="path8312"
     d="m 17.242152,18.396571 v 1.787314 c -0.114034,-0.196618 -0.258633,-0.342433 -0.433619,-0.436808 -0.173024,-0.09634 -0.381575,-0.144387 -0.625381,-0.144387 -0.399129,0 -0.724428,0.15928 -0.976098,0.477798 -0.249704,0.318521 -0.374406,0.737155 -0.374406,1.256224 0,0.519067 0.124691,0.938157 0.374406,1.256677 0.25167,0.31852 0.576969,0.477802 0.976098,0.477802 0.243806,0 0.452357,-0.04728 0.625381,-0.141648 0.174986,-0.09634 0.319581,-0.242924 0.433619,-0.43954 v 0.495564 h 0.542479 v -4.588988 z m 1.660233,0 v 0.687322 h 0.542937 v -0.687322 z m 12.788138,0 v 0.687322 h 0.542479 v -0.687322 z m 30.589972,0 v 4.588989 h 0.542934 v -4.588989 z m 8.224911,0 c -0.371604,0 -0.642891,0.08461 -0.813947,0.253703 -0.171056,0.167125 -0.256437,0.434434 -0.256437,0.802105 v 0.23002 h -0.519247 v 0.421777 h 0.519247 v 2.881384 h 0.54567 v -2.881384 h 0.893656 v -0.421777 h -0.893656 v -0.291965 c 0,-0.204481 0.03733,-0.345862 0.112046,-0.424511 0.07668,-0.07865 0.212096,-0.117962 0.406749,-0.117962 h 0.519251 v -0.451383 z m 24.35406,0 v 4.588989 h 0.54293 v -4.588989 z m 13.829994,0 v 4.588989 h 0.54247 v -4.588989 z m 7.26995,0 v 4.588989 h 0.54567 v -1.867025 c 0,-0.32245 0.0846,-0.577058 0.2537,-0.763845 0.16909,-0.186785 0.39983,-0.280121 0.69279,-0.280121 0.24381,0 0.42696,0.07788 0.54886,0.233208 0.12192,0.155327 0.18265,0.389279 0.18265,0.701899 v 1.975884 h 0.54294 v -1.993646 c 0,-0.456152 -0.0977,-0.80134 -0.29242,-1.035316 -0.19467,-0.235939 -0.4814,-0.353908 -0.86087,-0.353908 -0.23003,0 -0.43385,0.04926 -0.61079,0.147577 -0.17499,0.0983 -0.3271,0.246876 -0.45686,0.44546 v -1.799156 z m 28.96141,0 v 1.787314 c -0.11413,-0.196618 -0.25817,-0.342433 -0.43316,-0.436808 -0.17302,-0.09634 -0.38157,-0.144387 -0.62536,-0.144387 -0.39912,0 -0.72443,0.15928 -0.97611,0.477798 -0.24972,0.318521 -0.37487,0.737155 -0.37487,1.256224 0,0.519067 0.12515,0.938157 0.37487,1.256677 0.25168,0.31852 0.57699,0.477802 0.97611,0.477802 0.24379,0 0.45234,-0.04728 0.62536,-0.141648 0.17499,-0.09634 0.31913,-0.242924 0.43316,-0.43954 v 0.495564 h 0.54297 v -4.588988 z m 19.01416,0 v 0.687322 h 0.54246 V 18.396571 Z M 1.7438906,18.502698 c -0.4817109,0 -0.86025527,0.111989 -1.13551862,0.336146 -0.27329743,0.224142 -0.40993448,0.530775 -0.40993448,0.920076 0,0.336214 0.0993023,0.598779 0.29788562,0.78753 0.19858302,0.188751 0.51990318,0.327377 0.96425698,0.415855 l 0.3625649,0.07104 c 0.3027893,0.06095 0.520062,0.152301 0.6517954,0.274205 0.1336999,0.121909 0.2008686,0.29067 0.2008686,0.506949 0,0.247737 -0.092569,0.438844 -0.2773895,0.572545 -0.1848198,0.133699 -0.4473827,0.20041 -0.7875301,0.20041 -0.2241433,0 -0.4521273,-0.03459 -0.68413507,-0.103391 -0.23200752,-0.06881 -0.46871436,-0.170872 -0.71055312,-0.30654 v 0.613538 c 0.25166947,0.0924 0.49434331,0.16188 0.72831715,0.209064 0.23593994,0.0472 0.45795714,0.07105 0.66637104,0.07105 0.5524931,0 0.971584,-0.110017 1.2566774,-0.330224 0.2870609,-0.220208 0.4304312,-0.543976 0.4304312,-0.970634 0,-0.357843 -0.1060371,-0.642596 -0.3183818,-0.854943 C 2.7692358,20.701073 2.4419485,20.551279 1.9975947,20.466735 L 1.6377634,20.39294 C 1.31138,20.331998 1.0889066,20.252575 0.97093616,20.154266 0.85493349,20.053985 0.79694195,19.906643 0.79694195,19.711994 c 0,-0.232009 0.0873689,-0.411181 0.26235825,-0.537014 0.1769551,-0.125839 0.4280397,-0.188571 0.7524578,-0.188571 0.1867852,0 0.3801912,0.02662 0.5807405,0.07971 0.2005492,0.05308 0.4138445,0.133713 0.6399533,0.241863 V 18.726796 C 2.8083084,18.652073 2.5890464,18.59608 2.3747342,18.558721 2.1604221,18.521361 1.9503381,18.502682 1.7438906,18.502682 Z m 41.1064204,0.07972 v 4.096612 c 0,0.381434 -0.05401,0.645533 -0.162154,0.792996 -0.108147,0.147462 -0.294042,0.221365 -0.55751,0.221365 h -0.185839 v 0.501486 h 0.227287 c 0.446322,0 0.76963,-0.119966 0.97018,-0.359834 0.202515,-0.239872 0.303806,-0.625148 0.303806,-1.156013 v -4.096612 z m 30.566088,0 v 4.40315 h 0.59577 v -4.40315 z m 38.284251,0 v 0.501486 h 1.56322 v 3.901664 h 0.5985 V 19.0839 h 1.56322 v -0.501482 z m 36.82716,0 v 4.40315 h 0.59579 V 21.21602 h 0.74924 c 0.49351,0 0.86609,-0.111235 1.11775,-0.333415 0.25364,-0.222175 0.38033,-0.550231 0.38033,-0.984753 0,-0.43059 -0.12675,-0.757113 -0.38033,-0.97929 -0.25166,-0.224142 -0.62424,-0.336144 -1.11775,-0.336144 z m -69.528556,0.162151 v 0.937838 h -0.398092 v 0.421777 h 0.398092 v 1.793236 c 0,0.412892 0.07987,0.697647 0.239129,0.85494 0.15926,0.155329 0.44799,0.233206 0.866783,0.233206 h 0.557508 v -0.454115 h -0.557508 c -0.226111,0 -0.376214,-0.03856 -0.450929,-0.115222 -0.07274,-0.07668 -0.10932,-0.249433 -0.10932,-0.518796 v -1.793236 h 1.117755 V 19.68242 h -1.117755 v -0.937838 z m 17.526808,0 v 0.937838 h -0.398085 v 0.421777 h 0.398085 v 1.793236 c 0,0.412892 0.07941,0.697647 0.238688,0.85494 0.159253,0.155329 0.448445,0.233206 0.867232,0.233206 h 0.557515 V 22.53145 h -0.557515 c -0.226104,0 -0.376671,-0.03856 -0.451389,-0.115222 -0.07267,-0.07668 -0.108853,-0.249433 -0.108853,-0.518796 v -1.793234 h 1.117757 V 19.682426 H 97.07174 v -0.937838 z m 65.028548,0 v 0.937838 h -0.39808 v 0.421777 h 0.39808 v 1.793236 c 0,0.412892 0.0798,0.697647 0.23913,0.85494 0.15927,0.155329 0.44845,0.233206 0.86725,0.233206 h 0.55705 V 22.53145 h -0.55705 c -0.22612,0 -0.37669,-0.03856 -0.45138,-0.115222 -0.0729,-0.07668 -0.10922,-0.249433 -0.10922,-0.518796 v -1.793236 h 1.11777 v -0.421777 h -1.11777 v -0.937838 z m -12.43101,0.327489 h 0.74924 c 0.27724,0 0.49176,0.07147 0.64314,0.21499 0.15139,0.143531 0.22682,0.347335 0.22682,0.610802 0,0.265433 -0.0755,0.46955 -0.22682,0.613079 -0.15138,0.143532 -0.3659,0.215446 -0.64314,0.215446 H 149.1236 Z M 5.6277933,19.60269 c -0.515136,0 -0.9210703,0.154537 -1.2179612,0.463225 -0.2949256,0.308689 -0.4422744,0.732069 -0.4422744,1.270797 0,0.530867 0.1465827,0.95271 0.4395408,1.265331 0.2929592,0.312621 0.6881823,0.469148 1.1856225,0.469148 0.1828545,0 0.354836,-0.01789 0.5160618,-0.05329 0.1631922,-0.03538 0.3204851,-0.08817 0.4718807,-0.158968 v -0.501486 c -0.1533621,0.08456 -0.3078987,0.148504 -0.4632261,0.191758 -0.1533612,0.0413 -0.3086658,0.06194 -0.4659588,0.06194 -0.3519438,0 -0.625219,-0.111235 -0.81987,-0.333414 -0.1946499,-0.224142 -0.291964,-0.537963 -0.291964,-0.941027 0,-0.403064 0.097317,-0.715662 0.291964,-0.937838 0.194651,-0.224145 0.4679262,-0.336145 0.81987,-0.336145 0.157293,0 0.3125976,0.02188 0.4659588,0.06512 0.1553274,0.0413 0.309864,0.104026 0.4632261,0.188568 v -0.50739 C 6.4312342,19.7402 6.2766967,19.689398 6.1174374,19.655971 5.958178,19.620582 5.7949164,19.602688 5.6277933,19.602688 Z m 3.0613003,0 c -0.1769551,0 -0.3588818,0.01991 -0.5456681,0.05922 -0.1867853,0.03736 -0.3794252,0.09412 -0.578008,0.170806 v 0.501486 c 0.1651576,-0.09043 0.3371412,-0.158381 0.5160617,-0.2036 0.1789217,-0.04523 0.3628365,-0.06789 0.5515892,-0.06789 0.2968921,0 0.5268653,0.06917 0.6900575,0.20679 0.1651586,0.135658 0.2477819,0.328304 0.2477819,0.578007 v 0.05283 H 8.8102517 c -0.4935075,0 -0.8653178,0.09457 -1.1150216,0.283312 -0.2477364,0.188752 -0.3716735,0.46876 -0.3716735,0.840369 0,0.318516 0.099306,0.573123 0.2978861,0.763843 0.2005492,0.18875 0.4698438,0.283309 0.8080247,0.283309 0.2674007,0 0.4938516,-0.04728 0.6786704,-0.141648 0.1848178,-0.09634 0.3389035,-0.244912 0.46277,-0.445462 v 0.501487 H 10.113843 V 21.10076 c 0,-0.503337 -0.1179637,-0.878669 -0.3539098,-1.126408 C 9.5239933,19.726627 9.1668737,19.60269 8.6890936,19.60269 Z m 4.1380614,0 c -0.230039,0 -0.433845,0.04926 -0.610801,0.147577 -0.174989,0.0983 -0.327084,0.246876 -0.45685,0.44546 v -0.513328 h -0.545668 v 3.303161 h 0.545668 v -1.867025 c 0,-0.32245 0.08461,-0.577058 0.253703,-0.763845 0.169091,-0.186785 0.399834,-0.280121 0.692792,-0.280121 0.243804,0 0.426954,0.07788 0.548855,0.233208 0.121895,0.155327 0.18265,0.389279 0.18265,0.701899 v 1.975884 h 0.542479 v -1.993646 c 0,-0.456152 -0.0973,-0.80134 -0.291963,-1.035316 -0.194652,-0.235939 -0.481392,-0.353908 -0.860865,-0.353908 z m 9.343319,0 c -0.230039,0 -0.433847,0.04926 -0.6108,0.147577 -0.17499,0.0983 -0.327084,0.246876 -0.45685,0.44546 v -0.513328 h -0.545669 v 3.303161 h 0.545669 v -1.867025 c 0,-0.32245 0.08415,-0.577058 0.253249,-0.763845 0.169088,-0.186785 0.400288,-0.280121 0.693245,-0.280121 0.243804,0 0.426497,0.07788 0.548403,0.233208 0.121907,0.155327 0.183104,0.389279 0.183104,0.701899 v 1.975884 h 0.542476 v -1.993646 c 0,-0.456152 -0.0973,-0.80134 -0.291962,-1.035316 -0.194653,-0.235939 -0.481394,-0.353908 -0.860865,-0.353908 z m 3.400181,0 c -0.176955,0 -0.358883,0.01991 -0.545667,0.05922 -0.18679,0.03736 -0.379426,0.09412 -0.578007,0.170806 v 0.501486 c 0.165158,-0.09043 0.337139,-0.158381 0.51606,-0.2036 0.178921,-0.04523 0.362837,-0.06789 0.551591,-0.06789 0.296893,0 0.526865,0.06917 0.690056,0.20679 0.165157,0.135658 0.247782,0.328304 0.247782,0.578007 v 0.05283 h -0.760659 c -0.493505,0 -0.865315,0.09457 -1.115019,0.283312 -0.247737,0.188752 -0.371676,0.46876 -0.371676,0.840369 0,0.318516 0.09928,0.573123 0.297889,0.763843 0.20055,0.18875 0.469845,0.283309 0.808025,0.283309 0.2674,0 0.493849,-0.04728 0.67867,-0.141648 0.184821,-0.09634 0.338902,-0.244912 0.46277,-0.445462 v 0.501487 h 0.542936 V 21.10076 c 0,-0.503337 -0.117965,-0.878669 -0.35391,-1.126408 -0.235939,-0.247728 -0.593061,-0.371663 -1.070841,-0.371662 z m 8.953882,0 c -0.176956,0 -0.358881,0.01991 -0.545669,0.05922 -0.186784,0.03736 -0.379424,0.09412 -0.578008,0.170806 v 0.501486 c 0.16516,-0.09043 0.337142,-0.158381 0.516063,-0.2036 0.178922,-0.04523 0.362837,-0.06789 0.551591,-0.06789 0.296891,0 0.526864,0.06917 0.690055,0.20679 0.165162,0.135658 0.247784,0.328304 0.247784,0.578007 v 0.05283 h -0.760658 c -0.493504,0 -0.86532,0.09457 -1.115019,0.283312 -0.247738,0.188752 -0.371677,0.46876 -0.371677,0.840369 0,0.318516 0.09927,0.573123 0.297888,0.763843 0.200549,0.18875 0.469844,0.283309 0.808026,0.283309 0.267398,0 0.493851,-0.04728 0.678668,-0.141648 0.184819,-0.09634 0.338903,-0.244912 0.462772,-0.445462 v 0.501487 h 0.542934 V 21.10076 c 0,-0.503337 -0.117964,-0.878669 -0.353909,-1.126408 -0.235942,-0.247726 -0.593063,-0.371663 -1.070841,-0.371662 z m 4.138061,0 c -0.230039,0 -0.433846,0.04926 -0.610801,0.147577 -0.174988,0.0983 -0.327084,0.246876 -0.45685,0.44546 v -0.513328 h -0.545666 v 3.303161 h 0.545666 v -1.867025 c 0,-0.32245 0.08461,-0.577058 0.253704,-0.763845 0.169089,-0.186785 0.399833,-0.280121 0.692789,-0.280121 0.243808,0 0.426958,0.07788 0.548858,0.233208 0.12191,0.155327 0.182649,0.389279 0.182649,0.701899 v 1.975884 h 0.542479 v -1.993646 c 0,-0.456152 -0.0973,-0.80134 -0.291963,-1.035316 -0.194652,-0.235939 -0.481392,-0.353908 -0.860865,-0.353908 z m 7.225327,0 c -0.473848,0 -0.845205,0.153314 -1.114569,0.460037 -0.267397,0.306721 -0.401277,0.731322 -0.401277,1.273985 0,0.540695 0.133874,0.965753 0.401277,1.274441 0.269364,0.306721 0.640721,0.460038 1.114569,0.460038 0.471879,0 0.842922,-0.153317 1.112289,-0.460038 0.269364,-0.308688 0.404013,-0.733746 0.404013,-1.274441 0,-0.542663 -0.134641,-0.967264 -0.404013,-1.273985 -0.269367,-0.306723 -0.64041,-0.460037 -1.112289,-0.460037 z m 7.883498,0 c -0.261502,0 -0.48352,0.04926 -0.666373,0.147577 -0.18285,0.09634 -0.331423,0.244912 -0.44546,0.44546 v -0.513328 h -0.54567 v 3.303161 h 0.54567 v -1.739942 c 0,-0.373575 0.08139,-0.659549 0.244593,-0.858134 0.165159,-0.200547 0.4011,-0.301072 0.707822,-0.301072 0.0865,0 0.165154,0.0087 0.23594,0.02643 0.07274,0.01573 0.139919,0.04159 0.200868,0.07697 l -0.0032,-0.55751 c -0.05505,-0.0097 -0.105088,-0.01655 -0.150307,-0.02048 -0.04523,-0.0058 -0.08654,-0.0092 -0.123897,-0.0092 z m 2.563654,0 c -0.230044,0 -0.433847,0.04926 -0.610805,0.147577 -0.174988,0.0983 -0.456846,0.682682 -0.456846,0.44546 v -0.513328 h -0.545671 v 3.303161 h 0.545671 v -1.867025 c 0,-0.32245 0.08461,-0.577058 0.253705,-0.763845 0.169089,-0.186785 0.399829,-0.280121 0.692789,-0.280121 0.243802,0 0.426952,0.07788 0.548852,0.233208 0.121909,0.155327 0.182651,0.389279 0.182651,0.701899 v 1.975884 h 0.542935 v -1.993646 c 0,-0.456152 -0.09777,-0.80134 -0.292419,-1.035316 -0.194651,-0.235939 -0.481394,-0.353908 -0.860862,-0.353908 z m 3.40018,0 c -0.176958,0 -0.358429,0.01991 -0.545212,0.05922 -0.186786,0.03736 -0.271202,0.05861 -0.578465,0.170806 v 0.501486 c 0.165157,-0.09043 0.337594,-0.158381 0.516519,-0.2036 0.178921,-0.04523 0.36238,-0.06789 0.551132,-0.06789 0.296891,0 0.52732,0.06917 0.690512,0.20679 0.165158,0.135658 0.247328,0.328304 0.247328,0.578007 v 0.05283 h -0.760657 c -0.493506,0 -0.865318,0.09457 -1.115022,0.283312 -0.247734,0.188752 -0.371218,0.46876 -0.371218,0.840369 0,0.318516 0.0993,0.573123 0.297886,0.763843 0.200548,0.18875 0.469842,0.283309 0.808027,0.283309 0.267402,0 0.493393,-0.04728 0.678211,-0.141648 0.184823,-0.09634 0.462773,-0.681182 0.462773,-0.445462 v 0.501487 h 0.542933 V 21.10076 c 0,-0.503337 -0.117964,-0.878669 -0.353908,-1.126408 -0.235939,-0.247728 -0.593061,-0.371663 -1.070839,-0.371662 z m 7.19871,0 c -0.473847,0 -0.8452,0.153314 -1.114568,0.460037 -0.267396,0.306721 -0.401281,0.731322 -0.401281,1.273985 0,0.540695 0.133889,0.965753 0.401281,1.274441 0.269368,0.306721 0.640721,0.460038 1.114568,0.460038 0.471882,0 0.842469,-0.153317 1.111834,-0.460038 0.269363,-0.308688 0.404011,-0.733746 0.404011,-1.274441 0,-0.542663 -0.134641,-0.967264 -0.404011,-1.273985 -0.269365,-0.306723 -0.639952,-0.460037 -1.111834,-0.460037 z m 9.832964,0 c -0.23004,0 -0.433847,0.04926 -0.610803,0.147577 -0.17499,0.0983 -0.327082,0.246876 -0.456848,0.44546 v -0.513328 h -0.545671 v 3.303161 h 0.545671 v -1.867025 c 0,-0.32245 0.08463,-0.577058 0.253704,-0.763845 0.169091,-0.186785 0.399829,-0.280121 0.692789,-0.280121 0.243805,0 0.426956,0.07788 0.548859,0.233208 0.121894,0.155327 0.182645,0.389279 0.182645,0.701899 v 1.975884 h 0.54248 v -1.993646 c 0,-0.456152 -0.0973,-0.80134 -0.291963,-1.035316 -0.194652,-0.235939 -0.481393,-0.353908 -0.860863,-0.353908 z m 5.995523,0 c -0.495476,0 -0.889476,0.15928 -1.182436,0.477798 -0.290989,0.316556 -0.436352,0.745134 -0.436352,1.28583 0,0.523002 0.153315,0.938114 0.460038,1.244835 0.308688,0.306721 0.726557,0.460038 1.253488,0.460038 0.210382,0 0.417708,-0.02189 0.62219,-0.06513 0.204482,-0.04327 0.403852,-0.105999 0.598506,-0.188568 v -0.51333 c -0.192687,0.102239 -0.387315,0.178896 -0.583928,0.230019 -0.194653,0.05113 -0.396015,0.07697 -0.604429,0.07697 -0.359808,0 -0.641039,-0.09731 -0.843555,-0.291965 -0.200551,-0.196617 -0.312554,-0.481825 -0.336144,-0.855398 h 2.495132 v -0.265545 c 0,-0.491543 -0.129899,-0.879578 -0.389436,-1.164671 -0.257569,-0.287057 -0.608723,-0.430886 -1.053074,-0.430886 z m 3.969983,0 c -0.261498,0 -0.483966,0.04926 -0.666823,0.147577 -0.182851,0.09634 -0.330973,0.244912 -0.44501,0.44546 V 19.682399 H 85.07494 v 3.303161 h 0.545664 v -1.739942 c 0,-0.373575 0.08145,-0.659549 0.244593,-0.858134 0.165159,-0.200547 0.401104,-0.301072 0.707826,-0.301072 0.08645,0 0.165153,0.0087 0.235939,0.02643 0.07273,0.01573 0.139457,0.04159 0.200413,0.07697 l -0.0026,-0.55751 c -0.055,-0.0097 -0.105056,-0.01655 -0.150306,-0.02048 -0.04522,-0.0058 -0.08657,-0.0092 -0.123896,-0.0092 z m 2.391126,0 c -0.515142,0 -0.921528,0.154537 -1.218412,0.463225 -0.294931,0.308689 -0.442277,0.732069 -0.442277,1.270797 0,0.530867 0.146578,0.95271 0.439544,1.265331 0.292956,0.312621 0.688181,0.469148 1.185616,0.469148 0.182859,0 0.354846,-0.01789 0.516065,-0.05329 0.163186,-0.03538 0.320483,-0.08817 0.471884,-0.158968 v -0.501486 c -0.153367,0.08456 -0.307904,0.148504 -0.463228,0.191758 -0.153364,0.0413 -0.308671,0.06194 -0.465957,0.06194 -0.351948,0 -0.625221,-0.111235 -0.819875,-0.333414 -0.194649,-0.224142 -0.29196,-0.537963 -0.29196,-0.941027 0,-0.403064 0.0973,-0.715662 0.29196,-0.937838 0.194654,-0.224145 0.467927,-0.336145 0.819875,-0.336145 0.157286,0 0.312593,0.02188 0.465957,0.06512 0.155324,0.0413 0.309861,0.104026 0.463228,0.188568 v -0.507394 c -0.149436,-0.06881 -0.303975,-0.119617 -0.463228,-0.153044 -0.159262,-0.03538 -0.322066,-0.05329 -0.489192,-0.05329 z m 15.253237,0 c -0.2615,0 -0.48354,0.04926 -0.66639,0.147577 -0.18286,0.09634 -0.44548,0.67617 -0.44548,0.44546 v -0.513328 h -0.54566 v 3.303161 h 0.54566 v -1.739942 c 0,-0.373575 0.0819,-0.659549 0.24507,-0.858134 0.16515,-0.200547 0.40108,-0.301072 0.70782,-0.301072 0.0865,0 0.16516,0.0087 0.23594,0.02643 0.0727,0.01573 0.13945,0.04159 0.20041,0.07697 l -0.004,-0.55751 c 0,0 -0.10504,-0.01655 -0.1503,-0.02048 -0.0452,-0.0058 -0.0866,-0.0092 -0.1239,-0.0092 z m 2.0114,0 c -0.17696,0 -0.35889,0.01991 -0.54568,0.05922 -0.18678,0.03736 -0.37942,0.09412 -0.578,0.170806 v 0.501486 c 0.16515,-0.09043 0.33714,-0.158381 0.51606,-0.2036 0.17893,-0.04523 0.36285,-0.06789 0.55158,-0.06789 0.2969,0 0.52687,0.06917 0.69006,0.20679 0.16516,0.135658 0.24779,0.328304 0.24779,0.578007 v 0.05283 h -0.76066 c -0.4935,0 -0.86532,0.09457 -1.11503,0.283312 -0.24773,0.188752 -0.37167,0.46876 -0.37167,0.840369 0,0.318516 0.0992,0.573123 0.2979,0.763843 0.20054,0.18875 0.46983,0.283309 0.80803,0.283309 0.26738,0 0.49383,-0.04728 0.67865,-0.141648 0.18484,-0.09634 0.33891,-0.244912 0.46278,-0.445462 v 0.501487 h 0.54293 V 21.10076 c 0,-0.503337 -0.11796,-0.878669 -0.35392,-1.126408 -0.23592,-0.247726 -0.59304,-0.371663 -1.07082,-0.371662 z m 14.80927,0 c -0.49546,0 -0.88994,0.15928 -1.1829,0.477798 -0.29098,0.316556 -0.43634,0.745134 -0.43634,1.28583 0,0.523002 0.15332,0.938114 0.46002,1.244835 0.30871,0.306721 0.72656,0.460038 1.25349,0.460038 0.21039,0 0.41771,-0.02189 0.62221,-0.06513 0.20447,-0.04327 0.40384,-0.105999 0.5985,-0.188568 v -0.51333 c -0.1927,0.102239 -0.38732,0.178896 -0.58393,0.230019 -0.19465,0.05113 -0.39601,0.07697 -0.60442,0.07697 -0.35982,0 -0.64106,-0.09731 -0.84356,-0.291965 -0.20052,-0.196617 -0.31252,-0.481825 -0.33614,-0.855398 h 2.49513 v -0.265545 c 0,-0.491543 -0.12992,-0.879578 -0.38945,-1.164671 -0.25756,-0.287057 -0.60826,-0.430886 -1.05261,-0.430886 z m 3.61243,0 c -0.47384,0 -0.84522,0.153314 -1.11457,0.460037 -0.2674,0.306721 -0.40127,0.731322 -0.40127,1.273985 0,0.540695 0.13386,0.965753 0.40127,1.274441 0.26935,0.306721 0.64073,0.460038 1.11457,0.460038 0.47186,0 0.84293,-0.153317 1.11228,-0.460038 0.26937,-0.308688 0.40403,-0.733746 0.40403,-1.274441 0,-0.542663 -0.13466,-0.967264 -0.40403,-1.273985 -0.26935,-0.306723 -0.64042,-0.460037 -1.11228,-0.460037 z m 4.04969,0 c -0.26149,0 -0.48396,0.04926 -0.66681,0.147577 -0.18286,0.09634 -0.33099,0.244912 -0.44501,0.44546 v -0.513328 h -0.54567 v 3.303161 h 0.54567 v -1.739942 c 0,-0.373575 0.0814,-0.659549 0.24458,-0.858134 0.16517,-0.200547 0.4011,-0.301072 0.70782,-0.301072 0.0866,0 0.16516,0.0087 0.23594,0.02643 0.0728,0.01573 0.13948,0.04159 0.20041,0.07697 l -0.003,-0.55751 c -0.055,-0.0097 -0.10509,-0.01655 -0.15032,-0.02048 -0.0452,-0.0058 -0.0865,-0.0092 -0.12386,-0.0092 z m 7.50864,0 c -0.17695,0 -0.35887,0.01991 -0.54567,0.05922 -0.18678,0.03736 -0.37942,0.09412 -0.57801,0.170806 v 0.501486 c 0.16516,-0.09043 0.33714,-0.158381 0.51607,-0.2036 0.17893,-0.04523 0.36283,-0.06789 0.5516,-0.06789 0.29689,0 0.52684,0.06917 0.69005,0.20679 0.16514,0.135658 0.24779,0.328304 0.24779,0.578007 v 0.05283 h -0.76112 c -0.49351,0 -0.86488,0.09457 -1.11457,0.283312 -0.24775,0.188752 -0.37167,0.46876 -0.37167,0.840369 0,0.318516 0.0993,0.573123 0.29788,0.763843 0.20054,0.18875 0.46985,0.283309 0.80802,0.283309 0.26742,0 0.49342,-0.04728 0.67822,-0.141648 0.18483,-0.09634 0.33936,-0.244912 0.46324,-0.445462 v 0.501487 h 0.54247 V 21.10076 c 0,-0.503337 -0.11799,-0.878669 -0.35392,-1.126408 -0.23593,-0.247737 -0.59259,-0.371674 -1.07038,-0.371673 z m 4.13763,0 c -0.23005,0 -0.43342,0.04926 -0.61036,0.147577 -0.17501,0.0983 -0.32753,0.246876 -0.4573,0.44546 v -0.513328 h -0.54524 v 3.303161 h 0.54524 v -1.867025 c 0,-0.32245 0.0847,-0.577058 0.2537,-0.763845 0.16909,-0.186785 0.4003,-0.280121 0.69321,-0.280121 0.24383,0 0.42654,0.07788 0.54844,0.233208 0.1218,0.155327 0.1831,0.389279 0.1831,0.701899 v 1.975884 h 0.54248 v -1.993646 c 0,-0.456152 -0.0973,-0.80134 -0.29196,-1.035316 -0.19466,-0.235939 -0.48185,-0.353908 -0.86131,-0.353908 z m 13.17437,0 c -0.26152,0 -0.48353,0.04926 -0.66638,0.147577 -0.18284,0.09634 -0.33145,0.244912 -0.44545,0.44546 v -0.513328 h -0.54568 v 3.303161 h 0.54568 v -1.739942 c 0,-0.373575 0.0819,-0.659549 0.24503,-0.858134 0.16514,-0.200547 0.40112,-0.301072 0.70783,-0.301072 0.0866,0 0.16516,0.0087 0.23592,0.02643 0.0729,0.01573 0.13954,0.04159 0.20045,0.07697 l -0.004,-0.55751 c -0.055,-0.0097 -0.10515,-0.01655 -0.15029,-0.02048 -0.0453,-0.0058 -0.0866,-0.0092 -0.12386,-0.0092 z m 2.01142,0 c -0.17697,0 -0.35888,0.01991 -0.54568,0.05922 -0.18678,0.03736 -0.37942,0.09412 -0.578,0.170806 v 0.501486 c 0.16515,-0.09043 0.33714,-0.158381 0.51607,-0.2036 0.1789,-0.04523 0.36281,-0.06789 0.55158,-0.06789 0.2969,0 0.52684,0.06917 0.69006,0.20679 0.16515,0.135658 0.24777,0.328304 0.24777,0.578007 v 0.05283 h -0.76064 c -0.4935,0 -0.86534,0.09457 -1.11504,0.283312 -0.24773,0.188752 -0.37166,0.46876 -0.37166,0.840369 0,0.318516 0.0991,0.573123 0.29788,0.763843 0.20056,0.18875 0.46983,0.283309 0.80801,0.283309 0.26741,0 0.49386,-0.04728 0.67868,-0.141648 0.18481,-0.09634 0.33892,-0.244912 0.46277,-0.445462 v 0.501487 h 0.54297 V 21.10076 c 0,-0.503337 -0.11807,-0.878669 -0.35395,-1.126408 -0.23594,-0.247737 -0.59306,-0.371674 -1.07082,-0.371673 z m 3.96997,0 c -0.51513,0 -0.92153,0.154537 -1.2184,0.463225 -0.29494,0.308689 -0.44228,0.732069 -0.44228,1.270797 0,0.530867 0.14657,0.95271 0.43955,1.265331 0.29295,0.312621 0.68817,0.469148 1.18562,0.469148 0.18284,0 0.35485,-0.01789 0.51605,-0.05329 0.16319,-0.03538 0.32047,-0.08817 0.47188,-0.158968 v -0.501486 c -0.15336,0.08456 -0.3079,0.148504 -0.46321,0.191758 -0.15338,0.0413 -0.30865,0.06194 -0.46598,0.06194 -0.35193,0 -0.62522,-0.111235 -0.81986,-0.333414 -0.19465,-0.224142 -0.29197,-0.537963 -0.29197,-0.941027 0,-0.403064 0.0972,-0.715662 0.29197,-0.937838 0.19464,-0.224145 0.46793,-0.336145 0.81986,-0.336145 0.15733,0 0.3126,0.02188 0.46598,0.06512 0.15531,0.0413 0.30985,0.104026 0.46321,0.188568 v -0.507394 c -0.14943,-0.06881 -0.30397,-0.119617 -0.46321,-0.153044 -0.15926,-0.03538 -0.32207,-0.05329 -0.48921,-0.05329 z m 7.37292,0 c -0.51513,0 -0.92108,0.154537 -1.21798,0.463225 -0.2949,0.308689 -0.44226,0.732069 -0.44226,1.270797 0,0.530867 0.14611,0.95271 0.4391,1.265331 0.29295,0.312621 0.68816,0.469148 1.18559,0.469148 0.18287,0 0.35484,-0.01789 0.51608,-0.05329 0.16317,-0.03538 0.32047,-0.08817 0.47187,-0.158968 v -0.501486 c -0.15339,0.08456 -0.30743,0.148504 -0.46278,0.191758 -0.15335,0.0413 -0.30865,0.06194 -0.46596,0.06194 -0.35192,0 -0.6252,-0.111235 -0.81985,-0.333414 -0.19464,-0.224142 -0.29198,-0.537963 -0.29198,-0.941027 0,-0.403064 0.0971,-0.715662 0.29198,-0.937838 0.19465,-0.224145 0.46793,-0.336145 0.81985,-0.336145 0.15731,0 0.31261,0.02188 0.46596,0.06512 0.15535,0.0413 0.30939,0.104026 0.46278,0.188568 v -0.507394 c -0.14943,-0.06881 -0.30349,-0.119617 -0.46278,-0.153044 -0.15926,-0.03538 -0.32249,-0.05329 -0.48962,-0.05329 z m 3.28539,0 c -0.49548,0 -0.88948,0.15928 -1.18242,0.477798 -0.29101,0.316556 -0.43682,0.745134 -0.43682,1.28583 0,0.523002 0.1533,0.938114 0.46003,1.244835 0.30869,0.306721 0.72657,0.460038 1.25347,0.460038 0.2104,0 0.41819,-0.02189 0.62267,-0.06513 0.20446,-0.04327 0.40386,-0.105999 0.5985,-0.188568 v -0.51333 c -0.19267,0.102239 -0.38733,0.178896 -0.58393,0.230019 -0.19466,0.05113 -0.39602,0.07697 -0.60442,0.07697 -0.35981,0 -0.64103,-0.09731 -0.84357,-0.291965 -0.20053,-0.196617 -0.31251,-0.481825 -0.33614,-0.855398 h 2.49468 v -0.265545 c 0,-0.491543 -0.1295,-0.879578 -0.38899,-1.164671 -0.25757,-0.287057 -0.60873,-0.430886 -1.05306,-0.430886 z m -151.417545,0.07973 v 3.303162 h 0.542937 v -3.303162 z m 8.824069,0 1.238914,3.303162 h 0.737427 l 1.238459,-3.303162 h -0.574819 l -1.03258,2.772526 -1.032124,-2.772526 z m 3.964069,0 v 3.303162 h 0.542479 v -3.303162 z m 16.55407,0 v 1.99957 c 0,0.454186 0.09809,0.799372 0.294698,1.035313 0.196616,0.235939 0.485038,0.353911 0.864505,0.353911 0.230042,0 0.431409,-0.04807 0.604426,-0.144388 0.174988,-0.0983 0.328306,-0.248102 0.46004,-0.448653 v 0.507409 h 0.542934 v -3.303162 h -0.542934 v 1.872947 c 0,0.32245 -0.0854,0.577059 -0.256438,0.763845 -0.169089,0.186787 -0.400288,0.280119 -0.693244,0.280119 -0.243807,0 -0.426502,-0.07788 -0.548404,-0.233207 -0.121907,-0.157292 -0.183101,-0.392008 -0.183101,-0.704631 v -1.979084 z m 42.725044,0 v 1.99957 c 0,0.454186 0.09809,0.799372 0.294694,1.035313 0.196625,0.235939 0.485042,0.353911 0.864507,0.353911 0.23004,0 0.431399,-0.04807 0.604427,-0.144388 0.174989,-0.0983 0.460038,-0.688602 0.460038,-0.448653 v 0.507409 h 0.542484 v -3.303167 h -0.542484 v 1.872944 c 0,0.322452 -0.08543,0.57706 -0.256438,0.763847 -0.169091,0.186786 -0.400286,0.280119 -0.693241,0.280119 -0.243807,0 -0.426505,-0.07788 -0.548407,-0.233207 -0.121893,-0.157293 -0.183104,-0.392009 -0.183104,-0.704631 v -1.979072 z m 7.88031,0 v 1.99957 c 0,0.454186 0.09858,0.799372 0.295151,1.035313 0.196613,0.235939 0.484581,0.353911 0.864052,0.353911 0.23004,0 0.43141,-0.04807 0.60443,-0.144388 0.17498,-0.0983 0.46003,-0.688598 0.46003,-0.448653 v 0.507409 h 0.54295 v -3.303162 h -0.54295 v 1.872947 c 0,0.322452 -0.0854,0.577059 -0.25643,0.763845 -0.16909,0.186789 -0.40028,0.280119 -0.69325,0.280119 -0.243808,0 -0.426498,-0.07788 -0.548404,-0.233207 -0.121893,-0.157292 -0.183104,-0.392006 -0.183104,-0.704631 v -1.979073 z m 30.837413,0 1.33594,3.249871 -0.097,0.247784 c -0.10023,0.263466 -0.19206,0.430703 -0.27465,0.501486 -0.0825,0.07079 -0.19857,0.106129 -0.34799,0.106129 h -0.31839 v 0.454115 h 0.43366 c 0.24382,0 0.43845,-0.05998 0.58394,-0.179914 0.14549,-0.119935 0.29484,-0.376536 0.44818,-0.769767 l 1.45118,-3.609704 h -0.57529 l -1.03211,2.583501 -1.03211,-2.583501 z m 34.24762,0 v 3.303162 h 0.54246 V 19.682396 Z M 16.316156,20.056802 c 0.28706,0 0.513053,0.114004 0.678212,0.342069 0.165159,0.226109 0.247784,0.538706 0.247784,0.937838 0,0.399134 -0.08262,0.712952 -0.247784,0.941029 -0.165159,0.226109 -0.391152,0.339336 -0.678212,0.339333 -0.287063,0 -0.513513,-0.113221 -0.678671,-0.339333 -0.163191,-0.228077 -0.244593,-0.541895 -0.244593,-0.941029 0,-0.399132 0.0814,-0.711729 0.244593,-0.937838 0.165158,-0.228076 0.391608,-0.342069 0.678671,-0.342069 z m 127.678694,0 c 0.28704,0 0.5135,0.114004 0.67866,0.342069 0.16517,0.226109 0.24731,0.538706 0.24731,0.937838 0,0.399134 -0.0822,0.712952 -0.24731,0.941029 -0.16516,0.226109 -0.39162,0.339336 -0.67866,0.339333 -0.28708,0 -0.51307,-0.113221 -0.67823,-0.339333 -0.16318,-0.228077 -0.24457,-0.541895 -0.24457,-0.941029 0,-0.399132 0.0814,-0.711729 0.24457,-0.937838 0.16516,-0.228076 0.39115,-0.342069 0.67823,-0.342069 z m -98.106925,0.0058 c 0.289024,0 0.518234,0.115209 0.687324,0.345255 0.169089,0.228078 0.253703,0.537465 0.253703,0.92873 0,0.393234 -0.08461,0.704298 -0.253703,0.932374 -0.16909,0.228074 -0.3983,0.342067 -0.687324,0.342067 -0.29296,0 -0.523699,-0.113222 -0.692789,-0.339333 -0.167125,-0.228075 -0.250973,-0.539906 -0.250973,-0.935108 0,-0.3952 0.08461,-0.705808 0.253705,-0.931918 0.16909,-0.228074 0.399064,-0.342067 0.690057,-0.342067 z m 21.046042,0 c 0.289025,0 0.518234,0.115209 0.687326,0.345255 0.169087,0.228078 0.253702,0.537465 0.253702,0.92873 0,0.393234 -0.08461,0.704298 -0.253702,0.932374 -0.169092,0.228074 -0.398301,0.342067 -0.687326,0.342067 -0.29296,0 -0.524156,-0.113222 -0.693245,-0.339333 -0.167124,-0.228075 -0.250515,-0.539906 -0.250515,-0.935108 -10e-7,-0.3952 0.08461,-0.705808 0.253704,-0.931918 0.169091,-0.228074 0.399061,-0.342067 0.690056,-0.342067 z m 15.834407,0 c 0.2674,0 0.481915,0.0886 0.64314,0.265547 0.163188,0.176956 0.24658,0.414117 0.250517,0.711009 l -1.934436,0.0028 c 0.02754,-0.310657 0.131567,-0.551341 0.31246,-0.722396 0.182854,-0.171057 0.425527,-0.256892 0.728319,-0.256892 z m 38.434556,0 c 0.2674,0 0.4819,0.0886 0.64314,0.265547 0.16301,0.176956 0.24641,0.414117 0.25051,0.711009 l -1.93443,0.0028 c 0.0275,-0.310657 0.13158,-0.551341 0.31246,-0.722396 0.18286,-0.171057 0.42553,-0.256892 0.72832,-0.256892 z m 3.60697,0 c 0.28904,0 0.51825,0.115209 0.68733,0.345255 0.16909,0.228078 0.2537,0.537465 0.2537,0.92873 0,0.393234 -0.0846,0.704298 -0.2537,0.932374 -0.16908,0.228074 -0.39829,0.342067 -0.68733,0.342067 -0.29297,0 -0.5237,-0.113222 -0.69278,-0.339333 -0.16712,-0.228075 -0.25099,-0.539906 -0.25099,-0.935108 0,-0.3952 0.0846,-0.705808 0.2537,-0.931918 0.16909,-0.228074 0.39908,-0.342067 0.69007,-0.342067 z m 45.51594,0 c 0.26739,0 0.48191,0.0886 0.64314,0.265547 0.16302,0.176956 0.24641,0.414117 0.25053,0.711009 l -1.9349,0.0028 c 0.0274,-0.310657 0.13198,-0.551341 0.31293,-0.722396 0.18285,-0.171057 0.42552,-0.256892 0.7283,-0.256892 z M 9.0311608,21.325305 h 0.539747 v 0.12072 c 0,0.35391 -0.091355,0.637896 -0.2741998,0.852209 -0.180888,0.212345 -0.4215724,0.31884 -0.7223951,0.318837 -0.2182441,3e-6 -0.391451,-0.05599 -0.5192514,-0.168074 -0.1258332,-0.114033 -0.1885693,-0.267807 -0.1885693,-0.460491 0,-0.241837 0.084618,-0.4126 0.2537031,-0.512874 0.1690894,-0.10028 0.4725089,-0.150311 0.9109655,-0.150311 z m 16.8815622,0 h 0.539747 v 0.12072 c 0,0.35391 -0.09134,0.637896 -0.2742,0.852209 -0.180887,0.212345 -0.421572,0.31884 -0.722394,0.318837 -0.218248,3e-6 -0.391451,-0.05599 -0.519254,-0.168074 -0.125839,-0.114033 -0.18857,-0.267807 -0.18857,-0.460491 0,-0.241837 0.08463,-0.4126 0.253706,-0.512874 0.169092,-0.10028 0.47251,-0.150311 0.910965,-0.150311 z m 8.953885,0 h 0.539745 v 0.12072 c 0,0.35391 -0.09134,0.637896 -0.274202,0.852209 -0.180885,0.212345 -0.42157,0.31884 -0.722394,0.318837 -0.218245,3e-6 -0.391449,-0.05599 -0.519253,-0.168074 -0.125838,-0.114033 -0.188567,-0.267807 -0.188567,-0.460491 0,-0.241837 0.08461,-0.4126 0.253702,-0.512874 0.169092,-0.10028 0.472511,-0.150311 0.910969,-0.150311 z m 25.211172,0 h 0.539291 v 0.12072 c 0,0.35391 -0.09133,0.637896 -0.2742,0.852209 -0.180888,0.212345 -0.421573,0.31884 -0.722397,0.318837 -0.218246,3e-6 -0.39145,-0.05599 -0.519249,-0.168074 -0.125839,-0.114033 -0.188573,-0.267807 -0.188571,-0.460491 0,-0.241837 0.08461,-0.4126 0.253705,-0.512874 0.16909,-0.10028 0.426191,-0.145522 0.911421,-0.150311 z m 46.65248,0 h 0.53975 v 0.12072 c 0,0.35391 -0.0914,0.637896 -0.2742,0.852209 -0.1809,0.212345 -0.42157,0.31884 -0.72239,0.318837 -0.21825,3e-6 -0.39146,-0.05599 -0.51926,-0.168074 -0.12583,-0.114033 -0.18857,-0.267807 -0.18857,-0.460491 0,-0.241837 0.0841,-0.4126 0.25324,-0.512874 0.16909,-0.10028 0.46084,-0.13398 0.91143,-0.150311 z m 29.98003,0 h 0.53977 v 0.12072 c 0,0.35391 -0.0913,0.637896 -0.27423,0.852209 -0.18089,0.212345 -0.42203,0.31884 -0.72282,0.318837 -0.21826,3e-6 -0.39101,-0.05599 -0.5188,-0.168074 -0.12583,-0.114033 -0.18903,-0.267807 -0.18903,-0.460491 0,-0.241837 0.0846,-0.4126 0.2537,-0.512874 0.16909,-0.10028 0.47296,-0.150311 0.91141,-0.150311 z m 19.32342,0 h 0.53974 v 0.12072 c 0,0.35391 -0.0914,0.637896 -0.2742,0.852209 -0.18088,0.212345 -0.42157,0.31884 -0.72239,0.318837 -0.21824,3e-6 -0.39143,-0.05599 -0.51925,-0.168074 -0.12589,-0.114033 -0.18859,-0.267807 -0.18859,-0.460491 0,-0.241837 0.0843,-0.4126 0.25328,-0.512874 0.16907,-0.10028 0.47294,-0.150311 0.91141,-0.150311 z"
     style="opacity:1;fill:#ffffff;stroke:#ffffff;stroke-width:0.396875" />
</svg>
