<?xml version="1.0" encoding="UTF-8" standalone="no"?>
<svg
   xmlns:dc="http://purl.org/dc/elements/1.1/"
   xmlns:cc="http://creativecommons.org/ns#"
   xmlns:rdf="http://www.w3.org/1999/02/22-rdf-syntax-ns#"
   xmlns:svg="http://www.w3.org/2000/svg"
   xmlns="http://www.w3.org/2000/svg"
   width="768"
   height="126"
   viewBox="0 0 203.2 33.3375"
   version="1.1"
   id="svg6591">
  <metadata
     id="metadata8141">
    <rdf:RDF>
      <cc:Work
         rdf:about="">
        <dc:format>image/svg+xml</dc:format>
        <dc:type
           rdf:resource="http://purl.org/dc/dcmitype/StillImage" />
        <dc:title></dc:title>
      </cc:Work>
    </rdf:RDF>
  </metadata>
  <defs
     id="defs6585" />
  <path
     d="m 42.975154,4.2173111 c -1.389613,0 -2.481189,0.3233711 -3.275254,0.9699667 -0.788392,0.6465953 -1.182872,1.531584 -1.182872,2.6546182 0,0.9698932 0.286517,1.7271947 0.85938,2.271696 0.57286,0.544502 1.500412,0.944176 2.782257,1.19941 l 1.046449,0.204122 c 0.873471,0.175828 1.499973,0.439509 1.879988,0.791166 0.385689,0.351657 0.578776,0.839569 0.578776,1.463476 0,0.714659 -0.266792,1.264857 -0.799951,1.650546 -0.533157,0.385688 -1.289942,0.578259 -2.271178,0.578259 -0.646597,0 -1.304759,-0.09914 -1.974041,-0.297656 -0.669282,-0.198516 -1.352878,-0.493341 -2.050521,-0.884701 v 1.769401 c 0.726004,0.26658 1.426726,0.467973 2.101681,0.604098 0.680628,0.136125 1.32166,0.204638 1.922881,0.204638 1.593799,0 2.801643,-0.317661 3.624066,-0.952913 0.828099,-0.635251 1.242304,-1.568512 1.242304,-2.799312 0,-1.032284 -0.306245,-1.854469 -0.918808,-2.467033 -0.606894,-0.618236 -1.551572,-1.04957 -2.833418,-1.2934611 L 42.669229,9.6712416 C 41.727696,9.495413 41.086664,9.2654726 40.746349,8.9818782 40.411709,8.6926116 40.244572,8.2669873 40.244572,7.7054703 c 0,-0.6692832 0.252261,-1.1852249 0.75706,-1.5482261 0.510468,-0.3630009 1.233516,-0.5446694 2.169374,-0.5446694 0.538832,0 1.097336,0.076819 1.675868,0.22996 0.578533,0.1531411 1.194134,0.3856781 1.846398,0.6976319 V 4.8643001 C 46.04668,4.6487682 45.414466,4.4868241 44.79623,4.3790583 44.177994,4.2712924 43.570702,4.2173111 42.975154,4.2173111 Z M 0,4.4994643 V 17.201531 h 1.7182414 v -6.066296 h 5.036902 V 9.6893285 H 1.7182414 V 5.9458877 h 5.581571 V 4.4994643 Z m 8.9823974,0 V 17.201531 H 16.886307 V 15.755108 H 10.701155 V 4.4994643 Z m 9.0113356,0 V 17.201531 h 8.184515 v -1.446423 h -6.466274 v -4.60282 h 6.049243 V 9.7063817 h -6.049243 v -3.760494 h 6.31331 V 4.4994643 Z m 10.364226,0 V 17.201531 h 1.718757 v -6.116939 l 6.099887,6.116939 h 2.263428 L 31.684888,10.42055 37.988896,4.4994643 H 35.777143 L 30.076716,9.8676122 V 4.4994643 Z M 19.341455,22.583632 v 2.027783 c -0.129381,-0.22307 -0.293428,-0.388504 -0.49196,-0.495577 -0.196302,-0.109305 -0.432911,-0.163814 -0.709518,-0.163814 -0.452831,0 -0.821895,0.180712 -1.107426,0.542085 -0.283298,0.361374 -0.42478,0.836332 -0.42478,1.425236 0,0.588904 0.141482,1.064379 0.42478,1.425752 0.285531,0.361374 0.654595,0.542087 1.107426,0.542087 0.276607,0 0.513216,-0.05364 0.709518,-0.160714 0.198532,-0.109304 0.362579,-0.275608 0.49196,-0.498678 v 0.562239 h 0.615466 v -5.206399 z m 1.883605,0 v 0.779797 h 0.615984 v -0.779797 z m 14.508675,0 v 0.779797 h 0.615466 v -0.779797 z m 34.45061,0 v 5.206399 h 0.615984 v -5.206399 z m 9.586494,0 c -0.4216,0 -0.729387,0.096 -0.923456,0.287837 -0.194072,0.18961 -0.290939,0.492882 -0.290939,0.910022 v 0.260966 h -0.58911 v 0.478524 h 0.58911 v 3.26905 h 0.619083 v -3.26905 h 1.013891 v -0.478524 h -1.013891 v -0.331245 c 0,-0.231993 0.04236,-0.392397 0.127124,-0.481625 0.087,-0.08923 0.240631,-0.133842 0.461471,-0.133842 h 0.589113 v -0.512113 z m 27.353891,0 v 5.206399 h 0.61598 v -5.206399 z m 15.9675,0 v 5.206399 h 0.61546 v -5.206399 z m 8.24807,0 v 5.206399 h 0.61908 v -2.118216 c 0,-0.365834 0.096,-0.654698 0.28784,-0.866614 0.19184,-0.211916 0.45363,-0.31781 0.786,-0.31781 0.27661,0 0.4844,0.08836 0.6227,0.264584 0.13831,0.176225 0.20722,0.441653 0.20722,0.796334 v 2.241722 h 0.61599 v -2.261876 c 0,-0.517522 -0.11093,-0.909152 -0.33177,-1.174606 -0.22084,-0.267684 -0.54616,-0.401525 -0.97668,-0.401525 -0.26099,0 -0.49221,0.0559 -0.69298,0.167431 -0.19853,0.111535 -0.37109,0.280095 -0.51832,0.505396 v -2.041219 z m 32.85794,0 v 2.027783 c -0.12938,-0.22307 -0.29291,-0.388504 -0.49144,-0.495577 -0.19631,-0.109305 -0.43291,-0.163814 -0.70952,-0.163814 -0.45282,0 -0.82189,0.180712 -1.10742,0.542085 -0.2833,0.361374 -0.4253,0.836332 -0.4253,1.425236 0,0.588904 0.142,1.064379 0.4253,1.425752 0.28553,0.361374 0.6546,0.542087 1.10742,0.542087 0.27661,0 0.51321,-0.05364 0.70952,-0.160714 0.19853,-0.109304 0.36206,-0.275608 0.49144,-0.498678 v 0.562239 h 0.61599 v -5.206399 z m 21.57233,0 v 0.779797 h 0.61547 V 22.583632 Z M 1.7580324,22.704038 c -0.5465215,0 -0.9759958,0.127072 -1.2882936,0.381372 -0.3100673,0.254299 -0.4650877,0.602185 -0.4650877,1.043864 0,0.381449 0.112663,0.679338 0.3379636,0.893485 0.2253007,0.214147 0.5898521,0.371425 1.0939902,0.471806 l 0.4113443,0.08062 c 0.3435278,0.06915 0.590033,0.172789 0.7394897,0.311093 0.1516875,0.138303 0.2278931,0.32978 0.2278931,0.575158 0,0.281067 -0.1050237,0.497885 -0.3147095,0.649574 -0.2096857,0.151688 -0.5075745,0.227375 -0.8934854,0.227375 -0.2542998,0 -0.5129575,-0.03923 -0.7761801,-0.117306 -0.2632223,-0.07807 -0.5317762,-0.193863 -0.8061523,-0.347782 v 0.696082 c 0.2855296,0.104847 0.5608531,0.183661 0.8263061,0.237194 0.267684,0.05354 0.5195721,0.08062 0.7560263,0.08062 0.6268264,0 1.1023015,-0.124818 1.4257527,-0.374653 0.325682,-0.249838 0.4883423,-0.617164 0.4883423,-1.101226 0,-0.405987 -0.1203026,-0.729051 -0.3612182,-0.969967 C 2.9213291,25.198192 2.5500081,25.028245 2.0458699,24.932326 L 1.6376261,24.84861 C 1.2673303,24.779458 1.014925,24.68936 0.8810834,24.577825 0.7494719,24.46406 0.6836793,24.296886 0.6836793,24.076047 c 0,-0.263223 0.099124,-0.466501 0.2976563,-0.609265 0.2007629,-0.142765 0.4856292,-0.21394 0.8536945,-0.21394 0.2119164,0 0.4313433,0.03021 0.6588747,0.09043 0.2275313,0.06023 0.4695235,0.151714 0.7260537,0.274402 V 22.958286 C 2.9656587,22.873522 2.7168972,22.809986 2.4737509,22.7676 2.2306047,22.725213 1.9922556,22.704038 1.7580324,22.704038 Z m 46.6369466,0.09043 v 4.647778 c 0,0.432755 -0.06128,0.732385 -0.18397,0.899686 -0.122687,0.167304 -0.333605,0.251148 -0.632518,0.251148 H 47.36765 v 0.568957 h 0.257865 c 0.50637,0 0.873178,-0.136099 1.100709,-0.408244 0.229762,-0.272145 0.344681,-0.709258 0.344681,-1.311547 v -4.647778 z m 34.678501,0 v 4.995559 h 0.675928 v -4.995559 z m 43.43507,0 v 0.568957 h 1.77354 v 4.426602 h 0.67903 v -4.426602 h 1.77353 v -0.568957 z m 41.78195,0 v 4.995559 h 0.67593 v -2.007628 h 0.85007 c 0.55991,0 0.98262,-0.126202 1.26814,-0.378272 0.28776,-0.252068 0.4315,-0.624259 0.4315,-1.117244 0,-0.488524 -0.14374,-0.858975 -0.4315,-1.111043 -0.28552,-0.2543 -0.70823,-0.381372 -1.26814,-0.381372 z m -78.883038,0.183968 v 1.064017 H 88.95581 v 0.478524 h 0.451652 v 2.034502 c 0,0.468445 0.09061,0.791509 0.271301,0.969965 0.180686,0.176226 0.508264,0.264583 0.983403,0.264583 h 0.632518 v -0.515212 h -0.632518 c -0.256532,0 -0.426831,-0.04374 -0.511598,-0.130741 -0.08254,-0.087 -0.124024,-0.282991 -0.124024,-0.588595 v -2.034502 h 1.26814 v -0.478524 h -1.26814 v -1.064017 z m 19.608098,0 v 1.064017 h -0.45165 v 0.478524 h 0.45165 v 2.034502 c 0,0.468445 0.0901,0.791509 0.27079,0.969965 0.18069,0.176226 0.50878,0.264583 0.98392,0.264583 h 0.63252 v -0.515212 h -0.63252 c -0.25653,0 -0.42735,-0.04374 -0.51212,-0.130741 -0.0825,-0.087 -0.1235,-0.282991 -0.1235,-0.588595 v -2.034502 h 1.26814 v -0.478524 h -1.26814 v -1.064017 z m 74.0544,0 v 1.064017 h -0.45165 v 0.478524 h 0.45165 v 2.034502 c 0,0.468445 0.0906,0.791509 0.2713,0.969965 0.18069,0.176226 0.50878,0.264583 0.98392,0.264583 h 0.632 v -0.515212 h -0.632 c -0.25653,0 -0.42735,-0.04374 -0.51211,-0.130741 -0.0825,-0.087 -0.12403,-0.282991 -0.12403,-0.588595 v -2.034502 h 1.26814 v -0.478524 h -1.26814 v -1.064017 z m -14.10353,0.371553 h 0.85007 c 0.31453,0 0.55791,0.08107 0.72967,0.243913 0.17177,0.162841 0.25735,0.394068 0.25735,0.692981 0,0.301144 -0.0856,0.532724 -0.25735,0.695565 -0.17176,0.162841 -0.41514,0.244429 -0.72967,0.244429 h -0.85007 z M 6.1644814,23.952024 c -0.584443,0 -1.0449919,0.175329 -1.3818276,0.525549 -0.3346048,0.35022 -0.5017781,0.830561 -0.5017781,1.441772 0,0.60229 0.1663036,1.080889 0.4986774,1.435571 0.3323743,0.354682 0.7807713,0.532268 1.3451373,0.532268 0.207456,0 0.402577,-0.02032 0.585494,-0.06046 0.185148,-0.04015 0.363604,-0.100047 0.535368,-0.180353 v -0.568958 c -0.173995,0.09592 -0.349324,0.168487 -0.525549,0.217559 -0.173995,0.04685 -0.350194,0.07028 -0.52865,0.07028 -0.399295,0 -0.7093363,-0.126201 -0.9301758,-0.37827 -0.2208393,-0.254299 -0.3312459,-0.610342 -0.3312459,-1.067636 0,-0.457293 0.1104066,-0.811948 0.3312459,-1.064017 0.2208395,-0.2543 0.5308808,-0.381372 0.9301758,-0.381372 0.178456,0 0.354655,0.02482 0.52865,0.0739 0.176225,0.04685 0.351554,0.11802 0.525549,0.21394 v -0.575679 c -0.169533,-0.07808 -0.344863,-0.135713 -0.525549,-0.173633 -0.180687,-0.04015 -0.365913,-0.06046 -0.555522,-0.06046 z m 3.473173,0 c -0.200762,0 -0.407167,0.02257 -0.619083,0.06718 -0.211916,0.04238 -0.430474,0.106789 -0.655774,0.193787 v 0.568957 c 0.187378,-0.102611 0.3825,-0.179687 0.585494,-0.230993 0.202993,-0.05131 0.411654,-0.077 0.625801,-0.077 0.336836,0 0.5977496,0.07846 0.7828976,0.234611 0.187379,0.153918 0.28112,0.372475 0.28112,0.655773 v 0.05994 H 9.7751144 c -0.559906,0 -0.981741,0.107281 -1.26504,0.321428 -0.281067,0.214147 -0.421679,0.531827 -0.421679,0.953431 0,0.361373 0.112663,0.650234 0.337964,0.866613 0.227531,0.214146 0.533059,0.321427 0.916739,0.321427 0.303376,0 0.560294,-0.05364 0.7699786,-0.160714 0.209686,-0.109304 0.384499,-0.277865 0.525033,-0.505396 v 0.568957 h 0.615983 v -2.13837 c 0,-0.571058 -0.133842,-0.996889 -0.401526,-1.277958 -0.267684,-0.281068 -0.672853,-0.421679 -1.2149126,-0.421679 z m 4.6948036,0 c -0.260991,0 -0.492218,0.0559 -0.692981,0.167431 -0.198532,0.111535 -0.371089,0.280095 -0.518315,0.505396 v -0.582394 h -0.619083 v 3.747574 h 0.619083 v -2.118216 c 0,-0.365834 0.096,-0.654698 0.287838,-0.866614 0.19184,-0.211916 0.453625,-0.31781 0.785999,-0.31781 0.276606,0 0.484397,0.08836 0.622701,0.264584 0.138303,0.176225 0.207222,0.441653 0.207222,0.796334 v 2.241722 h 0.615467 v -2.261876 c 0,-0.517522 -0.110408,-0.909152 -0.331246,-1.174606 -0.22084,-0.267684 -0.54616,-0.401525 -0.976685,-0.401525 z m 10.600385,0 c -0.26099,0 -0.492217,0.0559 -0.692981,0.167431 -0.19853,0.111535 -0.371086,0.280095 -0.518313,0.505396 v -0.582394 h -0.619083 v 3.747574 h 0.619083 v -2.118216 c 0,-0.365834 0.09548,-0.654698 0.287322,-0.866614 0.191838,-0.211916 0.454141,-0.31781 0.786513,-0.31781 0.276609,0 0.483881,0.08836 0.622186,0.264584 0.138303,0.176225 0.207738,0.441653 0.207738,0.796334 v 2.241722 h 0.615466 v -2.261876 c 0,-0.517522 -0.110405,-0.909152 -0.331245,-1.174606 -0.22084,-0.267684 -0.546161,-0.401525 -0.976686,-0.401525 z m 3.857646,0 c -0.200763,0 -0.407167,0.02257 -0.619082,0.06718 -0.211918,0.04238 -0.430475,0.106789 -0.655775,0.193787 v 0.568957 c 0.18738,-0.102611 0.3825,-0.179687 0.585493,-0.230993 0.202994,-0.05131 0.411655,-0.077 0.625804,-0.077 0.336835,0 0.597749,0.07846 0.782896,0.234611 0.187381,0.153918 0.28112,0.372475 0.28112,0.655773 v 0.05994 h -0.862997 c -0.559903,0 -0.981739,0.107281 -1.265039,0.321428 -0.281067,0.214147 -0.421679,0.531827 -0.421679,0.953431 0,0.361373 0.112664,0.650234 0.337965,0.866613 0.227531,0.214146 0.533059,0.321427 0.916739,0.321427 0.303374,0 0.560292,-0.05364 0.76998,-0.160714 0.209685,-0.109304 0.384498,-0.277865 0.525031,-0.505396 v 0.568957 h 0.615984 v -2.13837 c 0,-0.571058 -0.133842,-0.996889 -0.401526,-1.277958 -0.267684,-0.281068 -0.672854,-0.421679 -1.214914,-0.421679 z m 10.158553,0 c -0.200763,0 -0.407167,0.02257 -0.619083,0.06718 -0.211915,0.04238 -0.430474,0.106789 -0.655775,0.193787 v 0.568957 c 0.187381,-0.102611 0.382503,-0.179687 0.585494,-0.230993 0.202994,-0.05131 0.411655,-0.077 0.625803,-0.077 0.336836,0 0.597749,0.07846 0.782897,0.234611 0.18738,0.153918 0.28112,0.372475 0.28112,0.655773 v 0.05994 h -0.862997 c -0.559903,0 -0.981742,0.107281 -1.265036,0.321428 -0.28107,0.214147 -0.421683,0.531827 -0.421683,0.953431 0,0.361373 0.112665,0.650234 0.337966,0.866613 0.227531,0.214146 0.533058,0.321427 0.916739,0.321427 0.303376,0 0.560295,-0.05364 0.769979,-0.160714 0.209685,-0.109304 0.384498,-0.277865 0.525032,-0.505396 v 0.568957 h 0.615984 v -2.13837 c 0,-0.571058 -0.133842,-0.996889 -0.401526,-1.277958 -0.267685,-0.281068 -0.672854,-0.421679 -1.214914,-0.421679 z m 4.694804,0 c -0.260991,0 -0.492218,0.0559 -0.692981,0.167431 -0.19853,0.111535 -0.371089,0.280095 -0.518314,0.505396 v -0.582394 h -0.619082 v 3.747574 h 0.619082 v -2.118216 c 0,-0.365834 0.096,-0.654698 0.287838,-0.866614 0.191839,-0.211916 0.453625,-0.31781 0.785998,-0.31781 0.276608,0 0.484399,0.08836 0.622702,0.264584 0.138303,0.176225 0.207221,0.441653 0.207221,0.796334 v 2.241722 h 0.615466 v -2.261876 c 0,-0.517522 -0.110405,-0.909152 -0.331245,-1.174606 -0.22084,-0.267684 -0.546158,-0.401525 -0.976685,-0.401525 z m 8.197434,0 c -0.537599,0 -0.958919,0.173942 -1.264523,0.521932 -0.303377,0.347988 -0.455269,0.829716 -0.455269,1.445389 0,0.613442 0.151892,1.095687 0.455269,1.445906 0.305604,0.34799 0.726924,0.521933 1.264523,0.521933 0.535366,0 0.956331,-0.173943 1.261938,-0.521933 0.305605,-0.350219 0.45837,-0.832464 0.45837,-1.445906 0,-0.615673 -0.152765,-1.097401 -0.45837,-1.445389 -0.305607,-0.34799 -0.726572,-0.521932 -1.261938,-0.521932 z m 8.944155,0 c -0.296683,0 -0.548571,0.0559 -0.756026,0.167431 -0.207454,0.109304 -0.376015,0.277865 -0.505394,0.505396 V 24.042457 H 58.90493 v 3.747574 h 0.619085 v -1.974038 c 0,-0.423833 0.09235,-0.748284 0.277501,-0.973585 0.18738,-0.227531 0.455064,-0.341581 0.803052,-0.341581 0.09815,0 0.187378,0.0099 0.267685,0.02997 0.08254,0.01785 0.158742,0.04718 0.227893,0.08733 l -0.0036,-0.63252 c -0.06245,-0.01115 -0.119223,-0.01879 -0.170531,-0.02325 -0.0513,-0.0067 -0.09817,-0.01034 -0.14056,-0.01034 z m 2.653586,0 c -0.260993,0 -0.492218,0.0559 -0.692981,0.167431 -0.198533,0.111535 -0.371089,0.280095 -0.518314,0.505396 v -0.582394 h -0.619085 v 3.747574 h 0.619085 v -2.118216 c 0,-0.365834 0.096,-0.654698 0.287838,-0.866614 0.191839,-0.211916 0.453623,-0.31781 0.785998,-0.31781 0.276606,0 0.484399,0.08836 0.622699,0.264584 0.138306,0.176225 0.207224,0.441653 0.207224,0.796334 v 2.241722 h 0.615982 v -2.261876 c 0,-0.517522 -0.110921,-0.909152 -0.331761,-1.174606 -0.22084,-0.267684 -0.546161,-0.401525 -0.976685,-0.401525 z m 3.857646,0 c -0.200764,0 -0.406652,0.02257 -0.618567,0.06718 -0.211915,0.04238 -0.43099,0.106789 -0.656291,0.193787 v 0.568957 c 0.187378,-0.102611 0.383016,-0.179687 0.58601,-0.230993 0.202993,-0.05131 0.411138,-0.077 0.625284,-0.077 0.336836,0 0.598268,0.07846 0.783416,0.234611 0.187377,0.153918 0.280603,0.372475 0.280603,0.655773 v 0.05994 h -0.862996 c -0.559906,0 -0.981739,0.107281 -1.265039,0.321428 -0.281067,0.214147 -0.421164,0.531827 -0.421164,0.953431 0,0.361373 0.112665,0.650234 0.337965,0.866613 0.227531,0.214146 0.533059,0.321427 0.916739,0.321427 0.303377,0 0.559777,-0.05364 0.769461,-0.160714 0.209688,-0.109304 0.384501,-0.277865 0.525034,-0.505396 v 0.568957 h 0.615982 v -2.13837 c 0,-0.571058 -0.133842,-0.996889 -0.401524,-1.277958 -0.267684,-0.281068 -0.672854,-0.421679 -1.214913,-0.421679 z m 8.422224,0 c -0.537599,0 -0.958916,0.173942 -1.264523,0.521932 -0.303374,0.347988 -0.455269,0.829716 -0.455269,1.445389 0,0.613442 0.151895,1.095687 0.455269,1.445906 0.305607,0.34799 0.726924,0.521933 1.264523,0.521933 0.535369,0 0.955815,-0.173943 1.261422,-0.521933 0.305605,-0.350219 0.45837,-0.832464 0.45837,-1.445906 0,-0.615673 -0.152765,-1.097401 -0.45837,-1.445389 -0.305607,-0.34799 -0.726053,-0.521932 -1.261422,-0.521932 z m 11.155908,0 c -0.260991,0 -0.492218,0.0559 -0.692981,0.167431 -0.198533,0.111535 -0.371089,0.280095 -0.518314,0.505396 v -0.582394 h -0.619085 v 3.747574 h 0.619085 v -2.118216 c 0,-0.365834 0.096,-0.654698 0.287838,-0.866614 0.191841,-0.211916 0.453623,-0.31781 0.785998,-0.31781 0.276606,0 0.484399,0.08836 0.622702,0.264584 0.138303,0.176225 0.207221,0.441653 0.207221,0.796334 v 2.241722 h 0.615466 v -2.261876 c 0,-0.517522 -0.110405,-0.909152 -0.331245,-1.174606 -0.22084,-0.267684 -0.546161,-0.401525 -0.976685,-0.401525 z m 6.80217,0 c -0.562137,0 -1.009148,0.180712 -1.341522,0.542085 -0.330142,0.359143 -0.49506,0.845384 -0.49506,1.458826 0,0.593367 0.173943,1.064328 0.521933,1.412316 0.350219,0.34799 0.824307,0.521933 1.422136,0.521933 0.238683,0 0.473905,-0.02482 0.7059,-0.0739 0.231992,-0.04907 0.458187,-0.120251 0.679027,-0.21394 v -0.582393 c -0.21861,0.115994 -0.439423,0.202965 -0.66249,0.260967 -0.22084,0.058 -0.449295,0.08733 -0.685748,0.08733 -0.408217,0 -0.727286,-0.110406 -0.957048,-0.331245 -0.227533,-0.223071 -0.354605,-0.546651 -0.381373,-0.970484 h 2.830835 v -0.301273 c 0,-0.557675 -0.14738,-0.997915 -0.441833,-1.321366 -0.292221,-0.325682 -0.69062,-0.488859 -1.194757,-0.488859 z m 4.504112,0 c -0.29668,0 -0.54908,0.0559 -0.75654,0.167431 -0.20745,0.109304 -0.3755,0.277865 -0.50488,0.505396 v -0.582394 h -0.61908 v 3.747574 h 0.61908 v -1.974038 c 0,-0.423833 0.0924,-0.748284 0.2775,-0.973585 0.18738,-0.227531 0.45507,-0.341581 0.80306,-0.341581 0.0981,0 0.18737,0.0099 0.26768,0.02997 0.0825,0.01785 0.15822,0.04718 0.22738,0.08733 l -0.003,-0.63252 c -0.0624,-0.01115 -0.1192,-0.01879 -0.17053,-0.02325 -0.0513,-0.0067 -0.0982,-0.01034 -0.14056,-0.01034 z m 2.436029,0 c -0.58445,0 -1.045509,0.175329 -1.382339,0.525549 -0.33461,0.35022 -0.50178,0.830561 -0.50178,1.441772 0,0.60229 0.1663,1.080889 0.49868,1.435571 0.33237,0.354682 0.780769,0.532268 1.345129,0.532268 0.20746,0 0.40259,-0.02032 0.5855,-0.06046 0.18514,-0.04015 0.3636,-0.100047 0.53537,-0.180353 v -0.568958 c -0.174,0.09592 -0.34933,0.168487 -0.52555,0.217559 -0.174,0.04685 -0.3502,0.07028 -0.52865,0.07028 -0.3993,0 -0.709339,-0.126201 -0.930179,-0.37827 -0.22084,-0.254299 -0.33124,-0.610342 -0.33124,-1.067636 0,-0.457293 0.1104,-0.811948 0.33124,-1.064017 0.22084,-0.2543 0.530879,-0.381372 0.930179,-0.381372 0.17845,0 0.35465,0.02482 0.52865,0.0739 0.17622,0.04685 0.35155,0.11802 0.52555,0.21394 v -0.575679 c -0.16954,-0.07808 -0.34487,-0.135713 -0.52555,-0.173633 -0.18069,-0.04015 -0.3654,-0.06046 -0.55501,-0.06046 z m 17.30541,0 c -0.29668,0 -0.54858,0.0559 -0.75603,0.167431 -0.20745,0.109304 -0.37601,0.277865 -0.5054,0.505396 v -0.582394 h -0.61908 v 3.747574 h 0.61908 v -1.974038 c 0,-0.423833 0.0929,-0.748284 0.27802,-0.973585 0.18738,-0.227531 0.45506,-0.341581 0.80306,-0.341581 0.0981,0 0.18737,0.0099 0.26768,0.02997 0.0825,0.01785 0.15823,0.04718 0.22737,0.08733 l -0.004,-0.63252 c -0.0624,-0.01115 -0.1192,-0.01879 -0.17053,-0.02325 -0.0513,-0.0067 -0.0982,-0.01034 -0.14056,-0.01034 z m 2.28203,0 c -0.20076,0 -0.40717,0.02257 -0.61909,0.06718 -0.21191,0.04238 -0.43047,0.106789 -0.65577,0.193787 v 0.568957 c 0.18737,-0.102611 0.3825,-0.179687 0.58549,-0.230993 0.203,-0.05131 0.41166,-0.077 0.6258,-0.077 0.33684,0 0.59776,0.07846 0.7829,0.234611 0.18738,0.153918 0.28112,0.372475 0.28112,0.655773 v 0.05994 h -0.86299 c -0.55991,0 -0.98174,0.107281 -1.26504,0.321428 -0.28107,0.214147 -0.42168,0.531827 -0.42168,0.953431 0,0.361373 0.11266,0.650234 0.33796,0.866613 0.22753,0.214146 0.53306,0.321427 0.91674,0.321427 0.30337,0 0.56029,-0.05364 0.76998,-0.160714 0.20969,-0.109304 0.3845,-0.277865 0.52503,-0.505396 v 0.568957 h 0.61598 v -2.13837 c 0,-0.571058 -0.13384,-0.996889 -0.40152,-1.277958 -0.26769,-0.281068 -0.67285,-0.421679 -1.21491,-0.421679 z m 17.07854,0 c -0.56213,0 -1.00966,0.180712 -1.34204,0.542085 -0.33014,0.359143 -0.49506,0.845384 -0.49506,1.458826 0,0.593367 0.17395,1.064328 0.52193,1.412316 0.35023,0.34799 0.82431,0.521933 1.42214,0.521933 0.23869,0 0.47391,-0.02482 0.7059,-0.0739 0.23199,-0.04907 0.45819,-0.120251 0.67903,-0.21394 v -0.582393 c -0.21861,0.115994 -0.43943,0.202965 -0.66249,0.260967 -0.22084,0.058 -0.4493,0.08733 -0.68575,0.08733 -0.40822,0 -0.72729,-0.110406 -0.95705,-0.331245 -0.22749,-0.223071 -0.35457,-0.546651 -0.38137,-0.970484 h 2.83084 v -0.301273 c 0,-0.557675 -0.14738,-0.997915 -0.44184,-1.321366 -0.29222,-0.325682 -0.6901,-0.488859 -1.19424,-0.488859 z m 4.09846,0 c -0.5376,0 -0.95893,0.173942 -1.26452,0.521932 -0.30338,0.347988 -0.45527,0.829716 -0.45527,1.445389 0,0.613442 0.15189,1.095687 0.45527,1.445906 0.30559,0.34799 0.72692,0.521933 1.26452,0.521933 0.53536,0 0.95633,-0.173943 1.26194,-0.521933 0.3056,-0.350219 0.45837,-0.832464 0.45837,-1.445906 0,-0.615673 -0.15277,-1.097401 -0.45837,-1.445389 -0.30561,-0.34799 -0.72658,-0.521932 -1.26194,-0.521932 z m 4.59455,0 c -0.29668,0 -0.54909,0.0559 -0.75654,0.167431 -0.20746,0.109304 -0.3755,0.277865 -0.50488,0.505396 v -0.582394 h -0.61909 v 3.747574 h 0.61909 v -1.974038 c 0,-0.423833 0.0923,-0.748284 0.2775,-0.973585 0.18738,-0.227531 0.45506,-0.341581 0.80305,-0.341581 0.0982,0 0.18738,0.0099 0.26769,0.02997 0.0825,0.01785 0.15822,0.04718 0.22737,0.08733 l -0.003,-0.63252 c -0.0624,-0.01115 -0.1192,-0.01879 -0.17054,-0.02325 -0.0513,-0.0067 -0.0982,-0.01034 -0.14056,-0.01034 z m 8.51886,0 c -0.20076,0 -0.40717,0.02257 -0.61909,0.06718 -0.21191,0.04238 -0.43047,0.106789 -0.65577,0.193787 v 0.568957 c 0.18738,-0.102611 0.3825,-0.179687 0.5855,-0.230993 0.20299,-0.05131 0.41165,-0.077 0.6258,-0.077 0.33683,0 0.59774,0.07846 0.7829,0.234611 0.18737,0.153918 0.28112,0.372475 0.28112,0.655773 v 0.05994 h -0.86352 c -0.55991,0 -0.98123,0.107281 -1.26452,0.321428 -0.28108,0.214147 -0.42168,0.531827 -0.42168,0.953431 0,0.361373 0.11266,0.650234 0.33796,0.866613 0.22753,0.214146 0.53306,0.321427 0.91674,0.321427 0.30338,0 0.55979,-0.05364 0.76947,-0.160714 0.20968,-0.109304 0.38501,-0.277865 0.52555,-0.505396 v 0.568957 h 0.61546 v -2.13837 c 0,-0.571058 -0.13384,-0.996889 -0.40153,-1.277958 -0.26768,-0.281068 -0.67233,-0.421679 -1.21439,-0.421679 z m 4.69429,0 c -0.261,0 -0.49171,0.0559 -0.69247,0.167431 -0.19853,0.111535 -0.3716,0.280095 -0.51883,0.505396 v -0.582394 h -0.61857 v 3.747574 h 0.61857 v -2.118216 c 0,-0.365834 0.096,-0.654698 0.28784,-0.866614 0.19184,-0.211916 0.45414,-0.31781 0.78651,-0.31781 0.27661,0 0.48388,0.08836 0.62219,0.264584 0.1383,0.176225 0.20774,0.441653 0.20774,0.796334 v 2.241722 h 0.61546 v -2.261876 c 0,-0.517522 -0.1104,-0.909152 -0.33124,-1.174606 -0.22084,-0.267684 -0.54668,-0.401525 -0.9772,-0.401525 z m 14.94689,0 c -0.29669,0 -0.54857,0.0559 -0.75603,0.167431 -0.20745,0.109304 -0.37602,0.277865 -0.50539,0.505396 v -0.582394 h -0.61909 v 3.747574 h 0.61909 v -1.974038 c 0,-0.423833 0.0929,-0.748284 0.27802,-0.973585 0.18737,-0.227531 0.45506,-0.341581 0.80305,-0.341581 0.0982,0 0.18737,0.0099 0.26768,0.02997 0.0825,0.01785 0.15822,0.04718 0.22738,0.08733 l -0.004,-0.63252 c -0.0624,-0.01115 -0.11919,-0.01879 -0.17053,-0.02325 -0.0513,-0.0067 -0.0982,-0.01034 -0.14056,-0.01034 z m 2.28203,0 c -0.20076,0 -0.40716,0.02257 -0.61908,0.06718 -0.21192,0.04238 -0.43048,0.106789 -0.65578,0.193787 v 0.568957 c 0.18738,-0.102611 0.3825,-0.179687 0.58549,-0.230993 0.203,-0.05131 0.41166,-0.077 0.62581,-0.077 0.33683,0 0.59775,0.07846 0.78289,0.234611 0.18738,0.153918 0.28112,0.372475 0.28112,0.655773 v 0.05994 h -0.86299 c -0.55991,0 -0.98175,0.107281 -1.26504,0.321428 -0.28107,0.214147 -0.42168,0.531827 -0.42168,0.953431 0,0.361373 0.11266,0.650234 0.33796,0.866613 0.22754,0.214146 0.53306,0.321427 0.91674,0.321427 0.30338,0 0.56029,-0.05364 0.76998,-0.160714 0.20969,-0.109304 0.3845,-0.277865 0.52503,-0.505396 v 0.568957 h 0.61599 v -2.13837 c 0,-0.571058 -0.13384,-0.996889 -0.40153,-1.277958 -0.26769,-0.281068 -0.67285,-0.421679 -1.21491,-0.421679 z m 4.50412,0 c -0.58445,0 -1.04552,0.175329 -1.38235,0.525549 -0.3346,0.35022 -0.50178,0.830561 -0.50178,1.441772 0,0.60229 0.16631,1.080889 0.49868,1.435571 0.33238,0.354682 0.78077,0.532268 1.34514,0.532268 0.20746,0 0.40258,-0.02032 0.58549,-0.06046 0.18515,-0.04015 0.3636,-0.100047 0.53537,-0.180353 v -0.568958 c -0.17399,0.09592 -0.34932,0.168487 -0.52555,0.217559 -0.17399,0.04685 -0.35019,0.07028 -0.52865,0.07028 -0.39929,0 -0.70934,-0.126201 -0.93017,-0.37827 -0.22085,-0.254299 -0.33125,-0.610342 -0.33125,-1.067636 0,-0.457293 0.1104,-0.811948 0.33125,-1.064017 0.22083,-0.2543 0.53088,-0.381372 0.93017,-0.381372 0.17846,0 0.35466,0.02482 0.52865,0.0739 0.17623,0.04685 0.35156,0.11802 0.52555,0.21394 v -0.575679 c -0.16953,-0.07808 -0.34486,-0.135713 -0.52555,-0.173633 -0.18068,-0.04015 -0.3654,-0.06046 -0.555,-0.06046 z m 8.36486,0 c -0.58444,0 -1.04499,0.175329 -1.38183,0.525549 -0.3346,0.35022 -0.50178,0.830561 -0.50178,1.441772 0,0.60229 0.16579,1.080889 0.49817,1.435571 0.33237,0.354682 0.78077,0.532268 1.34513,0.532268 0.20746,0 0.40258,-0.02032 0.5855,-0.06046 0.18514,-0.04015 0.3636,-0.100047 0.53536,-0.180353 v -0.568958 c -0.174,0.09592 -0.34881,0.168487 -0.52503,0.217559 -0.174,0.04685 -0.35019,0.07028 -0.52865,0.07028 -0.39929,0 -0.70933,-0.126201 -0.93017,-0.37827 -0.22084,-0.254299 -0.33125,-0.610342 -0.33125,-1.067636 0,-0.457293 0.11041,-0.811948 0.33125,-1.064017 0.22084,-0.2543 0.53088,-0.381372 0.93017,-0.381372 0.17846,0 0.35465,0.02482 0.52865,0.0739 0.17622,0.04685 0.35103,0.11802 0.52503,0.21394 v -0.575679 c -0.16953,-0.07808 -0.34434,-0.135713 -0.52503,-0.173633 -0.18069,-0.04015 -0.36591,-0.06046 -0.55552,-0.06046 z m 3.72742,0 c -0.56214,0 -1.00914,0.180712 -1.34152,0.542085 -0.33015,0.359143 -0.49557,0.845384 -0.49557,1.458826 0,0.593367 0.17393,1.064328 0.52193,1.412316 0.35022,0.34799 0.8243,0.521933 1.42213,0.521933 0.23869,0 0.47443,-0.02482 0.70642,-0.0739 0.23198,-0.04907 0.45819,-0.120251 0.67903,-0.21394 v -0.582393 c -0.21861,0.115994 -0.43943,0.202965 -0.6625,0.260967 -0.22084,0.058 -0.44929,0.08733 -0.68574,0.08733 -0.40822,0 -0.72729,-0.110406 -0.95705,-0.331245 -0.2275,-0.223071 -0.35457,-0.546651 -0.38137,-0.970484 h 2.83032 v -0.301273 c 0,-0.557675 -0.14687,-0.997915 -0.44132,-1.321366 -0.29223,-0.325682 -0.69063,-0.488859 -1.19476,-0.488859 z m -171.78951,0.09043 v 3.747574 h 0.615984 v -3.747574 z m 10.011275,0 1.405599,3.747574 h 0.836641 l 1.405083,-3.747574 h -0.652155 l -1.171507,3.145544 -1.170987,-3.145544 z m 4.4974,0 v 3.747574 h 0.615466 v -3.747574 z m 18.781281,0 v 2.268596 c 0,0.515292 0.111279,0.90692 0.334349,1.174604 0.223068,0.267685 0.550294,0.401527 0.980818,0.401527 0.260991,0 0.489448,-0.05451 0.685745,-0.163814 0.198533,-0.111536 0.372478,-0.281483 0.521933,-0.509014 v 0.575675 h 0.615984 v -3.747571 h -0.615984 v 2.124935 c 0,0.365834 -0.09687,0.654698 -0.290939,0.866614 -0.191838,0.211918 -0.454141,0.317809 -0.786513,0.317809 -0.276609,0 -0.483884,-0.08836 -0.622187,-0.264583 -0.138303,-0.178456 -0.207737,-0.444751 -0.207737,-0.799434 v -2.245341 z m 48.196544,0 v 2.268596 c 0,0.515292 0.11128,0.90692 0.33434,1.174604 0.22308,0.267685 0.5503,0.401527 0.98082,0.401527 0.26099,0 0.48944,-0.05451 0.68575,-0.163814 0.19853,-0.111536 0.37247,-0.281483 0.52193,-0.509014 v 0.575675 h 0.61547 v -3.747574 h -0.61547 v 2.124935 c 0,0.365834 -0.0969,0.654698 -0.29094,0.866614 -0.19184,0.211918 -0.45414,0.317809 -0.78651,0.317809 -0.27661,0 -0.48389,-0.08836 -0.62219,-0.264583 -0.1383,-0.178456 -0.20774,-0.444751 -0.20774,-0.799434 v -2.245341 z m 8.94054,0 v 2.268596 c 0,0.515292 0.11179,0.90692 0.33486,1.174604 0.22307,0.267685 0.54977,0.401527 0.9803,0.401527 0.26099,0 0.48945,-0.05451 0.68575,-0.163814 0.19853,-0.111536 0.37248,-0.281483 0.52193,-0.509014 v 0.575675 h 0.61598 v -3.747574 h -0.61598 v 2.124935 c 0,0.365834 -0.0969,0.654698 -0.29094,0.866614 -0.19184,0.211918 -0.45413,0.317809 -0.78651,0.317809 -0.27661,0 -0.48389,-0.08836 -0.62219,-0.264583 -0.1383,-0.178456 -0.20774,-0.444751 -0.20774,-0.799434 v -2.245341 z m 34.84903,0 1.51567,3.687114 -0.11007,0.28112 c -0.11376,0.298913 -0.21791,0.488651 -0.31161,0.568958 -0.0937,0.0803 -0.22527,0.120406 -0.3948,0.120406 h -0.36122 v 0.515213 h 0.49196 c 0.2766,0 0.49741,-0.06805 0.66249,-0.204121 0.16507,-0.136073 0.3345,-0.427194 0.50849,-0.873331 l 1.64641,-4.095359 h -0.65267 l -1.17099,2.931089 -1.17099,-2.931089 z m 39.26944,0 v 3.747574 h 0.61547 v -3.747574 z m -167.479697,0.42478 c 0.325682,0 0.582083,0.12933 0.769462,0.388091 0.187378,0.25653 0.28112,0.611185 0.28112,1.064017 0,0.452832 -0.09374,0.808874 -0.28112,1.067636 -0.187379,0.25653 -0.44378,0.38499 -0.769462,0.384987 -0.325683,0 -0.582601,-0.128457 -0.769979,-0.384987 -0.185148,-0.258762 -0.277503,-0.614804 -0.277503,-1.067636 0,-0.452832 0.09235,-0.807487 0.277503,-1.064017 0.187378,-0.258761 0.444296,-0.388091 0.769979,-0.388091 z m 144.856787,0 c 0.32568,0 0.5826,0.12933 0.76998,0.388091 0.18738,0.25653 0.2806,0.611185 0.2806,1.064017 0,0.452832 -0.0932,0.808874 -0.2806,1.067636 -0.18738,0.25653 -0.4443,0.38499 -0.76998,0.384987 -0.32569,0 -0.58209,-0.128457 -0.76946,-0.384987 -0.18515,-0.258762 -0.2775,-0.614804 -0.2775,-1.067636 0,-0.452832 0.0923,-0.807487 0.2775,-1.064017 0.18737,-0.258761 0.44377,-0.388091 0.76946,-0.388091 z m -111.30638,0.0067 c 0.327911,0 0.587957,0.130715 0.779796,0.391707 0.191841,0.258761 0.287838,0.609773 0.287838,1.053682 0,0.44614 -0.096,0.799055 -0.287838,1.057818 -0.191839,0.258759 -0.451885,0.388088 -0.779796,0.388088 -0.332375,0 -0.594159,-0.128458 -0.786,-0.384988 -0.189609,-0.258762 -0.284737,-0.612547 -0.284737,-1.060918 0,-0.44837 0.096,-0.800769 0.287838,-1.057299 0.191841,-0.258761 0.452755,-0.38809 0.782899,-0.38809 z m 23.877611,0 c 0.327911,0 0.587957,0.130715 0.779799,0.391707 0.191838,0.258761 0.287837,0.609773 0.287837,1.053682 0,0.44614 -0.096,0.799055 -0.287837,1.057818 -0.191842,0.258759 -0.451888,0.388088 -0.779799,0.388088 -0.332375,0 -0.594675,-0.128458 -0.786516,-0.384988 -0.189608,-0.258762 -0.284218,-0.612547 -0.284218,-1.060918 -3e-6,-0.44837 0.096,-0.800769 0.287837,-1.057299 0.191839,-0.258761 0.452753,-0.38809 0.782897,-0.38809 z m 17.964795,0 c 0.303374,0 0.546754,0.100511 0.729671,0.301273 0.185142,0.200763 0.279755,0.469834 0.284221,0.806669 l -2.194698,0.0031 c 0.03123,-0.352451 0.149275,-0.625517 0.3545,-0.819588 0.207454,-0.194071 0.482777,-0.291455 0.826306,-0.291455 z m 43.605604,0 c 0.30337,0 0.54675,0.100511 0.72967,0.301273 0.18494,0.200763 0.27956,0.469834 0.28422,0.806669 l -2.1947,0.0031 c 0.0312,-0.352451 0.14928,-0.625517 0.3545,-0.819588 0.20746,-0.194071 0.48278,-0.291455 0.82631,-0.291455 z m 4.09226,0 c 0.32791,0 0.58796,0.130715 0.77979,0.391707 0.19185,0.258761 0.28784,0.609773 0.28784,1.053682 0,0.44614 -0.096,0.799055 -0.28784,1.057818 -0.19183,0.258759 -0.45188,0.388088 -0.77979,0.388088 -0.33238,0 -0.59416,-0.128458 -0.786,-0.384988 -0.18961,-0.258762 -0.28474,-0.612547 -0.28474,-1.060918 0,-0.44837 0.096,-0.800769 0.28784,-1.057299 0.19184,-0.258761 0.45276,-0.38809 0.7829,-0.38809 z m 51.63974,0 c 0.30337,0 0.54675,0.100511 0.72967,0.301273 0.18494,0.200763 0.27955,0.469834 0.28422,0.806669 l -2.19521,0.0031 c 0.0312,-0.352451 0.14979,-0.625517 0.35501,-0.819588 0.20746,-0.194071 0.48278,-0.291455 0.82631,-0.291455 z m -182.995546,1.43247 h 0.612366 v 0.136943 c 0,0.401525 -0.103638,0.72372 -0.311092,0.966866 -0.205225,0.240914 -0.4782916,0.361736 -0.8195876,0.361733 -0.247608,3e-6 -0.444117,-0.06353 -0.589112,-0.190685 -0.142764,-0.129381 -0.21394,-0.303839 -0.21394,-0.522449 0,-0.274374 0.096,-0.46811 0.287838,-0.581875 0.191839,-0.113766 0.536082,-0.170533 1.0335276,-0.170533 z m 19.152836,0 h 0.612365 v 0.136943 c 0,0.401525 -0.103637,0.72372 -0.311092,0.966866 -0.205224,0.240914 -0.478292,0.361736 -0.819586,0.361733 -0.247611,3e-6 -0.444117,-0.06353 -0.589114,-0.190685 -0.142763,-0.129381 -0.213939,-0.303839 -0.213939,-0.522449 0,-0.274374 0.096,-0.46811 0.287838,-0.581875 0.191841,-0.113766 0.536082,-0.170533 1.033528,-0.170533 z m 10.158553,0 h 0.612365 v 0.136943 c 0,0.401525 -0.103638,0.72372 -0.311092,0.966866 -0.205224,0.240914 -0.47829,0.361736 -0.819587,0.361733 -0.24761,3e-6 -0.444116,-0.06353 -0.589113,-0.190685 -0.142764,-0.129381 -0.213939,-0.303839 -0.213939,-0.522449 0,-0.274374 0.096,-0.46811 0.287837,-0.581875 0.191842,-0.113766 0.536083,-0.170533 1.033529,-0.170533 z m 28.34814,0 h 0.611849 v 0.136943 c 0,0.401525 -0.103637,0.72372 -0.311091,0.966866 -0.205224,0.240914 -0.478293,0.361736 -0.81959,0.361733 -0.247607,3e-6 -0.444116,-0.06353 -0.58911,-0.190685 -0.142764,-0.129381 -0.213942,-0.303839 -0.21394,-0.522449 0,-0.274374 0.096,-0.46811 0.287838,-0.581875 0.191839,-0.113766 0.536599,-0.170533 1.034044,-0.170533 z m 52.907367,0 h 0.61236 v 0.136943 c 0,0.401525 -0.10364,0.72372 -0.31109,0.966866 -0.20523,0.240914 -0.47829,0.361736 -0.81959,0.361733 -0.24761,3e-6 -0.44412,-0.06353 -0.58911,-0.190685 -0.14276,-0.129381 -0.21394,-0.303839 -0.21394,-0.522449 0,-0.274374 0.0955,-0.46811 0.28732,-0.581875 0.19184,-0.113766 0.5366,-0.170533 1.03405,-0.170533 z m 34.29041,0 h 0.61237 v 0.136943 c 0,0.401525 -0.10364,0.72372 -0.3111,0.966866 -0.20522,0.240914 -0.47881,0.361736 -0.8201,0.361733 -0.24761,3e-6 -0.4436,-0.06353 -0.5886,-0.190685 -0.14276,-0.129381 -0.21445,-0.303839 -0.21445,-0.522449 0,-0.274374 0.096,-0.46811 0.28783,-0.581875 0.19184,-0.113766 0.5366,-0.170533 1.03405,-0.170533 z m 21.92321,0 h 0.61236 v 0.136943 c 0,0.401525 -0.10363,0.72372 -0.31109,0.966866 -0.20522,0.240914 -0.47829,0.361736 -0.81958,0.361733 -0.24761,3e-6 -0.44412,-0.06353 -0.58912,-0.190685 -0.14276,-0.129381 -0.21394,-0.303839 -0.21394,-0.522449 0,-0.274374 0.0955,-0.46811 0.28732,-0.581875 0.19184,-0.113766 0.5366,-0.170533 1.03405,-0.170533 z"
     style="fill:#ffffff;stroke:none"
     id="fleks-banner-text" />
</svg>
