<?xml version="1.0" encoding="UTF-8" standalone="no"?>
<svg
   height="50"
   width="100"
   version="1.1"
   viewBox="0 0 100 50"
   data-name="Layer 1"
   id="Layer_1"
   xmlns="http://www.w3.org/2000/svg"
   xmlns:svg="http://www.w3.org/2000/svg"
   xmlns:rdf="http://www.w3.org/1999/02/22-rdf-syntax-ns#"
   xmlns:cc="http://creativecommons.org/ns#"
   xmlns:dc="http://purl.org/dc/elements/1.1/">
  <metadata
     id="metadata197">
    <rdf:RDF>
      <cc:Work
         rdf:about="">
        <dc:format>image/svg+xml</dc:format>
        <dc:type
           rdf:resource="http://purl.org/dc/dcmitype/StillImage" />
        <dc:title>Nordic Journal of Art and Research</dc:title>
      </cc:Work>
    </rdf:RDF>
  </metadata>
  <defs
     id="defs195">
    <clipPath
       clipPathUnits="userSpaceOnUse"
       id="clipPath914">
      <rect
         style="fill:#1b7bbb;fill-opacity:1;stroke:none;stroke-width:4;stroke-linecap:round;stroke-linejoin:round;paint-order:stroke fill markers;stop-color:#000000"
         id="rect916"
         width="100"
         height="50"
         x="-40.90443"
         y="53.724766"
         rx="0" />
    </clipPath>
  </defs>
  <title
     id="title130">Nordic Journal of Art and Research</title>
  <rect
     style="fill:#ffffff;fill-opacity:1;stroke:none;stroke-width:4;stroke-linecap:round;stroke-linejoin:round;paint-order:stroke fill markers;stop-color:#000000"
     id="rect2744"
     width="100"
     height="50"
     x="0"
     y="0"
     rx="0" />
  <g
     id="g15002"
     style="stroke-width:0.999999">
    <rect
       style="font-variation-settings:normal;opacity:0;vector-effect:none;fill:#ffff00;fill-opacity:0.866667;stroke:none;stroke-width:3.99999;stroke-linecap:round;stroke-linejoin:round;stroke-miterlimit:4;stroke-dasharray:none;stroke-dashoffset:0;stroke-opacity:1;-inkscape-stroke:none;paint-order:stroke fill markers;stop-color:#000000"
       id="rect81709"
       width="90"
       height="40"
       x="5"
       y="4.5985503"
       rx="0" />
    <g
       aria-label="NJSR"
       transform="scale(0.99966231,1.0003378)"
       id="text3895"
       style="font-weight:bold;font-size:30.5371px;line-height:1.05;font-family:Arial;-inkscape-font-specification:'Arial, Bold';letter-spacing:0px;word-spacing:0px;stroke-width:0.999999">
      <path
         d="M 10.503552,24.319723 V 2.4606468 h 4.294279 L 23.744247,17.058216 V 2.4606468 h 4.100441 V 24.319723 H 23.416212 L 14.603992,10.0651 v 14.254623 z"
         style="font-weight:bold;font-size:30.5371px;line-height:1.05;font-family:Arial;-inkscape-font-specification:'Arial, Bold';letter-spacing:0px;word-spacing:0px;stroke-width:0.999999"
         id="path14861" />
      <path
         d="m 40.399492,2.4606468 h 4.398654 V 16.29777 q 0,2.713746 -0.477142,4.174994 -0.64116,1.908569 -2.326068,3.071603 -1.684908,1.148123 -4.443386,1.148123 -3.235621,0 -4.980172,-1.804193 -1.744551,-1.819105 -1.759462,-5.323118 L 34.972,17.088037 q 0.07455,1.878747 0.551695,2.654103 0.715714,1.177945 2.176961,1.177945 1.476159,0 2.087498,-0.834999 0.611338,-0.849909 0.611338,-3.504013 z"
         style="font-weight:bold;font-size:30.5371px;line-height:1.05;font-family:Arial;-inkscape-font-specification:'Arial, Bold';letter-spacing:0px;word-spacing:0px;stroke-width:0.999999"
         id="path14863" />
      <path
         d="m 48.376712,17.207322 4.294279,-0.417499 q 0.387678,2.162051 1.565623,3.175978 1.192855,1.013927 3.205799,1.013927 2.132229,0 3.205799,-0.894642 1.088481,-0.909552 1.088481,-2.117318 0,-0.775356 -0.462232,-1.312141 -0.447321,-0.551696 -1.580533,-0.954285 -0.775356,-0.268392 -3.533835,-0.954284 -3.548745,-0.879731 -4.980171,-2.16205 -2.012944,-1.804194 -2.012944,-4.398655 0,-1.6699976 0.939374,-3.1163349 0.954284,-1.4612479 2.728657,-2.2216933 1.789283,-0.7604454 4.30919,-0.7604454 4.115351,0 6.187938,1.8041939 2.087497,1.8041939 2.191872,4.816154 l -4.413565,0.193839 Q 60.82714,7.2171579 59.887767,6.486534 q -0.924463,-0.7455347 -2.7883,-0.7455347 -1.923479,0 -3.01196,0.7902667 -0.700803,0.5069636 -0.700803,1.3568731 0,0.7753561 0.656071,1.3270517 0.834999,0.7008026 4.055709,1.4612482 3.220709,0.760445 4.756511,1.580533 1.550712,0.805178 2.415532,2.221694 0.879731,1.401605 0.879731,3.474191 0,1.878747 -1.043749,3.518924 -1.043748,1.640176 -2.952317,2.445353 -1.908569,0.790267 -4.756511,0.790267 -4.145173,0 -6.366866,-1.908569 -2.221693,-1.923479 -2.654103,-5.59151 z"
         style="font-weight:bold;font-size:30.5371px;line-height:1.05;font-family:Arial;-inkscape-font-specification:'Arial, Bold';letter-spacing:0px;word-spacing:0px;stroke-width:0.999999"
         id="path14865" />
      <path
         d="M 69.877936,24.319723 V 2.4606468 h 9.289362 q 3.504012,0 5.084546,0.5964277 1.595444,0.581517 2.549729,2.0874971 0.954284,1.50598 0.954284,3.4443701 0,2.4602643 -1.446337,4.0706193 -1.446338,1.595444 -4.324101,2.012944 1.431426,0.834998 2.355889,1.834015 0.939374,0.999016 2.519907,3.548745 l 2.669014,4.264458 h -5.278385 l -3.190888,-4.756511 q -1.699819,-2.549729 -2.326069,-3.205799 -0.626249,-0.670981 -1.327051,-0.909552 -0.700803,-0.253482 -2.221694,-0.253482 h -0.894641 v 9.125344 z m 4.413565,-12.614446 h 3.265442 q 3.175977,0 3.966244,-0.268393 0.790267,-0.268392 1.237588,-0.924463 0.44732,-0.6560704 0.44732,-1.6401761 0,-1.1033913 -0.596427,-1.7743725 -0.581517,-0.6858919 -1.655087,-0.8648202 -0.536785,-0.074554 -3.22071,-0.074554 h -3.44437 z"
         style="font-weight:bold;font-size:30.5371px;line-height:1.05;font-family:Arial;-inkscape-font-specification:'Arial, Bold';letter-spacing:0px;word-spacing:0px;stroke-width:0.999999"
         id="path14867" />
    </g>
    <g
       aria-label="NORDIC JOURNAL of
SOCIAL RESEARCH"
       transform="scale(0.99966231,1.0003378)"
       id="text5574"
       style="font-size:6.91796px;line-height:1.15;-inkscape-font-specification:'sans-serif, Normal';letter-spacing:0px;word-spacing:0px;stroke-width:0.999999">
      <path
         d="m 11.389462,34.254838 h 1.452501 l 1.834205,3.45898 v -3.45898 h 1.232938 v 5.04322 h -1.452502 l -1.834205,-3.458981 v 3.458981 h -1.232937 z"
         style="font-weight:bold;-inkscape-font-specification:'sans-serif, Bold';stroke-width:0.999999"
         id="path14888" />
      <path
         d="m 19.482935,35.106071 q -0.594513,0 -0.92217,0.439128 -0.327657,0.439129 -0.327657,1.236315 0,0.793809 0.327657,1.232938 0.327657,0.439128 0.92217,0.439128 0.59789,0 0.925547,-0.439128 0.327657,-0.439129 0.327657,-1.232938 0,-0.797186 -0.327657,-1.236315 -0.327657,-0.439128 -0.925547,-0.439128 z m 0,-0.942437 q 1.216047,0 1.905141,0.69585 0.689094,0.695849 0.689094,1.92203 0,1.222804 -0.689094,1.918653 -0.689094,0.69585 -1.905141,0.69585 -1.21267,0 -1.905142,-0.69585 -0.689093,-0.695849 -0.689093,-1.918653 0,-1.226181 0.689093,-1.92203 0.692472,-0.69585 1.905142,-0.69585 z"
         style="font-weight:bold;-inkscape-font-specification:'sans-serif, Bold';stroke-width:0.999999"
         id="path14890" />
      <path
         d="m 24.907859,36.491014 q 0.408727,0 0.584378,-0.152006 0.179029,-0.152006 0.179029,-0.499931 0,-0.344546 -0.179029,-0.493174 -0.175651,-0.148628 -0.584378,-0.148628 h -0.547222 v 1.293739 z m -0.547222,0.898524 v 1.90852 h -1.300495 v -5.04322 h 1.986211 q 0.996483,0 1.459257,0.334413 0.466152,0.334413 0.466152,1.057286 0,0.49993 -0.24321,0.820832 -0.239831,0.320901 -0.72625,0.472907 0.266854,0.0608 0.476285,0.276989 0.212808,0.212808 0.428994,0.648559 l 0.705984,1.432234 h -1.384943 l -0.61478,-1.253205 q -0.185785,-0.378326 -0.378326,-0.51682 -0.189163,-0.138495 -0.506687,-0.138495 z"
         style="font-weight:bold;-inkscape-font-specification:'sans-serif, Bold';stroke-width:0.999999"
         id="path14892" />
      <path
         d="m 29.687602,35.237809 v 3.077277 h 0.466151 q 0.797187,0 1.216048,-0.395216 0.422239,-0.395215 0.422239,-1.148489 0,-0.749896 -0.418861,-1.141734 -0.418861,-0.391838 -1.219426,-0.391838 z m -1.300496,-0.982971 h 1.371432 q 1.148489,0 1.709222,0.165517 0.564111,0.16214 0.966083,0.553977 0.35468,0.341169 0.526954,0.787054 0.172273,0.445884 0.172273,1.009995 0,0.570867 -0.172273,1.020129 -0.172274,0.445884 -0.526954,0.787053 -0.40535,0.391837 -0.972839,0.557355 -0.567488,0.16214 -1.702466,0.16214 h -1.371432 z"
         style="font-weight:bold;-inkscape-font-specification:'sans-serif, Bold';stroke-width:0.999999"
         id="path14894" />
      <path
         d="m 34.129553,34.254838 h 1.300495 v 5.04322 h -1.300495 z"
         style="font-weight:bold;-inkscape-font-specification:'sans-serif, Bold';stroke-width:0.999999"
         id="path14896" />
      <path
         d="m 40.702968,39.021069 q -0.358059,0.185785 -0.746519,0.280366 -0.388459,0.09458 -0.810698,0.09458 -1.259961,0 -1.996345,-0.702605 -0.736384,-0.705984 -0.736384,-1.911898 0,-1.209291 0.736384,-1.911897 0.736384,-0.705983 1.996345,-0.705983 0.422239,0 0.810698,0.09458 0.38846,0.09458 0.746519,0.280367 v 1.043774 q -0.361437,-0.246587 -0.712739,-0.361436 -0.351303,-0.114849 -0.739763,-0.114849 -0.695849,0 -1.094443,0.445884 -0.398593,0.445884 -0.398593,1.229559 0,0.780298 0.398593,1.226182 0.398594,0.445884 1.094443,0.445884 0.38846,0 0.739763,-0.114849 0.351302,-0.114849 0.712739,-0.361436 z"
         style="font-weight:bold;-inkscape-font-specification:'sans-serif, Bold';stroke-width:0.999999"
         id="path14898" />
      <path
         d="m 44.188969,34.254838 h 1.300495 v 4.553423 q 0,0.942437 -0.513442,1.408588 -0.510065,0.466152 -1.547083,0.466152 h -0.263477 v -0.982972 h 0.202675 q 0.405349,0 0.611401,-0.22632 0.209431,-0.22632 0.209431,-0.665448 z"
         style="font-weight:bold;-inkscape-font-specification:'sans-serif, Bold';stroke-width:0.999999"
         id="path14900" />
      <path
         d="m 49.066674,35.106071 q -0.594512,0 -0.922169,0.439128 -0.327657,0.439129 -0.327657,1.236315 0,0.793809 0.327657,1.232938 0.327657,0.439128 0.922169,0.439128 0.597891,0 0.925548,-0.439128 0.327657,-0.439129 0.327657,-1.232938 0,-0.797186 -0.327657,-1.236315 -0.327657,-0.439128 -0.925548,-0.439128 z m 0,-0.942437 q 1.216048,0 1.905142,0.69585 0.689093,0.695849 0.689093,1.92203 0,1.222804 -0.689093,1.918653 -0.689094,0.69585 -1.905142,0.69585 -1.212669,0 -1.905141,-0.69585 -0.689094,-0.695849 -0.689094,-1.918653 0,-1.226181 0.689094,-1.92203 0.692472,-0.69585 1.905141,-0.69585 z"
         style="font-weight:bold;-inkscape-font-specification:'sans-serif, Bold';stroke-width:0.999999"
         id="path14902" />
      <path
         d="m 52.643879,34.254838 h 1.300496 v 3.023229 q 0,0.624914 0.202674,0.895146 0.206053,0.266855 0.668826,0.266855 0.466152,0 0.668827,-0.266855 0.206052,-0.270232 0.206052,-0.895146 v -3.023229 h 1.300496 v 3.023229 q 0,1.070798 -0.537088,1.594374 -0.537088,0.523576 -1.638287,0.523576 -1.09782,0 -1.634908,-0.523576 -0.537088,-0.523576 -0.537088,-1.594374 z"
         style="font-weight:bold;-inkscape-font-specification:'sans-serif, Bold';stroke-width:0.999999"
         id="path14904" />
      <path
         d="m 60.109062,36.491014 q 0.408727,0 0.584378,-0.152006 0.17903,-0.152006 0.17903,-0.499931 0,-0.344546 -0.17903,-0.493174 -0.175651,-0.148628 -0.584378,-0.148628 h -0.547221 v 1.293739 z m -0.547221,0.898524 v 1.90852 h -1.300496 v -5.04322 h 1.986211 q 0.996484,0 1.459258,0.334413 0.466151,0.334413 0.466151,1.057286 0,0.49993 -0.243209,0.820832 -0.239832,0.320901 -0.726251,0.472907 0.266855,0.0608 0.476285,0.276989 0.212809,0.212808 0.428995,0.648559 l 0.705983,1.432234 h -1.384943 l -0.61478,-1.253205 q -0.185785,-0.378326 -0.378326,-0.51682 -0.189163,-0.138495 -0.506686,-0.138495 z"
         style="font-weight:bold;-inkscape-font-specification:'sans-serif, Bold';stroke-width:0.999999"
         id="path14906" />
      <path
         d="m 63.58831,34.254838 h 1.452502 l 1.834205,3.45898 v -3.45898 h 1.232937 v 5.04322 h -1.452501 l -1.834205,-3.458981 v 3.458981 H 63.58831 Z"
         style="font-weight:bold;-inkscape-font-specification:'sans-serif, Bold';stroke-width:0.999999"
         id="path14908" />
      <path
         d="m 72.438435,38.379266 h -2.033502 l -0.320902,0.918792 H 68.77678 l 1.867984,-5.04322 h 1.550461 l 1.867985,5.04322 h -1.307252 z m -1.709223,-0.935681 h 1.381565 l -0.689093,-2.006479 z"
         style="font-weight:bold;-inkscape-font-specification:'sans-serif, Bold';stroke-width:0.999999"
         id="path14910" />
      <path
         d="m 74.732033,34.254838 h 1.300495 v 4.060248 h 2.283468 v 0.982972 h -3.583963 z"
         style="font-weight:bold;-inkscape-font-specification:'sans-serif, Bold';stroke-width:0.999999"
         id="path14912" />
      <path
         d="m 83.295036,36.28834 q -0.401971,0 -0.614779,0.2905 -0.209431,0.287122 -0.209431,0.830966 0,0.543843 0.209431,0.834344 0.212808,0.287122 0.614779,0.287122 0.395216,0 0.604646,-0.287122 0.209431,-0.290501 0.209431,-0.834344 0,-0.543844 -0.209431,-0.830966 -0.20943,-0.2905 -0.604646,-0.2905 z m 0,-0.864745 q 0.976216,0 1.523438,0.526954 0.550599,0.526954 0.550599,1.459257 0,0.932303 -0.550599,1.459257 -0.547222,0.526954 -1.523438,0.526954 -0.979594,0 -1.533571,-0.526954 -0.550599,-0.526954 -0.550599,-1.459257 0,-0.932303 0.550599,-1.459257 0.553977,-0.526954 1.533571,-0.526954 z"
         style="font-weight:bold;-inkscape-font-specification:'sans-serif, Bold';stroke-width:0.999999"
         id="path14914" />
      <path
         d="m 88.736854,34.042029 v 0.793809 h -0.668827 q -0.256721,0 -0.358058,0.09458 -0.101337,0.0912 -0.101337,0.320901 v 0.263477 h 1.03364 v 0.864745 h -1.03364 v 2.918515 H 86.39934 v -2.918515 h -0.601268 v -0.864745 h 0.601268 v -0.263477 q 0,-0.618157 0.344547,-0.912036 0.344546,-0.297256 1.067419,-0.297256 z"
         style="font-weight:bold;-inkscape-font-specification:'sans-serif, Bold';stroke-width:0.999999"
         id="path14916" />
      <path
         d="m 15.282728,42.451667 v 1.166216 q -0.453939,-0.202981 -0.885734,-0.306316 -0.431795,-0.103336 -0.815613,-0.103336 -0.509297,0 -0.752874,0.140241 -0.243576,0.140241 -0.243576,0.435486 0,0.221433 0.162384,0.346912 0.166075,0.121789 0.59787,0.210362 l 0.605252,0.121788 q 0.918948,0.184528 1.306457,0.560965 0.387508,0.376437 0.387508,1.070261 0,0.911568 -0.542512,1.358125 -0.538821,0.442867 -1.649679,0.442867 -0.524059,0 -1.051808,-0.09965 -0.52775,-0.09964 -1.055499,-0.295245 v -1.19943 q 0.527749,0.280482 1.018593,0.424414 0.494535,0.140241 0.952164,0.140241 0.46501,0 0.712277,-0.155004 0.247268,-0.155003 0.247268,-0.442866 0,-0.258339 -0.169766,-0.398581 -0.166075,-0.140241 -0.667991,-0.250957 l -0.549893,-0.121789 q -0.826684,-0.177147 -1.210502,-0.564655 -0.380128,-0.387508 -0.380128,-1.044428 0,-0.822994 0.531441,-1.26586 0.53144,-0.442867 1.52789,-0.442867 0.453938,0 0.933711,0.07012 0.479772,0.06643 0.99276,0.202981 z"
         style="font-weight:bold;font-size:7.55826px;-inkscape-font-specification:'sans-serif, Bold';stroke-width:0.999999"
         id="path14918" />
      <path
         d="m 19.40877,43.208231 q -0.649538,0 -1.007522,0.479772 -0.357984,0.479773 -0.357984,1.350744 0,0.867281 0.357984,1.347053 0.357984,0.479773 1.007522,0.479773 0.653228,0 1.011212,-0.479773 0.357984,-0.479772 0.357984,-1.347053 0,-0.870971 -0.357984,-1.350744 -0.357984,-0.479772 -1.011212,-0.479772 z m 0,-1.029665 q 1.3286,0 2.081474,0.760254 0.752873,0.760255 0.752873,2.099927 0,1.335982 -0.752873,2.096236 -0.752874,0.760255 -2.081474,0.760255 -1.32491,0 -2.081474,-0.760255 -0.752874,-0.760254 -0.752874,-2.096236 0,-1.339672 0.752874,-2.099927 0.756564,-0.760254 2.081474,-0.760254 z"
         style="font-weight:bold;font-size:7.55826px;-inkscape-font-specification:'sans-serif, Bold';stroke-width:0.999999"
         id="path14920" />
      <path
         d="m 27.686688,47.485586 q -0.391199,0.202981 -0.815613,0.306316 -0.424414,0.103336 -0.885734,0.103336 -1.376577,0 -2.181119,-0.767636 -0.804541,-0.771326 -0.804541,-2.088855 0,-1.321219 0.804541,-2.088855 0.804542,-0.771326 2.181119,-0.771326 0.46132,0 0.885734,0.103335 0.424414,0.103336 0.815613,0.306317 V 43.7286 q -0.39489,-0.269411 -0.778707,-0.39489 -0.383818,-0.125479 -0.808232,-0.125479 -0.760255,0 -1.195741,0.487154 -0.435485,0.487153 -0.435485,1.343362 0,0.852519 0.435485,1.339672 0.435486,0.487154 1.195741,0.487154 0.424414,0 0.808232,-0.125479 0.383817,-0.125479 0.778707,-0.39489 z"
         style="font-weight:bold;font-size:7.55826px;-inkscape-font-specification:'sans-serif, Bold';stroke-width:0.999999"
         id="path14922" />
      <path
         d="m 28.863976,42.278211 h 1.420865 v 5.510001 h -1.420865 z"
         style="font-weight:bold;font-size:7.55826px;-inkscape-font-specification:'sans-serif, Bold';stroke-width:0.999999"
         id="path14924" />
      <path
         d="M 35.019825,46.78438 H 32.79811 l -0.350603,1.003832 h -1.428245 l 2.040877,-5.510001 h 1.693966 l 2.040878,5.510001 h -1.428246 z m -1.867422,-1.022284 h 1.509438 l -0.752874,-2.19219 z"
         style="font-weight:bold;font-size:7.55826px;-inkscape-font-specification:'sans-serif, Bold';stroke-width:0.999999"
         id="path14926" />
      <path
         d="m 37.525712,42.278211 h 1.420864 v 4.436049 h 2.494816 v 1.073952 h -3.91568 z"
         style="font-weight:bold;font-size:7.55826px;-inkscape-font-specification:'sans-serif, Bold';stroke-width:0.999999"
         id="path14928" />
      <path
         d="m 46.99199,44.721359 q 0.446558,0 0.638467,-0.166075 0.195599,-0.166075 0.195599,-0.546202 0,-0.376437 -0.195599,-0.538821 -0.191909,-0.162385 -0.638467,-0.162385 h -0.59787 v 1.413483 z m -0.59787,0.981688 v 2.085165 h -1.420864 v -5.510001 h 2.170047 q 1.088714,0 1.594321,0.365365 0.509297,0.365365 0.509297,1.155144 0,0.546203 -0.265721,0.896805 -0.262029,0.350603 -0.793469,0.516678 0.291554,0.06643 0.520368,0.302626 0.232505,0.232505 0.468701,0.708587 l 0.771326,1.564796 H 48.434998 L 47.763317,46.419015 Q 47.560336,46.005673 47.349974,45.85436 47.143303,45.703047 46.796391,45.703047 Z"
         style="font-weight:bold;font-size:7.55826px;-inkscape-font-specification:'sans-serif, Bold';stroke-width:0.999999"
         id="path14930" />
      <path
         d="m 50.793263,42.278211 h 3.834489 v 1.073952 h -2.413624 v 1.025975 h 2.269692 v 1.073951 h -2.269692 v 1.262171 h 2.494816 v 1.073952 h -3.915681 z"
         style="font-weight:bold;font-size:7.55826px;-inkscape-font-specification:'sans-serif, Bold';stroke-width:0.999999"
         id="path14932" />
      <path
         d="m 59.790841,42.451667 v 1.166216 q -0.453938,-0.202981 -0.885733,-0.306316 -0.431795,-0.103336 -0.815613,-0.103336 -0.509297,0 -0.752874,0.140241 -0.243576,0.140241 -0.243576,0.435486 0,0.221433 0.162384,0.346912 0.166075,0.121789 0.59787,0.210362 l 0.605251,0.121788 q 0.918949,0.184528 1.306457,0.560965 0.387509,0.376437 0.387509,1.070261 0,0.911568 -0.542512,1.358125 -0.538821,0.442867 -1.649679,0.442867 -0.524059,0 -1.051808,-0.09965 -0.52775,-0.09964 -1.0555,-0.295245 v -1.19943 q 0.52775,0.280482 1.018594,0.424414 0.494535,0.140241 0.952164,0.140241 0.46501,0 0.712277,-0.155004 0.247267,-0.155003 0.247267,-0.442866 0,-0.258339 -0.169765,-0.398581 -0.166075,-0.140241 -0.667991,-0.250957 L 57.39567,45.496376 q -0.826685,-0.177147 -1.210502,-0.564655 -0.380128,-0.387508 -0.380128,-1.044428 0,-0.822994 0.53144,-1.26586 0.531441,-0.442867 1.527891,-0.442867 0.453938,0 0.933711,0.07012 0.479772,0.06643 0.992759,0.202981 z"
         style="font-weight:bold;font-size:7.55826px;-inkscape-font-specification:'sans-serif, Bold';stroke-width:0.999999"
         id="path14934" />
      <path
         d="m 61.399922,42.278211 h 3.834489 v 1.073952 h -2.413624 v 1.025975 h 2.269692 v 1.073951 h -2.269692 v 1.262171 h 2.494816 v 1.073952 h -3.915681 z"
         style="font-weight:bold;font-size:7.55826px;-inkscape-font-specification:'sans-serif, Bold';stroke-width:0.999999"
         id="path14936" />
      <path
         d="m 69.906656,46.78438 h -2.221715 l -0.350603,1.003832 h -1.428245 l 2.040878,-5.510001 h 1.693965 l 2.040878,5.510001 h -1.428245 z m -1.867421,-1.022284 h 1.509437 l -0.752873,-2.19219 z"
         style="font-weight:bold;font-size:7.55826px;-inkscape-font-specification:'sans-serif, Bold';stroke-width:0.999999"
         id="path14938" />
      <path
         d="m 74.43128,44.721359 q 0.446557,0 0.638466,-0.166075 0.195599,-0.166075 0.195599,-0.546202 0,-0.376437 -0.195599,-0.538821 -0.191909,-0.162385 -0.638466,-0.162385 h -0.597871 v 1.413483 z m -0.597871,0.981688 v 2.085165 h -1.420864 v -5.510001 h 2.170047 q 1.088715,0 1.594321,0.365365 0.509297,0.365365 0.509297,1.155144 0,0.546203 -0.26572,0.896805 -0.26203,0.350603 -0.79347,0.516678 0.291554,0.06643 0.520368,0.302626 0.232505,0.232505 0.468701,0.708587 l 0.771326,1.564796 H 75.874287 L 75.202606,46.419015 Q 74.999625,46.005673 74.789264,45.85436 74.582592,45.703047 74.23568,45.703047 Z"
         style="font-weight:bold;font-size:7.55826px;-inkscape-font-specification:'sans-serif, Bold';stroke-width:0.999999"
         id="path14940" />
      <path
         d="m 82.602168,47.485586 q -0.391199,0.202981 -0.815613,0.306316 -0.424414,0.103336 -0.885734,0.103336 -1.376578,0 -2.181119,-0.767636 -0.804541,-0.771326 -0.804541,-2.088855 0,-1.321219 0.804541,-2.088855 0.804541,-0.771326 2.181119,-0.771326 0.46132,0 0.885734,0.103335 0.424414,0.103336 0.815613,0.306317 V 43.7286 q -0.39489,-0.269411 -0.778708,-0.39489 -0.383818,-0.125479 -0.808232,-0.125479 -0.760254,0 -1.19574,0.487154 -0.435486,0.487153 -0.435486,1.343362 0,0.852519 0.435486,1.339672 0.435486,0.487154 1.19574,0.487154 0.424414,0 0.808232,-0.125479 0.383818,-0.125479 0.778708,-0.39489 z"
         style="font-weight:bold;font-size:7.55826px;-inkscape-font-specification:'sans-serif, Bold';stroke-width:0.999999"
         id="path14942" />
      <path
         d="m 83.779462,42.278211 h 1.420864 v 2.099927 h 2.096236 v -2.099927 h 1.420864 v 5.510001 h -1.420864 v -2.336123 h -2.096236 v 2.336123 h -1.420864 z"
         style="font-weight:bold;font-size:7.55826px;-inkscape-font-specification:'sans-serif, Bold';stroke-width:0.999999"
         id="path14944" />
    </g>
    <rect
       style="fill:#000000;stroke-width:3.99999;stroke-linecap:round;stroke-linejoin:round;-inkscape-stroke:none;paint-order:stroke fill markers;stop-color:#000000"
       id="rect16006"
       width="90"
       height="1.7362517"
       x="5"
       y="28.516512"
       rx="0"
       ry="0" />
  </g>
</svg>
