<?xml version="1.0" encoding="UTF-8" standalone="no"?>
<svg
   height="50"
   width="100"
   version="1.1"
   viewBox="0 0 100 50"
   data-name="Layer 1"
   id="Layer_1"
   xmlns:xlink="http://www.w3.org/1999/xlink"
   xmlns="http://www.w3.org/2000/svg"
   xmlns:svg="http://www.w3.org/2000/svg"
   xmlns:rdf="http://www.w3.org/1999/02/22-rdf-syntax-ns#"
   xmlns:cc="http://creativecommons.org/ns#"
   xmlns:dc="http://purl.org/dc/elements/1.1/">
  <metadata
     id="metadata197">
    <rdf:RDF>
      <cc:Work
         rdf:about="">
        <dc:format>image/svg+xml</dc:format>
        <dc:type
           rdf:resource="http://purl.org/dc/dcmitype/StillImage" />
        <dc:title>Nordic Journal of Art and Research</dc:title>
      </cc:Work>
    </rdf:RDF>
  </metadata>
  <defs
     id="defs195">
    <radialGradient
       gradientTransform="matrix(2.54097,0,0,2.54097,-27.693,-38.2065)"
       gradientUnits="userSpaceOnUse"
       r="7.5219898"
       fy="33.034901"
       fx="41.805801"
       cy="33.034901"
       cx="41.805801"
       id="radialGradient963"
       xlink:href="#linearGradient961" />
    <linearGradient
       id="linearGradient961">
      <stop
         id="stop957"
         offset="0"
         style="stop-color:#ffffff;stop-opacity:1" />
      <stop
         id="stop959"
         offset="1"
         style="stop-color:#ff8100;stop-opacity:1" />
    </linearGradient>
  </defs>
  <title
     id="title130">Nordic Journal of Art and Research</title>
  <rect
     style="fill:#000000;fill-opacity:1;stroke:none;stroke-width:4;stroke-linecap:round;stroke-linejoin:round;paint-order:stroke fill markers;stop-color:#000000"
     id="rect2744"
     width="100"
     height="50"
     x="0"
     y="0"
     rx="0" />
  <rect
     style="fill:#000000;fill-opacity:1;stroke:none;stroke-width:4;stroke-linecap:round;stroke-linejoin:round;paint-order:stroke fill markers;stop-color:#000000;font-variation-settings:normal;opacity:1;vector-effect:none;stroke-miterlimit:4;stroke-dasharray:none;stroke-dashoffset:0;stroke-opacity:1;-inkscape-stroke:none;stop-opacity:1"
     id="rect81709"
     width="90"
     height="40"
     x="5"
     y="5"
     rx="0" />
  <g
     aria-label="TIDSSKRIFT FOR"
     id="text46340"
     style="font-style:italic;font-size:11.2613px;line-height:1.25;font-family:Arial;-inkscape-font-specification:'Arial, Italic';letter-spacing:0px;word-spacing:0px;fill:#ffff00;stroke:#ffff00;stroke-width:0.510178;stroke-linecap:round;stroke-linejoin:bevel"
     transform="matrix(0.98057808,0,0,0.97952411,1.8178584,-3.8562892)">
    <path
       d="M 4.649421,26.429811 6.1395638,19.287024 H 3.4946979 l 0.1924539,-0.91828 H 10.03263 l -0.1924534,0.91828 H 7.2173054 l -1.4901427,7.142787 z"
       id="path52339"
       style="stroke:#ffff00;stroke-width:0.510178;stroke-linecap:round;stroke-linejoin:bevel" />
    <path
       d="m 9.6147308,26.429811 1.6880952,-8.061067 h 1.072243 l -1.682597,8.061067 z"
       id="path52341"
       style="stroke:#ffff00;stroke-width:0.510178;stroke-linecap:round;stroke-linejoin:bevel" />
    <path
       d="m 12.600515,26.429811 1.682596,-8.061067 h 2.430418 q 0.87429,0 1.336179,0.12647 0.659842,0.170459 1.12723,0.610353 0.467388,0.434396 0.703831,1.088739 0.236444,0.654344 0.236444,1.468148 0,0.973267 -0.296929,1.776075 -0.29143,0.797308 -0.769816,1.407662 -0.472886,0.604855 -0.995261,0.951272 -0.516876,0.340918 -1.226206,0.505879 -0.538871,0.126469 -1.325182,0.126469 z M 13.87071,25.51703 h 1.275695 q 0.863293,0 1.534132,-0.159461 0.417899,-0.09898 0.714828,-0.291431 0.390407,-0.24744 0.70933,-0.654343 0.4179,-0.538871 0.665341,-1.226206 0.252939,-0.692834 0.252939,-1.572623 0,-0.978765 -0.340918,-1.50114 -0.340918,-0.527873 -0.868792,-0.698332 -0.390406,-0.12647 -1.215209,-0.12647 h -1.424158 z"
       id="path52343"
       style="stroke:#ffff00;stroke-width:0.510178;stroke-linecap:round;stroke-linejoin:bevel" />
    <path
       d="m 21.024496,23.823436 1.055747,-0.09898 -0.011,0.280433 q 0,0.467388 0.214448,0.857794 0.214449,0.384908 0.70933,0.599357 0.494882,0.208949 1.176718,0.208949 0.967768,0 1.473647,-0.423398 0.511377,-0.423399 0.511377,-0.967768 0,-0.379409 -0.269435,-0.692834 -0.274934,-0.307926 -1.50114,-0.8358 -0.951272,-0.412401 -1.297689,-0.632348 -0.54437,-0.357414 -0.802808,-0.775314 -0.258438,-0.423399 -0.258438,-0.962269 0,-0.621351 0.340919,-1.121731 0.340918,-0.50038 0.995261,-0.764317 0.659842,-0.263937 1.484644,-0.263937 0.984264,0 1.660602,0.329921 0.676338,0.329921 0.978765,0.879789 0.307926,0.549868 0.307926,1.050248 0,0.04949 -0.0055,0.164961 l -1.039251,0.08248 q 0,-0.340918 -0.06049,-0.533372 -0.109973,-0.33542 -0.340918,-0.566364 -0.230945,-0.230945 -0.637847,-0.368412 -0.401404,-0.142966 -0.901784,-0.142966 -0.879789,0 -1.369172,0.395905 -0.37391,0.302428 -0.37391,0.802808 0,0.296929 0.153963,0.533372 0.153963,0.230945 0.555367,0.456391 0.285931,0.159461 1.358174,0.632348 0.868792,0.384908 1.198713,0.604855 0.439895,0.29143 0.676338,0.70933 0.236443,0.412401 0.236443,0.940274 0,0.654344 -0.401404,1.20971 -0.395905,0.549869 -1.099736,0.852296 -0.703831,0.302428 -1.611114,0.302428 -1.369171,0 -2.237963,-0.593858 -0.863293,-0.599356 -0.868792,-2.149985 z"
       id="path52345"
       style="stroke:#ffff00;stroke-width:0.510178;stroke-linecap:round;stroke-linejoin:bevel" />
    <path
       d="m 28.535694,23.823436 1.055747,-0.09898 -0.011,0.280433 q 0,0.467388 0.214448,0.857794 0.214449,0.384908 0.70933,0.599357 0.494882,0.208949 1.176718,0.208949 0.967768,0 1.473647,-0.423398 0.511377,-0.423399 0.511377,-0.967768 0,-0.379409 -0.269435,-0.692834 -0.274934,-0.307926 -1.50114,-0.8358 -0.951272,-0.412401 -1.297689,-0.632348 -0.54437,-0.357414 -0.802808,-0.775314 -0.258438,-0.423399 -0.258438,-0.962269 0,-0.621351 0.340919,-1.121731 0.340918,-0.50038 0.995261,-0.764317 0.659842,-0.263937 1.484644,-0.263937 0.984264,0 1.660602,0.329921 0.676338,0.329921 0.978765,0.879789 0.307926,0.549868 0.307926,1.050248 0,0.04949 -0.0055,0.164961 l -1.039251,0.08248 q 0,-0.340918 -0.06049,-0.533372 -0.109973,-0.33542 -0.340918,-0.566364 -0.230945,-0.230945 -0.637847,-0.368412 -0.401404,-0.142966 -0.901784,-0.142966 -0.879789,0 -1.369171,0.395905 -0.373911,0.302428 -0.373911,0.802808 0,0.296929 0.153963,0.533372 0.153963,0.230945 0.555367,0.456391 0.285932,0.159461 1.358174,0.632348 0.868792,0.384908 1.198713,0.604855 0.439895,0.29143 0.676338,0.70933 0.236443,0.412401 0.236443,0.940274 0,0.654344 -0.401404,1.20971 -0.395905,0.549869 -1.099736,0.852296 -0.703831,0.302428 -1.611114,0.302428 -1.369171,0 -2.237963,-0.593858 -0.863293,-0.599356 -0.868792,-2.149985 z"
       id="path52347"
       style="stroke:#ffff00;stroke-width:0.510178;stroke-linecap:round;stroke-linejoin:bevel" />
    <path
       d="m 35.755462,26.429811 1.682597,-8.061067 H 38.5158 l -0.808306,3.882069 4.376951,-3.882069 h 1.517636 l -3.744602,3.282713 2.743842,4.778354 H 41.39711 l -2.325943,-4.08552 -1.688095,1.468148 -0.549868,2.617372 z"
       id="path52349"
       style="stroke:#ffff00;stroke-width:0.510178;stroke-linecap:round;stroke-linejoin:bevel" />
    <path
       d="m 43.294156,26.429811 1.688095,-8.061067 h 3.381689 q 1.00076,0 1.517636,0.170459 0.516876,0.164961 0.808306,0.62685 0.296929,0.461889 0.296929,1.16572 0,0.984265 -0.643346,1.633109 -0.643345,0.648844 -2.078501,0.841298 0.439894,0.324422 0.66534,0.637847 0.505879,0.70933 0.813805,1.468148 l 0.615852,1.517636 H 49.15575 l -0.577361,-1.50114 Q 48.264964,24.114866 47.86356,23.521009 47.588626,23.108608 47.302694,22.982138 47.016763,22.85017 46.373417,22.85017 h -1.253699 l -0.747821,3.579641 z m 2.007018,-4.453932 h 1.490143 q 1.033752,0 1.347177,-0.02749 0.610354,-0.06049 1.00076,-0.274934 0.390407,-0.214449 0.604855,-0.577362 0.214449,-0.362913 0.214449,-0.780813 0,-0.351915 -0.159462,-0.610353 -0.159462,-0.263937 -0.4179,-0.357415 -0.258438,-0.09348 -0.879789,-0.09348 h -2.62837 z"
       id="path52351"
       style="stroke:#ffff00;stroke-width:0.510178;stroke-linecap:round;stroke-linejoin:bevel" />
    <path
       d="m 51.542177,26.429811 1.688095,-8.061067 h 1.072243 l -1.682596,8.061067 z"
       id="path52353"
       style="stroke:#ffff00;stroke-width:0.510178;stroke-linecap:round;stroke-linejoin:bevel" />
    <path
       d="m 54.538959,26.429811 1.682596,-8.061067 h 5.240244 l -0.192454,0.91828 h -4.162502 l -0.533372,2.567884 h 4.239483 l -0.192453,0.91828 H 56.381017 L 55.6167,26.429811 Z"
       id="path52355"
       style="stroke:#ffff00;stroke-width:0.510178;stroke-linecap:round;stroke-linejoin:bevel" />
    <path
       d="m 63.463321,26.429811 1.490143,-7.142787 h -2.644866 l 0.192454,-0.91828 h 6.345478 l -0.192453,0.91828 h -2.622872 l -1.490142,7.142787 z"
       id="path52357"
       style="stroke:#ffff00;stroke-width:0.510178;stroke-linecap:round;stroke-linejoin:bevel" />
    <path
       d="m 71.425414,26.429811 1.682597,-8.061067 h 5.240243 l -0.192453,0.91828 h -4.162503 l -0.533372,2.567884 h 4.239484 l -0.192454,0.91828 h -4.239483 l -0.764317,3.656623 z"
       id="path52359"
       style="stroke:#ffff00;stroke-width:0.510178;stroke-linecap:round;stroke-linejoin:bevel" />
    <path
       d="m 78.821135,23.053621 q 0,-2.155483 1.242703,-3.486164 1.2482,-1.33618 3.024274,-1.33618 1.506639,0 2.452412,0.984264 0.951272,0.978765 0.951272,2.62837 0,1.176718 -0.478385,2.182977 -0.357414,0.753319 -0.901784,1.303187 -0.544369,0.54437 -1.16572,0.841298 -0.824802,0.395906 -1.748581,0.395906 -0.967768,0 -1.765077,-0.46189 -0.79181,-0.461889 -1.204211,-1.286691 -0.406903,-0.830301 -0.406903,-1.765077 z m 1.061246,0.05499 q 0,0.70933 0.29143,1.303187 0.296929,0.593858 0.879789,0.929278 0.58286,0.335419 1.226206,0.335419 0.621351,0 1.182217,-0.29143 0.560865,-0.296929 1.00076,-0.819304 0.445393,-0.527873 0.698332,-1.29219 0.258438,-0.769815 0.258438,-1.512137 0,-1.204212 -0.676337,-1.91904 -0.67084,-0.714829 -1.660602,-0.714829 -1.264697,0 -2.232465,1.08324 -0.967768,1.077742 -0.967768,2.897806 z"
       id="path52361"
       style="stroke:#ffff00;stroke-width:0.510178;stroke-linecap:round;stroke-linejoin:bevel" />
    <path
       d="m 87.080155,26.429811 1.688095,-8.061067 h 3.381689 q 1.00076,0 1.517636,0.170459 0.516877,0.164961 0.808307,0.62685 0.296928,0.461889 0.296928,1.16572 0,0.984265 -0.643345,1.633109 -0.643346,0.648844 -2.078502,0.841298 0.439895,0.324422 0.665341,0.637847 0.505878,0.70933 0.813804,1.468148 l 0.615853,1.517636 h -1.204212 l -0.577361,-1.50114 Q 92.050963,24.114866 91.649559,23.521009 91.374625,23.108608 91.088694,22.982138 90.802762,22.85017 90.159417,22.85017 h -1.2537 l -0.747821,3.579641 z m 2.007019,-4.453932 h 1.490142 q 1.033753,0 1.347177,-0.02749 0.610354,-0.06049 1.00076,-0.274934 0.390407,-0.214449 0.604855,-0.577362 0.214449,-0.362913 0.214449,-0.780813 0,-0.351915 -0.159462,-0.610353 -0.159462,-0.263937 -0.4179,-0.357415 -0.258438,-0.09348 -0.879789,-0.09348 h -2.628369 z"
       id="path52363"
       style="stroke:#ffff00;stroke-width:0.510178;stroke-linecap:round;stroke-linejoin:bevel" />
  </g>
  <g
     aria-label="ungdomsforskning"
     id="text49512"
     style="font-size:9.04727px;line-height:1.25;font-family:'Arial Black';-inkscape-font-specification:'Arial Black, Normal';letter-spacing:0px;word-spacing:0px;fill:#ffffff;stroke-width:0.999999"
     transform="translate(0,-4.2295908)">
    <path
       d="M 9.9609729,38.323914 H 8.2822802 v -0.75983 q -0.375497,0.468267 -0.7598293,0.66706 -0.3799146,0.198792 -0.9365338,0.198792 -0.7421588,0 -1.1662496,-0.441761 -0.4196732,-0.446179 -0.4196732,-1.36946 v -2.986306 h 1.8068034 v 2.579886 q 0,0.441761 0.1634517,0.627301 0.1634516,0.18554 0.4594317,0.18554 0.3224856,0 0.5256958,-0.247387 0.2076278,-0.247386 0.2076278,-0.88794 v -2.2574 h 1.7979682 z"
       id="path52385" />
    <path
       d="m 11.052123,33.632409 h 1.674275 v 0.764247 q 0.375497,-0.468267 0.759829,-0.667059 0.384333,-0.20321 0.936534,-0.20321 0.746577,0 1.16625,0.446179 0.42409,0.441761 0.42409,1.369459 v 2.981889 h -1.806803 v -2.579886 q 0,-0.441761 -0.163452,-0.622883 -0.163451,-0.18554 -0.459431,-0.18554 -0.326904,0 -0.530114,0.247386 -0.20321,0.247387 -0.20321,0.88794 v 2.252983 h -1.797968 z"
       id="path52387" />
    <path
       d="m 20.351197,33.632409 h 1.68311 v 4.430865 l 0.0044,0.207628 q 0,0.441761 -0.189957,0.839347 -0.18554,0.402002 -0.49919,0.649389 -0.309233,0.247386 -0.790753,0.357826 -0.477102,0.11044 -1.095568,0.11044 -1.413635,0 -1.943749,-0.42409 -0.525696,-0.424091 -0.525696,-1.135327 0,-0.08835 0.0088,-0.238551 l 1.744957,0.198793 q 0.06626,0.242968 0.20321,0.335738 0.198793,0.136946 0.499191,0.136946 0.38875,0 0.578707,-0.207627 0.194375,-0.207628 0.194375,-0.724489 v -0.711235 q -0.265057,0.31365 -0.530114,0.455014 -0.415255,0.22088 -0.896775,0.22088 -0.940951,0 -1.519659,-0.821676 -0.410838,-0.583124 -0.410838,-1.541746 0,-1.095568 0.530114,-1.669858 0.530113,-0.574289 1.38713,-0.574289 0.547784,0 0.901193,0.185539 0.357827,0.18554 0.66706,0.614049 z m -1.691946,2.275071 q 0,0.508025 0.216463,0.755411 0.216463,0.242969 0.569872,0.242969 0.335739,0 0.561037,-0.251804 0.229716,-0.256221 0.229716,-0.768664 0,-0.512443 -0.238551,-0.781918 -0.238552,-0.273892 -0.583125,-0.273892 -0.344574,0 -0.552202,0.251804 -0.20321,0.247386 -0.20321,0.826094 z"
       id="path52389" />
    <path
       d="m 28.05993,31.847694 v 6.47622 h -1.683111 v -0.693566 q -0.353409,0.441762 -0.644971,0.596378 -0.38875,0.20321 -0.865852,0.20321 -0.958622,0 -1.466647,-0.728906 -0.503608,-0.728906 -0.503608,-1.771462 0,-1.16625 0.556619,-1.784716 0.561037,-0.618465 1.422471,-0.618465 0.419673,0 0.75983,0.141363 0.344573,0.141364 0.60963,0.424091 v -2.244147 z m -1.802386,4.117215 q 0,-0.552202 -0.234134,-0.821676 -0.234133,-0.273892 -0.59196,-0.273892 -0.31365,0 -0.525695,0.260639 -0.212046,0.260639 -0.212046,0.874687 0,0.57429 0.216463,0.843764 0.220881,0.265057 0.543367,0.265057 0.344573,0 0.574289,-0.269475 0.229716,-0.269474 0.229716,-0.879104 z"
       id="path52391" />
    <path
       d="m 28.934617,35.991414 q 0,-1.073479 0.724488,-1.767045 0.724489,-0.697982 1.957002,-0.697982 1.409219,0 2.12929,0.817258 0.578707,0.658224 0.578707,1.621264 0,1.082315 -0.720071,1.77588 -0.715653,0.689147 -1.983508,0.689147 -1.130909,0 -1.828891,-0.574289 -0.857017,-0.711236 -0.857017,-1.864233 z m 1.802386,-0.0044 q 0,0.627301 0.251803,0.927698 0.256222,0.300398 0.640554,0.300398 0.38875,0 0.636136,-0.29598 0.251804,-0.29598 0.251804,-0.949787 0,-0.60963 -0.251804,-0.90561 -0.251803,-0.300398 -0.622883,-0.300398 -0.393167,0 -0.649389,0.304815 -0.256221,0.300398 -0.256221,0.918864 z"
       id="path52393" />
    <path
       d="m 35.203208,33.632409 h 1.678693 v 0.68473 q 0.362244,-0.428508 0.728906,-0.60963 0.37108,-0.181122 0.892358,-0.181122 0.561036,0 0.88794,0.198792 0.326903,0.198793 0.534531,0.59196 0.424091,-0.459431 0.773082,-0.622883 0.348991,-0.167869 0.861434,-0.167869 0.755412,0 1.179503,0.450596 0.424091,0.446179 0.424091,1.400383 v 2.946548 H 41.36136 v -2.672656 q 0,-0.318068 -0.123693,-0.472684 -0.181122,-0.242969 -0.450597,-0.242969 -0.318068,0 -0.512443,0.229716 -0.194375,0.229716 -0.194375,0.737741 v 2.420852 H 38.277867 V 35.73961 q 0,-0.309232 -0.03534,-0.419673 -0.05743,-0.176704 -0.198793,-0.282727 -0.141364,-0.11044 -0.331321,-0.11044 -0.309233,0 -0.508025,0.234133 -0.198793,0.234134 -0.198793,0.768665 v 2.394346 h -1.802386 z"
       id="path52395" />
    <path
       d="m 43.919155,37.025136 1.784716,-0.16787 q 0.11044,0.318068 0.309233,0.455014 0.198792,0.136946 0.530113,0.136946 0.362244,0 0.561037,-0.154616 0.154616,-0.114858 0.154616,-0.287145 0,-0.194375 -0.20321,-0.300397 -0.145781,-0.0751 -0.773082,-0.18554 -0.936534,-0.163452 -1.303196,-0.300398 -0.362244,-0.141363 -0.614048,-0.472684 -0.247386,-0.331321 -0.247386,-0.755412 0,-0.463849 0.269474,-0.799588 0.269475,-0.335738 0.742159,-0.49919 0.472685,-0.167869 1.267855,-0.167869 0.839346,0 1.236931,0.12811 0.402003,0.128111 0.66706,0.397586 0.269474,0.269474 0.446179,0.728906 l -1.705199,0.167869 q -0.06626,-0.225298 -0.22088,-0.331321 -0.212046,-0.141364 -0.512443,-0.141364 -0.304816,0 -0.446179,0.110441 -0.136946,0.106022 -0.136946,0.260639 0,0.172287 0.176704,0.260639 0.176705,0.08835 0.768665,0.159034 0.896775,0.101605 1.334119,0.282727 0.437343,0.181122 0.667059,0.516861 0.234134,0.335738 0.234134,0.737741 0,0.40642 -0.247387,0.790753 -0.242968,0.384332 -0.773082,0.614048 -0.525696,0.225298 -1.435724,0.225298 -1.285525,0 -1.833309,-0.366662 -0.543366,-0.366662 -0.697983,-1.042556 z"
       id="path52397" />
    <path
       d="m 51.764838,33.632409 h 0.857016 v 1.316449 h -0.857016 v 3.375056 h -1.802386 v -3.375056 h -0.671477 v -1.316449 h 0.671477 v -0.212045 q 0,-0.287145 0.06185,-0.631719 0.06185,-0.344573 0.229716,-0.561036 0.172287,-0.220881 0.477102,-0.353409 0.309233,-0.136946 0.901193,-0.136946 0.472685,0 1.373878,0.11044 l -0.198793,1.086733 q -0.322486,-0.05301 -0.521278,-0.05301 -0.242969,0 -0.348991,0.08394 -0.106023,0.07952 -0.150199,0.256221 -0.02209,0.09719 -0.02209,0.410838 z"
       id="path52399" />
    <path
       d="m 52.908997,35.991414 q 0,-1.073479 0.724489,-1.767045 0.724488,-0.697982 1.957002,-0.697982 1.409218,0 2.129289,0.817258 0.578707,0.658224 0.578707,1.621264 0,1.082315 -0.720071,1.77588 -0.715653,0.689147 -1.983507,0.689147 -1.130909,0 -1.828892,-0.574289 -0.857017,-0.711236 -0.857017,-1.864233 z m 1.802386,-0.0044 q 0,0.627301 0.251804,0.927698 0.256221,0.300398 0.640554,0.300398 0.38875,0 0.636136,-0.29598 0.251804,-0.29598 0.251804,-0.949787 0,-0.60963 -0.251804,-0.90561 -0.251804,-0.300398 -0.622883,-0.300398 -0.393168,0 -0.649389,0.304815 -0.256222,0.300398 -0.256222,0.918864 z"
       id="path52401" />
    <path
       d="m 59.182007,33.632409 h 1.68311 v 0.768665 q 0.242968,-0.49919 0.49919,-0.68473 0.260639,-0.189957 0.640554,-0.189957 0.397585,0 0.870269,0.247386 l -0.556619,1.281108 q -0.318068,-0.132529 -0.503608,-0.132529 -0.353409,0 -0.547784,0.291563 -0.278309,0.410838 -0.278309,1.537329 v 1.57267 h -1.806803 z"
       id="path52403" />
    <path
       d="m 63.087178,37.025136 1.784715,-0.16787 q 0.11044,0.318068 0.309233,0.455014 0.198792,0.136946 0.530113,0.136946 0.362244,0 0.561037,-0.154616 0.154616,-0.114858 0.154616,-0.287145 0,-0.194375 -0.20321,-0.300397 -0.145781,-0.0751 -0.773082,-0.18554 -0.936534,-0.163452 -1.303195,-0.300398 -0.362245,-0.141363 -0.614049,-0.472684 -0.247386,-0.331321 -0.247386,-0.755412 0,-0.463849 0.269474,-0.799588 0.269475,-0.335738 0.742159,-0.49919 0.472685,-0.167869 1.267855,-0.167869 0.839346,0 1.236931,0.12811 0.402003,0.128111 0.66706,0.397586 0.269474,0.269474 0.446179,0.728906 l -1.705199,0.167869 q -0.06626,-0.225298 -0.22088,-0.331321 -0.212046,-0.141364 -0.512443,-0.141364 -0.304815,0 -0.446179,0.110441 -0.136946,0.106022 -0.136946,0.260639 0,0.172287 0.176704,0.260639 0.176705,0.08835 0.768665,0.159034 0.896775,0.101605 1.334119,0.282727 0.437343,0.181122 0.667059,0.516861 0.234134,0.335738 0.234134,0.737741 0,0.40642 -0.247387,0.790753 -0.242968,0.384332 -0.773082,0.614048 -0.525696,0.225298 -1.435724,0.225298 -1.285525,0 -1.833309,-0.366662 -0.543366,-0.366662 -0.697982,-1.042556 z"
       id="path52405" />
    <path
       d="m 68.931678,31.847694 h 1.837726 v 3.339715 l 1.342954,-1.555 h 2.213224 l -1.68311,1.643352 1.780298,3.048153 h -2.027684 l -0.949787,-1.881903 -0.675895,0.662642 v 1.219261 h -1.837726 z"
       id="path52407" />
    <path
       d="m 74.966136,33.632409 h 1.674275 v 0.764247 q 0.375497,-0.468267 0.759829,-0.667059 0.384332,-0.20321 0.936534,-0.20321 0.746576,0 1.16625,0.446179 0.42409,0.441761 0.42409,1.369459 v 2.981889 h -1.806803 v -2.579886 q 0,-0.441761 -0.163452,-0.622883 -0.163451,-0.18554 -0.459431,-0.18554 -0.326904,0 -0.530114,0.247386 -0.20321,0.247387 -0.20321,0.88794 v 2.252983 h -1.797968 z"
       id="path52409" />
    <path
       d="m 81.066854,31.847694 h 1.797969 v 1.223679 h -1.797969 z m 0,1.784715 h 1.797969 v 4.691505 h -1.797969 z"
       id="path52411" />
    <path
       d="m 84.013408,33.632409 h 1.674275 v 0.764247 q 0.375497,-0.468267 0.759829,-0.667059 0.384332,-0.20321 0.936534,-0.20321 0.746576,0 1.166249,0.446179 0.424091,0.441761 0.424091,1.369459 v 2.981889 h -1.806803 v -2.579886 q 0,-0.441761 -0.163452,-0.622883 -0.163452,-0.18554 -0.459432,-0.18554 -0.326903,0 -0.530113,0.247386 -0.20321,0.247387 -0.20321,0.88794 v 2.252983 h -1.797968 z"
       id="path52413" />
    <path
       d="m 93.312477,33.632409 h 1.683111 v 4.430865 l 0.0044,0.207628 q 0,0.441761 -0.189957,0.839347 -0.18554,0.402002 -0.49919,0.649389 -0.309233,0.247386 -0.790753,0.357826 -0.477102,0.11044 -1.095568,0.11044 -1.413636,0 -1.943749,-0.42409 -0.525696,-0.424091 -0.525696,-1.135327 0,-0.08835 0.0088,-0.238551 l 1.744957,0.198793 q 0.06626,0.242968 0.20321,0.335738 0.198793,0.136946 0.49919,0.136946 0.38875,0 0.578708,-0.207627 0.194375,-0.207628 0.194375,-0.724489 v -0.711235 q -0.265057,0.31365 -0.530114,0.455014 -0.415255,0.22088 -0.896775,0.22088 -0.940952,0 -1.519659,-0.821676 -0.410838,-0.583124 -0.410838,-1.541746 0,-1.095568 0.530114,-1.669858 0.530113,-0.574289 1.38713,-0.574289 0.547784,0 0.901193,0.185539 0.357826,0.18554 0.667059,0.614049 z m -1.691945,2.275071 q 0,0.508025 0.216463,0.755411 0.216463,0.242969 0.569872,0.242969 0.335738,0 0.561037,-0.251804 0.229715,-0.256221 0.229715,-0.768664 0,-0.512443 -0.238551,-0.781918 -0.238551,-0.273892 -0.583124,-0.273892 -0.344574,0 -0.552202,0.251804 -0.20321,0.247386 -0.20321,0.826094 z"
       id="path52415" />
  </g>
</svg>
