<?xml version="1.0" encoding="UTF-8" standalone="no"?>
<svg
   width="94"
   height="31"
   overflow="hidden"
   version="1.1"
   id="svg19"
   xmlns="http://www.w3.org/2000/svg"
   xmlns:svg="http://www.w3.org/2000/svg">
  <defs
     id="defs5">
    <clipPath
       id="clip0">
      <rect
         x="0"
         y="0"
         width="94"
         height="31"
         id="rect2" />
    </clipPath>
  </defs>
  <path
     id="path15"
     d="m 58.315325,5.425 c 2.860827,0 5.273285,0.97129 7.237375,2.91419 1.975612,1.94321 2.964327,4.33004 2.964327,7.16079 0,2.83107 -0.969916,5.18737 -2.910151,7.07077 -2.060515,2.003 -4.49147,3.0042 -7.291551,3.0042 -2.764168,0 -5.152146,-0.9955 -7.164307,-2.9863 -2.000062,-1.9794 -3.000563,-4.3417 -3.000563,-7.08867 0,-2.75865 1.000501,-5.14548 3.000563,-7.16048 1.963786,-1.942895 4.351774,-2.9145 7.164307,-2.9145 z m -7.873631,7.35851 c -0.302952,0.82741 -0.454747,1.73322 -0.454747,2.71679 0,2.23095 0.824206,4.16225 2.472628,5.79315 1.660835,1.6195 3.624934,2.429 5.891632,2.429 2.291572,0 4.267184,-0.8211 5.928655,-2.4649 0.594119,-0.5636 1.060277,-1.1514 1.399485,-1.7638 l -3.836504,-1.691 c -0.134026,0.636 -0.457971,1.1545 -0.972847,1.556 -0.51619,0.4017 -1.124864,0.6331 -1.82784,0.6926 v 1.5475 h -1.181971 v -1.5475 c -1.127492,-0.0113 -2.158184,-0.4131 -3.091228,-1.2049 l 1.400202,-1.4033 c 0.666327,0.6115 1.42439,0.9172 2.273116,0.9172 0.351337,0 0.651732,-0.0775 0.900579,-0.2339 0.24824,-0.1556 0.372966,-0.4131 0.372966,-0.7736 0,-0.2522 -0.09137,-0.4559 -0.273003,-0.6118 l -0.981742,-0.41397 -1.200063,-0.53996 -1.618524,-0.70179 z m 7.91022,-5.559497 c -2.315456,0 -4.273198,0.809457 -5.873559,2.428697 -0.400338,0.39608 -0.776165,0.84567 -1.127481,1.34974 l 3.891599,1.72691 c 0.169625,-0.52768 0.490709,-0.95051 0.963912,-1.26819 0.472233,-0.31767 1.024102,-0.49462 1.65481,-0.53082 V 9.38289 h 1.182174 v 1.54746 c 0.93373,0.04817 1.782053,0.35986 2.545877,0.9354 l -1.327722,1.34941 c -0.570568,-0.39575 -1.151648,-0.59347 -1.745767,-0.59347 -0.315354,0 -0.596949,0.06013 -0.845189,0.17977 -0.248544,0.11996 -0.372967,0.32397 -0.372967,0.61174 0,0.08406 0.03022,0.16781 0.09066,0.25188 l 1.291031,0.57616 0.891078,0.39576 1.63701,0.71941 5.217896,2.30274 c 0.170311,-0.7077 0.254911,-1.42716 0.254911,-2.15885 0,-2.31504 -0.812137,-4.26393 -2.436312,-5.84759 C 62.63143,8.03347 60.666633,7.224013 58.351914,7.224013 Z M 80.980015,5.42501 c 2.848973,0 5.261105,0.977736 7.237606,2.93259 1.975189,1.94317 2.963793,4.32326 2.963793,7.14241 0,2.8191 -0.970209,5.1814 -2.910324,7.0883 -2.048568,1.9911 -4.479399,2.9867 -7.291378,2.9867 -2.752316,0 -5.14025,-0.9895 -7.164408,-2.9689 -2.000092,-1.9785 -3.000604,-4.3476 -3.000604,-7.1058 0,-2.7466 1.000512,-5.12729 3.000604,-7.14209 1.976462,-1.955474 4.364708,-2.93321 7.164711,-2.93321 z m 0.0371,1.81711 c -2.315151,0 -4.273602,0.80925 -5.873886,2.42896 -1.661212,1.66769 -2.491433,3.61056 -2.491433,5.82893 0,2.2432 0.824157,4.1738 2.472623,5.7932 1.64876,1.6314 3.612486,2.4465 5.892089,2.4465 2.266786,0 4.242581,-0.8212 5.927586,-2.4646 1.600102,-1.5352 2.400305,-3.4599 2.400305,-5.7751 0,-2.30231 -0.812635,-4.24549 -2.436388,-5.82893 C 85.295471,8.05137 83.331704,7.24212 81.01711,7.24212 Z m 3.836769,5.88273 v 1.72701 h -7.401043 v -1.72701 z m 0,3.23886 v 1.7257 h -7.401043 v -1.7257 z M 35.650229,5.425 c 2.86022,0 5.272981,0.97129 7.237071,2.9145 1.975612,1.95518 2.964327,4.34201 2.964327,7.16048 0,2.83077 -0.97032,5.18737 -2.910151,7.07017 -2.060919,2.0033 -4.491167,3.0048 -7.291247,3.0048 -2.752373,0 -5.140361,-0.9899 -7.164611,-2.969 -2.000062,-1.9791 -3.000563,-4.3473 -3.000563,-7.10597 0,-2.75834 1.000501,-5.14517 3.000563,-7.16016 C 30.449728,6.39629 32.837393,5.425 35.650229,5.425 Z m 0.03629,1.817274 c -2.315457,0 -4.273198,0.803796 -5.873559,2.410756 -1.661158,1.67937 -2.491408,3.62857 -2.491408,5.84727 0,2.23095 0.824206,4.16225 2.472628,5.79245 1.648735,1.6316 3.612521,2.4467 5.891631,2.4467 2.266809,0 4.243331,-0.8208 5.928352,-2.4646 1.60032,-1.5232 2.400329,-3.4482 2.400329,-5.77518 0,-2.2908 -0.812441,-4.23937 -2.436312,-5.84696 C 39.953901,8.04575 37.989812,7.242274 35.686515,7.242274 Z m 2.727812,5.756906 v 4.11977 h -1.163475 v 4.8932 H 34.0864 v -4.8929 h -1.163403 v -4.12007 c 0,-0.18009 0.06365,-0.33279 0.190617,-0.45872 0.127607,-0.12563 0.282272,-0.18891 0.463662,-0.18891 h 4.182796 c 0.169604,0 0.321419,0.06297 0.454433,0.18891 0.132712,0.12593 0.199826,0.27895 0.199826,0.45872 z m -4.164593,-2.59053 c 0,-0.94705 0.472525,-1.4212 1.418587,-1.4212 0.946163,0 1.418385,0.47352 1.418385,1.4212 0,0.9354 -0.47293,1.40326 -1.418385,1.40326 -0.945455,0 -1.418587,-0.46786 -1.418587,-1.40326 z M 12.985584,5.42498 c 2.848496,0 5.273689,0.983902 7.273863,2.95076 0.95718,0.94738 1.685021,2.03015 2.182108,3.24736 0.496783,1.21752 0.745933,2.50966 0.745933,3.87705 0,1.3794 -0.246016,2.6718 -0.736432,3.8767 -0.491022,1.2053 -1.215629,2.2701 -2.17291,3.1935 -0.99377,0.9714 -2.121261,1.7153 -3.382475,2.2311 -1.260507,0.5157 -2.56397,0.7736 -3.90948,0.7736 -1.345511,0 -2.633712,-0.2544 -3.8643199,-0.7648 -1.2302849,-0.5094 -2.3336095,-1.2471 -3.3096301,-2.2125 -0.9760206,-0.9653 -1.7184569,-2.054 -2.2276324,-3.2656 -0.5091754,-1.2115 -0.7637631,-2.4885 -0.7637631,-3.832 0,-1.3315 0.2574481,-2.61167 0.7726679,-3.84116 C 4.1087331,10.4295 4.8575371,9.32911 5.8392887,8.35748 7.778928,6.402899 10.160902,5.42498 12.985584,5.42498 Z m 0.03689,1.817307 c -2.327576,0 -4.2856713,0.803813 -5.873974,2.410803 -0.8003522,0.80381 -1.4155048,1.70616 -1.8457508,2.7077 -0.4308928,1.00153 -0.6456974,2.04809 -0.6456974,3.13967 0,1.07959 0.2148046,2.12019 0.6456974,3.12109 0.4305694,1.0022 1.0453986,1.8957 1.8457508,2.6813 0.800039,0.7858 1.7028712,1.385 2.7097601,1.7993 1.0059389,0.4137 2.0608789,0.6206 3.1642139,0.6206 1.090902,0 2.148046,-0.2094 3.173755,-0.6294 1.024395,-0.4203 1.947917,-1.0254 2.77279,-1.817 1.587989,-1.5352 2.38163,-3.4602 2.38163,-5.77557 0,-1.11551 -0.206193,-2.17089 -0.618376,-3.16644 -0.411474,-0.99555 -1.01196,-1.8828 -1.799234,-2.66299 C 17.295422,8.05208 15.325875,7.242287 13.022477,7.242287 Z m -0.127658,6.585073 -1.364209,0.70179 c -0.14575,-0.29942 -0.32435,-0.50974 -0.536254,-0.62969 -0.212257,-0.11965 -0.409242,-0.17978 -0.591278,-0.17978 -0.9088769,0 -1.3639469,0.59349 -1.3639469,1.7811 0,0.53965 0.1152053,0.97099 0.3452823,1.29497 0.2304005,0.324 0.569962,0.4861 1.0186646,0.4861 0.594149,0 1.012306,-0.2881 1.255088,-0.8636 l 1.254543,0.6297 c -0.266737,0.4921 -0.636469,0.8787 -1.109399,1.1605 -0.472222,0.2821 -0.99384,0.4229 -1.563802,0.4229 -0.9091899,0 -1.6430348,-0.2755 -2.2005847,-0.8278 -0.55755,-0.5516 -0.8363148,-1.31918 -0.8363148,-2.30246 0,-0.95966 0.2819487,-1.72096 0.8455429,-2.28486 0.5635942,-0.56358 1.275799,-0.84568 2.1369376,-0.84568 1.261123,0 2.164026,0.48518 2.70973,1.45681 z m 5.87367,0 -1.345813,0.70179 c -0.145447,-0.29942 -0.324552,-0.50974 -0.536506,-0.62969 -0.212662,-0.11965 -0.415924,-0.17978 -0.609179,-0.17978 -0.90917,0 -1.36421,0.59349 -1.36421,1.7811 0,0.53965 0.115529,0.97099 0.345576,1.29497 0.230148,0.324 0.569355,0.4861 1.018634,0.4861 0.593512,0 1.012064,-0.2881 1.254239,-0.8636 l 1.272939,0.6297 c -0.278462,0.4921 -0.654663,0.8787 -1.126885,1.1605 -0.47293,0.2821 -0.98811,0.4229 -1.545639,0.4229 -0.921602,0 -1.657731,-0.2755 -2.208893,-0.8278 -0.552476,-0.5516 -0.828007,-1.31918 -0.828007,-2.30246 0,-0.95966 0.281595,-1.72096 0.845796,-2.28486 0.563291,-0.56358 1.275465,-0.84568 2.136321,-0.84568 1.26081,0 2.158558,0.48518 2.691627,1.45681 z"
     style="fill:#993842;fill-opacity:1;stroke-width:1.00536" />
</svg>
