<?xml version="1.0" encoding="UTF-8" standalone="no"?>
<svg
   width="94"
   height="31"
   overflow="hidden"
   version="1.1"
   id="svg19"
   xmlns="http://www.w3.org/2000/svg"
   xmlns:svg="http://www.w3.org/2000/svg">
  <defs
     id="defs5">
    <clipPath
       id="clip0">
      <rect
         x="0"
         y="0"
         width="94"
         height="31"
         id="rect2" />
    </clipPath>
  </defs>
  <g
     clip-path="url(#clip0)"
     id="g17">
    <path
       d="M-139.476 85.1086C-137.44 85.1086-135.789 86.7595-135.789 88.796L-135.789 112.421C-135.789 114.458-137.44 116.109-139.476 116.109L-225.101 116.109C-227.138 116.109-228.789 114.458-228.789 112.421L-228.789 88.796C-228.789 86.7595-227.138 85.1086-225.101 85.1086Z"
       fill="#C0545F"
       fill-opacity="0.941176"
       transform="matrix(1.01075 0 0 1 231.249 -85.1085)"
       id="path7" />
    <path
       id="path15"
       transform="matrix(1.01075 0 0 1 46.4002 6.52695)"
       d="m 11.7884,-1.10195 c 2.8304,0 5.2172,0.97129 7.1604,2.91419 1.9546,1.94321 2.9328,4.33004 2.9328,7.16079 0,2.83107 -0.9596,5.18737 -2.8792,7.07077 -2.0386,2.003 -4.4437,3.0042 -7.214,3.0042 -2.73477,0 -5.09735,-0.9955 -7.08811,-2.9863 C 2.7215,14.0823 1.73164,11.72 1.73164,8.97303 c 0,-2.75865 0.98986,-5.14548 2.96865,-7.16048 1.9429,-1.942895 4.30549,-2.9145 7.08811,-2.9145 z M 3.99851,6.25656 C 3.69878,7.08397 3.5486,7.98978 3.5486,8.97335 c 0,2.23095 0.81544,4.16225 2.44633,5.79315 1.64317,1.6195 3.58638,2.429 5.82897,2.429 2.2672,0 4.2218,-0.8211 5.8656,-2.4649 0.5878,-0.5636 1.049,-1.1514 1.3846,-1.7638 l -3.7957,-1.691 c -0.1326,0.636 -0.4531,1.1545 -0.9625,1.556 -0.5107,0.4017 -1.1129,0.6331 -1.8084,0.6926 v 1.5475 H 11.3381 V 13.5244 C 10.2226,13.5131 9.20287,13.1113 8.27975,12.3195 l 1.38531,-1.4033 c 0.65924,0.6115 1.40924,0.9172 2.24894,0.9172 0.3476,0 0.6448,-0.0775 0.891,-0.2339 0.2456,-0.1556 0.369,-0.4131 0.369,-0.7736 0,-0.2522 -0.0904,-0.4559 -0.2701,-0.6118 L 11.9326,9.80013 10.7453,9.26017 9.14399,8.55838 Z M 11.8246,0.697063 C 9.53377,0.697063 7.59685,1.50652 6.01351,3.12576 5.61743,3.52184 5.2456,3.97143 4.89802,4.4755 L 8.74823,6.20241 C 8.91605,5.67473 9.23372,5.2519 9.70189,4.93422 10.1691,4.61655 10.7151,4.4396 11.3391,4.4034 V 2.85594 h 1.1696 V 4.4034 c 0.9238,0.04817 1.7631,0.35986 2.5188,0.9354 L 13.7139,6.68821 C 13.1494,6.29246 12.5745,6.09474 11.9867,6.09474 c -0.312,0 -0.5906,0.06013 -0.8362,0.17977 -0.2459,0.11996 -0.369,0.32397 -0.369,0.61174 0,0.08406 0.0299,0.16781 0.0897,0.25188 l 1.2773,0.57616 0.8816,0.39576 1.6196,0.71941 5.1624,2.30274 c 0.1685,-0.7077 0.2522,-1.42716 0.2522,-2.15885 0,-2.31504 -0.8035,-4.26393 -2.4104,-5.84759 C 16.0586,1.50652 14.1147,0.697063 11.8246,0.697063 Z M 34.212036,-1.10194 c 2.818672,0 5.205149,0.977736 7.160629,2.93259 1.954181,1.94317 2.932271,4.32326 2.932271,7.14241 0,2.8191 -0.95989,5.1814 -2.879371,7.0883 -2.02678,1.9911 -4.431757,2.9867 -7.213829,2.9867 -2.723043,0 -5.08558,-0.9895 -7.08821,-2.9689 -1.97882,-1.9785 -2.96869,-4.3476 -2.96869,-7.1058 0,-2.7466 0.98987,-5.12729 2.96869,-7.14209 1.955441,-1.955474 4.318287,-2.93321 7.08851,-2.93321 z m 0.0367,1.81711 c -2.290528,0 -4.228149,0.80925 -5.811413,2.42896 -1.643544,1.66769 -2.464935,3.61056 -2.464935,5.82893 0,2.2432 0.815391,4.1738 2.446325,5.7932 1.631224,1.6314 3.574065,2.4465 5.829423,2.4465 2.242677,0 4.197458,-0.8212 5.864542,-2.4646 1.583084,-1.5352 2.374776,-3.4599 2.374776,-5.7751 0,-2.30231 -0.803992,-4.24549 -2.410476,-5.82893 C 38.481594,1.52442 36.538713,0.71517 34.248736,0.71517 Z M 38.044698,6.5979 V 8.32491 H 30.722371 V 6.5979 Z m 0,3.23886 v 1.7257 H 30.722371 V 9.83676 Z M -10.635638,-1.10195 c 2.8297996,0 5.2168996,0.97129 7.1600996,2.9145 1.9546,1.95518 2.93280004,4.34201 2.93280004,7.16048 0,2.83077 -0.96000004,5.18737 -2.87920004,7.07017 -2.039,2.0033 -4.4434,3.0048 -7.2136996,3.0048 -2.7231,0 -5.08569,-0.9899 -7.08841,-2.969 -1.97879,-1.9791 -2.96865,-4.3473 -2.96865,-7.10597 0,-2.75834 0.98986,-5.14517 2.96865,-7.16016 1.94322,-1.94353 4.30549,-2.91482 7.08841,-2.91482 z m 0.0359,1.817274 c -2.29083,0 -4.22775,0.803796 -5.81109,2.410756 -1.64349,1.67937 -2.46491,3.62857 -2.46491,5.84727 0,2.23095 0.81544,4.16225 2.44633,5.79245 1.6312,1.6316 3.5741,2.4467 5.82897,2.4467 2.2426996,0 4.1981996,-0.8208 5.8652996,-2.4646 1.5833,-1.5232 2.3748,-3.4482 2.3748,-5.77518 0,-2.2908 -0.8038,-4.23937 -2.4104,-5.84696 -1.607,-1.60696 -3.5502,-2.410436 -5.8289996,-2.410436 z M -7.9009384,6.47223 V 10.592 h -1.1511 v 4.8932 h -3.1307996 v -4.8929 h -1.15103 V 6.47223 c 0,-0.18009 0.06297,-0.33279 0.18859,-0.45872 0.12625,-0.12563 0.27927,-0.18891 0.45873,-0.18891 h 4.1383096 c 0.1678,0 0.318,0.06297 0.4496,0.18891 0.1313,0.12593 0.1977,0.27895 0.1977,0.45872 z M -12.021238,3.8817 c 0,-0.94705 0.4675,-1.4212 1.4035,-1.4212 0.9360996,0 1.4032996,0.47352 1.4032996,1.4212 0,0.9354 -0.4679,1.40326 -1.4032996,1.40326 -0.9354,0 -1.4035,-0.46786 -1.4035,-1.40326 z m -21.037991,-4.98367 c 2.8182,0 5.2176,0.983902 7.1965,2.95076 0.947,0.94738 1.6671,2.03015 2.1589,3.24736 0.4915,1.21752 0.738,2.50966 0.738,3.87705 0,1.3794 -0.2434,2.6718 -0.7286,3.8767 -0.4858,1.2053 -1.2027,2.2701 -2.1498,3.1935 -0.9832,0.9714 -2.0987,1.7153 -3.3465,2.2311 -1.2471,0.5157 -2.5367,0.7736 -3.8679,0.7736 -1.3312,0 -2.6057,-0.2544 -3.82322,-0.7648 -1.2172,-0.5094 -2.30879,-1.2471 -3.27443,-2.2125 -0.96564,-0.9653 -1.70018,-2.054 -2.20394,-3.2656 -0.50376,-1.2115 -0.75564,-2.4885 -0.75564,-3.832 0,-1.3315 0.25471,-2.61167 0.76445,-3.84116 0.50974,-1.22949 1.25058,-2.32988 2.22189,-3.30151 1.91901,-1.954581 4.27565,-2.9325 7.07029,-2.9325 z m 0.0365,1.817307 c -2.30282,0 -4.24009,0.803813 -5.8115,2.410803 -0.79184,0.80381 -1.40045,1.70616 -1.82612,2.7077 -0.42631,1.00153 -0.63883,2.04809 -0.63883,3.13967 0,1.07959 0.21252,2.12019 0.63883,3.12109 0.42599,1.0022 1.03428,1.8957 1.82612,2.6813 0.79153,0.7858 1.68476,1.385 2.68094,1.7993 0.99524,0.4137 2.03896,0.6206 3.13056,0.6206 1.0793,0 2.1252,-0.2094 3.14,-0.6294 1.0135,-0.4203 1.9272,-1.0254 2.7433,-1.817 1.5711,-1.5352 2.3563,-3.4602 2.3563,-5.77557 0,-1.11551 -0.204,-2.17089 -0.6118,-3.16644 -0.4071,-0.99555 -1.0012,-1.8828 -1.7801,-2.66299 -1.6202,-1.61927 -3.5688,-2.429063 -5.8477,-2.429063 z m -0.1263,6.585073 -1.3497,0.70179 c -0.1442,-0.29942 -0.3209,-0.50974 -0.53055,-0.62969 -0.21,-0.11965 -0.40489,-0.17978 -0.58499,-0.17978 -0.89921,0 -1.34944,0.59349 -1.34944,1.7811 0,0.53965 0.11398,0.97099 0.34161,1.29497 0.22795,0.324 0.5639,0.4861 1.00783,0.4861 0.58783,0 1.00154,-0.2881 1.24174,-0.8636 l 1.2412,0.6297 c -0.2639,0.4921 -0.6297,0.8787 -1.0976,1.1605 -0.4672,0.2821 -0.98327,0.4229 -1.54717,0.4229 -0.89952,0 -1.62556,-0.2755 -2.17718,-0.8278 -0.55162,-0.5516 -0.82742,-1.31918 -0.82742,-2.30246 0,-0.95966 0.27895,-1.72096 0.83655,-2.28486 0.5576,-0.56358 1.26223,-0.84568 2.11421,-0.84568 1.24771,0 2.14101,0.48518 2.68091,1.45681 z m 5.8112,0 -1.3315,0.70179 c -0.1439,-0.29942 -0.3211,-0.50974 -0.5308,-0.62969 -0.2104,-0.11965 -0.4115,-0.17978 -0.6027,-0.17978 -0.8995,0 -1.3497,0.59349 -1.3497,1.7811 0,0.53965 0.1143,0.97099 0.3419,1.29497 0.2277,0.324 0.5633,0.4861 1.0078,0.4861 0.5872,0 1.0013,-0.2881 1.2409,-0.8636 l 1.2594,0.6297 c -0.2755,0.4921 -0.6477,0.8787 -1.1149,1.1605 -0.4679,0.2821 -0.9776,0.4229 -1.5292,0.4229 -0.9118,0 -1.6401,-0.2755 -2.1854,-0.8278 -0.5466,-0.5516 -0.8192,-1.31918 -0.8192,-2.30246 0,-0.95966 0.2786,-1.72096 0.8368,-2.28486 0.5573,-0.56358 1.2619,-0.84568 2.1136,-0.84568 1.2474,0 2.1356,0.48518 2.663,1.45681 z"
       style="fill:#ffffff" />
  </g>
</svg>
