<?xml version="1.0" encoding="UTF-8" standalone="no"?>
<svg
   width="225"
   height="39"
   overflow="hidden"
   version="1.1"
   id="svg69"
   xmlns="http://www.w3.org/2000/svg"
   xmlns:svg="http://www.w3.org/2000/svg">
  <defs
     id="defs5">
    <clipPath
       id="clip0">
      <rect
         x="0"
         y="0"
         width="225"
         height="39"
         id="rect2" />
    </clipPath>
  </defs>
  <path
     d="M -0.01522253,6.19335e-5 H 38.986973 V 38.9999 H -0.01522283 Z"
     fill="#c0545f"
     fill-opacity="0.949749"
     id="path7"
     style="stroke-width:1.00003;fill:#993842;fill-opacity:0.94901961" />
  <path
     d="M 31.048353,31.275 H 7.9234756 V 20.4066 H 19.979689 V 18.593 H 7.9234756 V 7.72457 H 32.449837 V 5.91097 H 6.1097568 V 33.0886 H 32.862062 V 16.5733 h -1.813709 z"
     fill="#ffffff"
     id="path9"
     style="stroke-width:1.00003" />
  <path
     id="path65"
     style="stroke-width:1.00003;fill:#993842;fill-opacity:1"
     d="m 216.36646,23.24003 h 1.5571 l 1.7341,3.1419 c 0.37402,0.6921 0.71104,1.3205 1.01206,1.8852 h 0.043 c 0.11801,-0.2186 0.29202,-0.5419 0.51904,-0.9699 0.23701,-0.4371 0.40502,-0.7422 0.50503,-0.9153 l 1.7221,-3.1419 h 1.55709 l -3.64722,6.1609 v 4.2622 h -1.32508 v -4.2622 z m -9.09854,5.2183 c 0,-1.6028 0.41002,-2.9143 1.22907,-3.9342 0.82905,-1.02 1.94912,-1.53 3.3602,-1.53 0.49203,0 0.94706,0.0774 1.36709,0.2322 0.42802,0.1548 0.78304,0.3598 1.06506,0.6148 0.29202,0.2458 0.52403,0.4917 0.69704,0.7376 0.18201,0.2368 0.33202,0.4781 0.45103,0.724 l -1.13407,0.3825 c -0.64704,-1.0381 -1.46209,-1.5573 -2.44615,-1.5573 -1.02006,0 -1.81211,0.3962 -2.37714,1.1885 -0.56403,0.7923 -0.84705,1.8396 -0.84705,3.1419 0,1.3388 0.29202,2.3906 0.87505,3.1556 0.58204,0.765 1.34808,1.1475 2.29514,1.1475 0.84705,0 1.50209,-0.2641 1.96712,-0.7923 0.46403,-0.5373 0.70604,-1.1839 0.72404,-1.9398 0,-0.0819 0,-0.2322 0,-0.4508 0.008,-0.2277 0.012,-0.387 0.012,-0.4781 h -2.81417 v -1.1338 h 4.09825 v 5.6965 h -0.94206 l -0.109,-1.3661 c -0.56504,1.0746 -1.5581,1.6119 -2.97918,1.6119 -1.32008,0 -2.39915,-0.4872 -3.2372,-1.4617 -0.83805,-0.9835 -1.25707,-2.3132 -1.25707,-3.9889 z m -10.08261,0 c 0,-1.6392 0.39603,-2.9598 1.18907,-3.9616 0.80105,-1.0017 1.86612,-1.5026 3.1962,-1.5026 1.33808,0 2.39914,0.5009 3.18319,1.5026 0.79204,1.0018 1.18807,2.3269 1.18807,3.9753 0,1.6575 -0.40003,2.978 -1.20207,3.9616 -0.79205,0.9835 -1.84911,1.4753 -3.16919,1.4753 -1.33008,0 -2.39515,-0.4918 -3.1962,-1.4753 -0.79304,-0.9927 -1.18907,-2.3178 -1.18907,-3.9753 z m 1.36608,0 c 0,1.3205 0.26902,2.3679 0.80605,3.142 0.54604,0.7741 1.28408,1.1611 2.21314,1.1611 0.92005,0 1.64909,-0.3779 2.18613,-1.1338 0.54603,-0.765 0.81905,-1.8169 0.81905,-3.1556 0,-1.3205 -0.26402,-2.3724 -0.79205,-3.1556 -0.52803,-0.7923 -1.26608,-1.1885 -2.21313,-1.1885 -0.92906,0 -1.6671,0.3916 -2.21314,1.1748 -0.53703,0.7833 -0.80605,1.8351 -0.80605,3.1556 z m -8.08848,5.2048 v -10.4231 h 1.32608 v 9.2892 h 4.87629 v 1.1339 z m -10.76465,-5.2048 c 0,-1.6392 0.39703,-2.9598 1.18908,-3.9616 0.80104,-1.0017 1.86711,-1.5026 3.19619,-1.5026 1.33908,0 2.40014,0.5009 3.18319,1.5026 0.79205,1.0018 1.18907,2.3269 1.18907,3.9753 0,1.6575 -0.40102,2.978 -1.20307,3.9616 -0.79205,0.9835 -1.84811,1.4753 -3.16919,1.4753 -1.32908,0 -2.39515,-0.4918 -3.19619,-1.4753 -0.79205,-0.9927 -1.18908,-2.3178 -1.18908,-3.9753 z m 1.36609,0 c 0,1.3205 0.26901,2.3679 0.80604,3.142 0.54704,0.7741 1.28408,1.1611 2.21314,1.1611 0.92005,0 1.6491,-0.3779 2.18613,-1.1338 0.54603,-0.765 0.81905,-1.8169 0.81905,-3.1556 0,-1.3205 -0.26402,-2.3724 -0.79205,-3.1556 -0.52803,-0.7923 -1.26608,-1.1885 -2.21313,-1.1885 -0.92906,0 -1.6661,0.3916 -2.21314,1.1748 -0.53703,0.7833 -0.80604,1.8351 -0.80604,3.1556 z m -9.8906,5.2048 v -10.4231 h 3.97524 c 1.03806,0 1.85411,0.2823 2.44615,0.8469 0.60103,0.5647 0.90105,1.316 0.90105,2.254 0,0.9563 -0.30502,1.7122 -0.91505,2.2677 -0.61004,0.5555 -1.41609,0.8333 -2.41815,0.8333 h -2.66416 v 4.2212 z m 1.32508,-5.3414 h 2.47315 c 0.68304,0 1.21107,-0.1639 1.5841,-0.4918 0.38302,-0.3369 0.57403,-0.8333 0.57403,-1.489 0,-0.6374 -0.18701,-1.1247 -0.56003,-1.4617 -0.37403,-0.3369 -0.91506,-0.5054 -1.6261,-0.5054 h -2.44515 z m -12.09072,0.1366 c 0,-1.6392 0.39702,-2.9598 1.18907,-3.9616 0.80105,-1.0017 1.86711,-1.5026 3.19619,-1.5026 1.33908,0 2.40014,0.5009 3.18419,1.5026 0.79205,1.0018 1.18807,2.3269 1.18807,3.9753 0,1.6575 -0.40102,2.978 -1.20207,3.9616 -0.79205,0.9835 -1.84911,1.4753 -3.17019,1.4753 -1.32908,0 -2.39514,-0.4918 -3.19619,-1.4753 -0.79205,-0.9927 -1.18907,-2.3178 -1.18907,-3.9753 z m 1.36708,0 c 0,1.3205 0.26801,2.3679 0.80505,3.142 0.54703,0.7741 1.28407,1.1611 2.21313,1.1611 0.92005,0 1.6491,-0.3779 2.18613,-1.1338 0.54703,-0.765 0.82005,-1.8169 0.82005,-3.1556 0,-1.3205 -0.26402,-2.3724 -0.79205,-3.1556 -0.52903,-0.7923 -1.26707,-1.1885 -2.21413,-1.1885 -0.92906,0 -1.6661,0.3916 -2.21313,1.1748 -0.53704,0.7833 -0.80505,1.8351 -0.80505,3.1556 z m -8.78453,-0.3142 h 2.59516 c 0.66504,0 1.17507,-0.1684 1.53009,-0.5054 0.35502,-0.3461 0.53303,-0.8151 0.53303,-1.4071 0,-0.5555 -0.18701,-1.0017 -0.56003,-1.3387 -0.37403,-0.346 -0.90106,-0.5191 -1.5851,-0.5191 h -2.51315 z m -1.32608,5.519 v -10.4231 h 4.11325 c 1.03806,0 1.83511,0.2778 2.39014,0.8332 0.56404,0.5556 0.84705,1.2432 0.84705,2.0628 0,0.7286 -0.17801,1.3205 -0.53303,1.7759 -0.34602,0.4554 -0.73704,0.7468 -1.17507,0.8743 0.36502,0.2094 0.62804,0.4553 0.79205,0.7377 0.16501,0.2823 0.30102,0.6876 0.41002,1.2158 0.10101,0.428 0.17801,0.7604 0.23302,0.9972 0.064,0.2277 0.16301,0.5191 0.30001,0.8743 0.14601,0.346 0.32302,0.6967 0.53304,1.0519 h -1.48909 c -0.37403,-0.6649 -0.69704,-1.6075 -0.97006,-2.8278 -0.11801,-0.5009 -0.29102,-0.8834 -0.51903,-1.1475 -0.21902,-0.2732 -0.57404,-0.4098 -1.06507,-0.4098 h -2.54115 v 4.3851 z m -10.16361,0 v -10.4231 h 1.32508 v 4.508 h 4.80929 v -4.508 h 1.32508 v 10.4231 h -1.32508 v -4.8086 h -4.80929 v 4.8086 z m -9.03054,-9.2893 v -1.1338 h 7.55545 v 1.1338 h -3.11518 v 9.2893 h -1.32508 v -9.2893 z m -9.02954,9.2893 v -10.4231 h 1.46109 l 3.60721,6.3385 1.21608,2.1584 h 0.081 c -0.11801,-0.847 -0.17701,-1.8351 -0.17701,-2.9643 v -5.5326 h 1.32508 v 10.4231 h -1.46209 l -3.60621,-6.3249 -1.21608,-2.1585 h -0.056 c 0.1,0.9472 0.15001,1.9353 0.15001,2.9644 v 5.519 z m -7.76047,-3.9207 h 3.64722 l -1.10606,-3.2375 c -0.054,-0.164 -0.16401,-0.4873 -0.32802,-0.97 -0.15401,-0.4826 -0.26802,-0.8333 -0.34102,-1.0518 h -0.082 c -0.064,0.2003 -0.17801,0.5373 -0.34202,1.0109 -0.15501,0.4735 -0.26402,0.8105 -0.32702,1.0109 z m -2.80017,3.9207 3.85224,-10.4231 h 1.55709 l 3.83923,10.4231 h -1.43409 l -0.98406,-2.8552 h -4.39826 l -0.99706,2.8552 z m -10.61563,0 v -10.4231 h 6.6264 v 1.1338 h -5.30032 v 3.3469 h 4.78128 v 1.1065 h -4.78128 v 3.702 h 5.42332 v 1.1339 z m -12.321941,0 v -10.4231 h 1.680401 l 2.131227,5.3413 c 0.145809,0.3824 0.33282,0.9016 0.559834,1.5573 0.227014,0.6466 0.360022,1.0154 0.396024,1.1065 h 0.056 c 0.045,-0.1366 0.378023,-1.0245 0.99706,-2.6638 l 2.104126,-5.3413 h 1.708103 v 10.4231 h -1.32608 v -5.4917 c 0,-0.8742 0.05,-1.9306 0.151009,-3.1692 h -0.056 l -0.601036,1.6666 -2.445147,6.2839 h -1.079065 l -2.446146,-6.2839 -0.628038,-1.6802 h -0.0558 c 0.118307,1.4206 0.17721,2.4816 0.17721,3.1828 v 5.4917 z m -8.606717,0 v -10.4231 h 6.625998 v 1.1338 h -5.301218 v 3.3469 h 4.781587 v 1.1065 h -4.781587 v 3.702 h 5.423825 v 1.1339 z m -8.101386,-5.519 h 2.595756 c 0.66464,0 1.174971,-0.1684 1.529892,-0.5054 0.354921,-0.3461 0.532632,-0.8151 0.532632,-1.4071 0,-0.5555 -0.186411,-1.0017 -0.559934,-1.3387 -0.373422,-0.346 -0.901154,-0.5191 -1.584295,-0.5191 h -2.514051 z m -1.324779,5.519 v -10.4231 h 4.111947 c 1.038062,0 1.83521,0.2778 2.390743,0.8332 0.564234,0.5556 0.846751,1.2432 0.846751,2.0628 0,0.7286 -0.177811,1.3205 -0.532732,1.7759 -0.346221,0.4554 -0.737644,0.7468 -1.174871,0.8743 0.364122,0.2094 0.628038,0.4553 0.792148,0.7377 0.16411,0.2823 0.300418,0.6876 0.410024,1.2158 0.100306,0.428 0.177711,0.7604 0.232214,0.9972 0.0638,0.2277 0.16351,0.5191 0.300418,0.8743 0.145609,0.346 0.32332,0.6967 0.533332,1.0519 h -1.489589 c -0.373522,-0.6649 -0.696842,-1.6075 -0.969958,-2.8278 -0.118307,-0.5009 -0.291118,-0.8834 -0.519031,-1.1475 -0.218613,-0.2732 -0.573535,-0.4098 -1.065364,-0.4098 h -2.541253 v 4.3851 z m -9.030442,-9.2893 v -1.1338 h 7.554453 v 1.1338 h -3.114787 v 9.2893 h -1.324879 v -9.2893 z m -8.702422,9.2893 3.401804,-5.355 -3.224293,-5.0681 h 1.612096 l 1.448087,2.4316 c 0.0725,0.1183 0.16851,0.2868 0.286817,0.5054 0.127608,0.2186 0.241515,0.4189 0.341821,0.6011 0.109006,0.1821 0.213713,0.3597 0.314019,0.5327 h 0.0558 c 0.118307,-0.2186 0.291718,-0.5145 0.519031,-0.8879 0.227914,-0.3734 0.378423,-0.6238 0.450927,-0.7513 l 1.434386,-2.4316 h 1.625898 l -3.251695,5.0681 3.415805,5.355 h -1.584995 l -1.571295,-2.5546 c -0.245914,-0.4098 -0.591535,-0.9973 -1.038062,-1.7623 h -0.0558 c -0.382123,0.674 -0.724044,1.2614 -1.024362,1.7623 l -1.557793,2.5546 z m -7.240634,0 v -10.4231 h 6.625797 v 1.1338 h -5.300618 v 3.3469 h 4.781487 v 1.1065 h -4.781487 v 3.702 h 5.423525 v 1.1339 z m 81.101861,-27.9469 -0.19901,1.045 h -1.20207 c -0.45503,0 -0.78805,0.0911 -0.99706,0.2732 -0.20501,0.1776 -0.35802,0.5054 -0.45803,0.9836 l -0.13601,0.6762 h 2.06913 l -0.18401,0.9767 h -2.07013 l -1.29807,6.6732 h -1.26308 l 1.30408,-6.6732 h -1.20207 l 0.17801,-0.9767 h 1.20207 l 0.10201,-0.5328 c 0.17301,-0.9016 0.47602,-1.5345 0.90905,-1.8988 0.43703,-0.3643 1.12307,-0.5464 2.05612,-0.5464 z m -11.6877,10.826 c -0.89805,0 -1.60809,-0.2755 -2.13112,-0.8265 -0.51904,-0.5555 -0.77905,-1.3114 -0.77905,-2.2677 0,-0.5554 0.089,-1.1201 0.26601,-1.6938 0.18202,-0.5783 0.41703,-1.0633 0.70405,-1.4549 0.45102,-0.6102 0.95405,-1.061 1.50909,-1.3524 0.55603,-0.2914 1.18407,-0.4371 1.88611,-0.4371 0.87005,0 1.57109,0.2709 2.10313,0.8127 0.53703,0.5419 0.80604,1.25 0.80604,2.1243 0,0.6056 -0.088,1.2089 -0.26601,1.81 -0.17801,0.601 -0.41003,1.0997 -0.69704,1.4959 -0.44603,0.6101 -0.94706,1.0609 -1.50209,1.3523 -0.55604,0.2914 -1.18907,0.4372 -1.89912,0.4372 z m -1.60609,-3.1351 c 0,0.6921 0.14401,1.2112 0.43102,1.5573 0.29202,0.3415 0.73105,0.5123 1.31808,0.5123 0.84305,0 1.53909,-0.3666 2.09013,-1.0997 0.55603,-0.7377 0.83405,-1.6712 0.83405,-2.8005 0,-0.6602 -0.14801,-1.1588 -0.44403,-1.4958 -0.29602,-0.337 -0.73104,-0.5054 -1.30508,-0.5054 -0.47403,0 -0.89505,0.1115 -1.26407,0.3347 -0.36803,0.2185 -0.69805,0.5532 -0.99006,1.004 -0.21402,0.337 -0.38003,0.7217 -0.49903,1.1543 -0.11401,0.4327 -0.17101,0.8789 -0.17101,1.3388 z m -11.6867,2.937 V 5.92103 h 1.32508 v 9.2893 h 4.87729 v 1.1338 z m -7.75947,-3.9206 h 3.647219 l -1.106066,-3.2376 c -0.055,-0.1639 -0.16401,-0.4872 -0.32902,-0.9699 -0.154009,-0.4827 -0.268016,-0.8333 -0.341021,-1.0518 h -0.08201 c -0.063,0.2003 -0.17701,0.5372 -0.34102,1.0108 -0.155009,0.4736 -0.264016,0.8106 -0.32802,1.0109 z m -2.801168,3.9206 3.853231,-10.4231 h 1.557094 l 3.838233,10.4231 h -1.43409 l -0.983058,-2.8551 h -4.399264 l -0.99806,2.8551 z m -8.811229,0 V 5.92103 h 1.461788 l 3.606516,6.3385 1.215873,2.1585 h 0.0818 c -0.118307,-0.847 -0.17721,-1.8351 -0.17721,-2.9644 v -5.5326 h 1.324879 v 10.4231 h -1.461788 l -3.606516,-6.3249 -1.215873,-2.1584 h -0.0557 c 0.09971,0.9472 0.149909,1.9353 0.149909,2.9644 v 5.5189 z m -8.101286,-5.5189 h 2.595756 c 0.66454,0 1.174971,-0.1685 1.529792,-0.5055 0.354921,-0.346 0.532732,-0.815 0.532732,-1.407 0,-0.5555 -0.186411,-1.0017 -0.559934,-1.3387 -0.373522,-0.3461 -0.901854,-0.5192 -1.584995,-0.5192 h -2.513351 z m -1.325479,5.5189 V 5.92103 h 4.111946 c 1.038763,0 1.835211,0.2778 2.390844,0.8333 0.564834,0.5555 0.847251,1.2431 0.847251,2.0628 0,0.7285 -0.177711,1.3205 -0.532632,1.7759 -0.346221,0.4553 -0.737644,0.7467 -1.174971,0.8742 0.364222,0.2095 0.628038,0.4554 0.792148,0.7377 0.16421,0.2824 0.300418,0.6876 0.410024,1.2158 0.100406,0.428 0.177811,0.7605 0.232314,0.9973 0.0638,0.2276 0.16351,0.519 0.300418,0.8742 0.145509,0.3461 0.32332,0.6967 0.532632,1.0519 h -1.488989 c -0.373422,-0.6649 -0.696742,-1.6074 -0.969958,-2.8278 -0.118207,-0.5008 -0.291718,-0.8833 -0.519031,-1.1475 -0.218613,-0.2731 -0.573535,-0.4098 -1.065864,-0.4098 h -2.540653 v 4.3851 z m -10.150209,-3.8113 v -6.6118 h 1.33908 v 6.5845 c 0,0.9926 0.218613,1.7303 0.655239,2.213 0.446627,0.4826 1.029462,0.724 1.749105,0.724 0.737645,0 1.32488,-0.2505 1.762106,-0.7513 0.437326,-0.5009 0.655939,-1.2295 0.655939,-2.1857 v -6.5845 h 1.338481 v 6.6118 c 0,1.284 -0.32332,2.2813 -0.969958,2.9917 -0.637339,0.7103 -1.566394,1.0655 -2.786568,1.0655 -1.184171,0 -2.104026,-0.3461 -2.759865,-1.0382 -0.65594,-0.7013 -0.983559,-1.7076 -0.983559,-3.019 z m -10.724344,-1.3934 c 0,-1.6393 0.396224,-2.9598 1.188572,-3.9616 0.801348,-1.0018 1.866712,-1.5026 3.196491,-1.5026 1.339081,0 2.400044,0.5008 3.183591,1.5026 0.792148,1.0018 1.188572,2.3269 1.188572,3.9752 0,1.6576 -0.400724,2.9781 -1.202272,3.9617 -0.792148,0.9835 -1.848811,1.4753 -3.169891,1.4753 -1.329779,0 -2.395143,-0.4918 -3.196491,-1.4753 -0.792348,-0.9927 -1.188572,-2.3178 -1.188572,-3.9753 z m 1.366182,0 c 0,1.3205 0.268716,2.3678 0.805949,3.1419 0.546833,0.7742 1.284477,1.1612 2.212932,1.1612 0.919756,0 1.648799,-0.3779 2.186332,-1.1338 0.546332,-0.765 0.819449,-1.8169 0.819449,-3.1557 0,-1.3204 -0.263816,-2.3723 -0.792148,-3.1555 -0.528331,-0.7923 -1.266576,-1.1885 -2.213633,-1.1885 -0.928455,0 -1.666099,0.3916 -2.212932,1.1748 -0.537233,0.7832 -0.805949,1.8351 -0.805949,3.1556 z m -9.016641,3.4424 1.147569,-0.4507 c 0.118507,0.3916 0.318819,0.7103 0.601136,0.9562 0.282417,0.2368 0.614837,0.3552 0.99736,0.3552 1.029062,0 1.543693,-0.7286 1.543693,-2.1857 v -7.3358 h 1.33878 v 7.527 c 0,1.02 -0.245815,1.7987 -0.737744,2.336 -0.49173,0.5373 -1.197572,0.806 -2.117427,0.806 -0.746845,0 -1.352581,-0.1867 -1.817009,-0.5601 -0.455328,-0.3825 -0.774147,-0.8652 -0.956358,-1.4481 z" />
</svg>
