<svg width="225" height="39" xmlns="http://www.w3.org/2000/svg" xmlns:xlink="http://www.w3.org/1999/xlink" overflow="hidden"><defs><clipPath id="clip0"><rect x="0" y="0" width="225" height="39"/></clipPath></defs><g clip-path="url(#clip0)"><path d="M-0.0157556 6.19335e-05 38.9841 6.19335e-05 38.9841 38.9999-0.0157559 38.9999Z" fill="#C0545F" fill-opacity="0.949749" transform="matrix(1.00006 0 0 1 0.000534011 0)"/><path d="M28.0499 28.2625 4.92641 28.2625 4.92641 17.3941 16.9819 17.3941 16.9819 15.5805 4.92641 15.5805 4.92641 4.71207 29.4513 4.71207 29.4513 2.89847 3.1128 2.89847 3.1128 30.0761 29.8635 30.0761 29.8635 13.5608 28.0499 13.5608Z" fill="#FFFFFF" transform="matrix(1.00006 0 0 1 2.99677 3.0125)"/><path d="M51.9398 20.7751 53.0873 20.3244C53.2058 20.716 53.4061 21.0347 53.6884 21.2806 53.9708 21.5174 54.3032 21.6358 54.6857 21.6358 55.7147 21.6358 56.2293 20.9072 56.2293 19.4501L56.2293 12.1143 57.568 12.1143 57.568 19.6413C57.568 20.6613 57.3222 21.44 56.8303 21.9773 56.3386 22.5146 55.6328 22.7833 54.713 22.7833 53.9662 22.7833 53.3605 22.5966 52.8961 22.2232 52.4408 21.8407 52.122 21.358 51.9398 20.7751Z" fill="#C0545F" transform="matrix(1.00006 0 0 1 -6.20889 -6.19327)"/><path d="M59.5898 17.3327C59.5898 15.6934 59.986 14.3729 60.7783 13.3711 61.5796 12.3693 62.6449 11.8685 63.9746 11.8685 65.3136 11.8685 66.3745 12.3693 67.158 13.3711 67.9501 14.3729 68.3465 15.698 68.3465 17.3463 68.3465 19.0039 67.9458 20.3244 67.1443 21.308 66.3522 22.2915 65.2956 22.7833 63.9746 22.7833 62.6449 22.7833 61.5796 22.2915 60.7783 21.308 59.986 20.3153 59.5898 18.9902 59.5898 17.3327ZM60.9559 17.3327C60.9559 18.6532 61.2246 19.7005 61.7618 20.4746 62.3086 21.2488 63.0462 21.6358 63.9746 21.6358 64.8943 21.6358 65.6233 21.2579 66.1608 20.502 66.7071 19.737 66.9802 18.6851 66.9802 17.3463 66.9802 16.0259 66.7164 14.974 66.1881 14.1908 65.6598 13.3985 64.9216 13.0023 63.9746 13.0023 63.0462 13.0023 62.3086 13.3939 61.7618 14.1771 61.2246 14.9603 60.9559 16.0122 60.9559 17.3327Z" fill="#C0545F" transform="matrix(1.00006 0 0 1 -6.20889 -6.19327)"/><path d="M70.3135 18.7261 70.3135 12.1143 71.6525 12.1143 71.6525 18.6988C71.6525 19.6914 71.8711 20.4291 72.3077 20.9118 72.7543 21.3944 73.3371 21.6358 74.0567 21.6358 74.7943 21.6358 75.3815 21.3853 75.8187 20.8845 76.256 20.3836 76.4746 19.655 76.4746 18.6988L76.4746 12.1143 77.813 12.1143 77.813 18.7261C77.813 20.0101 77.4897 21.0074 76.8431 21.7178 76.2058 22.4281 75.2768 22.7833 74.0567 22.7833 72.8726 22.7833 71.9528 22.4372 71.297 21.7451 70.6411 21.0438 70.3135 20.0375 70.3135 18.7261Z" fill="#C0545F" transform="matrix(1.00006 0 0 1 -6.20889 -6.19327)"/><path d="M81.7885 17.0185 84.3841 17.0185C85.0486 17.0185 85.559 16.85 85.9138 16.513 86.2687 16.167 86.4465 15.698 86.4465 15.106 86.4465 14.5505 86.2601 14.1043 85.8866 13.7673 85.5131 13.4212 84.9848 13.2481 84.3017 13.2481L81.7885 13.2481ZM80.4631 22.5374 80.4631 12.1143 84.5748 12.1143C85.6135 12.1143 86.4099 12.3921 86.9655 12.9476 87.5303 13.5031 87.8127 14.1907 87.8127 15.0104 87.8127 15.7389 87.635 16.3309 87.2801 16.7863 86.9339 17.2416 86.5425 17.533 86.1052 17.6605 86.4694 17.87 86.7332 18.1159 86.8973 18.3982 87.0615 18.6806 87.1977 19.0858 87.3073 19.614 87.4077 20.042 87.4851 20.3745 87.5396 20.6113 87.6034 20.8389 87.7031 21.1303 87.84 21.4855 87.9855 21.8316 88.1633 22.1822 88.3726 22.5374L86.8837 22.5374C86.5103 21.8725 86.187 20.93 85.9138 19.7096 85.7956 19.2088 85.6221 18.8263 85.3948 18.5621 85.1762 18.289 84.8213 18.1523 84.329 18.1523L81.7885 18.1523 81.7885 22.5374Z" fill="#C0545F" transform="matrix(1.00006 0 0 1 -6.20889 -6.19327)"/><path d="M89.8893 22.5374 89.8893 12.1143 91.351 12.1143 94.9573 18.4528 96.1731 20.6113 96.2549 20.6113C96.1366 19.7643 96.0777 18.7762 96.0777 17.6469L96.0777 12.1143 97.4025 12.1143 97.4025 22.5374 95.9408 22.5374 92.3345 16.2125 91.1187 14.0541 91.063 14.0541C91.1627 15.0013 91.2129 15.9894 91.2129 17.0185L91.2129 22.5374Z" fill="#C0545F" transform="matrix(1.00006 0 0 1 -6.20889 -6.19327)"/><path d="M101.501 18.6168 105.148 18.6168 104.042 15.3792C103.987 15.2153 103.878 14.892 103.713 14.4093 103.559 13.9266 103.445 13.576 103.372 13.3575L103.29 13.3575C103.227 13.5578 103.113 13.8947 102.949 14.3683 102.794 14.8419 102.685 15.1789 102.621 15.3792ZM98.7 22.5374 102.553 12.1143 104.11 12.1143 107.948 22.5374 106.514 22.5374 105.531 19.6823 101.132 19.6823 100.134 22.5374Z" fill="#C0545F" transform="matrix(1.00006 0 0 1 -6.20889 -6.19327)"/><path d="M109.26 22.5374 109.26 12.1143 110.585 12.1143 110.585 21.4036 115.462 21.4036 115.462 22.5374Z" fill="#C0545F" transform="matrix(1.00006 0 0 1 -6.20889 -6.19327)"/><path d="M122.552 22.7355C121.654 22.7355 120.944 22.46 120.421 21.909 119.902 21.3535 119.642 20.5976 119.642 19.6413 119.642 19.0859 119.731 18.5212 119.908 17.9475 120.09 17.3692 120.325 16.8842 120.612 16.4926 121.063 15.8824 121.566 15.4316 122.121 15.1402 122.677 14.8488 123.305 14.7031 124.007 14.7031 124.877 14.7031 125.578 14.974 126.11 15.5158 126.647 16.0577 126.916 16.7658 126.916 17.6401 126.916 18.2457 126.828 18.849 126.65 19.4501 126.472 20.0511 126.24 20.5498 125.953 20.946 125.507 21.5561 125.006 22.0069 124.451 22.2983 123.895 22.5897 123.262 22.7355 122.552 22.7355ZM120.946 19.6004C120.946 20.2925 121.09 20.8116 121.377 21.1577 121.669 21.4992 122.108 21.67 122.695 21.67 123.538 21.67 124.234 21.3034 124.785 20.5703 125.341 19.8326 125.619 18.8991 125.619 17.7698 125.619 17.1096 125.471 16.611 125.175 16.274 124.879 15.937 124.444 15.7686 123.87 15.7686 123.396 15.7686 122.975 15.8801 122.606 16.1033 122.238 16.3218 121.908 16.6565 121.616 17.1073 121.402 17.4443 121.236 17.829 121.117 18.2616 121.003 18.6943 120.946 19.1405 120.946 19.6004Z" fill="#C0545F" transform="matrix(1.00006 0 0 1 -6.20889 -6.19327)"/><path d="M134.239 11.9095 134.04 12.9545 132.838 12.9545C132.383 12.9545 132.05 13.0456 131.841 13.2277 131.636 13.4053 131.483 13.7331 131.383 14.2113L131.247 14.8875 133.316 14.8875 133.132 15.8642 131.062 15.8642 129.764 22.5374 128.501 22.5374 129.805 15.8642 128.603 15.8642 128.781 14.8875 129.983 14.8875 130.085 14.3547C130.258 13.4531 130.561 12.8202 130.994 12.4559 131.431 12.0916 132.117 11.9095 133.05 11.9095Z" fill="#C0545F" transform="matrix(1.00006 0 0 1 -6.20889 -6.19327)"/><path d="M53.142 39.8564 53.142 29.4333 59.7674 29.4333 59.7674 30.5671 54.4671 30.5671 54.4671 33.914 59.2483 33.914 59.2483 35.0205 54.4671 35.0205 54.4671 38.7225 59.8903 38.7225 59.8903 39.8564Z" fill="#C0545F" transform="matrix(1.00006 0 0 1 -6.20889 -6.19327)"/><path d="M60.3822 39.8564 63.7838 34.5014 60.5597 29.4333 62.1717 29.4333 63.6197 31.8649C63.6922 31.9832 63.7882 32.1517 63.9065 32.3703 64.0341 32.5889 64.148 32.7892 64.2483 32.9714 64.3573 33.1535 64.462 33.3311 64.5623 33.5041L64.6181 33.5041C64.7364 33.2855 64.9098 32.9896 65.1371 32.6162 65.365 32.2428 65.5155 31.9924 65.588 31.8649L67.0223 29.4333 68.6481 29.4333 65.3966 34.5014 68.8122 39.8564 67.2273 39.8564 65.6561 37.3018C65.4102 36.892 65.0646 36.3045 64.6181 35.5395L64.5623 35.5395C64.1802 36.2135 63.8383 36.8009 63.538 37.3018L61.9803 39.8564Z" fill="#C0545F" transform="matrix(1.00006 0 0 1 -6.20889 -6.19327)"/><path d="M69.0841 30.5671 69.0841 29.4333 76.6381 29.4333 76.6381 30.5671 73.5235 30.5671 73.5235 39.8564 72.1987 39.8564 72.1987 30.5671Z" fill="#C0545F" transform="matrix(1.00006 0 0 1 -6.20889 -6.19327)"/><path d="M79.4387 34.3374 82.0343 34.3374C82.6989 34.3374 83.2092 34.169 83.5641 33.832 83.919 33.4859 84.0967 33.0169 84.0967 32.4249 84.0967 31.8694 83.9103 31.4232 83.5368 31.0862 83.1634 30.7402 82.6357 30.5671 81.9526 30.5671L79.4387 30.5671ZM78.114 39.8564 78.114 29.4333 82.2257 29.4333C83.2637 29.4333 84.0608 29.7111 84.6163 30.2665 85.1805 30.8221 85.463 31.5097 85.463 32.3293 85.463 33.0579 85.2852 33.6498 84.9303 34.1052 84.5841 34.5606 84.1927 34.852 83.7555 34.9795 84.1196 35.1889 84.3835 35.4348 84.5476 35.7172 84.7117 35.9995 84.848 36.4048 84.9576 36.933 85.0579 37.361 85.1353 37.6934 85.1898 37.9302 85.2536 38.1579 85.3533 38.4493 85.4902 38.8045 85.6358 39.1505 85.8135 39.5012 86.0235 39.8564L84.534 39.8564C84.1605 39.1915 83.8372 38.2489 83.5641 37.0286 83.4458 36.5277 83.273 36.1452 83.0451 35.8811 82.8265 35.6079 82.4716 35.4713 81.9798 35.4713L79.4387 35.4713 79.4387 39.8564Z" fill="#C0545F" transform="matrix(1.00006 0 0 1 -6.20889 -6.19327)"/><path d="M87.5396 39.8564 87.5396 29.4333 94.1652 29.4333 94.1652 30.5671 88.8643 30.5671 88.8643 33.914 93.6456 33.914 93.6456 35.0205 88.8643 35.0205 88.8643 38.7225 94.2878 38.7225 94.2878 39.8564Z" fill="#C0545F" transform="matrix(1.00006 0 0 1 -6.20889 -6.19327)"/><path d="M96.1458 39.8564 96.1458 29.4333 97.8261 29.4333 99.9572 34.7746C100.103 35.157 100.29 35.6762 100.517 36.3319 100.744 36.9785 100.877 37.3473 100.913 37.4384L100.969 37.4384C101.014 37.3018 101.347 36.4139 101.966 34.7746L104.07 29.4333 105.778 29.4333 105.778 39.8564 104.452 39.8564 104.452 34.3647C104.452 33.4905 104.502 32.4341 104.603 31.1955L104.547 31.1955 103.946 32.8621 101.501 39.146 100.422 39.146 97.976 32.8621 97.348 31.1819 97.2922 31.1819C97.4105 32.6025 97.4694 33.6635 97.4694 34.3647L97.4694 39.8564Z" fill="#C0545F" transform="matrix(1.00006 0 0 1 -6.20889 -6.19327)"/><path d="M108.467 39.8564 108.467 29.4333 115.093 29.4333 115.093 30.5671 109.793 30.5671 109.793 33.914 114.574 33.914 114.574 35.0205 109.793 35.0205 109.793 38.7225 115.216 38.7225 115.216 39.8564Z" fill="#C0545F" transform="matrix(1.00006 0 0 1 -6.20889 -6.19327)"/><path d="M121.882 35.9357 125.529 35.9357 124.423 32.6982C124.369 32.5342 124.259 32.2109 124.095 31.7282 123.941 31.2456 123.827 30.8949 123.754 30.6764L123.672 30.6764C123.608 30.8767 123.494 31.2137 123.33 31.6873 123.175 32.1608 123.066 32.4978 123.003 32.6982ZM119.082 39.8564 122.934 29.4333 124.491 29.4333 128.33 39.8564 126.896 39.8564 125.912 37.0012 121.514 37.0012 120.517 39.8564Z" fill="#C0545F" transform="matrix(1.00006 0 0 1 -6.20889 -6.19327)"/><path d="M129.642 39.8564 129.642 29.4333 131.103 29.4333 134.71 35.7718 135.926 37.9302 136.007 37.9302C135.889 37.0832 135.83 36.0951 135.83 34.9659L135.83 29.4333 137.155 29.4333 137.155 39.8564 135.693 39.8564 132.087 33.5315 130.871 31.373 130.815 31.373C130.915 32.3202 130.965 33.3083 130.965 34.3374L130.965 39.8564Z" fill="#C0545F" transform="matrix(1.00006 0 0 1 -6.20889 -6.19327)"/><path d="M138.671 30.5671 138.671 29.4333 146.226 29.4333 146.226 30.5671 143.111 30.5671 143.111 39.8564 141.786 39.8564 141.786 30.5671Z" fill="#C0545F" transform="matrix(1.00006 0 0 1 -6.20889 -6.19327)"/><path d="M147.701 39.8564 147.701 29.4333 149.026 29.4333 149.026 33.9413 153.835 33.9413 153.835 29.4333 155.16 29.4333 155.16 39.8564 153.835 39.8564 153.835 35.0478 149.026 35.0478 149.026 39.8564Z" fill="#C0545F" transform="matrix(1.00006 0 0 1 -6.20889 -6.19327)"/><path d="M159.19 34.3374 161.785 34.3374C162.45 34.3374 162.96 34.169 163.315 33.832 163.67 33.4859 163.848 33.0169 163.848 32.4249 163.848 31.8694 163.661 31.4232 163.288 31.0862 162.914 30.7402 162.387 30.5671 161.703 30.5671L159.19 30.5671ZM157.864 39.8564 157.864 29.4333 161.977 29.4333C163.015 29.4333 163.812 29.7111 164.367 30.2665 164.931 30.8221 165.214 31.5097 165.214 32.3293 165.214 33.0579 165.036 33.6498 164.681 34.1052 164.335 34.5606 163.944 34.852 163.506 34.9795 163.871 35.1889 164.134 35.4348 164.298 35.7172 164.463 35.9995 164.599 36.4048 164.708 36.933 164.809 37.361 164.886 37.6934 164.941 37.9302 165.005 38.1579 165.104 38.4493 165.241 38.8045 165.387 39.1505 165.564 39.5012 165.774 39.8564L164.285 39.8564C163.911 39.1915 163.588 38.2489 163.315 37.0286 163.197 36.5277 163.024 36.1452 162.796 35.8811 162.577 35.6079 162.222 35.4713 161.731 35.4713L159.19 35.4713 159.19 39.8564Z" fill="#C0545F" transform="matrix(1.00006 0 0 1 -6.20889 -6.19327)"/><path d="M166.607 34.6516C166.607 33.0124 167.004 31.6918 167.796 30.69 168.597 29.6883 169.663 29.1874 170.992 29.1874 172.331 29.1874 173.392 29.6883 174.176 30.69 174.968 31.6918 175.364 33.0169 175.364 34.6653 175.364 36.3228 174.963 37.6433 174.162 38.6269 173.37 39.6104 172.313 40.1022 170.992 40.1022 169.663 40.1022 168.597 39.6104 167.796 38.6269 167.004 37.6342 166.607 36.3091 166.607 34.6516ZM167.974 34.6516C167.974 35.9721 168.242 37.0195 168.779 37.7936 169.326 38.5677 170.063 38.9547 170.992 38.9547 171.912 38.9547 172.641 38.5768 173.178 37.8209 173.725 37.0559 173.998 36.004 173.998 34.6653 173.998 33.3448 173.734 32.2929 173.206 31.5097 172.677 30.7174 171.939 30.3212 170.992 30.3212 170.063 30.3212 169.326 30.7128 168.779 31.496 168.242 32.2793 167.974 33.3311 167.974 34.6516Z" fill="#C0545F" transform="matrix(1.00006 0 0 1 -6.20889 -6.19327)"/><path d="M177.372 39.8564 177.372 29.4333 181.347 29.4333C182.385 29.4333 183.201 29.7156 183.793 30.2802 184.394 30.8449 184.694 31.5962 184.694 32.5342 184.694 33.4905 184.389 34.2464 183.779 34.8019 183.169 35.3574 182.363 35.6352 181.361 35.6352L178.697 35.6352 178.697 39.8564ZM178.697 34.515 181.17 34.515C181.853 34.515 182.381 34.3511 182.754 34.0232 183.137 33.6863 183.328 33.1899 183.328 32.5342 183.328 31.8968 183.141 31.4095 182.768 31.0725 182.394 30.7356 181.853 30.5671 181.142 30.5671L178.697 30.5671Z" fill="#C0545F" transform="matrix(1.00006 0 0 1 -6.20889 -6.19327)"/><path d="M185.896 34.6516C185.896 33.0124 186.293 31.6918 187.085 30.69 187.886 29.6883 188.952 29.1874 190.281 29.1874 191.62 29.1874 192.681 29.6883 193.464 30.69 194.256 31.6918 194.653 33.0169 194.653 34.6653 194.653 36.3228 194.252 37.6433 193.45 38.6269 192.658 39.6104 191.602 40.1022 190.281 40.1022 188.952 40.1022 187.886 39.6104 187.085 38.6269 186.293 37.6342 185.896 36.3091 185.896 34.6516ZM187.262 34.6516C187.262 35.9721 187.531 37.0195 188.068 37.7936 188.615 38.5677 189.352 38.9547 190.281 38.9547 191.201 38.9547 191.93 38.5768 192.467 37.8209 193.013 37.0559 193.286 36.004 193.286 34.6653 193.286 33.3448 193.022 32.2929 192.494 31.5097 191.966 30.7174 191.228 30.3212 190.281 30.3212 189.352 30.3212 188.615 30.7128 188.068 31.496 187.531 32.2793 187.262 33.3311 187.262 34.6516Z" fill="#C0545F" transform="matrix(1.00006 0 0 1 -6.20889 -6.19327)"/><path d="M196.66 39.8564 196.66 29.4333 197.986 29.4333 197.986 38.7225 202.862 38.7225 202.862 39.8564Z" fill="#C0545F" transform="matrix(1.00006 0 0 1 -6.20889 -6.19327)"/><path d="M203.382 34.6516C203.382 33.0124 203.778 31.6918 204.571 30.69 205.372 29.6883 206.437 29.1874 207.767 29.1874 209.105 29.1874 210.166 29.6883 210.95 30.69 211.742 31.6918 212.138 33.0169 212.138 34.6653 212.138 36.3228 211.738 37.6433 210.936 38.6269 210.144 39.6104 209.087 40.1022 207.767 40.1022 206.437 40.1022 205.372 39.6104 204.571 38.6269 203.778 37.6342 203.382 36.3091 203.382 34.6516ZM204.748 34.6516C204.748 35.9721 205.017 37.0195 205.554 37.7936 206.1 38.5677 206.838 38.9547 207.767 38.9547 208.687 38.9547 209.416 38.5768 209.953 37.8209 210.499 37.0559 210.772 36.004 210.772 34.6653 210.772 33.3448 210.508 32.2929 209.98 31.5097 209.452 30.7174 208.714 30.3212 207.767 30.3212 206.838 30.3212 206.1 30.7128 205.554 31.496 205.017 32.2793 204.748 33.3311 204.748 34.6516Z" fill="#C0545F" transform="matrix(1.00006 0 0 1 -6.20889 -6.19327)"/><path d="M213.464 34.6516C213.464 33.0488 213.874 31.7373 214.693 30.7174 215.522 29.6974 216.642 29.1874 218.053 29.1874 218.545 29.1874 219 29.2648 219.42 29.4196 219.848 29.5744 220.203 29.7794 220.485 30.0344 220.777 30.2802 221.009 30.5261 221.182 30.772 221.364 31.0088 221.514 31.2501 221.633 31.496L220.499 31.8785C219.852 30.8404 219.037 30.3212 218.053 30.3212 217.033 30.3212 216.241 30.7174 215.676 31.5097 215.112 32.302 214.829 33.3493 214.829 34.6516 214.829 35.9904 215.121 37.0422 215.704 37.8072 216.286 38.5722 217.052 38.9547 217.999 38.9547 218.846 38.9547 219.501 38.6906 219.966 38.1624 220.43 37.6251 220.672 36.9785 220.69 36.2226 220.69 36.1407 220.69 35.9904 220.69 35.7718 220.698 35.5441 220.702 35.3848 220.702 35.2937L217.888 35.2937 217.888 34.1599 221.986 34.1599 221.986 39.8564 221.044 39.8564 220.935 38.4903C220.37 39.5649 219.377 40.1022 217.956 40.1022 216.636 40.1022 215.557 39.615 214.719 38.6405 213.881 37.657 213.462 36.3273 213.462 34.6516Z" fill="#C0545F" transform="matrix(1.00006 0 0 1 -6.20889 -6.19327)"/><path d="M222.562 29.4333 224.119 29.4333 225.853 32.5752C226.227 33.2673 226.564 33.8957 226.865 34.4604L226.908 34.4604C227.026 34.2418 227.2 33.9185 227.427 33.4905 227.664 33.0534 227.832 32.7483 227.932 32.5752L229.654 29.4333 231.211 29.4333 227.564 35.5942 227.564 39.8564 226.239 39.8564 226.239 35.5942Z" fill="#C0545F" transform="matrix(1.00006 0 0 1 -6.20889 -6.19327)"/></g></svg>