<?xml version="1.0" encoding="UTF-8" standalone="no"?>
<svg
   height="50"
   width="100"
   version="1.1"
   viewBox="0 0 100 50"
   data-name="Layer 1"
   id="Layer_1"
   sodipodi:docname="nat-thumb-source.svg"
   inkscape:version="1.1 (c4e8f9e, 2021-05-24)"
   xmlns:inkscape="http://www.inkscape.org/namespaces/inkscape"
   xmlns:sodipodi="http://sodipodi.sourceforge.net/DTD/sodipodi-0.dtd"
   xmlns="http://www.w3.org/2000/svg"
   xmlns:svg="http://www.w3.org/2000/svg"
   xmlns:rdf="http://www.w3.org/1999/02/22-rdf-syntax-ns#"
   xmlns:cc="http://creativecommons.org/ns#"
   xmlns:dc="http://purl.org/dc/elements/1.1/">
  <sodipodi:namedview
     id="namedview109807"
     pagecolor="#ffffff"
     bordercolor="#666666"
     borderopacity="1.0"
     inkscape:pageshadow="2"
     inkscape:pageopacity="0.0"
     inkscape:pagecheckerboard="0"
     showgrid="false"
     inkscape:zoom="3.82"
     inkscape:cx="49.34555"
     inkscape:cy="69.240838"
     inkscape:window-width="1920"
     inkscape:window-height="1176"
     inkscape:window-x="1920"
     inkscape:window-y="0"
     inkscape:window-maximized="1"
     inkscape:current-layer="Layer_1"
     inkscape:snap-text-baseline="true"
     showguides="false" />
  <metadata
     id="metadata197">
    <rdf:RDF>
      <cc:Work
         rdf:about="">
        <dc:format>image/svg+xml</dc:format>
        <dc:type
           rdf:resource="http://purl.org/dc/dcmitype/StillImage" />
        <dc:title>Nordic Journal of Art and Research</dc:title>
      </cc:Work>
    </rdf:RDF>
  </metadata>
  <defs
     id="defs195" />
  <title
     id="title130">Nordic Journal of Art and Research</title>
  <rect
     style="fill:#ffffff;fill-opacity:1;stroke:none;stroke-width:4;stroke-linecap:round;stroke-linejoin:round;paint-order:stroke fill markers;stop-color:#000000"
     id="rect2744"
     width="100"
     height="50"
     x="0"
     y="0"
     rx="0" />
  <rect
     style="fill:#ffffff;fill-opacity:1;stroke:none;stroke-width:4;stroke-linecap:round;stroke-linejoin:round;paint-order:stroke fill markers;stop-color:#000000;font-variation-settings:normal;opacity:1;vector-effect:none;stroke-miterlimit:4;stroke-dasharray:none;stroke-dashoffset:0;stroke-opacity:1;-inkscape-stroke:none;stop-opacity:1"
     id="rect81709"
     width="90"
     height="40"
     x="5"
     y="5"
     rx="0" />
  <text
     xml:space="preserve"
     style="font-style:normal;font-variant:normal;font-weight:bold;font-stretch:normal;font-size:24.8417px;line-height:0.76;font-family:Arial;-inkscape-font-specification:'Arial, Bold';font-variant-ligatures:normal;font-variant-caps:normal;font-variant-numeric:normal;font-variant-east-asian:normal;letter-spacing:0px;word-spacing:0px;fill:#000000;stroke-width:1"
     x="46.40535"
     y="43.497204"
     id="text1529"><tspan
       x="46.40535"
       y="43.497204"
       id="tspan1531"
       style="font-style:normal;font-variant:normal;font-weight:bold;font-stretch:normal;font-size:24.8417px;font-family:Arial;-inkscape-font-specification:'Arial, Bold';font-variant-ligatures:normal;font-variant-caps:normal;font-variant-numeric:normal;font-variant-east-asian:normal;fill:#000000;stroke-width:1">NAT</tspan></text>
  <g
     id="g1269"
     transform="matrix(0.99108506,0,0,0.99108506,-34.909196,-38.766658)"
     style="fill:#000000;stroke-width:3.81354">
    <path
       style="fill:#000000;fill-opacity:0.504586;stroke-width:3.81354"
       d="m 69.002893,60.392742 c -0.900105,-0.07967 -1.273779,-0.181358 -1.521482,-0.414063 -0.313253,-0.294285 -1.566357,-0.424633 -4.087684,-0.425199 -2.131358,-5.08e-4 -2.229658,-0.0077 -2.397039,-0.175038 -0.241787,-0.241787 -0.178727,-0.43266 0.204818,-0.619955 0.278415,-0.135957 0.635547,-0.169838 2.420143,-0.229597 1.151443,-0.03856 2.18992,-0.10675 2.307728,-0.151542 0.760141,-0.289004 1.326891,-1.910645 1.085458,-3.105819 -0.200793,-0.993989 -0.596941,-1.642762 -1.704102,-2.790816 -1.173671,-1.217019 -1.448214,-1.690786 -1.494933,-2.579733 -0.03671,-0.698585 0.149032,-1.031693 0.723185,-1.296926 0.362015,-0.167235 0.532281,-0.18417 1.796908,-0.178717 1.578975,0.0068 2.244041,0.139365 3.337198,0.665152 1.353009,0.650771 3.505195,2.537173 4.773853,4.184306 0.550993,0.737703 1.074903,1.491349 1.613474,2.240457 0.335424,0.48971 0.549587,0.935042 0.765374,1.591525 0.32371,0.984813 0.577412,1.09038 2.770353,1.152755 2.475342,0.07041 5.24578,-0.18995 5.756348,-0.540965 0.158071,-0.108673 0.426068,-0.292836 0.595549,-0.409253 0.599759,-0.411974 1.14476,-0.26105 2.243574,0.621298 0.843166,0.677063 1.292626,1.156736 1.231975,1.314791 -0.115777,0.301709 -0.571913,0.326711 -7.085697,0.388381 -6.298891,0.05964 -6.400379,0.06326 -6.942667,0.248216 -0.739195,0.252107 -1.893287,0.417346 -3.611854,0.517134 -1.571062,0.09122 -1.680404,0.09097 -2.78048,-0.0064 z"
       id="path1265" />
    <path
       style="fill:#000000;fill-opacity:1;stroke-width:3.81354"
       d="m 52.95856,84.650516 c -0.116417,-0.02097 -0.439174,-0.07936 -0.717238,-0.129755 -0.278064,-0.05039 -0.732276,-0.209614 -1.009358,-0.35382 l -0.503786,-0.262192 -1.741163,0.01549 c -0.957639,0.0085 -1.808353,-0.0058 -1.890475,-0.0319 -0.18922,-0.06006 -0.213874,-0.808331 -0.03162,-0.959591 0.17372,-0.144175 1.374025,-0.260348 2.697469,-0.261078 l 1.164167,-6.43e-4 v -0.374952 c 0,-0.669435 -0.126549,-0.709253 -2.399801,-0.755086 -1.56652,-0.03158 -1.575913,-0.03492 -1.578236,-0.560157 -0.0011,-0.24768 0.07428,-0.364907 0.485537,-0.755148 2.653722,-2.518097 4.560996,-3.437065 7.353618,-3.54314 2.583691,-0.09814 3.096386,0.195732 6.97783,3.999623 0.764187,0.748917 1.153997,1.06919 1.397,1.147791 0.427469,0.138264 6.998224,0.215089 8.003357,0.09357 0.593733,-0.07178 0.732098,-0.123099 1.119896,-0.415375 0.842592,-0.635045 1.123353,-0.683328 1.552848,-0.267046 0.149477,0.144879 0.550928,0.461069 0.892111,0.702645 0.586338,0.415158 0.938141,0.820527 0.817126,0.941541 -0.163754,0.163756 -1.060831,0.205485 -4.512952,0.209935 -4.716593,0.0061 -9.315427,0.125164 -9.642989,0.249703 -0.393403,0.149572 -3.088145,0.83797 -4.173051,1.066046 -0.967254,0.203343 -3.636384,0.35592 -4.260294,0.243535 z m -6.863418,-8.920568 c -0.774683,-0.08158 -0.891847,-0.13958 -1.308108,-0.647571 -0.538784,-0.657515 -0.854929,-0.754526 -2.469454,-0.757764 -1.516664,-0.003 -1.571516,-0.02059 -1.841359,-0.589245 -0.187026,-0.394128 -0.167892,-0.686295 0.05518,-0.84254 0.150417,-0.105356 0.448235,-0.131801 1.484324,-0.131801 1.439953,0 1.539161,-0.04036 1.215743,-0.494556 -0.300437,-0.421925 -0.673125,-0.540741 -1.516719,-0.483543 -1.352654,0.09172 -1.721892,-0.137808 -1.158027,-0.719843 1.034648,-1.067989 3.265309,-2.178377 5.374507,-2.675345 1.594465,-0.375687 4.791681,-0.366543 6.084565,0.0174 0.516292,0.153323 0.911099,0.456265 2.500261,1.918493 1.403893,1.291759 2.177848,1.856453 2.885092,2.105029 0.42977,0.151052 0.717508,0.162647 3.916133,0.157797 4.23186,-0.0064 4.532848,-0.03052 4.979568,-0.398743 0.281489,-0.232026 0.399559,-0.273356 0.780919,-0.273356 0.443956,0 0.455538,0.0066 0.975543,0.558158 0.289439,0.306987 0.707227,0.650529 0.928419,0.763426 0.464009,0.236833 0.539503,0.493059 0.184988,0.627845 -0.130398,0.04958 -1.881156,0.08265 -4.3815,0.08277 -2.290376,8.4e-5 -5.05478,0.02537 -6.143117,0.05615 l -1.978796,0.05595 -0.645871,0.422839 c -0.900541,0.589568 -1.598136,0.899965 -2.225778,0.990372 -1.389591,0.200157 -6.590468,0.374556 -7.696511,0.258084 z M 58.209804,71.14293 c -1.737084,-0.175364 -2.35171,-0.402176 -2.244743,-0.828367 0.08805,-0.35082 0.353736,-0.66437 1.944561,-2.294869 1.93387,-1.982099 2.354235,-2.613382 2.049711,-3.078144 -0.281193,-0.429154 -1.236516,-0.478092 -4.410617,-0.22594 -1.286376,0.102191 -2.737238,0.01848 -3.155678,-0.182071 -0.167254,-0.08017 -0.238811,-0.177541 -0.238811,-0.324986 0,-0.322974 0.411569,-0.471561 2.120146,-0.765426 0.928753,-0.15974 1.718227,-0.345638 2.02852,-0.477657 1.886066,-0.802453 4.510842,-1.272117 7.577667,-1.35591 2.97233,-0.08121 4.253527,0.156598 6.011334,1.115788 0.537815,0.293473 1.938149,0.471783 4.148666,0.528267 2.31346,0.05911 2.821914,-0.01152 3.493835,-0.485373 1.098536,-0.774709 1.630216,-0.785618 2.550121,-0.05232 0.166898,0.133041 0.636616,0.418791 1.043819,0.635 0.76822,0.407895 1.013596,0.676795 0.8672,0.95034 -0.189421,0.353935 -0.383621,0.366886 -6.219308,0.414745 -5.082904,0.04169 -5.622188,0.05939 -5.966226,0.195825 -1.143062,0.453317 -1.426216,0.823192 -1.740012,2.272923 -0.598522,2.765156 -1.194826,3.408294 -3.56895,3.849258 -0.894047,0.166058 -5.018001,0.237456 -6.291235,0.108919 z M 78.729627,55.578017 c -0.145163,-0.03466 -0.435101,-0.14587 -0.644306,-0.247144 -0.332002,-0.16072 -0.551457,-0.187582 -1.725733,-0.21124 -1.697373,-0.03419 -2.306285,-0.239687 -1.932877,-0.652299 0.18643,-0.206001 0.543073,-0.300088 1.554999,-0.410227 1.374242,-0.149573 1.998814,-0.603012 2.213716,-1.607156 0.180026,-0.841183 -0.158883,-2.222197 -0.882695,-3.596875 C 76.669877,47.632154 76.025612,47.278381 74.076834,47.076209 72.92835,46.957062 72.578891,46.806368 72.2174,46.274386 71.95281,45.885007 71.945814,45.543127 72.19906,45.3782 c 0.3058,-0.199153 1.640866,-0.61658 2.6035,-0.814021 4.097426,-0.840403 8.481534,0.628203 10.371185,3.474181 0.417364,0.628584 1.403238,2.591256 1.829354,3.641862 0.613348,1.512236 0.79913,1.569687 5.019422,1.55219 l 3.12296,-0.01295 0.508432,-0.262219 c 0.899009,-0.463654 1.184643,-0.385316 2.407834,0.660378 0.196268,0.167788 0.491543,0.413598 0.656166,0.546242 0.347495,0.279995 0.373957,0.425731 0.108814,0.599288 -0.164754,0.107844 -0.522338,0.112689 -2.645833,0.03585 -2.799496,-0.101304 -7.520661,-0.04791 -8.339667,0.09432 -0.302683,0.05256 -1.027605,0.207188 -1.610937,0.343609 -0.583333,0.136421 -1.497733,0.286727 -2.032001,0.334012 -1.102415,0.09757 -5.068114,0.102703 -5.468662,0.0071 z"
       id="path1267" />
  </g>
</svg>
