<?xml version="1.0" encoding="UTF-8" standalone="no"?>
<svg
   width="195.79167mm"
   height="43.391666mm"
   viewBox="0 0 195.79167 43.391666"
   version="1.1"
   id="svg8"
   sodipodi:docname="pplogo-web-transp.svg"
   inkscape:version="1.1 (c4e8f9e, 2021-05-24)"
   xmlns:inkscape="http://www.inkscape.org/namespaces/inkscape"
   xmlns:sodipodi="http://sodipodi.sourceforge.net/DTD/sodipodi-0.dtd"
   xmlns:xlink="http://www.w3.org/1999/xlink"
   xmlns="http://www.w3.org/2000/svg"
   xmlns:svg="http://www.w3.org/2000/svg"
   xmlns:rdf="http://www.w3.org/1999/02/22-rdf-syntax-ns#"
   xmlns:cc="http://creativecommons.org/ns#"
   xmlns:dc="http://purl.org/dc/elements/1.1/">
  <sodipodi:namedview
     id="namedview55"
     pagecolor="#ffffff"
     bordercolor="#666666"
     borderopacity="1.0"
     inkscape:pageshadow="2"
     inkscape:pageopacity="0.0"
     inkscape:pagecheckerboard="0"
     inkscape:document-units="mm"
     showgrid="false"
     inkscape:snap-global="false"
     inkscape:zoom="1.1216216"
     inkscape:cx="379.80724"
     inkscape:cy="263.01205"
     inkscape:window-width="1815"
     inkscape:window-height="1009"
     inkscape:window-x="2019"
     inkscape:window-y="582"
     inkscape:window-maximized="0"
     inkscape:current-layer="svg8" />
  <defs
     id="defs2">
    <linearGradient
       id="linearGradient2325">
      <stop
         style="stop-color:#d6d6d6;stop-opacity:0.51764709"
         offset="0"
         id="stop2321" />
      <stop
         style="stop-color:#ffffff;stop-opacity:0.10300337"
         offset="1"
         id="stop2323" />
    </linearGradient>
    <linearGradient
       id="linearGradient2296">
      <stop
         style="stop-color:#606264;stop-opacity:1"
         offset="0"
         id="stop2292" />
      <stop
         style="stop-color:#a7a7a8;stop-opacity:1"
         offset="1"
         id="stop2294" />
    </linearGradient>
    <linearGradient
       id="linearGradient2288">
      <stop
         style="stop-color:#cccccc;stop-opacity:1;"
         offset="0"
         id="stop2284" />
      <stop
         style="stop-color:#cccccc;stop-opacity:0;"
         offset="1"
         id="stop2286" />
    </linearGradient>
    <linearGradient
       xlink:href="#linearGradient2288"
       id="linearGradient2290"
       x1="722.07355"
       y1="-486.57663"
       x2="922.35028"
       y2="-437.6091"
       gradientUnits="userSpaceOnUse" />
    <linearGradient
       xlink:href="#linearGradient2296"
       id="linearGradient2298"
       x1="721.96466"
       y1="-523.18335"
       x2="920.31702"
       y2="-807.37866"
       gradientUnits="userSpaceOnUse" />
    <linearGradient
       xlink:href="#linearGradient2325"
       id="linearGradient2327"
       x1="-75.097832"
       y1="-474.88644"
       x2="-75.097832"
       y2="-362.12308"
       gradientUnits="userSpaceOnUse" />
  </defs>
  <metadata
     id="metadata5">
    <rdf:RDF>
      <cc:Work
         rdf:about="">
        <dc:format>image/svg+xml</dc:format>
        <dc:type
           rdf:resource="http://purl.org/dc/dcmitype/StillImage" />
        <dc:title />
      </cc:Work>
    </rdf:RDF>
  </metadata>
  <path
     id="path936"
     style="fill:#000000;stroke-width:3.77953"
     d="M 96.369141 24.648438 C 95.026316 24.649492 93.439381 24.715444 91.75 24.849609 C 90.32395 24.962874 88.314818 25.093038 87.283203 25.138672 C 85.480539 25.218405 78.353799 25.012684 77.351562 24.851562 C 76.891012 24.777525 76.863809 24.790709 76.791016 25.130859 C 76.748836 25.327954 76.758075 25.634297 76.8125 25.810547 C 76.897653 26.087303 77.188546 26.24348 78.947266 26.955078 C 81.097787 27.825208 82.033601 28.299372 82.279297 28.646484 C 82.397898 28.81405 82.443156 30.125202 82.5 35.017578 C 82.591616 42.90084 82.591389 59.471125 82.5 68.564453 C 82.419118 76.581576 82.509499 75.89362 81.453125 76.474609 C 81.139764 76.646956 80.015074 77.156588 78.953125 77.607422 C 77.891168 78.058248 76.985993 78.490203 76.941406 78.566406 C 76.835882 78.746765 76.83303 79.603845 76.9375 79.726562 C 76.982023 79.778796 77.168558 79.790655 77.351562 79.751953 C 77.534567 79.713137 79.246688 79.614501 81.158203 79.533203 C 84.588011 79.387351 90.67936 79.451918 93.460938 79.664062 C 94.189139 79.719584 94.847973 79.739422 94.923828 79.707031 C 95.10396 79.630156 95.102106 78.712623 94.921875 78.537109 C 94.845491 78.462728 93.839935 78.014485 92.6875 77.541016 C 90.509385 76.646152 89.739178 76.218486 89.595703 75.828125 C 89.499098 75.565334 89.345297 65.871967 89.332031 59.199219 L 89.324219 54.705078 L 89.626953 54.761719 C 90.405438 54.903527 94.505274 54.945012 95.773438 54.824219 C 99.223046 54.495664 101.82542 53.514786 104.08008 51.691406 C 104.52023 51.33545 105.31494 50.507812 105.8457 49.853516 C 107.30705 48.052068 108.22295 46.044921 108.79688 43.386719 C 109.20218 41.509492 109.32862 39.921846 109.26562 37.453125 C 109.22157 35.728644 109.15286 34.979119 108.96484 34.144531 C 108.61522 32.592571 108.16469 31.390599 107.48438 30.191406 C 105.84945 27.309582 103.19734 25.528151 99.529297 24.847656 C 98.811542 24.714519 97.711973 24.647879 96.369141 24.648438 z M 93.349609 28.365234 C 95.440017 28.365234 96.013462 28.406508 96.597656 28.595703 C 98.891002 29.338425 100.46864 31.118953 101.1875 33.777344 C 101.61096 35.3433 101.7907 36.949482 101.79102 39.193359 C 101.79172 42.444055 101.48126 44.355781 100.61719 46.414062 C 100.19718 47.414602 99.936573 47.835066 99.203125 48.695312 C 98.489248 49.532599 98.109631 49.860591 97.365234 50.283203 C 96.259209 50.911092 95.148381 51.265293 93.697266 51.455078 C 93.117278 51.530933 91.895049 51.59375 90.982422 51.59375 L 89.324219 51.59375 L 89.324219 40.085938 L 89.324219 28.580078 L 90.068359 28.472656 C 90.477981 28.413616 91.953905 28.365236 93.349609 28.365234 z M 156.52344 39.041016 C 155.21494 39.037395 153.91088 39.217371 152.66211 39.582031 C 151.17083 40.017501 149.827 40.710935 148.48438 41.736328 C 147.18149 42.731383 145.74482 44.352675 144.81836 45.873047 C 143.95515 47.28961 142.97722 49.582584 142.47461 51.369141 C 141.99081 53.088799 141.60238 55.240084 141.45117 57.037109 C 141.20777 59.92954 141.37131 63.614914 141.85938 66.240234 C 142.36862 68.979504 143.34208 71.719784 144.55469 73.826172 C 145.34648 75.201565 146.66478 76.83856 147.71875 77.755859 C 148.13729 78.12013 148.90139 78.675747 149.41797 78.990234 C 150.52505 79.664211 152.17286 80.312134 153.24219 80.494141 C 153.66168 80.565536 154.11799 80.64751 154.25781 80.675781 C 154.39766 80.704128 155.2229 80.707846 156.08984 80.685547 C 157.16859 80.657578 157.99209 80.566891 158.70117 80.398438 C 160.714 79.920263 162.62085 78.960097 164.16602 77.646484 C 165.90671 76.166644 167.66704 73.714824 168.69141 71.345703 C 169.88891 68.576164 170.64965 65.344136 170.94727 61.753906 C 171.09962 59.915831 171.01095 55.537679 170.79102 54.046875 C 170.57267 52.56674 170.09091 50.493535 169.70508 49.369141 C 168.63187 46.24157 166.94881 43.681878 164.8125 41.925781 C 163.84666 41.131854 162.06962 40.142499 160.91992 39.759766 C 159.49532 39.285526 158.00639 39.045124 156.52344 39.041016 z M 310.72656 39.041016 C 309.41807 39.037395 308.114 39.217371 306.86523 39.582031 C 305.37394 40.017501 304.03012 40.710935 302.6875 41.736328 C 301.3846 42.731383 299.94795 44.352675 299.02148 45.873047 C 298.15829 47.28961 297.18035 49.582584 296.67773 51.369141 C 296.19394 53.088799 295.80552 55.240084 295.6543 57.037109 C 295.4109 59.92954 295.57443 63.614914 296.0625 66.240234 C 296.57174 68.979504 297.54519 71.719784 298.75781 73.826172 C 299.5496 75.201565 300.86791 76.83856 301.92188 77.755859 C 302.34042 78.12013 303.10451 78.675747 303.62109 78.990234 C 304.72817 79.664211 306.37598 80.312134 307.44531 80.494141 C 307.8648 80.565536 308.3211 80.64751 308.46094 80.675781 C 308.60078 80.704128 309.42408 80.707846 310.29102 80.685547 C 311.36977 80.657578 312.19522 80.566891 312.9043 80.398438 C 314.91713 79.920263 316.82203 78.960097 318.36719 77.646484 C 320.10789 76.166644 321.87017 73.714824 322.89453 71.345703 C 324.09203 68.576164 324.85278 65.344136 325.15039 61.753906 C 325.30274 59.915831 325.21407 55.537679 324.99414 54.046875 C 324.7758 52.56674 324.29403 50.493535 323.9082 49.369141 C 322.83499 46.24157 321.15194 43.681878 319.01562 41.925781 C 318.04979 41.131854 316.27275 40.142499 315.12305 39.759766 C 313.69845 39.285526 312.20952 39.045124 310.72656 39.041016 z M 375.8457 39.099609 C 374.00651 39.098555 372.55834 39.205858 370.51172 40.005859 C 368.4651 40.805868 366.38511 42.486718 365.20703 44.523438 C 364.50326 45.740139 364.05699 47.006336 363.82031 48.462891 C 363.68878 49.272367 363.66152 49.916863 363.70117 51.224609 C 363.7333 52.281705 363.81896 53.219497 363.92773 53.693359 C 364.14759 54.651247 364.65731 55.949556 365.15039 56.808594 C 365.65684 57.690921 366.81575 59.011081 367.80273 59.830078 C 368.24562 60.197562 369.68267 61.223654 370.99609 62.109375 C 372.30951 62.995096 373.74563 64.012201 374.1875 64.371094 C 375.85856 65.728364 377.01467 67.261232 377.47461 68.726562 C 377.61804 69.183447 377.74269 69.904722 377.77734 70.472656 C 377.95434 73.373194 376.87949 75.768031 374.91016 76.863281 C 374.45156 77.118324 373.71842 77.403581 373.23438 77.515625 C 372.57059 77.669263 372.07139 77.701414 371.04883 77.650391 C 369.63373 77.579789 368.79394 77.360516 367.89258 76.830078 C 367.61327 76.665706 367.28455 76.407796 367.16406 76.255859 C 367.04357 76.103922 366.83072 75.661512 366.69141 75.273438 C 366.32695 74.258158 365.68294 71.871546 365.29492 70.099609 C 365.11078 69.258782 364.9169 68.50468 364.86328 68.423828 C 364.80969 68.342984 364.57004 68.275391 364.33203 68.275391 C 364.09403 68.275391 363.85601 68.342984 363.80273 68.423828 C 363.74948 68.504672 363.60411 70.052249 363.47852 71.863281 C 363.35292 73.67431 363.18507 75.870964 363.10547 76.744141 C 362.91377 78.847395 362.91836 79.180001 363.13867 79.3125 C 363.61479 79.598799 367.03544 80.366111 368.60352 80.539062 C 369.51687 80.639787 372.32757 80.615729 373.13281 80.5 C 377.84797 79.82252 381.06461 77.506854 382.64453 73.650391 C 383.76852 70.906869 383.84067 67.024524 382.82031 64.21875 C 382.25807 62.672727 381.18538 61.124423 379.75195 59.787109 C 378.73689 58.840077 377.43899 57.864204 375.31641 56.453125 C 372.76937 54.759874 371.94993 54.109013 371.03516 53.054688 C 370.41821 52.343622 370.11865 51.885724 369.83984 51.224609 C 369.41457 50.216194 369.26556 49.432147 369.26758 48.238281 C 369.27136 46.082934 370.12071 44.156282 371.55078 43.058594 C 372.30173 42.48217 373.23893 42.091919 374.29102 41.916016 C 374.9827 41.8004 375.37211 41.798814 376.15625 41.912109 C 377.31239 42.079467 378.03029 42.432189 378.54102 43.085938 C 378.73037 43.328205 379.094 44.082263 379.34961 44.759766 C 379.78921 45.924956 379.99358 46.539883 380.7832 49.048828 C 381.08746 50.015998 381.14172 50.10928 381.40625 50.144531 C 381.56537 50.165697 381.79739 50.154668 381.91992 50.119141 C 382.13989 50.055342 382.14468 50.006513 382.26562 46.435547 C 382.3329 44.444817 382.43757 42.29403 382.49805 41.65625 C 382.5914 40.677776 382.58409 40.470357 382.45898 40.326172 C 382.27606 40.11467 381.16152 39.783742 379.6875 39.503906 C 378.80721 39.336776 377.6849 39.100789 375.8457 39.099609 z M 242.18164 39.177734 L 242.18164 39.179688 C 239.18983 39.177579 238.65222 39.364379 236.90625 40.046875 C 234.55897 40.964401 232.74059 42.486718 231.5625 44.523438 C 230.85874 45.740139 230.41441 47.006336 230.17773 48.462891 C 230.04621 49.272367 230.01895 49.916863 230.05859 51.224609 C 230.09072 52.281705 230.17638 53.219497 230.28516 53.693359 C 230.50501 54.651247 231.01474 55.949556 231.50781 56.808594 C 232.01426 57.690921 233.17316 59.011081 234.16016 59.830078 C 234.60305 60.197562 236.04009 61.223654 237.35352 62.109375 C 238.66694 62.995096 240.10305 64.012201 240.54492 64.371094 C 242.21598 65.728364 243.37209 67.261232 243.83203 68.726562 C 243.97546 69.183447 244.10011 69.904722 244.13477 70.472656 C 244.31176 73.373194 243.23691 75.768031 241.26758 76.863281 C 240.80898 77.118324 240.07584 77.403581 239.5918 77.515625 C 238.92802 77.669263 238.42881 77.701414 237.40625 77.650391 C 235.99115 77.579789 235.14942 77.360516 234.24805 76.830078 C 233.96874 76.665706 233.64197 76.407796 233.52148 76.255859 C 233.40099 76.103922 233.18815 75.661512 233.04883 75.273438 C 232.68437 74.258158 232.04036 71.871546 231.65234 70.099609 C 231.46821 69.258782 231.27432 68.50468 231.2207 68.423828 C 231.16711 68.342984 230.92742 68.275391 230.68945 68.275391 C 230.45146 68.275391 230.21343 68.342984 230.16016 68.423828 C 230.1069 68.504672 229.96153 70.052249 229.83594 71.863281 C 229.71034 73.67431 229.54245 75.870964 229.46289 76.744141 C 229.27119 78.847395 229.27372 79.180001 229.49414 79.3125 C 229.97027 79.598799 233.39288 80.366111 234.96094 80.539062 C 235.8743 80.639787 238.68304 80.615729 239.48828 80.5 C 244.20344 79.82252 247.42202 77.506854 249.00195 73.650391 C 250.12592 70.906869 250.1981 67.024524 249.17773 64.21875 C 248.6155 62.672727 247.54278 61.124423 246.10938 59.787109 C 245.09429 58.840077 243.79641 57.864204 241.67383 56.453125 C 239.12679 54.759874 238.30736 54.109013 237.39258 53.054688 C 236.77563 52.343622 236.47607 51.885724 236.19727 51.224609 C 235.77199 50.216194 235.62103 49.432147 235.62305 48.238281 C 235.62683 46.082934 236.47617 44.156282 237.90625 43.058594 C 238.6572 42.48217 239.59635 42.091919 240.64844 41.916016 C 241.34012 41.8004 241.72953 41.798814 242.51367 41.912109 C 243.66981 42.079467 244.38574 42.432189 244.89648 43.085938 C 245.08576 43.328205 245.45141 44.082263 245.70703 44.759766 C 246.14666 45.924956 246.351 46.539883 247.14062 49.048828 C 247.44503 50.015998 247.49903 50.10928 247.76367 50.144531 C 247.92294 50.165697 248.15286 50.154668 248.27539 50.119141 C 248.49517 50.055342 248.50015 50.006513 248.62109 46.435547 C 248.68852 44.444817 248.79469 42.29403 248.85547 41.65625 C 248.94871 40.677776 248.94128 40.470357 248.81641 40.326172 C 248.63348 40.11467 247.51894 39.783742 246.04492 39.503906 C 245.16462 39.336776 244.3424 39.179057 242.18164 39.177734 z M 267.44727 39.177734 L 267.44727 39.179688 C 264.45545 39.177579 263.91785 39.364379 262.17188 40.046875 C 259.82459 40.964401 258.00622 42.486718 256.82812 44.523438 C 256.12436 45.740139 255.68004 47.006336 255.44336 48.462891 C 255.31183 49.272367 255.28262 49.916863 255.32227 51.224609 C 255.35439 52.281705 255.44201 53.219497 255.55078 53.693359 C 255.77064 54.651247 256.28036 55.949556 256.77344 56.808594 C 257.27988 57.690921 258.43879 59.011081 259.42578 59.830078 C 259.86867 60.197562 261.30376 61.223654 262.61719 62.109375 C 263.93061 62.995096 265.36867 64.012201 265.81055 64.371094 C 267.4816 65.728364 268.63771 67.261232 269.09766 68.726562 C 269.24109 69.183447 269.36573 69.904722 269.40039 70.472656 C 269.57739 73.373194 268.50253 75.768031 266.5332 76.863281 C 266.0746 77.118324 265.34146 77.403581 264.85742 77.515625 C 264.19364 77.669263 263.69444 77.701414 262.67188 77.650391 C 261.25678 77.579789 260.41504 77.360516 259.51367 76.830078 C 259.23436 76.665706 258.9076 76.407796 258.78711 76.255859 C 258.66662 76.103922 258.45377 75.661512 258.31445 75.273438 C 257.94999 74.258158 257.30599 71.871546 256.91797 70.099609 C 256.73383 69.258782 256.53994 68.50468 256.48633 68.423828 C 256.43273 68.342984 256.19309 68.275391 255.95508 68.275391 C 255.71708 68.275391 255.47905 68.342984 255.42578 68.423828 C 255.37253 68.504672 255.22716 70.052249 255.10156 71.863281 C 254.97597 73.67431 254.80807 75.870964 254.72852 76.744141 C 254.53682 78.847395 254.53934 79.180001 254.75977 79.3125 C 255.23589 79.598799 258.6585 80.366111 260.22656 80.539062 C 261.13992 80.639787 263.94866 80.615729 264.75391 80.5 C 269.46907 79.82252 272.68765 77.506854 274.26758 73.650391 C 275.39155 70.906869 275.46372 67.024524 274.44336 64.21875 C 273.88112 62.672727 272.8084 61.124423 271.375 59.787109 C 270.35992 58.840077 269.06203 57.864204 266.93945 56.453125 C 264.39242 54.759874 263.57298 54.109013 262.6582 53.054688 C 262.04126 52.343622 261.7417 51.885724 261.46289 51.224609 C 261.03762 50.216194 260.88666 49.432147 260.88867 48.238281 C 260.89245 46.082934 261.7418 44.156282 263.17188 43.058594 C 263.92283 42.48217 264.86197 42.091919 265.91406 41.916016 C 266.60575 41.8004 266.9932 41.798814 267.77734 41.912109 C 268.93349 42.079467 269.65137 42.432189 270.16211 43.085938 C 270.35139 43.328205 270.71704 44.082263 270.97266 44.759766 C 271.41228 45.924956 271.61663 46.539883 272.40625 49.048828 C 272.71065 50.015998 272.76465 50.10928 273.0293 50.144531 C 273.18857 50.165697 273.41849 50.154668 273.54102 50.119141 C 273.7608 50.055342 273.76577 50.006513 273.88672 46.435547 C 273.95415 44.444817 274.06032 42.29403 274.12109 41.65625 C 274.21433 40.677776 274.20691 40.470357 274.08203 40.326172 C 273.8991 40.11467 272.78456 39.783742 271.31055 39.503906 C 270.43024 39.336776 269.60802 39.179057 267.44727 39.177734 z M 201.50195 40.027344 L 201.50195 40.486328 L 201.50195 40.947266 L 202.3418 41.339844 C 203.5644 41.912877 204.86777 42.695473 205.1875 43.046875 C 205.34068 43.215215 205.50037 43.495934 205.54297 43.671875 C 205.58556 43.847812 205.62109 51.217187 205.62109 60.048828 C 205.62109 75.227415 205.61198 76.124776 205.44141 76.425781 C 205.16558 76.912566 204.61614 77.276568 203.01758 78.033203 C 201.59708 78.705558 201.55311 78.736345 201.52148 79.097656 C 201.50372 79.302431 201.51513 79.54852 201.54688 79.644531 C 201.58701 79.765476 201.689 79.798404 201.88281 79.751953 C 202.03668 79.714914 203.28397 79.628036 204.6543 79.556641 C 206.2928 79.471299 209.46278 79.452795 213.91016 79.505859 C 217.62963 79.550231 221.6777 79.62937 222.9082 79.681641 C 224.69504 79.757571 225.18978 79.746751 225.35938 79.623047 C 225.56559 79.472584 225.57323 79.346356 225.6543 75.253906 C 225.70022 72.936228 225.74294 70.66955 225.74805 70.216797 L 225.75586 69.392578 L 225.32227 69.357422 C 224.81732 69.31528 224.90147 69.153131 224.12891 71.626953 C 223.57031 73.415615 222.72269 75.393454 222.41406 75.626953 C 221.94275 75.983514 220.93689 76.166735 218.75391 76.296875 C 217.08711 76.396239 215.98363 76.39547 214.33203 76.292969 C 213.12109 76.217832 212.03189 76.126404 211.91211 76.087891 C 211.70027 76.019784 211.69278 75.945191 211.63477 73.410156 C 211.60188 71.97674 211.54847 68.459018 211.51562 65.591797 L 211.45508 60.378906 L 215.55469 60.423828 C 219.87138 60.472017 220.09366 60.499512 220.60547 61.03125 C 220.9533 61.392611 221.36954 62.406038 221.89258 64.171875 C 222.14592 65.027133 222.40285 65.798396 222.46484 65.884766 C 222.59505 66.066221 223.33234 66.099262 223.38281 65.925781 C 223.40133 65.861718 223.38259 64.895622 223.33984 63.779297 C 223.29714 62.662957 223.28967 59.493331 223.32422 56.736328 C 223.37165 52.965357 223.35918 51.70269 223.26953 51.638672 C 223.20403 51.591844 222.99606 51.586399 222.80859 51.626953 C 222.4738 51.699596 222.46132 51.724669 222.09961 53.052734 C 221.63073 54.774328 221.13522 56.020414 220.76172 56.412109 C 220.60052 56.581205 220.30709 56.784051 220.11133 56.863281 C 219.70713 57.026821 216.25094 57.208217 213.35938 57.216797 L 211.4375 57.220703 L 211.50391 52.134766 C 211.54057 49.33736 211.59962 46.219579 211.63477 45.205078 L 211.69922 43.359375 L 212.32031 43.283203 C 212.66228 43.241137 214.77249 43.22784 217.00977 43.251953 C 220.45307 43.28937 221.14529 43.3243 221.51953 43.486328 C 221.76267 43.591588 222.03843 43.795464 222.13086 43.939453 C 222.77463 44.942381 223.25761 46.085484 224.14062 48.695312 C 224.33803 49.278807 224.34222 49.283203 224.79297 49.283203 L 225.24805 49.283203 L 225.24023 48.636719 C 225.23645 48.28099 225.19508 46.25721 225.14844 44.138672 C 225.086 41.301501 225.03116 40.253925 224.9375 40.164062 C 224.84966 40.079779 223.07087 40.085237 219.18164 40.179688 C 213.9028 40.307738 204.29782 40.260818 202.3418 40.097656 L 201.50195 40.027344 z M 360.9043 40.029297 L 359.60742 40.128906 C 357.9397 40.257675 352.3307 40.257036 350.45508 40.128906 L 349.00586 40.03125 L 349.00586 40.439453 C 349.00586 40.663957 349.06289 40.898695 349.13281 40.962891 C 349.20273 41.027067 349.71802 41.304737 350.27734 41.578125 C 351.75949 42.302623 353.06602 43.105429 353.22656 43.390625 C 353.46399 43.812394 353.57492 47.634773 353.64453 57.869141 C 353.68902 64.408056 353.67581 67.474272 353.60547 67.394531 C 353.48071 67.252723 343.45872 47.83313 342.34766 45.580078 C 341.91706 44.706901 341.2462 43.237384 340.85547 42.314453 C 340.45202 41.361487 340.04808 40.566146 339.92188 40.474609 C 339.74787 40.348411 338.76265 40.295375 335.37891 40.228516 C 333.0018 40.181536 330.71246 40.135608 330.29297 40.126953 L 329.53125 40.111328 L 329.50391 40.464844 C 329.48917 40.658885 329.51205 40.872581 329.55469 40.941406 C 329.59721 41.010231 330.10397 41.295184 330.67969 41.574219 C 332.02125 42.224426 332.85399 42.851099 333.21289 43.478516 L 333.49609 43.974609 L 333.49219 58.330078 C 333.4869 73.625097 333.42983 76.043457 333.05859 76.621094 C 332.82921 76.977995 332.17212 77.376043 330.59961 78.105469 C 329.95639 78.403825 329.36962 78.704117 329.29688 78.773438 C 329.22057 78.846118 329.1777 79.077089 329.19531 79.320312 C 329.22177 79.687758 329.25891 79.739478 329.48047 79.724609 C 334.36105 79.396887 335.4708 79.378666 338.63867 79.574219 C 339.76629 79.643838 340.80913 79.711431 340.95703 79.722656 C 341.20289 79.741176 341.22778 79.700683 341.25586 79.255859 L 341.28711 78.769531 L 339.78125 78.091797 C 338.10647 77.338378 337.20781 76.849459 337.02148 76.589844 C 336.6585 76.084082 336.45423 68.191952 336.53906 57.986328 C 336.5761 53.523042 336.63786 49.449084 336.67773 48.931641 L 336.75195 47.990234 L 337.36914 49.166016 C 342.21455 58.381407 348.0853 69.610667 348.92773 71.275391 C 350.15611 73.702758 351.4587 76.428682 352.125 77.962891 C 352.37755 78.544382 352.69616 79.223778 352.83203 79.472656 L 353.07812 79.923828 L 354.875 79.892578 L 356.67383 79.859375 L 356.64648 66.748047 C 356.6223 54.463275 356.7151 47.206821 356.92773 44.601562 C 357.00582 43.644628 357.03775 43.534371 357.35547 43.152344 C 357.57797 42.884791 358.2664 42.418873 359.30078 41.835938 L 360.90039 40.935547 L 360.90234 40.482422 L 360.9043 40.029297 z M 175.51562 40.033203 L 175.54883 40.478516 L 175.58008 40.921875 L 176.94141 41.597656 C 178.48164 42.361401 179.13136 42.793458 179.42188 43.246094 C 179.60031 43.524116 179.63212 43.845793 179.70703 46.185547 C 179.8177 49.644374 179.81639 69.491219 179.70508 73.373047 L 179.61719 76.412109 L 179.32812 76.761719 C 178.9925 77.167039 178.19311 77.629085 176.72461 78.265625 C 175.72251 78.700006 175.68172 78.731694 175.65039 79.09375 C 175.63263 79.30083 175.64403 79.548516 175.67578 79.644531 C 175.71596 79.765627 175.81768 79.798744 176.01172 79.751953 C 176.49481 79.635468 180.57778 79.449899 182.66211 79.449219 C 184.23372 79.448164 188.2553 79.600414 189.9707 79.724609 C 190.20537 79.741617 190.22461 79.70322 190.22461 79.230469 L 190.22461 78.71875 L 188.96875 78.142578 C 187.51663 77.477461 186.56781 76.960011 186.21289 76.638672 L 185.96289 76.412109 L 185.89062 72.021484 C 185.85083 69.606328 185.81317 66.155198 185.80859 64.353516 L 185.80078 61.078125 L 189.33398 61.136719 C 191.4983 61.172246 193.04235 61.247344 193.31641 61.330078 C 193.56249 61.404346 193.8955 61.572379 194.05664 61.705078 C 194.45838 62.035862 194.87004 63.028413 195.45312 65.074219 C 195.98304 66.933467 196.12483 67.159897 196.66602 66.990234 C 196.90345 66.915815 196.9337 66.848287 196.92188 66.443359 C 196.90789 65.966855 196.91299 55.156983 196.92773 53.283203 L 196.93555 52.224609 L 196.54102 52.1875 C 196.32388 52.167091 196.09993 52.203805 196.04297 52.269531 C 195.98601 52.335408 195.74186 53.083616 195.5 53.933594 C 194.91375 55.993928 194.41703 57.174161 194.01758 57.455078 C 193.8458 57.575872 193.42605 57.729108 193.08398 57.796875 C 192.7419 57.864642 190.9561 57.957166 189.11523 58.001953 L 185.76758 58.083984 L 185.83008 50.916016 C 185.86409 46.974343 185.92116 43.660848 185.95703 43.552734 C 185.99759 43.430542 186.20145 43.320037 186.49609 43.261719 C 186.75681 43.21009 188.61731 43.169808 190.63086 43.169922 C 194.69171 43.169922 195.25354 43.23862 195.74023 43.804688 C 196.14946 44.28064 196.84917 45.757415 197.4668 47.449219 C 197.76425 48.263998 198.04674 49.010401 198.09375 49.107422 C 198.14689 49.217066 198.32829 49.283203 198.57422 49.283203 L 198.9707 49.283203 L 198.93164 46.990234 C 198.91048 45.72898 198.865 43.665548 198.83008 42.404297 L 198.76758 40.111328 L 195.10547 40.169922 C 189.39746 40.261613 179.01081 40.238878 177.17578 40.130859 L 175.51562 40.033203 z M 110.26758 40.035156 L 110.30078 40.478516 L 110.33203 40.923828 L 111.69336 41.597656 C 113.23362 42.361404 113.88331 42.793461 114.17383 43.246094 C 114.3523 43.524116 114.38411 43.8458 114.45898 46.185547 C 114.56961 49.640882 114.5681 69.489987 114.45703 73.365234 C 114.38926 75.72592 114.33513 76.455255 114.2168 76.664062 C 114.00873 77.031244 113.04644 77.606029 111.625 78.208984 C 110.46414 78.701419 110.43216 78.722707 110.40039 79.091797 C 110.38263 79.300087 110.39403 79.550477 110.42578 79.646484 C 110.46588 79.767354 110.56997 79.80013 110.76367 79.753906 C 111.23922 79.640369 115.51557 79.450832 117.60352 79.451172 C 119.72487 79.451172 123.98016 79.638983 124.44141 79.751953 C 124.67415 79.808948 124.7375 79.769484 124.82031 79.517578 C 125.00513 78.955392 124.82898 78.741349 123.84961 78.333984 C 122.23565 77.662759 121.36408 77.195227 121.02148 76.818359 L 120.68555 76.449219 L 120.61914 74.460938 C 120.58248 73.367218 120.55273 70.018499 120.55273 67.019531 L 120.55273 61.568359 L 122.08789 61.599609 L 123.62305 61.632812 L 124.79102 64.101562 C 126.55852 67.839334 128.36882 71.945235 129.97656 75.861328 L 131.42578 79.390625 L 134.70898 79.474609 C 136.51507 79.521627 138.54171 79.608718 139.21289 79.666016 C 140.08674 79.740586 140.45633 79.732518 140.51172 79.638672 C 140.55424 79.566672 140.57705 79.348338 140.5625 79.154297 C 140.53793 78.826196 140.4407 78.747982 139.18945 78.037109 C 138.44943 77.61669 137.70208 77.113959 137.52734 76.919922 C 137.06488 76.406397 136.55997 75.507477 135.58203 73.451172 C 133.59894 69.281302 129.60352 60.500293 129.60352 60.3125 C 129.60352 60.243713 129.72899 60.151264 129.88281 60.107422 C 130.40118 59.959718 132.05938 58.994205 132.68945 58.472656 C 134.04755 57.348462 135.12623 55.69872 135.66211 53.925781 C 136.06596 52.589643 136.22213 51.435335 136.22656 49.753906 C 136.23185 47.770822 136.03854 46.667602 135.43359 45.226562 C 135.04456 44.29986 134.82474 43.949054 134.14062 43.166016 C 133.45861 42.385369 133.13105 42.115179 132.24805 41.607422 C 130.98632 40.881881 129.89751 40.507593 128.23047 40.226562 C 127.1511 40.044616 126.61677 40.033774 123.60352 40.123047 C 119.24561 40.252193 114.16479 40.256516 111.97852 40.132812 L 110.26758 40.035156 z M 278.07812 40.035156 L 278.07812 40.486328 L 278.07812 40.939453 L 279.27344 41.509766 C 280.85335 42.262855 281.7939 42.901692 282.01953 43.378906 C 282.18708 43.733313 282.19727 44.739821 282.19727 60.007812 L 282.19727 76.257812 L 281.89258 76.628906 C 281.5246 77.077139 280.76532 77.535416 279.25781 78.216797 C 278.17468 78.706359 278.12892 78.74034 278.09766 79.097656 C 278.07989 79.302469 278.0913 79.548512 278.12305 79.644531 C 278.16315 79.765401 278.26724 79.80013 278.46094 79.753906 C 278.92567 79.642939 283.18838 79.450542 285.22656 79.449219 C 286.72977 79.448164 290.46181 79.593498 292.31641 79.724609 C 292.54427 79.740861 292.5742 79.691732 292.60156 79.259766 L 292.63086 78.779297 L 291.17773 78.101562 C 289.57457 77.355714 288.69573 76.808429 288.52539 76.449219 C 288.34405 76.066795 288.22632 64.74838 288.29492 54.222656 C 288.32894 48.983592 288.39541 44.38298 288.44141 43.998047 C 288.51099 43.415501 288.5794 43.24523 288.84961 42.984375 C 289.23932 42.608123 290.13129 42.095548 291.41797 41.507812 C 291.94014 41.269287 292.42422 41.023436 292.49414 40.960938 C 292.56406 40.898424 292.62109 40.664867 292.62109 40.441406 L 292.62109 40.035156 L 290.96875 40.130859 C 288.83586 40.256491 281.86335 40.256491 279.73047 40.130859 L 278.07812 40.035156 z M 156.05273 41.609375 C 156.18309 41.610429 156.31473 41.615992 156.44531 41.626953 C 158.11055 41.767892 159.3644 42.369548 160.48047 43.564453 C 160.87005 43.981558 161.36205 44.618866 161.57422 44.980469 C 163.16438 47.690632 163.98435 51.497492 164.22852 57.289062 C 164.4006 61.370831 164.12159 65.814906 163.50195 68.832031 C 163.03173 71.121537 162.29576 73.154869 161.42383 74.576172 C 160.45625 76.153395 159.04906 77.264074 157.5625 77.625 C 155.60539 78.100162 153.78564 77.516399 152.31641 75.943359 C 151.16052 74.705802 150.39593 73.301304 149.64844 71.035156 C 149.00013 69.069685 148.48275 66.17946 148.25977 63.289062 C 148.12147 61.49647 148.12136 56.708332 148.25977 55.105469 C 148.31835 54.426333 148.45641 53.230629 148.56836 52.449219 C 149.13318 48.50741 150.22287 45.575611 151.81836 43.697266 C 152.38288 43.032673 152.77924 42.686456 153.34375 42.365234 C 154.23393 41.858698 155.13985 41.605369 156.05273 41.609375 z M 310.25586 41.609375 C 310.38629 41.610429 310.51778 41.615992 310.64844 41.626953 C 312.31367 41.767892 313.56753 42.369548 314.68359 43.564453 C 315.07318 43.981558 315.56517 44.618866 315.77734 44.980469 C 317.36751 47.690632 318.18747 51.497492 318.43164 57.289062 C 318.60372 61.370831 318.32472 65.814906 317.70508 68.832031 C 317.23487 71.121537 316.49889 73.154869 315.62695 74.576172 C 314.65937 76.153395 313.25219 77.264074 311.76562 77.625 C 309.80852 78.100162 307.98682 77.516399 306.51758 75.943359 C 305.3617 74.705802 304.59907 73.301304 303.85156 71.035156 C 303.20326 69.069685 302.68391 66.17946 302.46094 63.289062 C 302.3228 61.49647 302.32272 56.708332 302.46094 55.105469 C 302.51952 54.426333 302.65953 53.230629 302.77148 52.449219 C 303.33632 48.50741 304.42599 45.575611 306.02148 43.697266 C 306.58599 43.032673 306.98236 42.686456 307.54688 42.365234 C 308.4371 41.858679 309.34291 41.605335 310.25586 41.609375 z M 123.19336 42.855469 C 123.32422 42.85379 123.45394 42.854557 123.58008 42.855469 C 123.91642 42.857929 124.22977 42.869523 124.48438 42.892578 C 125.61057 42.99421 126.76397 43.370136 127.51758 43.880859 C 128.12732 44.294086 129.01101 45.409486 129.32812 46.167969 C 129.83401 47.377958 129.95328 48.167953 129.94531 50.224609 C 129.93927 51.760651 129.8991 52.278852 129.7207 53.046875 C 129.60051 53.564307 129.33512 54.378443 129.13281 54.855469 C 128.46668 56.426063 127.09968 57.725807 125.48438 58.322266 C 125.20473 58.425522 124.56899 58.590694 124.07227 58.689453 C 123.57554 58.788174 122.58112 58.869141 121.86133 58.869141 L 120.55273 58.869141 L 120.55273 50.998047 L 120.55273 43.128906 L 120.86719 43.048828 C 121.29079 42.941216 122.27732 42.867217 123.19336 42.855469 z M 59.667969 52.224609 C 58.529864 52.2185 57.385714 52.45331 56.425781 52.902344 C 55.615065 53.28157 54.89904 53.817183 54.431641 54.392578 C 53.94215 54.995175 53.477429 55.965864 53.326172 56.703125 C 53.078465 57.91065 53.208705 59.630824 53.646484 60.927734 C 53.903938 61.690458 54.418471 62.756831 54.933594 63.599609 L 55.339844 64.263672 L 54.720703 64.591797 C 54.380357 64.771895 53.837426 65.098025 53.513672 65.316406 C 51.440484 66.714816 50.29824 68.325159 49.78125 70.580078 C 49.637855 71.206047 49.605541 71.589921 49.605469 72.646484 C 49.605431 73.584015 49.643164 74.115155 49.742188 74.5625 C 50.079027 76.083699 50.678694 77.213594 51.623047 78.107422 C 51.954893 78.421485 52.459051 78.808888 52.744141 78.966797 C 53.338471 79.295971 54.205664 79.610958 54.810547 79.71875 C 55.481341 79.838259 57.351802 79.754073 58.103516 79.570312 C 59.823193 79.14995 61.367491 78.290078 62.898438 76.900391 L 63.427734 76.419922 L 64.289062 77.751953 L 65.148438 79.085938 L 65.666016 79.091797 C 66.250924 79.098411 69.420957 79.2169 71.128906 79.296875 L 72.265625 79.351562 L 72.240234 79.052734 L 72.214844 78.753906 L 71.318359 78.375 C 70.825876 78.16674 70.268575 77.89147 70.078125 77.761719 C 69.588971 77.428406 69.215467 76.984531 68.238281 75.572266 C 67.768025 74.892635 67.195987 74.070465 66.966797 73.744141 L 66.550781 73.150391 L 66.982422 72.492188 C 67.637354 71.495069 68.51443 69.720488 69.361328 67.681641 C 69.78064 66.672174 70.190867 65.739088 70.271484 65.609375 C 70.53364 65.187413 70.945216 64.864015 71.746094 64.447266 L 72.53125 64.037109 L 72.53125 63.722656 L 72.53125 63.408203 L 72.095703 63.447266 C 71.436319 63.506453 66.156019 63.49055 65.726562 63.427734 C 65.396957 63.379508 65.340963 63.392139 65.263672 63.535156 C 65.215218 63.624731 65.197333 63.780324 65.222656 63.880859 C 65.258978 64.024179 65.384415 64.102105 65.804688 64.238281 C 66.672584 64.519478 67.465349 64.908332 67.607422 65.123047 C 67.73003 65.307809 67.729992 65.374381 67.607422 66.09375 C 67.421375 67.185497 66.769789 69.089734 66.179688 70.267578 C 65.903446 70.81897 65.630281 71.329626 65.572266 71.402344 C 65.479335 71.518885 65.170245 71.090807 62.96875 67.792969 L 60.472656 64.052734 L 60.664062 63.927734 C 60.76998 63.858732 61.135725 63.603962 61.476562 63.363281 C 63.342591 62.045693 64.550713 60.497646 65.03125 58.808594 C 65.123508 58.484288 65.219196 57.863865 65.244141 57.429688 C 65.29857 56.476287 65.136589 55.555351 64.783203 54.820312 C 64.317766 53.852156 63.272098 52.985173 62.107422 52.601562 C 61.830889 52.510476 61.240731 52.379927 60.796875 52.3125 C 60.425688 52.256116 60.047337 52.226646 59.667969 52.224609 z M 60.123047 53.857422 C 60.306812 53.860547 60.4958 53.88815 60.689453 53.941406 C 61.087449 54.050861 61.581951 54.499131 61.824219 54.972656 C 62.190096 55.687701 62.287234 56.233082 62.279297 57.511719 C 62.273476 58.436849 62.237312 58.820083 62.109375 59.291016 C 61.785632 60.482583 61.098042 61.53712 60.193359 62.226562 C 59.935569 62.423022 59.706712 62.583984 59.685547 62.583984 C 59.613921 62.583984 59.017974 61.597745 58.646484 60.865234 C 57.911703 59.416318 57.578169 58.02211 57.679688 56.816406 C 57.832458 55.002155 58.83669 53.835544 60.123047 53.857422 z M 56.226562 65.728516 C 56.351223 65.728516 60.167368 71.514323 61.691406 74.013672 L 62.261719 74.949219 L 61.958984 75.257812 C 61.480043 75.746592 60.623157 76.269428 59.884766 76.521484 C 59.355084 76.702297 59.027559 76.75977 58.40625 76.783203 C 57.51644 76.816837 57.017601 76.714714 56.345703 76.361328 C 56.12284 76.244106 55.709699 75.916794 55.425781 75.634766 C 55.060456 75.271855 54.809708 74.928029 54.570312 74.455078 C 54.384254 74.08753 54.155628 73.504143 54.0625 73.158203 C 53.926513 72.653047 53.892388 72.289282 53.886719 71.310547 C 53.879175 70.013704 53.967865 69.378313 54.285156 68.451172 C 54.562997 67.639307 54.984474 66.954012 55.603516 66.308594 C 55.909688 65.989394 56.190279 65.728516 56.226562 65.728516 z M 30.222656 75.876953 C 28.879823 75.877656 27.294851 75.945867 25.605469 76.080078 C 24.179426 76.193351 22.168319 76.323484 21.136719 76.369141 C 19.334068 76.448889 12.209286 76.241199 11.207031 76.080078 C 10.746507 76.006037 10.717305 76.021171 10.644531 76.361328 C 10.602337 76.55843 10.611855 76.862812 10.666016 77.039062 C 10.751183 77.3158 11.042077 77.471996 12.800781 78.183594 C 14.951286 79.053717 15.887113 79.529845 16.132812 79.876953 C 16.25141 80.044537 16.296664 81.353715 16.353516 86.246094 C 16.445124 94.129345 16.445236 110.70159 16.353516 119.79492 C 16.272638 127.81204 16.363114 127.12407 15.306641 127.70508 C 14.993261 127.87742 13.868602 128.38705 12.806641 128.83789 C 11.744715 129.28871 10.839514 129.71871 10.794922 129.79492 C 10.689424 129.97528 10.68643 130.83431 10.791016 130.95703 C 10.83555 131.00926 11.022054 131.01917 11.205078 130.98047 C 11.388098 130.94165 13.100197 130.84302 15.011719 130.76172 C 18.441505 130.61583 24.532875 130.68239 27.314453 130.89453 C 28.042641 130.95005 28.701484 130.96794 28.777344 130.93555 C 28.958428 130.85863 28.95765 129.94115 28.777344 129.76562 C 28.700941 129.69124 27.695412 129.243 26.542969 128.76953 C 24.364855 127.87467 23.594633 127.44894 23.451172 127.05859 C 23.354567 126.7958 23.200641 117.10245 23.1875 110.42969 L 23.177734 105.93555 L 23.480469 105.99023 C 24.258946 106.13204 28.360745 106.17548 29.628906 106.05469 C 33.07852 105.72613 35.680871 104.74331 37.935547 102.91992 C 38.375688 102.56397 39.170398 101.73828 39.701172 101.08398 C 41.162511 99.282541 42.078434 97.275378 42.652344 94.617188 C 43.057641 92.739942 43.182153 91.152306 43.119141 88.683594 C 43.075109 86.959158 43.006353 86.207638 42.818359 85.373047 C 42.468715 83.821093 42.020178 82.619128 41.339844 81.419922 C 39.704926 78.538077 37.05085 76.756653 33.382812 76.076172 C 32.665067 75.943019 31.565482 75.876348 30.222656 75.876953 z M 27.205078 79.59375 C 29.295465 79.59375 29.866979 79.635016 30.451172 79.824219 C 32.744533 80.566934 34.322146 82.349429 35.041016 85.007812 C 35.464477 86.573777 35.644531 88.179949 35.644531 90.423828 C 35.645234 93.674524 35.334753 95.586231 34.470703 97.644531 C 34.050673 98.645048 33.790115 99.065542 33.056641 99.925781 C 32.342783 100.76308 31.963131 101.08913 31.21875 101.51172 C 30.112728 102.13962 29.001898 102.49575 27.550781 102.68555 C 26.970775 102.7614 25.748554 102.82227 24.835938 102.82227 L 23.177734 102.82227 L 23.177734 91.316406 L 23.177734 79.808594 L 23.921875 79.701172 C 24.331498 79.642136 25.809355 79.59375 27.205078 79.59375 z M 92.697266 90.271484 C 91.388771 90.267826 90.084712 90.447847 88.835938 90.8125 C 87.344649 91.247973 86.000831 91.941403 84.658203 92.966797 C 83.355317 93.961844 81.918652 95.583144 80.992188 97.103516 C 80.12897 98.520075 79.151062 100.81305 78.648438 102.59961 C 78.164677 104.31927 77.77623 106.46859 77.625 108.26562 C 77.381598 111.15804 77.545134 114.84539 78.033203 117.4707 C 78.542423 120.20998 79.515884 122.95026 80.728516 125.05664 C 81.520327 126.43204 82.838589 128.06903 83.892578 128.98633 C 84.311108 129.3506 85.07523 129.90622 85.591797 130.2207 C 86.698858 130.89467 88.344732 131.54065 89.414062 131.72266 C 89.833545 131.79405 90.291809 131.87603 90.431641 131.9043 C 90.571445 131.93264 91.394756 131.93831 92.261719 131.91602 C 93.340472 131.88805 94.165927 131.79736 94.875 131.62891 C 96.887829 131.15074 98.792725 130.19055 100.33789 128.87695 C 102.07859 127.39711 103.84087 124.94529 104.86523 122.57617 C 106.06275 119.80663 106.82345 116.57266 107.12109 112.98242 C 107.27345 111.14435 107.18282 106.76619 106.96289 105.27539 C 106.74451 103.79526 106.26475 101.72402 105.87891 100.59961 C 104.80572 97.472043 103.12265 94.91039 100.98633 93.154297 C 100.02048 92.360366 98.243444 91.372957 97.09375 90.990234 C 95.669152 90.515991 94.180216 90.275597 92.697266 90.271484 z M 245.80664 90.271484 C 244.49815 90.267826 243.19603 90.447847 241.94727 90.8125 C 240.45597 91.247962 239.1102 91.941403 237.76758 92.966797 C 236.46469 93.961856 235.02803 95.581198 234.10156 97.101562 C 233.23836 98.518148 232.26043 100.81304 231.75781 102.59961 C 231.27402 104.31924 230.8856 106.46861 230.73438 108.26562 C 230.49097 111.15806 230.65451 114.84538 231.14258 117.4707 C 231.65182 120.20997 232.62527 122.95028 233.83789 125.05664 C 234.62969 126.43206 235.94798 128.06903 237.00195 128.98633 C 237.4205 129.3506 238.18654 129.90622 238.70312 130.2207 C 239.8102 130.89467 241.45606 131.54065 242.52539 131.72266 C 242.94488 131.79405 243.40314 131.87603 243.54297 131.9043 C 243.68281 131.93264 244.5061 131.93831 245.37305 131.91602 C 246.4518 131.88805 247.27529 131.79736 247.98438 131.62891 C 249.99721 131.15074 251.90406 130.19055 253.44922 128.87695 C 255.18991 127.39711 256.95219 124.94528 257.97656 122.57617 C 259.17407 119.80661 259.93286 116.57267 260.23047 112.98242 C 260.38282 111.14438 260.29415 106.76621 260.07422 105.27539 C 259.85585 103.7952 259.37411 101.72402 258.98828 100.59961 C 257.91507 97.472054 256.23397 94.910409 254.09766 93.154297 C 253.13182 92.36035 251.35477 91.372987 250.20508 90.990234 C 248.78048 90.515991 247.2896 90.275597 245.80664 90.271484 z M 376.23438 90.330078 C 376.05055 90.330249 375.86132 90.332202 375.66602 90.337891 C 374.1036 90.383396 372.48969 90.417994 370.49805 91.240234 C 368.16454 92.203606 366.35387 93.717183 365.17578 95.753906 C 364.47201 96.970612 364.02575 98.236801 363.78906 99.693359 C 363.65753 100.50284 363.63027 101.14534 363.66992 102.45312 C 363.70205 103.51022 363.78771 104.44997 363.89648 104.92383 C 364.11634 105.88172 364.62607 107.18001 365.11914 108.03906 C 365.62559 108.92139 366.78449 110.24157 367.77148 111.06055 C 368.21437 111.42803 369.65142 112.45218 370.96484 113.33789 C 372.27826 114.22361 373.71439 115.24268 374.15625 115.60156 C 375.82732 116.95884 376.98341 118.48972 377.44336 119.95508 C 377.58679 120.41193 377.71144 121.13323 377.74609 121.70117 C 377.92309 124.60171 376.84823 126.9985 374.87891 128.09375 C 374.42031 128.34879 373.68717 128.63406 373.20312 128.74609 C 372.53934 128.89973 372.04014 128.92993 371.01758 128.87891 C 369.60248 128.8083 368.76074 128.59099 367.85938 128.06055 C 367.58007 127.89618 367.2533 127.6363 367.13281 127.48438 C 367.01232 127.33244 366.79948 126.89198 366.66016 126.50391 C 366.2957 125.48864 365.65168 123.10007 365.26367 121.32812 C 365.07953 120.48728 364.88564 119.73319 364.83203 119.65234 C 364.7784 119.5715 364.53879 119.50586 364.30078 119.50586 C 364.06278 119.50586 363.82476 119.5715 363.77148 119.65234 C 363.71823 119.73319 363.57286 121.28079 363.44727 123.0918 C 363.32167 124.90284 363.15382 127.09948 363.07422 127.97266 C 362.88252 130.07591 362.8852 130.40852 363.10547 130.54102 C 363.58159 130.82731 367.0042 131.59658 368.57227 131.76953 C 369.48562 131.87029 372.29436 131.84616 373.09961 131.73047 C 377.81476 131.05299 381.03333 128.73734 382.61328 124.88086 C 383.73724 122.13736 383.80938 118.25498 382.78906 115.44922 C 382.22686 113.90319 381.15413 112.35488 379.7207 111.01758 C 378.70564 110.07056 377.40773 109.09468 375.28516 107.68359 C 372.73811 105.99033 371.91869 105.33948 371.00391 104.28516 C 370.38696 103.57408 370.08739 103.11623 369.80859 102.45508 C 369.38331 101.44669 369.23235 100.6626 369.23438 99.46875 C 369.23815 97.313387 370.0875 95.386762 371.51758 94.289062 C 372.26853 93.712658 373.20767 93.322387 374.25977 93.146484 C 374.95145 93.030188 375.34085 93.029117 376.125 93.142578 C 377.28114 93.309936 377.99708 93.662661 378.50781 94.316406 C 378.69717 94.558636 379.06275 95.310774 379.31836 95.988281 C 379.75799 97.153449 379.96233 97.770352 380.75195 100.2793 C 381.05621 101.24649 381.11024 101.33973 381.375 101.375 C 381.53412 101.39617 381.76419 101.38514 381.88672 101.34961 C 382.10631 101.28581 382.11148 101.23698 382.23242 97.666016 C 382.2997 95.675293 382.40595 93.524488 382.4668 92.886719 C 382.56015 91.908222 382.55284 91.698861 382.42773 91.554688 C 382.24481 91.343185 381.13027 91.0142 379.65625 90.734375 C 378.55033 90.463062 377.52118 90.328882 376.23438 90.330078 z M 177.50195 90.347656 L 177.50195 90.349609 C 174.51013 90.3475 173.97254 90.594848 172.22656 91.277344 C 169.87929 92.194866 168.06285 93.717183 166.88477 95.753906 C 166.18099 96.970597 165.73472 98.236801 165.49805 99.693359 C 165.36652 100.50285 165.33926 101.14537 165.37891 102.45312 C 165.41103 103.51022 165.49669 104.44997 165.60547 104.92383 C 165.82532 105.88172 166.33505 107.18002 166.82812 108.03906 C 167.33457 108.92139 168.49348 110.24156 169.48047 111.06055 C 169.92335 111.42803 171.3604 112.45218 172.67383 113.33789 C 173.98725 114.22362 175.42336 115.24266 175.86523 115.60156 C 177.5363 116.95884 178.69241 118.48974 179.15234 119.95508 C 179.29578 120.41196 179.42038 121.13323 179.45508 121.70117 C 179.63207 124.60171 178.55917 126.9985 176.58984 128.09375 C 176.13124 128.34879 175.39616 128.63406 174.91211 128.74609 C 174.24833 128.89973 173.74913 128.92993 172.72656 128.87891 C 171.31147 128.8083 170.47168 128.59099 169.57031 128.06055 C 169.29101 127.89618 168.96228 127.6363 168.8418 127.48438 C 168.72131 127.33244 168.51041 126.89198 168.37109 126.50391 C 168.00663 125.48864 167.36068 123.10005 166.97266 121.32812 C 166.78852 120.48729 166.59463 119.7332 166.54102 119.65234 C 166.48742 119.5715 166.24973 119.50586 166.01172 119.50586 C 165.77372 119.50586 165.53374 119.5715 165.48047 119.65234 C 165.42722 119.73319 165.28181 121.28076 165.15625 123.0918 C 165.03066 124.90284 164.86276 127.09948 164.7832 127.97266 C 164.59151 130.07591 164.59614 130.40852 164.81641 130.54102 C 165.29254 130.82731 168.71318 131.59658 170.28125 131.76953 C 171.19461 131.87026 174.0053 131.84616 174.81055 131.73047 C 179.52571 131.05299 182.74234 128.73538 184.32227 124.87891 C 185.44624 122.13539 185.51841 118.255 184.49805 115.44922 C 183.93581 113.9032 182.86309 112.35294 181.42969 111.01562 C 180.41461 110.0686 179.11673 109.09272 176.99414 107.68164 C 174.44711 105.98839 173.62766 105.33949 172.71289 104.28516 C 172.09595 103.57409 171.79638 103.11424 171.51758 102.45312 C 171.0923 101.44471 170.94329 100.66261 170.94531 99.46875 C 170.94909 97.313395 171.79844 95.386751 173.22852 94.289062 C 173.97946 93.712643 174.91667 93.320438 175.96875 93.144531 C 176.66043 93.028916 177.04984 93.029283 177.83398 93.142578 C 178.99012 93.309936 179.70801 93.66265 180.21875 94.316406 C 180.40803 94.558674 180.77172 95.310786 181.02734 95.988281 C 181.46697 97.153468 181.67327 97.768395 182.46289 100.27734 C 182.76729 101.24452 182.81935 101.33974 183.08398 101.375 C 183.24325 101.39617 183.47512 101.38514 183.59766 101.34961 C 183.81744 101.28581 183.82241 101.23502 183.94336 97.664062 C 184.01079 95.673336 184.11501 93.522538 184.17578 92.884766 C 184.26902 91.906288 184.2634 91.698861 184.13867 91.554688 C 183.95578 91.343147 182.84121 91.014207 181.36719 90.734375 C 180.48689 90.567244 179.66271 90.34899 177.50195 90.347656 z M 202.83594 90.431641 C 199.84411 90.429532 199.30457 90.594848 197.55859 91.277344 C 195.21132 92.194866 193.39488 93.717183 192.2168 95.753906 C 191.51303 96.970612 191.06871 98.236801 190.83203 99.693359 C 190.7005 100.50284 190.67129 101.14534 190.71094 102.45312 C 190.74306 103.51022 190.83068 104.44997 190.93945 104.92383 C 191.15931 105.88172 191.66708 107.18001 192.16016 108.03906 C 192.6666 108.92139 193.82551 110.24157 194.8125 111.06055 C 195.2554 111.42803 196.69244 112.45218 198.00586 113.33789 C 199.31928 114.22361 200.75539 115.24268 201.19727 115.60156 C 202.86832 116.95884 204.02442 118.48972 204.48438 119.95508 C 204.62777 120.41193 204.75444 121.13323 204.78906 121.70117 C 204.9661 124.60171 203.89121 126.9985 201.92188 128.09375 C 201.46329 128.34879 200.73015 128.63406 200.24609 128.74609 C 199.58232 128.89973 199.08116 128.92993 198.05859 128.87891 C 196.64349 128.8083 195.80371 128.59099 194.90234 128.06055 C 194.62307 127.89618 194.29627 127.6363 194.17578 127.48438 C 194.05529 127.33244 193.84245 126.89198 193.70312 126.50391 C 193.33867 125.48864 192.69465 123.10007 192.30664 121.32812 C 192.1225 120.48728 191.92666 119.73319 191.87305 119.65234 C 191.81945 119.5715 191.58176 119.50586 191.34375 119.50586 C 191.10575 119.50586 190.86772 119.5715 190.81445 119.65234 C 190.76116 119.73319 190.61387 121.28079 190.48828 123.0918 C 190.36269 124.90284 190.19479 127.09948 190.11523 127.97266 C 189.92354 130.07591 189.92802 130.40852 190.14844 130.54102 C 190.62456 130.82731 194.04717 131.59658 195.61523 131.76953 C 196.52859 131.87029 199.33733 131.84616 200.14258 131.73047 C 204.85774 131.05299 208.07437 128.73734 209.6543 124.88086 C 210.77826 122.13736 210.85238 118.25498 209.83203 115.44922 C 209.2698 113.90319 208.19708 112.35488 206.76367 111.01758 C 205.7486 110.07056 204.44875 109.09468 202.32617 107.68359 C 199.77913 105.99033 198.96166 105.33948 198.04688 104.28516 C 197.42993 103.57408 197.13037 103.11623 196.85156 102.45508 C 196.42629 101.44669 196.27533 100.6626 196.27734 99.46875 C 196.28112 97.313387 197.13047 95.386762 198.56055 94.289062 C 199.31151 93.712658 200.25065 93.322387 201.30273 93.146484 C 201.99442 93.030188 202.38188 93.029117 203.16602 93.142578 C 204.32215 93.309936 205.04003 93.662661 205.55078 94.316406 C 205.74006 94.558636 206.10376 95.310774 206.35938 95.988281 C 206.79901 97.153449 207.0053 97.770352 207.79492 100.2793 C 208.09933 101.24649 208.15333 101.33973 208.41797 101.375 C 208.57724 101.39617 208.80716 101.38514 208.92969 101.34961 C 209.14947 101.28581 209.15445 101.23698 209.27539 97.666016 C 209.34282 95.675293 209.44704 93.524488 209.50781 92.886719 C 209.60105 91.908222 209.59554 91.698861 209.4707 91.554688 C 209.28777 91.343185 208.17323 91.0142 206.69922 90.734375 C 205.81891 90.567282 204.99669 90.431641 202.83594 90.431641 z M 307.32422 90.810547 C 305.8366 90.810547 305.29063 90.850172 305.21875 90.958984 C 305.16535 91.039866 304.67163 92.639879 304.12305 94.515625 C 301.52391 103.40262 296.92495 118.54689 295.01562 124.50391 C 294.10921 127.33185 294.05474 127.46652 293.56836 128.01758 C 293.10415 128.5435 292.17261 129.14064 290.82812 129.77734 C 290.70175 129.83719 290.59971 129.91559 290.52344 130.00586 L 290.5 117.97852 C 290.47581 105.69371 290.56666 98.43732 290.7793 95.832031 C 290.85738 94.8751 290.89127 94.764836 291.20898 94.382812 C 291.43149 94.11526 292.11796 93.649342 293.15234 93.066406 L 294.75195 92.166016 L 294.75391 91.712891 L 294.75586 91.259766 L 293.45898 91.359375 C 291.79126 91.487161 286.18226 91.48769 284.30664 91.359375 L 282.85742 91.259766 L 282.85742 91.667969 C 282.85742 91.892435 282.91445 92.129198 282.98438 92.193359 C 283.0543 92.257574 283.56959 92.533252 284.12891 92.806641 C 285.61106 93.531146 286.91758 94.335906 287.07812 94.621094 C 287.31555 95.042885 287.42651 98.863281 287.49609 109.09766 C 287.54058 115.63654 287.52699 118.70474 287.45703 118.625 C 287.33227 118.48319 277.31223 99.061665 276.20117 96.808594 C 275.77058 95.935406 275.09776 94.465892 274.70703 93.542969 C 274.30357 92.590018 273.9016 91.796622 273.77539 91.705078 C 273.60138 91.578917 272.61422 91.523891 269.23047 91.457031 C 266.85337 91.410052 264.56402 91.366077 264.14453 91.357422 L 263.38281 91.341797 L 263.35547 91.693359 C 263.34073 91.8874 263.36557 92.103035 263.4082 92.171875 C 263.45076 92.2407 263.95554 92.525653 264.53125 92.804688 C 265.87281 93.454883 266.70555 94.079596 267.06445 94.707031 L 267.34961 95.205078 L 267.34375 109.56055 C 267.33846 124.85556 267.2814 127.27393 266.91016 127.85156 C 266.68078 128.2085 266.02369 128.60456 264.45117 129.33398 C 263.80796 129.63234 263.22118 129.93263 263.14844 130.00195 C 263.07213 130.07463 263.02926 130.30755 263.04688 130.55078 C 263.07333 130.91823 263.11048 130.96994 263.33203 130.95508 C 268.21261 130.62736 269.32236 130.60913 272.49023 130.80469 C 273.61785 130.87431 274.66069 130.93991 274.80859 130.95117 C 275.05445 130.96969 275.08129 130.93114 275.10938 130.48633 L 275.13867 130 L 273.63281 129.32227 C 271.95803 128.56884 271.05937 128.07993 270.87305 127.82031 C 270.51006 127.31454 270.30579 119.4224 270.39062 109.2168 C 270.42766 104.75349 270.49138 100.67759 270.53125 100.16016 L 270.60352 99.220703 L 271.2207 100.39648 C 276.06611 109.6119 281.93686 120.84113 282.7793 122.50586 C 284.00767 124.93321 285.31025 127.65721 285.97656 129.19141 C 286.22911 129.7729 286.54772 130.45228 286.68359 130.70117 L 286.68359 130.70312 L 286.92969 131.1543 L 288.72852 131.12305 L 290.52539 131.08984 L 290.52539 130.91992 C 290.58466 130.98394 290.65147 131.00772 290.71289 130.98047 C 290.79657 130.94343 291.96013 130.8508 293.29883 130.77344 C 295.22214 130.66228 296.32337 130.66344 298.55273 130.78125 C 300.10444 130.86319 301.48908 130.93983 301.62891 130.95117 C 301.85685 130.96969 301.88689 130.92174 301.91406 130.49414 L 301.94336 130.01758 L 300.69336 129.44727 C 298.3233 128.36705 297.9676 128.09289 297.96875 127.33594 C 297.96945 126.70456 298.65791 123.6725 299.32031 121.38867 L 299.84961 119.56445 L 301.22266 119.4707 C 302.55239 119.37935 311.15259 119.42629 311.23828 119.52539 C 311.29717 119.5935 312.20722 122.9805 312.70703 124.99414 C 313.18834 126.93328 313.22814 127.58651 312.89062 127.93164 C 312.4897 128.34162 312.10163 128.57593 310.6875 129.26562 C 309.52653 129.83186 309.29117 129.98981 309.20898 130.25586 C 309.09053 130.63932 309.24526 130.98264 309.52344 130.95117 C 310.36375 130.85619 314.73248 130.67773 316.22852 130.67773 C 317.72159 130.67773 321.41218 130.82529 323.03516 130.94922 C 323.12277 130.95592 323.18394 130.95675 323.22852 130.94531 C 323.22852 130.94531 323.23047 130.94727 323.23047 130.94727 C 323.28567 131.00544 323.38003 131.01531 323.52539 130.98047 C 323.67926 130.94343 324.92655 130.85452 326.29688 130.7832 C 327.93096 130.69816 331.06312 130.68146 335.39844 130.73438 C 339.03401 130.77875 343.01559 130.85811 344.24609 130.91016 C 345.89145 130.97978 346.51292 130.96843 346.5957 130.86914 C 346.66797 130.78244 346.7586 129.22075 346.84961 126.50195 C 346.92754 124.17348 346.99219 121.71234 346.99219 121.0332 L 346.99219 119.79883 L 346.55273 119.79883 L 346.11523 119.79883 L 345.42578 121.73828 C 344.47893 124.40933 343.71127 126.15941 343.22852 126.74609 C 342.6025 127.50688 342.26406 127.55859 338.04297 127.55859 C 336.08535 127.55859 334.27258 127.51812 334.01367 127.4668 C 333.56861 127.37862 333.53866 127.34964 333.48242 126.9375 C 333.37232 126.13048 333.29858 105.50233 333.38672 100.13281 C 333.46953 95.089211 333.48555 94.797679 333.67773 94.5 C 333.95542 94.069901 334.73067 93.583089 336.30469 92.853516 L 337.63672 92.236328 L 337.66797 91.75 L 337.69922 91.265625 L 335.93945 91.361328 C 333.65441 91.487186 326.91485 91.486128 324.79688 91.361328 L 323.14453 91.263672 L 323.14453 91.720703 L 323.14453 92.175781 L 323.98438 92.570312 C 325.20698 93.143342 326.51034 93.92397 326.83008 94.275391 C 326.98322 94.443731 327.14295 94.726392 327.18555 94.902344 C 327.22814 95.078281 327.26367 102.45469 327.26367 111.29492 C 327.26367 127.26979 327.26198 127.36937 327.05664 127.6875 C 326.78508 128.10806 326.03194 128.5918 324.4707 129.3457 C 323.67041 129.73217 323.3723 129.88333 323.25195 130.04102 C 323.1015 129.86647 322.70354 129.66619 321.66211 129.10547 C 320.59276 128.52971 320.0088 127.956 319.73633 127.2207 C 319.47475 126.5148 315.4082 112.41066 313.69531 106.26562 C 312.88561 103.36079 311.62036 98.761454 310.88281 96.044922 C 310.14527 93.32836 309.4949 91.039859 309.4375 90.958984 C 309.36044 90.850399 308.80796 90.8125 307.32422 90.8125 L 307.32422 90.810547 z M 387.89453 91.25 L 387.92773 91.703125 L 387.96289 92.15625 L 388.93164 92.630859 C 389.46493 92.891647 390.11109 93.24842 390.36719 93.423828 C 390.92032 93.802718 391.44086 94.458186 391.53516 94.892578 C 391.67424 95.533476 391.38546 101.80724 390.90625 108.57031 C 390.57479 113.24589 390.03465 120.3201 389.74805 123.70703 C 389.51901 126.41227 389.40481 127.3323 389.27344 127.56445 C 389.00509 128.03805 388.33028 128.51599 386.86719 129.26758 C 385.58154 129.92804 385.51942 129.97537 385.48828 130.33008 C 385.46938 130.53421 385.48161 130.77938 385.51562 130.87695 L 385.51562 130.87891 C 385.54964 130.9802 385.64165 131.02582 385.73047 130.98633 C 385.81626 130.94831 387.05571 130.85382 388.48438 130.77539 C 390.52052 130.66359 391.67816 130.66345 393.84375 130.77539 C 395.36323 130.85393 396.70869 130.94973 396.83398 130.98828 C 397.00973 131.04233 397.08274 130.99505 397.15039 130.7832 C 397.19877 130.6321 397.20816 130.38288 397.17188 130.23047 C 397.11972 130.00468 396.86411 129.84062 395.78906 129.33789 C 394.0018 128.50207 393.30426 128.09034 393.11914 127.76367 C 392.98459 127.52647 392.97349 127.0826 393.0332 124.52734 C 393.119 120.87273 393.33519 115.09084 393.60547 109.27539 C 393.83489 104.33879 394.19734 97.96743 394.25195 97.904297 C 394.30033 97.848246 396.2788 103.9034 397.92773 109.1582 C 399.42654 113.93453 400.95985 119.01736 403 125.97461 L 404.36133 130.61914 L 405.11133 130.65234 L 405.85938 130.6875 L 406.76172 127.53711 C 409.07596 119.45444 415.71608 97.877743 415.84375 98.025391 C 415.90006 98.090739 416.03475 99.972949 416.43164 106.27539 C 416.84365 112.81925 417.36969 122.08364 417.45117 124.21094 C 417.48141 125.01944 417.53025 126.05797 417.55859 126.51953 C 417.60697 127.30089 417.59345 127.38327 417.33984 127.73047 C 417.04693 128.13291 415.57072 129.00459 414.21289 129.57617 C 413.34046 129.94347 413.15361 130.19157 413.33594 130.74609 C 413.41909 130.99891 413.48229 131.039 413.71484 130.98242 C 414.17459 130.8707 418.33484 130.68067 420.35156 130.67969 C 421.83495 130.67898 425.20979 130.81346 427.26562 130.95508 C 427.49504 130.97095 427.52243 130.9236 427.55078 130.47266 C 427.57724 130.02045 427.55521 129.96094 427.30273 129.84961 C 427.14853 129.78188 426.51286 129.43823 425.88867 129.08594 C 424.56289 128.33761 423.85835 127.68162 423.70898 127.05469 C 423.40322 125.77208 421.77539 99.732898 421.77539 96.126953 C 421.77532 94.890741 421.88348 94.540608 422.41016 94.076172 C 422.78244 93.747882 423.71431 93.182566 424.95898 92.529297 C 425.73473 92.122106 425.75395 92.102716 425.72266 91.726562 L 425.69141 91.341797 L 424.87891 91.353516 C 424.43145 91.360697 422.01786 91.40946 419.51562 91.460938 C 415.54894 91.542537 414.94801 91.578836 414.82227 91.742188 C 414.7429 91.84518 414.26378 93.437869 413.75781 95.28125 C 412.39363 100.25124 410.54428 106.53112 409.07227 111.19727 C 407.12086 117.38289 406.68461 118.68516 406.57617 118.64453 C 406.45485 118.59903 405.79959 116.51572 403.96289 110.33398 C 402.38396 105.02003 400.65993 98.847716 399.60938 94.755859 C 399.2267 93.265372 398.88073 91.953589 398.8418 91.839844 C 398.80287 91.726118 398.67255 91.61 398.55273 91.582031 C 398.43292 91.554063 396.43639 91.500119 394.11523 91.462891 C 391.79404 91.425851 389.44565 91.362593 388.89648 91.322266 L 387.89453 91.25 z M 135.84375 91.257812 L 135.84375 91.716797 L 135.84375 92.175781 L 136.68164 92.570312 C 137.90425 93.143334 139.20956 93.923974 139.5293 94.275391 C 139.68248 94.443731 139.84217 94.726392 139.88477 94.902344 C 139.92736 95.078281 139.96094 102.44765 139.96094 111.2793 C 139.96094 126.45787 139.95182 127.3533 139.78125 127.6543 C 139.50542 128.1411 138.95599 128.50703 137.35742 129.26367 C 135.93693 129.93603 135.89295 129.96682 135.86133 130.32812 C 135.84356 130.5329 135.85497 130.77898 135.88672 130.875 C 135.92686 130.99594 136.0308 131.02887 136.22461 130.98242 C 136.37847 130.94538 137.62577 130.85651 138.99609 130.78516 C 140.6346 130.69981 143.8026 130.68326 148.25 130.73633 C 151.96946 130.7807 156.01949 130.85984 157.25 130.91211 C 159.03682 130.988 159.52962 130.9753 159.69922 130.85156 C 159.90543 130.7011 159.91495 130.57682 159.99609 126.48438 C 160.04202 124.16671 160.08283 121.90003 160.08789 121.44727 L 160.09766 120.62305 L 159.66211 120.58594 C 159.15716 120.54376 159.24131 120.38361 158.46875 122.85742 C 157.91016 124.64609 157.06253 126.62393 156.75391 126.85742 C 156.2826 127.21402 155.27869 127.3972 153.0957 127.52734 C 151.42891 127.62671 150.32347 127.6259 148.67188 127.52344 C 147.46093 127.4483 146.37173 127.35492 146.25195 127.31641 C 146.04011 127.2483 146.03263 127.17565 145.97461 124.64062 C 145.94173 123.20721 145.88831 119.68754 145.85547 116.82031 L 145.79492 111.60742 L 149.89648 111.6543 C 154.21318 111.70249 154.4335 111.72804 154.94531 112.25977 C 155.29314 112.62113 155.70939 113.63652 156.23242 115.40234 C 156.48576 116.2576 156.74465 117.02886 156.80664 117.11523 C 156.93685 117.29669 157.67414 117.32778 157.72461 117.1543 C 157.74313 117.09023 157.72244 116.12415 157.67969 115.00781 C 157.63698 113.89149 157.63147 110.72379 157.66602 107.9668 C 157.71349 104.19583 157.69903 102.93317 157.60938 102.86914 C 157.54388 102.82231 157.33785 102.81691 157.15039 102.85742 C 156.81564 102.93003 156.80311 102.95514 156.44141 104.2832 C 155.97253 106.00479 155.47507 107.24891 155.10156 107.64062 C 154.94037 107.80968 154.64889 108.01453 154.45312 108.09375 C 154.04893 108.25729 150.59274 108.43673 147.70117 108.44531 L 145.7793 108.45117 L 145.8457 103.36523 C 145.88236 100.56784 145.94145 97.448102 145.97656 96.433594 L 146.03906 94.589844 L 146.66211 94.513672 C 147.00408 94.471606 149.11429 94.456355 151.35156 94.480469 C 154.79487 94.517886 155.48709 94.554806 155.86133 94.716797 C 156.10447 94.822057 156.37827 95.025929 156.4707 95.169922 C 157.11446 96.172861 157.59746 97.315957 158.48047 99.925781 C 158.67787 100.50929 158.68402 100.51367 159.13477 100.51367 L 159.58789 100.51367 L 159.58203 99.867188 C 159.57825 99.511458 159.53687 97.485726 159.49023 95.367188 C 159.4278 92.530021 159.371 91.484386 159.27734 91.394531 C 159.18951 91.310248 157.41071 91.313753 153.52148 91.408203 C 148.24264 91.536291 138.63766 91.489372 136.68164 91.326172 L 135.84375 91.257812 z M 110.07422 91.263672 L 110.10547 91.707031 L 110.13672 92.152344 L 111.49805 92.828125 C 113.03829 93.591884 113.68799 94.023934 113.97852 94.476562 C 114.15695 94.754585 114.18876 95.076261 114.26367 97.416016 C 114.37434 100.87485 114.37307 120.72168 114.26172 124.60352 L 114.17383 127.64258 L 113.88477 127.99219 C 113.54914 128.39752 112.74974 128.85956 111.28125 129.49609 C 110.27915 129.93047 110.23837 129.96216 110.20703 130.32422 C 110.18927 130.5313 110.20067 130.77899 110.23242 130.875 C 110.2726 130.9961 110.37627 131.02921 110.57031 130.98242 C 111.0534 130.86594 115.13443 130.67841 117.21875 130.67773 C 118.79037 130.67703 122.81195 130.82897 124.52734 130.95312 C 124.76201 130.97013 124.78125 130.93369 124.78125 130.46094 L 124.78125 129.94727 L 123.52734 129.37305 C 122.07522 128.70794 121.12445 128.18853 120.76953 127.86719 L 120.51953 127.64062 L 120.44727 123.25 C 120.40747 120.83486 120.37176 117.38566 120.36719 115.58398 L 120.35742 112.30859 L 123.89258 112.36523 C 126.05689 112.40076 127.59899 112.47586 127.87305 112.55859 C 128.11913 112.63286 128.45214 112.80285 128.61328 112.93555 C 129.01504 113.26633 129.42669 114.2589 130.00977 116.30469 C 130.53967 118.16394 130.68147 118.3884 131.22266 118.21875 C 131.46009 118.14429 131.4923 118.07876 131.48047 117.67383 C 131.46648 117.19733 131.46963 106.3855 131.48438 104.51172 L 131.49414 103.45312 L 131.09766 103.41602 C 130.88052 103.39561 130.65657 103.43232 130.59961 103.49805 C 130.54265 103.56392 130.29851 104.31407 130.05664 105.16406 C 129.47039 107.22439 128.97367 108.40268 128.57422 108.68359 C 128.40244 108.80439 127.98269 108.95958 127.64062 109.02734 C 127.29854 109.09511 125.51274 109.18568 123.67188 109.23047 L 120.32422 109.3125 L 120.38672 102.14648 C 120.42073 98.204826 120.4778 94.891313 120.51367 94.783203 C 120.55423 94.661011 120.75809 94.550506 121.05273 94.492188 C 121.31348 94.440559 123.17395 94.398324 125.1875 94.398438 C 129.24835 94.398664 129.81018 94.4691 130.29688 95.035156 C 130.70611 95.511112 131.4058 96.987888 132.02344 98.679688 C 132.32089 99.49447 132.60336 100.24087 132.65039 100.33789 C 132.70353 100.44753 132.88491 100.51367 133.13086 100.51367 L 133.52734 100.51367 L 133.48828 98.220703 C 133.46712 96.959448 133.42168 94.896024 133.38672 93.634766 L 133.32422 91.341797 L 129.66211 91.400391 C 123.9541 91.492082 113.56746 91.469347 111.73242 91.361328 L 110.07422 91.263672 z M 212.64844 91.263672 L 212.64844 91.716797 L 212.64844 92.169922 L 213.84375 92.738281 C 215.42366 93.49139 216.36421 94.132145 216.58984 94.609375 C 216.75739 94.963781 216.76758 95.968314 216.76758 111.23633 L 216.76758 127.48828 L 216.46289 127.85938 C 216.09492 128.30762 215.33563 128.76393 213.82812 129.44531 C 212.745 129.93489 212.69924 129.97081 212.66797 130.32812 C 212.6502 130.53294 212.66161 130.77898 212.69336 130.875 C 212.73346 130.99587 212.83755 131.02865 213.03125 130.98242 C 213.49598 130.87145 217.7587 130.68101 219.79688 130.67969 C 221.30008 130.67863 225.03213 130.82201 226.88672 130.95312 C 227.11462 130.96938 227.14451 130.92219 227.17188 130.49023 L 227.20117 130.00781 L 225.74805 129.33203 C 224.14489 128.58619 223.26604 128.03891 223.0957 127.67969 C 222.91436 127.29726 222.79664 115.97885 222.86523 105.45312 C 222.89925 100.21405 222.96572 95.611492 223.01172 95.226562 C 223.0813 94.643994 223.1497 94.475692 223.41992 94.214844 C 223.80962 93.838592 224.70161 93.326051 225.98828 92.738281 C 226.51045 92.499755 226.99454 92.251963 227.06445 92.189453 C 227.13437 92.12694 227.19141 91.893383 227.19141 91.669922 L 227.19141 91.263672 L 225.53906 91.361328 C 223.40618 91.48696 216.43561 91.48696 214.30273 91.361328 L 212.64844 91.263672 z M 347.22852 91.263672 L 347.22852 91.716797 L 347.22852 92.169922 L 348.42383 92.738281 C 350.00373 93.49139 350.94233 94.132145 351.16797 94.609375 C 351.33552 94.963781 351.34766 95.968314 351.34766 111.23633 L 351.34766 127.48828 L 351.04102 127.85938 C 350.67304 128.30762 349.9157 128.76393 348.4082 129.44531 C 347.32508 129.93489 347.27737 129.97081 347.24609 130.32812 C 347.22833 130.53294 347.23974 130.77898 347.27148 130.875 C 347.31159 130.99587 347.41567 131.02865 347.60938 130.98242 C 348.07411 130.87145 352.33877 130.68101 354.37695 130.67969 C 355.88016 130.67863 359.61024 130.82201 361.46484 130.95312 C 361.69275 130.96938 361.72264 130.92219 361.75 130.49023 L 361.78125 130.00781 L 360.32617 129.33203 C 358.72301 128.58619 357.84417 128.03891 357.67383 127.67969 C 357.49249 127.29726 357.37671 115.97885 357.44531 105.45312 C 357.47933 100.21405 357.54385 95.611492 357.58984 95.226562 C 357.65942 94.643994 357.72978 94.475692 358 94.214844 C 358.38971 93.838592 359.27973 93.326051 360.56641 92.738281 C 361.08857 92.499755 361.57461 92.251963 361.64453 92.189453 C 361.71445 92.12694 361.77148 91.893383 361.77148 91.669922 L 361.77148 91.263672 L 360.11719 91.361328 C 357.9843 91.48696 351.01375 91.48696 348.88086 91.361328 L 347.22852 91.263672 z M 45.775391 91.265625 L 45.808594 91.708984 L 45.839844 92.152344 L 47.201172 92.828125 C 48.741416 93.591881 49.391127 94.023934 49.681641 94.476562 C 49.860072 94.754585 49.891924 95.076261 49.966797 97.416016 C 50.076857 100.87135 50.074175 120.72047 49.962891 124.5957 C 49.895161 126.95639 49.842909 127.68572 49.724609 127.89453 C 49.516584 128.26175 48.554247 128.83454 47.132812 129.4375 C 45.97195 129.92993 45.93997 129.95317 45.908203 130.32227 C 45.890439 130.53056 45.901846 130.77899 45.933594 130.875 L 45.935547 130.875 C 45.975685 130.99587 46.077821 131.02868 46.271484 130.98242 C 46.74704 130.86885 51.023385 130.6813 53.111328 130.68164 C 55.232682 130.68198 59.487988 130.8675 59.949219 130.98047 C 60.181962 131.03746 60.245346 130.99995 60.328125 130.74805 C 60.512944 130.18585 60.336792 129.97181 59.357422 129.56445 C 57.743469 128.89322 56.871907 128.42568 56.529297 128.04883 L 56.193359 127.67969 L 56.126953 125.69141 C 56.090292 124.59768 56.060547 121.24896 56.060547 118.25 L 56.060547 112.79688 L 57.595703 112.83008 L 59.130859 112.86133 L 60.298828 115.33203 C 62.066336 119.0698 63.876651 123.1757 65.484375 127.0918 L 66.933594 130.61914 L 70.216797 130.70508 C 72.022878 130.7521 74.049531 130.83723 74.720703 130.89453 C 75.594571 130.9691 75.964154 130.96103 76.019531 130.86719 C 76.062013 130.79523 76.085015 130.5788 76.070312 130.38477 C 76.045746 130.05666 75.948527 129.97844 74.697266 129.26758 C 73.957234 128.84718 73.209895 128.34443 73.035156 128.15039 C 72.572689 127.63687 72.067774 126.736 71.089844 124.67969 C 69.106745 120.50982 65.111328 111.73076 65.111328 111.54297 C 65.111328 111.47418 65.236836 111.38173 65.390625 111.33789 C 65.908995 111.19019 67.567207 110.22272 68.197266 109.70117 C 69.555386 108.57698 70.634053 106.92723 71.169922 105.1543 C 71.573787 103.81816 71.730051 102.66581 71.734375 100.98438 C 71.739666 99.001291 71.546365 97.898082 70.941406 96.457031 C 70.552387 95.530325 70.332547 95.177578 69.648438 94.394531 C 68.966426 93.613893 68.638848 93.345647 67.755859 92.837891 C 66.494143 92.112373 65.405302 91.738062 63.738281 91.457031 C 62.658894 91.275085 62.124583 91.262252 59.111328 91.351562 C 54.753416 91.480709 49.67263 91.484881 47.486328 91.361328 L 45.775391 91.265625 z M 92.226562 92.839844 C 92.356994 92.840547 92.48849 92.846461 92.619141 92.857422 C 94.284378 92.99836 95.536291 93.600009 96.652344 94.794922 C 97.041937 95.212023 97.535879 95.849339 97.748047 96.210938 C 99.338215 98.921108 100.15818 102.72601 100.40234 108.51758 C 100.57443 112.59935 100.2935 117.04537 99.673828 120.0625 C 99.203613 122.352 98.469574 124.38534 97.597656 125.80664 C 96.630056 127.38386 95.222888 128.49455 93.736328 128.85547 C 91.779209 129.33064 89.95752 128.74688 88.488281 127.17383 C 87.332388 125.93628 86.569743 124.52984 85.822266 122.26367 C 85.173952 120.29822 84.654621 117.40797 84.431641 114.51758 C 84.293348 112.72499 84.293416 107.93686 84.431641 106.33398 C 84.490223 105.65485 84.6302 104.4611 84.742188 103.67969 C 85.306985 99.737878 86.396686 96.804116 87.992188 94.925781 C 88.556702 94.261189 88.953072 93.914983 89.517578 93.59375 C 90.407785 93.087195 91.313618 92.8358 92.226562 92.839844 z M 245.33789 92.839844 C 245.46832 92.840547 245.5979 92.846461 245.72852 92.857422 C 247.39376 92.99836 248.64761 93.600017 249.76367 94.794922 C 250.15325 95.212008 250.64525 95.849365 250.85742 96.210938 C 252.44759 98.921108 253.26951 102.726 253.51367 108.51758 C 253.68575 112.59935 253.4048 117.04539 252.78516 120.0625 C 252.31494 122.352 251.57896 124.38533 250.70703 125.80664 C 249.73944 127.38386 248.33422 128.49455 246.84766 128.85547 C 244.89055 129.33064 243.06884 128.74688 241.59961 127.17383 C 240.44372 125.93628 239.68109 124.52981 238.93359 122.26367 C 238.28528 120.29819 237.76595 117.40798 237.54297 114.51758 C 237.40471 112.72498 237.40475 107.93684 237.54297 106.33398 C 237.60155 105.65485 237.74153 104.4611 237.85352 103.67969 C 238.41834 99.737867 239.50606 96.804123 241.10156 94.925781 C 241.66608 94.261204 242.06244 93.914983 242.62695 93.59375 C 243.51718 93.087195 244.42494 92.835788 245.33789 92.839844 z M 59.087891 94.083984 C 59.424269 94.086445 59.737591 94.098039 59.992188 94.121094 C 61.118392 94.222725 62.271772 94.600619 63.025391 95.111328 C 63.635138 95.524555 64.516856 96.638009 64.833984 97.396484 C 65.339863 98.606474 65.461202 99.398429 65.453125 101.45508 C 65.447078 102.99112 65.406909 103.50932 65.228516 104.27734 C 65.108327 104.79478 64.842947 105.60892 64.640625 106.08594 C 63.974483 107.65653 62.607493 108.95432 60.992188 109.55078 C 60.71254 109.65404 60.076818 109.81921 59.580078 109.91797 C 59.083365 110.01673 58.08894 110.09766 57.369141 110.09766 L 56.060547 110.09766 L 56.060547 102.22852 L 56.060547 94.359375 L 56.375 94.279297 C 56.859123 94.156311 58.078802 94.076652 59.087891 94.083984 z M 305.79102 99.230469 C 305.82314 99.267508 306.90581 103.13047 308.19727 107.81445 L 310.54492 116.33008 L 305.58203 116.33008 L 300.61719 116.33008 L 301.43164 113.5957 C 301.87956 112.09191 303.03145 108.23079 303.99023 105.01367 C 304.94901 101.79656 305.759 99.193505 305.79102 99.230469 z "
     transform="scale(0.26458333)" />
  <path
     id="path1312"
     style="fill:#000000;fill-opacity:1;stroke:none;stroke-width:0.264583px;stroke-linecap:butt;stroke-linejoin:miter;stroke-opacity:1"
     d="m 185.70753,2.0850058 c -0.74676,-0.00477 -1.49988,0.037702 -2.23655,0.1188559 -0.73667,0.081154 -1.45704,0.2013487 -2.13837,0.350883 -0.0823,0.018053 -0.46612,0.1121378 -0.46612,0.1121378 l -0.12971,1.7249592 -0.24857,-1.6272906 c 0,0 -0.40396,0.1094068 -0.4935,0.1364258 -0.67924,0.2049179 -1.293,0.4385283 -1.81023,0.6893636 -0.17244,0.083637 -0.33373,0.1693056 -0.48369,0.2563151 -0.0129,0.1116211 -0.0237,0.2201011 -0.0331,0.3260781 -0.004,0.041426 -0.007,0.081287 -0.01,0.1219565 -0.006,0.073202 -0.0116,0.146005 -0.016,0.2170409 -3.2e-4,0.00506 -7.3e-4,0.01045 -0.001,0.015503 -0.002,0.035129 -0.003,0.068686 -0.005,0.1033528 -0.003,0.052362 -0.005,0.1051454 -0.008,0.1565796 -0.002,0.046655 -0.004,0.093002 -0.006,0.1390097 -0.0116,0.3318373 -0.0142,0.6505877 -0.0196,0.9725504 -0.003,0.1527897 -0.005,0.3049641 -0.0108,0.4625041 -0.098,-0.7235343 -0.30205,-1.344232 -0.29353,-2.1714438 5.8e-4,-0.055165 0.002,-0.1108483 0.005,-0.1679483 -0.21899,0.1082241 -0.44039,0.2208808 -0.66352,0.337964 -0.22313,0.1170828 -0.44805,0.2385866 -0.67386,0.3648355 -1.35488,0.7575052 -2.7453,1.6824838 -4.0132,2.808614 0.001,0.208721 0.005,0.4159416 0.0124,0.621668 0.007,0.205725 0.0166,0.410097 0.03,0.612365 0.02,0.303401 0.0478,0.602783 0.0848,0.897103 0.0123,0.09811 0.0259,0.195507 0.0403,0.292489 -0.16972,-0.622032 -0.25723,-1.35407 -0.42064,-2.2153689 0,0 -0.30237,0.2669809 -0.70177,0.6309689 -0.1997,0.18199 -0.42331,0.387943 -0.64595,0.59738 -0.22264,0.209441 -0.44389,0.42198 -0.63821,0.6165 -0.0683,0.06837 -0.19711,0.205571 -0.3085,0.325561 -0.11141,0.1199909 -0.20568,0.2227259 -0.20568,0.2227259 0.11397,0.429082 0.23433,0.843021 0.36226,1.238684 0.064,0.197831 0.13009,0.391217 0.19792,0.579809 0.0339,0.0943 0.0684,0.187178 0.10335,0.279053 0.0349,0.09188 0.07,0.182437 0.10594,0.271818 -0.37663,-0.628763 -0.73434,-1.294605 -1.03922,-2.065507 0,0 -0.29288,0.33323 -0.36173,0.413412 -0.1756,0.2045 -0.34541,0.407096 -0.51211,0.608748 -0.0258,0.03115 -0.052,0.06245 -0.0775,0.09353 -0.16026,0.195003 -0.31603,0.388621 -0.46819,0.580843 -0.0238,0.03005 -0.0477,0.05994 -0.0713,0.08992 -0.15512,0.197111 -0.30585,0.392981 -0.45269,0.587045 -0.0129,0.01697 -0.0255,0.03369 -0.0382,0.05064 -0.1483,0.196671 -0.29351,0.39207 -0.43357,0.585494 -0.004,0.006 -0.009,0.0121 -0.0134,0.01809 -0.0178,0.02454 -0.0341,0.04838 -0.0517,0.07286 -0.0638,0.08871 -0.12753,0.177617 -0.18965,0.265617 l 0.001,10e-4 c -0.50809,0.719905 -0.96269,1.417788 -1.36426,2.087211 -0.0457,0.07624 -0.17828,0.301274 -0.17828,0.301274 0.1419,0.4173 0.30628,0.797889 0.48111,1.160653 0.17483,0.362768 0.36003,0.707672 0.54466,1.054199 -0.39706,-0.610733 -0.80126,-1.187915 -1.15858,-1.985408 0,0 -0.12368,0.216875 -0.1633,0.287837 -0.77769,1.392659 -1.33607,2.656465 -1.73994,3.763595 -0.0391,0.107144 -0.14263,0.414961 -0.14263,0.414961 0.21745,0.649811 0.46695,1.235385 0.73071,1.792139 0.10814,0.241074 0.19557,0.431996 0.26458,0.576709 -0.40004,-0.619389 -0.78657,-1.26412 -1.09451,-2.055688 0,0 -0.0725,0.242802 -0.092,0.313676 -0.997,3.632958 0.47416,5.019226 0.29973,5.370215 -0.1902,0.382733 -0.88021,-0.01769 -1.1281,-0.195855 0.11054,0.265729 0.3706,0.467902 0.56327,0.698666 -0.70706,0.271831 -1.06377,0.02218 -1.4087,-0.489892 0.0479,1.020437 0.81957,0.992037 1.43764,1.205093 -0.35074,0.06841 -0.59622,0.326072 -1.11518,0.0925 0.31462,0.62013 1.04347,0.640932 1.45831,0.646991 -0.72471,1.341466 -1.42173,2.715506 -2.09341,4.117059 -1.73064,-0.03108 -3.68909,-0.04509 -6.39961,-0.0021 -6.55663,0.104084 -10.72774,2.874155 -2.55281,3.709334 2.15538,0.156382 6.3933,0.340809 6.90138,0.378788 0.046,0.0034 0.17725,0.0093 0.17725,0.0093 0,0 -0.12518,-0.0452 -0.17001,-0.05633 -0.51032,-0.0742 -4.75228,-0.372731 -6.89415,-0.528134 -8.58309,-1.431679 -1.49593,-3.136771 2.54454,-3.316076 1.84745,-0.05718 3.99713,-0.0295 6.29264,0.0155 -0.60844,1.277239 -1.19604,2.576737 -1.76061,3.898987 l 3.29282,-2.77554 c 0.0985,-0.363802 0.20237,-0.725858 0.31109,-1.086239 1.83472,0.03852 3.71413,0.07706 5.60793,0.08423 3.47325,0.01315 6.91746,-0.102923 9.86038,-0.343649 0.42578,0.201597 1.14758,0.330465 1.80092,0.446484 0.66548,0.118177 1.30287,0.352674 1.89291,0.658876 -0.60241,-0.01575 -1.26433,-0.03157 -1.81798,-0.01654 -1.90657,0.05174 -3.4766,0.289383 -4.41782,0.79375 -0.36481,0.195487 -0.62152,0.45498 -0.72502,0.747239 -0.10351,0.292261 -0.0392,0.61478 0.20981,0.884184 0.49815,0.538808 1.6886,0.914287 3.83439,0.846977 0.82703,-0.02594 1.80268,-0.07594 2.59829,-0.298173 0.39781,-0.111117 0.7515,-0.265009 1.01906,-0.487825 0.26755,-0.222814 0.44663,-0.519748 0.47852,-0.891418 0.0494,-0.575384 -0.21256,-0.950434 -0.59273,-1.292945 1.26912,0.05478 2.60512,0.162438 3.95997,0.325562 6.20519,0.747101 9.46751,2.390624 9.88415,2.600357 0.008,0.0039 0.0951,0.03049 0.0951,0.03049 0,0 -0.0728,-0.05449 -0.0806,-0.05839 -0.41563,-0.20923 -3.634,-2.091087 -9.85108,-2.839622 -1.46306,-0.176152 -2.90642,-0.288759 -4.26589,-0.337963 -0.0632,-0.04258 -0.1185,-0.09184 -0.18603,-0.130226 -0.64136,-0.364479 -1.46701,-0.563858 -2.1854,-0.69143 -0.47571,-0.08447 -1.04578,-0.18805 -1.39165,-0.318844 0.75682,-0.06658 1.68857,-0.150257 2.36317,-0.234093 1.69242,-0.210328 2.9981,-0.491117 3.98425,-0.811837 0.49307,-0.160361 0.88104,-0.333983 1.15187,-0.529166 0.27084,-0.195186 0.38299,-0.42344 0.37258,-0.678511 -0.009,-0.230868 -0.20497,-0.402635 -0.41341,-0.555522 -0.20844,-0.152889 -1.01421,-0.466164 -2.52232,-0.529685 -1.50812,-0.06352 -4.46623,0.16682 -5.44153,0.931209 -0.37282,0.262797 -0.614,0.549188 -0.71675,0.849045 -0.10275,0.299852 -0.0583,0.610608 0.12247,0.887802 0.13913,0.213357 0.31745,0.41253 0.60565,0.58756 -2.87298,0.224684 -6.26664,0.272126 -9.62474,0.259416 -2.17357,-0.0082 -3.82539,-0.05486 -5.54384,-0.09664 0.33726,-1.096155 0.72026,-2.176243 1.1467,-3.239595 0.0567,0.563965 1.04685,0.943319 1.44642,0.941028 -0.35725,-0.387546 -0.25135,-0.959633 -0.51987,-1.403014 0.4634,0.617148 1.51713,0.539445 1.63866,0.01137 -0.56027,0.06799 -1.10017,-0.112025 -0.98495,-0.475941 0.11522,-0.363918 0.68743,-0.320693 0.96273,0.140044 0.14826,-0.937529 -0.67498,-0.740878 -0.78186,-0.929142 1.2421,-0.0392 2.71615,-1.51529 4.36252,-3.585828 0.0415,-0.05222 0.22118,-0.280603 0.22118,-0.280603 -0.5322,-0.06622 -1.03163,-0.219895 -1.53738,-0.356568 l 0.008,-0.0031 c 0.27249,0.04429 0.62206,0.106568 0.9617,0.150895 0.2272,0.03225 0.45604,0.05494 0.68833,0.05426 0,0 0.24834,-0.320728 0.32505,-0.421163 1.01565,-1.3297 2.0904,-2.833862 3.21117,-4.329451 0.0538,-0.07178 0.16175,-0.214974 0.16175,-0.214974 -0.77387,0.06485 -1.50633,-0.111698 -2.25464,-0.19482 0.21102,-0.0058 0.42304,-0.0076 0.63458,-0.0098 0.21155,-0.0022 0.42274,-0.0046 0.63355,-0.01188 0.31622,-0.01091 0.631,-0.03255 0.94207,-0.07906 0.10369,-0.0155 0.20673,-0.03368 0.30954,-0.05529 0,0 0.10057,-0.13152 0.15089,-0.197404 0,0 0,-5.17e-4 0,-5.17e-4 0.25667,-0.336059 0.51519,-0.670001 0.77618,-0.999939 0.15182,-0.191919 0.30792,-0.384206 0.46509,-0.576709 0.0953,-0.116767 0.19223,-0.233465 0.28939,-0.350366 0.0772,-0.09284 0.15475,-0.185642 0.23306,-0.278536 0.0904,-0.107251 0.18106,-0.214668 0.27285,-0.321944 0.1197,-0.139827 0.2413,-0.279315 0.36329,-0.419096 0.0626,-0.07176 0.12441,-0.143764 0.18758,-0.215491 0.1834,-0.208142 0.36816,-0.416093 0.55604,-0.623734 0.0582,-0.06435 0.1757,-0.192753 0.1757,-0.192753 -0.0405,-5.73e-4 -0.0812,-0.0025 -0.12092,-0.0052 0,0 -5.2e-4,0 -5.2e-4,0 -0.51906,-0.03428 -0.97562,-0.23295 -1.46709,-0.344682 -0.0756,-0.01719 -0.15237,-0.03229 -0.22996,-0.04444 0.0896,0.0014 0.18799,0.005 0.29145,0.01033 0.31038,0.01605 0.6686,0.0463 0.98857,0.06511 0.10666,0.0063 0.20893,0.01106 0.30386,0.01395 0.0949,0.0029 0.18261,0.0039 0.25942,0.0015 0.11493,-0.0035 0.20603,-0.01428 0.26251,-0.03462 0,0 5.2e-4,0 5.2e-4,0 0.0186,-0.0068 0.0333,-0.01469 0.0439,-0.02377 0,0 5.2e-4,0 5.2e-4,0 0,0 0.1162,-0.125896 0.17466,-0.188619 0.88458,-0.948959 1.80726,-1.886249 2.74402,-2.796211 0.044,-0.04273 0.25477,-0.240295 0.25477,-0.240295 l -1.12346,-0.228788 c 0,0 0.96743,0.06892 1.22473,0.07131 0.0368,3.44e-4 0.0591,-8.54e-4 0.062,-0.0036 0.0252,-0.02415 0.16996,-0.164503 0.21808,-0.210323 0.17076,-0.162579 0.34198,-0.323789 0.51314,-0.484208 0.10484,-0.09826 0.20981,-0.1951014 0.31471,-0.2924894 0.0932,-0.08648 0.18642,-0.173136 0.27957,-0.258898 0.0806,-0.07418 0.16079,-0.147558 0.24133,-0.221176 0.11098,-0.101443 0.22194,-0.203005 0.3328,-0.30334 0.0864,-0.07822 0.1726,-0.15554 0.2589,-0.233061 0.0943,-0.08467 0.1886,-0.169412 0.28267,-0.253215 0.10698,-0.09531 0.21373,-0.189567 0.32039,-0.283703 0.0814,-0.07186 0.16271,-0.143822 0.24391,-0.214974 0.0948,-0.083097 0.18923,-0.1654286 0.28371,-0.2475304 0.0875,-0.075987 0.17489,-0.1517536 0.262,-0.2268595 0.10831,-0.093395 0.21629,-0.1860328 0.32401,-0.2780192 0.074,-0.063187 0.14801,-0.1261171 0.22169,-0.188619 0.11562,-0.098082 0.23094,-0.1951146 0.34572,-0.291455 0.0538,-0.045174 0.10761,-0.090095 0.16123,-0.1348756 0.12729,-0.1063236 0.25376,-0.211701 0.37982,-0.3157429 0.0555,-0.045773 0.11068,-0.091108 0.16588,-0.1364258 0.1095,-0.089902 0.21869,-0.1790972 0.32711,-0.2671672 0.32342,-0.2627021 0.6428,-0.5184426 0.95498,-0.7637777 0.13022,-0.1023345 0.25805,-0.201123 0.38602,-0.3002399 0.0628,-0.048643 0.12639,-0.097881 0.18862,-0.1457278 0.15207,-0.1169135 0.30322,-0.2326592 0.45166,-0.3446817 0.16655,-0.1256961 0.33036,-0.2481469 0.49195,-0.3674194 0.32319,-0.2385449 0.63609,-0.4642472 0.9369,-0.6754109 l 0.16278,-0.5911784 c -0.78905,-0.2866109 -1.65837,-0.4716682 -2.56418,-0.572589 -0.36233,-0.040365 -0.73063,-0.067151 -1.10174,-0.081649 -0.18556,-0.00725 -0.37193,-0.011725 -0.55863,-0.012919 z m -3.58221,27.5879812 c 0.94478,-0.0041 1.83809,0.07883 2.48926,0.256315 0.32558,0.08874 0.59004,0.201811 0.76791,0.332277 0.17788,0.130471 0.26682,0.269383 0.27337,0.429948 0.007,0.16786 -0.0977,0.387749 -0.34055,0.562758 -0.24284,0.175009 -0.64924,0.364151 -1.1312,0.520899 -0.96392,0.313494 -2.29089,0.577551 -3.9765,0.787032 -0.79078,0.09828 -1.65724,0.170399 -2.56057,0.244946 -0.4037,-0.198258 -0.72069,-0.4845 -0.87281,-0.717786 -0.15335,-0.23518 -0.1856,-0.470736 -0.10129,-0.716753 0.0843,-0.246015 0.29409,-0.504952 0.64441,-0.751891 0.40414,-0.284876 1.03729,-0.527679 1.90169,-0.69143 0.86441,-0.163751 1.96151,-0.25224 2.90628,-0.256315 z m -2.17558,4.626589 c 0.52034,-0.004 1.04079,0.003 1.56063,0.02739 0.46896,0.327576 0.79071,0.680334 0.73846,1.289328 -0.0274,0.319606 -0.17192,0.560671 -0.40773,0.757058 -0.23582,0.196389 -0.56545,0.343088 -0.94671,0.449585 -0.76253,0.212992 -1.72754,0.265618 -2.55126,0.291457 -2.11984,0.06649 -3.26372,-0.330414 -3.6835,-0.78445 -0.20989,-0.227018 -0.25058,-0.455787 -0.1695,-0.684712 0.0811,-0.228923 0.29865,-0.46005 0.63304,-0.639236 0.88254,-0.472919 2.41338,-0.647298 4.30619,-0.698667 0.17344,-0.0036 0.34694,-0.0064 0.52038,-0.0078 z" />
</svg>
