<?xml version="1.0" encoding="UTF-8" standalone="no"?>
<svg
   xmlns:dc="http://purl.org/dc/elements/1.1/"
   xmlns:cc="http://creativecommons.org/ns#"
   xmlns:rdf="http://www.w3.org/1999/02/22-rdf-syntax-ns#"
   xmlns:svg="http://www.w3.org/2000/svg"
   xmlns="http://www.w3.org/2000/svg"
   width="485.21579"
   height="71.5476"
   viewBox="0 0 128.38001 18.930303"
   version="1.1"
   id="svg8">
  <style
     id="style833" />
  <defs
     id="defs2" />
  <metadata
     id="metadata5">
    <rdf:RDF>
      <cc:Work
         rdf:about="">
        <dc:format>image/svg+xml</dc:format>
        <dc:type
           rdf:resource="http://purl.org/dc/dcmitype/StillImage" />
        <dc:title></dc:title>
      </cc:Work>
    </rdf:RDF>
  </metadata>
  <g
     id="layer1"
     transform="translate(-30.693719,102.12435)">
    <g
       id="g2435"
       style="fill:#ffffff">
      <g
         id="g1245"
         transform="matrix(0.4690385,0,0,0.4690385,11.790276,-122.91627)"
         style="stroke-width:2.13202;fill:#ffffff">
        <path
           style="fill:#ffffff;fill-opacity:0.504586;stroke-width:2.13202"
           d="m 69.002893,60.392742 c -0.900105,-0.07967 -1.273779,-0.181358 -1.521482,-0.414063 -0.313253,-0.294285 -1.566357,-0.424633 -4.087684,-0.425199 -2.131358,-5.08e-4 -2.229658,-0.0077 -2.397039,-0.175038 -0.241787,-0.241787 -0.178727,-0.43266 0.204818,-0.619955 0.278415,-0.135957 0.635547,-0.169838 2.420143,-0.229597 1.151443,-0.03856 2.18992,-0.10675 2.307728,-0.151542 0.760141,-0.289004 1.326891,-1.910645 1.085458,-3.105819 -0.200793,-0.993989 -0.596941,-1.642762 -1.704102,-2.790816 -1.173671,-1.217019 -1.448214,-1.690786 -1.494933,-2.579733 -0.03671,-0.698585 0.149032,-1.031693 0.723185,-1.296926 0.362015,-0.167235 0.532281,-0.18417 1.796908,-0.178717 1.578975,0.0068 2.244041,0.139365 3.337198,0.665152 1.353009,0.650771 3.505195,2.537173 4.773853,4.184306 0.550993,0.737703 1.074903,1.491349 1.613474,2.240457 0.335424,0.48971 0.549587,0.935042 0.765374,1.591525 0.32371,0.984813 0.577412,1.09038 2.770353,1.152755 2.475342,0.07041 5.24578,-0.18995 5.756348,-0.540965 0.158071,-0.108673 0.426068,-0.292836 0.595549,-0.409253 0.599759,-0.411974 1.14476,-0.26105 2.243574,0.621298 0.843166,0.677063 1.292626,1.156736 1.231975,1.314791 -0.115777,0.301709 -0.571913,0.326711 -7.085697,0.388381 -6.298891,0.05964 -6.400379,0.06326 -6.942667,0.248216 -0.739195,0.252107 -1.893287,0.417346 -3.611854,0.517134 -1.571062,0.09122 -1.680404,0.09097 -2.78048,-0.0064 z"
           id="path1241" />
        <path
           style="fill:#ffffff;fill-opacity:1;stroke-width:2.13202"
           d="m 52.95856,84.650516 c -0.116417,-0.02097 -0.439174,-0.07936 -0.717238,-0.129755 -0.278064,-0.05039 -0.732276,-0.209614 -1.009358,-0.35382 l -0.503786,-0.262192 -1.741163,0.01549 c -0.957639,0.0085 -1.808353,-0.0058 -1.890475,-0.0319 -0.18922,-0.06006 -0.213874,-0.808331 -0.03162,-0.959591 0.17372,-0.144175 1.374025,-0.260348 2.697469,-0.261078 l 1.164167,-6.43e-4 v -0.374952 c 0,-0.669435 -0.126549,-0.709253 -2.399801,-0.755086 -1.56652,-0.03158 -1.575913,-0.03492 -1.578236,-0.560157 -0.0011,-0.24768 0.07428,-0.364907 0.485537,-0.755148 2.653722,-2.518097 4.560996,-3.437065 7.353618,-3.54314 2.583691,-0.09814 3.096386,0.195732 6.97783,3.999623 0.764187,0.748917 1.153997,1.06919 1.397,1.147791 0.427469,0.138264 6.998224,0.215089 8.003357,0.09357 0.593733,-0.07178 0.732098,-0.123099 1.119896,-0.415375 0.842592,-0.635045 1.123353,-0.683328 1.552848,-0.267046 0.149477,0.144879 0.550928,0.461069 0.892111,0.702645 0.586338,0.415158 0.938141,0.820527 0.817126,0.941541 -0.163754,0.163756 -1.060831,0.205485 -4.512952,0.209935 -4.716593,0.0061 -9.315427,0.125164 -9.642989,0.249703 -0.393403,0.149572 -3.088145,0.83797 -4.173051,1.066046 -0.967254,0.203343 -3.636384,0.35592 -4.260294,0.243535 z m -6.863418,-8.920568 c -0.774683,-0.08158 -0.891847,-0.13958 -1.308108,-0.647571 -0.538784,-0.657515 -0.854929,-0.754526 -2.469454,-0.757764 -1.516664,-0.003 -1.571516,-0.02059 -1.841359,-0.589245 -0.187026,-0.394128 -0.167892,-0.686295 0.05518,-0.84254 0.150417,-0.105356 0.448235,-0.131801 1.484324,-0.131801 1.439953,0 1.539161,-0.04036 1.215743,-0.494556 -0.300437,-0.421925 -0.673125,-0.540741 -1.516719,-0.483543 -1.352654,0.09172 -1.721892,-0.137808 -1.158027,-0.719843 1.034648,-1.067989 3.265309,-2.178377 5.374507,-2.675345 1.594465,-0.375687 4.791681,-0.366543 6.084565,0.0174 0.516292,0.153323 0.911099,0.456265 2.500261,1.918493 1.403893,1.291759 2.177848,1.856453 2.885092,2.105029 0.42977,0.151052 0.717508,0.162647 3.916133,0.157797 4.23186,-0.0064 4.532848,-0.03052 4.979568,-0.398743 0.281489,-0.232026 0.399559,-0.273356 0.780919,-0.273356 0.443956,0 0.455538,0.0066 0.975543,0.558158 0.289439,0.306987 0.707227,0.650529 0.928419,0.763426 0.464009,0.236833 0.539503,0.493059 0.184988,0.627845 -0.130398,0.04958 -1.881156,0.08265 -4.3815,0.08277 -2.290376,8.4e-5 -5.05478,0.02537 -6.143117,0.05615 l -1.978796,0.05595 -0.645871,0.422839 c -0.900541,0.589568 -1.598136,0.899965 -2.225778,0.990372 -1.389591,0.200157 -6.590468,0.374556 -7.696511,0.258084 z M 58.209804,71.14293 c -1.737084,-0.175364 -2.35171,-0.402176 -2.244743,-0.828367 0.08805,-0.35082 0.353736,-0.66437 1.944561,-2.294869 1.93387,-1.982099 2.354235,-2.613382 2.049711,-3.078144 -0.281193,-0.429154 -1.236516,-0.478092 -4.410617,-0.22594 -1.286376,0.102191 -2.737238,0.01848 -3.155678,-0.182071 -0.167254,-0.08017 -0.238811,-0.177541 -0.238811,-0.324986 0,-0.322974 0.411569,-0.471561 2.120146,-0.765426 0.928753,-0.15974 1.718227,-0.345638 2.02852,-0.477657 1.886066,-0.802453 4.510842,-1.272117 7.577667,-1.35591 2.97233,-0.08121 4.253527,0.156598 6.011334,1.115788 0.537815,0.293473 1.938149,0.471783 4.148666,0.528267 2.31346,0.05911 2.821914,-0.01152 3.493835,-0.485373 1.098536,-0.774709 1.630216,-0.785618 2.550121,-0.05232 0.166898,0.133041 0.636616,0.418791 1.043819,0.635 0.76822,0.407895 1.013596,0.676795 0.8672,0.95034 -0.189421,0.353935 -0.383621,0.366886 -6.219308,0.414745 -5.082904,0.04169 -5.622188,0.05939 -5.966226,0.195825 -1.143062,0.453317 -1.426216,0.823192 -1.740012,2.272923 -0.598522,2.765156 -1.194826,3.408294 -3.56895,3.849258 -0.894047,0.166058 -5.018001,0.237456 -6.291235,0.108919 z M 78.729627,55.578017 c -0.145163,-0.03466 -0.435101,-0.14587 -0.644306,-0.247144 -0.332002,-0.16072 -0.551457,-0.187582 -1.725733,-0.21124 -1.697373,-0.03419 -2.306285,-0.239687 -1.932877,-0.652299 0.18643,-0.206001 0.543073,-0.300088 1.554999,-0.410227 1.374242,-0.149573 1.998814,-0.603012 2.213716,-1.607156 0.180026,-0.841183 -0.158883,-2.222197 -0.882695,-3.596875 C 76.669877,47.632154 76.025612,47.278381 74.076834,47.076209 72.92835,46.957062 72.578891,46.806368 72.2174,46.274386 71.95281,45.885007 71.945814,45.543127 72.19906,45.3782 c 0.3058,-0.199153 1.640866,-0.61658 2.6035,-0.814021 4.097426,-0.840403 8.481534,0.628203 10.371185,3.474181 0.417364,0.628584 1.403238,2.591256 1.829354,3.641862 0.613348,1.512236 0.79913,1.569687 5.019422,1.55219 l 3.12296,-0.01295 0.508432,-0.262219 c 0.899009,-0.463654 1.184643,-0.385316 2.407834,0.660378 0.196268,0.167788 0.491543,0.413598 0.656166,0.546242 0.347495,0.279995 0.373957,0.425731 0.108814,0.599288 -0.164754,0.107844 -0.522338,0.112689 -2.645833,0.03585 -2.799496,-0.101304 -7.520661,-0.04791 -8.339667,0.09432 -0.302683,0.05256 -1.027605,0.207188 -1.610937,0.343609 -0.583333,0.136421 -1.497733,0.286727 -2.032001,0.334012 -1.102415,0.09757 -5.068114,0.102703 -5.468662,0.0071 z"
           id="path1243" />
      </g>
      <g
         aria-label="Nordisk Administrativt Tidsskrift"
         id="text1251"
         style="font-style:normal;font-variant:normal;font-weight:600;font-stretch:normal;font-size:8.65141px;line-height:1.05;font-family:'Open Sans';-inkscape-font-specification:'Open Sans, Semi-Bold';font-variant-ligatures:normal;font-variant-caps:normal;font-variant-numeric:normal;font-variant-east-asian:normal;letter-spacing:0px;word-spacing:0px;stroke-width:0.264583;fill:#ffffff">
        <path
           d="M 70.358757,-93.198135 H 69.12103 l -3.037287,-4.921335 h -0.03379 l 0.02112,0.274581 q 0.05914,0.785724 0.05914,1.436269 v 3.210485 h -0.916678 v -6.175958 h 1.225053 l 3.028839,4.895988 h 0.02535 q -0.0084,-0.09716 -0.03379,-0.705461 -0.02535,-0.612527 -0.02535,-0.954697 v -3.23583 h 0.925127 z"
           style="font-style:normal;font-variant:normal;font-weight:600;font-stretch:normal;font-size:8.65141px;font-family:'Open Sans';-inkscape-font-specification:'Open Sans, Semi-Bold';font-variant-ligatures:normal;font-variant-caps:normal;font-variant-numeric:normal;font-variant-east-asian:normal;stroke-width:0.264583;fill:#ffffff"
           id="path1346" />
        <path
           d="m 76.027796,-95.542634 q 0,1.144791 -0.587181,1.786888 -0.587181,0.642097 -1.634812,0.642097 -0.65477,0 -1.157465,-0.295702 -0.502694,-0.295703 -0.77305,-0.849089 -0.270357,-0.553386 -0.270357,-1.284194 0,-1.136342 0.582956,-1.774215 0.582957,-0.637872 1.643261,-0.637872 1.013838,0 1.605243,0.65477 0.591405,0.650545 0.591405,1.757317 z m -3.400579,0 q 0,1.617915 1.195483,1.617915 1.18281,0 1.18281,-1.617915 0,-1.601018 -1.191259,-1.601018 -0.625199,0 -0.908229,0.413984 -0.278805,0.413983 -0.278805,1.187034 z"
           style="font-style:normal;font-variant:normal;font-weight:600;font-stretch:normal;font-size:8.65141px;font-family:'Open Sans';-inkscape-font-specification:'Open Sans, Semi-Bold';font-variant-ligatures:normal;font-variant-caps:normal;font-variant-numeric:normal;font-variant-east-asian:normal;stroke-width:0.264583;fill:#ffffff"
           id="path1348" />
        <path
           d="m 79.538207,-97.954721 q 0.299926,0 0.494245,0.04224 l -0.09716,0.925126 q -0.211216,-0.05069 -0.43933,-0.05069 -0.595629,0 -0.967369,0.388637 -0.367516,0.388638 -0.367516,1.009613 v 2.441658 h -0.992716 v -4.6721 h 0.777275 l 0.130954,0.823743 h 0.05069 q 0.232338,-0.418208 0.604078,-0.663219 0.375965,-0.24501 0.806846,-0.24501 z"
           style="font-style:normal;font-variant:normal;font-weight:600;font-stretch:normal;font-size:8.65141px;font-family:'Open Sans';-inkscape-font-specification:'Open Sans, Semi-Bold';font-variant-ligatures:normal;font-variant-caps:normal;font-variant-numeric:normal;font-variant-east-asian:normal;stroke-width:0.264583;fill:#ffffff"
           id="path1350" />
        <path
           d="m 82.47411,-93.113649 q -0.874434,0 -1.364456,-0.633648 -0.490021,-0.633648 -0.490021,-1.778439 0,-1.149016 0.494246,-1.786888 0.498469,-0.642097 1.377128,-0.642097 0.920902,0 1.402475,0.680116 h 0.05069 q -0.07181,-0.502695 -0.07181,-0.794173 v -1.702401 h 0.99694 v 6.573044 h -0.777275 l -0.173197,-0.612527 h -0.04647 q -0.477348,0.697013 -1.39825,0.697013 z m 0.266132,-0.802621 q 0.612527,0 0.891332,-0.34217 0.278805,-0.346394 0.287254,-1.119445 v -0.139403 q 0,-0.882883 -0.287254,-1.254623 -0.287254,-0.371741 -0.89978,-0.371741 -0.523816,0 -0.806846,0.426657 -0.283029,0.422432 -0.283029,1.208156 0,0.777275 0.274581,1.187034 0.27458,0.405535 0.823742,0.405535 z"
           style="font-style:normal;font-variant:normal;font-weight:600;font-stretch:normal;font-size:8.65141px;font-family:'Open Sans';-inkscape-font-specification:'Open Sans, Semi-Bold';font-variant-ligatures:normal;font-variant-caps:normal;font-variant-numeric:normal;font-variant-east-asian:normal;stroke-width:0.264583;fill:#ffffff"
           id="path1352" />
        <path
           d="m 87.281389,-93.198135 h -0.992716 v -4.6721 h 0.992716 z m -1.051856,-5.909826 q 0,-0.266132 0.143627,-0.409759 0.147851,-0.143627 0.418207,-0.143627 0.261908,0 0.405535,0.143627 0.147851,0.143627 0.147851,0.409759 0,0.253459 -0.147851,0.401311 -0.143627,0.143627 -0.405535,0.143627 -0.270356,0 -0.418207,-0.143627 -0.143627,-0.147852 -0.143627,-0.401311 z"
           style="font-style:normal;font-variant:normal;font-weight:600;font-stretch:normal;font-size:8.65141px;font-family:'Open Sans';-inkscape-font-specification:'Open Sans, Semi-Bold';font-variant-ligatures:normal;font-variant-caps:normal;font-variant-numeric:normal;font-variant-east-asian:normal;stroke-width:0.264583;fill:#ffffff"
           id="path1354" />
        <path
           d="m 91.83943,-94.528797 q 0,0.68434 -0.49847,1.051856 -0.498469,0.363292 -1.42782,0.363292 -0.933575,0 -1.499634,-0.283029 v -0.857538 q 0.823742,0.380189 1.533428,0.380189 0.916678,0 0.916678,-0.553386 0,-0.177421 -0.101384,-0.295702 -0.101383,-0.118281 -0.333721,-0.245011 -0.232338,-0.12673 -0.646321,-0.287254 -0.806846,-0.3126 -1.094099,-0.625199 -0.28303,-0.3126 -0.28303,-0.81107 0,-0.599854 0.481573,-0.929351 0.485797,-0.333721 1.317988,-0.333721 0.823743,0 1.558775,0.333721 l -0.321049,0.747705 q -0.756153,-0.3126 -1.271521,-0.3126 -0.785723,0 -0.785723,0.447778 0,0.219665 0.202767,0.371741 0.206992,0.152075 0.895556,0.418207 0.578732,0.223889 0.84064,0.40976 0.261908,0.18587 0.388638,0.43088 0.126729,0.240787 0.126729,0.578732 z"
           style="font-style:normal;font-variant:normal;font-weight:600;font-stretch:normal;font-size:8.65141px;font-family:'Open Sans';-inkscape-font-specification:'Open Sans, Semi-Bold';font-variant-ligatures:normal;font-variant-caps:normal;font-variant-numeric:normal;font-variant-east-asian:normal;stroke-width:0.264583;fill:#ffffff"
           id="path1356" />
        <path
           d="m 93.871329,-95.665139 0.561835,-0.701237 1.410924,-1.503859 h 1.144791 l -1.879823,2.006553 1.998104,2.665547 h -1.165913 l -1.499634,-2.048796 -0.544938,0.447778 v 1.601018 h -0.984266 v -6.573044 h 0.984266 v 3.20626 l -0.05069,0.89978 z"
           style="font-style:normal;font-variant:normal;font-weight:600;font-stretch:normal;font-size:8.65141px;font-family:'Open Sans';-inkscape-font-specification:'Open Sans, Semi-Bold';font-variant-ligatures:normal;font-variant-caps:normal;font-variant-numeric:normal;font-variant-east-asian:normal;stroke-width:0.264583;fill:#ffffff"
           id="path1358" />
        <path
           d="m 104.04349,-93.198135 -0.61675,-1.715075 h -2.36139 l -0.60408,1.715075 h -1.06453 l 2.3107,-6.201304 h 1.09833 l 2.3107,6.201304 z m -0.88288,-2.585285 -0.57873,-1.68128 q -0.0634,-0.168973 -0.17742,-0.532264 -0.10984,-0.363292 -0.15208,-0.532265 -0.11406,0.519592 -0.33372,1.136343 l -0.55761,1.609466 z"
           style="font-style:normal;font-variant:normal;font-weight:600;font-stretch:normal;font-size:8.65141px;font-family:'Open Sans';-inkscape-font-specification:'Open Sans, Semi-Bold';font-variant-ligatures:normal;font-variant-caps:normal;font-variant-numeric:normal;font-variant-east-asian:normal;stroke-width:0.264583;fill:#ffffff"
           id="path1360" />
        <path
           d="m 107.40183,-93.113649 q -0.87443,0 -1.36445,-0.633648 -0.49003,-0.633648 -0.49003,-1.778439 0,-1.149016 0.49425,-1.786888 0.49847,-0.642097 1.37713,-0.642097 0.9209,0 1.40247,0.680116 h 0.0507 q -0.0718,-0.502695 -0.0718,-0.794173 v -1.702401 h 0.99694 v 6.573044 h -0.77727 l -0.1732,-0.612527 h -0.0465 q -0.47735,0.697013 -1.39825,0.697013 z m 0.26613,-0.802621 q 0.61253,0 0.89134,-0.34217 0.2788,-0.346394 0.28725,-1.119445 v -0.139403 q 0,-0.882883 -0.28725,-1.254623 -0.28726,-0.371741 -0.89978,-0.371741 -0.52382,0 -0.80685,0.426657 -0.28303,0.422432 -0.28303,1.208156 0,0.777275 0.27458,1.187034 0.27458,0.405535 0.82374,0.405535 z"
           style="font-style:normal;font-variant:normal;font-weight:600;font-stretch:normal;font-size:8.65141px;font-family:'Open Sans';-inkscape-font-specification:'Open Sans, Semi-Bold';font-variant-ligatures:normal;font-variant-caps:normal;font-variant-numeric:normal;font-variant-east-asian:normal;stroke-width:0.264583;fill:#ffffff"
           id="path1362" />
        <path
           d="m 115.15346,-93.198135 h -0.99694 v -2.880988 q 0,-0.536488 -0.20277,-0.798396 -0.20276,-0.266133 -0.63365,-0.266133 -0.5745,0 -0.84486,0.375965 -0.26613,0.37174 -0.26613,1.241951 v 2.327601 h -0.99272 v -4.6721 h 0.77728 l 0.1394,0.612527 h 0.0507 q 0.19432,-0.333722 0.56184,-0.515367 0.37174,-0.181646 0.81529,-0.181646 1.0772,0 1.42782,0.735032 h 0.0676 q 0.20699,-0.346395 0.58296,-0.540713 0.37596,-0.194319 0.86176,-0.194319 0.83641,0 1.2166,0.422432 0.38442,0.422432 0.38442,1.288418 v 3.045736 h -0.99272 v -2.880988 q 0,-0.536488 -0.20699,-0.798396 -0.20277,-0.266133 -0.63365,-0.266133 -0.57873,0 -0.84909,0.363292 -0.26613,0.359067 -0.26613,1.106772 z"
           style="font-style:normal;font-variant:normal;font-weight:600;font-stretch:normal;font-size:8.65141px;font-family:'Open Sans';-inkscape-font-specification:'Open Sans, Semi-Bold';font-variant-ligatures:normal;font-variant-caps:normal;font-variant-numeric:normal;font-variant-east-asian:normal;stroke-width:0.264583;fill:#ffffff"
           id="path1364" />
        <path
           d="m 120.48033,-93.198135 h -0.99272 v -4.6721 h 0.99272 z m -1.05186,-5.909826 q 0,-0.266132 0.14363,-0.409759 0.14785,-0.143627 0.41821,-0.143627 0.26191,0 0.40553,0.143627 0.14785,0.143627 0.14785,0.409759 0,0.253459 -0.14785,0.401311 -0.14362,0.143627 -0.40553,0.143627 -0.27036,0 -0.41821,-0.143627 -0.14363,-0.147852 -0.14363,-0.401311 z"
           style="font-style:normal;font-variant:normal;font-weight:600;font-stretch:normal;font-size:8.65141px;font-family:'Open Sans';-inkscape-font-specification:'Open Sans, Semi-Bold';font-variant-ligatures:normal;font-variant-caps:normal;font-variant-numeric:normal;font-variant-east-asian:normal;stroke-width:0.264583;fill:#ffffff"
           id="path1366" />
        <path
           d="m 126.00996,-93.198135 h -0.99694 v -2.872539 q 0,-0.540713 -0.21966,-0.806845 -0.21544,-0.266133 -0.68856,-0.266133 -0.62943,0 -0.92091,0.371741 -0.29147,0.37174 -0.29147,1.246175 v 2.327601 h -0.99272 v -4.6721 h 0.77727 l 0.13941,0.612527 h 0.0507 q 0.21122,-0.333722 0.59985,-0.515367 0.38864,-0.181646 0.86176,-0.181646 1.68128,0 1.68128,1.71085 z"
           style="font-style:normal;font-variant:normal;font-weight:600;font-stretch:normal;font-size:8.65141px;font-family:'Open Sans';-inkscape-font-specification:'Open Sans, Semi-Bold';font-variant-ligatures:normal;font-variant-caps:normal;font-variant-numeric:normal;font-variant-east-asian:normal;stroke-width:0.264583;fill:#ffffff"
           id="path1368" />
        <path
           d="m 128.38403,-93.198135 h -0.99271 v -4.6721 h 0.99271 z m -1.05185,-5.909826 q 0,-0.266132 0.14363,-0.409759 0.14785,-0.143627 0.4182,-0.143627 0.26191,0 0.40554,0.143627 0.14785,0.143627 0.14785,0.409759 0,0.253459 -0.14785,0.401311 -0.14363,0.143627 -0.40554,0.143627 -0.27035,0 -0.4182,-0.143627 -0.14363,-0.147852 -0.14363,-0.401311 z"
           style="font-style:normal;font-variant:normal;font-weight:600;font-stretch:normal;font-size:8.65141px;font-family:'Open Sans';-inkscape-font-specification:'Open Sans, Semi-Bold';font-variant-ligatures:normal;font-variant-caps:normal;font-variant-numeric:normal;font-variant-east-asian:normal;stroke-width:0.264583;fill:#ffffff"
           id="path1370" />
        <path
           d="m 132.94208,-94.528797 q 0,0.68434 -0.49847,1.051856 -0.49847,0.363292 -1.42782,0.363292 -0.93358,0 -1.49964,-0.283029 v -0.857538 q 0.82374,0.380189 1.53343,0.380189 0.91668,0 0.91668,-0.553386 0,-0.177421 -0.10139,-0.295702 -0.10138,-0.118281 -0.33372,-0.245011 -0.23233,-0.12673 -0.64632,-0.287254 -0.80684,-0.3126 -1.0941,-0.625199 -0.28303,-0.3126 -0.28303,-0.81107 0,-0.599854 0.48158,-0.929351 0.48579,-0.333721 1.31798,-0.333721 0.82375,0 1.55878,0.333721 l -0.32105,0.747705 q -0.75615,-0.3126 -1.27152,-0.3126 -0.78572,0 -0.78572,0.447778 0,0.219665 0.20276,0.371741 0.20699,0.152075 0.89556,0.418207 0.57873,0.223889 0.84064,0.40976 0.26191,0.18587 0.38864,0.43088 0.12673,0.240787 0.12673,0.578732 z"
           style="font-style:normal;font-variant:normal;font-weight:600;font-stretch:normal;font-size:8.65141px;font-family:'Open Sans';-inkscape-font-specification:'Open Sans, Semi-Bold';font-variant-ligatures:normal;font-variant-caps:normal;font-variant-numeric:normal;font-variant-east-asian:normal;stroke-width:0.264583;fill:#ffffff"
           id="path1372" />
        <path
           d="m 135.75547,-93.91627 q 0.36329,0 0.72659,-0.114057 v 0.747705 q -0.16475,0.07181 -0.42666,0.118281 -0.25768,0.05069 -0.53649,0.05069 -1.41092,0 -1.41092,-1.486961 v -2.517696 h -0.63787 v -0.439329 l 0.68434,-0.363292 0.33794,-0.988491 h 0.61253 v 1.039183 h 1.33066 v 0.751929 h -1.33066 v 2.500799 q 0,0.359067 0.17742,0.532264 0.18164,0.168973 0.47312,0.168973 z"
           style="font-style:normal;font-variant:normal;font-weight:600;font-stretch:normal;font-size:8.65141px;font-family:'Open Sans';-inkscape-font-specification:'Open Sans, Semi-Bold';font-variant-ligatures:normal;font-variant-caps:normal;font-variant-numeric:normal;font-variant-east-asian:normal;stroke-width:0.264583;fill:#ffffff"
           id="path1374" />
        <path
           d="m 139.78548,-97.954721 q 0.29992,0 0.49424,0.04224 l -0.0972,0.925126 q -0.21121,-0.05069 -0.43933,-0.05069 -0.59562,0 -0.96736,0.388637 -0.36752,0.388638 -0.36752,1.009613 v 2.441658 h -0.99272 v -4.6721 h 0.77728 l 0.13095,0.823743 h 0.0507 q 0.23234,-0.418208 0.60408,-0.663219 0.37597,-0.24501 0.80685,-0.24501 z"
           style="font-style:normal;font-variant:normal;font-weight:600;font-stretch:normal;font-size:8.65141px;font-family:'Open Sans';-inkscape-font-specification:'Open Sans, Semi-Bold';font-variant-ligatures:normal;font-variant-caps:normal;font-variant-numeric:normal;font-variant-east-asian:normal;stroke-width:0.264583;fill:#ffffff"
           id="path1376" />
        <path
           d="m 144.06894,-93.198135 -0.19855,-0.650546 h -0.0338 q -0.33795,0.426657 -0.68012,0.582956 -0.34217,0.152076 -0.87866,0.152076 -0.68856,0 -1.0772,-0.37174 -0.38441,-0.371741 -0.38441,-1.051856 0,-0.722359 0.53649,-1.089875 0.53649,-0.367516 1.63481,-0.401311 l 0.80685,-0.02535 v -0.249235 q 0,-0.447778 -0.21122,-0.667442 -0.20699,-0.223889 -0.64632,-0.223889 -0.35907,0 -0.68857,0.105608 -0.32949,0.105608 -0.63364,0.249235 l -0.32105,-0.709686 q 0.38019,-0.198543 0.83219,-0.299927 0.452,-0.105608 0.85331,-0.105608 0.89133,0 1.34334,0.388637 0.45622,0.388638 0.45622,1.220829 v 3.14712 z m -1.47852,-0.675892 q 0.54072,0 0.86599,-0.299927 0.3295,-0.304151 0.3295,-0.849088 v -0.405535 l -0.59986,0.02535 q -0.70123,0.02535 -1.02228,0.236562 -0.31683,0.206992 -0.31683,0.637872 0,0.3126 0.18587,0.485797 0.18587,0.168973 0.55761,0.168973 z"
           style="font-style:normal;font-variant:normal;font-weight:600;font-stretch:normal;font-size:8.65141px;font-family:'Open Sans';-inkscape-font-specification:'Open Sans, Semi-Bold';font-variant-ligatures:normal;font-variant-caps:normal;font-variant-numeric:normal;font-variant-east-asian:normal;stroke-width:0.264583;fill:#ffffff"
           id="path1378" />
        <path
           d="m 147.90462,-93.91627 q 0.36329,0 0.72658,-0.114057 v 0.747705 q -0.16475,0.07181 -0.42665,0.118281 -0.25769,0.05069 -0.53649,0.05069 -1.41093,0 -1.41093,-1.486961 v -2.517696 h -0.63787 v -0.439329 l 0.68434,-0.363292 0.33795,-0.988491 h 0.61252 v 1.039183 h 1.33067 v 0.751929 h -1.33067 v 2.500799 q 0,0.359067 0.17743,0.532264 0.18164,0.168973 0.47312,0.168973 z"
           style="font-style:normal;font-variant:normal;font-weight:600;font-stretch:normal;font-size:8.65141px;font-family:'Open Sans';-inkscape-font-specification:'Open Sans, Semi-Bold';font-variant-ligatures:normal;font-variant-caps:normal;font-variant-numeric:normal;font-variant-east-asian:normal;stroke-width:0.264583;fill:#ffffff"
           id="path1380" />
        <path
           d="m 150.5575,-93.198135 h -0.99272 v -4.6721 h 0.99272 z m -1.05186,-5.909826 q 0,-0.266132 0.14363,-0.409759 0.14785,-0.143627 0.41821,-0.143627 0.2619,0 0.40553,0.143627 0.14785,0.143627 0.14785,0.409759 0,0.253459 -0.14785,0.401311 -0.14363,0.143627 -0.40553,0.143627 -0.27036,0 -0.41821,-0.143627 -0.14363,-0.147852 -0.14363,-0.401311 z"
           style="font-style:normal;font-variant:normal;font-weight:600;font-stretch:normal;font-size:8.65141px;font-family:'Open Sans';-inkscape-font-specification:'Open Sans, Semi-Bold';font-variant-ligatures:normal;font-variant-caps:normal;font-variant-numeric:normal;font-variant-east-asian:normal;stroke-width:0.264583;fill:#ffffff"
           id="path1382" />
        <path
           d="m 153.0414,-93.198135 -1.77422,-4.6721 h 1.04763 l 0.95048,2.716239 q 0.24501,0.68434 0.2957,1.106772 h 0.0338 q 0.038,-0.304151 0.2957,-1.106772 l 0.95048,-2.716239 h 1.05608 l -1.78267,4.6721 z"
           style="font-style:normal;font-variant:normal;font-weight:600;font-stretch:normal;font-size:8.65141px;font-family:'Open Sans';-inkscape-font-specification:'Open Sans, Semi-Bold';font-variant-ligatures:normal;font-variant-caps:normal;font-variant-numeric:normal;font-variant-east-asian:normal;stroke-width:0.264583;fill:#ffffff"
           id="path1384" />
        <path
           d="m 158.34715,-93.91627 q 0.36329,0 0.72658,-0.114057 v 0.747705 q -0.16475,0.07181 -0.42666,0.118281 -0.25768,0.05069 -0.53648,0.05069 -1.41093,0 -1.41093,-1.486961 v -2.517696 h -0.63787 v -0.439329 l 0.68434,-0.363292 0.33795,-0.988491 h 0.61252 v 1.039183 h 1.33066 v 0.751929 h -1.33066 v 2.500799 q 0,0.359067 0.17742,0.532264 0.18165,0.168973 0.47313,0.168973 z"
           style="font-style:normal;font-variant:normal;font-weight:600;font-stretch:normal;font-size:8.65141px;font-family:'Open Sans';-inkscape-font-specification:'Open Sans, Semi-Bold';font-variant-ligatures:normal;font-variant-caps:normal;font-variant-numeric:normal;font-variant-east-asian:normal;stroke-width:0.264583;fill:#ffffff"
           id="path1386" />
        <path
           d="m 67.346815,-84.114155 h -1.009612 v -5.309972 h -1.816459 v -0.865986 h 4.64253 v 0.865986 h -1.816459 z"
           style="font-style:normal;font-variant:normal;font-weight:600;font-stretch:normal;font-size:8.65141px;font-family:'Open Sans';-inkscape-font-specification:'Open Sans, Semi-Bold';font-variant-ligatures:normal;font-variant-caps:normal;font-variant-numeric:normal;font-variant-east-asian:normal;stroke-width:0.264583;fill:#ffffff"
           id="path1388" />
        <path
           d="m 70.996629,-84.114155 h -0.992715 v -4.6721 h 0.992715 z m -1.051856,-5.909826 q 0,-0.266132 0.143627,-0.409759 0.147851,-0.143627 0.418208,-0.143627 0.261908,0 0.405535,0.143627 0.147851,0.143627 0.147851,0.409759 0,0.25346 -0.147851,0.401311 -0.143627,0.143627 -0.405535,0.143627 -0.270357,0 -0.418208,-0.143627 -0.143627,-0.147851 -0.143627,-0.401311 z"
           style="font-style:normal;font-variant:normal;font-weight:600;font-stretch:normal;font-size:8.65141px;font-family:'Open Sans';-inkscape-font-specification:'Open Sans, Semi-Bold';font-variant-ligatures:normal;font-variant-caps:normal;font-variant-numeric:normal;font-variant-east-asian:normal;stroke-width:0.264583;fill:#ffffff"
           id="path1390" />
        <path
           d="m 73.991673,-84.029669 q -0.874435,0 -1.364456,-0.633648 -0.490021,-0.633648 -0.490021,-1.778439 0,-1.149016 0.494245,-1.786888 0.49847,-0.642097 1.377129,-0.642097 0.920902,0 1.402475,0.680116 h 0.05069 q -0.07181,-0.502695 -0.07181,-0.794173 v -1.702401 h 0.99694 v 6.573044 H 75.60959 l -0.173197,-0.612527 h -0.04647 q -0.477348,0.697013 -1.39825,0.697013 z m 0.266132,-0.802621 q 0.612527,0 0.891332,-0.34217 0.278805,-0.346394 0.287254,-1.119445 v -0.139403 q 0,-0.882883 -0.287254,-1.254623 -0.287254,-0.37174 -0.899781,-0.37174 -0.523815,0 -0.806845,0.426656 -0.283029,0.422432 -0.283029,1.208156 0,0.777275 0.27458,1.187034 0.274581,0.405535 0.823743,0.405535 z"
           style="font-style:normal;font-variant:normal;font-weight:600;font-stretch:normal;font-size:8.65141px;font-family:'Open Sans';-inkscape-font-specification:'Open Sans, Semi-Bold';font-variant-ligatures:normal;font-variant-caps:normal;font-variant-numeric:normal;font-variant-east-asian:normal;stroke-width:0.264583;fill:#ffffff"
           id="path1392" />
        <path
           d="m 80.944906,-85.444816 q 0,0.68434 -0.49847,1.051856 -0.49847,0.363291 -1.427821,0.363291 -0.933575,0 -1.499634,-0.283029 v -0.857538 q 0.823743,0.380189 1.533429,0.380189 0.916678,0 0.916678,-0.553386 0,-0.177421 -0.101384,-0.295702 -0.101384,-0.118281 -0.333722,-0.245011 -0.232337,-0.126729 -0.646321,-0.287254 -0.806845,-0.312599 -1.094099,-0.625199 -0.283029,-0.3126 -0.283029,-0.81107 0,-0.599854 0.481572,-0.929351 0.485797,-0.333721 1.317988,-0.333721 0.823743,0 1.558775,0.333721 l -0.321048,0.747705 q -0.756154,-0.3126 -1.271521,-0.3126 -0.785724,0 -0.785724,0.447779 0,0.219664 0.202768,0.37174 0.206991,0.152075 0.895556,0.418208 0.578732,0.223889 0.84064,0.409759 0.261907,0.18587 0.388637,0.430881 0.12673,0.240786 0.12673,0.578732 z"
           style="font-style:normal;font-variant:normal;font-weight:600;font-stretch:normal;font-size:8.65141px;font-family:'Open Sans';-inkscape-font-specification:'Open Sans, Semi-Bold';font-variant-ligatures:normal;font-variant-caps:normal;font-variant-numeric:normal;font-variant-east-asian:normal;stroke-width:0.264583;fill:#ffffff"
           id="path1394" />
        <path
           d="m 85.156554,-85.444816 q 0,0.68434 -0.49847,1.051856 -0.49847,0.363291 -1.427821,0.363291 -0.933575,0 -1.499634,-0.283029 v -0.857538 q 0.823743,0.380189 1.533429,0.380189 0.916678,0 0.916678,-0.553386 0,-0.177421 -0.101384,-0.295702 -0.101384,-0.118281 -0.333722,-0.245011 -0.232337,-0.126729 -0.646321,-0.287254 -0.806845,-0.312599 -1.094099,-0.625199 -0.283029,-0.3126 -0.283029,-0.81107 0,-0.599854 0.481572,-0.929351 0.485797,-0.333721 1.317988,-0.333721 0.823743,0 1.558775,0.333721 l -0.321048,0.747705 q -0.756154,-0.3126 -1.271521,-0.3126 -0.785724,0 -0.785724,0.447779 0,0.219664 0.202767,0.37174 0.206992,0.152075 0.895557,0.418208 0.578732,0.223889 0.84064,0.409759 0.261907,0.18587 0.388637,0.430881 0.12673,0.240786 0.12673,0.578732 z"
           style="font-style:normal;font-variant:normal;font-weight:600;font-stretch:normal;font-size:8.65141px;font-family:'Open Sans';-inkscape-font-specification:'Open Sans, Semi-Bold';font-variant-ligatures:normal;font-variant-caps:normal;font-variant-numeric:normal;font-variant-east-asian:normal;stroke-width:0.264583;fill:#ffffff"
           id="path1396" />
        <path
           d="m 87.188453,-86.581159 0.561835,-0.701237 1.410923,-1.503859 h 1.144791 l -1.879823,2.006553 1.998104,2.665547 H 89.25837 l -1.499634,-2.048796 -0.544937,0.447778 v 1.601018 h -0.984267 v -6.573044 h 0.984267 v 3.20626 l -0.05069,0.89978 z"
           style="font-style:normal;font-variant:normal;font-weight:600;font-stretch:normal;font-size:8.65141px;font-family:'Open Sans';-inkscape-font-specification:'Open Sans, Semi-Bold';font-variant-ligatures:normal;font-variant-caps:normal;font-variant-numeric:normal;font-variant-east-asian:normal;stroke-width:0.264583;fill:#ffffff"
           id="path1398" />
        <path
           d="m 93.546056,-88.870741 q 0.299927,0 0.494246,0.04224 l -0.09716,0.925127 q -0.211216,-0.05069 -0.439329,-0.05069 -0.595629,0 -0.96737,0.388637 -0.367515,0.388638 -0.367515,1.009613 v 2.441658 h -0.992716 v -4.6721 h 0.777275 l 0.130954,0.823743 h 0.05069 q 0.232338,-0.418208 0.604078,-0.663218 0.375965,-0.245011 0.806845,-0.245011 z"
           style="font-style:normal;font-variant:normal;font-weight:600;font-stretch:normal;font-size:8.65141px;font-family:'Open Sans';-inkscape-font-specification:'Open Sans, Semi-Bold';font-variant-ligatures:normal;font-variant-caps:normal;font-variant-numeric:normal;font-variant-east-asian:normal;stroke-width:0.264583;fill:#ffffff"
           id="path1400" />
        <path
           d="m 95.899003,-84.114155 h -0.992715 v -4.6721 h 0.992715 z m -1.051856,-5.909826 q 0,-0.266132 0.143627,-0.409759 0.147852,-0.143627 0.418208,-0.143627 0.261908,0 0.405535,0.143627 0.147851,0.143627 0.147851,0.409759 0,0.25346 -0.147851,0.401311 -0.143627,0.143627 -0.405535,0.143627 -0.270356,0 -0.418208,-0.143627 -0.143627,-0.147851 -0.143627,-0.401311 z"
           style="font-style:normal;font-variant:normal;font-weight:600;font-stretch:normal;font-size:8.65141px;font-family:'Open Sans';-inkscape-font-specification:'Open Sans, Semi-Bold';font-variant-ligatures:normal;font-variant-caps:normal;font-variant-numeric:normal;font-variant-east-asian:normal;stroke-width:0.264583;fill:#ffffff"
           id="path1402" />
        <path
           d="m 99.662873,-88.034325 h -1.140567 v 3.92017 h -0.99694 v -3.92017 H 96.75654 v -0.464676 l 0.768826,-0.304151 v -0.304151 q 0,-0.827967 0.388638,-1.225053 0.388637,-0.401311 1.187034,-0.401311 0.523816,0 1.030732,0.173197 l -0.261906,0.75193 q -0.367516,-0.118281 -0.701237,-0.118281 -0.337946,0 -0.494246,0.211216 -0.152075,0.206991 -0.152075,0.625199 v 0.304151 h 1.140567 z"
           style="font-style:normal;font-variant:normal;font-weight:600;font-stretch:normal;font-size:8.65141px;font-family:'Open Sans';-inkscape-font-specification:'Open Sans, Semi-Bold';font-variant-ligatures:normal;font-variant-caps:normal;font-variant-numeric:normal;font-variant-east-asian:normal;stroke-width:0.264583;fill:#ffffff"
           id="path1404" />
        <path
           d="m 102.19747,-84.83229 q 0.36329,0 0.72658,-0.114056 v 0.747704 q -0.16475,0.07181 -0.42666,0.118281 -0.25768,0.05069 -0.53649,0.05069 -1.41092,0 -1.41092,-1.486961 v -2.517695 h -0.637871 v -0.43933 l 0.684341,-0.363291 0.33794,-0.988492 h 0.61253 v 1.039183 h 1.33066 v 0.75193 h -1.33066 v 2.500798 q 0,0.359067 0.17742,0.532264 0.18165,0.168973 0.47313,0.168973 z"
           style="font-style:normal;font-variant:normal;font-weight:600;font-stretch:normal;font-size:8.65141px;font-family:'Open Sans';-inkscape-font-specification:'Open Sans, Semi-Bold';font-variant-ligatures:normal;font-variant-caps:normal;font-variant-numeric:normal;font-variant-east-asian:normal;stroke-width:0.264583;fill:#ffffff"
           id="path1406" />
      </g>
    </g>
  </g>
</svg>
