<?xml version="1.0" encoding="UTF-8" standalone="no"?>
<svg
   xmlns:dc="http://purl.org/dc/elements/1.1/"
   xmlns:cc="http://creativecommons.org/ns#"
   xmlns:rdf="http://www.w3.org/1999/02/22-rdf-syntax-ns#"
   xmlns:svg="http://www.w3.org/2000/svg"
   xmlns="http://www.w3.org/2000/svg"
   width="724.42212"
   height="71.5476"
   viewBox="0 0 191.67001 18.930302"
   version="1.1"
   id="svg8">
  <style
     id="style833" />
  <defs
     id="defs2" />
  <metadata
     id="metadata5">
    <rdf:RDF>
      <cc:Work
         rdf:about="">
        <dc:format>image/svg+xml</dc:format>
        <dc:type
           rdf:resource="http://purl.org/dc/dcmitype/StillImage" />
        <dc:title></dc:title>
      </cc:Work>
    </rdf:RDF>
  </metadata>
  <g
     id="layer1"
     transform="translate(-12.406262,129.72359)">
    <g
       id="g1275"
       transform="translate(3.8100651,-181.22987)"
       style="fill:#000000">
      <g
         id="g1269"
         transform="matrix(0.4690385,0,0,0.4690385,-10.307246,30.714355)"
         style="fill:#000000;stroke-width:2.13202">
        <path
           style="fill:#000000;fill-opacity:0.504586;stroke-width:2.13202"
           d="m 69.002893,60.392742 c -0.900105,-0.07967 -1.273779,-0.181358 -1.521482,-0.414063 -0.313253,-0.294285 -1.566357,-0.424633 -4.087684,-0.425199 -2.131358,-5.08e-4 -2.229658,-0.0077 -2.397039,-0.175038 -0.241787,-0.241787 -0.178727,-0.43266 0.204818,-0.619955 0.278415,-0.135957 0.635547,-0.169838 2.420143,-0.229597 1.151443,-0.03856 2.18992,-0.10675 2.307728,-0.151542 0.760141,-0.289004 1.326891,-1.910645 1.085458,-3.105819 -0.200793,-0.993989 -0.596941,-1.642762 -1.704102,-2.790816 -1.173671,-1.217019 -1.448214,-1.690786 -1.494933,-2.579733 -0.03671,-0.698585 0.149032,-1.031693 0.723185,-1.296926 0.362015,-0.167235 0.532281,-0.18417 1.796908,-0.178717 1.578975,0.0068 2.244041,0.139365 3.337198,0.665152 1.353009,0.650771 3.505195,2.537173 4.773853,4.184306 0.550993,0.737703 1.074903,1.491349 1.613474,2.240457 0.335424,0.48971 0.549587,0.935042 0.765374,1.591525 0.32371,0.984813 0.577412,1.09038 2.770353,1.152755 2.475342,0.07041 5.24578,-0.18995 5.756348,-0.540965 0.158071,-0.108673 0.426068,-0.292836 0.595549,-0.409253 0.599759,-0.411974 1.14476,-0.26105 2.243574,0.621298 0.843166,0.677063 1.292626,1.156736 1.231975,1.314791 -0.115777,0.301709 -0.571913,0.326711 -7.085697,0.388381 -6.298891,0.05964 -6.400379,0.06326 -6.942667,0.248216 -0.739195,0.252107 -1.893287,0.417346 -3.611854,0.517134 -1.571062,0.09122 -1.680404,0.09097 -2.78048,-0.0064 z"
           id="path1265" />
        <path
           style="fill:#000000;fill-opacity:1;stroke-width:2.13202"
           d="m 52.95856,84.650516 c -0.116417,-0.02097 -0.439174,-0.07936 -0.717238,-0.129755 -0.278064,-0.05039 -0.732276,-0.209614 -1.009358,-0.35382 l -0.503786,-0.262192 -1.741163,0.01549 c -0.957639,0.0085 -1.808353,-0.0058 -1.890475,-0.0319 -0.18922,-0.06006 -0.213874,-0.808331 -0.03162,-0.959591 0.17372,-0.144175 1.374025,-0.260348 2.697469,-0.261078 l 1.164167,-6.43e-4 v -0.374952 c 0,-0.669435 -0.126549,-0.709253 -2.399801,-0.755086 -1.56652,-0.03158 -1.575913,-0.03492 -1.578236,-0.560157 -0.0011,-0.24768 0.07428,-0.364907 0.485537,-0.755148 2.653722,-2.518097 4.560996,-3.437065 7.353618,-3.54314 2.583691,-0.09814 3.096386,0.195732 6.97783,3.999623 0.764187,0.748917 1.153997,1.06919 1.397,1.147791 0.427469,0.138264 6.998224,0.215089 8.003357,0.09357 0.593733,-0.07178 0.732098,-0.123099 1.119896,-0.415375 0.842592,-0.635045 1.123353,-0.683328 1.552848,-0.267046 0.149477,0.144879 0.550928,0.461069 0.892111,0.702645 0.586338,0.415158 0.938141,0.820527 0.817126,0.941541 -0.163754,0.163756 -1.060831,0.205485 -4.512952,0.209935 -4.716593,0.0061 -9.315427,0.125164 -9.642989,0.249703 -0.393403,0.149572 -3.088145,0.83797 -4.173051,1.066046 -0.967254,0.203343 -3.636384,0.35592 -4.260294,0.243535 z m -6.863418,-8.920568 c -0.774683,-0.08158 -0.891847,-0.13958 -1.308108,-0.647571 -0.538784,-0.657515 -0.854929,-0.754526 -2.469454,-0.757764 -1.516664,-0.003 -1.571516,-0.02059 -1.841359,-0.589245 -0.187026,-0.394128 -0.167892,-0.686295 0.05518,-0.84254 0.150417,-0.105356 0.448235,-0.131801 1.484324,-0.131801 1.439953,0 1.539161,-0.04036 1.215743,-0.494556 -0.300437,-0.421925 -0.673125,-0.540741 -1.516719,-0.483543 -1.352654,0.09172 -1.721892,-0.137808 -1.158027,-0.719843 1.034648,-1.067989 3.265309,-2.178377 5.374507,-2.675345 1.594465,-0.375687 4.791681,-0.366543 6.084565,0.0174 0.516292,0.153323 0.911099,0.456265 2.500261,1.918493 1.403893,1.291759 2.177848,1.856453 2.885092,2.105029 0.42977,0.151052 0.717508,0.162647 3.916133,0.157797 4.23186,-0.0064 4.532848,-0.03052 4.979568,-0.398743 0.281489,-0.232026 0.399559,-0.273356 0.780919,-0.273356 0.443956,0 0.455538,0.0066 0.975543,0.558158 0.289439,0.306987 0.707227,0.650529 0.928419,0.763426 0.464009,0.236833 0.539503,0.493059 0.184988,0.627845 -0.130398,0.04958 -1.881156,0.08265 -4.3815,0.08277 -2.290376,8.4e-5 -5.05478,0.02537 -6.143117,0.05615 l -1.978796,0.05595 -0.645871,0.422839 c -0.900541,0.589568 -1.598136,0.899965 -2.225778,0.990372 -1.389591,0.200157 -6.590468,0.374556 -7.696511,0.258084 z M 58.209804,71.14293 c -1.737084,-0.175364 -2.35171,-0.402176 -2.244743,-0.828367 0.08805,-0.35082 0.353736,-0.66437 1.944561,-2.294869 1.93387,-1.982099 2.354235,-2.613382 2.049711,-3.078144 -0.281193,-0.429154 -1.236516,-0.478092 -4.410617,-0.22594 -1.286376,0.102191 -2.737238,0.01848 -3.155678,-0.182071 -0.167254,-0.08017 -0.238811,-0.177541 -0.238811,-0.324986 0,-0.322974 0.411569,-0.471561 2.120146,-0.765426 0.928753,-0.15974 1.718227,-0.345638 2.02852,-0.477657 1.886066,-0.802453 4.510842,-1.272117 7.577667,-1.35591 2.97233,-0.08121 4.253527,0.156598 6.011334,1.115788 0.537815,0.293473 1.938149,0.471783 4.148666,0.528267 2.31346,0.05911 2.821914,-0.01152 3.493835,-0.485373 1.098536,-0.774709 1.630216,-0.785618 2.550121,-0.05232 0.166898,0.133041 0.636616,0.418791 1.043819,0.635 0.76822,0.407895 1.013596,0.676795 0.8672,0.95034 -0.189421,0.353935 -0.383621,0.366886 -6.219308,0.414745 -5.082904,0.04169 -5.622188,0.05939 -5.966226,0.195825 -1.143062,0.453317 -1.426216,0.823192 -1.740012,2.272923 -0.598522,2.765156 -1.194826,3.408294 -3.56895,3.849258 -0.894047,0.166058 -5.018001,0.237456 -6.291235,0.108919 z M 78.729627,55.578017 c -0.145163,-0.03466 -0.435101,-0.14587 -0.644306,-0.247144 -0.332002,-0.16072 -0.551457,-0.187582 -1.725733,-0.21124 -1.697373,-0.03419 -2.306285,-0.239687 -1.932877,-0.652299 0.18643,-0.206001 0.543073,-0.300088 1.554999,-0.410227 1.374242,-0.149573 1.998814,-0.603012 2.213716,-1.607156 0.180026,-0.841183 -0.158883,-2.222197 -0.882695,-3.596875 C 76.669877,47.632154 76.025612,47.278381 74.076834,47.076209 72.92835,46.957062 72.578891,46.806368 72.2174,46.274386 71.95281,45.885007 71.945814,45.543127 72.19906,45.3782 c 0.3058,-0.199153 1.640866,-0.61658 2.6035,-0.814021 4.097426,-0.840403 8.481534,0.628203 10.371185,3.474181 0.417364,0.628584 1.403238,2.591256 1.829354,3.641862 0.613348,1.512236 0.79913,1.569687 5.019422,1.55219 l 3.12296,-0.01295 0.508432,-0.262219 c 0.899009,-0.463654 1.184643,-0.385316 2.407834,0.660378 0.196268,0.167788 0.491543,0.413598 0.656166,0.546242 0.347495,0.279995 0.373957,0.425731 0.108814,0.599288 -0.164754,0.107844 -0.522338,0.112689 -2.645833,0.03585 -2.799496,-0.101304 -7.520661,-0.04791 -8.339667,0.09432 -0.302683,0.05256 -1.027605,0.207188 -1.610937,0.343609 -0.583333,0.136421 -1.497733,0.286727 -2.032001,0.334012 -1.102415,0.09757 -5.068114,0.102703 -5.468662,0.0071 z"
           id="path1267" />
      </g>
      <g
         aria-label="Nordisk Administrativt Tidsskrift"
         id="text1273"
         style="font-style:normal;font-variant:normal;font-weight:600;font-stretch:normal;font-size:10.126px;line-height:1.05;font-family:'Open Sans';-inkscape-font-specification:'Open Sans, Semi-Bold';font-variant-ligatures:normal;font-variant-caps:normal;font-variant-numeric:normal;font-variant-east-asian:normal;letter-spacing:0px;word-spacing:0px;fill:#000000;stroke-width:0.264583">
        <path
           d="m 48.445426,65.501854 h -1.448691 l -3.554977,-5.760152 h -0.03956 l 0.02472,0.321382 q 0.06922,0.919647 0.06922,1.681074 v 3.757696 h -1.072921 v -7.228619 h 1.433858 l 3.545089,5.730485 h 0.02967 q -0.0099,-0.11372 -0.03956,-0.825704 -0.02967,-0.716929 -0.02967,-1.11742 v -3.787361 h 1.08281 z"
           style="font-style:normal;font-variant:normal;font-weight:600;font-stretch:normal;font-size:10.126px;font-family:'Open Sans';-inkscape-font-specification:'Open Sans, Semi-Bold';font-variant-ligatures:normal;font-variant-caps:normal;font-variant-numeric:normal;font-variant-east-asian:normal;fill:#000000;stroke-width:0.264583"
           id="path1277" />
        <path
           d="m 55.080725,62.757747 q 0,1.339915 -0.687263,2.091455 -0.687263,0.751539 -1.913458,0.751539 -0.766372,0 -1.354748,-0.346104 -0.588376,-0.346103 -0.904814,-0.993811 -0.316437,-0.647708 -0.316437,-1.503079 0,-1.330026 0.682318,-2.076621 0.682319,-0.746595 1.923347,-0.746595 1.186641,0 1.878848,0.766373 0.692207,0.761427 0.692207,2.056843 z m -3.980191,0 q 0,1.893681 1.399247,1.893681 1.384414,0 1.384414,-1.893681 0,-1.873903 -1.394302,-1.873903 -0.731762,0 -1.063033,0.484545 -0.326326,0.484545 -0.326326,1.389358 z"
           style="font-style:normal;font-variant:normal;font-weight:600;font-stretch:normal;font-size:10.126px;font-family:'Open Sans';-inkscape-font-specification:'Open Sans, Semi-Bold';font-variant-ligatures:normal;font-variant-caps:normal;font-variant-numeric:normal;font-variant-east-asian:normal;fill:#000000;stroke-width:0.264583"
           id="path1279" />
        <path
           d="m 59.189468,59.934531 q 0.351048,0 0.578487,0.04944 l -0.11372,1.082809 q -0.247216,-0.05933 -0.514211,-0.05933 -0.697151,0 -1.132253,0.454879 -0.430157,0.454879 -0.430157,1.181697 v 2.857826 h -1.161919 v -5.468436 h 0.909758 l 0.153275,0.964146 h 0.05933 q 0.271938,-0.48949 0.70704,-0.776261 0.440046,-0.286772 0.944368,-0.286772 z"
           style="font-style:normal;font-variant:normal;font-weight:600;font-stretch:normal;font-size:10.126px;font-family:'Open Sans';-inkscape-font-specification:'Open Sans, Semi-Bold';font-variant-ligatures:normal;font-variant-caps:normal;font-variant-numeric:normal;font-variant-east-asian:normal;fill:#000000;stroke-width:0.264583"
           id="path1281" />
        <path
           d="m 62.625783,65.600741 q -1.023478,0 -1.597021,-0.741651 -0.573542,-0.74165 -0.573542,-2.081565 0,-1.34486 0.578487,-2.091454 0.583431,-0.75154 1.611853,-0.75154 1.077866,0 1.64152,0.796039 h 0.05933 q -0.08405,-0.588376 -0.08405,-0.929536 v -1.992567 h 1.166864 v 7.693387 h -0.909758 l -0.202718,-0.716929 h -0.05439 q -0.55871,0.815816 -1.636575,0.815816 z m 0.311493,-0.939424 q 0.716929,0 1.043255,-0.400491 0.326326,-0.405436 0.336215,-1.31025 v -0.163163 q 0,-1.033366 -0.336215,-1.468467 -0.336215,-0.435102 -1.053143,-0.435102 -0.613098,0 -0.944369,0.499378 -0.33127,0.494434 -0.33127,1.41408 0,0.909758 0.321382,1.389359 0.321382,0.474656 0.964145,0.474656 z"
           style="font-style:normal;font-variant:normal;font-weight:600;font-stretch:normal;font-size:10.126px;font-family:'Open Sans';-inkscape-font-specification:'Open Sans, Semi-Bold';font-variant-ligatures:normal;font-variant-caps:normal;font-variant-numeric:normal;font-variant-east-asian:normal;fill:#000000;stroke-width:0.264583"
           id="path1283" />
        <path
           d="m 68.252436,65.501854 h -1.161919 v -5.468436 h 1.161919 z m -1.23114,-6.917126 q 0,-0.311493 0.168108,-0.479601 0.173052,-0.168107 0.489489,-0.168107 0.306549,0 0.474656,0.168107 0.173052,0.168108 0.173052,0.479601 0,0.29666 -0.173052,0.469712 -0.168107,0.168107 -0.474656,0.168107 -0.316437,0 -0.489489,-0.168107 -0.168108,-0.173052 -0.168108,-0.469712 z"
           style="font-style:normal;font-variant:normal;font-weight:600;font-stretch:normal;font-size:10.126px;font-family:'Open Sans';-inkscape-font-specification:'Open Sans, Semi-Bold';font-variant-ligatures:normal;font-variant-caps:normal;font-variant-numeric:normal;font-variant-east-asian:normal;fill:#000000;stroke-width:0.264583"
           id="path1285" />
        <path
           d="m 73.587374,63.944388 q 0,0.800983 -0.583431,1.23114 -0.583432,0.425213 -1.671186,0.425213 -1.092698,0 -1.755239,-0.331271 v -1.0037 q 0.964145,0.44499 1.794794,0.44499 1.072921,0 1.072921,-0.647708 0,-0.207662 -0.118664,-0.346103 -0.118664,-0.138442 -0.390603,-0.286772 -0.271938,-0.14833 -0.756483,-0.336215 -0.944369,-0.365881 -1.280583,-0.731762 -0.331271,-0.36588 -0.331271,-0.949312 0,-0.702096 0.563654,-1.087754 0.568599,-0.390603 1.542633,-0.390603 0.964146,0 1.82446,0.390603 l -0.375769,0.875148 q -0.885036,-0.365881 -1.488245,-0.365881 -0.919647,0 -0.919647,0.524099 0,0.257106 0.237328,0.435102 0.242273,0.177996 1.048199,0.489489 0.677374,0.26205 0.983923,0.479601 0.306549,0.217551 0.454879,0.504322 0.14833,0.281827 0.14833,0.677374 z"
           style="font-style:normal;font-variant:normal;font-weight:600;font-stretch:normal;font-size:10.126px;font-family:'Open Sans';-inkscape-font-specification:'Open Sans, Semi-Bold';font-variant-ligatures:normal;font-variant-caps:normal;font-variant-numeric:normal;font-variant-east-asian:normal;fill:#000000;stroke-width:0.264583"
           id="path1287" />
        <path
           d="m 75.965601,62.614362 0.657597,-0.82076 1.651408,-1.760184 h 1.339915 l -2.200229,2.34856 2.338671,3.119876 h -1.364637 l -1.755239,-2.398003 -0.63782,0.5241 v 1.873903 h -1.15203 v -7.693387 h 1.15203 v 3.752751 l -0.05933,1.053144 z"
           style="font-style:normal;font-variant:normal;font-weight:600;font-stretch:normal;font-size:10.126px;font-family:'Open Sans';-inkscape-font-specification:'Open Sans, Semi-Bold';font-variant-ligatures:normal;font-variant-caps:normal;font-variant-numeric:normal;font-variant-east-asian:normal;fill:#000000;stroke-width:0.264583"
           id="path1289" />
        <path
           d="m 87.871562,65.501854 -0.721873,-2.007401 h -2.763884 l -0.70704,2.007401 h -1.245972 l 2.704552,-7.258286 h 1.285527 l 2.704552,7.258286 z M 86.838196,62.47592 86.160822,60.508074 q -0.07416,-0.197773 -0.207662,-0.622986 -0.128553,-0.425213 -0.177996,-0.622986 -0.133497,0.608153 -0.390603,1.330026 l -0.652652,1.883792 z"
           style="font-style:normal;font-variant:normal;font-weight:600;font-stretch:normal;font-size:10.126px;font-family:'Open Sans';-inkscape-font-specification:'Open Sans, Semi-Bold';font-variant-ligatures:normal;font-variant-caps:normal;font-variant-numeric:normal;font-variant-east-asian:normal;fill:#000000;stroke-width:0.264583"
           id="path1291" />
        <path
           d="m 91.802308,65.600741 q -1.023477,0 -1.59702,-0.741651 -0.573543,-0.74165 -0.573543,-2.081565 0,-1.34486 0.578487,-2.091454 0.583432,-0.75154 1.611854,-0.75154 1.077865,0 1.641519,0.796039 h 0.05933 q -0.08405,-0.588376 -0.08405,-0.929536 v -1.992567 h 1.166864 v 7.693387 h -0.909758 l -0.202718,-0.716929 h -0.05439 q -0.55871,0.815816 -1.636575,0.815816 z m 0.311493,-0.939424 q 0.716929,0 1.043255,-0.400491 0.326326,-0.405436 0.336215,-1.31025 v -0.163163 q 0,-1.033366 -0.336215,-1.468467 -0.336215,-0.435102 -1.053143,-0.435102 -0.613098,0 -0.944369,0.499378 -0.33127,0.494434 -0.33127,1.41408 0,0.909758 0.321382,1.389359 0.321382,0.474656 0.964145,0.474656 z"
           style="font-style:normal;font-variant:normal;font-weight:600;font-stretch:normal;font-size:10.126px;font-family:'Open Sans';-inkscape-font-specification:'Open Sans, Semi-Bold';font-variant-ligatures:normal;font-variant-caps:normal;font-variant-numeric:normal;font-variant-east-asian:normal;fill:#000000;stroke-width:0.264583"
           id="path1293" />
        <path
           d="m 100.87517,65.501854 h -1.166866 v -3.372037 q 0,-0.627931 -0.237328,-0.93448 -0.237328,-0.311493 -0.741651,-0.311493 -0.672429,0 -0.988867,0.440046 -0.311493,0.435101 -0.311493,1.453635 v 2.724329 h -1.161919 v -5.468436 h 0.909758 l 0.163163,0.716929 h 0.05933 q 0.227439,-0.390603 0.657597,-0.603209 0.435101,-0.212607 0.954257,-0.212607 1.260809,0 1.671189,0.860315 h 0.0791 q 0.24227,-0.405436 0.68232,-0.632875 0.44004,-0.22744 1.00864,-0.22744 0.97898,0 1.42397,0.494434 0.44993,0.494434 0.44993,1.508023 v 3.564866 h -1.16192 v -3.372037 q 0,-0.627931 -0.24227,-0.93448 -0.23733,-0.311493 -0.74165,-0.311493 -0.67737,0 -0.99381,0.425213 -0.31149,0.420268 -0.31149,1.295416 z"
           style="font-style:normal;font-variant:normal;font-weight:600;font-stretch:normal;font-size:10.126px;font-family:'Open Sans';-inkscape-font-specification:'Open Sans, Semi-Bold';font-variant-ligatures:normal;font-variant-caps:normal;font-variant-numeric:normal;font-variant-east-asian:normal;fill:#000000;stroke-width:0.264583"
           id="path1295" />
        <path
           d="m 107.10997,65.501854 h -1.16192 v -5.468436 h 1.16192 z m -1.23114,-6.917126 q 0,-0.311493 0.16811,-0.479601 0.17305,-0.168107 0.48949,-0.168107 0.30655,0 0.47466,0.168107 0.17305,0.168108 0.17305,0.479601 0,0.29666 -0.17305,0.469712 -0.16811,0.168107 -0.47466,0.168107 -0.31644,0 -0.48949,-0.168107 -0.16811,-0.173052 -0.16811,-0.469712 z"
           style="font-style:normal;font-variant:normal;font-weight:600;font-stretch:normal;font-size:10.126px;font-family:'Open Sans';-inkscape-font-specification:'Open Sans, Semi-Bold';font-variant-ligatures:normal;font-variant-caps:normal;font-variant-numeric:normal;font-variant-east-asian:normal;fill:#000000;stroke-width:0.264583"
           id="path1297" />
        <path
           d="m 113.58211,65.501854 h -1.16686 v -3.362149 q 0,-0.632875 -0.25711,-0.944368 -0.25216,-0.311493 -0.80592,-0.311493 -0.73671,0 -1.07787,0.435102 -0.34116,0.435101 -0.34116,1.458579 v 2.724329 h -1.16192 v -5.468436 h 0.90976 l 0.16316,0.716929 h 0.0593 q 0.24721,-0.390603 0.70209,-0.603209 0.45488,-0.212607 1.00865,-0.212607 1.96784,0 1.96784,2.002457 z"
           style="font-style:normal;font-variant:normal;font-weight:600;font-stretch:normal;font-size:10.126px;font-family:'Open Sans';-inkscape-font-specification:'Open Sans, Semi-Bold';font-variant-ligatures:normal;font-variant-caps:normal;font-variant-numeric:normal;font-variant-east-asian:normal;fill:#000000;stroke-width:0.264583"
           id="path1299" />
        <path
           d="m 116.36083,65.501854 h -1.16192 v -5.468436 h 1.16192 z m -1.23114,-6.917126 q 0,-0.311493 0.1681,-0.479601 0.17306,-0.168107 0.48949,-0.168107 0.30655,0 0.47466,0.168107 0.17305,0.168108 0.17305,0.479601 0,0.29666 -0.17305,0.469712 -0.16811,0.168107 -0.47466,0.168107 -0.31643,0 -0.48949,-0.168107 -0.1681,-0.173052 -0.1681,-0.469712 z"
           style="font-style:normal;font-variant:normal;font-weight:600;font-stretch:normal;font-size:10.126px;font-family:'Open Sans';-inkscape-font-specification:'Open Sans, Semi-Bold';font-variant-ligatures:normal;font-variant-caps:normal;font-variant-numeric:normal;font-variant-east-asian:normal;fill:#000000;stroke-width:0.264583"
           id="path1301" />
        <path
           d="m 121.69577,63.944388 q 0,0.800983 -0.58343,1.23114 -0.58343,0.425213 -1.67119,0.425213 -1.0927,0 -1.75524,-0.331271 v -1.0037 q 0.96415,0.44499 1.7948,0.44499 1.07292,0 1.07292,-0.647708 0,-0.207662 -0.11867,-0.346103 -0.11866,-0.138442 -0.3906,-0.286772 -0.27194,-0.14833 -0.75648,-0.336215 -0.94437,-0.365881 -1.28059,-0.731762 -0.33127,-0.36588 -0.33127,-0.949312 0,-0.702096 0.56366,-1.087754 0.5686,-0.390603 1.54263,-0.390603 0.96415,0 1.82446,0.390603 l -0.37577,0.875148 q -0.88503,-0.365881 -1.48824,-0.365881 -0.91965,0 -0.91965,0.524099 0,0.257106 0.23733,0.435102 0.24227,0.177996 1.0482,0.489489 0.67737,0.26205 0.98392,0.479601 0.30655,0.217551 0.45488,0.504322 0.14833,0.281827 0.14833,0.677374 z"
           style="font-style:normal;font-variant:normal;font-weight:600;font-stretch:normal;font-size:10.126px;font-family:'Open Sans';-inkscape-font-specification:'Open Sans, Semi-Bold';font-variant-ligatures:normal;font-variant-caps:normal;font-variant-numeric:normal;font-variant-east-asian:normal;fill:#000000;stroke-width:0.264583"
           id="path1303" />
        <path
           d="m 124.98869,64.661317 q 0.42521,0 0.85043,-0.133497 v 0.875147 q -0.19283,0.08405 -0.49938,0.138442 -0.30161,0.05933 -0.62793,0.05933 -1.65141,0 -1.65141,-1.740407 V 60.91351 h -0.7466 v -0.514211 l 0.80099,-0.425213 0.39554,-1.156975 h 0.71693 v 1.216307 h 1.55747 v 0.880092 h -1.55747 v 2.927047 q 0,0.420269 0.20766,0.622986 0.21261,0.197774 0.55377,0.197774 z"
           style="font-style:normal;font-variant:normal;font-weight:600;font-stretch:normal;font-size:10.126px;font-family:'Open Sans';-inkscape-font-specification:'Open Sans, Semi-Bold';font-variant-ligatures:normal;font-variant-caps:normal;font-variant-numeric:normal;font-variant-east-asian:normal;fill:#000000;stroke-width:0.264583"
           id="path1305" />
        <path
           d="m 129.70559,59.934531 q 0.35105,0 0.57849,0.04944 l -0.11372,1.082809 q -0.24722,-0.05933 -0.51421,-0.05933 -0.69715,0 -1.13226,0.454879 -0.43015,0.454879 -0.43015,1.181697 v 2.857826 h -1.16192 v -5.468436 h 0.90976 l 0.15327,0.964146 h 0.0593 q 0.27194,-0.48949 0.70704,-0.776261 0.44005,-0.286772 0.94437,-0.286772 z"
           style="font-style:normal;font-variant:normal;font-weight:600;font-stretch:normal;font-size:10.126px;font-family:'Open Sans';-inkscape-font-specification:'Open Sans, Semi-Bold';font-variant-ligatures:normal;font-variant-caps:normal;font-variant-numeric:normal;font-variant-east-asian:normal;fill:#000000;stroke-width:0.264583"
           id="path1307" />
        <path
           d="m 134.71915,65.501854 -0.23238,-0.761428 h -0.0396 q -0.39554,0.499378 -0.79604,0.682319 -0.40049,0.177996 -1.02842,0.177996 -0.80592,0 -1.2608,-0.435102 -0.44994,-0.435101 -0.44994,-1.23114 0,-0.845481 0.62793,-1.275638 0.62793,-0.430158 1.91346,-0.469712 l 0.94437,-0.02967 v -0.291716 q 0,-0.5241 -0.24722,-0.781205 -0.24227,-0.26205 -0.75648,-0.26205 -0.42027,0 -0.80593,0.123608 -0.38566,0.123609 -0.74165,0.291716 l -0.37577,-0.830648 q 0.44499,-0.232384 0.97404,-0.351048 0.52904,-0.123609 0.99875,-0.123609 1.04326,0 1.5723,0.454879 0.53399,0.454879 0.53399,1.428914 v 3.68353 z m -1.73052,-0.791094 q 0.63288,0 1.01359,-0.351048 0.38566,-0.355992 0.38566,-0.993811 v -0.474657 l -0.7021,0.02967 q -0.82076,0.02967 -1.19652,0.276883 -0.37083,0.242273 -0.37083,0.746595 0,0.365881 0.21755,0.568599 0.21755,0.197773 0.65265,0.197773 z"
           style="font-style:normal;font-variant:normal;font-weight:600;font-stretch:normal;font-size:10.126px;font-family:'Open Sans';-inkscape-font-specification:'Open Sans, Semi-Bold';font-variant-ligatures:normal;font-variant-caps:normal;font-variant-numeric:normal;font-variant-east-asian:normal;fill:#000000;stroke-width:0.264583"
           id="path1309" />
        <path
           d="m 139.20861,64.661317 q 0.42521,0 0.85042,-0.133497 v 0.875147 q -0.19283,0.08405 -0.49937,0.138442 -0.30161,0.05933 -0.62794,0.05933 -1.6514,0 -1.6514,-1.740407 V 60.91351 h -0.7466 v -0.514211 l 0.80098,-0.425213 0.39555,-1.156975 h 0.71693 v 1.216307 h 1.55747 v 0.880092 h -1.55747 v 2.927047 q 0,0.420269 0.20766,0.622986 0.21261,0.197774 0.55377,0.197774 z"
           style="font-style:normal;font-variant:normal;font-weight:600;font-stretch:normal;font-size:10.126px;font-family:'Open Sans';-inkscape-font-specification:'Open Sans, Semi-Bold';font-variant-ligatures:normal;font-variant-caps:normal;font-variant-numeric:normal;font-variant-east-asian:normal;fill:#000000;stroke-width:0.264583"
           id="path1311" />
        <path
           d="m 142.31365,65.501854 h -1.16192 v -5.468436 h 1.16192 z m -1.23114,-6.917126 q 0,-0.311493 0.1681,-0.479601 0.17306,-0.168107 0.48949,-0.168107 0.30655,0 0.47466,0.168107 0.17305,0.168108 0.17305,0.479601 0,0.29666 -0.17305,0.469712 -0.16811,0.168107 -0.47466,0.168107 -0.31643,0 -0.48949,-0.168107 -0.1681,-0.173052 -0.1681,-0.469712 z"
           style="font-style:normal;font-variant:normal;font-weight:600;font-stretch:normal;font-size:10.126px;font-family:'Open Sans';-inkscape-font-specification:'Open Sans, Semi-Bold';font-variant-ligatures:normal;font-variant-caps:normal;font-variant-numeric:normal;font-variant-east-asian:normal;fill:#000000;stroke-width:0.264583"
           id="path1313" />
        <path
           d="m 145.22092,65.501854 -2.07662,-5.468436 h 1.22619 l 1.11248,3.179208 q 0.28677,0.800983 0.3461,1.295416 h 0.0396 q 0.0445,-0.355992 0.3461,-1.295416 l 1.11248,-3.179208 h 1.23608 l -2.08651,5.468436 z"
           style="font-style:normal;font-variant:normal;font-weight:600;font-stretch:normal;font-size:10.126px;font-family:'Open Sans';-inkscape-font-specification:'Open Sans, Semi-Bold';font-variant-ligatures:normal;font-variant-caps:normal;font-variant-numeric:normal;font-variant-east-asian:normal;fill:#000000;stroke-width:0.264583"
           id="path1315" />
        <path
           d="m 151.431,64.661317 q 0.42522,0 0.85043,-0.133497 v 0.875147 q -0.19283,0.08405 -0.49938,0.138442 -0.3016,0.05933 -0.62793,0.05933 -1.65141,0 -1.65141,-1.740407 V 60.91351 h -0.74659 v -0.514211 l 0.80098,-0.425213 0.39555,-1.156975 h 0.71693 v 1.216307 h 1.55746 v 0.880092 h -1.55746 v 2.927047 q 0,0.420269 0.20766,0.622986 0.21261,0.197774 0.55376,0.197774 z"
           style="font-style:normal;font-variant:normal;font-weight:600;font-stretch:normal;font-size:10.126px;font-family:'Open Sans';-inkscape-font-specification:'Open Sans, Semi-Bold';font-variant-ligatures:normal;font-variant-caps:normal;font-variant-numeric:normal;font-variant-east-asian:normal;fill:#000000;stroke-width:0.264583"
           id="path1317" />
        <path
           d="m 158.62501,65.501854 h -1.1817 v -6.215031 h -2.12606 v -1.013588 h 5.43382 v 1.013588 h -2.12606 z"
           style="font-style:normal;font-variant:normal;font-weight:600;font-stretch:normal;font-size:10.126px;font-family:'Open Sans';-inkscape-font-specification:'Open Sans, Semi-Bold';font-variant-ligatures:normal;font-variant-caps:normal;font-variant-numeric:normal;font-variant-east-asian:normal;fill:#000000;stroke-width:0.264583"
           id="path1319" />
        <path
           d="M 162.89692,65.501854 H 161.735 v -5.468436 h 1.16192 z m -1.23114,-6.917126 q 0,-0.311493 0.16811,-0.479601 0.17305,-0.168107 0.48949,-0.168107 0.30655,0 0.47465,0.168107 0.17306,0.168108 0.17306,0.479601 0,0.29666 -0.17306,0.469712 -0.1681,0.168107 -0.47465,0.168107 -0.31644,0 -0.48949,-0.168107 -0.16811,-0.173052 -0.16811,-0.469712 z"
           style="font-style:normal;font-variant:normal;font-weight:600;font-stretch:normal;font-size:10.126px;font-family:'Open Sans';-inkscape-font-specification:'Open Sans, Semi-Bold';font-variant-ligatures:normal;font-variant-caps:normal;font-variant-numeric:normal;font-variant-east-asian:normal;fill:#000000;stroke-width:0.264583"
           id="path1321" />
        <path
           d="m 166.40245,65.600741 q -1.02348,0 -1.59702,-0.741651 -0.57354,-0.74165 -0.57354,-2.081565 0,-1.34486 0.57849,-2.091454 0.58343,-0.75154 1.61185,-0.75154 1.07786,0 1.64152,0.796039 h 0.0593 q -0.084,-0.588376 -0.084,-0.929536 v -1.992567 h 1.16686 v 7.693387 h -0.90976 l -0.20272,-0.716929 h -0.0544 q -0.55871,0.815816 -1.63658,0.815816 z m 0.31149,-0.939424 q 0.71693,0 1.04326,-0.400491 0.32633,-0.405436 0.33621,-1.31025 v -0.163163 q 0,-1.033366 -0.33621,-1.468467 -0.33622,-0.435102 -1.05314,-0.435102 -0.6131,0 -0.94437,0.499378 -0.33127,0.494434 -0.33127,1.41408 0,0.909758 0.32138,1.389359 0.32138,0.474656 0.96414,0.474656 z"
           style="font-style:normal;font-variant:normal;font-weight:600;font-stretch:normal;font-size:10.126px;font-family:'Open Sans';-inkscape-font-specification:'Open Sans, Semi-Bold';font-variant-ligatures:normal;font-variant-caps:normal;font-variant-numeric:normal;font-variant-east-asian:normal;fill:#000000;stroke-width:0.264583"
           id="path1323" />
        <path
           d="m 174.54082,63.944388 q 0,0.800983 -0.58343,1.23114 -0.58343,0.425213 -1.67118,0.425213 -1.0927,0 -1.75524,-0.331271 v -1.0037 q 0.96414,0.44499 1.79479,0.44499 1.07292,0 1.07292,-0.647708 0,-0.207662 -0.11866,-0.346103 -0.11867,-0.138442 -0.3906,-0.286772 -0.27194,-0.14833 -0.75649,-0.336215 -0.94437,-0.365881 -1.28058,-0.731762 -0.33127,-0.36588 -0.33127,-0.949312 0,-0.702096 0.56365,-1.087754 0.5686,-0.390603 1.54264,-0.390603 0.96414,0 1.82446,0.390603 l -0.37577,0.875148 q -0.88504,-0.365881 -1.48825,-0.365881 -0.91965,0 -0.91965,0.524099 0,0.257106 0.23733,0.435102 0.24227,0.177996 1.0482,0.489489 0.67738,0.26205 0.98392,0.479601 0.30655,0.217551 0.45488,0.504322 0.14833,0.281827 0.14833,0.677374 z"
           style="font-style:normal;font-variant:normal;font-weight:600;font-stretch:normal;font-size:10.126px;font-family:'Open Sans';-inkscape-font-specification:'Open Sans, Semi-Bold';font-variant-ligatures:normal;font-variant-caps:normal;font-variant-numeric:normal;font-variant-east-asian:normal;fill:#000000;stroke-width:0.264583"
           id="path1325" />
        <path
           d="m 179.47033,63.944388 q 0,0.800983 -0.58343,1.23114 -0.58344,0.425213 -1.67119,0.425213 -1.0927,0 -1.75524,-0.331271 v -1.0037 q 0.96415,0.44499 1.7948,0.44499 1.07292,0 1.07292,-0.647708 0,-0.207662 -0.11867,-0.346103 -0.11866,-0.138442 -0.3906,-0.286772 -0.27194,-0.14833 -0.75648,-0.336215 -0.94437,-0.365881 -1.28059,-0.731762 -0.33127,-0.36588 -0.33127,-0.949312 0,-0.702096 0.56366,-1.087754 0.5686,-0.390603 1.54263,-0.390603 0.96415,0 1.82446,0.390603 l -0.37577,0.875148 q -0.88504,-0.365881 -1.48824,-0.365881 -0.91965,0 -0.91965,0.524099 0,0.257106 0.23733,0.435102 0.24227,0.177996 1.0482,0.489489 0.67737,0.26205 0.98392,0.479601 0.30655,0.217551 0.45488,0.504322 0.14833,0.281827 0.14833,0.677374 z"
           style="font-style:normal;font-variant:normal;font-weight:600;font-stretch:normal;font-size:10.126px;font-family:'Open Sans';-inkscape-font-specification:'Open Sans, Semi-Bold';font-variant-ligatures:normal;font-variant-caps:normal;font-variant-numeric:normal;font-variant-east-asian:normal;fill:#000000;stroke-width:0.264583"
           id="path1327" />
        <path
           d="m 181.84855,62.614362 0.6576,-0.82076 1.65141,-1.760184 h 1.33991 l -2.20022,2.34856 2.33867,3.119876 h -1.36464 l -1.75524,-2.398003 -0.63782,0.5241 v 1.873903 h -1.15203 v -7.693387 h 1.15203 v 3.752751 l -0.0593,1.053144 z"
           style="font-style:normal;font-variant:normal;font-weight:600;font-stretch:normal;font-size:10.126px;font-family:'Open Sans';-inkscape-font-specification:'Open Sans, Semi-Bold';font-variant-ligatures:normal;font-variant-caps:normal;font-variant-numeric:normal;font-variant-east-asian:normal;fill:#000000;stroke-width:0.264583"
           id="path1329" />
        <path
           d="m 189.28979,59.934531 q 0.35105,0 0.57849,0.04944 l -0.11372,1.082809 q -0.24722,-0.05933 -0.51421,-0.05933 -0.69716,0 -1.13226,0.454879 -0.43015,0.454879 -0.43015,1.181697 v 2.857826 h -1.16192 v -5.468436 h 0.90975 l 0.15328,0.964146 h 0.0593 q 0.27194,-0.48949 0.70704,-0.776261 0.44005,-0.286772 0.94437,-0.286772 z"
           style="font-style:normal;font-variant:normal;font-weight:600;font-stretch:normal;font-size:10.126px;font-family:'Open Sans';-inkscape-font-specification:'Open Sans, Semi-Bold';font-variant-ligatures:normal;font-variant-caps:normal;font-variant-numeric:normal;font-variant-east-asian:normal;fill:#000000;stroke-width:0.264583"
           id="path1331" />
        <path
           d="m 192.04378,65.501854 h -1.16192 v -5.468436 h 1.16192 z m -1.23114,-6.917126 q 0,-0.311493 0.16811,-0.479601 0.17305,-0.168107 0.48949,-0.168107 0.30655,0 0.47465,0.168107 0.17305,0.168108 0.17305,0.479601 0,0.29666 -0.17305,0.469712 -0.1681,0.168107 -0.47465,0.168107 -0.31644,0 -0.48949,-0.168107 -0.16811,-0.173052 -0.16811,-0.469712 z"
           style="font-style:normal;font-variant:normal;font-weight:600;font-stretch:normal;font-size:10.126px;font-family:'Open Sans';-inkscape-font-specification:'Open Sans, Semi-Bold';font-variant-ligatures:normal;font-variant-caps:normal;font-variant-numeric:normal;font-variant-east-asian:normal;fill:#000000;stroke-width:0.264583"
           id="path1333" />
        <path
           d="m 196.44918,60.91351 h -1.33497 v 4.588344 h -1.16687 V 60.91351 h -0.89986 v -0.543877 l 0.89986,-0.355992 v -0.355992 q 0,-0.96909 0.45488,-1.433858 0.45488,-0.469712 1.38936,-0.469712 0.6131,0 1.20642,0.202718 l -0.30655,0.880092 q -0.43016,-0.138442 -0.82076,-0.138442 -0.39555,0 -0.57849,0.247217 -0.17799,0.242273 -0.17799,0.731762 v 0.355992 h 1.33497 z"
           style="font-style:normal;font-variant:normal;font-weight:600;font-stretch:normal;font-size:10.126px;font-family:'Open Sans';-inkscape-font-specification:'Open Sans, Semi-Bold';font-variant-ligatures:normal;font-variant-caps:normal;font-variant-numeric:normal;font-variant-east-asian:normal;fill:#000000;stroke-width:0.264583"
           id="path1335" />
        <path
           d="m 199.41578,64.661317 q 0.42522,0 0.85043,-0.133497 v 0.875147 q -0.19283,0.08405 -0.49938,0.138442 -0.3016,0.05933 -0.62793,0.05933 -1.65141,0 -1.65141,-1.740407 V 60.91351 h -0.74659 v -0.514211 l 0.80098,-0.425213 0.39555,-1.156975 h 0.71693 v 1.216307 h 1.55746 v 0.880092 h -1.55746 v 2.927047 q 0,0.420269 0.20766,0.622986 0.2126,0.197774 0.55376,0.197774 z"
           style="font-style:normal;font-variant:normal;font-weight:600;font-stretch:normal;font-size:10.126px;font-family:'Open Sans';-inkscape-font-specification:'Open Sans, Semi-Bold';font-variant-ligatures:normal;font-variant-caps:normal;font-variant-numeric:normal;font-variant-east-asian:normal;fill:#000000;stroke-width:0.264583"
           id="path1337" />
      </g>
    </g>
  </g>
</svg>
