<?xml version="1.0" encoding="UTF-8" standalone="no"?>
<svg
   width="640"
   height="1000"
   version="1.1"
   id="svg14"
   xmlns="http://www.w3.org/2000/svg"
   xmlns:svg="http://www.w3.org/2000/svg"
   xmlns:rdf="http://www.w3.org/1999/02/22-rdf-syntax-ns#">
  <defs
     id="defs18" />
  <metadata
     id="metadata2">
    <rdf:RDF />
  </metadata>
  <path
     id="path258"
     style="color:#000000;fill:#ffffff;stroke:none;-inkscape-stroke:none"
     d="m 320.59766,10.8125 c -143.85317,0 -261.591798,117.74129 -261.591801,261.5957 v 35.72657 H 163.76953 V 272.4082 c 0,-87.23691 69.59455,-156.83203 156.82813,-156.83203 87.23357,0 156.82812,69.59512 156.82812,156.83203 v 143.35938 c -46.15344,-27.58273 -99.99918,-43.50391 -157.42187,-43.50391 -169.7399,0 -308.464841,138.72494 -308.464848,308.46485 0,169.7399 138.724938,308.46484 308.464848,308.46484 169.7399,0 308.46484,-138.72494 308.46484,-308.46484 0,-59.32299 -16.98806,-114.82638 -46.2793,-161.97461 V 272.4082 c 0,-143.85441 -117.73862,-261.5957 -261.59179,-261.5957 z m -0.59375,466.21484 c 113.12129,0 203.70116,90.57988 203.70117,203.70118 0,113.12129 -90.57988,203.70117 -203.70117,203.70117 -113.1213,0 -203.70118,-90.57988 -203.70118,-203.70117 1e-5,-113.1213 90.57989,-203.70118 203.70118,-203.70118 z m 1.00586,118.20313 a 86.428703,86.428703 0 0 0 -86.42774,86.42773 86.428703,86.428703 0 0 0 86.42774,86.42969 86.428703,86.428703 0 0 0 86.42968,-86.42969 86.428703,86.428703 0 0 0 -86.42968,-86.42773 z" />
</svg>
