<svg xmlns="http://www.w3.org/2000/svg" xmlns:xlink="http://www.w3.org/1999/xlink" id="logos">
<symbol id="sjvd" viewBox="0 0 37.5 17" preserveAspectRatio="xMidYMid meet">
  <g fill="currentColor">
    <title>SJVD</title>
    <path id="S" d="M6.05.34l.58 1.51-.1.02-.46-.49Q5.6.91 5.02.65 4.44.4 3.7.4q-1.25 0-1.98.71Q1 1.81 1 2.82q0 .66.33 1.17.35.49 1.44.92 1.86.62 2.55.94.69.32 1.32 1.08.65.75.65 1.94 0 .5-.12.94-.12.45-.37.87-.26.41-.62.76-.35.33-.72.51t-1.17.27q-.8.09-1.05.09H0V8.78h.12q.02 1.76.83 2.45.8.69 2.5.69 1.55 0 2.35-.73.81-.73.81-1.76 0-.63-.28-1.07-.28-.44-.78-.77-.5-.34-1.9-.81-1.4-.49-1.96-.85-.56-.37-.94-1.1-.38-.75-.38-1.51 0-1.41.96-2.36Q2.3 0 3.88 0q.6 0 1.31.14.71.14.8.18l.06.02z"/>
    <path id="J" d="M8.22.18h3.25V.3q-.62 0-.78.26-.15.25-.15.82V11.7q0 1.47-.1 2.2-.1.72-.44 1.26-.34.55-.91.88-.57.33-1.33.33-.72 0-1.48-.25l.02-.14q.22.07.66.07 1.07 0 1.63-.78.56-.79.56-2.68V1.43q0-.75-.2-.94-.17-.2-.73-.2z"/>
    <path id="V" d="M17.94 12.5h-.15L13.48 1.81Q13 .69 12.72.5q-.3-.2-.61-.2V.18h2.8V.3q-.37-.03-.37.3 0 .11.05.25l3.76 9.35L22.09.86q.08-.19.08-.3 0-.28-.44-.26V.18h1.82V.3q-.2 0-.4.06-.21.05-.43.42-.23.37-.23.4z"/>
    <path id="D" d="M24.26.3V.18h5.56q2.13 0 3.35.34 1.24.33 2.15 1.04.92.72 1.45 1.84.54 1.11.54 2.48 0 1.33-.56 2.61-.55 1.28-1.51 2.21-.95.92-2.02 1.27-1.05.34-3.26.34h-5.7v-.12h.15q.44 0 .58-.35.14-.37.14-1.3V1.7q0-.99-.17-1.2-.17-.2-.7-.2zm4.13.13h-1.86v9.41q0 .9.3 1.33.3.43 1.03.62.72.2 1.95.2 3.4 0 4.78-1.75 1.38-1.75 1.38-3.82 0-2.43-1.9-4.2Q32.2.42 28.4.42z"/>
  </g>
</symbol>

<symbol id="square" viewBox="0 0 100 100" preserveAspectRatio="xMidYMid meet">
  <rect x="0" y="0" width="100" height="100" fill="currentColor"/>
</symbol>

<symbol id="oslomet" viewBox="0 0 367 217" preserveAspectRatio="xMidYMid meet">
  <path fill="currentColor" d="M173.7 0a35.6 35.6 0 0 0-25.5 11 35.6 35.6 0 0 0 0 51.6v.1a35.5 35.5 0 0 0 51.8 0 35.6 35.6 0 0 0-.2-51.5A35.6 35.6 0 0 0 173.7 0zm-.6 16.3c5.2.2 10.4 2.5 14.7 6.8 8.6 8.5 9 20.8 1.1 28.6-8 8-20.2 7.6-28.8-1-8.5-8.5-9-20.8-1-28.8 3.9-4 8.9-5.8 14-5.6zm62 31.4L185.7 97l11 11 27.3-27.5-17.8 37 10.2 10.2 36.6-17.9-27.1 27.3 11 11L286.3 99 271.4 84l-44.1 22.8 22.5-44.5zM100.8 60L89.7 71l50.1 50.3 28.7-28.6-11-11L140 99zM78.2 90.2c-5.8.1-12 2.7-17.5 8.2-9.3 9.4-11.4 22.2-1.9 31.7 8.5 8.3 20.1 4.1 29.6.1 7.8-3.4 13.3-5 16.7-1.5 3.2 3.2 2 7.6-1.3 10.8-5.3 5.5-11.1 5-16 .1l-11.1 11.2c10.2 10.3 24.6 10.8 36.5-1.2 10.5-10.4 13.3-23 3.8-32.4-9.2-9.2-20.4-6.2-33.5-1-7.7 3.2-11.4 4.3-14 1.6-2.7-2.8-2.2-6.7 1-9.8 4.3-4.3 9.1-3.9 12.8-.9l10.5-10.4a21.3 21.3 0 0 0-15.6-6.5zm217.1 17.7L246 157.2l29.4 29.3 10.4-10.3-18.3-18.3 9.8-9.7 16.4 16.5 9.9-9.8-16.6-16.5 9-9 18.3 18.2 10.3-10.4zM36.7 137.1a35.6 35.6 0 0 0-25.5 11 35.6 35.6 0 0 0 0 51.8 35.5 35.5 0 0 0 51.8 0 35.6 35.6 0 0 0-.2-51.6A35.6 35.6 0 0 0 36.7 137zm295.6 7.7L321.9 155l11.2 11.1-38.9 39 11.4 11.3 38.8-38.8 11.3 11.2 10.3-10.4zm-296.1 8.7c5 .2 10.3 2.4 14.6 6.7 8.5 8.6 9 20.9 1.1 28.7-8 8-20.2 7.6-28.8-1-8.5-8.6-9-20.8-1-28.8 4-3.9 9-5.8 14-5.6z"/>
</symbol>

<symbol id="oslomet_spaced" viewBox="-50 -50 467 317" preserveAspectRatio="xMidYMid meet">
  <use x="0" y="0" width="367" height="217" xlink:href="#oslomet"/>
</symbol>

<symbol id="flag-sweden" viewBox="0 0 16 10" preserveAspectRatio="xMidYMid meet">
  <rect width="16" height="10" fill="#006aa7"/>
  <rect width="2" height="10" x="5" fill="#fecc00"/>
  <rect width="16" height="2" y="4" fill="#fecc00"/>
</symbol>

<symbol id="flag-norway" viewBox="0 0 110 80" preserveAspectRatio="xMidYMid meet">
  <rect width="110" height="80" x="0" y="0" fill="#ef2b2d"/>
  <rect width="20" height="80" x="30" fill="white"/>
  <rect width="110" height="20" y="30" fill="white"/>
  <rect width="10" height="80" x="35" fill="#002868"/>
  <rect width="110" height="10" y="35" fill="#002868"/>
</symbol>

<symbol id="flag-union-jack" viewBox="0 0 60 30" preserveAspectRatio="xMidYMid meet">
  <path d="M0 0v30h60V0z" fill="#00247d"/>
  <path d="M0 0v3.4l23.28 11.63L.01 26.66 0 29.99h6.7L30 18.39 53.3 30H60v-3.31L36.7 15.03 60 3.4V0h-6.67L30 11.69 6.59 0z" fill="#fff"/>
  <path d="M29.97 15.04l4.48-.02L60 27.82l-.04 2.16-29.99-14.94zM55.47 0h4.33L29.97 15.05V12.8L55.47 0zM12.74 8.57L0 2.2V0l29.98 15.03h-4.42L12.74 8.58zm17.23 6.46v2.19L4.47 30H.01l29.96-14.97z" fill="#cf142b"/>
  <path d="M25 0v10H0v10h25v10h10V20h25V10H35V0H25z" fill="#fff"/>
  <path d="M27 0v12H0v6h27v12h6V18h27v-6H33V0h-6z" fill="#cf142b"/>
</symbol>

</svg>