<svg viewBox="0 0 314.65 70.86">
<path d="M132.31 68.86H314.64V70.06H132.31z"></path>
<path d="M174.42 43.73h3.29v13c0 2.42 1.28 3.9 3.89 3.9s4-1.51 4-3.85v-13h3.26V56.87c0 4.24-2.9 6.77-7.22 6.77s-7.18-2.53-7.18-6.77zM192.86 48.46h3.06v1.42H196a5.22 5.22 0 014-1.83c3.23 0 5.26 2 5.26 5.51v9.66h-3.15V54.4c0-2.18-.78-3.43-2.86-3.43A2.92 2.92 0 00196 54.06v9.16h-3.17zM209.26 42.89h3.29V46h-3.29zm.06 5.57h3.17V63.22h-3.17zM214.83 48.46h3.29l3.95 10.2h.06l4-10.2h3.26l-5.93 14.76h-2.65zM243.51 60.19a6.83 6.83 0 01-6.12 3.45c-4 0-6.94-3-6.94-7.8s2.93-7.79 6.8-7.79S244 51 244 55.84v.95h-10.3c.08 2.39 1.33 4 3.67 4a4.43 4.43 0 003.9-2.51zm-2.64-5.79a3.41 3.41 0 00-3.62-3.54 3.59 3.59 0 00-3.57 3.54zM247.16 48.46h3V50h.06a3.45 3.45 0 013.06-1.83 3.41 3.41 0 011.31.27l-.5 3.09a4.13 4.13 0 00-1.17-.22c-1.67 0-2.59 1.12-2.59 3.68v8.21h-3.18zM258.94 57.6c.25 2.17 1.48 3.37 3.57 3.37s3.12-.75 3.12-1.9-.92-1.44-4.07-2.34c-3.34-.94-5-2.08-5-4.31s1.9-4.37 5.43-4.37 5.38 1.83 6.05 4.31l-2.68.78A3.2 3.2 0 00262 50.69c-1.67 0-2.53.78-2.53 1.59 0 1 .61 1.22 4.34 2.28s4.66 2.43 4.66 4.57-1.7 4.51-5.88 4.51c-4.35 0-6.21-2.67-6.57-5.35zM271.56 42.89h3.29V46h-3.29zm.06 5.57h3.17V63.22h-3.17zM279.86 51.19h-2.23V48.46h2.31V44.84h3v3.62h3.7v2.73H283V58c0 1.53.3 2.2 1.92 2.2h1.17v3.06h-1.42c-3.7 0-4.79-1.67-4.79-4.93zM301.52 60.19a6.83 6.83 0 01-6.12 3.45c-4 0-6.94-3-6.94-7.8s2.93-7.79 6.8-7.79S302 51 302 55.84v.95h-10.3c.08 2.39 1.33 4 3.67 4a4.43 4.43 0 003.9-2.51zm-2.64-5.79a3.41 3.41 0 00-3.62-3.54 3.59 3.59 0 00-3.57 3.54zM305.87 51.19h-2.23V48.46H306V44.84h3v3.62h3.7v2.73H309V58c0 1.53.3 2.2 1.92 2.2h1.17v3.06h-1.42c-3.7 0-4.79-1.67-4.79-4.93zM327.54 60.19a6.86 6.86 0 01-6.13 3.45c-4 0-6.93-3-6.93-7.8s2.92-7.79 6.79-7.79S328 51 328 55.84v.95h-10.3c.08 2.39 1.34 4 3.67 4a4.43 4.43 0 003.9-2.51zm-2.65-5.79a3.41 3.41 0 00-3.62-3.54 3.58 3.58 0 00-3.56 3.54zM331.88 51.19h-2.23V48.46H332V44.84h3v3.62h3.71v2.73H335V58c0 1.53.31 2.2 1.92 2.2h1.17v3.06h-1.42c-3.7 0-4.79-1.67-4.79-4.93zM174.78 74.92h3.29v3.15h-3.29zm.06 5.57H178V95.25h-3.17zM189.18 87.93c.47 3.12 1.42 4.7 4.4 4.7 2.39 0 3.79-1 3.79-2.64s-.67-2.23-5.15-3.62c-4.18-1.31-5.71-3.09-5.71-5.63 0-2.81 2.28-5.4 6.4-5.4 3.46 0 6.46 1.64 7.1 5.35l-3.2.78a3.63 3.63 0 00-3.9-3.07c-2.2 0-3.17 1-3.17 2.32s.64 1.7 4.93 3.14c4.7 1.59 5.93 3.07 5.93 5.93 0 3.29-2.62 5.88-7 5.88s-7.24-2.34-7.82-7zM204.55 93.36a8.44 8.44 0 01-1.72-5.49c0-5 3.2-7.79 6.85-7.79a6.58 6.58 0 014.09 1.42l1.06-1.4 1.06.89-1.14 1.45a8.55 8.55 0 011.72 5.43c0 5-3 7.8-6.79 7.8a6.72 6.72 0 01-4.18-1.36l-1 1.33-1.06-.86zm7.38-9.52a3.18 3.18 0 00-2.25-.9c-2.09 0-3.71 1.67-3.71 4.93a6.79 6.79 0 00.56 2.93zm-4.59 8.1a3.3 3.3 0 002.34.86c2.14 0 3.67-1.72 3.67-4.93a6.12 6.12 0 00-.61-2.86zM219.81 80.49h3v1.56h.06a3.45 3.45 0 013.06-1.83 3.36 3.36 0 011.31.27l-.5 3.09a4.13 4.13 0 00-1.17-.22c-1.67 0-2.59 1.12-2.59 3.68v8.21h-3.18zM230.09 93.36a8.38 8.38 0 01-1.72-5.49c0-5 3.2-7.79 6.84-7.79a6.58 6.58 0 014.1 1.42l1.06-1.4 1 .89-1.14 1.45A8.49 8.49 0 01242 87.87c0 5-3 7.8-6.8 7.8A6.71 6.71 0 01231 94.31l-1 1.33L229 94.78zm7.38-9.52a3.18 3.18 0 00-2.26-.9c-2.08 0-3.7 1.67-3.7 4.93a6.79 6.79 0 00.56 2.93zm-4.59 8.1a3.29 3.29 0 002.33.86c2.15 0 3.68-1.72 3.68-4.93a6.12 6.12 0 00-.61-2.86zM247.08 89.63c.25 2.17 1.48 3.37 3.56 3.37s3.12-.75 3.12-1.9-.92-1.44-4.06-2.34c-3.34-.94-5-2.08-5-4.31s1.89-4.37 5.43-4.37 5.37 1.83 6 4.31l-2.67.78a3.2 3.2 0 00-3.37-2.45c-1.67 0-2.53.78-2.53 1.59 0 1 .61 1.22 4.34 2.28s4.65 2.42 4.65 4.57-1.7 4.51-5.87 4.51c-4.35 0-6.21-2.67-6.58-5.35zM260.25 83.22H258V80.49h2.32V76.87h3v3.62h3.71v2.73h-3.68V90c0 1.53.31 2.2 1.92 2.2h1.17v3.06H265c-3.7 0-4.79-1.67-4.79-4.93zM270.26 84.73h8.25v2.53h-8.25zM283 75.76h3.42l7.75 13.78h.05V75.76h3.29V95.25h-3.34l-7.83-13.78h-.06V95.25H283zM301 87.87c0-5 3.2-7.79 6.85-7.79s6.79 2.75 6.79 7.79-3 7.8-6.79 7.8S301 92.91 301 87.87zm10.53 0c0-3.2-1.54-4.93-3.68-4.93s-3.7 1.67-3.7 4.93 1.53 4.93 3.7 4.93S311.53 91.08 311.53 87.87zM317.85 80.49h3v1.56h.05A3.46 3.46 0 01324 80.22a3.36 3.36 0 011.31.27l-.5 3.09a4.06 4.06 0 00-1.17-.22c-1.67 0-2.59 1.12-2.59 3.68v8.21h-3.17zM329.8 96.59c.72 1.56 1.67 2.56 3.64 2.56a3 3 0 003.32-3.37V93.89h-.06a4.63 4.63 0 01-3.81 1.78c-3.71 0-6.63-2.84-6.63-7.8s3.15-7.79 6.57-7.79a4.82 4.82 0 014 1.83h.06V80.49h3.06V95.34c0 4.4-2.75 6.6-6.49 6.6a6.15 6.15 0 01-6.09-3.79zm7-10.44a3.22 3.22 0 00-3.4-3.21c-2.31 0-3.93 1.7-3.93 4.93s1.59 4.93 3.93 4.93a3.17 3.17 0 003.4-3.09zM356.06 92.22a6.87 6.87 0 01-6.13 3.45c-4 0-6.93-3-6.93-7.8s2.92-7.79 6.79-7.79 6.71 3 6.71 7.79v.95H346.2c.08 2.39 1.34 4 3.68 4a4.43 4.43 0 003.89-2.51zm-2.65-5.79a3.41 3.41 0 00-3.62-3.54 3.58 3.58 0 00-3.56 3.54zM42.52 43.72H54v42.6c0 5.62.45 9.74 2.87 14.16 3.2 5.82 8.82 9.22 17.74 9.22 14.4 0 19-7.54 19-13.89 0-8.62-11.38-12.5-22.17-17.51-9.58-4.45-11.72-11.72-10.16-20 1.65-8.7 9.65-15.76 23.31-15.76 9.76 0 15.08 1 21.32 1.78l36.85 48.55V43.72h13.37V47.2H146.8v65.38h-3.23L103.22 59.69V79.6a21.06 21.06 0 00-4.11-3.94V54c-1.35-4.34-5.61-8-14.4-8.23C77.53 45.63 71.22 49 70.1 56.21c-1.47 9.53 7 11.84 18.19 17.25 12.18 5.9 15.18 11.65 15.18 18.18 0 9.19-10.06 21.74-29 21.74-10.38 0-19-3.06-24.57-8.75-6.09-6.22-7.38-11.47-7.38-21.26z" transform="translate(-42.52 -42.52)"></path>
</svg>