<?xml version="1.0" encoding="UTF-8" standalone="no"?>
<svg xmlns:dc="http://purl.org/dc/elements/1.1/" xmlns:cc="http://creativecommons.org/ns#" xmlns:rdf="http://www.w3.org/1999/02/22-rdf-syntax-ns#" xmlns:svg="http://www.w3.org/2000/svg" xmlns="http://www.w3.org/2000/svg" height="50" width="100" version="1.1" viewBox="0 0 100 50" data-name="Layer 1" id="Layer_1">
  <metadata id="metadata197">
    <rdf:RDF>
      <cc:Work rdf:about="">
        <dc:format>image/svg+xml</dc:format>
        <dc:type rdf:resource="http://purl.org/dc/dcmitype/StillImage"/>
        <dc:title>Nordic Journal of Art and Research</dc:title>
      </cc:Work>
    </rdf:RDF>
  </metadata>
  <defs id="defs195"/>
  <title id="title130">Nordic Journal of Art and Research</title>
  <rect style="opacity:1;vector-effect:none;fill:#ffffff;fill-opacity:1;stroke:none;stroke-width:2.000002;stroke-linecap:butt;stroke-linejoin:miter;stroke-miterlimit:4;stroke-dasharray:none;stroke-dashoffset:0;stroke-opacity:1;paint-order:fill markers stroke" id="rect6401" width="100" height="50" x="0" y="0" ry="0.415642"/>
  <g transform="matrix(1.52236,0,0,1.52236,-0.522266,-13.059)" id="g7825">
    <path d="M 21.101,39.7117 20.4623,33.4812 13.8425,31.2876 7.22,33.4916 6.58397,39.7221 H 0.999912 L 7.48999,24.8053 9.01126,13.1881 l 4.82604,-2.9102 4.8312,2.9102 1.5057,11.6068 6.4901,14.9168 z M 19.9457,28.6241 19.5849,25.1142 13.8425,12.4716 8.09746,25.1142 7.73921,28.6241 13.8425,30.6593 Z" id="path132" style="stroke-width:0.259603"/>
    <path d="m 38.606,39.7117 -2.513,-4.1069 -2.2741,4.1069 h -3.1464 l -0.758,-2.4325 -2.7518,-1.1967 v -3.149 l 2.474,-0.7996 1.2773,-3.0296 -3.7902,-3.9485 h 10.3296 v 3.1905 l -7.1002,-3.1516 4.229,7.2196 1.8353,1.8743 1.594,-3.3904 h 3.1516 l -4.3484,3.7902 4.9455,5.0233 z m -2.7881,-4.5846 -1.4746,-2.474 -1.3577,-1.4356 -3.1152,1.1552 -1.1553,2.2352 1.3941,2.4714 2.3935,0.9969 z" id="path134" style="stroke-width:0.259603"/>
    <path d="m 65.3737,39.7117 h -5.5841 l -4.987,-7.5285 -8.759,-6.6095 2.4273,14.138 h -5.5944 l 2.4792,-14.5559 -2.474,-14.5586 h 5.5892 l 2.6739,2.2326 13.2008,2.7933 v 5.5841 l -9.9298,1.7939 -3.4709,2.1547 4.3873,6.6198 z m -19.3456,-14.7558 8.0476,-2.4325 5.8229,-3.9096 -9.0445,-5.3453 -2.7129,-0.9164 z" id="path136" style="stroke-width:0.259603"/>
  </g>
</svg>