<?xml version="1.0" encoding="UTF-8" standalone="no"?>
<svg
   height="50"
   width="100"
   version="1.1"
   viewBox="0 0 100 50"
   data-name="Layer 1"
   id="Layer_1"
   xmlns="http://www.w3.org/2000/svg"
   xmlns:svg="http://www.w3.org/2000/svg"
   xmlns:rdf="http://www.w3.org/1999/02/22-rdf-syntax-ns#"
   xmlns:cc="http://creativecommons.org/ns#"
   xmlns:dc="http://purl.org/dc/elements/1.1/">
  <metadata
     id="metadata197">
    <rdf:RDF>
      <cc:Work
         rdf:about="">
        <dc:format>image/svg+xml</dc:format>
        <dc:type
           rdf:resource="http://purl.org/dc/dcmitype/StillImage" />
        <dc:title>Nordic Journal of Art and Research</dc:title>
      </cc:Work>
    </rdf:RDF>
  </metadata>
  <defs
     id="defs195" />
  <title
     id="title130">Nordic Journal of Art and Research</title>
  <rect
     style="fill:#1d3662;fill-opacity:1;stroke:none;stroke-width:4;stroke-linecap:round;stroke-linejoin:round;paint-order:stroke fill markers;stop-color:#000000"
     id="rect2744"
     width="100"
     height="50"
     x="0"
     y="0"
     rx="0" />
  <rect
     style="fill:#1d3662;fill-opacity:1;stroke:none;stroke-width:4;stroke-linecap:round;stroke-linejoin:round;paint-order:stroke fill markers;stop-color:#000000;font-variation-settings:normal;opacity:1;vector-effect:none;stroke-miterlimit:4;stroke-dasharray:none;stroke-dashoffset:0;stroke-opacity:1;-inkscape-stroke:none;stop-opacity:1"
     id="rect81709"
     width="90"
     height="40"
     x="5"
     y="5"
     rx="0" />
  <path
     id="path81923"
     style="font-weight:bold;font-size:28.195px;line-height:0.76;font-family:'Liberation Mono';-inkscape-font-specification:'Liberation Mono, Bold';letter-spacing:0px;word-spacing:0px;fill:#ffffff"
     d="M 5.0136719 5 L 5.0136719 23.572266 L 9.0742188 23.572266 L 9.0742188 15.669922 L 14.072266 15.669922 L 14.072266 23.572266 L 18.134766 23.572266 L 18.134766 5 L 14.072266 5 L 14.072266 12.310547 L 9.0742188 12.310547 L 9.0742188 5 L 5.0136719 5 z M 21.919922 5 L 21.919922 23.572266 L 25.980469 23.572266 L 25.980469 16.482422 L 28.363281 16.482422 L 32.355469 23.572266 L 36.925781 23.572266 L 32.121094 15.572266 C 33.323419 15.214322 34.264183 14.595938 34.943359 13.714844 C 35.622536 12.83375 35.962891 11.763253 35.962891 10.505859 C 35.962891 8.7253158 35.360529 7.3633089 34.158203 6.4179688 C 32.955877 5.4726285 31.143711 5 28.720703 5 L 21.919922 5 z M 48.691406 5 L 48.691406 11.771484 L 50.109375 11.771484 L 50.109375 8.8691406 L 53.060547 8.8691406 L 53.060547 11.771484 L 54.478516 11.771484 L 54.478516 5 L 53.060547 5 L 53.060547 7.6953125 L 50.109375 7.6953125 L 50.109375 5 L 48.691406 5 z M 64.6875 6.4707031 C 64.341453 6.4707031 64.042891 6.5608025 63.792969 6.7402344 C 63.546249 6.9196662 63.340443 7.2081553 63.173828 7.6054688 L 63.154297 7.6054688 C 63.154297 7.5061404 63.146879 7.3252395 63.130859 7.0625 C 63.114839 6.7965563 63.10141 6.6331443 63.091797 6.5722656 L 61.802734 6.5722656 C 61.812354 6.7132478 61.821725 6.8733025 61.828125 7.0527344 C 61.837738 7.2289621 61.841797 7.4556147 61.841797 7.734375 L 61.841797 11.771484 L 63.193359 11.771484 L 63.193359 8.984375 C 63.193359 8.5422036 63.277446 8.181104 63.447266 7.9023438 C 63.620289 7.6235835 63.842882 7.484375 64.115234 7.484375 C 64.640713 7.484375 64.904297 7.9422887 64.904297 8.8554688 L 64.904297 11.771484 L 66.244141 11.771484 L 66.244141 8.921875 C 66.260161 8.4732953 66.350963 8.1222677 66.517578 7.8691406 C 66.687397 7.6128094 66.905229 7.484375 67.167969 7.484375 C 67.693447 7.484375 67.955078 7.9422887 67.955078 8.8554688 L 67.955078 11.771484 L 69.296875 11.771484 L 69.296875 8.4707031 C 69.296875 7.8266709 69.164381 7.3330774 68.898438 6.9902344 C 68.632493 6.6441872 68.244535 6.4707031 67.738281 6.4707031 C 67.356989 6.4707031 67.043594 6.5581473 66.796875 6.734375 C 66.550156 6.9106027 66.338337 7.201747 66.162109 7.6054688 L 66.134766 7.6054688 C 65.964946 6.8492916 65.482127 6.4707031 64.6875 6.4707031 z M 79.072266 6.4707031 C 78.690973 6.4707031 78.363447 6.5608025 78.087891 6.7402344 C 77.812335 6.9196662 77.583027 7.2081553 77.400391 7.6054688 L 77.380859 7.6054688 C 77.380859 7.5061404 77.371489 7.3252395 77.355469 7.0625 C 77.339449 6.7965563 77.327973 6.6331443 77.318359 6.5722656 L 76.029297 6.5722656 C 76.038917 6.7132478 76.048288 6.8733025 76.054688 7.0527344 C 76.064301 7.2289621 76.068359 7.4556147 76.068359 7.734375 L 76.068359 11.771484 L 77.417969 11.771484 L 77.417969 8.984375 C 77.417969 8.5454077 77.51814 8.1869634 77.716797 7.9082031 C 77.918658 7.6262388 78.182944 7.484375 78.509766 7.484375 C 79.128165 7.484375 79.4375 7.9422887 79.4375 8.8554688 L 79.4375 11.771484 L 80.783203 11.771484 L 80.783203 8.4707031 C 80.783203 7.8170585 80.636578 7.3201076 80.341797 6.9804688 C 80.047016 6.6408298 79.623378 6.4707031 79.072266 6.4707031 z M 72.666016 6.4746094 C 72.015576 6.4746094 71.501136 6.6064011 71.123047 6.8691406 C 70.748162 7.128676 70.516199 7.5113239 70.429688 8.0175781 L 71.839844 8.0859375 C 71.868681 7.823198 71.939338 7.6355824 72.054688 7.5234375 C 72.173241 7.4080884 72.357499 7.3496094 72.607422 7.3496094 C 72.87657 7.3496094 73.0709 7.432994 73.189453 7.5996094 C 73.308006 7.7630205 73.367188 8.0158299 73.367188 8.3554688 L 73.367188 8.6191406 L 72.248047 8.6386719 C 71.581586 8.6450801 71.071205 8.7883482 70.71875 9.0703125 C 70.369499 9.3522769 70.195312 9.7624854 70.195312 10.300781 C 70.195313 10.797423 70.335223 11.183428 70.617188 11.458984 C 70.899152 11.731336 71.291872 11.867188 71.794922 11.867188 C 72.557508 11.867188 73.127771 11.526232 73.505859 10.84375 L 73.535156 10.84375 C 73.567198 11.167369 73.664012 11.413463 73.824219 11.580078 C 73.98763 11.746693 74.238486 11.830078 74.578125 11.830078 C 74.67425 11.830078 74.757634 11.826713 74.828125 11.820312 C 74.901823 11.813906 74.971076 11.806488 75.035156 11.796875 C 75.099242 11.787262 75.162482 11.773832 75.226562 11.757812 C 75.290645 11.741793 75.363256 11.724305 75.443359 11.705078 L 75.443359 10.974609 C 75.347235 10.993836 75.249017 11.003906 75.146484 11.003906 C 74.992686 11.003906 74.88174 10.948784 74.814453 10.839844 C 74.750366 10.727699 74.71875 10.525952 74.71875 10.234375 L 74.71875 8.3398438 C 74.71875 7.7438736 74.539253 7.2845557 74.183594 6.9609375 C 73.827934 6.6373193 73.322865 6.4746094 72.666016 6.4746094 z M 55.751953 6.5722656 L 55.751953 9.8730469 C 55.751953 10.526692 55.900532 11.023643 56.195312 11.363281 C 56.490094 11.699716 56.911779 11.867188 57.462891 11.867188 C 57.844183 11.867188 58.173663 11.779041 58.449219 11.599609 C 58.727979 11.420177 58.957287 11.132391 59.136719 10.738281 L 59.160156 10.738281 C 59.160156 10.965775 59.17835 11.310088 59.216797 11.771484 L 60.505859 11.771484 C 60.480226 11.438254 60.466797 11.051546 60.466797 10.609375 L 60.466797 6.5722656 L 59.117188 6.5722656 L 59.117188 9.359375 C 59.117187 9.7983421 59.016314 10.159442 58.814453 10.441406 C 58.615796 10.720166 58.352213 10.859375 58.025391 10.859375 C 57.410196 10.859375 57.103516 10.401461 57.103516 9.4882812 L 57.103516 6.5722656 L 55.751953 6.5722656 z M 25.980469 8.1523438 L 28.292969 8.1523438 C 29.541185 8.1523438 30.450492 8.3584717 31.019531 8.7714844 C 31.588571 9.175319 31.873047 9.8091375 31.873047 10.671875 C 31.873047 12.44324 30.717168 13.328125 28.404297 13.328125 L 25.980469 13.328125 L 25.980469 8.1523438 z M 73.367188 9.3632812 L 73.367188 9.6289062 C 73.367188 9.8564002 73.318078 10.072278 73.21875 10.277344 C 73.119421 10.479204 72.980915 10.638558 72.804688 10.753906 C 72.631663 10.869256 72.439989 10.925781 72.228516 10.925781 C 72.039472 10.925781 71.886834 10.8666 71.771484 10.748047 C 71.65934 10.62629 71.603516 10.442031 71.603516 10.195312 C 71.603516 10.003064 71.637791 9.8497241 71.705078 9.734375 C 71.775569 9.6190256 71.876442 9.5329856 72.007812 9.4785156 C 72.139182 9.4208412 72.361775 9.3858635 72.675781 9.3730469 L 73.367188 9.3632812 z M 55.830078 15.683594 L 55.830078 16.677734 L 57.179688 16.677734 L 57.179688 15.683594 L 55.830078 15.683594 z M 64.576172 15.683594 L 64.576172 22.816406 L 65.927734 22.816406 L 65.927734 20.033203 C 65.927734 19.594236 66.025953 19.235791 66.224609 18.957031 C 66.42647 18.675067 66.690755 18.533203 67.017578 18.533203 C 67.635977 18.533203 67.945312 18.991117 67.945312 19.904297 L 67.945312 22.816406 L 69.291016 22.816406 L 69.291016 19.519531 C 69.291016 18.865887 69.14439 18.368936 68.849609 18.029297 C 68.554829 17.689658 68.131191 17.519531 67.580078 17.519531 C 67.198785 17.519531 66.871259 17.60963 66.595703 17.789062 C 66.320147 17.968494 66.090839 18.256983 65.908203 18.654297 L 65.888672 18.654297 C 65.914305 18.321066 65.927734 17.980111 65.927734 17.630859 L 65.927734 15.683594 L 64.576172 15.683594 z M 48.691406 16.044922 L 48.691406 22.816406 L 50.109375 22.816406 L 50.109375 20.244141 L 51.773438 20.244141 L 53.34375 22.816406 L 54.939453 22.816406 L 53.109375 19.970703 C 53.567567 19.861762 53.930071 19.635811 54.199219 19.292969 C 54.468367 18.946921 54.603516 18.536713 54.603516 18.0625 C 54.603516 17.412059 54.38428 16.914407 53.945312 16.568359 C 53.506345 16.219108 52.883615 16.044922 52.076172 16.044922 L 48.691406 16.044922 z M 71.169922 16.394531 L 70.748047 17.615234 L 70.021484 17.615234 L 70.021484 18.529297 L 70.679688 18.529297 L 70.679688 21.595703 C 70.679687 22.03467 70.787276 22.362196 71.001953 22.580078 C 71.21663 22.794755 71.522608 22.902344 71.919922 22.902344 C 72.346073 22.902344 72.727317 22.847222 73.060547 22.738281 L 73.060547 21.902344 C 72.865095 21.947204 72.713159 21.970703 72.607422 21.970703 C 72.405561 21.970703 72.25628 21.911522 72.160156 21.792969 C 72.064032 21.671211 72.017578 21.483595 72.017578 21.230469 L 72.017578 18.529297 L 73.001953 18.529297 L 73.001953 17.615234 L 72.017578 17.615234 L 72.017578 16.394531 L 71.169922 16.394531 z M 50.109375 17.144531 L 51.925781 17.144531 C 52.758858 17.144531 53.175781 17.470653 53.175781 18.121094 C 53.175781 18.444712 53.074206 18.695568 52.869141 18.875 C 52.664076 19.054432 52.362157 19.144531 51.964844 19.144531 L 50.109375 19.144531 L 50.109375 17.144531 z M 60.289062 17.515625 C 59.635418 17.515625 59.137765 17.745635 58.794922 18.207031 C 58.452079 18.668427 58.28125 19.322778 58.28125 20.171875 C 58.28125 21.017768 58.448019 21.668059 58.78125 22.123047 C 59.114481 22.578035 59.583871 22.806641 60.189453 22.806641 C 61.006509 22.806641 61.563343 22.487233 61.861328 21.849609 L 61.871094 21.849609 L 61.861328 22.363281 L 61.861328 22.638672 C 61.861328 23.09366 61.774586 23.435318 61.601562 23.666016 C 61.428539 23.896714 61.154182 24.011719 60.779297 24.011719 C 60.522966 24.011719 60.314504 23.952538 60.154297 23.833984 C 59.997292 23.715431 59.895716 23.552019 59.847656 23.34375 L 58.496094 23.503906 C 58.58581 23.952486 58.824488 24.296799 59.208984 24.537109 C 59.596686 24.780624 60.107767 24.902344 60.742188 24.902344 C 61.543222 24.902344 62.152523 24.712073 62.572266 24.333984 C 62.992008 23.955896 63.201172 23.39836 63.201172 22.658203 L 63.201172 18.816406 C 63.201172 18.361418 63.211242 17.961282 63.230469 17.615234 L 61.953125 17.615234 C 61.937105 17.676113 61.920317 17.803845 61.904297 17.996094 C 61.891484 18.188342 61.884766 18.339027 61.884766 18.451172 L 61.861328 18.451172 C 61.569751 17.826365 61.04524 17.515625 60.289062 17.515625 z M 75.933594 17.515625 C 75.231886 17.515625 74.689184 17.654834 74.304688 17.933594 C 73.923395 18.20915 73.732422 18.595155 73.732422 19.091797 C 73.732422 19.392986 73.801675 19.6472 73.939453 19.855469 C 74.080435 20.060534 74.282884 20.228006 74.548828 20.359375 C 74.814771 20.487541 75.329211 20.626749 76.091797 20.777344 C 76.425027 20.84463 76.661049 20.928015 76.798828 21.027344 C 76.93981 21.123468 77.009766 21.25526 77.009766 21.421875 C 77.009766 21.62694 76.923024 21.776922 76.75 21.873047 C 76.576977 21.969171 76.301917 22.017578 75.923828 22.017578 C 75.513698 22.017578 75.225209 21.967767 75.058594 21.865234 C 74.895183 21.762702 74.780178 21.586563 74.712891 21.339844 L 73.525391 21.517578 C 73.650352 21.994995 73.903161 22.348678 74.28125 22.576172 C 74.662543 22.800461 75.209305 22.912109 75.923828 22.912109 C 76.651168 22.912109 77.220729 22.769543 77.630859 22.484375 C 78.044193 22.196002 78.25 21.799925 78.25 21.296875 C 78.25 20.99889 78.193474 20.755451 78.078125 20.566406 C 77.96598 20.374158 77.813342 20.21746 77.621094 20.095703 C 77.432049 19.973946 77.178538 19.869715 76.861328 19.783203 C 76.547323 19.693487 76.186223 19.606745 75.779297 19.523438 C 75.48772 19.465763 75.279259 19.393153 75.154297 19.306641 C 75.03254 19.216925 74.972656 19.09786 74.972656 18.947266 C 74.972656 18.755018 75.052683 18.619166 75.212891 18.539062 C 75.373098 18.455755 75.61318 18.414062 75.933594 18.414062 C 76.260416 18.414062 76.499796 18.466529 76.650391 18.572266 C 76.800988 18.674798 76.895147 18.831495 76.933594 19.042969 L 78.130859 18.917969 C 78.037939 18.462981 77.801917 18.115311 77.423828 17.875 C 77.048943 17.63469 76.551992 17.515625 75.933594 17.515625 z M 55.830078 17.615234 L 55.830078 22.816406 L 57.179688 22.816406 L 57.179688 17.615234 L 55.830078 17.615234 z M 60.769531 18.441406 C 61.121987 18.441406 61.392987 18.593342 61.582031 18.894531 C 61.774279 19.192517 61.871094 19.60944 61.871094 20.144531 C 61.871094 20.695643 61.774279 21.120686 61.582031 21.421875 C 61.392987 21.71986 61.118629 21.869141 60.759766 21.869141 C 60.045242 21.869141 59.689453 21.302937 59.689453 20.171875 C 59.689453 19.018384 60.0486 18.441406 60.769531 18.441406 z M 5 26.427734 L 5 45 L 18.890625 45 L 18.890625 41.861328 L 9.0605469 41.861328 L 9.0605469 37.166016 L 17.486328 37.166016 L 17.486328 34.027344 L 9.0605469 34.027344 L 9.0605469 29.566406 L 18.326172 29.566406 L 18.326172 26.427734 L 5 26.427734 z M 21.919922 26.427734 L 21.919922 45 L 25.980469 45 L 25.980469 37.910156 L 28.363281 37.910156 L 32.355469 45 L 36.925781 45 L 32.121094 37.001953 C 33.323419 36.644008 34.264183 36.023672 34.943359 35.142578 C 35.622536 34.261485 35.962891 33.192941 35.962891 31.935547 C 35.962891 30.155003 35.360529 28.791043 34.158203 27.845703 C 32.955877 26.900363 31.143711 26.427734 28.720703 26.427734 L 21.919922 26.427734 z M 58.574219 26.726562 L 58.574219 28.625 L 58.583984 29.480469 L 58.574219 29.480469 C 58.430032 29.176075 58.222273 28.948721 57.953125 28.794922 C 57.687182 28.641123 57.370429 28.5625 57.001953 28.5625 C 56.364329 28.5625 55.870736 28.798523 55.521484 29.269531 C 55.175437 29.737336 55.001953 30.401759 55.001953 31.263672 C 55.001953 32.112769 55.16802 32.775787 55.498047 33.25 C 55.828073 33.721009 56.294808 33.955078 56.900391 33.955078 C 57.717447 33.955078 58.272876 33.641683 58.564453 33.013672 L 58.583984 33.013672 C 58.583984 33.141837 58.591402 33.304547 58.607422 33.5 C 58.626649 33.692251 58.643437 33.811315 58.65625 33.859375 L 59.962891 33.859375 C 59.937257 33.423612 59.923828 33.046976 59.923828 32.726562 L 59.923828 26.726562 L 58.574219 26.726562 z M 81.537109 26.726562 L 81.537109 27.722656 L 82.888672 27.722656 L 82.888672 26.726562 L 81.537109 26.726562 z M 48.691406 27.087891 L 48.691406 33.859375 L 54.214844 33.859375 L 54.214844 32.763672 L 50.109375 32.763672 L 50.109375 30.980469 L 53.724609 30.980469 L 53.724609 29.884766 L 50.109375 29.884766 L 50.109375 28.183594 L 54.017578 28.183594 L 54.017578 27.087891 L 48.691406 27.087891 z M 78.841797 27.439453 L 78.417969 28.660156 L 77.693359 28.660156 L 77.693359 29.572266 L 78.351562 29.572266 L 78.351562 32.638672 C 78.351563 33.077639 78.459151 33.407118 78.673828 33.625 C 78.888505 33.839677 79.194484 33.947266 79.591797 33.947266 C 80.017948 33.947266 80.397238 33.892144 80.730469 33.783203 L 80.730469 32.947266 C 80.535016 32.992126 80.385034 33.013672 80.279297 33.013672 C 80.077436 33.013672 79.928156 32.954491 79.832031 32.835938 C 79.735907 32.71418 79.6875 32.526564 79.6875 32.273438 L 79.6875 29.572266 L 80.671875 29.572266 L 80.671875 28.660156 L 79.6875 28.660156 L 79.6875 27.439453 L 78.841797 27.439453 z M 93.289062 28.558594 C 92.90777 28.558594 92.57829 28.648694 92.302734 28.828125 C 92.027178 29.007557 91.799824 29.296046 91.617188 29.693359 L 91.597656 29.693359 C 91.597656 29.594031 91.588286 29.41313 91.572266 29.150391 C 91.556246 28.884448 91.54477 28.721036 91.535156 28.660156 L 90.246094 28.660156 C 90.255714 28.801138 90.265084 28.961193 90.271484 29.140625 C 90.281098 29.316853 90.285156 29.543506 90.285156 29.822266 L 90.285156 33.859375 L 91.634766 33.859375 L 91.634766 31.072266 C 91.634766 30.633298 91.734937 30.274854 91.933594 29.996094 C 92.135454 29.714129 92.39974 29.572266 92.726562 29.572266 C 93.344962 29.572266 93.654297 30.030179 93.654297 30.943359 L 93.654297 33.859375 L 95 33.859375 L 95 30.558594 C 95 29.904949 94.853374 29.407998 94.558594 29.068359 C 94.263812 28.728721 93.840175 28.558594 93.289062 28.558594 z M 69.498047 28.5625 C 68.70342 28.5625 68.090762 28.804536 67.658203 29.285156 C 67.225644 29.762574 67.007812 30.430353 67.007812 31.289062 C 67.007813 32.128548 67.222989 32.782898 67.652344 33.253906 C 68.081698 33.72171 68.690297 33.955078 69.478516 33.955078 C 69.898258 33.955078 70.276847 33.881063 70.613281 33.730469 C 70.949716 33.57667 71.220716 33.360791 71.425781 33.082031 C 71.634052 32.803271 71.762487 32.484566 71.810547 32.128906 L 70.455078 32.066406 C 70.413424 32.386821 70.305836 32.629558 70.132812 32.792969 C 69.959789 32.953176 69.744613 33.033203 69.488281 33.033203 C 68.780166 33.033203 68.425781 32.434677 68.425781 31.236328 C 68.425781 30.073225 68.773451 29.490234 69.46875 29.490234 C 69.750714 29.490234 69.969248 29.570262 70.123047 29.730469 C 70.276849 29.887471 70.373663 30.09929 70.412109 30.365234 L 71.771484 30.298828 C 71.668952 29.757328 71.418095 29.332988 71.017578 29.025391 C 70.61706 28.717793 70.110038 28.5625 69.498047 28.5625 z M 74.857422 28.5625 C 74.206981 28.5625 73.692542 28.694292 73.314453 28.957031 C 72.939568 29.216567 72.709558 29.599214 72.623047 30.105469 L 74.03125 30.173828 C 74.060087 29.911089 74.130744 29.723473 74.246094 29.611328 C 74.364647 29.495979 74.548905 29.4375 74.798828 29.4375 C 75.067976 29.4375 75.262306 29.520885 75.380859 29.6875 C 75.499412 29.850911 75.558594 30.103721 75.558594 30.443359 L 75.558594 30.707031 L 74.439453 30.726562 C 73.772992 30.73297 73.262612 30.876238 72.910156 31.158203 C 72.560905 31.440167 72.386719 31.850376 72.386719 32.388672 C 72.386719 32.885313 72.528582 33.271319 72.810547 33.546875 C 73.092511 33.819227 73.483277 33.955078 73.986328 33.955078 C 74.748913 33.955078 75.32113 33.614123 75.699219 32.931641 L 75.726562 32.931641 C 75.758604 33.255259 75.855418 33.501353 76.015625 33.667969 C 76.179036 33.834584 76.429892 33.917969 76.769531 33.917969 C 76.865655 33.917969 76.94904 33.914603 77.019531 33.908203 C 77.093223 33.901796 77.162476 33.894379 77.226562 33.884766 C 77.290648 33.875152 77.353889 33.861723 77.417969 33.845703 C 77.482051 33.829683 77.554662 33.812195 77.634766 33.792969 L 77.634766 33.0625 C 77.538641 33.081727 77.440423 33.091797 77.337891 33.091797 C 77.184092 33.091797 77.073146 33.036675 77.005859 32.927734 C 76.941779 32.81559 76.910156 32.613842 76.910156 32.322266 L 76.910156 30.427734 C 76.910156 29.831764 76.73066 29.372446 76.375 29.048828 C 76.019341 28.72521 75.514271 28.5625 74.857422 28.5625 z M 86.599609 28.5625 C 85.769737 28.5625 85.123505 28.804536 84.662109 29.285156 C 84.200713 29.762574 83.970703 30.419579 83.970703 31.255859 C 83.970703 32.095344 84.200713 32.753754 84.662109 33.234375 C 85.123505 33.714996 85.759664 33.955078 86.570312 33.955078 C 87.39698 33.955078 88.043914 33.717651 88.511719 33.240234 C 88.979523 32.759613 89.212891 32.098548 89.212891 31.255859 C 89.212891 30.387537 88.989596 29.721162 88.541016 29.259766 C 88.09564 28.795166 87.448707 28.5625 86.599609 28.5625 z M 61.222656 28.660156 L 61.222656 31.960938 C 61.222656 32.614582 61.369281 33.111533 61.664062 33.451172 C 61.958843 33.787607 62.382482 33.955078 62.933594 33.955078 C 63.314887 33.955078 63.642413 33.866931 63.917969 33.6875 C 64.196729 33.508068 64.426037 33.220281 64.605469 32.826172 L 64.628906 32.826172 C 64.628906 33.053666 64.649053 33.397979 64.6875 33.859375 L 65.974609 33.859375 C 65.948976 33.526144 65.9375 33.139437 65.9375 32.697266 L 65.9375 28.660156 L 64.585938 28.660156 L 64.585938 31.447266 C 64.585937 31.886233 64.485064 32.247332 64.283203 32.529297 C 64.084546 32.808057 63.822916 32.947266 63.496094 32.947266 C 62.880899 32.947266 62.572266 32.489352 62.572266 31.576172 L 62.572266 28.660156 L 61.222656 28.660156 z M 81.537109 28.660156 L 81.537109 33.859375 L 82.888672 33.859375 L 82.888672 28.660156 L 81.537109 28.660156 z M 57.482422 29.480469 C 57.847694 29.480469 58.122754 29.633107 58.308594 29.9375 C 58.497638 30.238689 58.59375 30.669744 58.59375 31.230469 C 58.59375 31.807214 58.49428 32.252401 58.298828 32.566406 C 58.103375 32.877208 57.828316 33.033203 57.472656 33.033203 C 56.764542 33.033203 56.410156 32.442796 56.410156 31.263672 C 56.410156 30.661294 56.499554 30.215405 56.675781 29.923828 C 56.852009 29.629047 57.120354 29.480469 57.482422 29.480469 z M 86.617188 29.490234 C 87.001684 29.490234 87.296186 29.631396 87.498047 29.910156 C 87.699908 30.188916 87.800781 30.63746 87.800781 31.255859 C 87.800781 32.441391 87.38456 33.033203 86.554688 33.033203 C 86.176599 33.033203 85.887408 32.883221 85.685547 32.582031 C 85.48689 32.277638 85.386719 31.835809 85.386719 31.255859 C 85.386719 30.07994 85.796927 29.490234 86.617188 29.490234 z M 25.980469 29.580078 L 28.292969 29.580078 C 29.541185 29.580078 30.450492 29.788159 31.019531 30.201172 C 31.588571 30.605007 31.873047 31.236871 31.873047 32.099609 C 31.873047 33.870975 30.717168 34.757812 28.404297 34.757812 L 25.980469 34.757812 L 25.980469 29.580078 z M 75.558594 31.451172 L 75.558594 31.716797 C 75.558594 31.944291 75.509484 32.160169 75.410156 32.365234 C 75.310828 32.567095 75.172321 32.726448 74.996094 32.841797 C 74.82307 32.957146 74.631395 33.013672 74.419922 33.013672 C 74.230877 33.013672 74.078239 32.954491 73.962891 32.835938 C 73.850745 32.71418 73.794922 32.529922 73.794922 32.283203 C 73.794922 32.090954 73.829197 31.937614 73.896484 31.822266 C 73.966975 31.706913 74.067849 31.620873 74.199219 31.566406 C 74.330588 31.508728 74.553181 31.473751 74.867188 31.460938 L 75.558594 31.451172 z M 66.777344 37.771484 L 66.777344 38.765625 L 68.128906 38.765625 L 68.128906 37.771484 L 66.777344 37.771484 z M 48.691406 38.132812 L 48.691406 44.904297 L 50.109375 44.904297 L 50.109375 42.332031 L 51.773438 42.332031 L 53.34375 44.904297 L 54.939453 44.904297 L 53.109375 42.058594 C 53.567567 41.949653 53.930071 41.723702 54.199219 41.380859 C 54.468367 41.034812 54.603516 40.624603 54.603516 40.150391 C 54.603516 39.49995 54.38428 39.002297 53.945312 38.65625 C 53.506345 38.306999 52.883615 38.132812 52.076172 38.132812 L 48.691406 38.132812 z M 50.109375 39.232422 L 51.925781 39.232422 C 52.758858 39.232422 53.175781 39.558544 53.175781 40.208984 C 53.175781 40.532602 53.074206 40.783459 52.869141 40.962891 C 52.664076 41.142323 52.362157 41.232422 51.964844 41.232422 L 50.109375 41.232422 L 50.109375 39.232422 z M 57.978516 39.607422 C 57.196706 39.607422 56.592166 39.837432 56.166016 40.298828 C 55.739865 40.760225 55.527344 41.420588 55.527344 42.279297 C 55.527344 43.166844 55.736507 43.843993 56.15625 44.308594 C 56.575992 44.76999 57.177174 45 57.958984 45 C 59.086842 45 59.834649 44.529908 60.203125 43.587891 L 58.929688 43.476562 C 58.804726 43.889896 58.502808 44.095703 58.025391 44.095703 C 57.679344 44.095703 57.411701 43.969222 57.222656 43.712891 C 57.036816 43.453355 56.945312 43.068755 56.945312 42.5625 L 60.279297 42.5625 L 60.279297 42.525391 C 60.279297 41.570557 60.083562 40.845 59.689453 40.351562 C 59.295344 39.854921 58.72508 39.607422 57.978516 39.607422 z M 71.660156 39.607422 C 70.878346 39.607422 70.27576 39.837432 69.849609 40.298828 C 69.423459 40.760225 69.208984 41.420588 69.208984 42.279297 C 69.208984 43.166844 69.420101 43.843993 69.839844 44.308594 C 70.259586 44.76999 70.860767 45 71.642578 45 C 72.770435 45 73.518243 44.529908 73.886719 43.587891 L 72.613281 43.476562 C 72.48832 43.889896 72.186401 44.095703 71.708984 44.095703 C 71.362937 44.095703 71.095294 43.969222 70.90625 43.712891 C 70.720409 43.453355 70.626953 43.068755 70.626953 42.5625 L 73.962891 42.5625 L 73.962891 42.525391 C 73.962891 41.570557 73.765203 40.845 73.371094 40.351562 C 72.976984 39.854921 72.406721 39.607422 71.660156 39.607422 z M 60.654297 39.703125 L 62.515625 44.904297 L 64.128906 44.904297 L 66.046875 39.703125 L 64.634766 39.703125 C 63.997142 41.651242 63.628625 42.791067 63.529297 43.121094 C 63.429967 43.45112 63.364071 43.681131 63.332031 43.8125 C 63.152597 43.171672 63.038294 42.771535 62.990234 42.611328 L 62.082031 39.703125 L 60.654297 39.703125 z M 66.777344 39.703125 L 66.777344 44.904297 L 68.128906 44.904297 L 68.128906 39.703125 L 66.777344 39.703125 z M 74.271484 39.703125 L 75.617188 44.904297 L 77.044922 44.904297 L 77.880859 41.742188 L 78.130859 40.664062 C 78.243001 41.231196 78.317015 41.588236 78.355469 41.732422 L 79.183594 44.904297 L 80.609375 44.904297 L 81.974609 39.703125 L 80.724609 39.703125 L 79.976562 43.042969 L 79.841797 43.677734 C 79.755287 43.232359 79.689391 42.926381 79.644531 42.759766 L 78.845703 39.703125 L 77.400391 39.703125 L 76.582031 42.759766 L 76.462891 43.322266 L 76.394531 43.677734 L 75.539062 39.703125 L 74.271484 39.703125 z M 57.958984 40.458984 C 58.256969 40.458984 58.493694 40.563917 58.669922 40.775391 C 58.846149 40.98366 58.947023 41.297055 58.972656 41.716797 L 56.953125 41.716797 C 56.962738 41.319484 57.052837 41.010148 57.222656 40.789062 C 57.39568 40.567977 57.641774 40.458984 57.958984 40.458984 z M 71.642578 40.458984 C 71.940563 40.458984 72.177288 40.563917 72.353516 40.775391 C 72.529743 40.98366 72.630617 41.297055 72.65625 41.716797 L 70.636719 41.716797 C 70.646331 41.319484 70.736431 41.010148 70.90625 40.789062 C 71.079273 40.567977 71.325368 40.458984 71.642578 40.458984 z " />
  <path
     style="fill:none;stroke:#496bb1;stroke-width:1px;stroke-linecap:butt;stroke-linejoin:miter;stroke-opacity:1"
     d="M 42.809021,4.9999991 V 45.000001"
     id="path61420" />
</svg>
