<?xml version="1.0" encoding="UTF-8" standalone="no"?>
<svg
   xmlns:dc="http://purl.org/dc/elements/1.1/"
   xmlns:cc="http://creativecommons.org/ns#"
   xmlns:rdf="http://www.w3.org/1999/02/22-rdf-syntax-ns#"
   xmlns:svg="http://www.w3.org/2000/svg"
   xmlns="http://www.w3.org/2000/svg"
   xmlns:xlink="http://www.w3.org/1999/xlink"
   width="195.79167mm"
   height="43.391666mm"
   viewBox="0 0 195.79167 43.391666"
   version="1.1"
   id="svg8">
  <defs
     id="defs2">
    <linearGradient
       id="linearGradient2325">
      <stop
         style="stop-color:#000000;stop-opacity:1"
         offset="0"
         id="stop2321" />
      <stop
         style="stop-color:#ffffff;stop-opacity:0.10300337"
         offset="1"
         id="stop2323" />
    </linearGradient>
    <linearGradient
       id="linearGradient2296">
      <stop
         style="stop-color:#606264;stop-opacity:1"
         offset="0"
         id="stop2292" />
      <stop
         style="stop-color:#a7a7a8;stop-opacity:1"
         offset="1"
         id="stop2294" />
    </linearGradient>
    <linearGradient
       id="linearGradient2288">
      <stop
         style="stop-color:#cccccc;stop-opacity:1;"
         offset="0"
         id="stop2284" />
      <stop
         style="stop-color:#cccccc;stop-opacity:0;"
         offset="1"
         id="stop2286" />
    </linearGradient>
    <linearGradient
       xlink:href="#linearGradient2288"
       id="linearGradient2290"
       x1="722.07355"
       y1="-486.57663"
       x2="922.35028"
       y2="-437.6091"
       gradientUnits="userSpaceOnUse"
       gradientTransform="matrix(0.092996,0,0,0.092996,1326.6708,-1192.4565)" />
    <linearGradient
       xlink:href="#linearGradient2296"
       id="linearGradient2298"
       x1="721.96466"
       y1="-523.18335"
       x2="920.31702"
       y2="-807.37866"
       gradientUnits="userSpaceOnUse"
       gradientTransform="matrix(0.092996,0,0,0.092996,1326.6708,-1192.4565)" />
    <linearGradient
       xlink:href="#linearGradient2325"
       id="linearGradient2327"
       x1="-75.097832"
       y1="-474.88644"
       x2="-75.097832"
       y2="-362.12308"
       gradientUnits="userSpaceOnUse"
       gradientTransform="matrix(0.092996,0,0,0.092996,1326.6708,-1192.4565)" />
  </defs>
  <metadata
     id="metadata5">
    <rdf:RDF>
      <cc:Work
         rdf:about="">
        <dc:format>image/svg+xml</dc:format>
        <dc:type
           rdf:resource="http://purl.org/dc/dcmitype/StillImage" />
        <dc:title></dc:title>
      </cc:Work>
    </rdf:RDF>
  </metadata>
  <g
     id="layer1"
     transform="translate(-1236.0238,1276.5918)">
    <g
       id="g1214"
       style="stroke-width:10.7532;fill:#000000"
       transform="matrix(0.092996,0,0,0.092996,1326.6708,-1192.4565)">
      <path
         id="path936"
         style="opacity:1;fill:#000000;stroke-width:10.7532"
         d="m -100.37211,-646.35129 c -4.23244,0 -5.7871,0.1089 -5.9916,0.41856 -0.1519,0.23009 -1.55307,4.78412 -3.11384,10.12081 -7.39481,25.28445 -20.48123,68.37037 -25.91346,85.3187 -2.57884,8.04579 -2.73578,8.42703 -4.11958,9.99486 -1.32071,1.49632 -3.96976,3.19893 -7.79497,5.01041 -1.20875,0.57242 -1.64218,1.71329 -1.09772,2.88971 0.20459,0.44212 0.50536,0.65112 0.76883,0.53421 0.23802,-0.10562 3.54929,-0.37192 7.35801,-0.59206 5.47203,-0.31625 8.60891,-0.31148 14.95168,0.0235 4.41477,0.23317 8.35245,0.45043 8.75027,0.48275 0.64848,0.0527 0.73217,-0.0817 0.8095,-1.2983 l 0.0864,-1.35664 -3.55843,-1.62178 c -6.74308,-3.07332 -7.75503,-3.85761 -7.75175,-6.01121 0.002,-1.79634 1.96371,-10.42241 3.84832,-16.92015 l 1.50459,-5.18783 3.90511,-0.26811 c 3.78323,-0.25987 28.253743,-0.12559 28.497543,0.15637 0.16757,0.19377 2.75433,9.83152 4.17636,15.56055 1.36937,5.51704 1.48577,7.37204 0.52554,8.35398 -1.14066,1.16645 -2.24502,1.83561 -6.26837,3.79786 -3.30309,1.611 -3.97477,2.06072 -4.20858,2.81765 -0.33698,1.09098 0.10515,2.06519 0.89682,1.97565 2.39079,-0.27023 14.820387,-0.77585 19.076757,-0.77585 4.247951,0 14.746567,0.41787 19.364109,0.77046 0.829288,0.0634 0.867992,0.007 0.867992,-1.27135 0,-1.50184 0.330911,-1.22628 -4.773957,-3.9748 -3.04243,-1.63809 -4.708233,-3.26592 -5.483439,-5.35791 -0.744245,-2.00835 -12.310193,-42.13889 -17.183539,-59.62214 -2.303703,-8.26457 -5.905083,-21.35001 -8.003493,-29.07882 -2.0984,-7.72891 -3.94907,-14.24047 -4.11237,-14.47056 -0.21926,-0.3089 -1.7914,-0.41856 -6.012803,-0.41856 z m -4.36073,23.9547 c 0.0911,0.1051 3.17172,11.09442 6.846043,24.42083 l 6.68074,24.22966 h -14.123103 -14.12267 l 2.31704,-7.77906 c 1.27439,-4.27844 4.54881,-15.26776 7.27665,-24.4208 2.7278,-9.153 5.03421,-16.55579 5.1253,-16.45063 z" />
      <path
         id="path934"
         style="opacity:1;fill:#000000;stroke-width:10.7532"
         d="m -844.50331,-645.06034 0.0911,1.26204 0.0907,1.26203 3.87332,1.92076 c 4.38215,2.17296 6.23056,3.40112 7.0571,4.6889 0.50767,0.79104 0.59643,1.70788 0.80952,8.36473 0.31311,9.83077 0.30857,66.30295 -0.008,77.3284 -0.19274,6.7164 -0.34322,8.79305 -0.67983,9.38714 -0.59188,1.04473 -3.33124,2.67543 -7.37537,4.3909 -3.30278,1.40102 -3.39092,1.46466 -3.4813,2.51478 -0.0509,0.59256 -0.0185,1.30107 0.072,1.57423 h 0.002 c 0.11417,0.34388 0.40935,0.43792 0.9604,0.30632 1.353,-0.32308 13.51777,-0.85962 19.45819,-0.85868 6.03548,9.5e-4 18.14384,0.53243 19.45609,0.85379 0.66219,0.16215 0.84139,0.0514 1.07694,-0.66508 0.52587,-1.59951 0.0271,-2.20761 -2.75952,-3.36658 -4.59187,-1.90974 -7.07622,-3.24079 -8.05098,-4.31299 l -0.95359,-1.04935 -0.18903,-5.65735 c -0.104,-3.11176 -0.18946,-12.63899 -0.18946,-21.17136 v -15.51303 l 4.36837,0.0922 4.36877,0.0927 3.32237,7.02625 c 5.02874,10.63434 10.18045,22.31629 14.7546,33.45798 l 4.12083,10.03749 9.34279,0.24312 c 5.13849,0.13375 10.90519,0.3766 12.81475,0.53961 2.48624,0.21218 3.53438,0.19064 3.69194,-0.076 0.12089,-0.20476 0.18634,-0.82367 0.14452,-1.37573 -0.0701,-0.93346 -0.34348,-1.1564 -3.90343,-3.17888 -2.10546,-1.19608 -4.23483,-2.62631 -4.73198,-3.17838 -1.31577,-1.46102 -2.74989,-4.01993 -5.5322,-9.87036 -5.64212,-11.8637 -17.01061,-36.84506 -17.01061,-37.37935 0,-0.19569 0.35797,-0.45756 0.79551,-0.58225 1.47481,-0.42028 6.19312,-3.17027 7.98571,-4.65412 3.86399,-3.19844 6.93241,-7.89183 8.45701,-12.93602 1.14904,-3.80145 1.59357,-7.08274 1.60587,-11.8666 0.0148,-5.64208 -0.5353,-8.78168 -2.25646,-12.88162 -1.1068,-2.63658 -1.73412,-3.63633 -3.68048,-5.86418 -1.9404,-2.221 -2.8725,-2.98797 -5.3847,-4.43259 -3.58971,-2.06417 -6.68558,-3.12817 -11.42842,-3.92774 -3.07098,-0.51771 -4.59222,-0.55204 -13.16525,-0.29799 -12.39871,0.3674 -26.85372,0.37949 -33.07398,0.0279 z m 37.87211,8.02119 c 0.95699,0.007 1.84739,0.041 2.57175,0.10634 3.20417,0.28918 6.48961,1.35923 8.63373,2.81225 1.7348,1.17567 4.24468,4.34878 5.14694,6.50673 1.43928,3.44254 1.78268,5.69174 1.7597,11.54312 -0.0169,4.3702 -0.13491,5.84489 -0.64251,8.03 -0.34199,1.47217 -1.09296,3.78705 -1.66859,5.14422 -1.89524,4.46849 -5.78671,8.16502 -10.38242,9.86203 -0.79562,0.2938 -2.60292,0.76402 -4.01619,1.04493 -1.4132,0.28093 -4.24504,0.51069 -6.29294,0.51069 h -3.72329 v -22.39076 -22.39029 l 0.89639,-0.2274 c 1.37738,-0.34989 4.84647,-0.57272 7.71743,-0.55186 z" />
      <path
         id="path932"
         style="opacity:1;fill:#000000;stroke-width:10.7532"
         d="m -275.39331,-647.88828 c -3.7228,-0.0104 -7.43054,0.50197 -10.98341,1.53944 -4.2429,1.23893 -8.06964,3.2115 -11.88955,6.12885 -3.70685,2.83105 -7.79316,7.44152 -10.42905,11.76711 -2.4559,4.03033 -5.23801,10.55501 -6.66802,15.63799 -1.37644,4.89252 -2.48144,11.01103 -2.91168,16.12371 -0.69247,8.22929 -0.22729,18.71884 1.16129,26.18816 1.44885,7.79349 4.21865,15.58781 7.66867,21.58061 2.25275,3.9132 6.00209,8.5706 9.00076,11.18042 1.1908,1.03643 3.36779,2.61643 4.83754,3.51117 3.14974,1.91751 7.83382,3.75987 10.87617,4.2777 1.19349,0.20316 2.4952,0.43559 2.89303,0.51609 0.39783,0.0806 2.7414,0.0939 5.20795,0.0299 3.06916,-0.0797 5.4152,-0.33726 7.43261,-0.81652 5.72672,-1.36045 11.14845,-4.09123 15.5446,-7.82857 4.95246,-4.2103 9.96474,-11.18694 12.87917,-17.92731 3.40703,-7.87969 5.56912,-17.07627 6.41586,-27.29091 0.43349,-5.22943 0.18072,-17.68559 -0.44501,-21.92712 -0.62125,-4.21108 -1.98941,-10.10849 -3.08714,-13.30754 -3.0534,-8.89822 -7.84162,-16.18387 -13.91966,-21.18019 -2.74791,-2.25886 -7.80267,-5.07026 -11.07368,-6.15923 -4.05313,-1.34927 -8.29128,-2.03206 -12.51045,-2.04376 z m -1.33759,7.30658 c 0.37106,0.002 0.74256,0.0181 1.11422,0.0495 4.7378,0.40102 8.3044,2.11414 11.47972,5.51377 1.10839,1.18665 2.50891,2.9995 3.11256,4.02821 4.5242,7.71072 6.86001,18.53696 7.55467,35.0146 0.48958,11.61308 -0.30784,24.26233 -2.07081,32.84633 -1.33782,6.51387 -3.4295,12.29705 -5.91022,16.34084 -2.75289,4.48734 -6.75397,7.64713 -10.98341,8.67399 -5.56817,1.35191 -10.75078,-0.30851 -14.93091,-4.784 -3.28863,-3.52096 -5.46059,-7.51932 -7.58731,-13.96672 -1.8445,-5.592 -3.31988,-13.81487 -3.95428,-22.03837 -0.3934,-5.10014 -0.39371,-18.72198 -4.2e-4,-23.28229 0.16665,-1.9322 0.56384,-5.33188 0.88241,-7.55508 1.60698,-11.2149 4.70382,-19.55898 9.24318,-24.90307 1.6061,-1.89079 2.73386,-2.87561 4.33996,-3.78956 2.53279,-1.4412 5.1132,-2.15969 7.71064,-2.14815 z" />
      <path
         id="path930"
         style="opacity:1;fill:#000000;stroke-width:10.7532"
         d="m -711.00852,-647.88828 c -3.7228,-0.0104 -7.43052,0.50197 -10.98341,1.53944 -4.24288,1.23896 -8.0692,3.2115 -11.88912,6.12885 -3.70685,2.83102 -7.79359,7.44198 -10.42948,11.76759 -2.45594,4.03026 -5.238,10.55454 -6.66802,15.63751 -1.37635,4.8926 -2.48098,11.01095 -2.91124,16.12371 -0.69254,8.22923 -0.22731,18.71936 1.16129,26.18864 1.44878,7.79354 4.21819,15.58728 7.66825,21.58013 2.25279,3.91315 6.00245,8.5706 9.00116,11.18042 1.19076,1.03643 3.36743,2.61643 4.83711,3.51117 3.14971,1.91751 7.83382,3.75987 10.87618,4.2777 1.19347,0.20316 2.49561,0.43559 2.89345,0.51609 0.39778,0.0806 2.74136,0.0939 5.20796,0.0299 3.06917,-0.0797 5.41479,-0.33726 7.43218,-0.81652 5.72671,-1.36045 11.14845,-4.09123 15.54461,-7.82857 4.95248,-4.2103 9.96475,-11.18692 12.87919,-17.92731 3.40704,-7.87962 5.56903,-17.0763 6.41585,-27.29091 0.43345,-5.22951 0.18076,-17.68564 -0.44502,-21.92712 -0.62127,-4.21114 -1.98937,-10.10849 -3.08715,-13.30754 -3.05333,-8.89825 -7.84161,-16.18392 -13.91966,-21.18019 -2.74794,-2.25882 -7.80267,-5.07034 -11.07367,-6.15923 -4.05314,-1.34927 -8.29131,-2.03206 -12.51046,-2.04376 z m -1.33758,7.30658 c 0.37107,0.002 0.74255,0.0181 1.11422,0.0495 4.73777,0.40102 8.30443,2.11412 11.47972,5.51377 1.10843,1.1867 2.50891,2.99943 3.11255,4.02821 4.5242,7.71072 6.86042,18.53698 7.55509,35.0146 0.48955,11.61308 -0.30822,24.26228 -2.07122,32.84633 -1.33781,6.51387 -3.42911,12.29708 -5.90981,16.34084 -2.75293,4.48734 -6.75439,7.64713 -10.98381,8.67399 -5.5682,1.35191 -10.75078,-0.30851 -14.93092,-4.784 -3.28864,-3.52096 -5.46065,-7.51925 -7.5873,-13.96672 -1.84452,-5.59193 -3.31989,-13.8149 -3.95429,-22.03837 -0.39342,-5.10012 -0.39369,-18.72193 -4.1e-4,-23.28229 0.16666,-1.9322 0.56374,-5.33188 0.8824,-7.55508 1.60691,-11.21486 4.70423,-19.55901 9.24359,-24.90307 1.60611,-1.89083 2.73388,-2.87561 4.33997,-3.78956 2.53273,-1.4412 5.1128,-2.15966 7.71022,-2.14815 z" />
      <path
         style="opacity:1;fill:#000000;stroke-width:10.7532"
         d="m 13.159997,-645.06432 v 1.28751 1.28804 l 3.399488,1.6203 c 4.495005,2.14267 7.169138,3.96436 7.811085,5.32212 0.476722,1.00837 0.507321,3.86848 0.507321,47.30758 v 46.23422 l -0.867998,1.05718 c -1.046946,1.27529 -3.204647,2.57482 -7.493638,4.51343 -3.081607,1.39288 -3.215168,1.49474 -3.304138,2.51133 -0.05101,0.5827 -0.01862,1.28295 0.07201,1.55612 0.114123,0.34388 0.409714,0.43791 0.960821,0.30632 1.322213,-0.31572 13.452948,-0.85979 19.251786,-0.86357 4.276771,-0.003 14.893271,0.40917 20.169798,0.78221 0.648369,0.0458 0.732107,-0.0912 0.809922,-1.32035 l 0.08689,-1.37135 -4.13737,-1.92466 c -4.561151,-2.12199 -7.060272,-3.67915 -7.544914,-4.70116 -0.515957,-1.08805 -0.848741,-33.28943 -0.653537,-63.23623 0.09719,-14.90572 0.283681,-27.9969 0.414495,-29.09207 0.19801,-1.65747 0.392918,-2.14117 1.161719,-2.88331 1.108752,-1.07048 3.645567,-2.52898 7.306299,-4.20125 1.485612,-0.67859 2.863637,-1.37925 3.062563,-1.5571 0.198896,-0.17781 0.361933,-0.84332 0.361933,-1.47914 v -1.15617 l -4.701897,0.2769 c -6.068282,0.35746 -25.902908,0.35746 -31.971191,0 z"
         id="path926" />
      <path
         style="opacity:1;fill:#000000;stroke-width:10.7532"
         d="m -55.360598,-645.06432 v 1.2983 1.2988 l 2.386981,1.11843 c 3.478446,1.63033 7.188337,3.85425 8.098016,4.85408 0.435762,0.47894 0.891306,1.27998 1.012507,1.78058 0.121211,0.50057 0.220392,21.48867 0.220392,46.64004 0,45.45016 -0.0041,45.7354 -0.58827,46.64052 -0.772573,1.19655 -2.914027,2.56896 -7.355894,4.7139 -3.477699,1.67939 -3.633175,1.79641 -3.722022,2.80442 -0.05101,0.57859 -0.01861,1.27559 0.07209,1.54876 v -0.006 c 0.114198,0.34411 0.409337,0.43847 0.960806,0.30632 0.437723,-0.10489 3.985676,-0.3568 7.884407,-0.55969 4.649144,-0.24198 13.560782,-0.28975 25.895233,-0.13919 10.34357,0.12624 21.6708702,0.35033 25.1717794,0.49844 4.6812202,0.19804 6.4498906,0.16779 6.6854046,-0.11469 0.205628,-0.24666 0.464574,-4.69398 0.723471,-12.42925 0.221678,-6.62474 0.403055,-13.6259 0.403055,-15.55811 v -3.51263 H 11.239197 9.9906084 l -1.9567963,5.52013 c -2.6938981,7.59943 -4.8783518,12.5769 -6.2518325,14.24608 -1.78106241893,2.16452 -2.74642042,2.31578 -14.7558716,2.31578 -5.569616,0 -10.729082,-0.11919 -11.465716,-0.26514 -1.266247,-0.25091 -1.348385,-0.33304 -1.508387,-1.50562 -0.313266,-2.29606 -0.522067,-60.98656 -0.271249,-76.26341 0.235571,-14.34957 0.278351,-15.17923 0.825186,-16.02616 0.790009,-1.22368 2.998419,-2.60683 7.476677,-4.68254 l 3.786454,-1.75509 0.08985,-1.38113 0.08985,-1.38163 -5.008329,0.272 c -6.501199,0.35804 -25.673644,0.35501 -31.69951,0 z"
         id="path924" />
      <path
         style="opacity:1;fill:#000000;stroke-width:10.7532"
         d="m -369.73161,-645.06432 v 1.28751 1.28804 l 3.39992,1.6203 c 4.49501,2.14267 7.16872,3.96436 7.81066,5.32212 0.47674,1.00837 0.50732,3.86848 0.50732,47.30758 v 46.23422 l -0.868,1.05718 c -1.04693,1.27529 -3.20462,2.57482 -7.49362,4.51343 -3.08159,1.39288 -3.21517,1.49474 -3.30415,2.51133 -0.051,0.5827 -0.0186,1.28295 0.0721,1.55612 0.11412,0.34388 0.40973,0.43791 0.96082,0.30632 1.32221,-0.31572 13.45298,-0.85979 19.25179,-0.86357 4.27677,-0.003 14.8933,0.40917 20.1698,0.78221 0.64837,0.0458 0.7321,-0.0912 0.80993,-1.32035 l 0.0869,-1.37135 -4.13737,-1.92466 c -4.56116,-2.12199 -7.05986,-3.67915 -7.54449,-4.70116 -0.51596,-1.08805 -0.84876,-33.28943 -0.65354,-63.23623 0.0971,-14.90572 0.28367,-27.9969 0.41449,-29.09207 0.19798,-1.65747 0.39249,-2.14117 1.16129,-2.88331 1.10874,-1.07048 3.6456,-2.52898 7.30631,-4.20125 1.48562,-0.67859 2.86364,-1.37925 3.06255,-1.5571 0.19892,-0.17781 0.36194,-0.84332 0.36194,-1.47914 v -1.15617 l -4.70191,0.2769 c -6.06826,0.35746 -25.90249,0.35746 -31.97076,0 z"
         id="path922" />
      <path
         style="opacity:1;fill:#000000;stroke-width:10.7532"
         d="m -661.5707,-645.06621 0.0911,1.26498 0.0915,1.26496 3.87291,1.92076 c 4.38215,2.17297 6.23054,3.4011 7.05711,4.68888 0.50769,0.79104 0.59639,1.7079 0.80949,8.36475 0.3149,9.84074 0.30976,66.30774 -0.007,77.35196 l -0.24835,8.64704 -0.82349,0.99492 c -0.95488,1.1532 -3.22833,2.46619 -7.40634,4.2772 -2.85108,1.23585 -2.96872,1.32638 -3.05789,2.35648 -0.0509,0.5892 -0.0185,1.29469 0.0721,1.56786 h 4.1e-4 c 0.11434,0.34453 0.4087,0.43796 0.9608,0.30485 1.37443,-0.33138 12.98857,-0.86168 18.91867,-0.86359 4.47142,-0.002 15.9115,0.42893 20.79198,0.78223 0.66772,0.0483 0.72347,-0.0593 0.72347,-1.40418 v -1.45709 l -3.5707,-1.63551 c -4.13145,-1.8923 -6.83564,-3.36834 -7.84542,-4.28261 l -0.71076,-0.64349 -0.20555,-12.49348 c -0.11328,-6.87134 -0.21667,-16.68695 -0.22971,-21.81291 l -0.0237,-9.31998 10.05439,0.16567 c 6.1577,0.10157 10.54741,0.31458 11.32713,0.5499 0.70018,0.21134 1.64835,0.69337 2.10682,1.0709 1.14303,0.94117 2.31317,3.76512 3.97209,9.58561 1.50764,5.28976 1.91276,5.9293 3.45249,5.44662 0.67551,-0.2118 0.76428,-0.40012 0.73067,-1.55219 -0.0395,-1.35569 -0.0277,-32.11495 0.0145,-37.44604 l 0.0237,-3.01124 -1.12312,-0.10636 c -0.61773,-0.0585 -1.25607,0.0469 -1.41812,0.23428 -0.16205,0.18743 -0.8576,2.31912 -1.5457,4.73743 -1.66794,5.86184 -3.0797,9.2157 -4.21619,10.01493 -0.48872,0.34368 -1.68501,0.78253 -2.65822,0.97534 -0.97323,0.1928 -6.05449,0.45486 -11.29195,0.58225 l -9.52292,0.23183 0.17672,-20.39016 c 0.097,-11.21443 0.25988,-20.64174 0.36196,-20.94932 0.11535,-0.34763 0.69595,-0.6599 1.53423,-0.82583 0.74182,-0.14685 6.03578,-0.26699 11.76454,-0.26663 11.55356,6.5e-4 13.15203,0.1995 14.53674,1.80996 1.1643,1.35414 3.15448,5.55596 4.91171,10.36931 0.84625,2.31814 1.64839,4.44031 1.78219,4.71635 0.15113,0.31193 0.66921,0.50186 1.36892,0.50186 h 1.12568 l -0.10849,-6.52436 c -0.0597,-3.5884 -0.19006,-9.46034 -0.28946,-13.04875 l -0.18057,-6.52436 -10.4159,0.16762 c -16.23987,0.26082 -45.79274,0.19661 -51.01362,-0.11076 z"
         id="path920" />
      <path
         style="opacity:1;fill:#000000;stroke-width:10.7532"
         d="m -136.13072,-645.0775 -3.68896,0.28474 c -4.74486,0.36354 -20.70344,0.36506 -26.03977,0 l -4.12297,-0.28231 v 1.16157 c 0,0.63868 0.16261,1.31032 0.36152,1.49287 0.19892,0.1827 1.66366,0.96897 3.25497,1.74678 4.21688,2.0613 7.93623,4.34704 8.393,5.15843 0.6755,1.20004 0.98869,12.07457 1.18671,41.19244 0.12653,18.60381 0.0919,27.32811 -0.10765,27.10124 -0.35498,-0.40346 -28.8669,-55.65513 -32.02799,-62.06535 -1.22508,-2.48431 -3.13674,-6.66525 -4.24841,-9.29106 -1.14787,-2.71125 -2.29448,-4.97247 -2.65356,-5.23292 -0.49505,-0.35896 -3.30208,-0.51108 -12.9292,-0.70134 -6.76311,-0.13363 -13.27292,-0.26354 -14.4664,-0.28818 l -2.16999,-0.0446 -0.0754,1.00374 c -0.0415,0.55209 0.0239,1.16423 0.14494,1.36008 0.12103,0.19584 1.55979,1.00536 3.19775,1.7992 3.81688,1.84988 6.18561,3.62963 7.20672,5.41475 l 0.80992,1.41594 -0.0141,40.84299 c -0.0147,43.51591 -0.17752,50.39568 -1.23375,52.03912 -0.65265,1.01547 -2.52423,2.14359 -6.99819,4.21888 -1.83001,0.84887 -3.49684,1.70492 -3.7038,1.90214 -0.21706,0.20682 -0.33919,0.86606 -0.28905,1.55807 0.0758,1.04543 0.1796,1.19355 0.80993,1.15127 13.88577,-0.93239 17.0417,-0.98426 26.05462,-0.42787 3.20818,0.19804 6.17729,0.38609 6.5981,0.41805 0.69945,0.0531 0.77287,-0.0605 0.85273,-1.32575 l 0.0873,-1.38358 -4.28274,-1.92663 c -4.76493,-2.14356 -7.3225,-3.53563 -7.85262,-4.27427 -1.0327,-1.43896 -1.61582,-23.89118 -1.37446,-52.9272 0.10551,-12.69856 0.28451,-24.29304 0.39797,-25.7652 l 0.2064,-2.67649 1.7593,3.34599 c 13.78569,26.21881 30.48645,58.16513 32.88326,62.90146 3.49486,6.90606 7.20296,14.65925 9.09867,19.0242 0.71852,1.65441 1.62277,3.58773 2.00934,4.29584 v 0.002 l 0.70313,1.2875 5.11301,-0.0911 5.11302,-0.0916 -0.0734,-37.30585 c -0.0689,-34.95154 0.19225,-55.59452 0.79722,-63.00684 0.2222,-2.72257 0.31584,-3.03938 1.21976,-4.12627 0.63303,-0.76118 2.58798,-2.08398 5.53091,-3.7425 l 4.55229,-2.56523 0.005,-1.28852 z"
         id="path918" />
      <path
         style="opacity:1;fill:#000000;stroke-width:10.7532"
         d="m -588.25299,-645.08319 v 1.30761 1.30811 l 2.38698,1.11894 c 3.47844,1.63031 7.18833,3.85376 8.098,4.85357 0.43578,0.47892 0.89132,1.27998 1.01252,1.78058 0.1212,0.50059 0.2204,21.46897 0.2204,46.59593 0,43.18464 -0.0279,45.73464 -0.51326,46.59102 -0.78478,1.38499 -2.34753,2.42199 -6.89562,4.57471 -4.04145,1.91292 -4.16693,2.00191 -4.25689,3.02986 -0.051,0.58258 -0.0186,1.28295 0.072,1.55612 0.11421,0.34412 0.40894,0.43797 0.96038,0.30584 0.43774,-0.10488 3.98611,-0.35662 7.88483,-0.55971 4.66173,-0.24281 13.67553,-0.29063 26.32883,-0.13969 10.58227,0.12626 22.10485,0.35121 25.60577,0.49991 5.0837,0.21598 6.48685,0.18148 6.96938,-0.17057 0.58668,-0.42803 0.61092,-0.7863 0.84171,-12.42972 0.13067,-6.59401 0.24958,-13.0432 0.26403,-14.33137 l 0.0263,-2.34225 -1.23714,-0.1029 c -1.43662,-0.11997 -1.19641,-0.57804 -3.39442,6.46016 -1.58925,5.08895 -4.00101,10.71362 -4.87908,11.37794 -1.34091,1.01453 -4.19872,1.53823 -10.40954,1.90851 -4.74221,0.28268 -7.88692,0.27975 -12.58589,-0.0117 -3.44526,-0.21375 -6.54295,-0.47806 -6.88374,-0.58765 -0.60269,-0.1938 -0.62452,-0.4019 -0.78959,-7.61437 -0.0933,-4.07823 -0.24608,-14.08912 -0.33947,-22.24668 l -0.16954,-14.83177 11.6645,0.12988 c 12.28145,0.13712 12.91318,0.21332 14.36934,1.72617 0.98958,1.02813 2.17163,3.91519 3.65972,8.93915 0.72073,2.43329 1.45492,4.62548 1.6313,4.87122 0.37048,0.51622 2.46884,0.6087 2.61244,0.11519 0.0531,-0.18229 -0.003,-2.93023 -0.12461,-6.10632 -0.12153,-3.17606 -0.14024,-12.19232 -0.0415,-20.03626 0.13502,-10.72881 0.0956,-14.32171 -0.15937,-14.50389 -0.18635,-0.13317 -0.77538,-0.14757 -1.30875,-0.0318 -0.95245,0.20662 -0.98834,0.27917 -2.01741,4.05763 -1.33402,4.89809 -2.74584,8.4398 -3.8085,9.55425 -0.45866,0.48102 -1.28963,1.05919 -1.84658,1.28456 -1.14998,0.46534 -10.98431,0.97889 -19.21112,1.00327 l -5.46776,0.0161 0.18987,-14.47054 c 0.10451,-7.95888 0.27181,-16.8323 0.37169,-19.71868 l 0.18183,-5.24811 1.76862,-0.21762 c 0.97291,-0.11969 6.97713,-0.1611 13.3424,-0.0921 9.79658,0.10612 11.76613,0.20905 12.83088,0.66997 0.69181,0.2995 1.47301,0.87982 1.73599,1.2895 1.83157,2.85346 3.20597,6.10528 5.71823,13.53051 0.56167,1.66013 0.57607,1.67275 1.85847,1.67275 h 1.29223 l -0.02,-1.83987 c -0.011,-1.0121 -0.12842,-6.77182 -0.26109,-12.79928 -0.17767,-8.07204 -0.33672,-11.05074 -0.6031,-11.30639 -0.24992,-0.23982 -5.31006,-0.2268 -16.37531,0.0416 -15.01887,0.36439 -42.3474,0.23191 -47.91248,-0.23232 z"
         id="path916" />
      <path
         style="opacity:1;fill:#000000;stroke-width:10.7532"
         d="m 128.85885,-645.10577 0.0924,1.29098 0.0919,1.29094 2.75869,1.34879 c 1.51725,0.74195 3.35497,1.75742 4.08353,2.25647 1.57382,1.07798 3.05624,2.93987 3.32447,4.17576 0.39577,1.82343 -0.42451,19.67277 -1.7881,38.91442 -0.94273,13.30249 -2.48532,33.42947 -3.30074,43.06563 -0.6513,7.69668 -0.97268,10.31607 -1.34692,10.97657 -0.76349,1.34745 -2.68469,2.70688 -6.84732,4.84524 -3.65789,1.87909 -3.83132,2.01287 -3.91993,3.02204 -0.051,0.58074 -0.0175,1.28289 0.0745,1.5605 v 5e-4 c 0.0957,0.28823 0.35764,0.4201 0.61074,0.30778 0.24379,-0.10818 3.76884,-0.37926 7.83354,-0.60234 5.793,-0.31805 9.08912,-0.31757 15.25048,9.4e-4 4.32309,0.2235 8.15181,0.49615 8.50827,0.60579 0.49998,0.15377 0.7052,0.0207 0.89808,-0.58224 0.13754,-0.42987 0.16809,-1.1367 0.0679,-1.57032 -0.14856,-0.64238 -0.87752,-1.11337 -3.93607,-2.54368 -5.08495,-2.37798 -7.06876,-3.5473 -7.59537,-4.4767 -0.38237,-0.67485 -0.4162,-1.9402 -0.24581,-9.21018 0.24369,-10.39777 0.86218,-26.8465 1.63131,-43.39207 0.65291,-14.04513 1.68312,-32.17366 1.83853,-32.35328 0.13784,-0.15944 5.76265,17.06853 10.45406,32.019 4.26423,13.58915 8.62594,28.05116 14.43037,47.84526 l 3.87589,13.21587 2.1314,0.0966 2.13183,0.0961 2.56626,-8.96267 c 6.58422,-22.99604 25.47477,-84.38214 25.83802,-83.96207 0.16078,0.18589 0.54217,5.54232 1.67115,23.47343 1.1722,18.61795 2.67223,44.97173 2.90405,51.02411 0.0881,2.30028 0.2264,5.25675 0.3077,6.56993 0.13753,2.22306 0.0945,2.46064 -0.62431,3.44844 -0.83314,1.145 -5.03583,3.62484 -8.89902,5.25106 -2.48213,1.045 -3.00912,1.7487 -2.4904,3.32637 0.23651,0.71929 0.41559,0.83044 1.07778,0.66951 1.308,-0.31784 13.13978,-0.85683 18.87755,-0.85966 4.2204,-0.002 13.8253,0.38022 19.67437,0.78319 0.6523,0.0449 0.73218,-0.0901 0.81247,-1.3733 0.0804,-1.28658 0.0126,-1.45649 -0.70779,-1.77322 -0.43816,-0.19265 -2.24968,-1.17036 -4.02548,-2.17266 -3.77206,-2.12906 -5.77348,-3.99473 -6.19845,-5.77842 -0.86942,-3.64915 -5.5042,-77.73051 -5.5042,-87.9898 -2.4e-4,-3.51715 0.3079,-4.51246 1.80593,-5.83383 1.05897,-0.93401 3.71296,-2.54503 7.25419,-4.40364 2.20712,-1.1585 2.259,-1.21324 2.16997,-2.28343 l -0.0911,-1.0964 -2.31491,0.0368 c -1.27306,0.0205 -8.13902,0.15694 -15.25811,0.30338 -11.28572,0.23218 -12.99648,0.33466 -13.35428,0.79939 -0.2257,0.29304 -1.58828,4.82425 -3.0278,10.06886 -3.88123,14.14015 -9.14032,32.00872 -13.32843,45.28439 -5.55192,17.59876 -6.79345,21.30217 -7.10202,21.18656 -0.3452,-0.12946 -2.20906,-6.0568 -7.43473,-23.64447 -4.49216,-15.11875 -9.40024,-32.67568 -12.38924,-44.31743 -1.08874,-4.24059 -2.07022,-7.97495 -2.18101,-8.29857 -0.11077,-0.32359 -0.48002,-0.65354 -0.8205,-0.73319 -0.34049,-0.0796 -6.02218,-0.23126 -12.62616,-0.3372 -6.60398,-0.10584 -13.28579,-0.28615 -14.84825,-0.40091 z"
         id="path914" />
      <path
         style="opacity:1;fill:#000000;stroke-width:10.7532"
         d="m 94.069853,-647.69731 c -4.445233,0.12948 -9.038885,0.22477 -14.70531,2.5641 -6.639059,2.74089 -11.792825,7.0487 -15.144615,12.84339 -2.00229,3.46166 -3.269856,7.06432 -3.943249,11.20838 -0.374235,2.30304 -0.453543,4.13327 -0.340748,7.85404 0.09116,3.00755 0.336885,5.67805 0.646327,7.02623 0.625497,2.72531 2.075046,6.41961 3.477896,8.86369 1.440907,2.5103 4.737262,6.2655 7.545341,8.59558 1.260071,1.04556 5.34829,3.96324 9.085107,6.48319 3.736809,2.51997 7.822847,5.41707 9.079997,6.43813 4.754364,3.8616 8.044374,8.21898 9.352964,12.38808 0.40804,1.2998 0.76473,3.35194 0.86333,4.96778 0.503607,8.25233 -2.55398,15.06852 -8.156913,18.18463 -1.304769,0.72563 -3.391288,1.53827 -4.768443,1.85701 -1.888535,0.43715 -3.311176,0.52353 -6.22047,0.37839 -4.026093,-0.2009 -6.41765,-0.8213 -8.982113,-2.3305 -0.794627,-0.46762 -1.725046,-1.2042 -2.067844,-1.63646 -0.342765,-0.43228 -0.94761,-1.68905 -1.343956,-2.79317 -1.036924,-2.88854 -2.87069,-9.68063 -3.974619,-14.72199 -0.523855,-2.39229 -1.076981,-4.5378 -1.229512,-4.76781 -0.152548,-0.22998 -0.83169,-0.41806 -1.508806,-0.41806 -0.677124,0 -1.355134,0.18808 -1.506707,0.41806 -0.151554,0.23001 -0.567904,4.63406 -0.925219,9.78656 -0.357282,5.15259 -0.834805,11.40109 -1.06125,13.88537 -0.545424,5.98398 -0.533179,6.93013 0.09367,7.30709 1.35461,0.81456 11.090079,3.00194 15.551384,3.494 v 0.002 c 2.598597,0.28664 10.59196,0.21743 12.882984,-0.11175 13.415091,-1.9275 22.567381,-8.51968 27.062451,-19.49177 3.19779,-7.80552 3.404,-18.847 0.50096,-26.82969 -1.59962,-4.3986 -4.65093,-8.80728 -8.7291,-12.61205 -2.888,-2.69437 -6.582517,-5.47095 -12.621457,-9.48564 -7.246595,-4.81752 -9.575961,-6.66681 -12.178609,-9.66648 -1.755278,-2.02309 -2.607126,-3.32691 -3.400343,-5.20794 -1.20996,-2.86897 -1.637462,-5.09751 -1.631713,-8.49413 0.01099,-6.13223 2.427669,-11.61508 6.496376,-14.73815 2.136541,-1.63993 4.805055,-2.75289 7.798373,-3.25336 1.96791,-0.33091 3.074446,-0.33284 5.305426,-0.01 3.28935,0.47611 5.330617,1.48212 6.783717,3.34209 0.5385,0.68921 1.57411,2.83043 2.30138,4.758 1.25077,3.31503 1.83655,5.06557 4.08312,12.20379 0.86602,2.75175 1.01869,3.02067 1.77157,3.12103 0.45314,0.0606 1.10936,0.0273 1.45798,-0.074 0.62532,-0.18152 0.63826,-0.32223 0.98241,-10.48203 0.19183,-5.66381 0.49034,-11.78265 0.6633,-13.59717 0.2653,-2.78392 0.24878,-3.37495 -0.10597,-3.78514 -0.52043,-0.60177 -3.69194,-1.54221 -7.88566,-2.33834 -3.59598,-0.88219 -6.908217,-1.25452 -11.353447,-1.12505 z"
         id="path910" />
      <path
         style="opacity:1;fill:#000000;stroke-width:10.7532"
         d="m -397.6537,-647.43429 c -8.51205,-0.006 -10.04266,0.46611 -15.01016,2.40792 -6.67823,2.61045 -11.84699,6.94186 -15.19876,12.73655 -2.00229,3.46166 -3.26947,7.06432 -3.94286,11.20838 -0.37419,2.30304 -0.45396,4.13327 -0.34117,7.85404 0.0911,3.00755 0.33689,5.67805 0.64634,7.02623 0.62549,2.72531 2.07504,6.41961 3.47789,8.86369 1.44089,2.5103 4.73726,6.2655 7.54534,8.59558 1.26009,1.04556 5.34829,3.96324 9.08511,6.48319 3.73681,2.51997 7.82284,5.41707 9.08002,6.43813 4.75433,3.8616 8.04434,8.21898 9.35295,12.38808 0.40801,1.2998 0.76472,3.35194 0.86332,4.96778 0.50363,8.25233 -2.55394,15.06852 -8.15691,18.18463 -1.30474,0.72563 -3.39129,1.53827 -4.76846,1.85701 -1.8885,0.43715 -3.31116,0.52353 -6.22046,0.37839 -4.0261,-0.2009 -6.41722,-0.8213 -8.9817,-2.3305 -0.7946,-0.46762 -1.72546,-1.2042 -2.06825,-1.63646 -0.3428,-0.43228 -0.94758,-1.68905 -1.34395,-2.79317 -1.03693,-2.88854 -2.87026,-9.68063 -3.97419,-14.72199 -0.52385,-2.39229 -1.07742,-4.5378 -1.22995,-4.76781 -0.15253,-0.22998 -0.83125,-0.41806 -1.50839,-0.41806 -0.67713,0 -1.35513,0.18808 -1.50669,0.41806 -0.15157,0.23001 -0.56791,4.63406 -0.92521,9.78656 -0.3573,5.15259 -0.83483,11.40109 -1.06126,13.88537 -0.54539,5.98398 -0.53362,6.93013 0.0932,7.30709 1.35461,0.81456 11.09049,3.00194 15.55179,3.494 v 0.002 c 2.5986,0.28664 10.59157,0.21743 12.88257,-0.11175 13.41511,-1.9275 22.56784,-8.51968 27.06289,-19.49177 3.1978,-7.80552 3.40399,-18.847 0.50095,-26.82969 -1.59962,-4.3986 -4.65131,-8.80728 -8.72951,-12.61205 -2.88799,-2.69437 -6.5821,-5.47095 -12.62106,-9.48564 -7.24659,-4.81752 -9.57637,-6.66681 -12.17902,-9.66648 -1.75528,-2.02309 -2.60667,-3.32691 -3.39991,-5.20794 -1.20996,-2.86897 -1.63789,-5.09751 -1.63215,-8.49413 0.011,-6.13223 2.42809,-11.61508 6.4968,-14.73815 2.13656,-1.63993 4.80466,-2.75289 7.79795,-3.25336 1.96791,-0.33091 3.07447,-0.33284 5.30543,-0.01 3.28934,0.47611 5.33104,1.48212 6.78416,3.34209 0.53848,0.68921 1.57409,2.83043 2.30135,4.758 1.25081,3.31503 1.83616,5.06557 4.08272,12.20379 0.86602,2.75175 1.01869,3.02067 1.77158,3.12103 0.45315,0.0606 1.10936,0.0273 1.45796,-0.074 0.62534,-0.18152 0.63831,-0.32223 0.98243,-10.48203 0.19182,-5.66381 0.49034,-11.78265 0.66327,-13.59717 0.26532,-2.78392 0.24878,-3.37495 -0.10596,-3.78514 -0.52041,-0.60177 -3.69194,-1.54221 -7.88567,-2.33834 -2.50456,-0.47544 -4.84686,-0.86161 -10.99442,-0.86161 z"
         id="path908" />
      <path
         style="opacity:1;fill:#000000;stroke-width:10.7532"
         d="m -469.72812,-647.66806 c -8.51204,-0.006 -10.04269,0.69996 -15.01018,2.64169 -6.67823,2.61045 -11.84698,6.94186 -15.19875,12.73655 -2.0023,3.46161 -3.26947,7.06432 -3.94284,11.20838 -0.37424,2.30307 -0.45355,4.13335 -0.34075,7.85404 0.0911,3.00755 0.33646,5.67805 0.6459,7.02623 0.62549,2.72531 2.07548,6.42013 3.47833,8.86419 1.4409,2.5103 4.73682,6.26499 7.54491,8.59508 1.26006,1.04558 5.3487,3.96324 9.08553,6.48319 3.73682,2.52 7.82282,5.41702 9.08,6.43813 4.75434,3.86158 8.04397,8.21905 9.35254,12.38808 0.40804,1.29988 0.76471,3.35194 0.86334,4.96778 0.50359,8.25233 -2.55357,15.06852 -8.1565,18.18463 -1.30477,0.72563 -3.39128,1.53827 -4.76845,1.85701 -1.88853,0.43715 -3.3116,0.52353 -6.2209,0.37839 -4.02609,-0.2009 -6.41719,-0.8213 -8.98167,-2.3305 -0.79463,-0.46762 -1.72549,-1.2042 -2.06828,-1.63646 -0.34277,-0.43228 -0.94717,-1.68905 -1.34351,-2.79317 -1.03694,-2.88854 -2.87068,-9.68066 -3.97464,-14.72199 -0.52385,-2.39226 -1.0774,-4.53777 -1.22994,-4.76781 -0.15252,-0.23001 -0.83126,-0.41806 -1.50837,-0.41806 -0.67715,0 -1.35514,0.18805 -1.50671,0.41806 -0.15155,0.23004 -0.56793,4.63398 -0.92521,9.78656 -0.35729,5.15259 -0.83482,11.40109 -1.06126,13.88537 -0.54542,5.98398 -0.5332,6.93013 0.0937,7.30709 1.35464,0.81456 11.09009,3.00194 15.5514,3.494 2.5986,0.28662 10.59198,0.21693 12.88298,-0.11225 13.41513,-1.92749 22.56739,-8.51919 27.06246,-19.49125 3.19782,-7.80559 3.40402,-18.847 0.50097,-26.82973 -1.59963,-4.39859 -4.65092,-8.80772 -8.7291,-12.61253 -2.88801,-2.69439 -6.5825,-5.47046 -12.62148,-9.48514 -7.24658,-4.81749 -9.57638,-6.66679 -12.17901,-9.66648 -1.75527,-2.02306 -2.60669,-3.32749 -3.39992,-5.20842 -1.20996,-2.86905 -1.63747,-5.09698 -1.63172,-8.49364 0.011,-6.13221 2.42766,-11.61511 6.49638,-14.73815 2.13651,-1.63998 4.80464,-2.75339 7.79793,-3.25386 1.96791,-0.32895 3.07447,-0.33031 5.30543,-0.008 3.28934,0.47618 5.33105,1.48158 6.78415,3.34158 0.53851,0.68925 1.57411,2.83046 2.30138,4.758 1.25078,3.31508 1.83657,5.06557 4.08313,12.2038 0.86601,2.75171 1.01867,3.02072 1.77157,3.12102 0.45313,0.0605 1.10892,0.0272 1.45753,-0.074 0.62535,-0.18149 0.63871,-0.32222 0.98285,-10.48202 0.19183,-5.66383 0.49037,-11.78264 0.6633,-13.59717 0.2653,-2.78387 0.24835,-3.37494 -0.1064,-3.78513 -0.5204,-0.60183 -3.69151,-1.54219 -7.88525,-2.33835 -2.50455,-0.47547 -4.84726,-1.09159 -10.99483,-1.09539 z"
         id="path906" />
      <path
         id="path900"
         style="opacity:1;fill:#000000;stroke-width:10.7532"
         d="m -888.75464,-688.83976 c -3.8205,0.002 -8.33214,0.19372 -13.13861,0.57546 -4.05724,0.32225 -9.77826,0.69213 -12.71327,0.82194 -5.12873,0.22684 -25.39976,-0.36138 -28.25128,-0.81977 -1.31024,-0.21066 -1.39175,-0.17011 -1.5988,0.79766 -0.12005,0.56079 -0.0916,1.42982 0.0625,1.93128 0.24231,0.78739 1.07014,1.2313 6.07384,3.25587 6.11841,2.47559 8.77753,3.82641 9.47657,4.81397 0.33742,0.47675 0.46683,4.20513 0.62858,18.12446 0.26063,22.42868 0.26006,69.5753 -8.9e-4,95.44677 -0.23011,22.80953 0.0298,20.85123 -2.97599,22.50424 -0.8916,0.49037 -4.0935,1.94085 -7.11489,3.22353 -3.02129,1.28264 -5.59704,2.50942 -5.72391,2.72624 -0.30015,0.51314 -0.30766,2.95366 -0.0101,3.30282 0.12671,0.14861 0.65644,0.17997 1.17716,0.0696 0.52071,-0.11046 5.39641,-0.39002 10.83489,-0.62131 9.7581,-0.41501 27.08715,-0.23031 35.00103,0.37323 2.07177,0.15798 3.94329,0.21188 4.15912,0.11974 0.5152,-0.21879 0.51299,-2.82933 0,-3.3287 -0.21738,-0.21158 -3.07782,-1.48652 -6.35664,-2.83358 -6.19696,-2.54597 -8.38829,-3.7595 -8.79645,-4.87009 -0.27485,-0.7477 -0.71212,-28.32611 -0.74951,-47.31081 l -0.0257,-12.78513 0.86309,0.15748 c 2.21485,0.40344 13.8796,0.52325 17.48765,0.17959 9.81451,-0.93472 17.22074,-3.72886 23.63553,-8.91657 1.25224,-1.01275 3.5121,-3.36447 5.02221,-5.22602 4.15767,-5.12529 6.76313,-10.83394 8.39597,-18.39678 1.15311,-5.34096 1.50912,-9.85807 1.32984,-16.88181 -0.12523,-4.9062 -0.31906,-7.04096 -0.85393,-9.41546 -0.99473,-4.41547 -2.27499,-7.83568 -4.21061,-11.24754 -4.65151,-8.19915 -12.19763,-13.26848 -22.63358,-15.20452 -2.04206,-0.37882 -5.17139,-0.56739 -8.99187,-0.56575 z m -8.58681,10.575 c 5.94737,0 7.57537,0.11538 9.23746,0.65367 6.52485,2.1131 11.01564,7.18327 13.0609,14.74664 1.20479,4.45534 1.71423,9.02378 1.71423,15.40785 0.002,9.24857 -0.88232,14.68882 -3.34063,20.5449 -1.19503,2.84658 -1.93623,4.04214 -4.02304,6.48961 -2.031,2.3822 -3.10805,3.31288 -5.22589,4.5152 -3.14675,1.78644 -6.30994,2.79787 -10.43852,3.33786 -1.65018,0.21577 -5.12446,0.39209 -7.72095,0.39209 h -4.72105 v -32.7384 -32.73836 l 2.11888,-0.30527 c 1.16542,-0.16799 5.36763,-0.30579 9.33861,-0.30579 z" />
      <path
         id="path1069"
         style="opacity:1;fill:#000000;stroke-width:10.7532"
         d="m -661.01672,-790.81347 0.0911,1.26204 0.0907,1.26204 3.87333,1.92075 c 4.38219,2.17294 6.23056,3.4011 7.0571,4.68889 0.50771,0.791 0.59644,1.70791 0.80951,8.36474 0.31475,9.83078 0.31002,66.30292 -0.006,77.32841 -0.19278,6.71639 -0.34318,8.79254 -0.67981,9.38662 -0.59195,1.04472 -3.33125,2.67594 -7.3754,4.39141 -3.30278,1.40103 -3.39092,1.46466 -3.4813,2.51476 -0.051,0.59257 -0.0187,1.30109 0.0721,1.57425 0.11411,0.34389 0.40974,0.43792 0.9608,0.30632 1.35299,-0.32308 13.51735,-0.85963 19.45778,-0.85868 6.03548,0 18.1438,0.53243 19.45608,0.85376 0.66216,0.16216 0.84136,0.0514 1.07693,-0.66505 0.52588,-1.59948 0.0271,-2.20762 -2.75952,-3.36661 -4.59188,-1.90971 -7.07622,-3.24076 -8.05095,-4.31299 l -0.95362,-1.04931 -0.18903,-5.65736 c -0.10401,-3.11175 -0.18944,-12.63901 -0.18944,-21.17139 v -15.51303 l 4.36878,0.0922 4.36836,0.0922 3.32236,7.02625 c 5.02875,10.63435 10.18041,22.31679 14.75459,33.45848 l 4.12085,10.03749 9.34279,0.2431 c 5.13849,0.13377 10.90517,0.3766 12.81476,0.53961 2.4862,0.2122 3.53435,0.19064 3.69192,-0.076 0.12103,-0.2048 0.18594,-0.82372 0.14451,-1.37575 -0.0701,-0.93346 -0.34342,-1.15638 -3.9034,-3.17888 -2.10545,-1.19614 -4.23487,-2.62631 -4.73202,-3.17836 -1.31574,-1.46104 -2.74984,-4.01997 -5.53216,-9.87038 -5.6421,-11.86371 -17.01061,-36.84509 -17.01061,-37.37938 0,-0.19568 0.35791,-0.45803 0.79551,-0.58275 1.47481,-0.42024 6.1935,-3.16974 7.98612,-4.6536 3.86393,-3.19845 6.93193,-7.89184 8.45656,-12.93603 1.14898,-3.80145 1.59325,-7.08273 1.60587,-11.86657 0.0149,-5.64208 -0.53528,-8.78173 -2.25643,-12.88163 -1.10683,-2.63657 -1.73411,-3.63636 -3.6805,-5.86418 -1.94042,-2.22102 -2.87245,-2.98796 -5.38468,-4.43258 -3.58976,-2.06424 -6.68551,-3.12821 -11.42842,-3.92777 -3.07093,-0.51766 -4.59181,-0.55251 -13.16484,-0.29847 -12.3987,0.3674 -26.85421,0.37992 -33.07441,0.0284 z m 37.87379,8.02116 c 0.95698,0.007 1.8474,0.041 2.57178,0.10634 3.20415,0.28921 6.48963,1.35923 8.63372,2.81229 1.73479,1.17567 4.2447,4.34877 5.14692,6.50673 1.4393,3.44254 1.78194,5.69171 1.75928,11.54311 -0.0169,4.3702 -0.13449,5.84489 -0.64207,8.03 -0.34199,1.47215 -1.093,3.78703 -1.6686,5.14422 -1.89522,4.4685 -5.78671,8.16503 -10.38243,9.86202 -0.79567,0.29382 -2.60291,0.764 -4.01615,1.04493 -1.41325,0.28091 -4.24508,0.5107 -6.29295,0.5107 h -3.7233 v -22.39079 -22.39027 l 0.89596,-0.2279 c 1.37737,-0.34988 4.84689,-0.57221 7.71784,-0.55138 z" />
      <path
         id="path1067"
         style="opacity:1;fill:#000000;stroke-width:10.7532"
         d="m -90.692025,-793.64191 c -3.72279,-0.0103 -7.43054,0.50198 -10.983405,1.53945 -4.24289,1.23896 -8.06923,3.21149 -11.88912,6.12884 -3.70688,2.83103 -7.79358,7.44197 -10.42948,11.76759 -2.45589,4.03027 -5.23804,10.55457 -6.66803,15.63751 -1.37646,4.89261 -2.48143,11.01098 -2.91166,16.1237 -0.69249,8.22927 -0.2273,18.71888 1.16128,26.18818 1.44885,7.79351 4.21864,15.58772 7.66867,21.58061 2.25273,3.91314 6.00211,8.57059 9.00076,11.18041 1.1908,1.0364 3.36779,2.61643 4.83753,3.51118 3.14974,1.91753 7.83381,3.75986 10.87618,4.27769 1.193495,0.20317 2.495615,0.43558 2.893455,0.51609 0.39783,0.0806 2.74141,0.0938 5.20795,0.0299 3.06916,-0.0797 5.41477,-0.33725 7.43218,-0.81652 5.72673,-1.36046 11.14847,-4.09121 15.54461,-7.82857 4.95247,-4.2103 9.96475,-11.18691 12.87917,-17.92731 3.407015,-7.87963 5.569133,-17.07632 6.415858,-27.29089 0.433505,-5.22952 0.180718,-17.68565 -0.445018,-21.92714 -0.621253,-4.21114 -1.989414,-10.10851 -3.08714,-13.30753 -3.05339,-8.89827 -7.84162,-16.18392 -13.91966,-21.1802 -2.74791,-2.25881 -7.80265,-5.07032 -11.07368,-6.15923 -4.05313,-1.34927 -8.29128,-2.03207 -12.51045,-2.04376 z m -1.33759,7.30707 c 0.37106,0.003 0.74256,0.0181 1.11424,0.0495 4.73778,0.40099 8.30439,2.11414 11.4797,5.51377 1.1084,1.18671 2.50891,2.99941 3.11257,4.02821 4.5242,7.71069 6.85998,18.53696 7.55467,35.01459 0.48958,11.61306 -0.30783,24.2623 -2.07081,32.84633 -1.3378,6.51389 -3.42948,12.29707 -5.91023,16.34082 -2.75287,4.48737 -6.75397,7.64714 -10.98341,8.67401 h -4.3e-4 c -5.56817,1.35189 -10.75036,-0.30853 -14.930495,-4.78397 -3.28861,-3.52098 -5.46098,-7.51929 -7.58772,-13.96672 -1.8445,-5.59197 -3.3199,-13.81491 -3.95428,-22.0384 -0.39309,-5.10011 -0.39329,-18.72195 0,-23.28227 0.16665,-1.93221 0.56385,-5.33189 0.8824,-7.55508 1.607,-11.21486 4.70384,-19.55901 9.24319,-24.9031 1.60609,-1.89083 2.73428,-2.87561 4.340385,-3.78952 2.53278,-1.44121 5.11279,-2.15968 7.71021,-2.14818 z" />
      <path
         id="path1065"
         style="opacity:1;fill:#000000;stroke-width:10.7532"
         d="m -529.41502,-793.64191 c -3.7228,-0.0103 -7.43053,0.50198 -10.98342,1.53945 -4.24285,1.23896 -8.06964,3.21149 -11.88954,6.12884 -3.70685,2.83103 -7.79316,7.44197 -10.42903,11.76759 -2.45592,4.03027 -5.23804,10.55457 -6.66803,15.63751 -1.37647,4.89261 -2.48147,11.01098 -2.91168,16.1237 -0.69248,8.22927 -0.22731,18.71888 1.16128,26.18818 1.44886,7.79351 4.21867,15.58772 7.66868,21.58061 2.25274,3.91314 6.0021,8.57059 9.00075,11.18041 1.19079,1.0364 3.3678,2.61643 4.83753,3.51118 3.14976,1.91753 7.83384,3.75986 10.87619,4.27769 1.19349,0.20317 2.49519,0.43558 2.89301,0.51609 0.39785,0.0806 2.74143,0.0938 5.20796,0.0299 3.06916,-0.0797 5.41521,-0.33725 7.43262,-0.81652 5.72671,-1.36046 11.14844,-4.09121 15.54459,-7.82857 4.95246,-4.2103 9.96475,-11.18691 12.87918,-17.92731 3.40702,-7.87963 5.5691,-17.07632 6.41585,-27.29089 0.4335,-5.22952 0.18071,-17.68565 -0.44502,-21.92714 -0.62125,-4.21114 -1.98939,-10.10851 -3.08712,-13.30753 -3.0534,-8.89827 -7.84164,-16.18392 -13.91967,-21.1802 -2.74791,-2.25881 -7.80266,-5.07032 -11.07369,-6.15923 -4.05313,-1.34927 -8.29128,-2.03207 -12.51044,-2.04376 z m -1.33759,7.30707 v 0 c 0.37091,0.003 0.74225,0.0181 1.11381,0.0495 4.73778,0.40099 8.30437,2.11414 11.47969,5.51377 1.1084,1.18671 2.50893,2.99941 3.11258,4.02821 4.52419,7.71069 6.86,18.53696 7.55466,35.01459 0.48959,11.61306 -0.30784,24.2623 -2.07079,32.84633 -1.33782,6.51389 -3.42951,12.29707 -5.91025,16.34082 -2.75286,4.48737 -6.75399,7.64714 -10.9834,8.67401 -5.56817,1.35189 -10.75078,-0.30853 -14.9309,-4.78397 -3.28863,-3.52098 -5.46061,-7.51929 -7.58732,-13.96672 -1.8445,-5.59197 -3.31987,-13.81491 -3.95427,-22.0384 -0.39342,-5.10011 -0.39374,-18.72195 0,-23.28227 0.16664,-1.93221 0.56385,-5.33189 0.8824,-7.55508 1.60698,-11.21486 4.70385,-19.55901 9.24318,-24.9031 1.60612,-1.89083 2.73388,-2.87561 4.33996,-3.78952 2.53266,-1.44115 5.11294,-2.15958 7.71021,-2.14818 z" />
      <path
         style="opacity:1;fill:#000000;stroke-width:10.7532"
         d="m -183.57806,-790.81766 v 1.28753 1.28801 l 3.39992,1.62031 c 4.49501,2.14262 7.16872,3.96441 7.81066,5.32213 0.47672,1.00831 0.50732,3.86855 0.50732,47.30758 v 46.23424 l -0.86757,1.05717 c -1.04695,1.27527 -3.20505,2.57483 -7.49406,4.51344 -3.08162,1.39285 -3.21518,1.49473 -3.30414,2.51133 -0.051,0.5827 -0.0186,1.28294 0.0721,1.55612 0.11411,0.34387 0.40972,0.4379 0.96081,0.30631 1.32221,-0.31576 13.45298,-0.85979 19.2518,-0.86357 4.27678,-0.003 14.89328,0.40915 20.1698,0.78222 0.64836,0.0458 0.7321,-0.0912 0.80992,-1.32039 l 0.0869,-1.37131 -4.13737,-1.92467 c -4.56116,-2.12201 -7.05987,-3.67917 -7.5445,-4.70116 -0.51596,-1.08804 -0.84875,-33.28944 -0.65354,-63.23622 0.0971,-14.90568 0.2837,-27.99689 0.4145,-29.09207 0.198,-1.6574 0.39251,-2.14115 1.16128,-2.88332 1.10878,-1.07043 3.64558,-2.52908 7.30631,-4.20125 1.48563,-0.67863 2.86406,-1.37928 3.06298,-1.55709 0.19891,-0.17781 0.36152,-0.84332 0.36152,-1.47914 v -1.1562 l -4.70148,0.27693 c -6.06829,0.35741 -25.90291,0.35741 -31.97119,0 z"
         id="path1061" />
      <path
         style="opacity:1;fill:#000000;stroke-width:10.7532"
         d="m -475.37841,-790.82018 0.0912,1.26498 0.0911,1.265 3.87333,1.92075 c 4.38214,2.17294 6.23055,3.40111 7.0571,4.6889 0.50769,0.791 0.59642,1.7079 0.80952,8.36474 0.3149,9.84073 0.30973,66.30772 -0.007,77.35193 l -0.24837,8.64703 -0.82348,0.99496 c -0.95489,1.15318 -3.22831,2.46568 -7.40634,4.2767 -2.85107,1.23586 -2.96873,1.32686 -3.05787,2.35694 -0.051,0.5892 -0.0187,1.29472 0.0721,1.56789 v 0 c 0.11433,0.34451 0.4083,0.43796 0.96038,0.30484 1.37443,-0.33139 12.98899,-0.86167 18.91911,-0.86359 4.4714,-0.003 15.91149,0.42892 20.79198,0.78223 0.66772,0.0483 0.72346,-0.0593 0.72346,-1.40417 v -1.45711 l -3.57072,-1.63548 c -4.13144,-1.89233 -6.83563,-3.36836 -7.84541,-4.2826 l -0.71076,-0.64353 -0.20597,-12.49344 c -0.11327,-6.87137 -0.21626,-16.68745 -0.2293,-21.81342 l -0.0237,-9.31948 10.05396,0.16567 c 6.15771,0.10155 10.54784,0.31454 11.32756,0.54989 0.70016,0.21133 1.64792,0.69338 2.10639,1.07088 1.143,0.94117 2.31357,3.76512 3.9725,9.58564 1.50766,5.28976 1.91275,5.9293 3.45249,5.44659 0.67551,-0.21176 0.76387,-0.40009 0.73024,-1.55218 -0.0395,-1.3557 -0.0273,-32.11493 0.0147,-37.44603 l 0.0233,-3.01124 -1.12314,-0.10638 c -0.61771,-0.0585 -1.25564,0.0469 -1.41769,0.23428 -0.16205,0.18743 -0.8576,2.31914 -1.54568,4.73742 -1.66794,5.86186 -3.07972,9.21573 -4.21621,10.01497 -0.4887,0.34369 -1.68501,0.7825 -2.65822,0.97531 -0.97324,0.19283 -6.05449,0.45488 -11.29195,0.58225 l -9.52292,0.23184 0.17674,-20.39013 c 0.097,-11.21447 0.25985,-20.64177 0.36194,-20.94936 0.11535,-0.34761 0.69593,-0.66036 1.53423,-0.82631 0.74179,-0.14685 6.03578,-0.26647 11.76454,-0.26615 11.55354,0 13.15203,0.19952 14.53674,1.81 1.1643,1.35413 3.15448,5.55594 4.91171,10.3693 0.84627,2.31813 1.64799,4.44031 1.78174,4.71634 0.15117,0.31195 0.66966,0.50187 1.36939,0.50187 h 1.12568 l -0.1085,-6.52437 c -0.0597,-3.5884 -0.19007,-9.46034 -0.28947,-13.04874 l -0.18098,-6.52438 -10.41591,0.16764 c -16.23987,0.26082 -45.79233,0.19658 -51.01318,-0.11077 z"
         id="path1059" />
      <path
         style="opacity:1;fill:#000000;stroke-width:10.7532"
         d="m 52.067635,-790.83398 -3.688967,0.28477 c -4.744847,0.36642 -20.703436,0.36757 -26.039767,0.003 l -4.122965,-0.28184 v 1.16109 c 0,0.63869 0.162604,1.31074 0.361524,1.49338 0.198911,0.18258 1.66365,0.96839 3.254971,1.74625 4.216875,2.06127 7.936227,4.34751 8.392993,5.15892 0.6755,1.19998 0.98869,12.07412 1.186708,41.19197 0.126525,18.60389 0.09199,27.32811 -0.107651,27.10124 -0.354979,-0.40347 -28.8669028,-55.65518 -32.02798086,-62.06535 -1.22508424,-2.48428 -3.13675254,-6.66522 -4.24841634,-9.29106 -1.1478655,-2.71128 -2.294479,-4.97249 -2.653565,-5.23292 -0.4950512,-0.35902 -3.3020818,-0.5111 -12.9291858,-0.70135 -6.763105,-0.13364 -13.272905,-0.26305 -14.466395,-0.2877 l -2.169981,-0.045 -0.07545,1.00375 c -0.04145,0.55206 0.02392,1.16424 0.144948,1.36006 0.121022,0.1958 1.55979,1.00534 3.197755,1.79919 3.816881,1.84991 6.185606,3.62921 7.20671,5.41428 l 0.809928,1.41642 -0.01399,40.84302 c -0.01467,43.51592 -0.177521,50.39567 -1.233751,52.03911 -0.652644,1.01544 -2.524236,2.14358 -6.998187,4.21888 -1.830019,0.84887 -3.496846,1.70489 -3.703802,1.90211 -0.217078,0.20682 -0.339159,0.86609 -0.289047,1.55806 0.07581,1.04544 0.180016,1.19358 0.810351,1.15127 13.885767,-0.93237 17.041261,-0.98421 26.054179,-0.42787 3.2081817,0.19808 6.1772942,0.38613 6.5980969,0.4181 0.6994564,0.0531 0.7728516,-0.0606 0.8527351,-1.32579 l 0.087307,-1.38356 -4.2827454,-1.92664 c -4.7649336,-2.14356 -7.3225046,-3.53564 -7.8526176,-4.27427 -1.032709,-1.43895 -1.615824,-23.89112 -1.374462,-52.92718 0.105511,-12.69852 0.284528,-24.29303 0.39797,-25.76521 l 0.206403,-2.67649 1.759294,3.34599 c 13.7856922,26.21875 30.486447,58.16516 32.88326,62.90147 3.494857,6.90612 7.202966,14.65921 9.098661,19.0242 0.718526,1.6544 1.622775,3.58773 2.009353,4.29582 h 4.33e-4 l 0.702701,1.2875 5.113017,-0.0916 5.113016,-0.0911 -0.07332,-37.30585 c -0.06892,-34.95146 0.192248,-55.5946 0.797214,-63.00684 0.222204,-2.72257 0.315845,-3.03935 1.219766,-4.12626 0.633033,-0.76117 2.58798,-2.08446 5.530907,-3.74298 l 4.552299,-2.56526 0.0046,-1.28801 z"
         id="path1057" />
      <path
         style="opacity:1;fill:#000000;stroke-width:10.7532"
         d="m -401.44503,-790.83748 v 1.3081 1.30811 l 2.38698,1.11844 c 3.47844,1.63034 7.18832,3.85427 8.098,4.85405 0.43577,0.47894 0.89132,1.28001 1.01253,1.78058 0.1212,0.50059 0.22039,21.46899 0.22039,46.59593 0,43.18466 -0.028,45.73466 -0.51325,46.59105 -0.78479,1.38496 -2.34755,2.42149 -6.89563,4.5742 -4.04146,1.91292 -4.16734,2.0024 -4.25731,3.03037 -0.051,0.58255 -0.0187,1.28294 0.0721,1.55611 0.11422,0.34409 0.40935,0.43794 0.96081,0.30583 0.43772,-0.1049 3.98569,-0.35712 7.88441,-0.5602 4.66172,-0.24281 13.67598,-0.29064 26.32923,-0.13967 10.58228,0.12625 22.10488,0.35166 25.60578,0.50039 5.08372,0.21599 6.48685,0.18145 6.96937,-0.17057 0.5867,-0.42803 0.61094,-0.7863 0.84171,-12.42972 0.1307,-6.59403 0.24961,-13.04323 0.26405,-14.33136 l 0.0263,-2.34226 -1.23757,-0.10293 c -1.43662,-0.11994 -1.19597,-0.57803 -3.39399,6.46019 -1.58926,5.08893 -4.00142,10.71362 -4.87949,11.37794 -1.34094,1.0145 -4.19874,1.53822 -10.40955,1.90849 -4.74221,0.28271 -7.88693,0.27977 -12.58589,-0.0118 -3.44526,-0.21375 -6.54295,-0.47806 -6.88374,-0.58764 -0.6027,-0.19383 -0.62411,-0.40191 -0.78918,-7.61439 -0.0933,-4.07822 -0.24608,-14.08913 -0.33947,-22.24668 l -0.16954,-14.83176 11.66408,0.12986 c 12.28145,0.13714 12.91362,0.21333 14.36976,1.72619 0.9896,1.02813 2.17163,3.91516 3.65972,8.93915 0.72076,2.4333 1.4545,4.62549 1.63088,4.87122 0.37049,0.51623 2.46926,0.6087 2.61287,0.11519 0.053,-0.18231 -0.003,-2.93025 -0.1246,-6.10631 -0.12154,-3.1761 -0.14025,-12.19232 -0.0415,-20.03628 0.13501,-10.7288 0.0956,-14.32172 -0.15935,-14.50386 -0.18636,-0.13318 -0.77539,-0.1476 -1.30877,-0.0318 -0.95245,0.20666 -0.98835,0.27917 -2.01741,4.05764 -1.33402,4.89812 -2.74583,8.43983 -3.80848,9.55424 -0.45868,0.48104 -1.28964,1.05923 -1.8466,1.2846 -1.14998,0.46534 -10.98432,0.97888 -19.21113,1.00325 l -5.46774,0.016 0.18988,-14.47055 c 0.10451,-7.95891 0.27177,-16.83234 0.3717,-19.7187 l 0.18138,-5.24813 1.76904,-0.21761 c 0.97291,-0.11967 6.97672,-0.16107 13.34199,-0.0921 9.79657,0.10611 11.76655,0.20905 12.83129,0.66998 0.69181,0.29946 1.47301,0.87979 1.73598,1.28949 1.83159,2.85343 3.20598,6.10528 5.71824,13.53051 0.56168,1.66011 0.57564,1.67275 1.85804,1.67275 h 1.29224 l -0.02,-1.83986 c -0.0109,-1.01213 -0.12841,-6.77184 -0.26107,-12.7993 -0.17767,-8.07205 -0.33629,-11.05072 -0.60268,-11.30638 -0.24992,-0.23982 -5.31004,-0.2268 -16.3753,0.0416 -15.01886,0.36436 -42.34742,0.23189 -47.91249,-0.23232 z"
         id="path1055" />
      <path
         style="opacity:1;fill:#000000;stroke-width:10.7532"
         d="m 94.580318,-793.47547 c -5.232712,-0.003 -9.354005,0.30033 -15.176866,2.57642 -5.822861,2.27611 -11.741873,7.06074 -15.093647,12.85542 -2.002285,3.46165 -3.269457,7.06435 -3.94284,11.2084 -0.37422,2.30305 -0.453544,4.13337 -0.340757,7.85405 0.09117,3.00755 0.336467,5.67804 0.64591,7.02623 0.625503,2.72528 2.075051,6.41964 3.477911,8.86369 1.440888,2.51031 4.737241,6.26545 7.545327,8.59558 1.260064,1.04558 5.348698,3.96323 9.085534,6.4832 3.736815,2.51996 7.822412,5.41701 9.07959,6.4381 4.754341,3.86157 8.044358,8.21905 9.352939,12.38807 0.40805,1.29988 0.76473,3.35195 0.863351,4.96778 0.50359,8.25234 -2.553979,15.06852 -8.156935,18.18463 -1.304766,0.72564 -3.390855,1.53827 -4.768011,1.85704 -1.888535,0.43713 -3.311608,0.52353 -6.220901,0.37836 -4.026095,-0.20087 -6.417197,-0.82127 -8.98168,-2.33047 -0.794625,-0.46766 -1.725482,-1.20423 -2.068273,-1.6365 -0.342771,-0.43226 -0.947588,-1.68901 -1.343934,-2.79312 -1.036948,-2.88858 -2.870256,-9.68067 -3.974212,-14.72201 -0.523855,-2.39225 -1.077398,-4.53777 -1.229938,-4.7678 -0.152531,-0.23004 -0.831274,-0.41807 -1.508391,-0.41807 -0.677122,0 -1.355114,0.18803 -1.506695,0.41807 -0.151548,0.23003 -0.567919,4.63398 -0.925209,9.78656 -0.357298,5.15257 -0.834819,11.40109 -1.061254,13.88537 -0.545419,5.98398 -0.533202,6.9301 0.09366,7.30707 1.354617,0.81459 11.090067,3.00193 15.551395,3.494 2.598595,0.28662 10.591545,0.21695 12.882545,-0.11222 13.415133,-1.9275 22.567833,-8.51922 27.062893,-19.49126 3.19782,-7.8056 3.40403,-18.84751 0.50096,-26.83023 -1.59961,-4.3986 -4.65133,-8.80724 -8.72951,-12.61204 -2.88802,-2.6944 -6.582081,-5.47048 -12.621059,-9.48515 -7.246586,-4.81747 -9.576385,-6.6668 -12.179017,-9.66646 -1.755274,-2.02306 -2.606688,-3.32748 -3.399925,-5.20842 -1.209959,-2.86905 -1.63788,-5.09698 -1.63215,-8.49366 0.01106,-6.13219 2.428099,-11.61511 6.496813,-14.73815 2.136519,-1.63998 4.80464,-2.7534 7.797934,-3.25386 1.967911,-0.32895 3.074471,-0.33031 5.305429,-0.008 3.289344,0.47618 5.331065,1.48158 6.784165,3.34157 0.53851,0.68928 1.57411,2.83046 2.30137,4.75803 1.25076,3.31509 1.83614,5.06558 4.08269,12.20379 0.86604,2.7517 1.01912,3.02073 1.77201,3.12103 0.45314,0.0605 1.10893,0.0272 1.45753,-0.074 0.62535,-0.18151 0.63874,-0.32224 0.98285,-10.48204 0.19185,-5.66383 0.48994,-11.78264 0.66287,-13.59719 0.26532,-2.78387 0.24878,-3.37491 -0.10597,-3.78514 -0.5204,-0.6018 -3.6915,-1.54216 -7.88524,-2.33832 -2.50456,-0.47549 -5.700571,-1.14565 -10.933266,-1.14901 z"
         id="path1053" />
      <path
         style="opacity:1;fill:#000000;stroke-width:10.7532"
         d="m -213.82663,-793.2513 c -8.51203,-0.006 -10.04268,0.5294 -15.01016,2.47115 -6.67826,2.61045 -11.84698,6.94184 -15.19877,12.73652 -2.00228,3.46165 -3.26945,7.06435 -3.94284,11.2084 -0.37422,2.30305 -0.45396,4.13337 -0.34118,7.85405 0.0911,3.00755 0.33689,5.67804 0.64633,7.02623 0.62551,2.72528 2.07506,6.41964 3.47791,8.86369 1.44089,2.51031 4.73724,6.26545 7.54534,8.59558 1.26007,1.04558 5.34828,3.96323 9.0851,6.4832 3.73683,2.51996 7.82284,5.41701 9.08002,6.4381 4.75433,3.86157 8.04436,8.21905 9.35295,12.38807 0.40804,1.29988 0.76472,3.35195 0.86333,4.96778 0.50361,8.25234 -2.55397,15.06852 -8.15692,18.18463 -1.30477,0.72564 -3.39087,1.53827 -4.76802,1.85704 -1.88852,0.43713 -3.3116,0.52353 -6.2209,0.37836 -4.0261,-0.20087 -6.4172,-0.82127 -8.98168,-2.33047 -0.79463,-0.46766 -1.72547,-1.20423 -2.06827,-1.6365 -0.34278,-0.43226 -0.9476,-1.68901 -1.34394,-2.79312 -1.03693,-2.88858 -2.87026,-9.68067 -3.97421,-14.72201 -0.52386,-2.39225 -1.0774,-4.53777 -1.22994,-4.7678 -0.15253,-0.23004 -0.83127,-0.41807 -1.50839,-0.41807 -0.67712,0 -1.35512,0.18803 -1.50669,0.41807 -0.15154,0.23003 -0.56792,4.63398 -0.92521,9.78656 -0.3573,5.15257 -0.83482,11.40109 -1.06126,13.88537 -0.54541,5.98398 -0.53362,6.9301 0.0932,7.30707 1.35462,0.81459 11.09051,3.00193 15.55182,3.494 2.59859,0.28662 10.59155,0.21695 12.88256,-0.11222 13.41512,-1.9275 22.56782,-8.51922 27.06288,-19.49126 3.19781,-7.8056 3.40403,-18.84751 0.50096,-26.83023 -1.59962,-4.3986 -4.65134,-8.80724 -8.72951,-12.61204 -2.88802,-2.6944 -6.5821,-5.47048 -12.62106,-9.48515 -7.24658,-4.81747 -9.57638,-6.6668 -12.17902,-9.66646 -1.75528,-2.02306 -2.60669,-3.32748 -3.39992,-5.20842 -1.20995,-2.86905 -1.63788,-5.09698 -1.63215,-8.49366 0.011,-6.13219 2.42809,-11.61511 6.49681,-14.73815 2.13653,-1.63998 4.80464,-2.7534 7.79794,-3.25386 1.96791,-0.32895 3.07447,-0.33031 5.30544,-0.008 3.28934,0.47618 5.33104,1.48158 6.78415,3.34157 0.53851,0.68928 1.5741,2.83046 2.30137,4.75803 1.25077,3.31509 1.83614,5.06558 4.08269,12.20379 0.86603,2.7517 1.01912,3.02073 1.77201,3.12103 0.45313,0.0605 1.10893,0.0272 1.45754,-0.074 0.62533,-0.18151 0.6383,-0.32224 0.98242,-10.48204 0.19184,-5.66383 0.49036,-11.78264 0.66329,-13.59719 0.26532,-2.78387 0.24879,-3.37491 -0.10596,-3.78514 -0.52041,-0.6018 -3.69195,-1.54216 -7.88568,-2.33832 -2.50456,-0.47549 -4.84684,-0.92106 -10.99442,-0.92485 z"
         id="path1051" />
      <path
         style="opacity:1;fill:#000000;stroke-width:10.7532"
         d="m -285.70982,-793.2513 c -8.51202,-0.006 -10.04267,0.5294 -15.01015,2.47115 -6.67826,2.61045 -11.84699,6.94184 -15.19877,12.73652 -2.00228,3.46165 -3.26946,7.06435 -3.94284,11.2084 -0.37422,2.30305 -0.45396,4.13337 -0.34118,7.85405 0.0912,3.00755 0.33689,5.67804 0.64633,7.02623 0.62551,2.72528 2.07506,6.41964 3.47791,8.86369 1.44089,2.51031 4.73724,6.26545 7.54534,8.59558 1.26006,1.04558 5.34827,3.96323 9.0851,6.4832 3.73683,2.51996 7.82283,5.41701 9.08001,6.4381 4.75435,3.86157 8.04438,8.21905 9.35296,12.38807 0.40804,1.29988 0.76473,3.35195 0.86333,4.96778 0.50361,8.25234 -2.55397,15.06852 -8.15692,18.18463 -1.30477,0.72564 -3.39087,1.53827 -4.76803,1.85704 -1.88852,0.43713 -3.31159,0.52353 -6.22089,0.37836 -4.02611,-0.20087 -6.4172,-0.82127 -8.98169,-2.33047 -0.79461,-0.46766 -1.72546,-1.20423 -2.06826,-1.6365 -0.34278,-0.43226 -0.94759,-1.68901 -1.34394,-2.79312 -1.03694,-2.88858 -2.87026,-9.68067 -3.9742,-14.72201 -0.52387,-2.39225 -1.0774,-4.53777 -1.22995,-4.7678 -0.15253,-0.23004 -0.83127,-0.41807 -1.50838,-0.41807 -0.67713,0 -1.35512,0.18803 -1.5067,0.41807 -0.15155,0.23003 -0.56792,4.63398 -0.92521,9.78656 -0.3573,5.15257 -0.83483,11.40109 -1.06126,13.88537 -0.54541,5.98398 -0.53362,6.9301 0.0932,7.30707 1.35462,0.81459 11.09051,3.00193 15.55181,3.494 2.5986,0.28662 10.59157,0.21695 12.88257,-0.11222 13.41512,-1.9275 22.56781,-8.51922 27.06288,-19.49126 3.19781,-7.8056 3.40402,-18.84751 0.50096,-26.83023 -1.59962,-4.3986 -4.65133,-8.80724 -8.72951,-12.61204 -2.88802,-2.6944 -6.5821,-5.47048 -12.62106,-9.48515 -7.24659,-4.81747 -9.57637,-6.6668 -12.17903,-9.66646 -1.75527,-2.02306 -2.60668,-3.32748 -3.39991,-5.20842 -1.20995,-2.86905 -1.63789,-5.09698 -1.63215,-8.49366 0.011,-6.13219 2.42809,-11.61511 6.49681,-14.73815 2.13653,-1.63998 4.80463,-2.7534 7.79794,-3.25386 1.9679,-0.32895 3.07446,-0.33031 5.30543,-0.008 3.28934,0.47618 5.33105,1.48158 6.78416,3.34157 0.5385,0.68928 1.5741,2.83046 2.30136,4.75803 1.25078,3.31509 1.83614,5.06558 4.0827,12.20379 0.86603,2.7517 1.01912,3.02073 1.77201,3.12103 0.45313,0.0605 1.10893,0.0272 1.45754,-0.074 0.62533,-0.18151 0.63829,-0.32224 0.98242,-10.48204 0.19183,-5.66383 0.49035,-11.78264 0.66329,-13.59719 0.26531,-2.78387 0.24879,-3.37491 -0.10596,-3.78514 -0.52042,-0.6018 -3.69194,-1.54216 -7.88568,-2.33832 -2.50456,-0.47549 -4.84684,-0.92106 -10.99443,-0.92485 z"
         id="path1049" />
      <path
         id="path1043"
         style="opacity:1;fill:#000000;stroke-width:10.7532"
         d="m -700.56191,-834.59293 c -3.82047,0.003 -8.33213,0.19373 -13.13859,0.57544 -4.05726,0.32225 -9.77822,0.69212 -12.71327,0.82195 -5.12877,0.22685 -25.40024,-0.36137 -28.25171,-0.81978 -1.31032,-0.21064 -1.39126,-0.1701 -1.59837,0.79766 -0.11999,0.56076 -0.0922,1.42984 0.0621,1.93129 0.24227,0.7874 1.07105,1.23131 6.07476,3.25588 6.11845,2.47561 8.77755,3.82642 9.47657,4.81399 0.33744,0.47674 0.46683,4.20509 0.62857,18.12441 0.26063,22.42871 0.26006,69.57531 0,95.44678 -0.2301,22.80955 0.029,20.85125 -2.97646,22.50423 -0.89159,0.49038 -4.09306,1.94088 -7.11442,3.22355 -3.02137,1.28264 -5.59753,2.50944 -5.72438,2.72624 -0.30019,0.51317 -0.30734,2.95368 -0.0101,3.30282 0.12673,0.14862 0.65645,0.18001 1.17715,0.0696 0.52071,-0.11047 5.39644,-0.38999 10.83489,-0.62132 9.75817,-0.41501 27.08671,-0.23035 35.00059,0.37324 2.0718,0.15795 3.9433,0.21186 4.15912,0.11973 0.51253,-0.21876 0.51078,-2.82934 -0.002,-3.32869 -0.21735,-0.21158 -3.07784,-1.48653 -6.35664,-2.8336 -6.19696,-2.54598 -8.38873,-3.75946 -8.79693,-4.87008 -0.27484,-0.7477 -0.71136,-28.32613 -0.74906,-47.3108 l -0.0257,-12.78513 0.86357,0.15748 c 2.21487,0.4034 13.87958,0.52322 17.48764,0.1796 9.8145,-0.93476 17.22033,-3.72888 23.63507,-8.91659 1.25229,-1.01277 3.51259,-3.36448 5.02268,-5.22602 4.15767,-5.1253 6.76311,-10.83393 8.39598,-18.39679 1.15315,-5.34091 1.50859,-9.85803 1.32936,-16.8818 -0.12521,-4.90614 -0.31852,-7.04096 -0.85345,-9.41545 -0.99472,-4.41549 -2.27549,-7.83572 -4.21107,-11.24755 -4.65152,-8.19909 -12.19716,-13.26845 -22.63312,-15.20453 -2.04209,-0.37879 -5.17141,-0.56733 -8.9919,-0.56574 z m -8.58678,10.57501 c 5.94742,0 7.57535,0.11536 9.23745,0.65364 6.5248,2.11312 11.01521,7.18325 13.06044,14.74665 1.20479,4.45531 1.71379,9.02378 1.71469,15.40785 0.002,9.24857 -0.88276,14.68882 -3.3411,20.54485 -1.19497,2.84664 -1.93627,4.04218 -4.02301,6.48967 -2.03105,2.38217 -3.10757,3.31284 -5.22546,4.51521 -3.14675,1.78641 -6.30993,2.79788 -10.43851,3.33784 -1.65012,0.21581 -5.12487,0.3921 -7.72139,0.3921 h -4.72105 v -32.73841 -32.73836 l 2.11886,-0.30526 c 1.16541,-0.16797 5.36815,-0.30578 9.33908,-0.30578 z" />
      <path
         style="opacity:1;fill:#000000;stroke-width:10.7532"
         d="m -818.79899,-677.91085 c -1.72096,-0.30662 -4.18758,-1.20534 -5.87851,-2.14187 -0.81116,-0.44925 -2.24722,-1.54791 -3.19135,-2.44145 -2.68679,-2.54304 -4.39321,-5.75955 -5.35156,-10.08752 -0.28176,-1.27274 -0.38982,-2.78437 -0.3897,-5.45174 2e-4,-3.00603 0.0932,-4.09635 0.50155,-5.8773 1.47089,-6.41548 4.72018,-10.99852 10.61861,-14.97715 0.92114,-0.62135 2.46707,-1.54898 3.43539,-2.06138 l 1.76066,-0.93166 -1.15431,-1.88844 c -1.46558,-2.39779 -2.92802,-5.43675 -3.6605,-7.60677 -1.24553,-3.68985 -1.61673,-8.58213 -0.91192,-12.01766 0.43036,-2.09759 1.75208,-4.86143 3.14473,-6.57588 1.3298,-1.63706 3.36613,-3.15798 5.6727,-4.23692 3.64148,-1.70339 8.21115,-2.32021 12.43541,-1.67853 1.26282,0.19183 2.9398,0.56082 3.72656,0.81997 3.31363,1.09141 6.28915,3.55884 7.61337,6.31334 1.00547,2.09127 1.46994,4.71481 1.31508,7.42733 -0.0706,1.23528 -0.34303,3.00085 -0.60552,3.92354 -1.36718,4.80553 -4.80463,9.20996 -10.11367,12.95864 -0.96973,0.68474 -2.0097,1.4056 -2.31105,1.60192 l -0.54789,0.35694 7.10548,10.64396 c 6.26348,9.3827 7.14103,10.59939 7.40543,10.26782 0.16506,-0.20688 0.94311,-1.65969 1.7291,-3.22846 1.6789,-3.35109 3.53104,-8.76704 4.06037,-11.87318 0.34872,-2.04668 0.34879,-2.23869 0,-2.76435 -0.40417,-0.6109 -2.66169,-1.71941 -5.13094,-2.51944 -1.19572,-0.38741 -1.55329,-0.60631 -1.65662,-1.01407 -0.0725,-0.28601 -0.0192,-0.72845 0.11851,-0.98321 0.21985,-0.40687 0.38015,-0.44421 1.31788,-0.30705 1.22185,0.17875 16.24341,0.22645 18.11943,0.0576 l 1.24215,-0.11184 v 0.89471 0.89472 l -2.23717,1.16415 c -2.27859,1.1857 -3.44877,2.10892 -4.19463,3.30944 -0.22932,0.36907 -1.39304,3.02088 -2.58602,5.89291 -2.40951,5.80074 -4.90756,10.85063 -6.77091,13.68754 l -1.22954,1.87195 1.18582,1.68799 c 0.65211,0.92839 2.28037,3.27004 3.6183,5.20366 2.78019,4.01804 3.83872,5.27812 5.23042,6.22643 0.54182,0.3692 2.13154,1.15606 3.53271,1.74858 l 2.54761,1.07733 0.072,0.84864 0.0719,0.84865 -3.23391,-0.15142 c -4.8593,-0.22752 -13.87884,-0.56826 -15.54296,-0.58717 l -1.468,-0.0167 -2.45012,-3.79093 -2.45016,-3.79095 -1.50226,1.36372 c -4.35571,3.95381 -8.75347,6.40265 -13.64613,7.59862 -2.1387,0.5228 -7.4585,0.76303 -9.36698,0.423 z m 14.43423,-9.09907 c 2.1008,-0.71716 4.54181,-2.20268 5.90445,-3.59331 l 0.8607,-0.87831 -1.6225,-2.66083 c -4.33604,-7.11091 -15.19627,-23.57481 -15.55095,-23.57481 -0.10301,0 -0.89994,0.74304 -1.77102,1.6512 -1.76123,1.83628 -2.96042,3.78476 -3.7509,6.0946 -0.9027,2.63782 -1.1545,4.44576 -1.13304,8.13541 0.0159,2.7846 0.11497,3.81924 0.50186,5.25646 0.26492,0.98419 0.91481,2.645 1.44413,3.69071 0.68112,1.34559 1.39163,2.32766 2.43102,3.36018 0.80776,0.8024 1.98743,1.73178 2.6215,2.06529 1.91162,1.00543 3.32822,1.29547 5.85982,1.19978 1.76769,-0.0669 2.69793,-0.23194 4.20493,-0.74637 z m 0.87825,-40.67068 c 2.57392,-1.96153 4.53073,-4.95779 5.45181,-8.34793 0.36403,-1.33985 0.46857,-2.43103 0.48516,-5.06312 0.023,-3.63785 -0.25564,-5.19003 -1.29656,-7.22441 -0.68933,-1.34723 -2.09319,-2.62544 -3.22553,-2.93685 -4.4077,-1.21216 -8.06595,2.28384 -8.56269,8.18296 -0.28887,3.43035 0.65673,7.39441 2.74723,11.51672 1.05687,2.08407 2.75344,4.88888 2.95722,4.88888 0.0602,0 0.70993,-0.45731 1.44336,-1.01625 z"
         id="path890" />
    </g>
    <path
       style="fill:#a7aaac;fill-opacity:1;stroke:#000000;stroke-width:0.13229167;stroke-linecap:butt;stroke-linejoin:miter;stroke-opacity:1"
       d="m 1396.6164,-1245.7963 c -0.1864,0.6687 0.9862,1.1365 1.4298,1.134 -0.3572,-0.3876 -0.2515,-0.96 -0.52,-1.4034 0.4634,0.6172 1.5171,0.5396 1.6387,0.012 -0.5603,0.068 -1.1004,-0.1119 -0.9851,-0.4759 0.1152,-0.3639 0.6874,-0.3208 0.9627,0.14 0.1482,-0.9376 -0.6752,-0.741 -0.782,-0.9293 1.2421,-0.039 2.7165,-1.515 4.3629,-3.5855 0.041,-0.052 0.2209,-0.2808 0.2209,-0.2808 -0.5529,-0.069 -1.0703,-0.2323 -1.5963,-0.3727 0.5721,0.074 1.133,0.22 1.7167,0.2183 0,0 0.2484,-0.3209 0.3251,-0.4213 1.0157,-1.3297 2.0904,-2.8335 3.2112,-4.3291 0.054,-0.072 0.1617,-0.2153 0.1617,-0.2153 -0.7739,0.065 -1.5061,-0.1117 -2.2544,-0.1948 0.8441,-0.023 1.6973,0.017 2.5198,-0.1561 0,0 0.1002,-0.1318 0.1504,-0.1976 0.2567,-0.336 0.5156,-0.6701 0.7766,-1 0.732,-0.9253 1.5285,-1.859 2.3673,-2.7859 0.058,-0.064 0.1752,-0.193 0.1752,-0.193 -0.6512,-0.01 -1.1974,-0.297 -1.8181,-0.3942 0.7168,0.011 1.9795,0.179 2.1504,0.033 0,0 0.1165,-0.1256 0.1749,-0.1883 0.8846,-0.949 1.8075,-1.8866 2.7442,-2.7965 0.044,-0.043 0.2546,-0.2404 0.2546,-0.2404 l -1.1232,-0.2287 c 0,0 1.2635,0.09 1.2866,0.068 0.025,-0.024 0.17,-0.1646 0.2181,-0.2104 3.0862,-2.9383 6.2622,-5.5397 8.6687,-7.229 l 0.1627,-0.5913 c -2.525,-0.9171 -5.8739,-0.7958 -8.5993,-0.1976 -0.082,0.018 -0.4665,0.1125 -0.4665,0.1125 l -0.1297,1.7249 -0.2482,-1.6276 c 0,0 -0.4039,0.1095 -0.4935,0.1366 -0.9059,0.2733 -1.6945,0.5978 -2.2943,0.9458 -0.1109,0.9576 -0.08,1.688 -0.1087,2.5146 -0.1046,-0.7719 -0.3302,-1.4261 -0.2892,-2.3397 -1.752,0.8658 -3.6596,2.0102 -5.3502,3.5118 0.01,0.8348 0.052,1.6476 0.1671,2.4235 -0.1697,-0.6221 -0.257,-1.3541 -0.4204,-2.2154 0,0 -1.2089,1.0669 -1.9862,1.845 -0.1366,0.1367 -0.5139,0.5483 -0.5139,0.5483 0.2279,0.8582 0.4818,1.6542 0.7696,2.3693 -0.3767,-0.6288 -0.7346,-1.2947 -1.0394,-2.0656 0,0 -0.2928,0.3333 -0.3617,0.4134 -1.5455,1.8 -2.7426,3.4918 -3.6719,5.041 -0.046,0.076 -0.178,0.3015 -0.178,0.3015 0.2838,0.8346 0.6566,1.5218 1.0258,2.2149 -0.397,-0.6108 -0.8012,-1.1881 -1.1585,-1.9856 0,0 -0.1237,0.2167 -0.1634,0.2877 -0.7777,1.3927 -1.336,2.6565 -1.7399,3.7636 -0.039,0.1071 -0.1425,0.4149 -0.1425,0.4149 0.311,0.9293 0.6865,1.7289 1.0774,2.4976 -0.4294,-0.6587 -0.8475,-1.3383 -1.1767,-2.1843 0,0 -0.073,0.2428 -0.092,0.3136 -0.997,3.633 0.4742,5.0191 0.2997,5.3701 -0.1902,0.3828 -0.88,-0.018 -1.1279,-0.1957 0.1106,0.2657 0.3704,0.4679 0.563,0.6986 -0.707,0.2719 -1.0637,0.023 -1.4086,-0.4896 0.048,1.0205 0.8199,0.9918 1.438,1.2049 -0.3508,0.068 -0.5962,0.326 -1.1151,0.092 0.4018,0.792 1.4869,0.6064 1.7188,0.6611 0.2318,0.055 0.8029,0.04 0.6165,0.7089 z"
       id="path1312" />
    <path
       id="path1318"
       style="fill:#b0b2b4;fill-opacity:1;stroke:none;stroke-width:0.264585px;stroke-linecap:butt;stroke-linejoin:miter;stroke-opacity:1"
       d="m 1418.992,-1273.2787 c -1.4936,-0.01 -3.0121,0.1703 -4.3748,0.4694 -0.082,0.018 -0.4665,0.1125 -0.4665,0.1125 l -0.1297,1.7249 -0.2482,-1.6276 c 0,0 -0.4039,0.1096 -0.4935,0.1366 -0.9058,0.2733 -1.6945,0.5978 -2.2943,0.9458 -0.1109,0.9576 -0.08,1.688 -0.1087,2.5146 -0.1046,-0.772 -0.3302,-1.426 -0.2892,-2.3396 -1.752,0.8658 -3.6596,2.0101 -5.3501,3.5116 0.01,0.8349 0.052,1.6477 0.167,2.4236 -0.1697,-0.6221 -0.2569,-1.3541 -0.4204,-2.2154 0,0 -1.209,1.0669 -1.9862,1.845 -0.1366,0.1367 -0.5139,0.5483 -0.5139,0.5483 0.2279,0.8582 0.4818,1.6542 0.7696,2.3693 -0.3767,-0.6288 -0.7345,-1.2947 -1.0394,-2.0656 0,0 -0.2928,0.3333 -0.3617,0.4135 -1.5455,1.7999 -2.7426,3.4917 -3.6719,5.0409 -0.046,0.076 -0.178,0.3015 -0.178,0.3015 0.2838,0.8346 0.6566,1.5218 1.0258,2.2149 -0.397,-0.6108 -0.8012,-1.1881 -1.1585,-1.9856 0,0 -0.1237,0.2167 -0.1634,0.2877 -0.7777,1.3927 -1.336,2.6565 -1.7399,3.7636 -0.039,0.1071 -0.1425,0.4149 -0.1425,0.4149 0.275,0.8219 0.9051,2.1966 1.0761,2.5402 0.171,0.3437 1.2519,1.3116 1.2519,1.3116 l 0.7366,0.079 2.5266,-1.0018 c 0.4695,0.076 1.1684,0.2065 1.6499,0.2051 0,0 0.2484,-0.3209 0.3251,-0.4213 1.0157,-1.3297 2.0904,-2.8335 3.2112,-4.3291 0.054,-0.072 0.1617,-0.2153 0.1617,-0.2153 -0.7739,0.065 -1.5061,-0.1117 -2.2544,-0.1948 0.8441,-0.023 1.6973,0.017 2.5198,-0.1561 0,0 0.1002,-0.1318 0.1504,-0.1975 0.2567,-0.3361 0.5156,-0.6702 0.7766,-1.0001 0.732,-0.9253 1.5285,-1.859 2.3672,-2.7859 0.058,-0.064 0.1754,-0.193 0.1754,-0.193 -0.6513,-0.01 -1.1975,-0.297 -1.8182,-0.3942 0.7168,0.011 1.9794,0.179 2.1504,0.033 0,0 0.1165,-0.1256 0.1749,-0.1883 0.8846,-0.9489 1.8075,-1.8866 2.7442,-2.7966 0.044,-0.043 0.2546,-0.2403 0.2546,-0.2403 l -1.1232,-0.2287 c 0,0 1.2635,0.09 1.2866,0.068 0.025,-0.024 0.17,-0.1646 0.2181,-0.2104 3.0862,-2.9382 6.2622,-5.5397 8.6687,-7.229 l 0.1627,-0.5913 c -1.2625,-0.4585 -2.731,-0.6574 -4.2245,-0.667 z m -22.3994,20.8187 0.052,0.1192 0.046,0.036 c -0.033,-0.052 -0.065,-0.1032 -0.098,-0.1555 z" />
    <path
       id="path2147"
       style="fill:#babcbd;fill-opacity:1;stroke:none;stroke-width:0.264585px;stroke-linecap:butt;stroke-linejoin:miter;stroke-opacity:1"
       d="m 1418.992,-1273.2787 c -1.4936,-0.01 -3.0121,0.1703 -4.3748,0.4694 -0.082,0.018 -0.4665,0.1125 -0.4665,0.1125 l -0.1297,1.7249 -0.2482,-1.6276 c 0,0 -0.4039,0.1096 -0.4935,0.1366 -0.9058,0.2733 -1.6945,0.5978 -2.2943,0.9458 -0.1109,0.9576 -0.08,1.688 -0.1087,2.5146 -0.1046,-0.772 -0.3302,-1.426 -0.2892,-2.3396 -1.752,0.8658 -3.6596,2.0101 -5.3501,3.5116 0.01,0.8349 0.052,1.6477 0.167,2.4236 -0.1697,-0.6221 -0.2569,-1.3541 -0.4204,-2.2154 0,0 -1.209,1.0669 -1.9862,1.845 -0.1366,0.1367 -0.5139,0.5483 -0.5139,0.5483 0.2279,0.8582 0.4818,1.6542 0.7696,2.3693 -0.3767,-0.6288 -0.7345,-1.2947 -1.0394,-2.0656 0,0 -0.2928,0.3333 -0.3617,0.4135 -0.8768,1.0211 -1.6413,2.0074 -2.3086,2.9527 l 2.9005,3.7808 5.9228,-0.5881 c 0.6159,-0.7569 1.2714,-1.5176 1.9556,-2.2738 0.058,-0.064 0.1754,-0.193 0.1754,-0.193 -0.6513,-0.01 -1.1975,-0.297 -1.8182,-0.3942 0.7168,0.011 1.9794,0.179 2.1504,0.033 0,0 0.1165,-0.1256 0.1749,-0.1883 0.8846,-0.9489 1.8075,-1.8866 2.7442,-2.7966 0.044,-0.043 0.2546,-0.2403 0.2546,-0.2403 l -1.1232,-0.2287 c 0,0 1.2635,0.09 1.2866,0.068 0.025,-0.024 0.17,-0.1646 0.2181,-0.2104 3.0862,-2.9382 6.2622,-5.5397 8.6687,-7.229 l 0.1627,-0.5913 c -1.2625,-0.4585 -2.731,-0.6574 -4.2245,-0.667 z" />
    <path
       id="path2152"
       style="fill:#dadbdc;fill-opacity:1;stroke:none;stroke-width:0.264585px;stroke-linecap:butt;stroke-linejoin:miter;stroke-opacity:1"
       d="m 1418.992,-1273.2787 c -1.4936,-0.01 -3.0121,0.1703 -4.3748,0.4694 -0.082,0.018 -0.4665,0.1125 -0.4665,0.1125 l -0.1297,1.7249 -0.2482,-1.6276 c 0,0 -0.4039,0.1096 -0.4935,0.1366 -0.9058,0.2733 -1.6945,0.5978 -2.2943,0.9458 -0.1004,0.8664 -0.085,1.5473 -0.1023,2.2812 0.1141,1.1821 0.2839,2.2192 0.6335,3.3378 l 3.3819,0.6223 c 2.9223,-2.7387 5.8824,-5.1488 8.1557,-6.7446 l 0.1627,-0.5913 c -1.2625,-0.4585 -2.731,-0.6574 -4.2245,-0.667 z" />
    <path
       style="color:#000000;font-style:normal;font-variant:normal;font-weight:normal;font-stretch:normal;font-size:medium;line-height:normal;font-family:sans-serif;font-variant-ligatures:normal;font-variant-position:normal;font-variant-caps:normal;font-variant-numeric:normal;font-variant-alternates:normal;font-variant-east-asian:normal;font-feature-settings:normal;font-variation-settings:normal;text-indent:0;text-align:start;text-decoration:none;text-decoration-line:none;text-decoration-style:solid;text-decoration-color:#000000;letter-spacing:normal;word-spacing:normal;text-transform:none;writing-mode:lr-tb;direction:ltr;text-orientation:mixed;dominant-baseline:auto;baseline-shift:baseline;text-anchor:start;white-space:normal;shape-padding:0;shape-margin:0;inline-size:0;clip-rule:nonzero;display:inline;overflow:visible;visibility:visible;opacity:0.5;isolation:auto;mix-blend-mode:normal;color-interpolation:sRGB;color-interpolation-filters:linearRGB;solid-color:#000000;solid-opacity:1;vector-effect:none;fill:url(#linearGradient2290);fill-opacity:1;fill-rule:nonzero;stroke:#000000;stroke-width:0.13229167;stroke-linecap:round;stroke-linejoin:bevel;stroke-miterlimit:4;stroke-dasharray:none;stroke-dashoffset:0;stroke-opacity:1;color-rendering:auto;image-rendering:auto;shape-rendering:auto;text-rendering:auto;enable-background:accumulate;stop-color:#000000"
       d="m 1392.3397,-1238.2927 c -0.024,4e-4 -0.5389,-0.012 -0.5389,-0.012 0,0 0.5058,0.1055 0.5325,0.1095 0.8681,0.1288 2.0542,0.872 2.4964,1.1403 0.4422,0.2683 0.5351,1.2883 1.0623,1.8701 1.7425,1.9228 5.7914,1.7119 9.3559,1.8217 1.7692,0.054 2.7991,0.1322 5.0599,0.1655 2.2608,0.033 2.4417,-0.4737 0.8984,-0.8281 -1.5432,-0.3543 -2.9315,-0.925 -4.5819,-1.2011 -3.3006,-0.5522 -6.6631,-2.1623 -9.7859,-2.1568 -0.6915,0 -0.9771,-0.028 -1.4517,-0.3159 -0.4747,-0.288 -2.1653,-0.4628 -3.0391,-0.5924 0,-4e-4 -0.01,-6e-4 -0.01,-5e-4 z"
       id="path2161" />
    <path
       style="color:#000000;font-style:normal;font-variant:normal;font-weight:normal;font-stretch:normal;font-size:medium;line-height:normal;font-family:sans-serif;font-variant-ligatures:normal;font-variant-position:normal;font-variant-caps:normal;font-variant-numeric:normal;font-variant-alternates:normal;font-variant-east-asian:normal;font-feature-settings:normal;font-variation-settings:normal;text-indent:0;text-align:start;text-decoration:none;text-decoration-line:none;text-decoration-style:solid;text-decoration-color:#000000;letter-spacing:normal;word-spacing:normal;text-transform:none;writing-mode:lr-tb;direction:ltr;text-orientation:mixed;dominant-baseline:auto;baseline-shift:baseline;text-anchor:start;white-space:normal;shape-padding:0;shape-margin:0;inline-size:0;clip-rule:nonzero;display:inline;overflow:visible;visibility:visible;isolation:auto;mix-blend-mode:normal;color-interpolation:sRGB;color-interpolation-filters:linearRGB;solid-color:#000000;solid-opacity:1;vector-effect:none;fill:#cccccc;fill-opacity:1;fill-rule:nonzero;stroke:#000000;stroke-width:0.06614583;stroke-linecap:round;stroke-linejoin:bevel;stroke-miterlimit:4;stroke-dasharray:none;stroke-dashoffset:0;stroke-opacity:1;color-rendering:auto;image-rendering:auto;shape-rendering:auto;text-rendering:auto;enable-background:accumulate;stop-color:#000000"
       d="m 1410.6102,-1244.8511 c -0.3728,0.2628 -0.6144,0.5491 -0.7171,0.8489 -0.1028,0.2999 -0.058,0.6108 0.1228,0.888 0.1391,0.2134 0.3174,0.4126 0.6056,0.5877 -2.873,0.2246 -6.2666,0.2721 -9.6247,0.2594 -4.9629,-0.019 -7.1939,-0.2411 -13.7505,-0.137 -6.5567,0.1041 -10.7278,2.8742 -2.5529,3.7093 2.1554,0.1564 6.3934,0.3409 6.9015,0.3789 0.046,0 0.1768,0.01 0.1768,0.01 0,0 -0.1251,-0.045 -0.1699,-0.056 -0.5104,-0.074 -4.7524,-0.3727 -6.8942,-0.5281 -8.5831,-1.4317 -1.4958,-3.137 2.5446,-3.3163 3.7645,-0.1165 8.7753,0.1184 13.7438,0.1372 3.4733,0.013 6.9178,-0.1033 9.8607,-0.344 0.4258,0.2015 1.1472,0.3308 1.8005,0.4468 0.6655,0.1182 1.3032,0.3526 1.8932,0.6588 -0.6024,-0.016 -1.2645,-0.031 -1.8182,-0.016 -1.9065,0.052 -3.4764,0.2892 -4.4176,0.7936 -0.3648,0.1955 -0.6218,0.4549 -0.7253,0.7472 -0.1035,0.2923 -0.039,0.6148 0.2102,0.8842 0.4981,0.5388 1.6882,0.9144 3.834,0.8471 0.8271,-0.026 1.8029,-0.076 2.5985,-0.2984 0.3978,-0.1111 0.7518,-0.265 1.0193,-0.4879 0.2676,-0.2228 0.4464,-0.5196 0.4782,-0.8912 0.049,-0.5754 -0.2127,-0.9506 -0.5929,-1.2931 1.2692,0.055 2.6055,0.1623 3.9604,0.3255 6.2052,0.7471 9.4676,2.391 9.8842,2.6007 0.01,0 0.095,0.03 0.095,0.03 0,0 -0.073,-0.054 -0.081,-0.058 -0.4156,-0.2092 -3.6341,-2.091 -9.8512,-2.8395 -1.463,-0.1761 -2.9061,-0.2888 -4.2656,-0.338 -0.063,-0.043 -0.1186,-0.092 -0.1862,-0.1302 -0.6413,-0.3645 -1.467,-0.5639 -2.1854,-0.6915 -0.4757,-0.084 -1.0459,-0.1878 -1.3918,-0.3186 0.7568,-0.067 1.6888,-0.1505 2.3634,-0.2343 1.6924,-0.2103 2.9979,-0.4909 3.984,-0.8116 0.4931,-0.1604 0.8814,-0.3341 1.1523,-0.5293 0.2708,-0.1952 0.3829,-0.4237 0.3725,-0.6788 -0.01,-0.2308 -0.2051,-0.4026 -0.4135,-0.5555 -0.2085,-0.1529 -1.0143,-0.4658 -2.5225,-0.5293 -1.5081,-0.064 -4.4659,0.1666 -5.4412,0.931 z m 4.7997,-0.84 c 0.9447,0 1.8381,0.079 2.4892,0.2565 0.3256,0.089 0.5901,0.2017 0.768,0.3322 0.1779,0.1305 0.2664,0.2694 0.273,0.4299 0.01,0.1679 -0.098,0.3879 -0.3404,0.5629 -0.2428,0.1751 -0.6491,0.3643 -1.131,0.5211 -0.964,0.3135 -2.2908,0.5774 -3.9764,0.7869 -0.7908,0.098 -1.6575,0.1705 -2.5608,0.245 -0.4037,-0.1983 -0.7206,-0.4846 -0.8727,-0.7179 -0.1534,-0.2351 -0.1858,-0.4707 -0.1015,-0.7167 0.084,-0.246 0.2941,-0.5048 0.6444,-0.7518 0.4041,-0.2848 1.0372,-0.5277 1.9016,-0.6914 0.8644,-0.1638 1.9618,-0.2526 2.9066,-0.2567 z m -0.6153,4.6541 c 0.469,0.3276 0.791,0.6807 0.7388,1.2897 -0.027,0.3196 -0.1721,0.5604 -0.408,0.7568 -0.2358,0.1964 -0.5652,0.3433 -0.9465,0.4498 -0.7625,0.213 -1.7278,0.2653 -2.5515,0.2911 -2.1199,0.067 -3.2636,-0.3301 -3.6834,-0.7841 -0.2099,-0.227 -0.2503,-0.456 -0.1692,-0.6849 0.081,-0.229 0.2982,-0.4602 0.6326,-0.6394 0.8825,-0.4729 2.4136,-0.6474 4.3064,-0.6988 0.6938,-0.014 1.3877,-0.013 2.0808,0.02 z"
       id="path2157" />
    <path
       style="fill:url(#linearGradient2298);fill-opacity:1;stroke:#000000;stroke-width:0.13229167;stroke-linecap:butt;stroke-linejoin:miter;stroke-opacity:1"
       d="m 1391.7842,-1238.2928 3.2928,-2.7754 c 3.0024,-11.0899 10.8219,-20.6024 19.4755,-27.8209 -9.6723,6.8492 -17.2632,17.7032 -22.7683,30.5963 z"
       id="path1308" />
    <path
       id="path2184"
       style="fill:url(#linearGradient2327);fill-opacity:1;stroke:none;stroke-width:1"
       d="m 1260.1206,-1237.2443 c -0.088,5e-4 -0.1515,0 -0.17,0.01 -0.037,0.01 -0.1581,0.029 -0.2691,0.048 -0.2829,0.048 -0.7185,0.2194 -1.0114,0.3978 -0.1367,0.083 -0.3391,0.2301 -0.4498,0.3265 -0.2789,0.2427 -0.6276,0.6758 -0.8371,1.0397 -0.3209,0.5573 -0.5784,1.2821 -0.7132,2.0069 -0.1291,0.6946 -0.1723,1.6701 -0.1079,2.4354 0.04,0.4755 0.1427,1.0445 0.2707,1.4995 0.133,0.4726 0.3917,1.0794 0.6201,1.4542 0.2451,0.4023 0.6252,0.831 0.9699,1.0943 0.3552,0.2713 0.7111,0.4548 1.1056,0.57 0.3304,0.096 0.6753,0.1441 1.0215,0.1431 0.3923,-10e-4 0.7865,-0.064 1.1634,-0.19 0.3042,-0.1012 0.7743,-0.3627 1.0298,-0.5728 0.5652,-0.4646 1.0105,-1.1421 1.2945,-1.9696 0.1021,-0.2975 0.2293,-0.846 0.2871,-1.2376 0.058,-0.3944 0.082,-1.5528 0.041,-2.0392 -0.079,-0.9499 -0.2798,-1.8051 -0.5966,-2.5379 -0.271,-0.6268 -0.7372,-1.2756 -1.1977,-1.6671 -0.4088,-0.3476 -0.9131,-0.6015 -1.4456,-0.7281 -0.1876,-0.044 -0.4058,-0.068 -0.6912,-0.076 -0.1147,0 -0.2265,0 -0.3143,0 z m 40.5105,0 c -0.088,5e-4 -0.1516,0 -0.1701,0.01 -0.037,0.01 -0.158,0.029 -0.269,0.048 -0.2829,0.048 -0.7185,0.2194 -1.0114,0.3978 -0.1367,0.083 -0.3392,0.2301 -0.4499,0.3265 -0.2789,0.2427 -0.6276,0.6758 -0.8371,1.0397 -0.3208,0.5573 -0.5784,1.2822 -0.7131,2.0069 -0.1292,0.6947 -0.1724,1.6701 -0.108,2.4354 0.04,0.4755 0.1428,1.0445 0.2708,1.4995 0.133,0.4726 0.3917,1.0794 0.6201,1.4543 0.2451,0.4022 0.6251,0.8309 0.9699,1.0942 0.3552,0.2713 0.711,0.4548 1.1056,0.57 0.3304,0.096 0.6752,0.1441 1.0214,0.1431 0.3924,-10e-4 0.7865,-0.064 1.1635,-0.19 0.3042,-0.1013 0.7742,-0.3627 1.0297,-0.5728 0.5653,-0.4646 1.0106,-1.1421 1.2945,-1.9696 0.1021,-0.2975 0.2294,-0.846 0.2871,-1.2376 0.058,-0.3945 0.082,-1.5528 0.041,-2.0392 -0.079,-0.9499 -0.2798,-1.8051 -0.5967,-2.5379 -0.271,-0.6268 -0.7371,-1.2756 -1.1976,-1.6671 -0.4089,-0.3476 -0.9131,-0.6015 -1.4456,-0.7281 -0.1877,-0.044 -0.4058,-0.068 -0.6912,-0.076 -0.1147,0 -0.2266,0 -0.3143,0 z m -12.4218,0.025 c -0.1773,0 -0.3384,0.01 -0.4291,0.017 v 2e-4 c -0.4149,0.046 -1.3202,0.2492 -1.4462,0.3249 -0.058,0.035 -0.059,0.1231 -0.01,0.6796 0.021,0.231 0.065,0.8121 0.099,1.2913 0.033,0.4791 0.072,0.8887 0.086,0.9101 0.014,0.021 0.077,0.039 0.1402,0.039 0.063,0 0.1261,-0.017 0.1403,-0.039 0.014,-0.021 0.066,-0.2209 0.1143,-0.4434 0.1027,-0.4688 0.2732,-1.1005 0.3696,-1.3691 0.037,-0.1027 0.093,-0.2195 0.125,-0.2597 0.032,-0.04 0.1184,-0.1088 0.1923,-0.1522 0.2385,-0.1404 0.4609,-0.1981 0.8353,-0.2168 0.2705,-0.014 0.4028,-0.01 0.5784,0.035 0.1281,0.03 0.3222,0.1052 0.4435,0.1727 0.5211,0.2898 0.8054,0.9237 0.7586,1.6911 -0.01,0.1503 -0.042,0.3411 -0.08,0.462 -0.1217,0.3877 -0.4277,0.7929 -0.8698,1.152 -0.1169,0.095 -0.4969,0.3644 -0.8444,0.5988 -0.3475,0.2343 -0.7277,0.5056 -0.8449,0.6029 -0.2611,0.2166 -0.5677,0.5659 -0.7017,0.7993 -0.1304,0.2273 -0.2652,0.5709 -0.3234,0.8243 -0.029,0.1254 -0.052,0.3737 -0.06,0.6534 -0.01,0.3461 0,0.5162 0.032,0.7304 0.063,0.3854 0.1805,0.7204 0.3667,1.0424 0.3117,0.5388 0.7924,0.9416 1.4134,1.1844 0.462,0.1806 0.6043,0.2245 1.3959,0.2239 v 0 c 0.5717,0 0.7895,-0.036 1.0225,-0.08 0.39,-0.074 0.6849,-0.1615 0.7333,-0.2174 0.033,-0.038 0.034,-0.093 0.01,-0.3521 -0.016,-0.1687 -0.044,-0.7377 -0.062,-1.2644 -0.032,-0.9449 -0.033,-0.9579 -0.091,-0.9748 -0.032,-0.01 -0.093,-0.013 -0.1356,-0.01 -0.07,0.01 -0.084,0.034 -0.1648,0.2903 -0.2089,0.6638 -0.2633,0.8265 -0.3796,1.1348 -0.068,0.1793 -0.164,0.3784 -0.2141,0.4425 -0.1351,0.173 -0.325,0.2665 -0.6309,0.3108 -0.2074,0.03 -0.3103,0.03 -0.4934,-9e-4 -0.2783,-0.046 -0.5264,-0.1501 -0.7251,-0.3026 -0.3784,-0.2904 -0.6032,-0.8003 -0.6042,-1.3706 -6e-4,-0.3158 0.039,-0.5231 0.1518,-0.7899 0.074,-0.1749 0.1529,-0.2962 0.3162,-0.4843 0.242,-0.2789 0.4587,-0.4509 1.1326,-0.8989 0.5616,-0.3734 0.9051,-0.6316 1.1737,-0.8822 0.3792,-0.3538 0.663,-0.7638 0.8118,-1.1729 0.27,-0.7423 0.2508,-1.7691 -0.047,-2.495 -0.418,-1.0203 -1.2692,-1.6334 -2.5168,-1.8126 -0.1331,-0.019 -0.4734,-0.029 -0.7689,-0.027 z m 45.7617,0 c -0.1773,0 -0.3385,0.01 -0.4291,0.017 v 2e-4 c -0.4149,0.046 -1.3202,0.2492 -1.4462,0.3249 -0.058,0.035 -0.06,0.1231 -0.01,0.6796 0.021,0.231 0.065,0.8121 0.099,1.2913 0.033,0.4791 0.072,0.8887 0.086,0.9101 0.014,0.021 0.077,0.039 0.1401,0.039 0.063,0 0.1262,-0.017 0.1404,-0.039 0.014,-0.021 0.066,-0.2209 0.1143,-0.4434 0.1027,-0.4688 0.2732,-1.1005 0.3696,-1.3691 0.037,-0.1027 0.093,-0.2195 0.125,-0.2597 0.032,-0.04 0.1184,-0.1088 0.1923,-0.1522 0.2385,-0.1404 0.4609,-0.1981 0.8353,-0.2168 0.2705,-0.014 0.4028,-0.01 0.5785,0.035 0.128,0.03 0.3221,0.1052 0.4434,0.1727 0.5211,0.2898 0.8054,0.9237 0.7586,1.6911 -0.01,0.1503 -0.042,0.3411 -0.08,0.462 -0.1217,0.3877 -0.4276,0.7929 -0.8698,1.152 -0.1169,0.095 -0.4969,0.3644 -0.8444,0.5988 -0.3475,0.2343 -0.7277,0.5056 -0.8449,0.6029 -0.2611,0.2166 -0.5677,0.5659 -0.7017,0.7993 -0.1304,0.2273 -0.2652,0.5709 -0.3234,0.8243 -0.029,0.1254 -0.052,0.3737 -0.06,0.6534 -0.011,0.3461 0,0.5162 0.032,0.7304 0.063,0.3854 0.1805,0.7204 0.3667,1.0424 0.3117,0.5388 0.791,0.9394 1.4084,1.1943 0.527,0.2176 0.9541,0.2264 1.3675,0.2385 0.4134,0.012 0.7215,-0.023 1.0559,-0.1046 0.39,-0.074 0.6849,-0.1615 0.7333,-0.2175 0.033,-0.038 0.034,-0.093 0.01,-0.352 -0.016,-0.1688 -0.044,-0.7378 -0.062,-1.2645 -0.032,-0.9448 -0.033,-0.9579 -0.091,-0.9748 -0.032,-0.01 -0.094,-0.013 -0.1356,-0.01 -0.07,0.01 -0.084,0.034 -0.1647,0.2902 -0.209,0.6638 -0.2634,0.8266 -0.3797,1.1349 -0.068,0.1792 -0.164,0.3784 -0.2141,0.4425 -0.1351,0.173 -0.3249,0.2665 -0.6308,0.3108 -0.2075,0.03 -0.3104,0.03 -0.4934,-10e-4 -0.2784,-0.046 -0.5265,-0.15 -0.7252,-0.3025 -0.3784,-0.2905 -0.6032,-0.8003 -0.6042,-1.3706 -5e-4,-0.3159 0.039,-0.5231 0.1518,-0.7899 0.074,-0.1749 0.153,-0.2962 0.3162,-0.4843 0.242,-0.279 0.4586,-0.451 1.1325,-0.899 0.5616,-0.3733 0.9052,-0.6316 1.1738,-0.8821 0.3792,-0.3539 0.663,-0.7639 0.8118,-1.1729 0.2699,-0.7424 0.2507,-1.7691 -0.047,-2.495 -0.4181,-1.0204 -1.2692,-1.6334 -2.5167,-1.8127 -0.1332,-0.019 -0.4735,-0.029 -0.769,-0.027 z m -52.4643,3e-4 c -0.1773,0 -0.3385,0.01 -0.4291,0.016 -0.4149,0.046 -1.3202,0.2492 -1.4462,0.3249 -0.058,0.035 -0.059,0.123 -0.01,0.6795 0.021,0.2311 0.065,0.8122 0.099,1.2913 0.033,0.4792 0.072,0.8887 0.086,0.9101 0.014,0.021 0.077,0.039 0.1401,0.039 0.063,0 0.1261,-0.017 0.1403,-0.039 0.014,-0.021 0.066,-0.2209 0.1144,-0.4433 0.1026,-0.4689 0.2732,-1.1005 0.3696,-1.3691 0.037,-0.1027 0.093,-0.2196 0.125,-0.2598 0.032,-0.04 0.1184,-0.1087 0.1923,-0.1522 0.2385,-0.1403 0.4609,-0.198 0.8353,-0.2167 0.2705,-0.014 0.4029,-0.01 0.5785,0.035 0.1281,0.03 0.3221,0.1052 0.4434,0.1727 0.5211,0.2898 0.8054,0.9236 0.7585,1.691 -0.01,0.1503 -0.042,0.3412 -0.08,0.4621 -0.1217,0.3877 -0.4276,0.7929 -0.8697,1.152 -0.1169,0.095 -0.4969,0.3644 -0.8444,0.5987 -0.3475,0.2344 -0.7277,0.5057 -0.8449,0.6029 -0.2611,0.2167 -0.5677,0.5659 -0.7017,0.7993 -0.1304,0.2273 -0.2653,0.5709 -0.3235,0.8244 -0.029,0.1253 -0.052,0.3737 -0.06,0.6534 -0.01,0.346 0,0.5162 0.032,0.7304 0.063,0.3853 0.1805,0.7204 0.3667,1.0423 0.3117,0.5389 0.7923,0.9417 1.4134,1.1844 0.4619,0.1806 0.6043,0.2463 1.3959,0.2457 v 0 c 0.5717,-4e-4 0.7895,-0.058 1.0224,-0.1019 0.39,-0.074 0.685,-0.1615 0.7333,-0.2174 0.033,-0.038 0.035,-0.093 0.01,-0.3521 -0.016,-0.1687 -0.044,-0.7377 -0.062,-1.2644 -0.032,-0.9449 -0.033,-0.9579 -0.091,-0.9748 -0.032,-0.01 -0.093,-0.013 -0.1355,-0.01 -0.07,0.01 -0.084,0.034 -0.1647,0.2902 -0.2089,0.6639 -0.2635,0.8267 -0.3798,1.1349 -0.068,0.1793 -0.1639,0.3785 -0.214,0.4425 -0.1351,0.173 -0.325,0.2665 -0.6309,0.3108 -0.2074,0.03 -0.3104,0.03 -0.4934,-8e-4 -0.2783,-0.046 -0.5265,-0.15 -0.7251,-0.3025 -0.3784,-0.2905 -0.6031,-0.8003 -0.6042,-1.3706 -5e-4,-0.3159 0.039,-0.5231 0.1518,-0.7899 0.074,-0.1749 0.1529,-0.2962 0.3162,-0.4843 0.242,-0.279 0.4586,-0.451 1.1325,-0.899 0.5616,-0.3733 0.9052,-0.6315 1.1738,-0.8821 0.3793,-0.3538 0.663,-0.7639 0.8118,-1.1729 0.2699,-0.7424 0.2508,-1.7691 -0.047,-2.495 -0.418,-1.0204 -1.2692,-1.6334 -2.5167,-1.8127 -0.1332,-0.019 -0.4735,-0.029 -0.769,-0.027 z m 30.4341,0.1792 -0.065,0.1197 v 3e-4 c -0.036,0.066 -0.12,0.2456 -0.1868,0.3995 -0.1763,0.4059 -0.5211,1.1269 -0.8461,1.7691 -0.2229,0.4405 -1.776,3.4114 -3.0581,5.8496 l -0.1635,0.3112 -0.019,-0.2489 c -0.01,-0.137 -0.027,-1.2152 -0.037,-2.3961 -0.022,-2.7002 0.032,-4.7882 0.1279,-4.922 0.049,-0.069 0.2871,-0.1982 0.7302,-0.3975 l 0.3983,-0.1792 -0.01,-0.1287 c -0.01,-0.1176 -0.014,-0.1282 -0.079,-0.1232 -0.039,0 -0.3153,0.02 -0.6136,0.039 -0.8382,0.052 -1.1317,0.047 -2.423,-0.04 -0.059,0 -0.068,0.01 -0.075,0.107 0,0.064 0.01,0.1257 0.027,0.1449 0.019,0.018 0.1742,0.098 0.3444,0.1769 0.4161,0.193 0.5901,0.2979 0.6508,0.3924 0.098,0.1528 0.1134,0.7926 0.1147,4.8394 v 3.7982 l -0.075,0.1317 c -0.095,0.166 -0.3152,0.3315 -0.6702,0.5036 -0.1523,0.074 -0.2861,0.149 -0.2974,0.1672 -0.011,0.018 -0.017,0.075 -0.013,0.1265 l 0.01,0.093 h 0.2018 c 0.111,0 0.7164,-0.014 1.3453,-0.027 0.8953,-0.018 1.1563,-0.032 1.2024,-0.065 0.033,-0.024 0.14,-0.2345 0.2468,-0.4866 0.1033,-0.2442 0.2811,-0.633 0.395,-0.864 0.294,-0.5962 2.9455,-5.7344 2.9785,-5.7719 0.019,-0.021 0.022,0.7902 0.01,2.5203 -0.018,2.7079 -0.048,3.7192 -0.1103,3.8308 -0.043,0.075 -0.3884,0.288 -0.7806,0.4797 -0.148,0.072 -0.2841,0.1454 -0.3026,0.1624 -0.018,0.017 -0.034,0.08 -0.034,0.1389 v 0.108 l 0.3834,-0.026 c 0.4963,-0.034 1.9804,-0.034 2.4216,0 l 0.3431,0.026 -5e-4,-0.1198 -4e-4,-0.1199 -0.4234,-0.2385 c -0.2737,-0.1543 -0.4555,-0.2773 -0.5143,-0.3481 -0.084,-0.101 -0.093,-0.1305 -0.1135,-0.3837 -0.056,-0.6893 -0.081,-2.609 -0.074,-5.8593 l 0.01,-3.1826 c 0.02,0.024 0.047,0.045 0.081,0.061 0.3558,0.1685 0.6022,0.3268 0.725,0.4659 0.1287,0.1458 0.1432,0.1813 0.383,0.9296 0.5052,1.5761 1.7222,5.5829 2.4099,7.9342 0.1452,0.4963 0.2755,0.9198 0.2896,0.9412 0.019,0.029 0.1636,0.039 0.5572,0.039 0.3926,0 0.5387,-0.01 0.5591,-0.039 0.015,-0.021 0.1873,-0.6269 0.3825,-1.3457 0.1951,-0.7187 0.53,-1.9356 0.7443,-2.7042 0.4532,-1.6259 1.5287,-5.3578 1.598,-5.5446 0.072,-0.1946 0.227,-0.3459 0.5099,-0.4983 0.2753,-0.1482 0.3802,-0.2018 0.4201,-0.248 0.032,0.042 0.1103,0.082 0.3229,0.1844 0.4131,0.1995 0.6122,0.3272 0.6841,0.4384 0.054,0.084 0.055,0.1107 0.055,4.3374 0,2.339 -0.01,4.2908 -0.021,4.3373 -0.011,0.047 -0.054,0.1211 -0.094,0.1657 -0.085,0.093 -0.4296,0.2997 -0.753,0.4514 l -0.222,0.1039 v 0.1208 0.1208 l 0.4372,-0.026 c 0.5604,-0.033 2.3433,-0.033 2.9479,0 l 0.4658,0.025 -0.01,-0.1285 -0.01,-0.1285 -0.3521,-0.1632 c -0.4165,-0.193 -0.6219,-0.3216 -0.6954,-0.4354 -0.051,-0.079 -0.055,-0.1559 -0.077,-1.4904 -0.023,-1.4207 0,-6.8787 0.025,-7.0922 0.015,-0.1091 0.022,-0.1167 0.1403,-0.14 0.069,-0.014 0.5483,-0.025 1.0663,-0.025 1.1168,0 1.2066,0.014 1.3722,0.2153 0.1277,0.1552 0.3309,0.6181 0.5814,1.3248 l 0.182,0.5134 h 0.1161 0.1161 v -0.3267 c 0,-0.1797 -0.017,-0.8307 -0.038,-1.4468 -0.024,-0.7194 -0.048,-1.133 -0.067,-1.1559 -0.022,-0.026 -0.1864,-0.029 -0.6217,-0.011 -0.3256,0.014 -1.379,0.035 -2.3409,0.046 -1.1471,0.014 -1.9758,0.01 -2.4081,-0.013 -0.3626,-0.019 -0.6925,-0.042 -0.7332,-0.052 -0.039,-0.01 -0.064,-0.01 -0.078,0.01 -0.012,0 -0.028,0 -0.051,-5e-4 -0.4295,0.033 -1.4058,0.072 -1.8008,0.072 -0.3959,0 -1.5518,-0.047 -1.7741,-0.072 -0.074,-0.01 -0.1147,0.082 -0.083,0.1837 0.022,0.07 0.084,0.1122 0.3914,0.262 0.3741,0.1825 0.4768,0.2448 0.5829,0.3532 0.089,0.091 0.079,0.2639 -0.049,0.7769 -0.1322,0.5328 -0.3728,1.4291 -0.3884,1.4471 -0.023,0.026 -2.2983,0.039 -2.6501,0.014 l -0.3632,-0.025 -0.1399,-0.4825 c -0.1752,-0.6042 -0.3577,-1.4064 -0.3578,-1.5735 -3e-4,-0.2003 0.094,-0.2732 0.7208,-0.559 l 0.3309,-0.1508 -0.01,-0.1262 c -0.01,-0.1131 -0.015,-0.1256 -0.075,-0.1207 -0.037,0 -0.4031,0.023 -0.8137,0.045 -0.5899,0.031 -0.8816,0.032 -1.3904,0 -0.3542,-0.021 -0.6622,-0.045 -0.6843,-0.055 -0.016,-0.01 -0.034,-8e-4 -0.05,0.016 l 10e-5,-0.045 -0.4755,-0.01 z m 29.108,0.039 c -0.01,-10e-5 -0.019,0 -0.03,0.01 -0.033,0.01 -0.3892,0.036 -0.7912,0.056 -0.573,0.03 -0.8795,0.03 -1.4183,0 -0.378,-0.021 -0.7057,-0.046 -0.7284,-0.056 -0.024,-0.01 -0.048,0 -0.057,0.029 v 0 c -0.01,0.026 -0.012,0.091 -0.01,0.145 0.01,0.094 0.024,0.1063 0.3645,0.2811 0.3871,0.1988 0.5658,0.3253 0.6368,0.4506 0.035,0.061 0.065,0.305 0.1252,1.0207 0.076,0.8962 0.2193,2.7679 0.307,4.005 0.1268,1.7894 0.203,3.4493 0.1662,3.6189 -0.025,0.1149 -0.1628,0.2881 -0.3091,0.3883 -0.068,0.046 -0.2387,0.1409 -0.3798,0.2099 l -0.2565,0.1254 -0.01,0.12 -0.01,0.1201 0.2642,-0.019 c 0.1453,-0.011 0.7666,-0.027 1.3808,-0.037 0.6141,-0.01 1.1425,-0.024 1.1742,-0.031 0.032,-0.01 0.066,-0.038 0.076,-0.068 0.01,-0.03 0.1015,-0.3774 0.2028,-0.7718 0.278,-1.0826 0.7344,-2.7154 1.1522,-4.1214 0.4859,-1.6355 0.6592,-2.1867 0.6913,-2.1988 0.029,-0.011 0.1442,0.3337 0.6605,1.9703 0.3895,1.2346 0.8785,2.8963 1.2395,4.2113 0.1339,0.4877 0.2606,0.9091 0.2815,0.9363 0.033,0.043 0.1924,0.053 1.2419,0.074 0.6621,0.014 1.3006,0.026 1.419,0.028 h 0.2153 l 0.01,-0.102 c 0.01,-0.1 0,-0.1046 -0.2019,-0.2123 -0.3293,-0.1729 -0.5761,-0.3227 -0.6745,-0.4096 -0.1394,-0.1228 -0.168,-0.2154 -0.168,-0.5425 0,-0.954 0.431,-7.8433 0.5119,-8.1826 0.04,-0.1659 0.2256,-0.3394 0.5764,-0.5374 0.1651,-0.093 0.3336,-0.1842 0.3744,-0.2021 0.067,-0.03 0.073,-0.045 0.066,-0.1649 -0.01,-0.1193 -0.015,-0.1319 -0.076,-0.1277 -0.5439,0.037 -1.4371,0.073 -1.8296,0.073 -0.5336,-2e-4 -1.6339,-0.05 -1.7555,-0.08 -0.062,-0.015 -0.078,0 -0.1003,0.062 -0.048,0.1467 8e-4,0.2121 0.2316,0.3093 0.3593,0.1512 0.7501,0.3818 0.8276,0.4883 0.067,0.092 0.071,0.114 0.058,0.3207 -0.01,0.1222 -0.02,0.3971 -0.029,0.611 -0.022,0.5628 -0.161,3.0136 -0.27,4.745 -0.105,1.6676 -0.1405,2.1657 -0.1555,2.183 -0.034,0.039 -1.7905,-5.6696 -2.4028,-7.8082 l -0.2387,-0.8335 -0.1982,0.01 -0.1982,0.01 -0.3605,1.2291 c -0.5397,1.8407 -0.9453,3.1857 -1.3419,4.4494 -0.4363,1.3903 -0.9594,2.9924 -0.9722,2.9776 -0.014,-0.017 -0.1103,-1.7025 -0.171,-3.0087 -0.072,-1.5387 -0.129,-3.0683 -0.1517,-4.0353 -0.016,-0.6761 -0.013,-0.7937 0.023,-0.8565 0.049,-0.086 0.2334,-0.1952 0.7063,-0.4163 0.2845,-0.133 0.3523,-0.1768 0.3661,-0.2366 0.01,-0.04 0.01,-0.106 -0.01,-0.146 -0.013,-0.042 -0.028,-0.06 -0.053,-0.06 z m -89.1247,0 c -0.011,0 -0.023,0 -0.039,0.01 -0.122,0.03 -1.248,0.079 -1.8093,0.079 -0.5525,0 -1.6837,-0.05 -1.8096,-0.08 -0.051,-0.012 -0.079,0 -0.089,0.028 h -3e-4 c -0.01,0.025 -0.012,0.091 -0.01,0.1464 0.01,0.098 0.017,0.1036 0.3237,0.2339 0.3761,0.1595 0.6308,0.3112 0.6859,0.4083 0.031,0.055 0.045,0.2484 0.063,0.873 0.03,1.0253 0.03,6.277 8e-4,7.1912 -0.02,0.6191 -0.028,0.7043 -0.075,0.7779 -0.077,0.1198 -0.2488,0.234 -0.6563,0.4361 l -0.3602,0.1786 -0.01,0.1174 -0.01,0.1173 0.4525,-0.026 c 0.5785,-0.033 1.9227,-0.032 3.0757,0 0.7973,0.024 0.9388,0.02 1.2244,-0.028 0.4411,-0.074 0.7289,-0.1733 1.0628,-0.3652 0.2336,-0.1344 0.3203,-0.2057 0.5007,-0.4123 0.181,-0.2071 0.2394,-0.3001 0.3423,-0.5453 0.16,-0.3813 0.2112,-0.6732 0.2099,-1.1979 0,-0.4449 -0.043,-0.7501 -0.1494,-1.1036 -0.1418,-0.4691 -0.4271,-0.9055 -0.7865,-1.203 -0.1667,-0.138 -0.6054,-0.3937 -0.7426,-0.4328 -0.041,-0.012 -0.074,-0.036 -0.074,-0.054 0,-0.05 1.0573,-2.3729 1.5819,-3.4762 0.2588,-0.5441 0.3921,-0.782 0.5145,-0.9179 0.046,-0.051 0.2443,-0.1843 0.4401,-0.2956 0.331,-0.1881 0.3565,-0.2088 0.363,-0.2956 0,-0.051 0,-0.1089 -0.014,-0.1279 -0.015,-0.025 -0.1121,-0.027 -0.3433,-0.01 -0.1776,0.015 -0.7139,0.038 -1.1917,0.05 l -0.8689,0.023 -0.3832,0.9335 c -0.4254,1.0361 -0.9045,2.1225 -1.3721,3.1114 l -0.309,0.6534 -0.4063,0.01 -0.4062,0.01 v -1.4426 c 0,-0.7935 0.01,-1.6795 0.018,-1.9689 l 0.018,-0.5261 0.089,-0.098 c 0.091,-0.1 0.3217,-0.2235 0.7487,-0.4011 0.2591,-0.1078 0.3055,-0.1643 0.2566,-0.313 -0.016,-0.05 -0.03,-0.068 -0.062,-0.068 z m -13.0044,2e-4 c -0.02,0 -0.035,0.01 -0.041,0.012 -0.028,0.033 -0.027,0.2595 9e-4,0.3072 0.012,0.02 0.2513,0.1342 0.5323,0.2535 0.281,0.1193 0.5788,0.2542 0.6617,0.2998 0.2795,0.1537 0.2553,-0.028 0.2767,2.0928 0.024,2.4059 0.024,6.7904 0,8.8762 -0.015,1.2944 -0.027,1.6411 -0.058,1.6855 -0.065,0.092 -0.3124,0.2174 -0.8814,0.4476 -0.4653,0.1883 -0.5422,0.2296 -0.5648,0.3028 -0.014,0.047 -0.017,0.1275 -0.01,0.1796 0.019,0.09 0.027,0.094 0.1487,0.074 0.2652,-0.043 2.1503,-0.097 2.6272,-0.076 0.273,0.012 0.805,0.046 1.1823,0.076 0.447,0.035 0.8666,0.053 1.2219,0.053 h 3e-4 c 0.3553,3e-4 0.6463,-0.017 0.8362,-0.053 0.9705,-0.18 1.6722,-0.6515 2.1048,-1.414 0.18,-0.3172 0.2991,-0.6353 0.3916,-1.0459 0.05,-0.2208 0.068,-0.4194 0.079,-0.8756 0.017,-0.6532 -0.016,-1.0733 -0.1237,-1.57 -0.1518,-0.7033 -0.3942,-1.2342 -0.7808,-1.7108 -0.1405,-0.1731 -0.3506,-0.3918 -0.467,-0.486 -0.5966,-0.4825 -1.2854,-0.7423 -2.1981,-0.8292 -0.3355,-0.032 -1.4202,-0.021 -1.6262,0.017 l -0.08,0.015 v -1.1889 c 0,-1.7655 0.044,-4.3302 0.07,-4.3998 0.038,-0.1032 0.2418,-0.2161 0.818,-0.4528 0.305,-0.1253 0.571,-0.2439 0.5912,-0.2635 0.048,-0.046 0.048,-0.2893 0,-0.3096 -0.02,-0.01 -0.1941,0 -0.3868,0.011 -0.736,0.056 -2.3475,0.073 -3.255,0.035 -0.5057,-0.022 -0.9592,-0.047 -1.0076,-0.058 -0.024,-0.01 -0.049,-0.01 -0.069,-0.01 z m 53.4344,0 c -0.03,0 -0.047,0.01 -0.055,0.034 -0.01,0.025 -0.011,0.091 -0.01,0.1447 0.01,0.095 0.021,0.1041 0.3072,0.2336 0.3989,0.1803 0.5996,0.3011 0.697,0.4197 l 0.081,0.098 v 4.2997 c 0,4.0396 0,4.3056 -0.047,4.3993 -0.06,0.1263 -0.3084,0.2957 -0.7264,0.495 l -0.3161,0.1507 v 0.1197 0.1198 l 0.4372,-0.026 c 0.5644,-0.033 2.4089,-0.033 2.9732,0 l 0.4372,0.026 v -0.1076 c 0,-0.059 -0.015,-0.121 -0.034,-0.1375 -0.019,-0.016 -0.1467,-0.082 -0.2848,-0.1448 -0.3405,-0.1555 -0.5764,-0.2911 -0.6795,-0.3907 -0.072,-0.069 -0.09,-0.114 -0.108,-0.2681 -0.012,-0.1019 -0.03,-1.3193 -0.038,-2.7055 -0.018,-2.7849 0.013,-5.7795 0.061,-5.8807 0.045,-0.095 0.2775,-0.2398 0.7016,-0.4372 l 0.3848,-0.1789 -0.01,-0.1276 c -0.01,-0.1143 -0.015,-0.127 -0.075,-0.1228 -0.4907,0.035 -1.478,0.073 -1.8757,0.073 -0.5393,-4e-4 -1.6674,-0.051 -1.7904,-0.08 -0.013,0 -0.024,0 -0.034,-0.01 z m 35.6073,0 c -0.03,0 -0.047,0.01 -0.055,0.034 -0.01,0.025 -0.011,0.091 -0.01,0.1447 0.01,0.095 0.021,0.1041 0.3073,0.2336 0.3988,0.1803 0.5995,0.3011 0.6968,0.4197 l 0.081,0.098 v 4.2997 c 0,4.0396 0,4.3056 -0.047,4.3993 -0.06,0.1263 -0.3084,0.2957 -0.7264,0.495 l -0.3162,0.1507 v 0.1197 0.1198 l 0.4372,-0.026 c 0.5644,-0.033 2.4089,-0.033 2.9732,0 l 0.4373,0.026 v -0.1076 c 0,-0.059 -0.015,-0.121 -0.034,-0.1375 -0.018,-0.016 -0.1466,-0.082 -0.2848,-0.1448 -0.3404,-0.1555 -0.5763,-0.2911 -0.6794,-0.3907 -0.072,-0.069 -0.09,-0.114 -0.1081,-0.2681 -0.012,-0.1019 -0.029,-1.3193 -0.038,-2.7055 -0.018,-2.7849 0.013,-5.7795 0.061,-5.8807 0.045,-0.095 0.2774,-0.2398 0.7016,-0.4372 l 0.3848,-0.1789 -0.01,-0.1276 c -0.01,-0.1143 -0.015,-0.127 -0.075,-0.1228 -0.4907,0.035 -1.478,0.073 -1.8757,0.073 -0.5393,-4e-4 -1.6674,-0.051 -1.7904,-0.08 -0.013,0 -0.024,0 -0.034,-0.01 z m -62.7168,0 c -0.03,0 -0.047,0.01 -0.055,0.034 -0.01,0.025 -0.011,0.091 -0.01,0.1458 0.01,0.096 0.019,0.1042 0.2844,0.2191 0.3885,0.1684 0.6,0.2905 0.6888,0.3978 l 0.076,0.092 0.023,0.8041 c 0.03,1.0271 0.03,6.2783 7e-4,7.1935 -0.02,0.619 -0.028,0.7043 -0.075,0.7779 -0.077,0.1197 -0.2488,0.2339 -0.6563,0.436 l -0.3601,0.1786 -0.01,0.1177 -0.01,0.1176 0.439,-0.026 c 0.4855,-0.029 3.2338,-0.035 4.7441,-0.01 l 0.9686,0.016 0.017,-0.6068 c 0.01,-0.3337 0.021,-0.8798 0.027,-1.2135 l 0.01,-0.6067 h -0.1046 c -0.065,0 -0.1133,0.018 -0.1274,0.047 -0.012,0.026 -0.087,0.223 -0.1657,0.4386 -0.1634,0.4476 -0.3485,0.8384 -0.4568,0.9643 -0.1287,0.1497 -0.2774,0.1682 -1.3518,0.1683 -0.5328,0 -1.0251,-0.011 -1.0941,-0.025 -0.078,-0.015 -0.1319,-0.044 -0.1427,-0.077 -0.01,-0.029 -0.025,-0.9053 -0.034,-1.9482 l -0.016,-1.8962 0.8856,0.022 c 0.487,0.012 0.9595,0.036 1.0501,0.054 0.091,0.018 0.2017,0.059 0.2472,0.091 0.1056,0.074 0.2369,0.3862 0.3921,0.9313 0.064,0.2249 0.1286,0.4232 0.1437,0.4406 0.015,0.017 0.074,0.027 0.1319,0.022 l 0.1044,-0.01 v -0.28 c 0,-0.4958 0,-3.3563 0,-3.4823 0,-0.1072 -0.01,-0.1247 -0.068,-0.1444 -0.1432,-0.045 -0.1808,0.015 -0.321,0.5065 -0.1543,0.5413 -0.2632,0.8039 -0.3695,0.8914 -0.043,0.035 -0.1308,0.08 -0.1959,0.1 -0.072,0.022 -0.4807,0.042 -1.0534,0.051 l -0.935,0.015 v -0.8668 c 0,-0.4766 0.011,-1.3895 0.021,-2.0285 l 0.019,-1.1618 0.066,-0.06 c 0.094,-0.085 0.3454,-0.2224 0.7296,-0.3983 l 0.332,-0.1521 v -0.1355 c 0,-0.1251 -0.01,-0.1351 -0.067,-0.1306 -0.4539,0.033 -1.5178,0.073 -1.9336,0.073 -0.5515,-3e-4 -1.6315,-0.049 -1.7593,-0.08 -0.013,0 -0.024,0 -0.034,-0.01 z m 6.7878,0 c -0.03,0 -0.047,0.01 -0.055,0.034 -0.01,0.025 -0.012,0.091 -0.01,0.1447 0.01,0.096 0.02,0.1039 0.3958,0.2818 0.423,0.2002 0.5683,0.2966 0.6413,0.4254 0.045,0.08 0.048,0.3168 0.048,4.3328 0,2.3367 -0.01,4.2867 -0.021,4.3332 -0.011,0.047 -0.054,0.1211 -0.094,0.1656 -0.085,0.093 -0.4296,0.2998 -0.7531,0.4514 l -0.222,0.1041 v 0.1216 0.1216 l 0.222,-0.018 c 0.5175,-0.043 3.059,-0.055 4.4557,-0.022 1.029,0.025 1.4995,0.026 1.5228,0 0.025,-0.024 0.04,-0.3007 0.056,-1.0514 0.012,-0.5605 0.023,-1.0962 0.024,-1.1903 v -0.1711 h -0.1201 c -0.1193,0 -0.1207,0 -0.1729,0.1555 -0.2336,0.6906 -0.3614,0.993 -0.5317,1.2584 -0.024,0.038 -0.097,0.092 -0.1615,0.1199 -0.099,0.043 -0.2822,0.052 -1.1932,0.062 -0.592,0.01 -1.1503,0 -1.2408,-0.01 l -0.1645,-0.02 -0.017,-0.4881 c -0.01,-0.2684 -0.025,-1.0936 -0.034,-1.8338 l -0.018,-1.3456 h 0.5085 c 0.765,0 1.6796,0.05 1.7865,0.093 0.052,0.021 0.1291,0.075 0.1718,0.1194 0.099,0.1037 0.2301,0.433 0.3541,0.8885 0.096,0.3514 0.099,0.3582 0.1877,0.3774 0.05,0.011 0.1043,0.01 0.1216,0 0.024,-0.017 0.027,-0.351 0.015,-1.3488 -0.01,-0.7294 -0.01,-1.5679 0,-1.8633 0.011,-0.2954 0.016,-0.5509 0.012,-0.5678 -0.013,-0.046 -0.2085,-0.037 -0.2429,0.011 -0.016,0.023 -0.085,0.2267 -0.1517,0.453 -0.1384,0.4672 -0.2483,0.7357 -0.3404,0.8313 -0.1354,0.1407 -0.1941,0.1478 -1.3362,0.1605 l -1.0848,0.012 0.016,-1.3793 c 0.01,-0.7586 0.023,-1.6896 0.032,-2.0689 0.015,-0.6707 0.017,-0.6901 0.073,-0.7081 0.032,-0.01 0.3197,-0.035 0.6401,-0.055 0.437,-0.027 0.7295,-0.027 1.1705,0 0.5776,0.034 0.8433,0.083 0.968,0.1775 0.082,0.062 0.3059,0.5848 0.4537,1.0581 0.2044,0.6545 0.1821,0.6119 0.3157,0.6007 l 0.1151,-0.01 v -0.2178 c 0,-0.1198 -0.012,-0.7196 -0.024,-1.3328 -0.022,-1.0828 -0.024,-1.1161 -0.078,-1.1559 -0.045,-0.033 -0.1754,-0.036 -0.6482,-0.016 -0.3255,0.014 -1.3971,0.035 -2.3812,0.046 -1.1767,0.014 -2.0149,0.01 -2.4485,-0.013 -0.3625,-0.019 -0.6925,-0.042 -0.7332,-0.052 -0.013,0 -0.024,0 -0.034,-0.01 z m -11.5414,0.5257 c 0.1092,10e-4 0.2208,0.015 0.334,0.043 0.3934,0.096 0.7655,0.3893 1.0215,0.8067 0.2307,0.376 0.4252,0.9138 0.5496,1.5196 0.1639,0.7983 0.2381,1.9746 0.1926,3.0546 -0.065,1.5323 -0.2819,2.5391 -0.7026,3.2562 -0.056,0.096 -0.1864,0.2643 -0.2894,0.3746 -0.2953,0.3162 -0.627,0.4755 -1.0676,0.5128 -0.035,0 -0.069,0 -0.1036,0 -0.2416,0 -0.4815,-0.066 -0.7171,-0.1997 -0.1493,-0.085 -0.2542,-0.1766 -0.4035,-0.3524 -0.4222,-0.497 -0.7102,-1.273 -0.8597,-2.3159 -0.03,-0.2067 -0.067,-0.5229 -0.082,-0.7026 -0.037,-0.4241 -0.037,-1.6909 0,-2.1651 0.059,-0.7648 0.1962,-1.5295 0.3677,-2.0495 0.1978,-0.5996 0.3998,-0.9714 0.7056,-1.2989 0.3037,-0.3251 0.6643,-0.4905 1.0545,-0.4874 z m 40.5104,0 c 0.1093,10e-4 0.2209,0.015 0.3341,0.043 0.3933,0.096 0.7654,0.3893 1.0214,0.8067 0.2307,0.376 0.4252,0.9138 0.5497,1.5196 0.1639,0.7983 0.2381,1.9746 0.1925,3.0546 -0.065,1.5323 -0.2818,2.5391 -0.7025,3.2562 -0.056,0.096 -0.1864,0.2643 -0.2895,0.3746 -0.2953,0.3162 -0.627,0.4755 -1.0676,0.5128 -0.034,0 -0.069,0 -0.1036,0 -0.2415,0 -0.4815,-0.066 -0.717,-0.1997 -0.1494,-0.085 -0.2542,-0.1766 -0.4036,-0.3524 -0.4222,-0.497 -0.7102,-1.273 -0.8596,-2.3159 -0.03,-0.2067 -0.067,-0.5229 -0.082,-0.7026 -0.037,-0.4241 -0.036,-1.6909 0,-2.1651 0.059,-0.7648 0.1962,-1.5295 0.3677,-2.0495 0.1978,-0.5996 0.3998,-0.9714 0.7057,-1.2989 0.3037,-0.3251 0.6642,-0.4905 1.0544,-0.4874 z m 14.5609,3.3561 h 1.3133 1.3134 l -0.6213,2.2533 c -0.3417,1.2393 -0.6281,2.2612 -0.6366,2.271 -0.01,0.01 -0.223,-0.6786 -0.4766,-1.5298 -0.2537,-0.8512 -0.5583,-1.8732 -0.6768,-2.2711 z m -64.706,1.6491 h 0.3462 c 0.1905,0 0.4538,0.021 0.5852,0.047 0.1315,0.026 0.2995,0.07 0.3735,0.097 0.4274,0.1578 0.7893,0.5015 0.9655,0.9171 0.054,0.1262 0.1234,0.3415 0.1552,0.4784 0.047,0.2032 0.058,0.3403 0.06,0.7468 0,0.5441 -0.03,0.7533 -0.1637,1.0734 -0.084,0.2007 -0.3173,0.4958 -0.4786,0.6051 -0.1994,0.1351 -0.5049,0.2346 -0.8029,0.2615 -0.067,0.01 -0.1502,0.01 -0.2392,0.01 -0.267,0 -0.5896,-0.019 -0.7177,-0.051 l -0.083,-0.021 v -2.0822 z m -8.7002,1.9248 h 0.4391 c 0.2415,0 0.5645,0.016 0.718,0.036 0.3839,0.05 0.6781,0.1443 0.9707,0.3104 0.197,0.1118 0.2971,0.1984 0.486,0.4199 0.1941,0.2276 0.263,0.3388 0.3741,0.6035 0.2287,0.5446 0.3109,1.0505 0.3107,1.9106 0,0.5937 -0.047,1.0185 -0.1594,1.4329 -0.1902,0.7033 -0.6078,1.1749 -1.2146,1.3714 -0.1546,0.05 -0.306,0.061 -0.8591,0.061 -0.3693,0 -0.76,-0.013 -0.8684,-0.028 l -0.1971,-0.028 v -3.0445 z" />
  </g>
</svg>
