<svg id="Layer_1" data-name="Layer 1" xmlns="http://www.w3.org/2000/svg" viewBox="0 0 489.67 225.54"><title>Nordic Journal of Art and Research</title><path d="M133.57,169.46l-2.46-24-25.5-8.45L80.1,145.5l-2.45,24H56.14l25-57.46L87,67.29l18.59-11.21L124.2,67.29,130,112l25,57.46Zm-4.45-42.71-1.39-13.52-22.12-48.7-22.13,48.7L82.1,126.75l23.51,7.84Z"/><path d="M201,169.46l-9.68-15.82-8.76,15.82H170.44l-2.92-9.37-10.6-4.61V143.35l9.53-3.08,4.92-11.67-14.6-15.21h39.79v12.29l-27.35-12.14,16.29,27.81,7.07,7.22,6.14-13.06h12.14l-16.75,14.6,19.05,19.35ZM190.26,151.8l-5.68-9.53-5.23-5.53-12,4.45-4.45,8.61,5.37,9.52,9.22,3.84Z"/><path d="M304.11,169.46H282.6l-19.21-29L229.65,115,239,169.46H217.45L227,113.39l-9.53-56.08H239l10.3,8.6,50.85,10.76V98.18l-38.25,6.91-13.37,8.3,16.9,25.5Zm-74.52-56.84,31-9.37,22.43-15.06L248.18,67.6l-10.45-3.53Z"/><path d="M321.08,72.06v8.78h-1.44V70.56h2.12l4.7,8.75V70.56h1.45V80.84h-2.12Z"/><path d="M333.52,81a4,4,0,1,1,3.66-4A3.63,3.63,0,0,1,333.52,81Zm2.29-4c0-2-1.12-2.83-2.29-2.83s-2.28.75-2.28,2.83,1.12,2.84,2.28,2.84S335.81,79,335.81,77.05Z"/><path d="M342,74.5c-1.19,0-1.79.67-1.79,2.34v4h-1.29V73.21h1.27v1.33a2.3,2.3,0,0,1,2.15-1.37h.39v1.38A7.13,7.13,0,0,0,342,74.5Z"/><path d="M350.58,70.56V80.84h-1.3V79.69A2.67,2.67,0,0,1,346.79,81c-1.75,0-3.26-1.45-3.26-4s1.51-4,3.26-4a2.67,2.67,0,0,1,2.49,1.34V70.56Zm-5.65,6.49c0,1.82.87,2.87,2.18,2.87,1.15,0,2.23-.85,2.23-2.87s-1.08-2.86-2.23-2.86C345.8,74.19,344.93,75.24,344.93,77.05Z"/><path d="M354.12,72.12h-1.29V70.56h1.29Zm0,8.72h-1.29V73.21h1.29Z"/><path d="M361.43,75.76a2,2,0,0,0-2-1.54c-1.15,0-2.2.89-2.2,2.81s1.06,2.86,2.2,2.86a2,2,0,0,0,2-1.53h1.34A3.41,3.41,0,0,1,359.41,81c-2.18,0-3.56-1.66-3.56-4a3.66,3.66,0,0,1,3.69-4,3.17,3.17,0,0,1,3.19,2.68Z"/><path d="M373.66,70.56v7c0,2.24-1.22,3.45-3.24,3.45s-3.22-1.14-3.22-3.37h1.35a1.92,1.92,0,0,0,1.87,2.19c.84,0,1.79-.43,1.79-2.28v-7Z"/><path d="M379.27,81a4,4,0,1,1,3.66-4A3.63,3.63,0,0,1,379.27,81Zm2.29-4c0-2-1.12-2.83-2.29-2.83S377,75,377,77.05s1.12,2.84,2.28,2.84S381.56,79,381.56,77.05Z"/><path d="M387,81c-1.77,0-2.44-1.2-2.44-2.94V73.21h1.29v4.5c0,1.17.2,2.2,1.6,2.2,1.22,0,1.95-.87,1.95-2.5v-4.2h1.29v7.63h-1.29V79.75A2.58,2.58,0,0,1,387,81Z"/><path d="M396,74.5c-1.19,0-1.78.67-1.78,2.34v4H393V73.21h1.27v1.33a2.3,2.3,0,0,1,2.15-1.37h.39v1.38A6.92,6.92,0,0,0,396,74.5Z"/><path d="M402,73.08c1.85,0,2.51,1.19,2.51,2.94v4.82h-1.29V76.4c0-1.18-.2-2.2-1.67-2.2-1.25,0-2,.87-2,2.5v4.14h-1.29V73.21h1.29v1.15A2.67,2.67,0,0,1,402,73.08Z"/><path d="M411.33,76.15V76c0-1.39-.78-1.86-1.73-1.86a1.56,1.56,0,0,0-1.74,1.52h-1.33a2.89,2.89,0,0,1,3.06-2.57c2.1,0,3.05,1,3,3.15l0,1.76a14.48,14.48,0,0,0,.2,2.88h-1.3a6.43,6.43,0,0,1-.1-1A2.75,2.75,0,0,1,408.8,81c-1.44,0-2.63-.8-2.63-2.2C406.17,77,408.2,76.5,411.33,76.15ZM407.6,78.8c0,.72.56,1.2,1.48,1.2a2.12,2.12,0,0,0,2.35-2.35v-.48C409.09,77.41,407.6,77.75,407.6,78.8Z"/><path d="M414.77,80.84V70.56h1.29V80.84Z"/><path d="M425.05,81a4,4,0,1,1,3.66-4A3.63,3.63,0,0,1,425.05,81Zm2.29-4c0-2-1.12-2.83-2.29-2.83s-2.28.75-2.28,2.83,1.12,2.84,2.28,2.84S427.34,79,427.34,77.05Z"/><path d="M432.93,70.56h.66v1.08H433c-.68,0-.79.15-.79,1v.62h1.43v1h-1.43v6.59h-1.29V74.25h-1.06v-1h1.06v-.55C430.87,71.07,431.2,70.56,432.93,70.56Z"/><path d="M324.29,87.58l3.84,10.28h-2.2l-.72-2.08h-4l-.72,2.08h-2.07l3.83-10.28Zm.34,6.54-1.42-4.06-1.42,4.06Z"/><path d="M332.5,92.08c-1,0-1.6.35-1.6,1.79v4h-2V90.23h1.93v1.34a2.08,2.08,0,0,1,2-1.32,3.07,3.07,0,0,1,.42,0v1.84A7.2,7.2,0,0,0,332.5,92.08Z"/><path d="M336.83,88.16v2.07h1.59v1.35h-1.59v3.94c0,.78.27.94,1,.94h.6v1.4H337c-1.75,0-2.09-.53-2.09-2V91.58h-1.08V90.23h1.08V88.16Z"/><path d="M345,92a3.78,3.78,0,0,1-1.05-2.34c0-1.4,1.26-2.28,2.95-2.28,1.32,0,2.82.59,2.82,2.3a3.09,3.09,0,0,1-1.91,2.65l1.36,1.5a7,7,0,0,0,.34-1.76h1.93a8.63,8.63,0,0,1-1,3.14l2.41,2.63h-2.61l-1-1.1a4.58,4.58,0,0,1-3.2,1.29A3.16,3.16,0,0,1,342.56,95,3.26,3.26,0,0,1,345,92Zm1,1.14c-.92.38-1.43,1-1.43,1.73a1.65,1.65,0,0,0,1.73,1.68,2.49,2.49,0,0,0,1.89-1Zm.87-1.85a1.67,1.67,0,0,0,1-1.53.92.92,0,0,0-1-1,.89.89,0,0,0-.95.84,2.84,2.84,0,0,0,.9,1.66Z"/><path d="M358.82,93.84v4h-2V87.58h3.38c3.39,0,4.68,1,4.68,3.12A2.82,2.82,0,0,1,363,93.41l2.28,4.45H363l-2-4Zm0-1.58h1.67c1.58,0,2.27-.54,2.27-1.54,0-1.2-1-1.55-2.37-1.55h-1.57Z"/><path d="M369.78,96.53a1.76,1.76,0,0,0,1.61-.88h2a3.64,3.64,0,0,1-3.6,2.4,4,4,0,0,1-.06-8c2.36,0,3.83,1.83,3.75,4.53h-5.63A1.92,1.92,0,0,0,369.78,96.53Zm1.72-3.29a1.66,1.66,0,0,0-1.77-1.74,1.84,1.84,0,0,0-1.85,1.74Z"/><path d="M377.7,91.44c-.72,0-1.23.27-1.23.74s.29.72,1,.88l1,.22c1.52.34,2.81.73,2.81,2.3s-1.58,2.47-3.31,2.47-3.29-1-3.47-2.71h1.88a1.5,1.5,0,0,0,1.65,1.29c.84,0,1.37-.31,1.37-.86s-.59-.8-1.24-.94l-1.14-.24c-1.43-.3-2.38-.9-2.38-2.29S376.15,90,377.8,90s3.11.73,3.36,2.49h-1.83A1.52,1.52,0,0,0,377.7,91.44Z"/><path d="M386.2,96.53a1.76,1.76,0,0,0,1.6-.88h2a3.64,3.64,0,0,1-3.6,2.4,4,4,0,0,1-.06-8c2.36,0,3.83,1.83,3.75,4.53h-5.63A1.94,1.94,0,0,0,386.2,96.53Zm1.71-3.29a1.66,1.66,0,0,0-1.77-1.74,1.83,1.83,0,0,0-1.84,1.74Z"/><path d="M391.06,95.81c0-1.8,2-2.34,5-2.68V93c0-1.18-.64-1.59-1.44-1.59a1.29,1.29,0,0,0-1.42,1.24H391.4c.15-1.51,1.39-2.61,3.35-2.61s3.29.78,3.29,3.36c0,.24,0,1.24,0,1.94a10.84,10.84,0,0,0,.23,2.52h-1.8a6.42,6.42,0,0,1-.13-1,2.73,2.73,0,0,1-2.49,1.14C392.35,98.05,391.06,97.2,391.06,95.81Zm2-.1c0,.55.44,1,1.32,1a1.56,1.56,0,0,0,1.74-1.78v-.56C394,94.6,393.08,94.86,393.08,95.71Z"/><path d="M403.45,92.08c-1,0-1.61.35-1.61,1.79v4h-1.95V90.23h1.93v1.34a2.07,2.07,0,0,1,2-1.32,3.11,3.11,0,0,1,.43,0v1.84A7.44,7.44,0,0,0,403.45,92.08Z"/><path d="M410.4,92.84a1.64,1.64,0,0,0-1.59-1.26c-1,0-1.83.87-1.83,2.46s.77,2.49,1.84,2.49a1.64,1.64,0,0,0,1.65-1.26h1.87a3.4,3.4,0,0,1-3.61,2.78,3.69,3.69,0,0,1-3.75-4,3.75,3.75,0,0,1,3.83-4,3.26,3.26,0,0,1,3.46,2.78Z"/><path d="M417.89,90.06c1.83,0,2.64,1.12,2.64,3v4.8h-2V93.48c0-1-.21-1.84-1.32-1.84-1.29,0-1.57,1-1.57,2.25v4h-2V87.58h2v3.66A2.48,2.48,0,0,1,417.89,90.06Z"/></svg>
