<?xml version="1.0" encoding="UTF-8" standalone="no"?>
<svg
   height="50"
   width="100"
   version="1.1"
   viewBox="0 0 100 50"
   data-name="Layer 1"
   id="Layer_1"
   xmlns="http://www.w3.org/2000/svg"
   xmlns:svg="http://www.w3.org/2000/svg"
   xmlns:rdf="http://www.w3.org/1999/02/22-rdf-syntax-ns#"
   xmlns:cc="http://creativecommons.org/ns#"
   xmlns:dc="http://purl.org/dc/elements/1.1/">
  <metadata
     id="metadata197">
    <rdf:RDF>
      <cc:Work
         rdf:about="">
        <dc:format>image/svg+xml</dc:format>
        <dc:type
           rdf:resource="http://purl.org/dc/dcmitype/StillImage" />
        <dc:title>Nordic Journal of Art and Research</dc:title>
      </cc:Work>
    </rdf:RDF>
  </metadata>
  <defs
     id="defs195" />
  <title
     id="title130">Nordic Journal of Art and Research</title>
  <rect
     style="fill:#1b7bbb;fill-opacity:1;stroke:none;stroke-width:4;stroke-linecap:round;stroke-linejoin:round;paint-order:stroke fill markers;stop-color:#000000"
     id="rect2744"
     width="100"
     height="50"
     x="0"
     y="0"
     rx="0" />
  <rect
     style="fill:#1b7bbb;fill-opacity:0.86666667;stroke:none;stroke-width:4;stroke-linecap:round;stroke-linejoin:round;paint-order:stroke fill markers;stop-color:#000000;font-variation-settings:normal;opacity:1;vector-effect:none;stroke-miterlimit:4;stroke-dasharray:none;stroke-dashoffset:0;stroke-opacity:1;-inkscape-stroke:none;stop-opacity:1"
     id="rect81709"
     width="90"
     height="40"
     x="5"
     y="5"
     rx="0" />
  <g
     aria-label="TECHNE 
SERIES"
     id="text3895"
     style="font-size:19.6189px;line-height:1.05;-inkscape-font-specification:'sans-serif, Normal';letter-spacing:0px;word-spacing:0px;fill:#ffffff">
    <path
       d="M 5.0001056,7.5623916 H 18.191134 V 11.030186 H 13.765386 V 21.605999 H 9.4258536 V 11.030186 h -4.425748 z"
       style="font-family:'Arial Black';-inkscape-font-specification:'Arial Black, '"
       id="path32655" />
    <path
       d="m 20.14536,7.5623916 h 11.629563 v 2.9983964 h -7.280451 v 2.232033 h 6.753576 v 2.864283 h -6.753576 v 2.768487 h 7.491201 v 3.180408 H 20.14536 Z"
       style="font-family:'Arial Black';-inkscape-font-specification:'Arial Black, '"
       id="path32657" />
    <path
       d="m 43.672713,15.867854 3.803078,1.149545 q -0.383182,1.599783 -1.207022,2.672692 -0.823841,1.072908 -2.050022,1.618942 -1.216602,0.546034 -3.103771,0.546034 -2.289511,0 -3.745601,-0.660988 -1.446511,-0.670568 -2.50026,-2.346988 -1.05375,-1.67642 -1.05375,-4.291634 0,-3.486953 1.848852,-5.3549638 1.858431,-1.8775901 5.249588,-1.8775901 2.653533,0 4.167101,1.0729086 1.523147,1.0729086 2.260771,3.2953623 l -3.831816,0.852579 q -0.20117,-0.641829 -0.4215,-0.938795 -0.364022,-0.498136 -0.890897,-0.766363 -0.526875,-0.268227 -1.178284,-0.268227 -1.475249,0 -2.260771,1.187863 -0.593932,0.881317 -0.593932,2.768487 0,2.337408 0.708886,3.209146 0.708886,0.862159 1.992545,0.862159 1.24534,0 1.87759,-0.699306 0.641829,-0.699307 0.929215,-2.030863 z"
       style="font-family:'Arial Black';-inkscape-font-specification:'Arial Black, '"
       id="path32659" />
    <path
       d="m 49.60245,7.5623916 h 4.339532 v 4.9143044 h 4.741873 V 7.5623916 h 4.358691 V 21.605999 h -4.358691 v -5.680668 h -4.741873 v 5.680668 H 49.60245 Z"
       style="font-family:'Arial Black';-inkscape-font-specification:'Arial Black, '"
       id="path32661" />
    <path
       d="m 65.954727,7.5623916 h 4.052146 L 75.294779,15.3314 V 7.5623916 h 4.090465 V 21.605999 h -4.090465 l -5.259168,-7.711531 v 7.711531 h -4.080884 z"
       style="font-family:'Arial Black';-inkscape-font-specification:'Arial Black, '"
       id="path32663" />
    <path
       d="m 82.259102,7.5623916 h 11.629563 v 2.9983964 h -7.280451 v 2.232033 h 6.753576 v 2.864283 h -6.753576 v 2.768487 h 7.491201 v 3.180408 H 82.259102 Z"
       style="font-family:'Arial Black';-inkscape-font-specification:'Arial Black, '"
       id="path32665" />
    <path
       d="m 5.2300146,37.79153 4.1287822,-0.258647 q 0.1341136,1.005852 0.5460339,1.532726 0.6705683,0.852579 1.9159083,0.852579 0.929215,0 1.427352,-0.431079 0.507715,-0.440659 0.507715,-1.015431 0,-0.546034 -0.478977,-0.977113 -0.478977,-0.43108 -2.222453,-0.814261 -2.8547037,-0.64183 -4.0713054,-1.705159 -1.2261813,-1.063329 -1.2261813,-2.71101 0,-1.082488 0.6226702,-2.040442 0.6322497,-0.967534 1.8871696,-1.513568 1.2644995,-0.555613 3.4582139,-0.555613 2.691852,0 4.100044,1.005852 1.417772,0.996272 1.685999,3.180407 L 13.420522,32.58026 Q 13.25767,31.631885 12.730795,31.200806 12.2135,30.769727 11.293864,30.769727 q -0.756784,0 -1.139965,0.325704 -0.3831819,0.316125 -0.3831819,0.775943 0,0.335284 0.3161249,0.603511 0.306545,0.277807 1.45609,0.517295 2.845124,0.613091 4.071305,1.245341 1.235761,0.62267 1.791374,1.551885 0.565193,0.929216 0.565193,2.078761 0,1.350715 -0.747204,2.49068 -0.747204,1.139966 -2.08834,1.733897 -1.341136,0.584352 -3.381578,0.584352 -3.5827483,0 -4.9622022,-1.379454 Q 5.4120259,39.918188 5.2300146,37.79153 Z"
       style="font-family:'Arial Black';-inkscape-font-specification:'Arial Black, '"
       id="path32667" />
    <path
       d="m 20.14536,28.394 h 11.629563 v 2.998397 h -7.280451 v 2.232033 h 6.753576 v 2.864283 H 24.494472 V 39.2572 h 7.491201 v 3.180408 H 20.14536 Z"
       style="font-family:'Arial Black';-inkscape-font-specification:'Arial Black, '"
       id="path32669" />
    <path
       d="M 34.380558,42.437608 V 28.394 h 7.232554 q 2.011704,0 3.075033,0.344864 1.063329,0.344863 1.714737,1.283658 0.651409,0.929216 0.651409,2.270352 0,1.168704 -0.498136,2.021283 -0.498136,0.842999 -1.369874,1.369874 -0.555614,0.335284 -1.523147,0.555614 0.775943,0.258647 1.130386,0.517295 0.239488,0.172432 0.689727,0.737625 0.459817,0.565192 0.61309,0.871738 l 2.09792,4.071305 H 43.289532 L 40.971283,38.145973 Q 40.530624,37.312553 40.18576,37.063485 39.716363,36.737781 39.122431,36.737781 H 38.73925 v 5.699827 z m 4.358692,-8.35336 h 1.829692 q 0.296966,0 1.149545,-0.191591 0.431079,-0.08622 0.699306,-0.440659 0.277807,-0.354443 0.277807,-0.814261 0,-0.680147 -0.431079,-1.04417 -0.43108,-0.364022 -1.618943,-0.364022 H 38.73925 Z"
       style="font-family:'Arial Black';-inkscape-font-specification:'Arial Black, '"
       id="path32671" />
    <path
       d="m 49.755723,28.394 h 4.349112 v 14.043608 h -4.349112 z"
       style="font-family:'Arial Black';-inkscape-font-specification:'Arial Black, '"
       id="path32673" />
    <path
       d="m 57.208603,28.394 h 11.629563 v 2.998397 h -7.280451 v 2.232033 h 6.753576 v 2.864283 H 61.557715 V 39.2572 h 7.491201 v 3.180408 H 57.208603 Z"
       style="font-family:'Arial Black';-inkscape-font-specification:'Arial Black, '"
       id="path32675" />
    <path
       d="m 70.629543,37.79153 4.128782,-0.258647 q 0.134114,1.005852 0.546034,1.532726 0.670568,0.852579 1.915908,0.852579 0.929216,0 1.427352,-0.431079 0.507716,-0.440659 0.507716,-1.015431 0,-0.546034 -0.478977,-0.977113 -0.478977,-0.43108 -2.222454,-0.814261 -2.854703,-0.64183 -4.071305,-1.705159 -1.226181,-1.063329 -1.226181,-2.71101 0,-1.082488 0.62267,-2.040442 0.63225,-0.967534 1.88717,-1.513568 1.264499,-0.555613 3.458214,-0.555613 2.691851,0 4.100044,1.005852 1.417772,0.996272 1.685999,3.180407 l -4.090464,0.239489 q -0.162852,-0.948375 -0.689727,-1.379454 -0.517295,-0.431079 -1.436931,-0.431079 -0.756784,0 -1.139966,0.325704 -0.383181,0.316125 -0.383181,0.775943 0,0.335284 0.316124,0.603511 0.306546,0.277807 1.456091,0.517295 2.845123,0.613091 4.071305,1.245341 1.235761,0.62267 1.791374,1.551885 0.565193,0.929216 0.565193,2.078761 0,1.350715 -0.747204,2.49068 -0.747205,1.139966 -2.08834,1.733897 -1.341136,0.584352 -3.381578,0.584352 -3.582749,0 -4.962203,-1.379454 -1.379454,-1.379454 -1.561465,-3.506112 z"
       style="font-family:'Arial Black';-inkscape-font-specification:'Arial Black, '"
       id="path32677" />
  </g>
</svg>
