<?xml version="1.0" encoding="UTF-8" standalone="no"?>
<svg
   xmlns:dc="http://purl.org/dc/elements/1.1/"
   xmlns:cc="http://creativecommons.org/ns#"
   xmlns:rdf="http://www.w3.org/1999/02/22-rdf-syntax-ns#"
   xmlns:svg="http://www.w3.org/2000/svg"
   xmlns="http://www.w3.org/2000/svg"
   width="362"
   height="112"
   viewBox="0 0 95.779167 29.633333"
   version="1.1"
   id="svg8">
  <defs
     id="defs2" />
  <metadata
     id="metadata5">
    <rdf:RDF>
      <cc:Work
         rdf:about="">
        <dc:format>image/svg+xml</dc:format>
        <dc:type
           rdf:resource="http://purl.org/dc/dcmitype/StillImage" />
        <dc:title></dc:title>
      </cc:Work>
    </rdf:RDF>
  </metadata>
  <g
     id="g135"
     transform="translate(43.425626,-180.69806)"
     style="stroke:#000000;stroke-width:0.529167;stroke-linecap:round;stroke-linejoin:round;stroke-miterlimit:4;stroke-dasharray:none;stroke-opacity:0.5;paint-order:stroke fill markers;font-variation-settings:normal;opacity:1;vector-effect:none;fill:#ffffff;fill-opacity:1;stroke-dashoffset:0;stop-color:#000000;stop-opacity:1">
    <g
       aria-label="TECHNE SERIEN"
       id="text160-7"
       style="font-style:normal;font-variant:normal;font-weight:900;font-stretch:normal;font-size:12.7px;line-height:1.25;font-family:Lato;-inkscape-font-specification:'Lato, Heavy';font-variant-ligatures:normal;font-variant-caps:normal;font-variant-numeric:normal;font-variant-east-asian:normal;font-variation-settings:normal;letter-spacing:0px;word-spacing:0px;vector-effect:none;fill:#ffffff;fill-opacity:1;stroke:#000000;stroke-width:0.529167;stroke-linecap:round;stroke-linejoin:round;stroke-miterlimit:4;stroke-dasharray:none;stroke-dashoffset:0;stroke-opacity:0.5;paint-order:stroke fill markers;stop-color:#000000;stop-opacity:1">
      <path
         d="m -35.757981,181.14322 v 1.7018 h -2.6035 v 7.55015 h -2.1463 v -7.55015 h -2.6035 v -1.7018 z"
         style="font-style:normal;font-variant:normal;font-weight:900;font-stretch:normal;font-size:12.7px;font-family:Lato;-inkscape-font-specification:'Lato, Heavy';font-variant-ligatures:normal;font-variant-caps:normal;font-variant-numeric:normal;font-variant-east-asian:normal;font-variation-settings:normal;vector-effect:none;fill:#ffffff;fill-opacity:1;stroke:#000000;stroke-width:0.529167;stroke-linecap:round;stroke-linejoin:round;stroke-miterlimit:4;stroke-dasharray:none;stroke-dashoffset:0;stroke-opacity:0.5;paint-order:stroke fill markers;stop-color:#000000;stop-opacity:1"
         id="path2774" />
      <path
         d="m -28.912694,181.14322 v 1.651 h -3.7973 v 2.159 h 2.9083 v 1.5875 h -2.9083 v 2.20345 h 3.7973 v 1.651 h -5.9563 v -9.25195 z"
         style="font-style:normal;font-variant:normal;font-weight:900;font-stretch:normal;font-size:12.7px;font-family:Lato;-inkscape-font-specification:'Lato, Heavy';font-variant-ligatures:normal;font-variant-caps:normal;font-variant-numeric:normal;font-variant-east-asian:normal;font-variation-settings:normal;vector-effect:none;fill:#ffffff;fill-opacity:1;stroke:#000000;stroke-width:0.529167;stroke-linecap:round;stroke-linejoin:round;stroke-miterlimit:4;stroke-dasharray:none;stroke-dashoffset:0;stroke-opacity:0.5;paint-order:stroke fill markers;stop-color:#000000;stop-opacity:1"
         id="path2776" />
      <path
         d="m -21.476861,188.00122 q 0.0762,0 0.1524,0.0318 0.0762,0.0254 0.14605,0.0952 l 0.8509,0.89535 q -0.5588,0.73025 -1.40335,1.1049 -0.8382,0.3683 -1.98755,0.3683 -1.0541,0 -1.8923,-0.3556 -0.83185,-0.36195 -1.41605,-0.9906 -0.57785,-0.635 -0.889,-1.4986 -0.31115,-0.86995 -0.31115,-1.88595 0,-1.03505 0.3556,-1.89865 0.3556,-0.86995 0.9906,-1.4986 0.64135,-0.62865 1.53035,-0.9779 0.889,-0.34925 1.96215,-0.34925 0.5207,0 0.9779,0.0952 0.46355,0.0889 0.8636,0.254 0.40005,0.15875 0.7366,0.38735 0.33655,0.22225 0.5969,0.4953 l -0.7239,0.97155 q -0.06985,0.0889 -0.1651,0.1651 -0.09525,0.0699 -0.2667,0.0699 -0.1143,0 -0.2159,-0.0508 -0.1016,-0.0508 -0.2159,-0.12065 -0.1143,-0.0762 -0.254,-0.15875 -0.13335,-0.0889 -0.32385,-0.15875 -0.18415,-0.0762 -0.43815,-0.127 -0.24765,-0.0508 -0.5842,-0.0508 -0.5842,0 -1.0668,0.20955 -0.4826,0.2032 -0.83185,0.59055 -0.3429,0.381 -0.53975,0.9271 -0.1905,0.5461 -0.1905,1.22555 0,0.7112 0.1905,1.26365 0.19685,0.55245 0.52705,0.93345 0.33655,0.37465 0.78105,0.5715 0.4445,0.19685 0.9525,0.19685 0.2921,0 0.5334,-0.0254 0.2413,-0.0318 0.4445,-0.1016 0.20955,-0.0699 0.3937,-0.1778 0.1905,-0.1143 0.381,-0.2794 0.0762,-0.0635 0.1651,-0.1016 0.0889,-0.0445 0.18415,-0.0445 z"
         style="font-style:normal;font-variant:normal;font-weight:900;font-stretch:normal;font-size:12.7px;font-family:Lato;-inkscape-font-specification:'Lato, Heavy';font-variant-ligatures:normal;font-variant-caps:normal;font-variant-numeric:normal;font-variant-east-asian:normal;font-variation-settings:normal;vector-effect:none;fill:#ffffff;fill-opacity:1;stroke:#000000;stroke-width:0.529167;stroke-linecap:round;stroke-linejoin:round;stroke-miterlimit:4;stroke-dasharray:none;stroke-dashoffset:0;stroke-opacity:0.5;paint-order:stroke fill markers;stop-color:#000000;stop-opacity:1"
         id="path2778" />
      <path
         d="m -11.272416,190.39517 h -2.159 v -3.9116 h -3.7592 v 3.9116 h -2.159 v -9.25195 h 2.159 v 3.86715 h 3.7592 v -3.86715 h 2.159 z"
         style="font-style:normal;font-variant:normal;font-weight:900;font-stretch:normal;font-size:12.7px;font-family:Lato;-inkscape-font-specification:'Lato, Heavy';font-variant-ligatures:normal;font-variant-caps:normal;font-variant-numeric:normal;font-variant-east-asian:normal;font-variation-settings:normal;vector-effect:none;fill:#ffffff;fill-opacity:1;stroke:#000000;stroke-width:0.529167;stroke-linecap:round;stroke-linejoin:round;stroke-miterlimit:4;stroke-dasharray:none;stroke-dashoffset:0;stroke-opacity:0.5;paint-order:stroke fill markers;stop-color:#000000;stop-opacity:1"
         id="path2780" />
      <path
         d="m -8.6181332,181.14322 q 0.1397,0 0.23495,0.0127 0.09525,0.0127 0.17145,0.0508 0.0762,0.0318 0.14605,0.0953 0.06985,0.0635 0.15875,0.17145 l 4.3941999,5.55625 q -0.0254,-0.2667 -0.0381,-0.51435 -0.0127,-0.254 -0.0127,-0.47625 v -4.89585 h 1.8923 v 9.25195 h -1.1176 q -0.24765,0 -0.4191,-0.0762 -0.17145,-0.0762 -0.3302,-0.2794 l -4.3624499,-5.5118 q 0.01905,0.2413 0.03175,0.47625 0.0127,0.2286 0.0127,0.4318 v 4.95935 h -1.8923 v -9.25195 h 1.1303 z"
         style="font-style:normal;font-variant:normal;font-weight:900;font-stretch:normal;font-size:12.7px;font-family:Lato;-inkscape-font-specification:'Lato, Heavy';font-variant-ligatures:normal;font-variant-caps:normal;font-variant-numeric:normal;font-variant-east-asian:normal;font-variation-settings:normal;vector-effect:none;fill:#ffffff;fill-opacity:1;stroke:#000000;stroke-width:0.529167;stroke-linecap:round;stroke-linejoin:round;stroke-miterlimit:4;stroke-dasharray:none;stroke-dashoffset:0;stroke-opacity:0.5;paint-order:stroke fill markers;stop-color:#000000;stop-opacity:1"
         id="path2782" />
      <path
         d="m 5.8090477,181.14322 v 1.651 H 2.0117478 v 2.159 h 2.9082999 v 1.5875 H 2.0117478 v 2.20345 h 3.7972999 v 1.651 h -5.95629988 v -9.25195 z"
         style="font-style:normal;font-variant:normal;font-weight:900;font-stretch:normal;font-size:12.7px;font-family:Lato;-inkscape-font-specification:'Lato, Heavy';font-variant-ligatures:normal;font-variant-caps:normal;font-variant-numeric:normal;font-variant-east-asian:normal;font-variation-settings:normal;vector-effect:none;fill:#ffffff;fill-opacity:1;stroke:#000000;stroke-width:0.529167;stroke-linecap:round;stroke-linejoin:round;stroke-miterlimit:4;stroke-dasharray:none;stroke-dashoffset:0;stroke-opacity:0.5;paint-order:stroke fill markers;stop-color:#000000;stop-opacity:1"
         id="path2784" />
      <path
         d="m 14.635516,183.02282 q -0.09525,0.1524 -0.2032,0.2286 -0.1016,0.0762 -0.2667,0.0762 -0.14605,0 -0.3175,-0.0889 -0.1651,-0.0952 -0.381,-0.20955 -0.20955,-0.1143 -0.4826,-0.2032 -0.27305,-0.0953 -0.6223,-0.0953 -0.60325,0 -0.9017,0.26035 -0.2921,0.254 -0.2921,0.69215 0,0.2794 0.1778,0.46355 0.1778,0.18415 0.46355,0.3175 0.2921,0.13335 0.6604,0.24765 0.37465,0.10795 0.762,0.24765 0.38735,0.13335 0.75565,0.3175 0.37465,0.18415 0.6604,0.4699 0.2921,0.28575 0.4699,0.6985 0.1778,0.4064 0.1778,0.98425 0,0.64135 -0.22225,1.20015 -0.22225,0.5588 -0.6477,0.9779 -0.4191,0.41275 -1.0414,0.65405 -0.61595,0.23495 -1.40335,0.23495 -0.4318,0 -0.88265,-0.0889 -0.4445,-0.0889 -0.8636,-0.24765 -0.4191003,-0.1651 -0.7874003,-0.38735 -0.3683,-0.22225 -0.64135,-0.4953 l 0.635,-1.0033 q 0.06985,-0.1143 0.19685,-0.18415 0.127,-0.0699 0.27305,-0.0699 0.1905003,0 0.3810003,0.12065 0.19685,0.12065 0.43815,0.2667 0.24765,0.14605 0.56515,0.2667 0.3175,0.12065 0.7493,0.12065 0.5842,0 0.90805,-0.254 0.32385,-0.26035 0.32385,-0.81915 0,-0.32385 -0.1778,-0.52705 -0.1778,-0.2032 -0.4699,-0.33655 -0.28575,-0.13335 -0.65405,-0.23495 -0.3683,-0.1016 -0.75565,-0.22225 -0.38735,-0.127 -0.75565,-0.3048 -0.3683,-0.18415 -0.6604003,-0.47625 -0.28575,-0.29845 -0.46355,-0.7366 -0.1778,-0.4445 -0.1778,-1.0922 0,-0.5207 0.20955,-1.016 0.20955,-0.4953 0.61595,-0.88265 0.4064003,-0.38735 0.9969503,-0.61595 0.59055,-0.23495 1.35255,-0.23495 0.42545,0 0.8255,0.0699 0.4064,0.0635 0.76835,0.19685 0.36195,0.127 0.6731,0.31115 0.3175,0.1778 0.56515,0.4064 z"
         style="font-style:normal;font-variant:normal;font-weight:900;font-stretch:normal;font-size:12.7px;font-family:Lato;-inkscape-font-specification:'Lato, Heavy';font-variant-ligatures:normal;font-variant-caps:normal;font-variant-numeric:normal;font-variant-east-asian:normal;font-variation-settings:normal;vector-effect:none;fill:#ffffff;fill-opacity:1;stroke:#000000;stroke-width:0.529167;stroke-linecap:round;stroke-linejoin:round;stroke-miterlimit:4;stroke-dasharray:none;stroke-dashoffset:0;stroke-opacity:0.5;paint-order:stroke fill markers;stop-color:#000000;stop-opacity:1"
         id="path2786" />
      <path
         d="m 22.319012,181.14322 v 1.651 h -3.7973 v 2.159 h 2.9083 v 1.5875 h -2.9083 v 2.20345 h 3.7973 v 1.651 h -5.9563 v -9.25195 z"
         style="font-style:normal;font-variant:normal;font-weight:900;font-stretch:normal;font-size:12.7px;font-family:Lato;-inkscape-font-specification:'Lato, Heavy';font-variant-ligatures:normal;font-variant-caps:normal;font-variant-numeric:normal;font-variant-east-asian:normal;font-variation-settings:normal;vector-effect:none;fill:#ffffff;fill-opacity:1;stroke:#000000;stroke-width:0.529167;stroke-linecap:round;stroke-linejoin:round;stroke-miterlimit:4;stroke-dasharray:none;stroke-dashoffset:0;stroke-opacity:0.5;paint-order:stroke fill markers;stop-color:#000000;stop-opacity:1"
         id="path2788" />
      <path
         d="m 25.684492,186.97252 v 3.42265 h -2.1463 v -9.25195 h 3.0099 q 1.0033,0 1.70815,0.20955 0.7112,0.2032 1.1557,0.5715 0.45085,0.3683 0.65405,0.86995 0.2032,0.50165 0.2032,1.0922 0,0.45085 -0.12065,0.8509 -0.12065,0.40005 -0.36195,0.74295 -0.23495,0.33655 -0.5842,0.60325 -0.3429,0.2667 -0.79375,0.43815 0.2159,0.10795 0.40005,0.2667 0.1905,0.15875 0.3302,0.38735 l 1.9685,3.21945 h -1.9431 q -0.53975,0 -0.7747,-0.4064 l -1.5367,-2.68605 q -0.1016,-0.1778 -0.2413,-0.254 -0.13335,-0.0762 -0.381,-0.0762 z m 0,-1.47955 h 0.8636 q 0.43815,0 0.74295,-0.10795 0.31115,-0.1143 0.508,-0.31115 0.19685,-0.19685 0.28575,-0.4572 0.0889,-0.2667 0.0889,-0.5715 0,-0.6096 -0.40005,-0.9525 -0.3937,-0.3429 -1.22555,-0.3429 h -0.8636 z"
         style="font-style:normal;font-variant:normal;font-weight:900;font-stretch:normal;font-size:12.7px;font-family:Lato;-inkscape-font-specification:'Lato, Heavy';font-variant-ligatures:normal;font-variant-caps:normal;font-variant-numeric:normal;font-variant-east-asian:normal;font-variation-settings:normal;vector-effect:none;fill:#ffffff;fill-opacity:1;stroke:#000000;stroke-width:0.529167;stroke-linecap:round;stroke-linejoin:round;stroke-miterlimit:4;stroke-dasharray:none;stroke-dashoffset:0;stroke-opacity:0.5;paint-order:stroke fill markers;stop-color:#000000;stop-opacity:1"
         id="path2790" />
      <path
         d="m 34.33318,190.39517 h -2.159 v -9.25195 h 2.159 z"
         style="font-style:normal;font-variant:normal;font-weight:900;font-stretch:normal;font-size:12.7px;font-family:Lato;-inkscape-font-specification:'Lato, Heavy';font-variant-ligatures:normal;font-variant-caps:normal;font-variant-numeric:normal;font-variant-east-asian:normal;font-variation-settings:normal;vector-effect:none;fill:#ffffff;fill-opacity:1;stroke:#000000;stroke-width:0.529167;stroke-linecap:round;stroke-linejoin:round;stroke-miterlimit:4;stroke-dasharray:none;stroke-dashoffset:0;stroke-opacity:0.5;paint-order:stroke fill markers;stop-color:#000000;stop-opacity:1"
         id="path2792" />
      <path
         d="m 42.003975,181.14322 v 1.651 h -3.7973 v 2.159 h 2.9083 v 1.5875 h -2.9083 v 2.20345 h 3.7973 v 1.651 h -5.9563 v -9.25195 z"
         style="font-style:normal;font-variant:normal;font-weight:900;font-stretch:normal;font-size:12.7px;font-family:Lato;-inkscape-font-specification:'Lato, Heavy';font-variant-ligatures:normal;font-variant-caps:normal;font-variant-numeric:normal;font-variant-east-asian:normal;font-variation-settings:normal;vector-effect:none;fill:#ffffff;fill-opacity:1;stroke:#000000;stroke-width:0.529167;stroke-linecap:round;stroke-linejoin:round;stroke-miterlimit:4;stroke-dasharray:none;stroke-dashoffset:0;stroke-opacity:0.5;paint-order:stroke fill markers;stop-color:#000000;stop-opacity:1"
         id="path2794" />
      <path
         d="m 44.353459,181.14322 q 0.1397,0 0.23495,0.0127 0.09525,0.0127 0.17145,0.0508 0.0762,0.0318 0.14605,0.0953 0.06985,0.0635 0.15875,0.17145 l 4.3942,5.55625 q -0.0254,-0.2667 -0.0381,-0.51435 -0.0127,-0.254 -0.0127,-0.47625 v -4.89585 h 1.8923 v 9.25195 h -1.1176 q -0.24765,0 -0.4191,-0.0762 -0.17145,-0.0762 -0.3302,-0.2794 l -4.36245,-5.5118 q 0.01905,0.2413 0.03175,0.47625 0.0127,0.2286 0.0127,0.4318 v 4.95935 h -1.8923 v -9.25195 h 1.1303 z"
         style="font-style:normal;font-variant:normal;font-weight:900;font-stretch:normal;font-size:12.7px;font-family:Lato;-inkscape-font-specification:'Lato, Heavy';font-variant-ligatures:normal;font-variant-caps:normal;font-variant-numeric:normal;font-variant-east-asian:normal;font-variation-settings:normal;vector-effect:none;fill:#ffffff;fill-opacity:1;stroke:#000000;stroke-width:0.529167;stroke-linecap:round;stroke-linejoin:round;stroke-miterlimit:4;stroke-dasharray:none;stroke-dashoffset:0;stroke-opacity:0.5;paint-order:stroke fill markers;stop-color:#000000;stop-opacity:1"
         id="path2796" />
    </g>
    <g
       aria-label="
Forskning i slöjdpedagogik
och slöjdvetenskap"
       id="text32-5"
       style="font-style:normal;font-variant:normal;font-weight:900;font-stretch:normal;font-size:7.76111px;line-height:0;font-family:Lato;-inkscape-font-specification:'Lato, Heavy';font-variant-ligatures:normal;font-variant-caps:normal;font-variant-numeric:normal;font-variant-east-asian:normal;font-variation-settings:normal;letter-spacing:0px;word-spacing:0px;vector-effect:none;fill:#ffffff;fill-opacity:1;stroke:#000000;stroke-width:0.529167;stroke-linecap:round;stroke-linejoin:round;stroke-miterlimit:4;stroke-dasharray:none;stroke-dashoffset:0;stroke-opacity:0.5;paint-order:stroke fill markers;stop-color:#000000;stop-opacity:1">
      <path
         d="m -39.128564,195.02872 v 1.02729 h -2.362763 v 1.45796 h 1.967652 v 1.03124 h -1.967652 v 2.24028 h -1.343378 v -5.75677 z"
         style="font-style:normal;font-variant:normal;font-weight:900;font-stretch:normal;font-size:7.76111px;line-height:1.25;font-family:Lato;-inkscape-font-specification:'Lato, Heavy';font-variant-ligatures:normal;font-variant-caps:normal;font-variant-numeric:normal;font-variant-east-asian:normal;font-variation-settings:normal;vector-effect:none;fill:#ffffff;fill-opacity:1;stroke:#000000;stroke-width:0.529167;stroke-linecap:round;stroke-linejoin:round;stroke-miterlimit:4;stroke-dasharray:none;stroke-dashoffset:0;stroke-opacity:0.5;paint-order:stroke fill markers;stop-color:#000000;stop-opacity:1"
         id="path2799" />
      <path
         d="m -36.844834,196.62497 q 0.466231,0 0.849489,0.14619 0.383258,0.14619 0.655884,0.41882 0.276578,0.27262 0.42672,0.66378 0.154093,0.38721 0.154093,0.8732 0,0.48993 -0.154093,0.88505 -0.150142,0.39116 -0.42672,0.66773 -0.272626,0.27263 -0.655884,0.42277 -0.383258,0.14619 -0.849489,0.14619 -0.470182,0 -0.857391,-0.14619 -0.383257,-0.15014 -0.663786,-0.42277 -0.276578,-0.27657 -0.430671,-0.66773 -0.150142,-0.39512 -0.150142,-0.88505 0,-0.48599 0.150142,-0.8732 0.154093,-0.39116 0.430671,-0.66378 0.280529,-0.27263 0.663786,-0.41882 0.387209,-0.14619 0.857391,-0.14619 z m 0,3.31498 q 0.422769,0 0.620325,-0.29634 0.201506,-0.30028 0.201506,-0.90875 0,-0.60847 -0.201506,-0.9048 -0.197556,-0.29634 -0.620325,-0.29634 -0.434622,0 -0.636128,0.29634 -0.201507,0.29633 -0.201507,0.9048 0,0.60847 0.201507,0.90875 0.201506,0.29634 0.636128,0.29634 z"
         style="font-style:normal;font-variant:normal;font-weight:900;font-stretch:normal;font-size:7.90222px;line-height:1;font-family:Lato;-inkscape-font-specification:'Lato, Heavy';font-variant-ligatures:normal;font-variant-caps:normal;font-variant-numeric:normal;font-variant-east-asian:normal;font-variation-settings:normal;vector-effect:none;fill:#ffffff;fill-opacity:1;stroke:#000000;stroke-width:0.529167;stroke-linecap:round;stroke-linejoin:round;stroke-miterlimit:4;stroke-dasharray:none;stroke-dashoffset:0;stroke-opacity:0.5;paint-order:stroke fill markers;stop-color:#000000;stop-opacity:1"
         id="path2801" />
      <path
         d="m -34.086959,200.78549 v -4.09731 h 0.727004 q 0.09088,0 0.150142,0.0158 0.06322,0.0158 0.102729,0.0514 0.04346,0.0316 0.06322,0.0869 0.02371,0.0553 0.03951,0.13434 l 0.06717,0.38325 q 0.225213,-0.34769 0.505742,-0.5492 0.280529,-0.20151 0.612422,-0.20151 0.280529,0 0.450426,0.13434 l -0.158044,0.90085 q -0.0158,0.083 -0.06322,0.11854 -0.04741,0.0316 -0.126435,0.0316 -0.06717,0 -0.158045,-0.0158 -0.09087,-0.0198 -0.229164,-0.0198 -0.482035,0 -0.758613,0.51364 v 2.51291 z"
         style="font-style:normal;font-variant:normal;font-weight:900;font-stretch:normal;font-size:7.90222px;line-height:1;font-family:Lato;-inkscape-font-specification:'Lato, Heavy';font-variant-ligatures:normal;font-variant-caps:normal;font-variant-numeric:normal;font-variant-east-asian:normal;font-variation-settings:normal;vector-effect:none;fill:#ffffff;fill-opacity:1;stroke:#000000;stroke-width:0.529167;stroke-linecap:round;stroke-linejoin:round;stroke-miterlimit:4;stroke-dasharray:none;stroke-dashoffset:0;stroke-opacity:0.5;paint-order:stroke fill markers;stop-color:#000000;stop-opacity:1"
         id="path2803" />
      <path
         d="m -28.318353,197.58509 q -0.04741,0.0751 -0.102729,0.10668 -0.05137,0.0316 -0.134338,0.0316 -0.08692,0 -0.173849,-0.0356 -0.08692,-0.0395 -0.189653,-0.083 -0.09878,-0.0435 -0.225213,-0.079 -0.126436,-0.0395 -0.288431,-0.0395 -0.233116,0 -0.359551,0.0909 -0.122485,0.0869 -0.122485,0.24497 0,0.11459 0.07902,0.18966 0.08297,0.0751 0.217311,0.13433 0.134337,0.0553 0.304235,0.10668 0.169898,0.0514 0.347698,0.11459 0.1778,0.0632 0.347697,0.15014 0.169898,0.083 0.304236,0.20941 0.134338,0.12248 0.21336,0.30028 0.08297,0.1778 0.08297,0.42672 0,0.30424 -0.110631,0.56106 -0.110631,0.25682 -0.331893,0.44252 -0.217311,0.18571 -0.541302,0.28843 -0.32004,0.10273 -0.738858,0.10273 -0.209409,0 -0.418817,-0.0395 -0.209409,-0.0395 -0.406965,-0.10668 -0.193604,-0.0672 -0.359551,-0.15804 -0.165946,-0.0948 -0.28448,-0.20151 l 0.28448,-0.45043 q 0.05137,-0.079 0.122485,-0.12248 0.07112,-0.0474 0.185702,-0.0474 0.10668,0 0.189653,0.0474 0.08692,0.0474 0.185702,0.10273 0.09878,0.0553 0.229165,0.10273 0.134337,0.0474 0.335844,0.0474 0.14224,0 0.241018,-0.0277 0.09878,-0.0316 0.158044,-0.083 0.05927,-0.0514 0.08692,-0.11458 0.02766,-0.0632 0.02766,-0.13039 0,-0.12248 -0.08297,-0.20151 -0.08297,-0.079 -0.217311,-0.13433 -0.134338,-0.0593 -0.308187,-0.10668 -0.169897,-0.0514 -0.347697,-0.11459 -0.1778,-0.0632 -0.351649,-0.15014 -0.169898,-0.0909 -0.304236,-0.22521 -0.134337,-0.13829 -0.217311,-0.33584 -0.08297,-0.19756 -0.08297,-0.47809 0,-0.26077 0.09878,-0.49389 0.102729,-0.23706 0.304235,-0.41486 0.201507,-0.1778 0.505742,-0.28053 0.304236,-0.10668 0.7112,-0.10668 0.221262,0 0.42672,0.0395 0.209409,0.0395 0.39116,0.11063 0.181751,0.0711 0.331893,0.1699 0.150142,0.0948 0.264724,0.20941 z"
         style="font-style:normal;font-variant:normal;font-weight:900;font-stretch:normal;font-size:7.90222px;line-height:1;font-family:Lato;-inkscape-font-specification:'Lato, Heavy';font-variant-ligatures:normal;font-variant-caps:normal;font-variant-numeric:normal;font-variant-east-asian:normal;font-variation-settings:normal;vector-effect:none;fill:#ffffff;fill-opacity:1;stroke:#000000;stroke-width:0.529167;stroke-linecap:round;stroke-linejoin:round;stroke-miterlimit:4;stroke-dasharray:none;stroke-dashoffset:0;stroke-opacity:0.5;paint-order:stroke fill markers;stop-color:#000000;stop-opacity:1"
         id="path2805" />
      <path
         d="m -26.121547,194.87067 v 3.31499 h 0.181751 q 0.114582,0 0.173849,-0.0316 0.06322,-0.0316 0.118533,-0.11459 l 0.774418,-1.15372 q 0.06717,-0.10273 0.158044,-0.15014 0.09483,-0.0474 0.237067,-0.0474 h 1.122115 l -1.058897,1.45796 q -0.07507,0.10273 -0.165947,0.18176 -0.08693,0.079 -0.189653,0.14223 0.1778,0.13434 0.308186,0.3556 l 1.153724,1.95976 h -1.10631 q -0.138289,0 -0.241018,-0.0435 -0.09878,-0.0474 -0.161996,-0.16199 l -0.774417,-1.45006 q -0.05532,-0.0988 -0.114582,-0.12644 -0.05927,-0.0316 -0.1778,-0.0316 h -0.237067 v 1.81356 h -1.224844 v -5.91482 z"
         style="font-style:normal;font-variant:normal;font-weight:900;font-stretch:normal;font-size:7.90222px;line-height:1;font-family:Lato;-inkscape-font-specification:'Lato, Heavy';font-variant-ligatures:normal;font-variant-caps:normal;font-variant-numeric:normal;font-variant-east-asian:normal;font-variation-settings:normal;vector-effect:none;fill:#ffffff;fill-opacity:1;stroke:#000000;stroke-width:0.529167;stroke-linecap:round;stroke-linejoin:round;stroke-miterlimit:4;stroke-dasharray:none;stroke-dashoffset:0;stroke-opacity:0.5;paint-order:stroke fill markers;stop-color:#000000;stop-opacity:1"
         id="path2807" />
      <path
         d="m -22.794727,200.78549 v -4.09731 h 0.758613 q 0.114583,0 0.189654,0.0514 0.07902,0.0514 0.110631,0.15409 l 0.07112,0.23707 q 0.118533,-0.11063 0.244969,-0.20546 0.126435,-0.0948 0.268675,-0.15804 0.146191,-0.0672 0.312138,-0.10273 0.169897,-0.0395 0.367453,-0.0395 0.335844,0 0.592666,0.11853 0.260774,0.11458 0.438574,0.32399 0.1778,0.20546 0.268675,0.49389 0.09088,0.28448 0.09088,0.62032 v 2.60379 h -1.224844 v -2.60379 q 0,-0.30028 -0.138289,-0.46623 -0.138289,-0.16989 -0.406965,-0.16989 -0.201506,0 -0.379306,0.0869 -0.1778,0.0869 -0.339796,0.23312 v 2.91987 z"
         style="font-style:normal;font-variant:normal;font-weight:900;font-stretch:normal;font-size:7.90222px;line-height:1;font-family:Lato;-inkscape-font-specification:'Lato, Heavy';font-variant-ligatures:normal;font-variant-caps:normal;font-variant-numeric:normal;font-variant-east-asian:normal;font-variation-settings:normal;vector-effect:none;fill:#ffffff;fill-opacity:1;stroke:#000000;stroke-width:0.529167;stroke-linecap:round;stroke-linejoin:round;stroke-miterlimit:4;stroke-dasharray:none;stroke-dashoffset:0;stroke-opacity:0.5;paint-order:stroke fill markers;stop-color:#000000;stop-opacity:1"
         id="path2809" />
      <path
         d="m -16.947083,196.68818 v 4.09731 h -1.224844 v -4.09731 z m 0.14224,-1.12211 q 0,0.14619 -0.05927,0.27658 -0.05927,0.12643 -0.161996,0.22521 -0.102728,0.0948 -0.241017,0.15409 -0.134338,0.0553 -0.288431,0.0553 -0.150142,0 -0.280529,-0.0553 -0.130387,-0.0593 -0.233116,-0.15409 -0.09878,-0.0988 -0.158044,-0.22521 -0.05532,-0.13039 -0.05532,-0.27658 0,-0.15014 0.05532,-0.28053 0.05927,-0.13039 0.158044,-0.22916 0.102729,-0.0988 0.233116,-0.1541 0.130387,-0.0553 0.280529,-0.0553 0.154093,0 0.288431,0.0553 0.138289,0.0553 0.241017,0.1541 0.102729,0.0988 0.161996,0.22916 0.05927,0.13039 0.05927,0.28053 z"
         style="font-style:normal;font-variant:normal;font-weight:900;font-stretch:normal;font-size:7.90222px;line-height:1;font-family:Lato;-inkscape-font-specification:'Lato, Heavy';font-variant-ligatures:normal;font-variant-caps:normal;font-variant-numeric:normal;font-variant-east-asian:normal;font-variation-settings:normal;vector-effect:none;fill:#ffffff;fill-opacity:1;stroke:#000000;stroke-width:0.529167;stroke-linecap:round;stroke-linejoin:round;stroke-miterlimit:4;stroke-dasharray:none;stroke-dashoffset:0;stroke-opacity:0.5;paint-order:stroke fill markers;stop-color:#000000;stop-opacity:1"
         id="path2811" />
      <path
         d="m -15.959308,200.78549 v -4.09731 h 0.758613 q 0.114582,0 0.189653,0.0514 0.07902,0.0514 0.110631,0.15409 l 0.07112,0.23707 q 0.118534,-0.11063 0.244969,-0.20546 0.126436,-0.0948 0.268676,-0.15804 0.146191,-0.0672 0.312137,-0.10273 0.169898,-0.0395 0.367454,-0.0395 0.335844,0 0.592666,0.11853 0.260773,0.11458 0.438573,0.32399 0.1778,0.20546 0.268676,0.49389 0.09088,0.28448 0.09088,0.62032 v 2.60379 h -1.224844 v -2.60379 q 0,-0.30028 -0.138289,-0.46623 -0.138288,-0.16989 -0.406964,-0.16989 -0.201507,0 -0.379306,0.0869 -0.1778,0.0869 -0.339796,0.23312 v 2.91987 z"
         style="font-style:normal;font-variant:normal;font-weight:900;font-stretch:normal;font-size:7.90222px;line-height:1;font-family:Lato;-inkscape-font-specification:'Lato, Heavy';font-variant-ligatures:normal;font-variant-caps:normal;font-variant-numeric:normal;font-variant-east-asian:normal;font-variation-settings:normal;vector-effect:none;fill:#ffffff;fill-opacity:1;stroke:#000000;stroke-width:0.529167;stroke-linecap:round;stroke-linejoin:round;stroke-miterlimit:4;stroke-dasharray:none;stroke-dashoffset:0;stroke-opacity:0.5;paint-order:stroke fill markers;stop-color:#000000;stop-opacity:1"
         id="path2813" />
      <path
         d="m -9.9299155,196.61706 q 0.2607733,0 0.4899377,0.0514 0.2331154,0.0514 0.4306709,0.14619 h 1.2366974 v 0.44648 q 0,0.10272 -0.059267,0.16199 -0.055316,0.0593 -0.1936044,0.0909 l -0.3002844,0.0672 q 0.055316,0.1778 0.055316,0.36745 0,0.30819 -0.1303866,0.55315 -0.1264356,0.24497 -0.3516488,0.41882 -0.2212622,0.1699 -0.5254976,0.26473 -0.3042355,0.0909 -0.6519332,0.0909 -0.1936045,0 -0.3635025,-0.0237 -0.134337,0.079 -0.134337,0.18176 0,0.10272 0.10668,0.15014 0.110631,0.0435 0.288431,0.0632 0.1777996,0.0158 0.406964,0.0237 0.2291644,0.004 0.466231,0.0277 0.2370665,0.0198 0.4662309,0.0711 0.2291644,0.0514 0.4069643,0.16595 0.1778,0.11458 0.28448,0.30818 0.110631,0.18966 0.110631,0.48599 0,0.27658 -0.1343377,0.5413 -0.1343377,0.26473 -0.395111,0.47018 -0.2607732,0.20546 -0.6400798,0.32795 -0.3793065,0.12643 -0.8692442,0.12643 -0.4820355,0 -0.8336845,-0.0909 -0.347697,-0.0909 -0.580813,-0.24102 -0.229164,-0.14619 -0.339795,-0.3398 -0.110631,-0.1936 -0.110631,-0.40301 0,-0.27263 0.165946,-0.45833 0.165947,-0.18965 0.454378,-0.29633 -0.138289,-0.0909 -0.221262,-0.23312 -0.08297,-0.14224 -0.08297,-0.35955 0,-0.0909 0.03161,-0.18965 0.03161,-0.10273 0.09878,-0.19756 0.06717,-0.0948 0.169898,-0.18175 0.102729,-0.0869 0.244969,-0.15409 -0.32004,-0.1699 -0.505742,-0.45043 -0.181752,-0.28053 -0.181752,-0.65193 0,-0.30819 0.130387,-0.55316 0.130387,-0.24892 0.3556,-0.41881 0.229164,-0.17385 0.537351,-0.26473 0.308187,-0.0948 0.6677375,-0.0948 z m 0.9087553,4.31857 q 0,-0.0988 -0.063218,-0.15805 -0.059267,-0.0593 -0.1659466,-0.0948 -0.1027288,-0.0356 -0.2449688,-0.0514 -0.1382888,-0.0158 -0.3002843,-0.0237 -0.1619955,-0.008 -0.3358443,-0.0119 -0.173849,-0.008 -0.343747,-0.0277 -0.114582,0.079 -0.189653,0.1778 -0.07112,0.0948 -0.07112,0.21732 0,0.0869 0.03556,0.15804 0.03951,0.0711 0.134338,0.12248 0.09483,0.0514 0.252871,0.079 0.161995,0.0316 0.4069642,0.0316 0.2647243,0 0.4346221,-0.0316 0.1698977,-0.0316 0.2686754,-0.0869 0.1027289,-0.0553 0.14224,-0.13434 0.039511,-0.0751 0.039511,-0.16594 z m -0.9087553,-2.41413 q 0.3042355,0 0.4385732,-0.15014 0.1382889,-0.1541 0.1382889,-0.39511 0,-0.24892 -0.1382889,-0.39116 -0.1343377,-0.14224 -0.4385732,-0.14224 -0.3042355,0 -0.4425245,0.14224 -0.134338,0.14224 -0.134338,0.39116 0,0.11853 0.03161,0.21731 0.03556,0.0988 0.10668,0.17385 0.07112,0.0711 0.1778,0.11458 0.110631,0.0395 0.2607735,0.0395 z"
         style="font-style:normal;font-variant:normal;font-weight:900;font-stretch:normal;font-size:7.90222px;line-height:1;font-family:Lato;-inkscape-font-specification:'Lato, Heavy';font-variant-ligatures:normal;font-variant-caps:normal;font-variant-numeric:normal;font-variant-east-asian:normal;font-variation-settings:normal;vector-effect:none;fill:#ffffff;fill-opacity:1;stroke:#000000;stroke-width:0.529167;stroke-linecap:round;stroke-linejoin:round;stroke-miterlimit:4;stroke-dasharray:none;stroke-dashoffset:0;stroke-opacity:0.5;paint-order:stroke fill markers;stop-color:#000000;stop-opacity:1"
         id="path2815" />
      <path
         d="m -4.4536961,196.68818 v 4.09731 h -1.2248441 v -4.09731 z m 0.14224,-1.12211 q 0,0.14619 -0.059267,0.27658 -0.059267,0.12643 -0.1619955,0.22521 -0.1027289,0.0948 -0.2410177,0.15409 -0.1343377,0.0553 -0.288431,0.0553 -0.1501422,0 -0.2805288,-0.0553 -0.1303866,-0.0593 -0.2331155,-0.15409 -0.098778,-0.0988 -0.1580444,-0.22521 -0.055315,-0.13039 -0.055315,-0.27658 0,-0.15014 0.055315,-0.28053 0.059267,-0.13039 0.1580444,-0.22916 0.1027289,-0.0988 0.2331155,-0.1541 0.1303866,-0.0553 0.2805288,-0.0553 0.1540933,0 0.288431,0.0553 0.1382888,0.0553 0.2410177,0.1541 0.1027289,0.0988 0.1619955,0.22916 0.059267,0.13039 0.059267,0.28053 z"
         style="font-style:normal;font-variant:normal;font-weight:900;font-stretch:normal;font-size:7.90222px;line-height:1;font-family:Lato;-inkscape-font-specification:'Lato, Heavy';font-variant-ligatures:normal;font-variant-caps:normal;font-variant-numeric:normal;font-variant-east-asian:normal;font-variation-settings:normal;vector-effect:none;fill:#ffffff;fill-opacity:1;stroke:#000000;stroke-width:0.529167;stroke-linecap:round;stroke-linejoin:round;stroke-miterlimit:4;stroke-dasharray:none;stroke-dashoffset:0;stroke-opacity:0.5;paint-order:stroke fill markers;stop-color:#000000;stop-opacity:1"
         id="path2817" />
      <path
         d="m 0.5642046,197.58509 q -0.0474133,0.0751 -0.10272885,0.10668 -0.0513644,0.0316 -0.13433774,0.0316 -0.0869244,0 -0.17384883,-0.0356 -0.08692442,-0.0395 -0.18965328,-0.083 -0.09877775,-0.0435 -0.22521326,-0.079 -0.12643552,-0.0395 -0.28843102,-0.0395 -0.23311549,0 -0.359551,0.0909 -0.12248442,0.0869 -0.12248442,0.24497 0,0.11459 0.0790222,0.18966 0.0829733,0.0751 0.21731104,0.13433 0.13433774,0.0553 0.30423546,0.10668 0.16989773,0.0514 0.34769767,0.11459 0.17779995,0.0632 0.34769767,0.15014 0.16989773,0.083 0.30423546,0.20941 0.13433774,0.12248 0.21335994,0.30028 0.0829733,0.1778 0.0829733,0.42672 0,0.30424 -0.11063107,0.56106 -0.11063108,0.25682 -0.33189323,0.44252 -0.21731105,0.18571 -0.54130206,0.28843 -0.3200399,0.10273 -0.73885755,0.10273 -0.20940884,0 -0.41881764,-0.0395 -0.2094088,-0.0395 -0.4069643,-0.10668 -0.1936044,-0.0672 -0.359551,-0.15804 -0.1659466,-0.0948 -0.2844799,-0.20151 l 0.2844799,-0.45043 q 0.051364,-0.079 0.1224844,-0.12248 0.07112,-0.0474 0.1857021,-0.0474 0.10668,0 0.1896533,0.0474 0.086924,0.0474 0.1857022,0.10273 0.098778,0.0553 0.2291644,0.10273 0.1343377,0.0474 0.3358443,0.0474 0.14223996,0 0.24101771,-0.0277 0.0987777,-0.0316 0.15804439,-0.083 0.0592667,-0.0514 0.0869244,-0.11458 0.0276578,-0.0632 0.0276578,-0.13039 0,-0.12248 -0.0829733,-0.20151 -0.0829733,-0.079 -0.21731104,-0.13433 -0.13433774,-0.0593 -0.30818657,-0.10668 -0.16989777,-0.0514 -0.34769767,-0.11459 -0.1777999,-0.0632 -0.3516488,-0.15014 -0.1698977,-0.0909 -0.3042354,-0.22521 -0.1343378,-0.13829 -0.2173111,-0.33584 -0.082973,-0.19756 -0.082973,-0.47809 0,-0.26077 0.098778,-0.49389 0.1027289,-0.23706 0.3042355,-0.41486 0.2015066,-0.1778 0.5057421,-0.28053 0.30423544,-0.10668 0.71119976,-0.10668 0.22126215,0 0.42671986,0.0395 0.20940883,0.0395 0.39115988,0.11063 0.18175106,0.0711 0.33189323,0.1699 0.15014218,0.0948 0.26472437,0.20941 z"
         style="font-style:normal;font-variant:normal;font-weight:900;font-stretch:normal;font-size:7.90222px;line-height:1;font-family:Lato;-inkscape-font-specification:'Lato, Heavy';font-variant-ligatures:normal;font-variant-caps:normal;font-variant-numeric:normal;font-variant-east-asian:normal;font-variation-settings:normal;vector-effect:none;fill:#ffffff;fill-opacity:1;stroke:#000000;stroke-width:0.529167;stroke-linecap:round;stroke-linejoin:round;stroke-miterlimit:4;stroke-dasharray:none;stroke-dashoffset:0;stroke-opacity:0.5;paint-order:stroke fill markers;stop-color:#000000;stop-opacity:1"
         id="path2819" />
      <path
         d="m 2.800523,194.87067 v 5.91482 H 1.5756789 v -5.91482 z"
         style="font-style:normal;font-variant:normal;font-weight:900;font-stretch:normal;font-size:7.90222px;line-height:1;font-family:Lato;-inkscape-font-specification:'Lato, Heavy';font-variant-ligatures:normal;font-variant-caps:normal;font-variant-numeric:normal;font-variant-east-asian:normal;font-variation-settings:normal;vector-effect:none;fill:#ffffff;fill-opacity:1;stroke:#000000;stroke-width:0.529167;stroke-linecap:round;stroke-linejoin:round;stroke-miterlimit:4;stroke-dasharray:none;stroke-dashoffset:0;stroke-opacity:0.5;paint-order:stroke fill markers;stop-color:#000000;stop-opacity:1"
         id="path2821" />
      <path
         d="m 5.613713,196.62497 q 0.4662309,0 0.8494886,0.14619 0.3832577,0.14619 0.6558842,0.41882 0.2765777,0.27262 0.4267199,0.66378 0.1540933,0.38721 0.1540933,0.8732 0,0.48993 -0.1540933,0.88505 -0.1501422,0.39116 -0.4267199,0.66773 -0.2726265,0.27263 -0.6558842,0.42277 -0.3832577,0.14619 -0.8494886,0.14619 -0.4701821,0 -0.8573909,-0.14619 -0.3832576,-0.15014 -0.6637864,-0.42277 -0.2765777,-0.27657 -0.430671,-0.66773 -0.1501422,-0.39512 -0.1501422,-0.88505 0,-0.48599 0.1501422,-0.8732 0.1540933,-0.39116 0.430671,-0.66378 0.2805288,-0.27263 0.6637864,-0.41882 0.3872088,-0.14619 0.8573909,-0.14619 z m 0,3.31498 q 0.4227687,0 0.6203242,-0.29634 0.2015066,-0.30028 0.2015066,-0.90875 0,-0.60847 -0.2015066,-0.9048 -0.1975555,-0.29634 -0.6203242,-0.29634 -0.4346221,0 -0.6361287,0.29634 -0.2015066,0.29633 -0.2015066,0.9048 0,0.60847 0.2015066,0.90875 0.2015066,0.29634 0.6361287,0.29634 z M 5.4872775,195.6688 q 0,0.12643 -0.051365,0.23706 -0.051364,0.11064 -0.1422399,0.19361 -0.086924,0.079 -0.2054577,0.12643 -0.1145822,0.0474 -0.24892,0.0474 -0.1264355,0 -0.2410177,-0.0474 -0.110631,-0.0474 -0.1975555,-0.12643 -0.082973,-0.083 -0.1343377,-0.19361 -0.051364,-0.11063 -0.051364,-0.23706 0,-0.13039 0.051364,-0.24497 0.051364,-0.11458 0.1343377,-0.19756 0.086925,-0.0869 0.1975555,-0.13433 0.1145822,-0.0514 0.2410177,-0.0514 0.1343378,0 0.24892,0.0514 0.1185333,0.0474 0.2054577,0.13433 0.090875,0.083 0.1422399,0.19756 0.051365,0.11458 0.051365,0.24497 z m 1.5251284,0 q 0,0.12643 -0.051365,0.23706 -0.047413,0.11064 -0.1343377,0.19361 -0.086924,0.079 -0.2054577,0.12643 -0.1145822,0.0474 -0.2489199,0.0474 -0.1303867,0 -0.2449688,-0.0474 -0.1145822,-0.0474 -0.2015066,-0.12643 -0.086924,-0.083 -0.1382889,-0.19361 -0.047413,-0.11063 -0.047413,-0.23706 0,-0.13039 0.047413,-0.24497 0.051364,-0.11458 0.1382889,-0.19756 0.086924,-0.0869 0.2015066,-0.13433 0.1145821,-0.0514 0.2449688,-0.0514 0.1343377,0 0.2489199,0.0514 0.1185333,0.0474 0.2054577,0.13433 0.086924,0.083 0.1343377,0.19756 0.051365,0.11458 0.051365,0.24497 z"
         style="font-style:normal;font-variant:normal;font-weight:900;font-stretch:normal;font-size:7.90222px;line-height:1;font-family:Lato;-inkscape-font-specification:'Lato, Heavy';font-variant-ligatures:normal;font-variant-caps:normal;font-variant-numeric:normal;font-variant-east-asian:normal;font-variation-settings:normal;vector-effect:none;fill:#ffffff;fill-opacity:1;stroke:#000000;stroke-width:0.529167;stroke-linecap:round;stroke-linejoin:round;stroke-miterlimit:4;stroke-dasharray:none;stroke-dashoffset:0;stroke-opacity:0.5;paint-order:stroke fill markers;stop-color:#000000;stop-opacity:1"
         id="path2823" />
      <path
         d="m 9.6359417,196.68818 v 4.10521 q 0,0.28843 -0.075071,0.5413 -0.07112,0.25682 -0.2410177,0.44648 -0.1659466,0.1936 -0.4425243,0.30423 -0.2726266,0.11063 -0.6795909,0.11063 -0.1501422,0 -0.2805288,-0.0198 -0.1264356,-0.0158 -0.2647244,-0.0514 l 0.039511,-0.64403 q 0.0079,-0.083 0.055315,-0.12248 0.047413,-0.0395 0.1896533,-0.0395 0.14224,0 0.2331155,-0.0237 0.090876,-0.0237 0.1422399,-0.083 0.055316,-0.0593 0.075071,-0.162 0.023707,-0.0988 0.023707,-0.25682 v -4.10521 z m 0.1422399,-1.12211 q 0,0.14619 -0.059267,0.27658 -0.059267,0.12643 -0.1619955,0.22521 -0.1027289,0.0948 -0.2410177,0.15409 -0.1343378,0.0553 -0.2884311,0.0553 -0.1501421,0 -0.2805288,-0.0553 -0.1303866,-0.0593 -0.2331154,-0.15409 -0.098778,-0.0988 -0.1580444,-0.22521 -0.055316,-0.13039 -0.055316,-0.27658 0,-0.15014 0.055316,-0.28053 0.059267,-0.13039 0.1580444,-0.22916 0.1027288,-0.0988 0.2331154,-0.1541 0.1303867,-0.0553 0.2805288,-0.0553 0.1540933,0 0.2884311,0.0553 0.1382888,0.0553 0.2410177,0.1541 0.1027288,0.0988 0.1619955,0.22916 0.059267,0.13039 0.059267,0.28053 z"
         style="font-style:normal;font-variant:normal;font-weight:900;font-stretch:normal;font-size:7.90222px;line-height:1;font-family:Lato;-inkscape-font-specification:'Lato, Heavy';font-variant-ligatures:normal;font-variant-caps:normal;font-variant-numeric:normal;font-variant-east-asian:normal;font-variation-settings:normal;vector-effect:none;fill:#ffffff;fill-opacity:1;stroke:#000000;stroke-width:0.529167;stroke-linecap:round;stroke-linejoin:round;stroke-miterlimit:4;stroke-dasharray:none;stroke-dashoffset:0;stroke-opacity:0.5;paint-order:stroke fill markers;stop-color:#000000;stop-opacity:1"
         id="path2825" />
      <path
         d="m 13.484315,200.78549 q -0.114582,0 -0.193604,-0.0514 -0.07507,-0.0514 -0.10668,-0.15409 l -0.09483,-0.31214 q -0.122484,0.13039 -0.256822,0.23707 -0.134338,0.10668 -0.292382,0.1857 -0.154094,0.0751 -0.335845,0.11458 -0.1778,0.0435 -0.387208,0.0435 -0.32004,0 -0.592667,-0.14224 -0.272626,-0.14224 -0.470182,-0.41091 -0.197555,-0.26868 -0.312138,-0.65589 -0.110631,-0.39116 -0.110631,-0.889 0,-0.45832 0.126436,-0.84948 0.126435,-0.39512 0.3556,-0.6796 0.233115,-0.28843 0.557106,-0.45042 0.323991,-0.162 0.715151,-0.162 0.316089,0 0.5334,0.0948 0.221262,0.0909 0.399062,0.24102 v -2.07434 h 1.224844 v 5.91482 z m -1.240649,-0.87715 q 0.134338,0 0.241018,-0.0237 0.110631,-0.0277 0.201507,-0.0751 0.09087,-0.0474 0.169898,-0.11853 0.08297,-0.0711 0.161995,-0.16595 v -1.73849 q -0.14224,-0.15409 -0.304235,-0.21336 -0.158045,-0.0632 -0.335845,-0.0632 -0.169898,0 -0.312137,0.0672 -0.14224,0.0672 -0.24892,0.21732 -0.102729,0.14619 -0.161996,0.38325 -0.05927,0.23707 -0.05927,0.57291 0,0.32399 0.04741,0.54526 0.04741,0.22126 0.130386,0.35955 0.08693,0.13434 0.205458,0.1936 0.118533,0.0593 0.264724,0.0593 z"
         style="font-style:normal;font-variant:normal;font-weight:900;font-stretch:normal;font-size:7.90222px;line-height:1;font-family:Lato;-inkscape-font-specification:'Lato, Heavy';font-variant-ligatures:normal;font-variant-caps:normal;font-variant-numeric:normal;font-variant-east-asian:normal;font-variation-settings:normal;vector-effect:none;fill:#ffffff;fill-opacity:1;stroke:#000000;stroke-width:0.529167;stroke-linecap:round;stroke-linejoin:round;stroke-miterlimit:4;stroke-dasharray:none;stroke-dashoffset:0;stroke-opacity:0.5;paint-order:stroke fill markers;stop-color:#000000;stop-opacity:1"
         id="path2827" />
      <path
         d="m 15.191193,202.0854 v -5.39722 h 0.758613 q 0.114583,0 0.189654,0.0514 0.07902,0.0514 0.110631,0.15409 l 0.09088,0.30029 q 0.118534,-0.13039 0.252871,-0.23707 0.138289,-0.10668 0.292382,-0.18175 0.158045,-0.079 0.335845,-0.12249 0.181751,-0.0435 0.395111,-0.0435 0.32004,0 0.592666,0.14224 0.272627,0.14224 0.470182,0.41092 0.197556,0.26867 0.308187,0.65983 0.114582,0.38721 0.114582,0.8811 0,0.46228 -0.130387,0.85344 -0.126435,0.39116 -0.359551,0.67959 -0.229164,0.28843 -0.553155,0.45043 -0.32004,0.16199 -0.7112,0.16199 -0.32004,0 -0.537351,-0.0909 -0.217311,-0.0909 -0.395111,-0.24497 v 1.57254 z m 1.999262,-4.53982 q -0.134338,0 -0.244969,0.0276 -0.10668,0.0237 -0.201507,0.0711 -0.09088,0.0474 -0.169897,0.12249 -0.07902,0.0711 -0.158045,0.16594 v 1.73849 q 0.138289,0.1541 0.300285,0.21731 0.161995,0.0593 0.339795,0.0593 0.169898,0 0.312138,-0.0672 0.14224,-0.0672 0.244969,-0.21336 0.10668,-0.15014 0.165946,-0.38721 0.05927,-0.23706 0.05927,-0.57686 0,-0.32399 -0.04741,-0.54525 -0.04741,-0.22126 -0.134338,-0.3556 -0.08297,-0.13829 -0.201507,-0.19756 -0.118533,-0.0593 -0.264724,-0.0593 z"
         style="font-style:normal;font-variant:normal;font-weight:900;font-stretch:normal;font-size:7.90222px;line-height:1;font-family:Lato;-inkscape-font-specification:'Lato, Heavy';font-variant-ligatures:normal;font-variant-caps:normal;font-variant-numeric:normal;font-variant-east-asian:normal;font-variation-settings:normal;vector-effect:none;fill:#ffffff;fill-opacity:1;stroke:#000000;stroke-width:0.529167;stroke-linecap:round;stroke-linejoin:round;stroke-miterlimit:4;stroke-dasharray:none;stroke-dashoffset:0;stroke-opacity:0.5;paint-order:stroke fill markers;stop-color:#000000;stop-opacity:1"
         id="path2829" />
      <path
         d="m 21.51296,196.62497 q 0.406965,0 0.742809,0.12643 0.339796,0.12644 0.580813,0.36746 0.244969,0.24101 0.379307,0.59266 0.138289,0.3477 0.138289,0.79022 0,0.13829 -0.01185,0.22522 -0.01185,0.0869 -0.04346,0.13829 -0.03161,0.0514 -0.08692,0.0711 -0.05137,0.0197 -0.134338,0.0197 h -2.362764 q 0.05927,0.51365 0.312138,0.74676 0.252871,0.22917 0.651933,0.22917 0.21336,0 0.367453,-0.0514 0.154094,-0.0514 0.272627,-0.11458 0.122484,-0.0632 0.221262,-0.11458 0.102729,-0.0514 0.21336,-0.0514 0.146191,0 0.221262,0.10668 l 0.3556,0.43858 q -0.189653,0.21731 -0.410915,0.3556 -0.217311,0.13433 -0.450427,0.21336 -0.229164,0.0751 -0.46228,0.10272 -0.229164,0.0316 -0.438573,0.0316 -0.430671,0 -0.809978,-0.13829 -0.375355,-0.14224 -0.659835,-0.41881 -0.280529,-0.27658 -0.446475,-0.6875 -0.161996,-0.41091 -0.161996,-0.95617 0,-0.41091 0.138289,-0.77836 0.14224,-0.36746 0.403013,-0.64403 0.264725,-0.27658 0.636129,-0.43858 0.375355,-0.16199 0.845537,-0.16199 z m 0.02371,0.84553 q -0.351649,0 -0.549204,0.20151 -0.197556,0.19756 -0.260773,0.57291 h 1.529079 q 0,-0.14619 -0.03951,-0.28448 -0.03556,-0.13829 -0.122484,-0.24497 -0.08297,-0.11063 -0.221263,-0.1778 -0.138288,-0.0672 -0.335844,-0.0672 z"
         style="font-style:normal;font-variant:normal;font-weight:900;font-stretch:normal;font-size:7.90222px;line-height:1;font-family:Lato;-inkscape-font-specification:'Lato, Heavy';font-variant-ligatures:normal;font-variant-caps:normal;font-variant-numeric:normal;font-variant-east-asian:normal;font-variation-settings:normal;vector-effect:none;fill:#ffffff;fill-opacity:1;stroke:#000000;stroke-width:0.529167;stroke-linecap:round;stroke-linejoin:round;stroke-miterlimit:4;stroke-dasharray:none;stroke-dashoffset:0;stroke-opacity:0.5;paint-order:stroke fill markers;stop-color:#000000;stop-opacity:1"
         id="path2831" />
      <path
         d="m 26.933877,200.78549 q -0.114582,0 -0.193604,-0.0514 -0.07507,-0.0514 -0.10668,-0.15409 l -0.09483,-0.31214 q -0.122484,0.13039 -0.256822,0.23707 -0.134338,0.10668 -0.292382,0.1857 -0.154093,0.0751 -0.335845,0.11458 -0.177799,0.0435 -0.387208,0.0435 -0.32004,0 -0.592667,-0.14224 -0.272626,-0.14224 -0.470182,-0.41091 -0.197555,-0.26868 -0.312138,-0.65589 -0.110631,-0.39116 -0.110631,-0.889 0,-0.45832 0.126436,-0.84948 0.126435,-0.39512 0.3556,-0.6796 0.233115,-0.28843 0.557106,-0.45042 0.323991,-0.162 0.715151,-0.162 0.316089,0 0.5334,0.0948 0.221262,0.0909 0.399062,0.24102 v -2.07434 h 1.224844 v 5.91482 z m -1.240648,-0.87715 q 0.134337,0 0.241017,-0.0237 0.110631,-0.0277 0.201507,-0.0751 0.09088,-0.0474 0.169898,-0.11853 0.08297,-0.0711 0.161995,-0.16595 v -1.73849 q -0.14224,-0.15409 -0.304235,-0.21336 -0.158045,-0.0632 -0.335845,-0.0632 -0.169897,0 -0.312137,0.0672 -0.14224,0.0672 -0.24892,0.21732 -0.102729,0.14619 -0.161996,0.38325 -0.05927,0.23707 -0.05927,0.57291 0,0.32399 0.04741,0.54526 0.04741,0.22126 0.130386,0.35955 0.08693,0.13434 0.205458,0.1936 0.118533,0.0593 0.264725,0.0593 z"
         style="font-style:normal;font-variant:normal;font-weight:900;font-stretch:normal;font-size:7.90222px;line-height:1;font-family:Lato;-inkscape-font-specification:'Lato, Heavy';font-variant-ligatures:normal;font-variant-caps:normal;font-variant-numeric:normal;font-variant-east-asian:normal;font-variation-settings:normal;vector-effect:none;fill:#ffffff;fill-opacity:1;stroke:#000000;stroke-width:0.529167;stroke-linecap:round;stroke-linejoin:round;stroke-miterlimit:4;stroke-dasharray:none;stroke-dashoffset:0;stroke-opacity:0.5;paint-order:stroke fill markers;stop-color:#000000;stop-opacity:1"
         id="path2833" />
      <path
         d="m 31.469746,200.78549 q -0.173849,0 -0.264724,-0.0474 -0.08693,-0.0474 -0.146191,-0.19755 l -0.08693,-0.22522 q -0.154093,0.13039 -0.296333,0.22917 -0.14224,0.0988 -0.296333,0.1699 -0.150142,0.0672 -0.323991,0.0988 -0.169898,0.0356 -0.379307,0.0356 -0.280528,0 -0.509693,-0.0711 -0.229164,-0.0751 -0.39116,-0.21731 -0.158044,-0.14224 -0.244969,-0.35165 -0.08692,-0.21336 -0.08692,-0.48993 0,-0.21732 0.110631,-0.44648 0.110631,-0.22916 0.383258,-0.41487 0.272626,-0.18965 0.734906,-0.31609 0.46228,-0.12643 1.165578,-0.14223 v -0.17385 q 0,-0.35955 -0.150143,-0.5176 -0.146191,-0.16199 -0.418817,-0.16199 -0.217311,0 -0.3556,0.0474 -0.138289,0.0474 -0.24892,0.10668 -0.10668,0.0593 -0.209409,0.10668 -0.102729,0.0474 -0.244969,0.0474 -0.126435,0 -0.217311,-0.0593 -0.08692,-0.0632 -0.138289,-0.1541 l -0.221262,-0.38326 q 0.371405,-0.32794 0.821831,-0.48598 0.454378,-0.162 0.971973,-0.162 0.371405,0 0.667738,0.12249 0.300284,0.11853 0.505742,0.33584 0.209409,0.21336 0.32004,0.50969 0.110631,0.29634 0.110631,0.64799 v 2.56032 z m -1.406595,-0.74676 q 0.237067,0 0.414867,-0.083 0.1778,-0.083 0.359551,-0.26867 v -0.56896 q -0.367454,0.0158 -0.60452,0.0632 -0.237067,0.0474 -0.375356,0.11854 -0.138288,0.0711 -0.193604,0.16199 -0.05136,0.0909 -0.05136,0.19756 0,0.20941 0.114582,0.29633 0.114582,0.083 0.335844,0.083 z"
         style="font-style:normal;font-variant:normal;font-weight:900;font-stretch:normal;font-size:7.90222px;line-height:1;font-family:Lato;-inkscape-font-specification:'Lato, Heavy';font-variant-ligatures:normal;font-variant-caps:normal;font-variant-numeric:normal;font-variant-east-asian:normal;font-variation-settings:normal;vector-effect:none;fill:#ffffff;fill-opacity:1;stroke:#000000;stroke-width:0.529167;stroke-linecap:round;stroke-linejoin:round;stroke-miterlimit:4;stroke-dasharray:none;stroke-dashoffset:0;stroke-opacity:0.5;paint-order:stroke fill markers;stop-color:#000000;stop-opacity:1"
         id="path2835" />
      <path
         d="m 34.34615,196.61706 q 0.260774,0 0.489938,0.0514 0.233115,0.0514 0.430671,0.14619 h 1.236697 v 0.44648 q 0,0.10272 -0.05927,0.16199 -0.05532,0.0593 -0.193605,0.0909 l -0.300284,0.0672 q 0.05532,0.1778 0.05532,0.36745 0,0.30819 -0.130387,0.55315 -0.126436,0.24497 -0.351649,0.41882 -0.221262,0.1699 -0.525498,0.26473 -0.304235,0.0909 -0.651933,0.0909 -0.193604,0 -0.363502,-0.0237 -0.134337,0.079 -0.134337,0.18176 0,0.10272 0.106679,0.15014 0.110632,0.0435 0.288431,0.0632 0.1778,0.0158 0.406965,0.0237 0.229164,0.004 0.466231,0.0277 0.237066,0.0198 0.466231,0.0711 0.229164,0.0514 0.406964,0.16595 0.1778,0.11458 0.28448,0.30818 0.110631,0.18966 0.110631,0.48599 0,0.27658 -0.134338,0.5413 -0.134337,0.26473 -0.395111,0.47018 -0.260773,0.20546 -0.640079,0.32795 -0.379307,0.12643 -0.869245,0.12643 -0.482035,0 -0.833684,-0.0909 -0.347698,-0.0909 -0.580813,-0.24102 -0.229164,-0.14619 -0.339795,-0.3398 -0.110632,-0.1936 -0.110632,-0.40301 0,-0.27263 0.165947,-0.45833 0.165947,-0.18965 0.454378,-0.29633 -0.138289,-0.0909 -0.221262,-0.23312 -0.08297,-0.14224 -0.08297,-0.35955 0,-0.0909 0.03161,-0.18965 0.03161,-0.10273 0.09878,-0.19756 0.06717,-0.0948 0.169898,-0.18175 0.102728,-0.0869 0.244968,-0.15409 -0.320039,-0.1699 -0.505742,-0.45043 -0.181751,-0.28053 -0.181751,-0.65193 0,-0.30819 0.130387,-0.55316 0.130387,-0.24892 0.3556,-0.41881 0.229164,-0.17385 0.537351,-0.26473 0.308186,-0.0948 0.667737,-0.0948 z m 0.908756,4.31857 q 0,-0.0988 -0.06322,-0.15805 -0.05927,-0.0593 -0.165947,-0.0948 -0.102729,-0.0356 -0.244969,-0.0514 -0.138288,-0.0158 -0.300284,-0.0237 -0.161995,-0.008 -0.335844,-0.0119 -0.173849,-0.008 -0.343747,-0.0277 -0.114582,0.079 -0.189653,0.1778 -0.07112,0.0948 -0.07112,0.21732 0,0.0869 0.03556,0.15804 0.03951,0.0711 0.134338,0.12248 0.09483,0.0514 0.252871,0.079 0.161995,0.0316 0.406964,0.0316 0.264724,0 0.434622,-0.0316 0.169898,-0.0316 0.268676,-0.0869 0.102728,-0.0553 0.14224,-0.13434 0.03951,-0.0751 0.03951,-0.16594 z M 34.34615,198.5215 q 0.304236,0 0.438574,-0.15014 0.138288,-0.1541 0.138288,-0.39511 0,-0.24892 -0.138288,-0.39116 -0.134338,-0.14224 -0.438574,-0.14224 -0.304235,0 -0.442524,0.14224 -0.134338,0.14224 -0.134338,0.39116 0,0.11853 0.03161,0.21731 0.03556,0.0988 0.10668,0.17385 0.07112,0.0711 0.1778,0.11458 0.110631,0.0395 0.260773,0.0395 z"
         style="font-style:normal;font-variant:normal;font-weight:900;font-stretch:normal;font-size:7.90222px;line-height:1;font-family:Lato;-inkscape-font-specification:'Lato, Heavy';font-variant-ligatures:normal;font-variant-caps:normal;font-variant-numeric:normal;font-variant-east-asian:normal;font-variation-settings:normal;vector-effect:none;fill:#ffffff;fill-opacity:1;stroke:#000000;stroke-width:0.529167;stroke-linecap:round;stroke-linejoin:round;stroke-miterlimit:4;stroke-dasharray:none;stroke-dashoffset:0;stroke-opacity:0.5;paint-order:stroke fill markers;stop-color:#000000;stop-opacity:1"
         id="path2837" />
      <path
         d="m 38.858308,196.62497 q 0.466231,0 0.849488,0.14619 0.383258,0.14619 0.655884,0.41882 0.276578,0.27262 0.42672,0.66378 0.154094,0.38721 0.154094,0.8732 0,0.48993 -0.154094,0.88505 -0.150142,0.39116 -0.42672,0.66773 -0.272626,0.27263 -0.655884,0.42277 -0.383257,0.14619 -0.849488,0.14619 -0.470183,0 -0.857391,-0.14619 -0.383258,-0.15014 -0.663787,-0.42277 -0.276577,-0.27657 -0.430671,-0.66773 -0.150142,-0.39512 -0.150142,-0.88505 0,-0.48599 0.150142,-0.8732 0.154094,-0.39116 0.430671,-0.66378 0.280529,-0.27263 0.663787,-0.41882 0.387208,-0.14619 0.857391,-0.14619 z m 0,3.31498 q 0.422768,0 0.620324,-0.29634 0.201506,-0.30028 0.201506,-0.90875 0,-0.60847 -0.201506,-0.9048 -0.197556,-0.29634 -0.620324,-0.29634 -0.434623,0 -0.636129,0.29634 -0.201507,0.29633 -0.201507,0.9048 0,0.60847 0.201507,0.90875 0.201506,0.29634 0.636129,0.29634 z"
         style="font-style:normal;font-variant:normal;font-weight:900;font-stretch:normal;font-size:7.90222px;line-height:1;font-family:Lato;-inkscape-font-specification:'Lato, Heavy';font-variant-ligatures:normal;font-variant-caps:normal;font-variant-numeric:normal;font-variant-east-asian:normal;font-variation-settings:normal;vector-effect:none;fill:#ffffff;fill-opacity:1;stroke:#000000;stroke-width:0.529167;stroke-linecap:round;stroke-linejoin:round;stroke-miterlimit:4;stroke-dasharray:none;stroke-dashoffset:0;stroke-opacity:0.5;paint-order:stroke fill markers;stop-color:#000000;stop-opacity:1"
         id="path2839" />
      <path
         d="m 43.062291,196.61706 q 0.260773,0 0.489938,0.0514 0.233115,0.0514 0.430671,0.14619 h 1.236697 v 0.44648 q 0,0.10272 -0.05927,0.16199 -0.05532,0.0593 -0.193604,0.0909 l -0.300284,0.0672 q 0.05531,0.1778 0.05531,0.36745 0,0.30819 -0.130386,0.55315 -0.126436,0.24497 -0.351649,0.41882 -0.221262,0.1699 -0.525498,0.26473 -0.304235,0.0909 -0.651933,0.0909 -0.193604,0 -0.363502,-0.0237 -0.134338,0.079 -0.134338,0.18176 0,0.10272 0.10668,0.15014 0.110631,0.0435 0.288431,0.0632 0.1778,0.0158 0.406965,0.0237 0.229164,0.004 0.466231,0.0277 0.237066,0.0198 0.46623,0.0711 0.229165,0.0514 0.406965,0.16595 0.1778,0.11458 0.28448,0.30818 0.110631,0.18966 0.110631,0.48599 0,0.27658 -0.134338,0.5413 -0.134338,0.26473 -0.395111,0.47018 -0.260773,0.20546 -0.64008,0.32795 -0.379306,0.12643 -0.869244,0.12643 -0.482035,0 -0.833684,-0.0909 -0.347698,-0.0909 -0.580813,-0.24102 -0.229165,-0.14619 -0.339796,-0.3398 -0.110631,-0.1936 -0.110631,-0.40301 0,-0.27263 0.165947,-0.45833 0.165946,-0.18965 0.454377,-0.29633 -0.138288,-0.0909 -0.221262,-0.23312 -0.08297,-0.14224 -0.08297,-0.35955 0,-0.0909 0.03161,-0.18965 0.03161,-0.10273 0.09878,-0.19756 0.06717,-0.0948 0.169897,-0.18175 0.102729,-0.0869 0.244969,-0.15409 -0.32004,-0.1699 -0.505742,-0.45043 -0.181751,-0.28053 -0.181751,-0.65193 0,-0.30819 0.130387,-0.55316 0.130386,-0.24892 0.3556,-0.41881 0.229164,-0.17385 0.537351,-0.26473 0.308186,-0.0948 0.667737,-0.0948 z m 0.908755,4.31857 q 0,-0.0988 -0.06322,-0.15805 -0.05927,-0.0593 -0.165947,-0.0948 -0.102729,-0.0356 -0.244969,-0.0514 -0.138289,-0.0158 -0.300284,-0.0237 -0.161996,-0.008 -0.335845,-0.0119 -0.173848,-0.008 -0.343746,-0.0277 -0.114582,0.079 -0.189653,0.1778 -0.07112,0.0948 -0.07112,0.21732 0,0.0869 0.03556,0.15804 0.03951,0.0711 0.134337,0.12248 0.09483,0.0514 0.252871,0.079 0.161996,0.0316 0.406965,0.0316 0.264724,0 0.434622,-0.0316 0.169898,-0.0316 0.268675,-0.0869 0.102729,-0.0553 0.14224,-0.13434 0.03951,-0.0751 0.03951,-0.16594 z m -0.908755,-2.41413 q 0.304236,0 0.438573,-0.15014 0.138289,-0.1541 0.138289,-0.39511 0,-0.24892 -0.138289,-0.39116 -0.134337,-0.14224 -0.438573,-0.14224 -0.304235,0 -0.442524,0.14224 -0.134338,0.14224 -0.134338,0.39116 0,0.11853 0.03161,0.21731 0.03556,0.0988 0.10668,0.17385 0.07112,0.0711 0.1778,0.11458 0.110631,0.0395 0.260773,0.0395 z"
         style="font-style:normal;font-variant:normal;font-weight:900;font-stretch:normal;font-size:7.90222px;line-height:1;font-family:Lato;-inkscape-font-specification:'Lato, Heavy';font-variant-ligatures:normal;font-variant-caps:normal;font-variant-numeric:normal;font-variant-east-asian:normal;font-variation-settings:normal;vector-effect:none;fill:#ffffff;fill-opacity:1;stroke:#000000;stroke-width:0.529167;stroke-linecap:round;stroke-linejoin:round;stroke-miterlimit:4;stroke-dasharray:none;stroke-dashoffset:0;stroke-opacity:0.5;paint-order:stroke fill markers;stop-color:#000000;stop-opacity:1"
         id="path2841" />
      <path
         d="m 47.013391,196.68818 v 4.09731 h -1.224844 v -4.09731 z m 0.14224,-1.12211 q 0,0.14619 -0.05927,0.27658 -0.05927,0.12643 -0.161996,0.22521 -0.102728,0.0948 -0.241017,0.15409 -0.134338,0.0553 -0.288431,0.0553 -0.150142,0 -0.280529,-0.0553 -0.130387,-0.0593 -0.233116,-0.15409 -0.09878,-0.0988 -0.158044,-0.22521 -0.05532,-0.13039 -0.05532,-0.27658 0,-0.15014 0.05532,-0.28053 0.05927,-0.13039 0.158044,-0.22916 0.102729,-0.0988 0.233116,-0.1541 0.130387,-0.0553 0.280529,-0.0553 0.154093,0 0.288431,0.0553 0.138289,0.0553 0.241017,0.1541 0.102729,0.0988 0.161996,0.22916 0.05927,0.13039 0.05927,0.28053 z"
         style="font-style:normal;font-variant:normal;font-weight:900;font-stretch:normal;font-size:7.90222px;line-height:1;font-family:Lato;-inkscape-font-specification:'Lato, Heavy';font-variant-ligatures:normal;font-variant-caps:normal;font-variant-numeric:normal;font-variant-east-asian:normal;font-variation-settings:normal;vector-effect:none;fill:#ffffff;fill-opacity:1;stroke:#000000;stroke-width:0.529167;stroke-linecap:round;stroke-linejoin:round;stroke-miterlimit:4;stroke-dasharray:none;stroke-dashoffset:0;stroke-opacity:0.5;paint-order:stroke fill markers;stop-color:#000000;stop-opacity:1"
         id="path2843" />
      <path
         d="m 49.226016,194.87067 v 3.31499 h 0.181751 q 0.114582,0 0.173849,-0.0316 0.06322,-0.0316 0.118533,-0.11459 l 0.774418,-1.15372 q 0.06717,-0.10273 0.158044,-0.15014 0.09483,-0.0474 0.237067,-0.0474 h 1.122115 l -1.058898,1.45796 q -0.07507,0.10273 -0.165946,0.18176 -0.08692,0.079 -0.189654,0.14223 0.1778,0.13434 0.308187,0.3556 l 1.153724,1.95976 h -1.106311 q -0.138289,0 -0.241017,-0.0435 -0.09878,-0.0474 -0.161996,-0.16199 l -0.774417,-1.45006 q -0.05532,-0.0988 -0.114583,-0.12644 -0.05927,-0.0316 -0.1778,-0.0316 h -0.237066 v 1.81356 h -1.224844 v -5.91482 z"
         style="font-style:normal;font-variant:normal;font-weight:900;font-stretch:normal;font-size:7.90222px;line-height:1;font-family:Lato;-inkscape-font-specification:'Lato, Heavy';font-variant-ligatures:normal;font-variant-caps:normal;font-variant-numeric:normal;font-variant-east-asian:normal;font-variation-settings:normal;vector-effect:none;fill:#ffffff;fill-opacity:1;stroke:#000000;stroke-width:0.529167;stroke-linecap:round;stroke-linejoin:round;stroke-miterlimit:4;stroke-dasharray:none;stroke-dashoffset:0;stroke-opacity:0.5;paint-order:stroke fill markers;stop-color:#000000;stop-opacity:1"
         id="path2845" />
      <path
         d="m -41.009292,204.52719 q 0.466231,0 0.849489,0.14619 0.383257,0.14619 0.655884,0.41882 0.276578,0.27262 0.42672,0.66378 0.154093,0.38721 0.154093,0.8732 0,0.48993 -0.154093,0.88505 -0.150142,0.39116 -0.42672,0.66773 -0.272627,0.27263 -0.655884,0.42277 -0.383258,0.14619 -0.849489,0.14619 -0.470182,0 -0.857391,-0.14619 -0.383257,-0.15014 -0.663786,-0.42277 -0.276578,-0.27657 -0.430671,-0.66773 -0.150142,-0.39512 -0.150142,-0.88505 0,-0.48599 0.150142,-0.8732 0.154093,-0.39116 0.430671,-0.66378 0.280529,-0.27263 0.663786,-0.41882 0.387209,-0.14619 0.857391,-0.14619 z m 0,3.31498 q 0.422769,0 0.620324,-0.29634 0.201507,-0.30028 0.201507,-0.90875 0,-0.60847 -0.201507,-0.90481 -0.197555,-0.29633 -0.620324,-0.29633 -0.434622,0 -0.636129,0.29633 -0.201506,0.29634 -0.201506,0.90481 0,0.60847 0.201506,0.90875 0.201507,0.29634 0.636129,0.29634 z"
         style="font-style:normal;font-variant:normal;font-weight:900;font-stretch:normal;font-size:7.90222px;line-height:1;font-family:Lato;-inkscape-font-specification:'Lato, Heavy';font-variant-ligatures:normal;font-variant-caps:normal;font-variant-numeric:normal;font-variant-east-asian:normal;font-variation-settings:normal;vector-effect:none;fill:#ffffff;fill-opacity:1;stroke:#000000;stroke-width:0.529167;stroke-linecap:round;stroke-linejoin:round;stroke-miterlimit:4;stroke-dasharray:none;stroke-dashoffset:0;stroke-opacity:0.5;paint-order:stroke fill markers;stop-color:#000000;stop-opacity:1"
         id="path2847" />
      <path
         d="m -35.295988,205.56238 q -0.05532,0.0672 -0.10668,0.10668 -0.05136,0.0395 -0.146191,0.0395 -0.09087,0 -0.165946,-0.0435 -0.07112,-0.0435 -0.161996,-0.0948 -0.09087,-0.0553 -0.21336,-0.0988 -0.122484,-0.0435 -0.304235,-0.0435 -0.225214,0 -0.39116,0.083 -0.161996,0.083 -0.268676,0.23707 -0.10668,0.15409 -0.158044,0.37931 -0.05136,0.22126 -0.05136,0.50179 0,0.58871 0.225213,0.9048 0.229164,0.31609 0.628226,0.31609 0.21336,0 0.335845,-0.0514 0.126435,-0.0553 0.21336,-0.11854 0.08692,-0.0672 0.158044,-0.12248 0.07507,-0.0553 0.185702,-0.0553 0.146191,0 0.221262,0.10668 l 0.3556,0.43858 q -0.189653,0.21731 -0.399062,0.3556 -0.209409,0.13433 -0.430671,0.21336 -0.217311,0.0751 -0.438573,0.10272 -0.221262,0.0316 -0.430671,0.0316 -0.375356,0 -0.719102,-0.14224 -0.339796,-0.14224 -0.600569,-0.41091 -0.256822,-0.27263 -0.410915,-0.66774 -0.150142,-0.39511 -0.150142,-0.90085 0,-0.44253 0.130386,-0.82579 0.134338,-0.3872 0.39116,-0.66773 0.260773,-0.28448 0.64008,-0.44648 0.383258,-0.16199 0.885049,-0.16199 0.482035,0 0.845537,0.15409 0.363502,0.15409 0.655884,0.45043 z"
         style="font-style:normal;font-variant:normal;font-weight:900;font-stretch:normal;font-size:7.90222px;line-height:1;font-family:Lato;-inkscape-font-specification:'Lato, Heavy';font-variant-ligatures:normal;font-variant-caps:normal;font-variant-numeric:normal;font-variant-east-asian:normal;font-variation-settings:normal;vector-effect:none;fill:#ffffff;fill-opacity:1;stroke:#000000;stroke-width:0.529167;stroke-linecap:round;stroke-linejoin:round;stroke-miterlimit:4;stroke-dasharray:none;stroke-dashoffset:0;stroke-opacity:0.5;paint-order:stroke fill markers;stop-color:#000000;stop-opacity:1"
         id="path2849" />
      <path
         d="m -34.410954,208.68771 v -5.91482 h 1.224844 v 2.17707 q 0.221262,-0.18966 0.478085,-0.30424 0.260773,-0.11853 0.620324,-0.11853 0.335844,0 0.592666,0.11853 0.260774,0.11458 0.438573,0.32399 0.1778,0.20546 0.268676,0.49389 0.09088,0.28448 0.09088,0.62032 v 2.60379 h -1.224844 v -2.60379 q 0,-0.30028 -0.138288,-0.46623 -0.138289,-0.16989 -0.406965,-0.16989 -0.201506,0 -0.379306,0.0869 -0.1778,0.0869 -0.339796,0.23311 v 2.91988 z"
         style="font-style:normal;font-variant:normal;font-weight:900;font-stretch:normal;font-size:7.90222px;line-height:1;font-family:Lato;-inkscape-font-specification:'Lato, Heavy';font-variant-ligatures:normal;font-variant-caps:normal;font-variant-numeric:normal;font-variant-east-asian:normal;font-variation-settings:normal;vector-effect:none;fill:#ffffff;fill-opacity:1;stroke:#000000;stroke-width:0.529167;stroke-linecap:round;stroke-linejoin:round;stroke-miterlimit:4;stroke-dasharray:none;stroke-dashoffset:0;stroke-opacity:0.5;paint-order:stroke fill markers;stop-color:#000000;stop-opacity:1"
         id="path2851" />
      <path
         d="m -25.797544,205.48731 q -0.04741,0.0751 -0.102729,0.10668 -0.05136,0.0316 -0.134338,0.0316 -0.08692,0 -0.173849,-0.0356 -0.08692,-0.0395 -0.189653,-0.083 -0.09878,-0.0435 -0.225213,-0.079 -0.126436,-0.0395 -0.288431,-0.0395 -0.233116,0 -0.359551,0.0909 -0.122484,0.0869 -0.122484,0.24497 0,0.11458 0.07902,0.18966 0.08297,0.0751 0.217311,0.13433 0.134337,0.0553 0.304235,0.10668 0.169898,0.0514 0.347698,0.11459 0.1778,0.0632 0.347698,0.15014 0.169897,0.083 0.304235,0.20941 0.134338,0.12248 0.21336,0.30028 0.08297,0.1778 0.08297,0.42672 0,0.30424 -0.110631,0.56106 -0.110631,0.25682 -0.331893,0.44252 -0.217311,0.18571 -0.541302,0.28843 -0.32004,0.10273 -0.738858,0.10273 -0.209408,0 -0.418817,-0.0395 -0.209409,-0.0395 -0.406965,-0.10668 -0.193604,-0.0672 -0.359551,-0.15804 -0.165946,-0.0948 -0.28448,-0.20151 l 0.28448,-0.45043 q 0.05137,-0.079 0.122485,-0.12248 0.07112,-0.0474 0.185702,-0.0474 0.10668,0 0.189653,0.0474 0.08693,0.0474 0.185702,0.10273 0.09878,0.0553 0.229165,0.10273 0.134338,0.0474 0.335844,0.0474 0.14224,0 0.241018,-0.0277 0.09878,-0.0316 0.158044,-0.083 0.05927,-0.0514 0.08692,-0.11458 0.02766,-0.0632 0.02766,-0.13039 0,-0.12248 -0.08297,-0.20151 -0.08297,-0.079 -0.217311,-0.13433 -0.134338,-0.0593 -0.308187,-0.10668 -0.169897,-0.0514 -0.347697,-0.11459 -0.1778,-0.0632 -0.351649,-0.15014 -0.169898,-0.0909 -0.304235,-0.22521 -0.134338,-0.13829 -0.217311,-0.33585 -0.08297,-0.19755 -0.08297,-0.47808 0,-0.26077 0.09878,-0.49389 0.102729,-0.23706 0.304235,-0.41486 0.201507,-0.1778 0.505742,-0.28053 0.304236,-0.10668 0.7112,-0.10668 0.221262,0 0.42672,0.0395 0.209409,0.0395 0.39116,0.11063 0.181751,0.0711 0.331893,0.1699 0.150142,0.0948 0.264725,0.20941 z"
         style="font-style:normal;font-variant:normal;font-weight:900;font-stretch:normal;font-size:7.90222px;line-height:1;font-family:Lato;-inkscape-font-specification:'Lato, Heavy';font-variant-ligatures:normal;font-variant-caps:normal;font-variant-numeric:normal;font-variant-east-asian:normal;font-variation-settings:normal;vector-effect:none;fill:#ffffff;fill-opacity:1;stroke:#000000;stroke-width:0.529167;stroke-linecap:round;stroke-linejoin:round;stroke-miterlimit:4;stroke-dasharray:none;stroke-dashoffset:0;stroke-opacity:0.5;paint-order:stroke fill markers;stop-color:#000000;stop-opacity:1"
         id="path2853" />
      <path
         d="m -23.561227,202.77289 v 5.91482 h -1.224844 v -5.91482 z"
         style="font-style:normal;font-variant:normal;font-weight:900;font-stretch:normal;font-size:7.90222px;line-height:1;font-family:Lato;-inkscape-font-specification:'Lato, Heavy';font-variant-ligatures:normal;font-variant-caps:normal;font-variant-numeric:normal;font-variant-east-asian:normal;font-variation-settings:normal;vector-effect:none;fill:#ffffff;fill-opacity:1;stroke:#000000;stroke-width:0.529167;stroke-linecap:round;stroke-linejoin:round;stroke-miterlimit:4;stroke-dasharray:none;stroke-dashoffset:0;stroke-opacity:0.5;paint-order:stroke fill markers;stop-color:#000000;stop-opacity:1"
         id="path2855" />
      <path
         d="m -20.748037,204.52719 q 0.466231,0 0.849489,0.14619 0.383258,0.14619 0.655884,0.41882 0.276578,0.27262 0.42672,0.66378 0.154093,0.38721 0.154093,0.8732 0,0.48993 -0.154093,0.88505 -0.150142,0.39116 -0.42672,0.66773 -0.272626,0.27263 -0.655884,0.42277 -0.383258,0.14619 -0.849489,0.14619 -0.470182,0 -0.857391,-0.14619 -0.383257,-0.15014 -0.663786,-0.42277 -0.276578,-0.27657 -0.430671,-0.66773 -0.150142,-0.39512 -0.150142,-0.88505 0,-0.48599 0.150142,-0.8732 0.154093,-0.39116 0.430671,-0.66378 0.280529,-0.27263 0.663786,-0.41882 0.387209,-0.14619 0.857391,-0.14619 z m 0,3.31498 q 0.422769,0 0.620325,-0.29634 0.201506,-0.30028 0.201506,-0.90875 0,-0.60847 -0.201506,-0.90481 -0.197556,-0.29633 -0.620325,-0.29633 -0.434622,0 -0.636128,0.29633 -0.201507,0.29634 -0.201507,0.90481 0,0.60847 0.201507,0.90875 0.201506,0.29634 0.636128,0.29634 z m -0.126435,-4.27115 q 0,0.12643 -0.05137,0.23706 -0.05136,0.11064 -0.14224,0.19361 -0.08692,0.079 -0.205457,0.12643 -0.114582,0.0474 -0.24892,0.0474 -0.126436,0 -0.241018,-0.0474 -0.110631,-0.0474 -0.197555,-0.12643 -0.08297,-0.083 -0.134338,-0.19361 -0.05137,-0.11063 -0.05137,-0.23706 0,-0.13039 0.05137,-0.24497 0.05136,-0.11458 0.134338,-0.19756 0.08692,-0.0869 0.197555,-0.13433 0.114582,-0.0514 0.241018,-0.0514 0.134338,0 0.24892,0.0514 0.118533,0.0474 0.205457,0.13433 0.09088,0.083 0.14224,0.19756 0.05137,0.11458 0.05137,0.24497 z m 1.525128,0 q 0,0.12643 -0.05136,0.23706 -0.04741,0.11064 -0.134338,0.19361 -0.08692,0.079 -0.205458,0.12643 -0.114582,0.0474 -0.24892,0.0474 -0.130386,0 -0.244968,-0.0474 -0.114583,-0.0474 -0.201507,-0.12643 -0.08692,-0.083 -0.138289,-0.19361 -0.04741,-0.11063 -0.04741,-0.23706 0,-0.13039 0.04741,-0.24497 0.05137,-0.11458 0.138289,-0.19756 0.08692,-0.0869 0.201507,-0.13433 0.114582,-0.0514 0.244968,-0.0514 0.134338,0 0.24892,0.0514 0.118534,0.0474 0.205458,0.13433 0.08692,0.083 0.134338,0.19756 0.05136,0.11458 0.05136,0.24497 z"
         style="font-style:normal;font-variant:normal;font-weight:900;font-stretch:normal;font-size:7.90222px;line-height:1;font-family:Lato;-inkscape-font-specification:'Lato, Heavy';font-variant-ligatures:normal;font-variant-caps:normal;font-variant-numeric:normal;font-variant-east-asian:normal;font-variation-settings:normal;vector-effect:none;fill:#ffffff;fill-opacity:1;stroke:#000000;stroke-width:0.529167;stroke-linecap:round;stroke-linejoin:round;stroke-miterlimit:4;stroke-dasharray:none;stroke-dashoffset:0;stroke-opacity:0.5;paint-order:stroke fill markers;stop-color:#000000;stop-opacity:1"
         id="path2857" />
      <path
         d="m -16.725808,204.5904 v 4.10521 q 0,0.28843 -0.07507,0.5413 -0.07112,0.25682 -0.241018,0.44647 -0.165946,0.19361 -0.442524,0.30424 -0.272627,0.11063 -0.679591,0.11063 -0.150142,0 -0.280529,-0.0198 -0.126435,-0.0158 -0.264724,-0.0514 l 0.03951,-0.64403 q 0.0079,-0.083 0.05532,-0.12248 0.04741,-0.0395 0.189654,-0.0395 0.14224,0 0.233115,-0.0237 0.09088,-0.0237 0.14224,-0.083 0.05532,-0.0593 0.07507,-0.162 0.02371,-0.0988 0.02371,-0.25682 v -4.10521 z m 0.14224,-1.12211 q 0,0.14619 -0.05927,0.27658 -0.05927,0.12643 -0.161995,0.22521 -0.102729,0.0948 -0.241018,0.15409 -0.134338,0.0553 -0.288431,0.0553 -0.150142,0 -0.280529,-0.0553 -0.130386,-0.0593 -0.233115,-0.15409 -0.09878,-0.0988 -0.158045,-0.22521 -0.05532,-0.13039 -0.05532,-0.27658 0,-0.15014 0.05532,-0.28053 0.05927,-0.13039 0.158045,-0.22916 0.102729,-0.0988 0.233115,-0.1541 0.130387,-0.0553 0.280529,-0.0553 0.154093,0 0.288431,0.0553 0.138289,0.0553 0.241018,0.1541 0.102729,0.0988 0.161995,0.22916 0.05927,0.13039 0.05927,0.28053 z"
         style="font-style:normal;font-variant:normal;font-weight:900;font-stretch:normal;font-size:7.90222px;line-height:1;font-family:Lato;-inkscape-font-specification:'Lato, Heavy';font-variant-ligatures:normal;font-variant-caps:normal;font-variant-numeric:normal;font-variant-east-asian:normal;font-variation-settings:normal;vector-effect:none;fill:#ffffff;fill-opacity:1;stroke:#000000;stroke-width:0.529167;stroke-linecap:round;stroke-linejoin:round;stroke-miterlimit:4;stroke-dasharray:none;stroke-dashoffset:0;stroke-opacity:0.5;paint-order:stroke fill markers;stop-color:#000000;stop-opacity:1"
         id="path2859" />
      <path
         d="m -12.877435,208.68771 q -0.114582,0 -0.193604,-0.0514 -0.07507,-0.0514 -0.10668,-0.15409 l -0.09483,-0.31214 q -0.122484,0.13039 -0.256822,0.23707 -0.134338,0.10668 -0.292382,0.1857 -0.154093,0.0751 -0.335844,0.11458 -0.1778,0.0435 -0.387209,0.0435 -0.32004,0 -0.592667,-0.14224 -0.272626,-0.14224 -0.470182,-0.41091 -0.197555,-0.26868 -0.312137,-0.65589 -0.110631,-0.39116 -0.110631,-0.889 0,-0.45833 0.126435,-0.84949 0.126436,-0.39511 0.3556,-0.67959 0.233116,-0.28843 0.557107,-0.45042 0.323991,-0.162 0.71515,-0.162 0.316089,0 0.5334,0.0948 0.221262,0.0909 0.399062,0.24102 v -2.07434 h 1.224844 v 5.91482 z m -1.240648,-0.87715 q 0.134338,0 0.241018,-0.0237 0.110631,-0.0277 0.201506,-0.0751 0.09088,-0.0474 0.169898,-0.11853 0.08297,-0.0711 0.161995,-0.16595 v -1.73849 q -0.14224,-0.15409 -0.304235,-0.21336 -0.158044,-0.0632 -0.335844,-0.0632 -0.169898,0 -0.312138,0.0672 -0.14224,0.0672 -0.24892,0.21731 -0.102729,0.1462 -0.161996,0.38326 -0.05927,0.23707 -0.05927,0.57291 0,0.32399 0.04741,0.54526 0.04741,0.22126 0.130387,0.35955 0.08692,0.13434 0.205457,0.1936 0.118534,0.0593 0.264725,0.0593 z"
         style="font-style:normal;font-variant:normal;font-weight:900;font-stretch:normal;font-size:7.90222px;line-height:1;font-family:Lato;-inkscape-font-specification:'Lato, Heavy';font-variant-ligatures:normal;font-variant-caps:normal;font-variant-numeric:normal;font-variant-east-asian:normal;font-variation-settings:normal;vector-effect:none;fill:#ffffff;fill-opacity:1;stroke:#000000;stroke-width:0.529167;stroke-linecap:round;stroke-linejoin:round;stroke-miterlimit:4;stroke-dasharray:none;stroke-dashoffset:0;stroke-opacity:0.5;paint-order:stroke fill markers;stop-color:#000000;stop-opacity:1"
         id="path2861" />
      <path
         d="m -8.9026193,208.68771 h -1.1142127 l -1.588346,-4.09731 h 1.019386 q 0.130387,0 0.217311,0.0632 0.09087,0.0593 0.122484,0.15014 l 0.5689602,1.83727 q 0.067169,0.22521 0.1264355,0.43857 0.063218,0.21336 0.1066799,0.42672 0.043462,-0.21336 0.10668,-0.42672 0.063218,-0.21336 0.1343377,-0.43857 l 0.5926665,-1.83727 q 0.031609,-0.0909 0.1185333,-0.15014 0.086924,-0.0632 0.2054577,-0.0632 h 0.9719731 z"
         style="font-style:normal;font-variant:normal;font-weight:900;font-stretch:normal;font-size:7.90222px;line-height:1;font-family:Lato;-inkscape-font-specification:'Lato, Heavy';font-variant-ligatures:normal;font-variant-caps:normal;font-variant-numeric:normal;font-variant-east-asian:normal;font-variation-settings:normal;vector-effect:none;fill:#ffffff;fill-opacity:1;stroke:#000000;stroke-width:0.529167;stroke-linecap:round;stroke-linejoin:round;stroke-miterlimit:4;stroke-dasharray:none;stroke-dashoffset:0;stroke-opacity:0.5;paint-order:stroke fill markers;stop-color:#000000;stop-opacity:1"
         id="path2863" />
      <path
         d="m -5.2043896,204.52719 q 0.4069643,0 0.7428087,0.12643 0.3397954,0.12644 0.5808131,0.36746 0.2449688,0.24101 0.3793066,0.59266 0.1382888,0.3477 0.1382888,0.79022 0,0.13829 -0.011853,0.22522 -0.011853,0.0869 -0.043462,0.13829 -0.031609,0.0514 -0.086924,0.0711 -0.051365,0.0197 -0.1343378,0.0197 h -2.3627637 q 0.059267,0.51365 0.3121377,0.74676 0.252871,0.22917 0.6519331,0.22917 0.21336,0 0.3674533,-0.0514 0.1540932,-0.0514 0.2726265,-0.11458 0.1224844,-0.0632 0.2212622,-0.11458 0.1027289,-0.0514 0.2133599,-0.0514 0.1461911,0 0.2212622,0.10668 l 0.3555999,0.43858 q -0.1896533,0.21731 -0.4109155,0.3556 -0.217311,0.13433 -0.4504265,0.21336 -0.2291644,0.0751 -0.4622798,0.10272 -0.2291644,0.0316 -0.4385732,0.0316 -0.430671,0 -0.8099776,-0.13829 -0.3753554,-0.14224 -0.6598353,-0.41881 -0.2805288,-0.27658 -0.4464754,-0.6875 -0.1619955,-0.41091 -0.1619955,-0.95617 0,-0.41091 0.1382888,-0.77836 0.14224,-0.36746 0.4030132,-0.64403 0.2647244,-0.27658 0.6361287,-0.43858 0.3753554,-0.16199 0.8455375,-0.16199 z m 0.023707,0.84553 q -0.3516488,0 -0.5492043,0.20151 -0.1975555,0.19756 -0.2607732,0.57291 h 1.5290795 q 0,-0.14619 -0.039511,-0.28448 -0.03556,-0.13829 -0.1224844,-0.24497 -0.082973,-0.11063 -0.2212622,-0.1778 -0.1382888,-0.0672 -0.3358443,-0.0672 z"
         style="font-style:normal;font-variant:normal;font-weight:900;font-stretch:normal;font-size:7.90222px;line-height:1;font-family:Lato;-inkscape-font-specification:'Lato, Heavy';font-variant-ligatures:normal;font-variant-caps:normal;font-variant-numeric:normal;font-variant-east-asian:normal;font-variation-settings:normal;vector-effect:none;fill:#ffffff;fill-opacity:1;stroke:#000000;stroke-width:0.529167;stroke-linecap:round;stroke-linejoin:round;stroke-miterlimit:4;stroke-dasharray:none;stroke-dashoffset:0;stroke-opacity:0.5;paint-order:stroke fill markers;stop-color:#000000;stop-opacity:1"
         id="path2865" />
      <path
         d="m -1.2216808,208.75092 q -0.2923821,0 -0.5175954,-0.083 -0.2212621,-0.0869 -0.3753554,-0.24102 -0.1501422,-0.15804 -0.2291644,-0.3793 -0.079022,-0.22127 -0.079022,-0.49389 v -2.1178 h -0.3476976 q -0.094827,0 -0.1619955,-0.0593 -0.067169,-0.0632 -0.067169,-0.18176 v -0.47808 l 0.6519331,-0.12644 0.2410177,-0.99963 q 0.047413,-0.18965 0.2686755,-0.18965 h 0.6400798 v 1.19719 h 0.99567969 v 0.83763 H -1.1979741 v 2.03482 q 0,0.14224 0.067169,0.23707 0.07112,0.0909 0.20150657,0.0909 0.0671689,0 0.11063108,-0.0119 0.0474133,-0.0158 0.0790222,-0.0316 0.03556,-0.0197 0.0632177,-0.0316 0.0316089,-0.0158 0.07112,-0.0158 0.0553155,0 0.0869244,0.0277 0.03556,0.0237 0.07112,0.079 l 0.37140433,0.58081 q -0.2370666,0.1778 -0.53339984,0.26868 -0.29633324,0.0869 -0.61242207,0.0869 z"
         style="font-style:normal;font-variant:normal;font-weight:900;font-stretch:normal;font-size:7.90222px;line-height:1;font-family:Lato;-inkscape-font-specification:'Lato, Heavy';font-variant-ligatures:normal;font-variant-caps:normal;font-variant-numeric:normal;font-variant-east-asian:normal;font-variation-settings:normal;vector-effect:none;fill:#ffffff;fill-opacity:1;stroke:#000000;stroke-width:0.529167;stroke-linecap:round;stroke-linejoin:round;stroke-miterlimit:4;stroke-dasharray:none;stroke-dashoffset:0;stroke-opacity:0.5;paint-order:stroke fill markers;stop-color:#000000;stop-opacity:1"
         id="path2867" />
      <path
         d="m 2.2552929,204.52719 q 0.4069643,0 0.7428086,0.12643 0.3397955,0.12644 0.5808132,0.36746 0.2449688,0.24101 0.3793065,0.59266 0.1382889,0.3477 0.1382889,0.79022 0,0.13829 -0.011853,0.22522 -0.011853,0.0869 -0.043462,0.13829 -0.031609,0.0514 -0.086924,0.0711 -0.051364,0.0197 -0.1343377,0.0197 H 1.4571687 q 0.059267,0.51365 0.3121377,0.74676 0.252871,0.22917 0.6519331,0.22917 0.2133599,0 0.3674532,-0.0514 0.1540933,-0.0514 0.2726266,-0.11458 0.1224844,-0.0632 0.2212622,-0.11458 0.1027288,-0.0514 0.2133599,-0.0514 0.1461911,0 0.2212621,0.10668 l 0.3555999,0.43858 q -0.1896532,0.21731 -0.4109154,0.3556 -0.217311,0.13433 -0.4504265,0.21336 -0.2291644,0.0751 -0.4622799,0.10272 -0.2291643,0.0316 -0.4385732,0.0316 -0.430671,0 -0.8099775,-0.13829 -0.3753554,-0.14224 -0.65983535,-0.41881 -0.2805288,-0.27658 -0.44647542,-0.6875 -0.1619955,-0.41091 -0.1619955,-0.95617 0,-0.41091 0.13828884,-0.77836 0.14223996,-0.36746 0.40301321,-0.64403 0.26472432,-0.27658 0.63612872,-0.43858 0.3753554,-0.16199 0.8455375,-0.16199 z m 0.023707,0.84553 q -0.3516487,0 -0.5492042,0.20151 -0.1975555,0.19756 -0.2607733,0.57291 h 1.5290795 q 0,-0.14619 -0.039511,-0.28448 -0.03556,-0.13829 -0.1224844,-0.24497 -0.082973,-0.11063 -0.2212621,-0.1778 -0.1382889,-0.0672 -0.3358444,-0.0672 z"
         style="font-style:normal;font-variant:normal;font-weight:900;font-stretch:normal;font-size:7.90222px;line-height:1;font-family:Lato;-inkscape-font-specification:'Lato, Heavy';font-variant-ligatures:normal;font-variant-caps:normal;font-variant-numeric:normal;font-variant-east-asian:normal;font-variation-settings:normal;vector-effect:none;fill:#ffffff;fill-opacity:1;stroke:#000000;stroke-width:0.529167;stroke-linecap:round;stroke-linejoin:round;stroke-miterlimit:4;stroke-dasharray:none;stroke-dashoffset:0;stroke-opacity:0.5;paint-order:stroke fill markers;stop-color:#000000;stop-opacity:1"
         id="path2869" />
      <path
         d="m 4.7997977,208.68771 v -4.09731 h 0.7586131 q 0.1145822,0 0.1896533,0.0514 0.079022,0.0514 0.1106311,0.15409 l 0.07112,0.23707 q 0.1185333,-0.11063 0.2449688,-0.20546 0.1264356,-0.0948 0.2686755,-0.15804 0.1461911,-0.0672 0.3121377,-0.10273 0.1698977,-0.0395 0.3674532,-0.0395 0.3358444,0 0.5926665,0.11853 0.2607733,0.11458 0.4385732,0.32399 0.1777999,0.20546 0.2686755,0.49389 0.090875,0.28448 0.090875,0.62032 v 2.60379 H 7.2889969 v -2.60379 q 0,-0.30028 -0.1382888,-0.46623 -0.1382889,-0.16989 -0.4069643,-0.16989 -0.2015066,0 -0.3793066,0.0869 -0.1777999,0.0869 -0.3397954,0.23311 v 2.91988 z"
         style="font-style:normal;font-variant:normal;font-weight:900;font-stretch:normal;font-size:7.90222px;line-height:1;font-family:Lato;-inkscape-font-specification:'Lato, Heavy';font-variant-ligatures:normal;font-variant-caps:normal;font-variant-numeric:normal;font-variant-east-asian:normal;font-variation-settings:normal;vector-effect:none;fill:#ffffff;fill-opacity:1;stroke:#000000;stroke-width:0.529167;stroke-linecap:round;stroke-linejoin:round;stroke-miterlimit:4;stroke-dasharray:none;stroke-dashoffset:0;stroke-opacity:0.5;paint-order:stroke fill markers;stop-color:#000000;stop-opacity:1"
         id="path2871" />
      <path
         d="m 11.888091,205.48731 q -0.04741,0.0751 -0.102728,0.10668 -0.05137,0.0316 -0.134338,0.0316 -0.08693,0 -0.173849,-0.0356 -0.08692,-0.0395 -0.189653,-0.083 -0.09878,-0.0435 -0.225213,-0.079 -0.126436,-0.0395 -0.288432,-0.0395 -0.233115,0 -0.359551,0.0909 -0.122484,0.0869 -0.122484,0.24497 0,0.11458 0.07902,0.18966 0.08297,0.0751 0.217311,0.13433 0.134338,0.0553 0.304236,0.10668 0.169898,0.0514 0.347697,0.11459 0.1778,0.0632 0.347698,0.15014 0.169898,0.083 0.304236,0.20941 0.134337,0.12248 0.21336,0.30028 0.08297,0.1778 0.08297,0.42672 0,0.30424 -0.110631,0.56106 -0.110631,0.25682 -0.331893,0.44252 -0.217312,0.18571 -0.541303,0.28843 -0.320039,0.10273 -0.738857,0.10273 -0.209409,0 -0.418818,-0.0395 -0.2094086,-0.0395 -0.4069641,-0.10668 -0.1936043,-0.0672 -0.359551,-0.15804 -0.1659466,-0.0948 -0.2844799,-0.20151 l 0.2844799,-0.45043 q 0.051365,-0.079 0.1224845,-0.12248 0.07112,-0.0474 0.1857021,-0.0474 0.10668,0 0.1896533,0.0474 0.086924,0.0474 0.1857022,0.10273 0.098778,0.0553 0.229164,0.10273 0.134338,0.0474 0.335845,0.0474 0.14224,0 0.241017,-0.0277 0.09878,-0.0316 0.158045,-0.083 0.05927,-0.0514 0.08692,-0.11458 0.02766,-0.0632 0.02766,-0.13039 0,-0.12248 -0.08297,-0.20151 -0.08297,-0.079 -0.217311,-0.13433 -0.134338,-0.0593 -0.308187,-0.10668 -0.169898,-0.0514 -0.347698,-0.11459 -0.1777996,-0.0632 -0.3516484,-0.15014 -0.1698977,-0.0909 -0.3042355,-0.22521 -0.1343377,-0.13829 -0.217311,-0.33585 -0.082973,-0.19755 -0.082973,-0.47808 0,-0.26077 0.098778,-0.49389 0.1027289,-0.23706 0.3042355,-0.41486 0.2015066,-0.1778 0.505742,-0.28053 0.304236,-0.10668 0.7112,-0.10668 0.221262,0 0.42672,0.0395 0.209409,0.0395 0.39116,0.11063 0.181751,0.0711 0.331893,0.1699 0.150142,0.0948 0.264724,0.20941 z"
         style="font-style:normal;font-variant:normal;font-weight:900;font-stretch:normal;font-size:7.90222px;line-height:1;font-family:Lato;-inkscape-font-specification:'Lato, Heavy';font-variant-ligatures:normal;font-variant-caps:normal;font-variant-numeric:normal;font-variant-east-asian:normal;font-variation-settings:normal;vector-effect:none;fill:#ffffff;fill-opacity:1;stroke:#000000;stroke-width:0.529167;stroke-linecap:round;stroke-linejoin:round;stroke-miterlimit:4;stroke-dasharray:none;stroke-dashoffset:0;stroke-opacity:0.5;paint-order:stroke fill markers;stop-color:#000000;stop-opacity:1"
         id="path2873" />
      <path
         d="m 14.084895,202.77289 v 3.31498 h 0.181751 q 0.114582,0 0.173849,-0.0316 0.06322,-0.0316 0.118533,-0.11459 l 0.774418,-1.15372 q 0.06717,-0.10273 0.158044,-0.15014 0.09483,-0.0474 0.237067,-0.0474 h 1.122115 l -1.058898,1.45796 q -0.07507,0.10273 -0.165946,0.18175 -0.08693,0.079 -0.189654,0.14224 0.1778,0.13434 0.308187,0.3556 l 1.153724,1.95976 h -1.106311 q -0.138288,0 -0.241017,-0.0435 -0.09878,-0.0474 -0.161996,-0.16199 l -0.774417,-1.45006 q -0.05532,-0.0988 -0.114583,-0.12644 -0.05927,-0.0316 -0.177799,-0.0316 h -0.237067 v 1.81356 h -1.224844 v -5.91482 z"
         style="font-style:normal;font-variant:normal;font-weight:900;font-stretch:normal;font-size:7.90222px;line-height:1;font-family:Lato;-inkscape-font-specification:'Lato, Heavy';font-variant-ligatures:normal;font-variant-caps:normal;font-variant-numeric:normal;font-variant-east-asian:normal;font-variation-settings:normal;vector-effect:none;fill:#ffffff;fill-opacity:1;stroke:#000000;stroke-width:0.529167;stroke-linecap:round;stroke-linejoin:round;stroke-miterlimit:4;stroke-dasharray:none;stroke-dashoffset:0;stroke-opacity:0.5;paint-order:stroke fill markers;stop-color:#000000;stop-opacity:1"
         id="path2875" />
      <path
         d="m 20.240712,208.68771 q -0.173849,0 -0.264725,-0.0474 -0.08692,-0.0474 -0.146191,-0.19755 l -0.08692,-0.22522 q -0.154093,0.13039 -0.296333,0.22917 -0.14224,0.0988 -0.296334,0.1699 -0.150142,0.0672 -0.323991,0.0988 -0.169897,0.0356 -0.379306,0.0356 -0.280529,0 -0.509693,-0.0711 -0.229165,-0.0751 -0.39116,-0.21731 -0.158045,-0.14224 -0.244969,-0.35165 -0.08692,-0.21336 -0.08692,-0.48993 0,-0.21732 0.110631,-0.44648 0.110631,-0.22916 0.383257,-0.41487 0.272627,-0.18965 0.734907,-0.31609 0.46228,-0.12643 1.165577,-0.14224 v -0.17384 q 0,-0.35956 -0.150142,-0.5176 -0.146191,-0.16199 -0.418818,-0.16199 -0.217311,0 -0.3556,0.0474 -0.138288,0.0474 -0.248919,0.10668 -0.10668,0.0593 -0.209409,0.10668 -0.102729,0.0474 -0.244969,0.0474 -0.126436,0 -0.217311,-0.0593 -0.08693,-0.0632 -0.138289,-0.15409 l -0.221262,-0.38326 q 0.371404,-0.32794 0.821831,-0.48598 0.454377,-0.162 0.971973,-0.162 0.371404,0 0.667737,0.12249 0.300285,0.11853 0.505742,0.33584 0.209409,0.21336 0.32004,0.50969 0.110631,0.29634 0.110631,0.64799 v 2.56032 z m -1.406595,-0.74676 q 0.237066,0 0.414866,-0.083 0.1778,-0.083 0.359551,-0.26867 v -0.56896 q -0.367453,0.0158 -0.60452,0.0632 -0.237066,0.0474 -0.375355,0.11854 -0.138289,0.0711 -0.193604,0.16199 -0.05136,0.0909 -0.05136,0.19756 0,0.20941 0.114582,0.29633 0.114583,0.083 0.335845,0.083 z"
         style="font-style:normal;font-variant:normal;font-weight:900;font-stretch:normal;font-size:7.90222px;line-height:1;font-family:Lato;-inkscape-font-specification:'Lato, Heavy';font-variant-ligatures:normal;font-variant-caps:normal;font-variant-numeric:normal;font-variant-east-asian:normal;font-variation-settings:normal;vector-effect:none;fill:#ffffff;fill-opacity:1;stroke:#000000;stroke-width:0.529167;stroke-linecap:round;stroke-linejoin:round;stroke-miterlimit:4;stroke-dasharray:none;stroke-dashoffset:0;stroke-opacity:0.5;paint-order:stroke fill markers;stop-color:#000000;stop-opacity:1"
         id="path2877" />
      <path
         d="m 21.67101,209.98762 v -5.39722 h 0.758613 q 0.114582,0 0.189653,0.0514 0.07902,0.0514 0.110631,0.15409 l 0.09088,0.30029 q 0.118533,-0.13039 0.252871,-0.23707 0.138289,-0.10668 0.292382,-0.18175 0.158044,-0.079 0.335844,-0.12249 0.181751,-0.0435 0.395111,-0.0435 0.32004,0 0.592667,0.14224 0.272626,0.14224 0.470182,0.41092 0.197555,0.26867 0.308186,0.65983 0.114582,0.38721 0.114582,0.8811 0,0.46228 -0.130386,0.85344 -0.126436,0.39116 -0.359551,0.67959 -0.229164,0.28843 -0.553156,0.45043 -0.320039,0.16199 -0.711199,0.16199 -0.32004,0 -0.537351,-0.0909 -0.217311,-0.0909 -0.395111,-0.24497 v 1.57254 z m 1.999261,-4.53982 q -0.134337,0 -0.244968,0.0276 -0.10668,0.0237 -0.201507,0.0711 -0.09088,0.0474 -0.169898,0.12249 -0.07902,0.0711 -0.158044,0.16594 v 1.73849 q 0.138289,0.1541 0.300284,0.21731 0.161996,0.0593 0.339796,0.0593 0.169897,0 0.312137,-0.0672 0.14224,-0.0672 0.244969,-0.21336 0.10668,-0.15014 0.165947,-0.38721 0.05927,-0.23706 0.05927,-0.57686 0,-0.32399 -0.04741,-0.54525 -0.04741,-0.22127 -0.134338,-0.3556 -0.08297,-0.13829 -0.201506,-0.19756 -0.118534,-0.0593 -0.264725,-0.0593 z"
         style="font-style:normal;font-variant:normal;font-weight:900;font-stretch:normal;font-size:7.90222px;line-height:1;font-family:Lato;-inkscape-font-specification:'Lato, Heavy';font-variant-ligatures:normal;font-variant-caps:normal;font-variant-numeric:normal;font-variant-east-asian:normal;font-variation-settings:normal;vector-effect:none;fill:#ffffff;fill-opacity:1;stroke:#000000;stroke-width:0.529167;stroke-linecap:round;stroke-linejoin:round;stroke-miterlimit:4;stroke-dasharray:none;stroke-dashoffset:0;stroke-opacity:0.5;paint-order:stroke fill markers;stop-color:#000000;stop-opacity:1"
         id="path2879" />
    </g>
  </g>
</svg>
