<?xml version="1.0" encoding="UTF-8" standalone="no"?>
<svg
   xmlns:dc="http://purl.org/dc/elements/1.1/"
   xmlns:cc="http://creativecommons.org/ns#"
   xmlns:rdf="http://www.w3.org/1999/02/22-rdf-syntax-ns#"
   xmlns:svg="http://www.w3.org/2000/svg"
   xmlns="http://www.w3.org/2000/svg"
   width="352"
   height="105"
   viewBox="0 0 93.133334 27.781247"
   version="1.1"
   id="svg8">
  <defs
     id="defs2" />
  <metadata
     id="metadata5">
    <rdf:RDF>
      <cc:Work
         rdf:about="">
        <dc:format>image/svg+xml</dc:format>
        <dc:type
           rdf:resource="http://purl.org/dc/dcmitype/StillImage" />
        <dc:title></dc:title>
      </cc:Work>
    </rdf:RDF>
  </metadata>
  <g
     aria-label="TECHNE SERIES"
     transform="translate(-55.931049,-309.72323)"
     id="text172"
     style="font-style:normal;font-variant:normal;font-weight:900;font-stretch:normal;font-size:12.7px;line-height:1.25;font-family:Lato;-inkscape-font-specification:'Lato, Heavy';font-variant-ligatures:normal;font-variant-position:normal;font-variant-caps:normal;font-variant-numeric:normal;font-variant-alternates:normal;font-variant-east-asian:normal;font-feature-settings:normal;font-variation-settings:normal;text-indent:0;text-align:start;text-decoration:none;text-decoration-line:none;text-decoration-style:solid;text-decoration-color:#000000;letter-spacing:0px;word-spacing:0px;text-transform:none;writing-mode:lr-tb;direction:ltr;text-orientation:mixed;dominant-baseline:auto;baseline-shift:baseline;text-anchor:start;white-space:normal;shape-padding:0;shape-margin:0;inline-size:0;vector-effect:none;fill:#ffffff;fill-opacity:1;stroke:#000000;stroke-width:0.529167;stroke-linecap:round;stroke-linejoin:round;stroke-miterlimit:4;stroke-dasharray:none;stroke-dashoffset:0;stroke-opacity:0.5;paint-order:stroke fill markers;stop-color:#000000">
    <path
       d="m 63.775496,310.29297 v 1.7018 h -2.6035 v 7.55015 h -2.1463 v -7.55015 h -2.603499 v -1.7018 z"
       style="font-style:normal;font-variant:normal;font-weight:900;font-stretch:normal;font-size:12.7px;line-height:1.25;font-family:Lato;-inkscape-font-specification:'Lato, Heavy';font-variant-ligatures:normal;font-variant-position:normal;font-variant-caps:normal;font-variant-numeric:normal;font-variant-alternates:normal;font-variant-east-asian:normal;font-feature-settings:normal;font-variation-settings:normal;text-indent:0;text-align:start;text-decoration:none;text-decoration-line:none;text-decoration-style:solid;text-decoration-color:#000000;letter-spacing:0px;word-spacing:0px;text-transform:none;writing-mode:lr-tb;direction:ltr;text-orientation:mixed;dominant-baseline:auto;baseline-shift:baseline;text-anchor:start;white-space:normal;shape-padding:0;shape-margin:0;inline-size:0;vector-effect:none;fill:#ffffff;fill-opacity:1;stroke:#000000;stroke-width:0.529167;stroke-linecap:round;stroke-linejoin:round;stroke-miterlimit:4;stroke-dasharray:none;stroke-dashoffset:0;stroke-opacity:0.5;paint-order:stroke fill markers;stop-color:#000000;stop-opacity:1"
       id="path1052" />
    <path
       d="m 70.620784,310.29297 v 1.651 h -3.7973 v 2.159 h 2.9083 v 1.5875 h -2.9083 v 2.20345 h 3.7973 v 1.651 h -5.9563 v -9.25195 z"
       style="font-style:normal;font-variant:normal;font-weight:900;font-stretch:normal;font-size:12.7px;line-height:1.25;font-family:Lato;-inkscape-font-specification:'Lato, Heavy';font-variant-ligatures:normal;font-variant-position:normal;font-variant-caps:normal;font-variant-numeric:normal;font-variant-alternates:normal;font-variant-east-asian:normal;font-feature-settings:normal;font-variation-settings:normal;text-indent:0;text-align:start;text-decoration:none;text-decoration-line:none;text-decoration-style:solid;text-decoration-color:#000000;letter-spacing:0px;word-spacing:0px;text-transform:none;writing-mode:lr-tb;direction:ltr;text-orientation:mixed;dominant-baseline:auto;baseline-shift:baseline;text-anchor:start;white-space:normal;shape-padding:0;shape-margin:0;inline-size:0;vector-effect:none;fill:#ffffff;fill-opacity:1;stroke:#000000;stroke-width:0.529167;stroke-linecap:round;stroke-linejoin:round;stroke-miterlimit:4;stroke-dasharray:none;stroke-dashoffset:0;stroke-opacity:0.5;paint-order:stroke fill markers;stop-color:#000000;stop-opacity:1"
       id="path1054" />
    <path
       d="m 78.056617,317.15097 q 0.0762,0 0.1524,0.0318 0.0762,0.0254 0.14605,0.0952 l 0.8509,0.89535 q -0.5588,0.73025 -1.40335,1.1049 -0.8382,0.3683 -1.98755,0.3683 -1.0541,0 -1.8923,-0.3556 -0.83185,-0.36195 -1.41605,-0.9906 -0.57785,-0.635 -0.889,-1.4986 -0.31115,-0.86995 -0.31115,-1.88595 0,-1.03505 0.3556,-1.89865 0.3556,-0.86995 0.9906,-1.4986 0.64135,-0.62865 1.53035,-0.9779 0.889,-0.34925 1.96215,-0.34925 0.5207,0 0.9779,0.0953 0.46355,0.0889 0.8636,0.254 0.40005,0.15875 0.7366,0.38735 0.33655,0.22225 0.5969,0.4953 l -0.7239,0.97155 q -0.06985,0.0889 -0.1651,0.1651 -0.09525,0.0699 -0.2667,0.0699 -0.1143,0 -0.2159,-0.0508 -0.1016,-0.0508 -0.2159,-0.12065 -0.1143,-0.0762 -0.254,-0.15875 -0.13335,-0.0889 -0.32385,-0.15875 -0.18415,-0.0762 -0.43815,-0.127 -0.24765,-0.0508 -0.5842,-0.0508 -0.5842,0 -1.0668,0.20955 -0.4826,0.2032 -0.83185,0.59055 -0.3429,0.381 -0.53975,0.9271 -0.1905,0.5461 -0.1905,1.22555 0,0.7112 0.1905,1.26365 0.19685,0.55245 0.52705,0.93345 0.33655,0.37465 0.78105,0.5715 0.4445,0.19685 0.9525,0.19685 0.2921,0 0.5334,-0.0254 0.2413,-0.0317 0.4445,-0.1016 0.20955,-0.0698 0.3937,-0.1778 0.1905,-0.1143 0.381,-0.2794 0.0762,-0.0635 0.1651,-0.1016 0.0889,-0.0445 0.18415,-0.0445 z"
       style="font-style:normal;font-variant:normal;font-weight:900;font-stretch:normal;font-size:12.7px;line-height:1.25;font-family:Lato;-inkscape-font-specification:'Lato, Heavy';font-variant-ligatures:normal;font-variant-position:normal;font-variant-caps:normal;font-variant-numeric:normal;font-variant-alternates:normal;font-variant-east-asian:normal;font-feature-settings:normal;font-variation-settings:normal;text-indent:0;text-align:start;text-decoration:none;text-decoration-line:none;text-decoration-style:solid;text-decoration-color:#000000;letter-spacing:0px;word-spacing:0px;text-transform:none;writing-mode:lr-tb;direction:ltr;text-orientation:mixed;dominant-baseline:auto;baseline-shift:baseline;text-anchor:start;white-space:normal;shape-padding:0;shape-margin:0;inline-size:0;vector-effect:none;fill:#ffffff;fill-opacity:1;stroke:#000000;stroke-width:0.529167;stroke-linecap:round;stroke-linejoin:round;stroke-miterlimit:4;stroke-dasharray:none;stroke-dashoffset:0;stroke-opacity:0.5;paint-order:stroke fill markers;stop-color:#000000;stop-opacity:1"
       id="path1056" />
    <path
       d="m 88.261062,319.54492 h -2.159 v -3.9116 h -3.7592 v 3.9116 h -2.159 v -9.25195 h 2.159 v 3.86715 h 3.7592 v -3.86715 h 2.159 z"
       style="font-style:normal;font-variant:normal;font-weight:900;font-stretch:normal;font-size:12.7px;line-height:1.25;font-family:Lato;-inkscape-font-specification:'Lato, Heavy';font-variant-ligatures:normal;font-variant-position:normal;font-variant-caps:normal;font-variant-numeric:normal;font-variant-alternates:normal;font-variant-east-asian:normal;font-feature-settings:normal;font-variation-settings:normal;text-indent:0;text-align:start;text-decoration:none;text-decoration-line:none;text-decoration-style:solid;text-decoration-color:#000000;letter-spacing:0px;word-spacing:0px;text-transform:none;writing-mode:lr-tb;direction:ltr;text-orientation:mixed;dominant-baseline:auto;baseline-shift:baseline;text-anchor:start;white-space:normal;shape-padding:0;shape-margin:0;inline-size:0;vector-effect:none;fill:#ffffff;fill-opacity:1;stroke:#000000;stroke-width:0.529167;stroke-linecap:round;stroke-linejoin:round;stroke-miterlimit:4;stroke-dasharray:none;stroke-dashoffset:0;stroke-opacity:0.5;paint-order:stroke fill markers;stop-color:#000000;stop-opacity:1"
       id="path1058" />
    <path
       d="m 90.915345,310.29297 q 0.1397,0 0.23495,0.0127 0.09525,0.0127 0.17145,0.0508 0.0762,0.0317 0.14605,0.0953 0.06985,0.0635 0.15875,0.17145 l 4.394199,5.55625 q -0.0254,-0.2667 -0.0381,-0.51435 -0.0127,-0.254 -0.0127,-0.47625 v -4.89585 h 1.8923 v 9.25195 h -1.1176 q -0.24765,0 -0.4191,-0.0762 -0.17145,-0.0762 -0.3302,-0.2794 l -4.362449,-5.5118 q 0.01905,0.2413 0.03175,0.47625 0.0127,0.2286 0.0127,0.4318 v 4.95935 h -1.8923 v -9.25195 h 1.1303 z"
       style="font-style:normal;font-variant:normal;font-weight:900;font-stretch:normal;font-size:12.7px;line-height:1.25;font-family:Lato;-inkscape-font-specification:'Lato, Heavy';font-variant-ligatures:normal;font-variant-position:normal;font-variant-caps:normal;font-variant-numeric:normal;font-variant-alternates:normal;font-variant-east-asian:normal;font-feature-settings:normal;font-variation-settings:normal;text-indent:0;text-align:start;text-decoration:none;text-decoration-line:none;text-decoration-style:solid;text-decoration-color:#000000;letter-spacing:0px;word-spacing:0px;text-transform:none;writing-mode:lr-tb;direction:ltr;text-orientation:mixed;dominant-baseline:auto;baseline-shift:baseline;text-anchor:start;white-space:normal;shape-padding:0;shape-margin:0;inline-size:0;vector-effect:none;fill:#ffffff;fill-opacity:1;stroke:#000000;stroke-width:0.529167;stroke-linecap:round;stroke-linejoin:round;stroke-miterlimit:4;stroke-dasharray:none;stroke-dashoffset:0;stroke-opacity:0.5;paint-order:stroke fill markers;stop-color:#000000;stop-opacity:1"
       id="path1060" />
    <path
       d="m 105.34253,310.29297 v 1.651 h -3.7973 v 2.159 h 2.9083 v 1.5875 h -2.9083 v 2.20345 h 3.7973 v 1.651 h -5.956304 v -9.25195 z"
       style="font-style:normal;font-variant:normal;font-weight:900;font-stretch:normal;font-size:12.7px;line-height:1.25;font-family:Lato;-inkscape-font-specification:'Lato, Heavy';font-variant-ligatures:normal;font-variant-position:normal;font-variant-caps:normal;font-variant-numeric:normal;font-variant-alternates:normal;font-variant-east-asian:normal;font-feature-settings:normal;font-variation-settings:normal;text-indent:0;text-align:start;text-decoration:none;text-decoration-line:none;text-decoration-style:solid;text-decoration-color:#000000;letter-spacing:0px;word-spacing:0px;text-transform:none;writing-mode:lr-tb;direction:ltr;text-orientation:mixed;dominant-baseline:auto;baseline-shift:baseline;text-anchor:start;white-space:normal;shape-padding:0;shape-margin:0;inline-size:0;vector-effect:none;fill:#ffffff;fill-opacity:1;stroke:#000000;stroke-width:0.529167;stroke-linecap:round;stroke-linejoin:round;stroke-miterlimit:4;stroke-dasharray:none;stroke-dashoffset:0;stroke-opacity:0.5;paint-order:stroke fill markers;stop-color:#000000;stop-opacity:1"
       id="path1062" />
    <path
       d="m 114.16899,312.17257 q -0.0952,0.1524 -0.2032,0.2286 -0.1016,0.0762 -0.2667,0.0762 -0.14605,0 -0.3175,-0.0889 -0.1651,-0.0952 -0.381,-0.20955 -0.20955,-0.1143 -0.4826,-0.2032 -0.27305,-0.0953 -0.6223,-0.0953 -0.60325,0 -0.9017,0.26035 -0.2921,0.254 -0.2921,0.69215 0,0.2794 0.1778,0.46355 0.1778,0.18415 0.46355,0.3175 0.2921,0.13335 0.6604,0.24765 0.37465,0.10795 0.762,0.24765 0.38735,0.13335 0.75565,0.3175 0.37465,0.18415 0.6604,0.4699 0.2921,0.28575 0.4699,0.6985 0.1778,0.4064 0.1778,0.98425 0,0.64135 -0.22225,1.20015 -0.22225,0.5588 -0.6477,0.9779 -0.4191,0.41275 -1.0414,0.65405 -0.61595,0.23495 -1.40335,0.23495 -0.4318,0 -0.88265,-0.0889 -0.4445,-0.0889 -0.8636,-0.24765 -0.4191,-0.1651 -0.7874,-0.38735 -0.3683,-0.22225 -0.64135,-0.4953 l 0.635,-1.0033 q 0.0699,-0.1143 0.19685,-0.18415 0.127,-0.0698 0.27305,-0.0698 0.1905,0 0.381,0.12065 0.19685,0.12065 0.43815,0.2667 0.24765,0.14605 0.56515,0.2667 0.3175,0.12065 0.7493,0.12065 0.5842,0 0.90805,-0.254 0.32385,-0.26035 0.32385,-0.81915 0,-0.32385 -0.1778,-0.52705 -0.1778,-0.2032 -0.4699,-0.33655 -0.28575,-0.13335 -0.65405,-0.23495 -0.3683,-0.1016 -0.75565,-0.22225 -0.38735,-0.127 -0.75565,-0.3048 -0.3683,-0.18415 -0.6604,-0.47625 -0.28575,-0.29845 -0.46355,-0.7366 -0.1778,-0.4445 -0.1778,-1.0922 0,-0.5207 0.20955,-1.016 0.20955,-0.4953 0.61595,-0.88265 0.4064,-0.38735 0.99695,-0.61595 0.59055,-0.23495 1.35255,-0.23495 0.42545,0 0.8255,0.0698 0.4064,0.0635 0.76835,0.19685 0.36195,0.127 0.6731,0.31115 0.3175,0.1778 0.56515,0.4064 z"
       style="font-style:normal;font-variant:normal;font-weight:900;font-stretch:normal;font-size:12.7px;line-height:1.25;font-family:Lato;-inkscape-font-specification:'Lato, Heavy';font-variant-ligatures:normal;font-variant-position:normal;font-variant-caps:normal;font-variant-numeric:normal;font-variant-alternates:normal;font-variant-east-asian:normal;font-feature-settings:normal;font-variation-settings:normal;text-indent:0;text-align:start;text-decoration:none;text-decoration-line:none;text-decoration-style:solid;text-decoration-color:#000000;letter-spacing:0px;word-spacing:0px;text-transform:none;writing-mode:lr-tb;direction:ltr;text-orientation:mixed;dominant-baseline:auto;baseline-shift:baseline;text-anchor:start;white-space:normal;shape-padding:0;shape-margin:0;inline-size:0;vector-effect:none;fill:#ffffff;fill-opacity:1;stroke:#000000;stroke-width:0.529167;stroke-linecap:round;stroke-linejoin:round;stroke-miterlimit:4;stroke-dasharray:none;stroke-dashoffset:0;stroke-opacity:0.5;paint-order:stroke fill markers;stop-color:#000000;stop-opacity:1"
       id="path1064" />
    <path
       d="m 121.85249,310.29297 v 1.651 h -3.7973 v 2.159 h 2.9083 v 1.5875 h -2.9083 v 2.20345 h 3.7973 v 1.651 h -5.9563 v -9.25195 z"
       style="font-style:normal;font-variant:normal;font-weight:900;font-stretch:normal;font-size:12.7px;line-height:1.25;font-family:Lato;-inkscape-font-specification:'Lato, Heavy';font-variant-ligatures:normal;font-variant-position:normal;font-variant-caps:normal;font-variant-numeric:normal;font-variant-alternates:normal;font-variant-east-asian:normal;font-feature-settings:normal;font-variation-settings:normal;text-indent:0;text-align:start;text-decoration:none;text-decoration-line:none;text-decoration-style:solid;text-decoration-color:#000000;letter-spacing:0px;word-spacing:0px;text-transform:none;writing-mode:lr-tb;direction:ltr;text-orientation:mixed;dominant-baseline:auto;baseline-shift:baseline;text-anchor:start;white-space:normal;shape-padding:0;shape-margin:0;inline-size:0;vector-effect:none;fill:#ffffff;fill-opacity:1;stroke:#000000;stroke-width:0.529167;stroke-linecap:round;stroke-linejoin:round;stroke-miterlimit:4;stroke-dasharray:none;stroke-dashoffset:0;stroke-opacity:0.5;paint-order:stroke fill markers;stop-color:#000000;stop-opacity:1"
       id="path1066" />
    <path
       d="m 125.21797,316.12227 v 3.42265 h -2.1463 v -9.25195 h 3.0099 q 1.0033,0 1.70815,0.20955 0.7112,0.2032 1.1557,0.5715 0.45085,0.3683 0.65405,0.86995 0.2032,0.50165 0.2032,1.0922 0,0.45085 -0.12065,0.8509 -0.12065,0.40005 -0.36195,0.74295 -0.23495,0.33655 -0.5842,0.60325 -0.3429,0.2667 -0.79375,0.43815 0.2159,0.10795 0.40005,0.2667 0.1905,0.15875 0.3302,0.38735 l 1.9685,3.21945 h -1.9431 q -0.53975,0 -0.7747,-0.4064 l -1.5367,-2.68605 q -0.1016,-0.1778 -0.2413,-0.254 -0.13335,-0.0762 -0.381,-0.0762 z m 0,-1.47955 h 0.8636 q 0.43815,0 0.74295,-0.10795 0.31115,-0.1143 0.508,-0.31115 0.19685,-0.19685 0.28575,-0.4572 0.0889,-0.2667 0.0889,-0.5715 0,-0.6096 -0.40005,-0.9525 -0.3937,-0.3429 -1.22555,-0.3429 h -0.8636 z"
       style="font-style:normal;font-variant:normal;font-weight:900;font-stretch:normal;font-size:12.7px;line-height:1.25;font-family:Lato;-inkscape-font-specification:'Lato, Heavy';font-variant-ligatures:normal;font-variant-position:normal;font-variant-caps:normal;font-variant-numeric:normal;font-variant-alternates:normal;font-variant-east-asian:normal;font-feature-settings:normal;font-variation-settings:normal;text-indent:0;text-align:start;text-decoration:none;text-decoration-line:none;text-decoration-style:solid;text-decoration-color:#000000;letter-spacing:0px;word-spacing:0px;text-transform:none;writing-mode:lr-tb;direction:ltr;text-orientation:mixed;dominant-baseline:auto;baseline-shift:baseline;text-anchor:start;white-space:normal;shape-padding:0;shape-margin:0;inline-size:0;vector-effect:none;fill:#ffffff;fill-opacity:1;stroke:#000000;stroke-width:0.529167;stroke-linecap:round;stroke-linejoin:round;stroke-miterlimit:4;stroke-dasharray:none;stroke-dashoffset:0;stroke-opacity:0.5;paint-order:stroke fill markers;stop-color:#000000;stop-opacity:1"
       id="path1068" />
    <path
       d="m 133.86666,319.54492 h -2.159 v -9.25195 h 2.159 z"
       style="font-style:normal;font-variant:normal;font-weight:900;font-stretch:normal;font-size:12.7px;line-height:1.25;font-family:Lato;-inkscape-font-specification:'Lato, Heavy';font-variant-ligatures:normal;font-variant-position:normal;font-variant-caps:normal;font-variant-numeric:normal;font-variant-alternates:normal;font-variant-east-asian:normal;font-feature-settings:normal;font-variation-settings:normal;text-indent:0;text-align:start;text-decoration:none;text-decoration-line:none;text-decoration-style:solid;text-decoration-color:#000000;letter-spacing:0px;word-spacing:0px;text-transform:none;writing-mode:lr-tb;direction:ltr;text-orientation:mixed;dominant-baseline:auto;baseline-shift:baseline;text-anchor:start;white-space:normal;shape-padding:0;shape-margin:0;inline-size:0;vector-effect:none;fill:#ffffff;fill-opacity:1;stroke:#000000;stroke-width:0.529167;stroke-linecap:round;stroke-linejoin:round;stroke-miterlimit:4;stroke-dasharray:none;stroke-dashoffset:0;stroke-opacity:0.5;paint-order:stroke fill markers;stop-color:#000000;stop-opacity:1"
       id="path1070" />
    <path
       d="m 141.53745,310.29297 v 1.651 h -3.7973 v 2.159 h 2.9083 v 1.5875 h -2.9083 v 2.20345 h 3.7973 v 1.651 h -5.9563 v -9.25195 z"
       style="font-style:normal;font-variant:normal;font-weight:900;font-stretch:normal;font-size:12.7px;line-height:1.25;font-family:Lato;-inkscape-font-specification:'Lato, Heavy';font-variant-ligatures:normal;font-variant-position:normal;font-variant-caps:normal;font-variant-numeric:normal;font-variant-alternates:normal;font-variant-east-asian:normal;font-feature-settings:normal;font-variation-settings:normal;text-indent:0;text-align:start;text-decoration:none;text-decoration-line:none;text-decoration-style:solid;text-decoration-color:#000000;letter-spacing:0px;word-spacing:0px;text-transform:none;writing-mode:lr-tb;direction:ltr;text-orientation:mixed;dominant-baseline:auto;baseline-shift:baseline;text-anchor:start;white-space:normal;shape-padding:0;shape-margin:0;inline-size:0;vector-effect:none;fill:#ffffff;fill-opacity:1;stroke:#000000;stroke-width:0.529167;stroke-linecap:round;stroke-linejoin:round;stroke-miterlimit:4;stroke-dasharray:none;stroke-dashoffset:0;stroke-opacity:0.5;paint-order:stroke fill markers;stop-color:#000000;stop-opacity:1"
       id="path1072" />
    <path
       d="m 147.91284,312.17257 q -0.0952,0.1524 -0.2032,0.2286 -0.1016,0.0762 -0.2667,0.0762 -0.14605,0 -0.3175,-0.0889 -0.1651,-0.0952 -0.381,-0.20955 -0.20955,-0.1143 -0.4826,-0.2032 -0.27305,-0.0953 -0.6223,-0.0953 -0.60325,0 -0.9017,0.26035 -0.2921,0.254 -0.2921,0.69215 0,0.2794 0.1778,0.46355 0.1778,0.18415 0.46355,0.3175 0.2921,0.13335 0.6604,0.24765 0.37465,0.10795 0.762,0.24765 0.38735,0.13335 0.75565,0.3175 0.37465,0.18415 0.6604,0.4699 0.2921,0.28575 0.4699,0.6985 0.1778,0.4064 0.1778,0.98425 0,0.64135 -0.22225,1.20015 -0.22225,0.5588 -0.6477,0.9779 -0.4191,0.41275 -1.0414,0.65405 -0.61595,0.23495 -1.40335,0.23495 -0.4318,0 -0.88265,-0.0889 -0.4445,-0.0889 -0.8636,-0.24765 -0.4191,-0.1651 -0.7874,-0.38735 -0.3683,-0.22225 -0.64135,-0.4953 l 0.635,-1.0033 q 0.0699,-0.1143 0.19685,-0.18415 0.127,-0.0698 0.27305,-0.0698 0.1905,0 0.381,0.12065 0.19685,0.12065 0.43815,0.2667 0.24765,0.14605 0.56515,0.2667 0.3175,0.12065 0.7493,0.12065 0.5842,0 0.90805,-0.254 0.32385,-0.26035 0.32385,-0.81915 0,-0.32385 -0.1778,-0.52705 -0.1778,-0.2032 -0.4699,-0.33655 -0.28575,-0.13335 -0.65405,-0.23495 -0.3683,-0.1016 -0.75565,-0.22225 -0.38735,-0.127 -0.75565,-0.3048 -0.3683,-0.18415 -0.6604,-0.47625 -0.28575,-0.29845 -0.46355,-0.7366 -0.1778,-0.4445 -0.1778,-1.0922 0,-0.5207 0.20955,-1.016 0.20955,-0.4953 0.61595,-0.88265 0.4064,-0.38735 0.99695,-0.61595 0.59055,-0.23495 1.35255,-0.23495 0.42545,0 0.8255,0.0698 0.4064,0.0635 0.76835,0.19685 0.36195,0.127 0.6731,0.31115 0.3175,0.1778 0.56515,0.4064 z"
       style="font-style:normal;font-variant:normal;font-weight:900;font-stretch:normal;font-size:12.7px;line-height:1.25;font-family:Lato;-inkscape-font-specification:'Lato, Heavy';font-variant-ligatures:normal;font-variant-position:normal;font-variant-caps:normal;font-variant-numeric:normal;font-variant-alternates:normal;font-variant-east-asian:normal;font-feature-settings:normal;font-variation-settings:normal;text-indent:0;text-align:start;text-decoration:none;text-decoration-line:none;text-decoration-style:solid;text-decoration-color:#000000;letter-spacing:0px;word-spacing:0px;text-transform:none;writing-mode:lr-tb;direction:ltr;text-orientation:mixed;dominant-baseline:auto;baseline-shift:baseline;text-anchor:start;white-space:normal;shape-padding:0;shape-margin:0;inline-size:0;vector-effect:none;fill:#ffffff;fill-opacity:1;stroke:#000000;stroke-width:0.529167;stroke-linecap:round;stroke-linejoin:round;stroke-miterlimit:4;stroke-dasharray:none;stroke-dashoffset:0;stroke-opacity:0.5;paint-order:stroke fill markers;stop-color:#000000;stop-opacity:1"
       id="path1074" />
  </g>
  <g
     aria-label="Research in Sloyd Education and Craft Science"
     transform="translate(-56.058402,-327.12435)"
     id="text56"
     style="font-style:normal;font-variant:normal;font-weight:900;font-stretch:normal;font-size:7.26722px;line-height:1;font-family:Lato;-inkscape-font-specification:'Lato, Heavy';font-variant-ligatures:normal;font-variant-position:normal;font-variant-caps:normal;font-variant-numeric:normal;font-variant-alternates:normal;font-variant-east-asian:normal;font-feature-settings:normal;font-variation-settings:normal;text-indent:0;text-align:start;text-decoration:none;text-decoration-line:none;text-decoration-style:solid;text-decoration-color:#000000;letter-spacing:0px;word-spacing:0px;text-transform:none;writing-mode:lr-tb;direction:ltr;text-orientation:mixed;dominant-baseline:auto;baseline-shift:baseline;text-anchor:start;white-space:normal;shape-padding:0;shape-margin:0;inline-size:0;vector-effect:none;fill:#ffffff;fill-opacity:1;stroke:#000000;stroke-width:0.529167;stroke-linecap:round;stroke-linejoin:round;stroke-miterlimit:4;stroke-dasharray:none;stroke-dashoffset:0;stroke-opacity:0.5;paint-order:stroke fill markers;stop-color:#000000">
    <path
       d="m 57.95939,345.15358 v 1.95851 h -1.22816 v -5.29417 h 1.722331 q 0.57411,0 0.977441,0.11991 0.406964,0.11628 0.661317,0.32703 0.257986,0.21074 0.374262,0.4978 0.116275,0.28706 0.116275,0.62498 0,0.25799 -0.06904,0.4869 -0.06904,0.22892 -0.207116,0.42514 -0.134444,0.19258 -0.334292,0.34519 -0.196215,0.15261 -0.454201,0.25072 0.123542,0.0618 0.228917,0.15261 0.109008,0.0908 0.188948,0.22165 l 1.126419,1.84224 h -1.111885 q -0.308857,0 -0.4433,-0.23255 l -0.879334,-1.53702 q -0.05814,-0.10174 -0.138077,-0.14534 -0.07631,-0.0436 -0.218017,-0.0436 z m 0,-0.84664 h 0.494171 q 0.250719,0 0.425132,-0.0618 0.178047,-0.0654 0.290689,-0.17804 0.112642,-0.11265 0.163513,-0.26162 0.05087,-0.15262 0.05087,-0.32703 0,-0.34883 -0.228917,-0.54504 -0.225284,-0.19622 -0.701287,-0.19622 H 57.95939 Z"
       style="font-style:normal;font-variant:normal;font-weight:900;font-stretch:normal;font-size:7.26722px;font-family:Lato;-inkscape-font-specification:'Lato, Heavy';font-variant-ligatures:normal;font-variant-position:normal;font-variant-caps:normal;font-variant-numeric:normal;font-variant-alternates:normal;font-variant-east-asian:normal;font-feature-settings:normal;font-variation-settings:normal;text-indent:0;text-align:start;text-decoration:none;text-decoration-line:none;text-decoration-style:solid;text-decoration-color:#000000;letter-spacing:0px;word-spacing:0px;text-transform:none;writing-mode:lr-tb;direction:ltr;text-orientation:mixed;dominant-baseline:auto;baseline-shift:baseline;text-anchor:start;white-space:normal;shape-padding:0;shape-margin:0;inline-size:0;vector-effect:none;fill:#ffffff;fill-opacity:1;stroke:#000000;stroke-width:0.529167;stroke-linecap:round;stroke-linejoin:round;stroke-miterlimit:4;stroke-dasharray:none;stroke-dashoffset:0;stroke-opacity:0.5;paint-order:stroke fill markers;stop-color:#000000;stop-opacity:1"
       id="path1077" />
    <path
       d="m 63.177247,343.2859 q 0.374261,0 0.683118,0.11628 0.312491,0.11627 0.534141,0.33792 0.225284,0.22165 0.348827,0.54504 0.127176,0.31976 0.127176,0.72672 0,0.12718 -0.0109,0.20712 -0.0109,0.0799 -0.03997,0.12718 -0.02907,0.0472 -0.07994,0.0654 -0.04724,0.0182 -0.123543,0.0182 h -2.172899 q 0.0545,0.47237 0.287056,0.68675 0.232551,0.21075 0.599545,0.21075 0.196215,0 0.337926,-0.0472 0.141711,-0.0472 0.250719,-0.10537 0.112642,-0.0581 0.203482,-0.10538 0.09447,-0.0472 0.196215,-0.0472 0.134444,0 0.203482,0.0981 l 0.327025,0.40333 q -0.174413,0.19984 -0.377895,0.32702 -0.199849,0.12354 -0.414232,0.19622 -0.210749,0.069 -0.425132,0.0945 -0.210749,0.0291 -0.403331,0.0291 -0.396063,0 -0.74489,-0.12718 -0.345193,-0.13081 -0.606813,-0.38516 -0.257986,-0.25435 -0.410598,-0.63225 -0.148978,-0.37789 -0.148978,-0.87933 0,-0.3779 0.127177,-0.71582 0.13081,-0.33793 0.370628,-0.59228 0.243452,-0.25435 0.585011,-0.40333 0.345193,-0.14898 0.777593,-0.14898 z m 0.0218,0.77759 q -0.323391,0 -0.505071,0.18532 -0.181681,0.18168 -0.239819,0.52687 h 1.406207 q 0,-0.13444 -0.03634,-0.26162 -0.0327,-0.12718 -0.112642,-0.22528 -0.07631,-0.10174 -0.203482,-0.16352 -0.127176,-0.0618 -0.308857,-0.0618 z"
       style="font-style:normal;font-variant:normal;font-weight:900;font-stretch:normal;font-size:7.26722px;font-family:Lato;-inkscape-font-specification:'Lato, Heavy';font-variant-ligatures:normal;font-variant-position:normal;font-variant-caps:normal;font-variant-numeric:normal;font-variant-alternates:normal;font-variant-east-asian:normal;font-feature-settings:normal;font-variation-settings:normal;text-indent:0;text-align:start;text-decoration:none;text-decoration-line:none;text-decoration-style:solid;text-decoration-color:#000000;letter-spacing:0px;word-spacing:0px;text-transform:none;writing-mode:lr-tb;direction:ltr;text-orientation:mixed;dominant-baseline:auto;baseline-shift:baseline;text-anchor:start;white-space:normal;shape-padding:0;shape-margin:0;inline-size:0;vector-effect:none;fill:#ffffff;fill-opacity:1;stroke:#000000;stroke-width:0.529167;stroke-linecap:round;stroke-linejoin:round;stroke-miterlimit:4;stroke-dasharray:none;stroke-dashoffset:0;stroke-opacity:0.5;paint-order:stroke fill markers;stop-color:#000000;stop-opacity:1"
       id="path1079" />
    <path
       d="m 67.820991,344.16887 q -0.0436,0.069 -0.09447,0.0981 -0.04724,0.0291 -0.123542,0.0291 -0.07994,0 -0.159879,-0.0327 -0.07994,-0.0363 -0.174414,-0.0763 -0.09084,-0.04 -0.207115,-0.0727 -0.116276,-0.0363 -0.265254,-0.0363 -0.214383,0 -0.330658,0.0836 -0.112642,0.0799 -0.112642,0.22528 0,0.10538 0.07267,0.17442 0.07631,0.069 0.199848,0.12354 0.123543,0.0509 0.279788,0.0981 0.156246,0.0472 0.319758,0.10537 0.163513,0.0581 0.319758,0.13808 0.156245,0.0763 0.279788,0.19258 0.123543,0.11264 0.196215,0.27615 0.07631,0.16352 0.07631,0.39243 0,0.27979 -0.101742,0.51598 -0.101741,0.23618 -0.305223,0.40696 -0.199848,0.17078 -0.497804,0.26525 -0.294323,0.0945 -0.679485,0.0945 -0.192582,0 -0.385163,-0.0363 -0.192581,-0.0363 -0.374262,-0.0981 -0.178047,-0.0618 -0.330658,-0.14535 -0.152612,-0.0872 -0.26162,-0.18531 l 0.26162,-0.41423 q 0.04724,-0.0727 0.112641,-0.11265 0.0654,-0.0436 0.17078,-0.0436 0.09811,0 0.174413,0.0436 0.07994,0.0436 0.17078,0.0945 0.09084,0.0509 0.210749,0.0945 0.123543,0.0436 0.308857,0.0436 0.13081,0 0.221651,-0.0254 0.09084,-0.0291 0.145344,-0.0763 0.0545,-0.0472 0.07994,-0.10537 0.02544,-0.0581 0.02544,-0.11991 0,-0.11264 -0.07631,-0.18531 -0.07631,-0.0727 -0.199849,-0.12355 -0.123542,-0.0545 -0.283421,-0.0981 -0.156246,-0.0472 -0.319758,-0.10538 -0.163512,-0.0581 -0.323391,-0.13808 -0.156246,-0.0836 -0.279788,-0.20711 -0.123543,-0.12718 -0.199849,-0.30886 -0.07631,-0.18168 -0.07631,-0.43967 0,-0.23981 0.09084,-0.4542 0.09447,-0.21801 0.279788,-0.38153 0.185314,-0.16351 0.465102,-0.25798 0.279788,-0.0981 0.65405,-0.0981 0.203482,0 0.392429,0.0363 0.192582,0.0363 0.359728,0.10174 0.167146,0.0654 0.305223,0.15624 0.138077,0.0872 0.243452,0.19258 z"
       style="font-style:normal;font-variant:normal;font-weight:900;font-stretch:normal;font-size:7.26722px;font-family:Lato;-inkscape-font-specification:'Lato, Heavy';font-variant-ligatures:normal;font-variant-position:normal;font-variant-caps:normal;font-variant-numeric:normal;font-variant-alternates:normal;font-variant-east-asian:normal;font-feature-settings:normal;font-variation-settings:normal;text-indent:0;text-align:start;text-decoration:none;text-decoration-line:none;text-decoration-style:solid;text-decoration-color:#000000;letter-spacing:0px;word-spacing:0px;text-transform:none;writing-mode:lr-tb;direction:ltr;text-orientation:mixed;dominant-baseline:auto;baseline-shift:baseline;text-anchor:start;white-space:normal;shape-padding:0;shape-margin:0;inline-size:0;vector-effect:none;fill:#ffffff;fill-opacity:1;stroke:#000000;stroke-width:0.529167;stroke-linecap:round;stroke-linejoin:round;stroke-miterlimit:4;stroke-dasharray:none;stroke-dashoffset:0;stroke-opacity:0.5;paint-order:stroke fill markers;stop-color:#000000;stop-opacity:1"
       id="path1081" />
    <path
       d="m 70.328172,343.2859 q 0.374262,0 0.683119,0.11628 0.31249,0.11627 0.534141,0.33792 0.225283,0.22165 0.348826,0.54504 0.127177,0.31976 0.127177,0.72672 0,0.12718 -0.0109,0.20712 -0.0109,0.0799 -0.03997,0.12718 -0.02907,0.0472 -0.07994,0.0654 -0.04724,0.0182 -0.123543,0.0182 h -2.172899 q 0.0545,0.47237 0.287055,0.68675 0.232551,0.21075 0.599546,0.21075 0.196215,0 0.337926,-0.0472 0.14171,-0.0472 0.250719,-0.10537 0.112642,-0.0581 0.203482,-0.10538 0.09447,-0.0472 0.196215,-0.0472 0.134443,0 0.203482,0.0981 l 0.327025,0.40333 q -0.174413,0.19984 -0.377896,0.32702 -0.199848,0.12354 -0.414231,0.19622 -0.210749,0.069 -0.425132,0.0945 -0.21075,0.0291 -0.403331,0.0291 -0.396064,0 -0.74489,-0.12718 -0.345193,-0.13081 -0.606813,-0.38516 -0.257986,-0.25435 -0.410598,-0.63225 -0.148978,-0.37789 -0.148978,-0.87933 0,-0.3779 0.127176,-0.71582 0.13081,-0.33793 0.370629,-0.59228 0.243451,-0.25435 0.585011,-0.40333 0.345193,-0.14898 0.777592,-0.14898 z m 0.0218,0.77759 q -0.323391,0 -0.505072,0.18532 -0.18168,0.18168 -0.239818,0.52687 h 1.406207 q 0,-0.13444 -0.03634,-0.26162 -0.0327,-0.12718 -0.112642,-0.22528 -0.07631,-0.10174 -0.203482,-0.16352 -0.127177,-0.0618 -0.308857,-0.0618 z"
       style="font-style:normal;font-variant:normal;font-weight:900;font-stretch:normal;font-size:7.26722px;font-family:Lato;-inkscape-font-specification:'Lato, Heavy';font-variant-ligatures:normal;font-variant-position:normal;font-variant-caps:normal;font-variant-numeric:normal;font-variant-alternates:normal;font-variant-east-asian:normal;font-feature-settings:normal;font-variation-settings:normal;text-indent:0;text-align:start;text-decoration:none;text-decoration-line:none;text-decoration-style:solid;text-decoration-color:#000000;letter-spacing:0px;word-spacing:0px;text-transform:none;writing-mode:lr-tb;direction:ltr;text-orientation:mixed;dominant-baseline:auto;baseline-shift:baseline;text-anchor:start;white-space:normal;shape-padding:0;shape-margin:0;inline-size:0;vector-effect:none;fill:#ffffff;fill-opacity:1;stroke:#000000;stroke-width:0.529167;stroke-linecap:round;stroke-linejoin:round;stroke-miterlimit:4;stroke-dasharray:none;stroke-dashoffset:0;stroke-opacity:0.5;paint-order:stroke fill markers;stop-color:#000000;stop-opacity:1"
       id="path1083" />
    <path
       d="m 75.269872,347.11209 q -0.159879,0 -0.243452,-0.0436 -0.07994,-0.0436 -0.134444,-0.18168 l -0.07994,-0.20712 q -0.141711,0.11991 -0.272521,0.21075 -0.13081,0.0908 -0.27252,0.15625 -0.138078,0.0618 -0.297956,0.0908 -0.156246,0.0327 -0.348827,0.0327 -0.257986,0 -0.468736,-0.0654 -0.210749,-0.069 -0.359727,-0.19984 -0.145345,-0.13081 -0.225284,-0.3234 -0.07994,-0.19621 -0.07994,-0.45056 0,-0.19985 0.101741,-0.4106 0.101741,-0.21075 0.35246,-0.38153 0.250719,-0.17441 0.675851,-0.29069 0.425133,-0.11627 1.071915,-0.13081 v -0.15988 q 0,-0.33066 -0.138077,-0.476 -0.134443,-0.14898 -0.385163,-0.14898 -0.199848,0 -0.327024,0.0436 -0.127177,0.0436 -0.228918,0.0981 -0.09811,0.0545 -0.192581,0.0981 -0.09447,0.0436 -0.225284,0.0436 -0.116276,0 -0.199849,-0.0545 -0.07994,-0.0581 -0.127176,-0.14171 l -0.203482,-0.35246 q 0.341559,-0.30159 0.755791,-0.44694 0.417865,-0.14897 0.893868,-0.14897 0.341559,0 0.61408,0.11264 0.276154,0.10901 0.465102,0.30885 0.192581,0.19622 0.294322,0.46874 0.101742,0.27252 0.101742,0.59591 v 2.35458 z m -1.293565,-0.68675 q 0.218016,0 0.381529,-0.0763 0.163512,-0.0763 0.330658,-0.24708 v -0.52324 q -0.337925,0.0145 -0.555942,0.0581 -0.218017,0.0436 -0.345193,0.109 -0.127176,0.0654 -0.178047,0.14898 -0.04724,0.0836 -0.04724,0.18168 0,0.19258 0.105375,0.27252 0.105375,0.0763 0.308857,0.0763 z"
       style="font-style:normal;font-variant:normal;font-weight:900;font-stretch:normal;font-size:7.26722px;font-family:Lato;-inkscape-font-specification:'Lato, Heavy';font-variant-ligatures:normal;font-variant-position:normal;font-variant-caps:normal;font-variant-numeric:normal;font-variant-alternates:normal;font-variant-east-asian:normal;font-feature-settings:normal;font-variation-settings:normal;text-indent:0;text-align:start;text-decoration:none;text-decoration-line:none;text-decoration-style:solid;text-decoration-color:#000000;letter-spacing:0px;word-spacing:0px;text-transform:none;writing-mode:lr-tb;direction:ltr;text-orientation:mixed;dominant-baseline:auto;baseline-shift:baseline;text-anchor:start;white-space:normal;shape-padding:0;shape-margin:0;inline-size:0;vector-effect:none;fill:#ffffff;fill-opacity:1;stroke:#000000;stroke-width:0.529167;stroke-linecap:round;stroke-linejoin:round;stroke-miterlimit:4;stroke-dasharray:none;stroke-dashoffset:0;stroke-opacity:0.5;paint-order:stroke fill markers;stop-color:#000000;stop-opacity:1"
       id="path1085" />
    <path
       d="m 76.585236,347.11209 v -3.76805 h 0.668584 q 0.08357,0 0.138077,0.0145 0.05814,0.0145 0.09447,0.0472 0.03997,0.0291 0.05814,0.0799 0.0218,0.0509 0.03634,0.12354 l 0.06177,0.35246 q 0.207116,-0.31976 0.465102,-0.50507 0.257986,-0.18531 0.56321,-0.18531 0.257986,0 0.414231,0.12354 l -0.145344,0.82846 q -0.01453,0.0763 -0.05814,0.10901 -0.0436,0.0291 -0.116275,0.0291 -0.06177,0 -0.145345,-0.0145 -0.08357,-0.0182 -0.210749,-0.0182 -0.443301,0 -0.697653,0.47237 v 2.31097 z"
       style="font-style:normal;font-variant:normal;font-weight:900;font-stretch:normal;font-size:7.26722px;font-family:Lato;-inkscape-font-specification:'Lato, Heavy';font-variant-ligatures:normal;font-variant-position:normal;font-variant-caps:normal;font-variant-numeric:normal;font-variant-alternates:normal;font-variant-east-asian:normal;font-feature-settings:normal;font-variation-settings:normal;text-indent:0;text-align:start;text-decoration:none;text-decoration-line:none;text-decoration-style:solid;text-decoration-color:#000000;letter-spacing:0px;word-spacing:0px;text-transform:none;writing-mode:lr-tb;direction:ltr;text-orientation:mixed;dominant-baseline:auto;baseline-shift:baseline;text-anchor:start;white-space:normal;shape-padding:0;shape-margin:0;inline-size:0;vector-effect:none;fill:#ffffff;fill-opacity:1;stroke:#000000;stroke-width:0.529167;stroke-linecap:round;stroke-linejoin:round;stroke-miterlimit:4;stroke-dasharray:none;stroke-dashoffset:0;stroke-opacity:0.5;paint-order:stroke fill markers;stop-color:#000000;stop-opacity:1"
       id="path1087" />
    <path
       d="m 82.304524,344.23791 q -0.05087,0.0618 -0.09811,0.0981 -0.04724,0.0363 -0.134444,0.0363 -0.08357,0 -0.152611,-0.04 -0.06541,-0.04 -0.148978,-0.0872 -0.08357,-0.0509 -0.196215,-0.0908 -0.112642,-0.04 -0.279788,-0.04 -0.207116,0 -0.359728,0.0763 -0.148978,0.0763 -0.247085,0.21802 -0.09811,0.14171 -0.145345,0.34882 -0.04724,0.20348 -0.04724,0.46147 0,0.54141 0.207115,0.8321 0.21075,0.29069 0.577744,0.29069 0.196215,0 0.308857,-0.0472 0.116276,-0.0509 0.196215,-0.10901 0.07994,-0.0618 0.145345,-0.11264 0.06904,-0.0509 0.170779,-0.0509 0.134444,0 0.203482,0.0981 l 0.327025,0.40333 q -0.174413,0.19984 -0.366994,0.32702 -0.192582,0.12354 -0.396064,0.19622 -0.199848,0.069 -0.403331,0.0945 -0.203482,0.0291 -0.396063,0.0291 -0.345193,0 -0.661317,-0.13081 -0.312491,-0.13081 -0.552309,-0.3779 -0.236184,-0.25072 -0.377895,-0.61408 -0.138077,-0.36336 -0.138077,-0.82846 0,-0.40696 0.119909,-0.75942 0.123542,-0.3561 0.359727,-0.61408 0.239818,-0.26162 0.588645,-0.4106 0.35246,-0.14898 0.813929,-0.14898 0.4433,0 0.777592,0.14171 0.334292,0.14171 0.603179,0.41423 z"
       style="font-style:normal;font-variant:normal;font-weight:900;font-stretch:normal;font-size:7.26722px;font-family:Lato;-inkscape-font-specification:'Lato, Heavy';font-variant-ligatures:normal;font-variant-position:normal;font-variant-caps:normal;font-variant-numeric:normal;font-variant-alternates:normal;font-variant-east-asian:normal;font-feature-settings:normal;font-variation-settings:normal;text-indent:0;text-align:start;text-decoration:none;text-decoration-line:none;text-decoration-style:solid;text-decoration-color:#000000;letter-spacing:0px;word-spacing:0px;text-transform:none;writing-mode:lr-tb;direction:ltr;text-orientation:mixed;dominant-baseline:auto;baseline-shift:baseline;text-anchor:start;white-space:normal;shape-padding:0;shape-margin:0;inline-size:0;vector-effect:none;fill:#ffffff;fill-opacity:1;stroke:#000000;stroke-width:0.529167;stroke-linecap:round;stroke-linejoin:round;stroke-miterlimit:4;stroke-dasharray:none;stroke-dashoffset:0;stroke-opacity:0.5;paint-order:stroke fill markers;stop-color:#000000;stop-opacity:1"
       id="path1089" />
    <path
       d="m 83.118441,347.11209 v -5.43951 h 1.126419 v 2.00212 q 0.203482,-0.17442 0.439666,-0.27979 0.239819,-0.10901 0.570477,-0.10901 0.308857,0 0.545042,0.10901 0.239818,0.10537 0.40333,0.29795 0.163513,0.18895 0.247086,0.45421 0.08357,0.26162 0.08357,0.57047 v 2.39455 h -1.126419 v -2.39455 q 0,-0.27615 -0.127176,-0.42876 -0.127177,-0.15625 -0.374262,-0.15625 -0.185314,0 -0.348827,0.0799 -0.163512,0.0799 -0.31249,0.21438 v 2.68524 z"
       style="font-style:normal;font-variant:normal;font-weight:900;font-stretch:normal;font-size:7.26722px;font-family:Lato;-inkscape-font-specification:'Lato, Heavy';font-variant-ligatures:normal;font-variant-position:normal;font-variant-caps:normal;font-variant-numeric:normal;font-variant-alternates:normal;font-variant-east-asian:normal;font-feature-settings:normal;font-variation-settings:normal;text-indent:0;text-align:start;text-decoration:none;text-decoration-line:none;text-decoration-style:solid;text-decoration-color:#000000;letter-spacing:0px;word-spacing:0px;text-transform:none;writing-mode:lr-tb;direction:ltr;text-orientation:mixed;dominant-baseline:auto;baseline-shift:baseline;text-anchor:start;white-space:normal;shape-padding:0;shape-margin:0;inline-size:0;vector-effect:none;fill:#ffffff;fill-opacity:1;stroke:#000000;stroke-width:0.529167;stroke-linecap:round;stroke-linejoin:round;stroke-miterlimit:4;stroke-dasharray:none;stroke-dashoffset:0;stroke-opacity:0.5;paint-order:stroke fill markers;stop-color:#000000;stop-opacity:1"
       id="path1091" />
    <path
       d="m 89.898749,343.34404 v 3.76805 H 88.77233 v -3.76805 z m 0.13081,-1.03195 q 0,0.13445 -0.0545,0.25435 -0.0545,0.11628 -0.148978,0.20712 -0.09447,0.0872 -0.22165,0.14171 -0.123543,0.0509 -0.265253,0.0509 -0.138078,0 -0.257987,-0.0509 -0.119909,-0.0545 -0.214383,-0.14171 -0.09084,-0.0908 -0.145344,-0.20712 -0.05087,-0.1199 -0.05087,-0.25435 0,-0.13807 0.05087,-0.25798 0.0545,-0.11991 0.145344,-0.21075 0.09447,-0.0908 0.214383,-0.14171 0.119909,-0.0509 0.257987,-0.0509 0.14171,0 0.265253,0.0509 0.127176,0.0509 0.22165,0.14171 0.09447,0.0908 0.148978,0.21075 0.0545,0.11991 0.0545,0.25798 z"
       style="font-style:normal;font-variant:normal;font-weight:900;font-stretch:normal;font-size:7.26722px;font-family:Lato;-inkscape-font-specification:'Lato, Heavy';font-variant-ligatures:normal;font-variant-position:normal;font-variant-caps:normal;font-variant-numeric:normal;font-variant-alternates:normal;font-variant-east-asian:normal;font-feature-settings:normal;font-variation-settings:normal;text-indent:0;text-align:start;text-decoration:none;text-decoration-line:none;text-decoration-style:solid;text-decoration-color:#000000;letter-spacing:0px;word-spacing:0px;text-transform:none;writing-mode:lr-tb;direction:ltr;text-orientation:mixed;dominant-baseline:auto;baseline-shift:baseline;text-anchor:start;white-space:normal;shape-padding:0;shape-margin:0;inline-size:0;vector-effect:none;fill:#ffffff;fill-opacity:1;stroke:#000000;stroke-width:0.529167;stroke-linecap:round;stroke-linejoin:round;stroke-miterlimit:4;stroke-dasharray:none;stroke-dashoffset:0;stroke-opacity:0.5;paint-order:stroke fill markers;stop-color:#000000;stop-opacity:1"
       id="path1093" />
    <path
       d="m 90.80715,347.11209 v -3.76805 h 0.697653 q 0.105375,0 0.174413,0.0472 0.07267,0.0472 0.101741,0.14172 l 0.0654,0.21801 q 0.109009,-0.10174 0.225284,-0.18895 0.116276,-0.0872 0.247086,-0.14534 0.134443,-0.0618 0.287055,-0.0945 0.156245,-0.0363 0.337926,-0.0363 0.308856,0 0.545041,0.10901 0.239818,0.10537 0.403331,0.29795 0.163512,0.18895 0.247085,0.45421 0.08357,0.26162 0.08357,0.57047 v 2.39455 h -1.126419 v -2.39455 q 0,-0.27615 -0.127176,-0.42876 -0.127177,-0.15625 -0.374262,-0.15625 -0.185314,0 -0.348827,0.0799 -0.163512,0.0799 -0.31249,0.21438 v 2.68524 z"
       style="font-style:normal;font-variant:normal;font-weight:900;font-stretch:normal;font-size:7.26722px;font-family:Lato;-inkscape-font-specification:'Lato, Heavy';font-variant-ligatures:normal;font-variant-position:normal;font-variant-caps:normal;font-variant-numeric:normal;font-variant-alternates:normal;font-variant-east-asian:normal;font-feature-settings:normal;font-variation-settings:normal;text-indent:0;text-align:start;text-decoration:none;text-decoration-line:none;text-decoration-style:solid;text-decoration-color:#000000;letter-spacing:0px;word-spacing:0px;text-transform:none;writing-mode:lr-tb;direction:ltr;text-orientation:mixed;dominant-baseline:auto;baseline-shift:baseline;text-anchor:start;white-space:normal;shape-padding:0;shape-margin:0;inline-size:0;vector-effect:none;fill:#ffffff;fill-opacity:1;stroke:#000000;stroke-width:0.529167;stroke-linecap:round;stroke-linejoin:round;stroke-miterlimit:4;stroke-dasharray:none;stroke-dashoffset:0;stroke-opacity:0.5;paint-order:stroke fill markers;stop-color:#000000;stop-opacity:1"
       id="path1095" />
    <path
       d="m 99.375195,342.89347 q -0.0545,0.0872 -0.116276,0.13081 -0.05814,0.0436 -0.152611,0.0436 -0.08357,0 -0.181681,-0.0509 -0.09447,-0.0545 -0.218016,-0.11991 -0.119909,-0.0654 -0.276155,-0.11627 -0.156245,-0.0545 -0.356094,-0.0545 -0.345192,0 -0.515972,0.14898 -0.167146,0.14535 -0.167146,0.39607 0,0.15987 0.101741,0.26525 0.101741,0.10537 0.265253,0.18168 0.167146,0.0763 0.377896,0.14171 0.214383,0.0618 0.436033,0.14171 0.22165,0.0763 0.4324,0.18168 0.214383,0.10538 0.377895,0.26889 0.167146,0.16351 0.268887,0.3997 0.101741,0.23255 0.101741,0.56321 0,0.36699 -0.127176,0.68675 -0.127176,0.31976 -0.370628,0.55957 -0.239819,0.23619 -0.595912,0.37427 -0.35246,0.13444 -0.803028,0.13444 -0.247086,0 -0.505072,-0.0509 -0.254353,-0.0509 -0.494171,-0.14171 -0.239818,-0.0945 -0.450567,-0.22165 -0.21075,-0.12718 -0.366995,-0.28342 l 0.363361,-0.57411 q 0.03997,-0.0654 0.112642,-0.10538 0.07267,-0.04 0.156245,-0.04 0.109008,0 0.218017,0.069 0.112642,0.069 0.250719,0.15261 0.141711,0.0836 0.323391,0.15261 0.181681,0.069 0.428766,0.069 0.334292,0 0.519606,-0.14534 0.185314,-0.14898 0.185314,-0.46874 0,-0.18531 -0.101741,-0.30159 -0.101741,-0.11627 -0.268887,-0.19258 -0.163512,-0.0763 -0.374262,-0.13444 -0.210749,-0.0581 -0.432399,-0.12718 -0.221651,-0.0727 -0.4324,-0.17441 -0.210749,-0.10538 -0.377895,-0.27252 -0.163513,-0.17078 -0.265254,-0.4215 -0.101741,-0.25436 -0.101741,-0.62498 0,-0.29796 0.119909,-0.58138 0.119909,-0.28342 0.35246,-0.50507 0.232551,-0.22165 0.570477,-0.35246 0.337926,-0.13445 0.773959,-0.13445 0.243452,0 0.472369,0.04 0.232551,0.0363 0.439667,0.11265 0.207116,0.0727 0.385163,0.17804 0.18168,0.10174 0.323391,0.23255 z"
       style="font-style:normal;font-variant:normal;font-weight:900;font-stretch:normal;font-size:7.26722px;font-family:Lato;-inkscape-font-specification:'Lato, Heavy';font-variant-ligatures:normal;font-variant-position:normal;font-variant-caps:normal;font-variant-numeric:normal;font-variant-alternates:normal;font-variant-east-asian:normal;font-feature-settings:normal;font-variation-settings:normal;text-indent:0;text-align:start;text-decoration:none;text-decoration-line:none;text-decoration-style:solid;text-decoration-color:#000000;letter-spacing:0px;word-spacing:0px;text-transform:none;writing-mode:lr-tb;direction:ltr;text-orientation:mixed;dominant-baseline:auto;baseline-shift:baseline;text-anchor:start;white-space:normal;shape-padding:0;shape-margin:0;inline-size:0;vector-effect:none;fill:#ffffff;fill-opacity:1;stroke:#000000;stroke-width:0.529167;stroke-linecap:round;stroke-linejoin:round;stroke-miterlimit:4;stroke-dasharray:none;stroke-dashoffset:0;stroke-opacity:0.5;paint-order:stroke fill markers;stop-color:#000000;stop-opacity:1"
       id="path1097" />
    <path
       d="m 101.52629,341.67258 v 5.43951 h -1.12642 v -5.43951 z"
       style="font-style:normal;font-variant:normal;font-weight:900;font-stretch:normal;font-size:7.26722px;font-family:Lato;-inkscape-font-specification:'Lato, Heavy';font-variant-ligatures:normal;font-variant-position:normal;font-variant-caps:normal;font-variant-numeric:normal;font-variant-alternates:normal;font-variant-east-asian:normal;font-feature-settings:normal;font-variation-settings:normal;text-indent:0;text-align:start;text-decoration:none;text-decoration-line:none;text-decoration-style:solid;text-decoration-color:#000000;letter-spacing:0px;word-spacing:0px;text-transform:none;writing-mode:lr-tb;direction:ltr;text-orientation:mixed;dominant-baseline:auto;baseline-shift:baseline;text-anchor:start;white-space:normal;shape-padding:0;shape-margin:0;inline-size:0;vector-effect:none;fill:#ffffff;fill-opacity:1;stroke:#000000;stroke-width:0.529167;stroke-linecap:round;stroke-linejoin:round;stroke-miterlimit:4;stroke-dasharray:none;stroke-dashoffset:0;stroke-opacity:0.5;paint-order:stroke fill markers;stop-color:#000000;stop-opacity:1"
       id="path1099" />
    <path
       d="m 104.11342,343.2859 q 0.42876,0 0.78122,0.13444 0.35246,0.13445 0.60318,0.38517 0.25436,0.25072 0.39243,0.61044 0.14171,0.3561 0.14171,0.80303 0,0.45057 -0.14171,0.81393 -0.13807,0.35973 -0.39243,0.61408 -0.25072,0.25072 -0.60318,0.3888 -0.35246,0.13444 -0.78122,0.13444 -0.4324,0 -0.7885,-0.13444 -0.35246,-0.13808 -0.61044,-0.3888 -0.25435,-0.25435 -0.39607,-0.61408 -0.13807,-0.36336 -0.13807,-0.81393 0,-0.44693 0.13807,-0.80303 0.14172,-0.35972 0.39607,-0.61044 0.25798,-0.25072 0.61044,-0.38517 0.3561,-0.13444 0.7885,-0.13444 z m 0,3.0486 q 0.38879,0 0.57048,-0.27252 0.18531,-0.27616 0.18531,-0.83573 0,-0.55958 -0.18531,-0.8321 -0.18169,-0.27252 -0.57048,-0.27252 -0.3997,0 -0.58501,0.27252 -0.18532,0.27252 -0.18532,0.8321 0,0.55957 0.18532,0.83573 0.18531,0.27252 0.58501,0.27252 z"
       style="font-style:normal;font-variant:normal;font-weight:900;font-stretch:normal;font-size:7.26722px;font-family:Lato;-inkscape-font-specification:'Lato, Heavy';font-variant-ligatures:normal;font-variant-position:normal;font-variant-caps:normal;font-variant-numeric:normal;font-variant-alternates:normal;font-variant-east-asian:normal;font-feature-settings:normal;font-variation-settings:normal;text-indent:0;text-align:start;text-decoration:none;text-decoration-line:none;text-decoration-style:solid;text-decoration-color:#000000;letter-spacing:0px;word-spacing:0px;text-transform:none;writing-mode:lr-tb;direction:ltr;text-orientation:mixed;dominant-baseline:auto;baseline-shift:baseline;text-anchor:start;white-space:normal;shape-padding:0;shape-margin:0;inline-size:0;vector-effect:none;fill:#ffffff;fill-opacity:1;stroke:#000000;stroke-width:0.529167;stroke-linecap:round;stroke-linejoin:round;stroke-miterlimit:4;stroke-dasharray:none;stroke-dashoffset:0;stroke-opacity:0.5;paint-order:stroke fill markers;stop-color:#000000;stop-opacity:1"
       id="path1101" />
    <path
       d="m 108.04498,348.08953 q -0.0509,0.11264 -0.12354,0.16351 -0.0727,0.0545 -0.23256,0.0545 h -0.84299 l 0.72672,-1.52612 -1.50432,-3.43739 h 0.99561 q 0.13081,0 0.20349,0.0581 0.0727,0.0581 0.10174,0.13807 l 0.61771,1.62423 q 0.0872,0.22528 0.14171,0.45056 0.0363,-0.11627 0.0799,-0.22891 0.0436,-0.11265 0.0836,-0.22892 l 0.55958,-1.61696 q 0.0291,-0.0836 0.11264,-0.13807 0.0872,-0.0581 0.18532,-0.0581 h 0.9084 z"
       style="font-style:normal;font-variant:normal;font-weight:900;font-stretch:normal;font-size:7.26722px;font-family:Lato;-inkscape-font-specification:'Lato, Heavy';font-variant-ligatures:normal;font-variant-position:normal;font-variant-caps:normal;font-variant-numeric:normal;font-variant-alternates:normal;font-variant-east-asian:normal;font-feature-settings:normal;font-variation-settings:normal;text-indent:0;text-align:start;text-decoration:none;text-decoration-line:none;text-decoration-style:solid;text-decoration-color:#000000;letter-spacing:0px;word-spacing:0px;text-transform:none;writing-mode:lr-tb;direction:ltr;text-orientation:mixed;dominant-baseline:auto;baseline-shift:baseline;text-anchor:start;white-space:normal;shape-padding:0;shape-margin:0;inline-size:0;vector-effect:none;fill:#ffffff;fill-opacity:1;stroke:#000000;stroke-width:0.529167;stroke-linecap:round;stroke-linejoin:round;stroke-miterlimit:4;stroke-dasharray:none;stroke-dashoffset:0;stroke-opacity:0.5;paint-order:stroke fill markers;stop-color:#000000;stop-opacity:1"
       id="path1103" />
    <path
       d="m 113.02302,347.11209 q -0.10537,0 -0.17805,-0.0472 -0.069,-0.0472 -0.0981,-0.14171 l -0.0872,-0.28705 q -0.11264,0.11991 -0.23619,0.21801 -0.12354,0.0981 -0.26888,0.17078 -0.14171,0.069 -0.30886,0.10538 -0.16351,0.04 -0.35609,0.04 -0.29433,0 -0.54504,-0.13081 -0.25072,-0.13081 -0.4324,-0.3779 -0.18168,-0.24708 -0.28706,-0.60318 -0.10174,-0.35972 -0.10174,-0.81756 0,-0.4215 0.11628,-0.78122 0.11627,-0.36337 0.32702,-0.62499 0.21438,-0.26525 0.51234,-0.41423 0.29796,-0.14897 0.65768,-0.14897 0.29069,0 0.49054,0.0872 0.20348,0.0836 0.36699,0.22165 v -1.90764 h 1.12642 v 5.43951 z m -1.14095,-0.80666 q 0.12354,0 0.22165,-0.0218 0.10174,-0.0254 0.18531,-0.069 0.0836,-0.0436 0.15625,-0.10901 0.0763,-0.0654 0.14897,-0.15261 v -1.59879 q -0.13081,-0.14171 -0.27978,-0.19621 -0.14535,-0.0581 -0.30886,-0.0581 -0.15625,0 -0.28706,0.0618 -0.13081,0.0618 -0.22891,0.19985 -0.0945,0.13444 -0.14898,0.35246 -0.0545,0.21802 -0.0545,0.52687 0,0.29796 0.0436,0.50144 0.0436,0.20348 0.11991,0.33066 0.0799,0.12354 0.18894,0.17805 0.10901,0.0545 0.24346,0.0545 z"
       style="font-style:normal;font-variant:normal;font-weight:900;font-stretch:normal;font-size:7.26722px;font-family:Lato;-inkscape-font-specification:'Lato, Heavy';font-variant-ligatures:normal;font-variant-position:normal;font-variant-caps:normal;font-variant-numeric:normal;font-variant-alternates:normal;font-variant-east-asian:normal;font-feature-settings:normal;font-variation-settings:normal;text-indent:0;text-align:start;text-decoration:none;text-decoration-line:none;text-decoration-style:solid;text-decoration-color:#000000;letter-spacing:0px;word-spacing:0px;text-transform:none;writing-mode:lr-tb;direction:ltr;text-orientation:mixed;dominant-baseline:auto;baseline-shift:baseline;text-anchor:start;white-space:normal;shape-padding:0;shape-margin:0;inline-size:0;vector-effect:none;fill:#ffffff;fill-opacity:1;stroke:#000000;stroke-width:0.529167;stroke-linecap:round;stroke-linejoin:round;stroke-miterlimit:4;stroke-dasharray:none;stroke-dashoffset:0;stroke-opacity:0.5;paint-order:stroke fill markers;stop-color:#000000;stop-opacity:1"
       id="path1105" />
    <path
       d="m 119.40363,341.81792 v 0.94474 h -2.1729 v 1.23543 h 1.66419 v 0.9084 h -1.66419 v 1.26086 h 2.1729 v 0.94474 h -3.40833 v -5.29417 z"
       style="font-style:normal;font-variant:normal;font-weight:900;font-stretch:normal;font-size:7.26722px;font-family:Lato;-inkscape-font-specification:'Lato, Heavy';font-variant-ligatures:normal;font-variant-position:normal;font-variant-caps:normal;font-variant-numeric:normal;font-variant-alternates:normal;font-variant-east-asian:normal;font-feature-settings:normal;font-variation-settings:normal;text-indent:0;text-align:start;text-decoration:none;text-decoration-line:none;text-decoration-style:solid;text-decoration-color:#000000;letter-spacing:0px;word-spacing:0px;text-transform:none;writing-mode:lr-tb;direction:ltr;text-orientation:mixed;dominant-baseline:auto;baseline-shift:baseline;text-anchor:start;white-space:normal;shape-padding:0;shape-margin:0;inline-size:0;vector-effect:none;fill:#ffffff;fill-opacity:1;stroke:#000000;stroke-width:0.529167;stroke-linecap:round;stroke-linejoin:round;stroke-miterlimit:4;stroke-dasharray:none;stroke-dashoffset:0;stroke-opacity:0.5;paint-order:stroke fill markers;stop-color:#000000;stop-opacity:1"
       id="path1107" />
    <path
       d="m 122.74654,347.11209 q -0.10537,0 -0.17804,-0.0472 -0.069,-0.0472 -0.0981,-0.14171 l -0.0872,-0.28705 q -0.11264,0.11991 -0.23618,0.21801 -0.12355,0.0981 -0.26889,0.17078 -0.14171,0.069 -0.30886,0.10538 -0.16351,0.04 -0.35609,0.04 -0.29432,0 -0.54504,-0.13081 -0.25072,-0.13081 -0.4324,-0.3779 -0.18168,-0.24708 -0.28706,-0.60318 -0.10174,-0.35972 -0.10174,-0.81756 0,-0.4215 0.11628,-0.78122 0.11627,-0.36337 0.32702,-0.62499 0.21439,-0.26525 0.51234,-0.41423 0.29796,-0.14897 0.65768,-0.14897 0.29069,0 0.49054,0.0872 0.20348,0.0836 0.367,0.22165 v -1.90764 h 1.12642 v 5.43951 z m -1.14095,-0.80666 q 0.12354,0 0.22165,-0.0218 0.10174,-0.0254 0.18531,-0.069 0.0836,-0.0436 0.15625,-0.10901 0.0763,-0.0654 0.14898,-0.15261 v -1.59879 q -0.13081,-0.14171 -0.27979,-0.19621 -0.14535,-0.0581 -0.30886,-0.0581 -0.15624,0 -0.28705,0.0618 -0.13081,0.0618 -0.22892,0.19985 -0.0945,0.13444 -0.14898,0.35246 -0.0545,0.21802 -0.0545,0.52687 0,0.29796 0.0436,0.50144 0.0436,0.20348 0.11991,0.33066 0.0799,0.12354 0.18895,0.17805 0.10901,0.0545 0.24345,0.0545 z"
       style="font-style:normal;font-variant:normal;font-weight:900;font-stretch:normal;font-size:7.26722px;font-family:Lato;-inkscape-font-specification:'Lato, Heavy';font-variant-ligatures:normal;font-variant-position:normal;font-variant-caps:normal;font-variant-numeric:normal;font-variant-alternates:normal;font-variant-east-asian:normal;font-feature-settings:normal;font-variation-settings:normal;text-indent:0;text-align:start;text-decoration:none;text-decoration-line:none;text-decoration-style:solid;text-decoration-color:#000000;letter-spacing:0px;word-spacing:0px;text-transform:none;writing-mode:lr-tb;direction:ltr;text-orientation:mixed;dominant-baseline:auto;baseline-shift:baseline;text-anchor:start;white-space:normal;shape-padding:0;shape-margin:0;inline-size:0;vector-effect:none;fill:#ffffff;fill-opacity:1;stroke:#000000;stroke-width:0.529167;stroke-linecap:round;stroke-linejoin:round;stroke-miterlimit:4;stroke-dasharray:none;stroke-dashoffset:0;stroke-opacity:0.5;paint-order:stroke fill markers;stop-color:#000000;stop-opacity:1"
       id="path1109" />
    <path
       d="m 125.37001,343.34404 v 2.39091 q 0,0.27979 0.12717,0.4324 0.12718,0.15261 0.37426,0.15261 0.18532,0 0.3452,-0.0763 0.16351,-0.0763 0.31612,-0.21438 v -2.68524 h 1.12642 v 3.76805 h -0.69765 q -0.21075,0 -0.27616,-0.18895 l -0.069,-0.21801 q -0.109,0.10537 -0.22528,0.19258 -0.11627,0.0836 -0.25072,0.14534 -0.13081,0.0581 -0.28342,0.0908 -0.15261,0.0363 -0.33429,0.0363 -0.30886,0 -0.54868,-0.10538 -0.23618,-0.109 -0.39969,-0.30159 -0.16352,-0.19258 -0.24709,-0.4542 -0.0836,-0.26162 -0.0836,-0.57411 v -2.39091 z"
       style="font-style:normal;font-variant:normal;font-weight:900;font-stretch:normal;font-size:7.26722px;font-family:Lato;-inkscape-font-specification:'Lato, Heavy';font-variant-ligatures:normal;font-variant-position:normal;font-variant-caps:normal;font-variant-numeric:normal;font-variant-alternates:normal;font-variant-east-asian:normal;font-feature-settings:normal;font-variation-settings:normal;text-indent:0;text-align:start;text-decoration:none;text-decoration-line:none;text-decoration-style:solid;text-decoration-color:#000000;letter-spacing:0px;word-spacing:0px;text-transform:none;writing-mode:lr-tb;direction:ltr;text-orientation:mixed;dominant-baseline:auto;baseline-shift:baseline;text-anchor:start;white-space:normal;shape-padding:0;shape-margin:0;inline-size:0;vector-effect:none;fill:#ffffff;fill-opacity:1;stroke:#000000;stroke-width:0.529167;stroke-linecap:round;stroke-linejoin:round;stroke-miterlimit:4;stroke-dasharray:none;stroke-dashoffset:0;stroke-opacity:0.5;paint-order:stroke fill markers;stop-color:#000000;stop-opacity:1"
       id="path1111" />
    <path
       d="m 131.24919,344.23791 q -0.0509,0.0618 -0.0981,0.0981 -0.0472,0.0363 -0.13444,0.0363 -0.0836,0 -0.15261,-0.04 -0.0654,-0.04 -0.14898,-0.0872 -0.0836,-0.0509 -0.19622,-0.0908 -0.11264,-0.04 -0.27979,-0.04 -0.20711,0 -0.35972,0.0763 -0.14898,0.0763 -0.24709,0.21802 -0.0981,0.14171 -0.14534,0.34882 -0.0472,0.20348 -0.0472,0.46147 0,0.54141 0.20712,0.8321 0.21075,0.29069 0.57774,0.29069 0.19622,0 0.30886,-0.0472 0.11627,-0.0509 0.19621,-0.10901 0.0799,-0.0618 0.14535,-0.11264 0.069,-0.0509 0.17078,-0.0509 0.13444,0 0.20348,0.0981 l 0.32702,0.40333 q -0.17441,0.19984 -0.36699,0.32702 -0.19258,0.12354 -0.39606,0.19622 -0.19985,0.069 -0.40334,0.0945 -0.20348,0.0291 -0.39606,0.0291 -0.34519,0 -0.66132,-0.13081 -0.31249,-0.13081 -0.5523,-0.3779 -0.23619,-0.25072 -0.3779,-0.61408 -0.13808,-0.36336 -0.13808,-0.82846 0,-0.40696 0.11991,-0.75942 0.12354,-0.3561 0.35973,-0.61408 0.23982,-0.26162 0.58864,-0.4106 0.35246,-0.14898 0.81393,-0.14898 0.4433,0 0.7776,0.14171 0.33429,0.14171 0.60317,0.41423 z"
       style="font-style:normal;font-variant:normal;font-weight:900;font-stretch:normal;font-size:7.26722px;font-family:Lato;-inkscape-font-specification:'Lato, Heavy';font-variant-ligatures:normal;font-variant-position:normal;font-variant-caps:normal;font-variant-numeric:normal;font-variant-alternates:normal;font-variant-east-asian:normal;font-feature-settings:normal;font-variation-settings:normal;text-indent:0;text-align:start;text-decoration:none;text-decoration-line:none;text-decoration-style:solid;text-decoration-color:#000000;letter-spacing:0px;word-spacing:0px;text-transform:none;writing-mode:lr-tb;direction:ltr;text-orientation:mixed;dominant-baseline:auto;baseline-shift:baseline;text-anchor:start;white-space:normal;shape-padding:0;shape-margin:0;inline-size:0;vector-effect:none;fill:#ffffff;fill-opacity:1;stroke:#000000;stroke-width:0.529167;stroke-linecap:round;stroke-linejoin:round;stroke-miterlimit:4;stroke-dasharray:none;stroke-dashoffset:0;stroke-opacity:0.5;paint-order:stroke fill markers;stop-color:#000000;stop-opacity:1"
       id="path1113" />
    <path
       d="m 134.66477,347.11209 q -0.15988,0 -0.24346,-0.0436 -0.0799,-0.0436 -0.13444,-0.18168 l -0.0799,-0.20712 q -0.14171,0.11991 -0.27252,0.21075 -0.13081,0.0908 -0.27252,0.15625 -0.13808,0.0618 -0.29796,0.0908 -0.15624,0.0327 -0.34882,0.0327 -0.25799,0 -0.46874,-0.0654 -0.21075,-0.069 -0.35973,-0.19984 -0.14534,-0.13081 -0.22528,-0.3234 -0.0799,-0.19621 -0.0799,-0.45056 0,-0.19985 0.10174,-0.4106 0.10174,-0.21075 0.35246,-0.38153 0.25072,-0.17441 0.67585,-0.29069 0.42514,-0.11627 1.07192,-0.13081 v -0.15988 q 0,-0.33066 -0.13808,-0.476 -0.13444,-0.14898 -0.38516,-0.14898 -0.19985,0 -0.32703,0.0436 -0.12717,0.0436 -0.22891,0.0981 -0.0981,0.0545 -0.19259,0.0981 -0.0945,0.0436 -0.22528,0.0436 -0.11627,0 -0.19985,-0.0545 -0.0799,-0.0581 -0.12717,-0.14171 l -0.20349,-0.35246 q 0.34156,-0.30159 0.75579,-0.44694 0.41787,-0.14897 0.89387,-0.14897 0.34156,0 0.61408,0.11264 0.27616,0.10901 0.4651,0.30885 0.19259,0.19622 0.29433,0.46874 0.10174,0.27252 0.10174,0.59591 v 2.35458 z m -1.29357,-0.68675 q 0.21802,0 0.38153,-0.0763 0.16351,-0.0763 0.33066,-0.24708 v -0.52324 q -0.33793,0.0145 -0.55594,0.0581 -0.21802,0.0436 -0.3452,0.109 -0.12717,0.0654 -0.17804,0.14898 -0.0472,0.0836 -0.0472,0.18168 0,0.19258 0.10537,0.27252 0.10538,0.0763 0.30886,0.0763 z"
       style="font-style:normal;font-variant:normal;font-weight:900;font-stretch:normal;font-size:7.26722px;font-family:Lato;-inkscape-font-specification:'Lato, Heavy';font-variant-ligatures:normal;font-variant-position:normal;font-variant-caps:normal;font-variant-numeric:normal;font-variant-alternates:normal;font-variant-east-asian:normal;font-feature-settings:normal;font-variation-settings:normal;text-indent:0;text-align:start;text-decoration:none;text-decoration-line:none;text-decoration-style:solid;text-decoration-color:#000000;letter-spacing:0px;word-spacing:0px;text-transform:none;writing-mode:lr-tb;direction:ltr;text-orientation:mixed;dominant-baseline:auto;baseline-shift:baseline;text-anchor:start;white-space:normal;shape-padding:0;shape-margin:0;inline-size:0;vector-effect:none;fill:#ffffff;fill-opacity:1;stroke:#000000;stroke-width:0.529167;stroke-linecap:round;stroke-linejoin:round;stroke-miterlimit:4;stroke-dasharray:none;stroke-dashoffset:0;stroke-opacity:0.5;paint-order:stroke fill markers;stop-color:#000000;stop-opacity:1"
       id="path1115" />
    <path
       d="m 137.30277,347.17023 q -0.26889,0 -0.47601,-0.0763 -0.20348,-0.0799 -0.34519,-0.22165 -0.13808,-0.14534 -0.21075,-0.34882 -0.0727,-0.20349 -0.0727,-0.45421 v -1.94761 h -0.31976 q -0.0872,0 -0.14898,-0.0545 -0.0618,-0.0581 -0.0618,-0.16715 v -0.43967 l 0.59955,-0.11627 0.22165,-0.91931 q 0.0436,-0.17441 0.24708,-0.17441 h 0.58865 v 1.10098 h 0.91567 v 0.77033 h -0.91567 v 1.87131 q 0,0.13081 0.0618,0.21802 0.0654,0.0836 0.18531,0.0836 0.0618,0 0.10174,-0.0109 0.0436,-0.0145 0.0727,-0.0291 0.0327,-0.0182 0.0581,-0.0291 0.0291,-0.0145 0.0654,-0.0145 0.0509,0 0.0799,0.0254 0.0327,0.0218 0.0654,0.0727 l 0.34156,0.53414 q -0.21801,0.16352 -0.49054,0.24709 -0.27252,0.0799 -0.5632,0.0799 z"
       style="font-style:normal;font-variant:normal;font-weight:900;font-stretch:normal;font-size:7.26722px;font-family:Lato;-inkscape-font-specification:'Lato, Heavy';font-variant-ligatures:normal;font-variant-position:normal;font-variant-caps:normal;font-variant-numeric:normal;font-variant-alternates:normal;font-variant-east-asian:normal;font-feature-settings:normal;font-variation-settings:normal;text-indent:0;text-align:start;text-decoration:none;text-decoration-line:none;text-decoration-style:solid;text-decoration-color:#000000;letter-spacing:0px;word-spacing:0px;text-transform:none;writing-mode:lr-tb;direction:ltr;text-orientation:mixed;dominant-baseline:auto;baseline-shift:baseline;text-anchor:start;white-space:normal;shape-padding:0;shape-margin:0;inline-size:0;vector-effect:none;fill:#ffffff;fill-opacity:1;stroke:#000000;stroke-width:0.529167;stroke-linecap:round;stroke-linejoin:round;stroke-miterlimit:4;stroke-dasharray:none;stroke-dashoffset:0;stroke-opacity:0.5;paint-order:stroke fill markers;stop-color:#000000;stop-opacity:1"
       id="path1117" />
    <path
       d="m 140.04977,343.34404 v 3.76805 h -1.12642 v -3.76805 z m 0.13081,-1.03195 q 0,0.13445 -0.0545,0.25435 -0.0545,0.11628 -0.14898,0.20712 -0.0945,0.0872 -0.22165,0.14171 -0.12355,0.0509 -0.26526,0.0509 -0.13807,0 -0.25798,-0.0509 -0.11991,-0.0545 -0.21439,-0.14171 -0.0908,-0.0908 -0.14534,-0.20712 -0.0509,-0.1199 -0.0509,-0.25435 0,-0.13807 0.0509,-0.25798 0.0545,-0.11991 0.14534,-0.21075 0.0945,-0.0908 0.21439,-0.14171 0.11991,-0.0509 0.25798,-0.0509 0.14171,0 0.26526,0.0509 0.12717,0.0509 0.22165,0.14171 0.0945,0.0908 0.14898,0.21075 0.0545,0.11991 0.0545,0.25798 z"
       style="font-style:normal;font-variant:normal;font-weight:900;font-stretch:normal;font-size:7.26722px;font-family:Lato;-inkscape-font-specification:'Lato, Heavy';font-variant-ligatures:normal;font-variant-position:normal;font-variant-caps:normal;font-variant-numeric:normal;font-variant-alternates:normal;font-variant-east-asian:normal;font-feature-settings:normal;font-variation-settings:normal;text-indent:0;text-align:start;text-decoration:none;text-decoration-line:none;text-decoration-style:solid;text-decoration-color:#000000;letter-spacing:0px;word-spacing:0px;text-transform:none;writing-mode:lr-tb;direction:ltr;text-orientation:mixed;dominant-baseline:auto;baseline-shift:baseline;text-anchor:start;white-space:normal;shape-padding:0;shape-margin:0;inline-size:0;vector-effect:none;fill:#ffffff;fill-opacity:1;stroke:#000000;stroke-width:0.529167;stroke-linecap:round;stroke-linejoin:round;stroke-miterlimit:4;stroke-dasharray:none;stroke-dashoffset:0;stroke-opacity:0.5;paint-order:stroke fill markers;stop-color:#000000;stop-opacity:1"
       id="path1119" />
    <path
       d="m 142.6369,343.2859 q 0.42877,0 0.78123,0.13444 0.35246,0.13445 0.60318,0.38517 0.25435,0.25072 0.39243,0.61044 0.14171,0.3561 0.14171,0.80303 0,0.45057 -0.14171,0.81393 -0.13808,0.35973 -0.39243,0.61408 -0.25072,0.25072 -0.60318,0.3888 -0.35246,0.13444 -0.78123,0.13444 -0.4324,0 -0.78849,-0.13444 -0.35246,-0.13808 -0.61045,-0.3888 -0.25435,-0.25435 -0.39606,-0.61408 -0.13808,-0.36336 -0.13808,-0.81393 0,-0.44693 0.13808,-0.80303 0.14171,-0.35972 0.39606,-0.61044 0.25799,-0.25072 0.61045,-0.38517 0.35609,-0.13444 0.78849,-0.13444 z m 0,3.0486 q 0.3888,0 0.57048,-0.27252 0.18531,-0.27616 0.18531,-0.83573 0,-0.55958 -0.18531,-0.8321 -0.18168,-0.27252 -0.57048,-0.27252 -0.3997,0 -0.58501,0.27252 -0.18531,0.27252 -0.18531,0.8321 0,0.55957 0.18531,0.83573 0.18531,0.27252 0.58501,0.27252 z"
       style="font-style:normal;font-variant:normal;font-weight:900;font-stretch:normal;font-size:7.26722px;font-family:Lato;-inkscape-font-specification:'Lato, Heavy';font-variant-ligatures:normal;font-variant-position:normal;font-variant-caps:normal;font-variant-numeric:normal;font-variant-alternates:normal;font-variant-east-asian:normal;font-feature-settings:normal;font-variation-settings:normal;text-indent:0;text-align:start;text-decoration:none;text-decoration-line:none;text-decoration-style:solid;text-decoration-color:#000000;letter-spacing:0px;word-spacing:0px;text-transform:none;writing-mode:lr-tb;direction:ltr;text-orientation:mixed;dominant-baseline:auto;baseline-shift:baseline;text-anchor:start;white-space:normal;shape-padding:0;shape-margin:0;inline-size:0;vector-effect:none;fill:#ffffff;fill-opacity:1;stroke:#000000;stroke-width:0.529167;stroke-linecap:round;stroke-linejoin:round;stroke-miterlimit:4;stroke-dasharray:none;stroke-dashoffset:0;stroke-opacity:0.5;paint-order:stroke fill markers;stop-color:#000000;stop-opacity:1"
       id="path1121" />
    <path
       d="m 145.17316,347.11209 v -3.76805 h 0.69766 q 0.10537,0 0.17441,0.0472 0.0727,0.0472 0.10174,0.14172 l 0.0654,0.21801 q 0.10901,-0.10174 0.22529,-0.18895 0.11627,-0.0872 0.24708,-0.14534 0.13445,-0.0618 0.28706,-0.0945 0.15624,-0.0363 0.33793,-0.0363 0.30885,0 0.54504,0.10901 0.23981,0.10537 0.40333,0.29795 0.16351,0.18895 0.24708,0.45421 0.0836,0.26162 0.0836,0.57047 v 2.39455 h -1.12642 v -2.39455 q 0,-0.27615 -0.12718,-0.42876 -0.12718,-0.15625 -0.37426,-0.15625 -0.18532,0 -0.34883,0.0799 -0.16351,0.0799 -0.31249,0.21438 v 2.68524 z"
       style="font-style:normal;font-variant:normal;font-weight:900;font-stretch:normal;font-size:7.26722px;font-family:Lato;-inkscape-font-specification:'Lato, Heavy';font-variant-ligatures:normal;font-variant-position:normal;font-variant-caps:normal;font-variant-numeric:normal;font-variant-alternates:normal;font-variant-east-asian:normal;font-feature-settings:normal;font-variation-settings:normal;text-indent:0;text-align:start;text-decoration:none;text-decoration-line:none;text-decoration-style:solid;text-decoration-color:#000000;letter-spacing:0px;word-spacing:0px;text-transform:none;writing-mode:lr-tb;direction:ltr;text-orientation:mixed;dominant-baseline:auto;baseline-shift:baseline;text-anchor:start;white-space:normal;shape-padding:0;shape-margin:0;inline-size:0;vector-effect:none;fill:#ffffff;fill-opacity:1;stroke:#000000;stroke-width:0.529167;stroke-linecap:round;stroke-linejoin:round;stroke-miterlimit:4;stroke-dasharray:none;stroke-dashoffset:0;stroke-opacity:0.5;paint-order:stroke fill markers;stop-color:#000000;stop-opacity:1"
       id="path1123" />
    <path
       d="m 59.332895,354.37931 q -0.159879,0 -0.243452,-0.0436 -0.07994,-0.0436 -0.134444,-0.18168 l -0.07994,-0.20712 q -0.141711,0.11991 -0.272521,0.21075 -0.13081,0.0908 -0.272521,0.15625 -0.138077,0.0618 -0.297956,0.0908 -0.156245,0.0327 -0.348826,0.0327 -0.257987,0 -0.468736,-0.0654 -0.21075,-0.069 -0.359728,-0.19984 -0.145344,-0.13081 -0.225283,-0.3234 -0.07994,-0.19621 -0.07994,-0.45056 0,-0.19985 0.101741,-0.4106 0.101741,-0.21075 0.35246,-0.38153 0.25072,-0.17441 0.675852,-0.29069 0.425132,-0.11627 1.071915,-0.13081 v -0.15988 q 0,-0.33066 -0.138077,-0.476 -0.134444,-0.14898 -0.385163,-0.14898 -0.199848,0 -0.327025,0.0436 -0.127176,0.0436 -0.228917,0.0981 -0.09811,0.0545 -0.192582,0.0981 -0.09447,0.0436 -0.225283,0.0436 -0.116276,0 -0.199849,-0.0545 -0.07994,-0.0581 -0.127176,-0.14171 l -0.203482,-0.35246 q 0.341559,-0.30159 0.75579,-0.44694 0.417866,-0.14897 0.893868,-0.14897 0.34156,0 0.614081,0.11264 0.276154,0.10901 0.465102,0.30885 0.192581,0.19622 0.294322,0.46874 0.101741,0.27252 0.101741,0.59591 v 2.35458 z m -1.293566,-0.68675 q 0.218017,0 0.381529,-0.0763 0.163513,-0.0763 0.330659,-0.24708 v -0.52324 q -0.337926,0.0145 -0.555942,0.0581 -0.218017,0.0436 -0.345193,0.109 -0.127177,0.0654 -0.178047,0.14898 -0.04724,0.0836 -0.04724,0.18168 0,0.19258 0.105374,0.27252 0.105375,0.0763 0.308857,0.0763 z"
       style="font-style:normal;font-variant:normal;font-weight:900;font-stretch:normal;font-size:7.26722px;font-family:Lato;-inkscape-font-specification:'Lato, Heavy';font-variant-ligatures:normal;font-variant-position:normal;font-variant-caps:normal;font-variant-numeric:normal;font-variant-alternates:normal;font-variant-east-asian:normal;font-feature-settings:normal;font-variation-settings:normal;text-indent:0;text-align:start;text-decoration:none;text-decoration-line:none;text-decoration-style:solid;text-decoration-color:#000000;letter-spacing:0px;word-spacing:0px;text-transform:none;writing-mode:lr-tb;direction:ltr;text-orientation:mixed;dominant-baseline:auto;baseline-shift:baseline;text-anchor:start;white-space:normal;shape-padding:0;shape-margin:0;inline-size:0;vector-effect:none;fill:#ffffff;fill-opacity:1;stroke:#000000;stroke-width:0.529167;stroke-linecap:round;stroke-linejoin:round;stroke-miterlimit:4;stroke-dasharray:none;stroke-dashoffset:0;stroke-opacity:0.5;paint-order:stroke fill markers;stop-color:#000000;stop-opacity:1"
       id="path1125" />
    <path
       d="m 60.648258,354.37931 v -3.76805 h 0.697653 q 0.105375,0 0.174414,0.0472 0.07267,0.0472 0.101741,0.14172 l 0.06541,0.21801 q 0.109008,-0.10174 0.225283,-0.18895 0.116276,-0.0872 0.247086,-0.14534 0.134443,-0.0618 0.287055,-0.0945 0.156245,-0.0363 0.337926,-0.0363 0.308857,0 0.545041,0.10901 0.239819,0.10537 0.403331,0.29795 0.163513,0.18895 0.247086,0.45421 0.08357,0.26162 0.08357,0.57047 v 2.39455 h -1.12642 v -2.39455 q 0,-0.27615 -0.127176,-0.42876 -0.127176,-0.15625 -0.374262,-0.15625 -0.185314,0 -0.348826,0.0799 -0.163513,0.0799 -0.312491,0.21438 v 2.68524 z"
       style="font-style:normal;font-variant:normal;font-weight:900;font-stretch:normal;font-size:7.26722px;font-family:Lato;-inkscape-font-specification:'Lato, Heavy';font-variant-ligatures:normal;font-variant-position:normal;font-variant-caps:normal;font-variant-numeric:normal;font-variant-alternates:normal;font-variant-east-asian:normal;font-feature-settings:normal;font-variation-settings:normal;text-indent:0;text-align:start;text-decoration:none;text-decoration-line:none;text-decoration-style:solid;text-decoration-color:#000000;letter-spacing:0px;word-spacing:0px;text-transform:none;writing-mode:lr-tb;direction:ltr;text-orientation:mixed;dominant-baseline:auto;baseline-shift:baseline;text-anchor:start;white-space:normal;shape-padding:0;shape-margin:0;inline-size:0;vector-effect:none;fill:#ffffff;fill-opacity:1;stroke:#000000;stroke-width:0.529167;stroke-linecap:round;stroke-linejoin:round;stroke-miterlimit:4;stroke-dasharray:none;stroke-dashoffset:0;stroke-opacity:0.5;paint-order:stroke fill markers;stop-color:#000000;stop-opacity:1"
       id="path1127" />
    <path
       d="m 67.508513,354.37931 q -0.105375,0 -0.178047,-0.0472 -0.06904,-0.0472 -0.09811,-0.14171 l -0.08721,-0.28705 q -0.112642,0.11991 -0.236185,0.21801 -0.123542,0.0981 -0.268887,0.17078 -0.141711,0.069 -0.308857,0.10538 -0.163512,0.04 -0.356093,0.04 -0.294323,0 -0.545042,-0.13081 -0.250719,-0.13081 -0.432399,-0.3779 -0.181681,-0.24708 -0.287056,-0.60318 -0.101741,-0.35972 -0.101741,-0.81756 0,-0.4215 0.116276,-0.78122 0.116275,-0.36337 0.327025,-0.62499 0.214383,-0.26525 0.512339,-0.41423 0.297956,-0.14897 0.657683,-0.14897 0.290689,0 0.490537,0.0872 0.203483,0.0836 0.366995,0.22165 v -1.90764 h 1.126419 v 5.43951 z m -1.140953,-0.80666 q 0.123542,0 0.22165,-0.0218 0.101741,-0.0254 0.185314,-0.069 0.08357,-0.0436 0.156245,-0.10901 0.07631,-0.0654 0.148978,-0.15261 v -1.59879 q -0.13081,-0.14171 -0.279788,-0.19621 -0.145344,-0.0581 -0.308857,-0.0581 -0.156245,0 -0.287055,0.0618 -0.13081,0.0618 -0.228917,0.19985 -0.09447,0.13444 -0.148978,0.35246 -0.0545,0.21802 -0.0545,0.52687 0,0.29796 0.0436,0.50144 0.0436,0.20348 0.119909,0.33066 0.07994,0.12354 0.188948,0.17805 0.109008,0.0545 0.243452,0.0545 z"
       style="font-style:normal;font-variant:normal;font-weight:900;font-stretch:normal;font-size:7.26722px;font-family:Lato;-inkscape-font-specification:'Lato, Heavy';font-variant-ligatures:normal;font-variant-position:normal;font-variant-caps:normal;font-variant-numeric:normal;font-variant-alternates:normal;font-variant-east-asian:normal;font-feature-settings:normal;font-variation-settings:normal;text-indent:0;text-align:start;text-decoration:none;text-decoration-line:none;text-decoration-style:solid;text-decoration-color:#000000;letter-spacing:0px;word-spacing:0px;text-transform:none;writing-mode:lr-tb;direction:ltr;text-orientation:mixed;dominant-baseline:auto;baseline-shift:baseline;text-anchor:start;white-space:normal;shape-padding:0;shape-margin:0;inline-size:0;vector-effect:none;fill:#ffffff;fill-opacity:1;stroke:#000000;stroke-width:0.529167;stroke-linecap:round;stroke-linejoin:round;stroke-miterlimit:4;stroke-dasharray:none;stroke-dashoffset:0;stroke-opacity:0.5;paint-order:stroke fill markers;stop-color:#000000;stop-opacity:1"
       id="path1129" />
    <path
       d="m 74.038102,353.00944 q 0.0436,0 0.08721,0.0182 0.0436,0.0145 0.08357,0.0545 l 0.486903,0.51234 q -0.319757,0.41787 -0.803027,0.63225 -0.479637,0.21075 -1.13732,0.21075 -0.60318,0 -1.082816,-0.20348 -0.476003,-0.20712 -0.810295,-0.56685 -0.330659,-0.36336 -0.508706,-0.85753 -0.178047,-0.4978 -0.178047,-1.07918 0,-0.59228 0.203483,-1.08645 0.203482,-0.4978 0.566843,-0.85753 0.366994,-0.35973 0.8757,-0.55958 0.508705,-0.19985 1.122785,-0.19985 0.297956,0 0.559576,0.0545 0.265254,0.0509 0.494171,0.14534 0.228918,0.0908 0.421499,0.22165 0.192581,0.12718 0.341559,0.28342 l -0.414231,0.55595 q -0.03997,0.0509 -0.09447,0.0945 -0.0545,0.04 -0.152612,0.04 -0.0654,0 -0.123542,-0.0291 -0.05814,-0.0291 -0.123543,-0.069 -0.0654,-0.0436 -0.145345,-0.0908 -0.0763,-0.0509 -0.185314,-0.0908 -0.105374,-0.0436 -0.250719,-0.0727 -0.141711,-0.0291 -0.334292,-0.0291 -0.334292,0 -0.610446,0.11991 -0.276155,0.11628 -0.476003,0.33793 -0.196215,0.21801 -0.308857,0.5305 -0.109008,0.31249 -0.109008,0.70129 0,0.40696 0.109008,0.72309 0.112642,0.31612 0.301589,0.53414 0.192582,0.21438 0.446935,0.32702 0.254352,0.11265 0.545041,0.11265 0.167146,0 0.305223,-0.0145 0.138077,-0.0182 0.254353,-0.0581 0.119909,-0.04 0.225284,-0.10174 0.109008,-0.0654 0.218016,-0.15988 0.0436,-0.0363 0.09447,-0.0581 0.05087,-0.0254 0.105375,-0.0254 z"
       style="font-style:normal;font-variant:normal;font-weight:900;font-stretch:normal;font-size:7.26722px;font-family:Lato;-inkscape-font-specification:'Lato, Heavy';font-variant-ligatures:normal;font-variant-position:normal;font-variant-caps:normal;font-variant-numeric:normal;font-variant-alternates:normal;font-variant-east-asian:normal;font-feature-settings:normal;font-variation-settings:normal;text-indent:0;text-align:start;text-decoration:none;text-decoration-line:none;text-decoration-style:solid;text-decoration-color:#000000;letter-spacing:0px;word-spacing:0px;text-transform:none;writing-mode:lr-tb;direction:ltr;text-orientation:mixed;dominant-baseline:auto;baseline-shift:baseline;text-anchor:start;white-space:normal;shape-padding:0;shape-margin:0;inline-size:0;vector-effect:none;fill:#ffffff;fill-opacity:1;stroke:#000000;stroke-width:0.529167;stroke-linecap:round;stroke-linejoin:round;stroke-miterlimit:4;stroke-dasharray:none;stroke-dashoffset:0;stroke-opacity:0.5;paint-order:stroke fill markers;stop-color:#000000;stop-opacity:1"
       id="path1131" />
    <path
       d="m 75.255358,354.37931 v -3.76805 h 0.668584 q 0.08357,0 0.138077,0.0145 0.05814,0.0145 0.09447,0.0472 0.03997,0.0291 0.05814,0.0799 0.0218,0.0509 0.03634,0.12354 l 0.06177,0.35246 q 0.207116,-0.31976 0.465102,-0.50507 0.257987,-0.18531 0.56321,-0.18531 0.257986,0 0.414231,0.12354 l -0.145344,0.82846 q -0.01453,0.0763 -0.05814,0.10901 -0.0436,0.0291 -0.116275,0.0291 -0.06177,0 -0.145345,-0.0145 -0.08357,-0.0182 -0.210749,-0.0182 -0.443301,0 -0.697653,0.47237 v 2.31097 z"
       style="font-style:normal;font-variant:normal;font-weight:900;font-stretch:normal;font-size:7.26722px;font-family:Lato;-inkscape-font-specification:'Lato, Heavy';font-variant-ligatures:normal;font-variant-position:normal;font-variant-caps:normal;font-variant-numeric:normal;font-variant-alternates:normal;font-variant-east-asian:normal;font-feature-settings:normal;font-variation-settings:normal;text-indent:0;text-align:start;text-decoration:none;text-decoration-line:none;text-decoration-style:solid;text-decoration-color:#000000;letter-spacing:0px;word-spacing:0px;text-transform:none;writing-mode:lr-tb;direction:ltr;text-orientation:mixed;dominant-baseline:auto;baseline-shift:baseline;text-anchor:start;white-space:normal;shape-padding:0;shape-margin:0;inline-size:0;vector-effect:none;fill:#ffffff;fill-opacity:1;stroke:#000000;stroke-width:0.529167;stroke-linecap:round;stroke-linejoin:round;stroke-miterlimit:4;stroke-dasharray:none;stroke-dashoffset:0;stroke-opacity:0.5;paint-order:stroke fill markers;stop-color:#000000;stop-opacity:1"
       id="path1133" />
    <path
       d="m 80.785699,354.37931 q -0.159879,0 -0.243452,-0.0436 -0.07994,-0.0436 -0.134443,-0.18168 l -0.07994,-0.20712 q -0.141711,0.11991 -0.272521,0.21075 -0.13081,0.0908 -0.27252,0.15625 -0.138077,0.0618 -0.297956,0.0908 -0.156246,0.0327 -0.348827,0.0327 -0.257986,0 -0.468736,-0.0654 -0.210749,-0.069 -0.359727,-0.19984 -0.145344,-0.13081 -0.225284,-0.3234 -0.07994,-0.19621 -0.07994,-0.45056 0,-0.19985 0.101741,-0.4106 0.101741,-0.21075 0.35246,-0.38153 0.250719,-0.17441 0.675852,-0.29069 0.425132,-0.11627 1.071914,-0.13081 v -0.15988 q 0,-0.33066 -0.138077,-0.476 -0.134443,-0.14898 -0.385162,-0.14898 -0.199849,0 -0.327025,0.0436 -0.127177,0.0436 -0.228918,0.0981 -0.09811,0.0545 -0.192581,0.0981 -0.09447,0.0436 -0.225284,0.0436 -0.116275,0 -0.199848,-0.0545 -0.07994,-0.0581 -0.127177,-0.14171 l -0.203482,-0.35246 q 0.341559,-0.30159 0.755791,-0.44694 0.417865,-0.14897 0.893868,-0.14897 0.341559,0 0.61408,0.11264 0.276154,0.10901 0.465102,0.30885 0.192582,0.19622 0.294323,0.46874 0.101741,0.27252 0.101741,0.59591 v 2.35458 z m -1.293565,-0.68675 q 0.218017,0 0.381529,-0.0763 0.163512,-0.0763 0.330658,-0.24708 v -0.52324 q -0.337925,0.0145 -0.555942,0.0581 -0.218016,0.0436 -0.345193,0.109 -0.127176,0.0654 -0.178047,0.14898 -0.04724,0.0836 -0.04724,0.18168 0,0.19258 0.105375,0.27252 0.105375,0.0763 0.308857,0.0763 z"
       style="font-style:normal;font-variant:normal;font-weight:900;font-stretch:normal;font-size:7.26722px;font-family:Lato;-inkscape-font-specification:'Lato, Heavy';font-variant-ligatures:normal;font-variant-position:normal;font-variant-caps:normal;font-variant-numeric:normal;font-variant-alternates:normal;font-variant-east-asian:normal;font-feature-settings:normal;font-variation-settings:normal;text-indent:0;text-align:start;text-decoration:none;text-decoration-line:none;text-decoration-style:solid;text-decoration-color:#000000;letter-spacing:0px;word-spacing:0px;text-transform:none;writing-mode:lr-tb;direction:ltr;text-orientation:mixed;dominant-baseline:auto;baseline-shift:baseline;text-anchor:start;white-space:normal;shape-padding:0;shape-margin:0;inline-size:0;vector-effect:none;fill:#ffffff;fill-opacity:1;stroke:#000000;stroke-width:0.529167;stroke-linecap:round;stroke-linejoin:round;stroke-miterlimit:4;stroke-dasharray:none;stroke-dashoffset:0;stroke-opacity:0.5;paint-order:stroke fill markers;stop-color:#000000;stop-opacity:1"
       id="path1135" />
    <path
       d="m 82.268209,354.37931 v -2.99409 l -0.247086,-0.0509 q -0.127176,-0.0291 -0.207115,-0.0908 -0.07631,-0.0618 -0.07631,-0.18168 v -0.44331 h 0.530507 v -0.21438 q 0,-0.32339 0.101741,-0.58501 0.105375,-0.26162 0.297956,-0.44693 0.196215,-0.18532 0.476003,-0.28706 0.279788,-0.10174 0.635882,-0.10174 0.138077,0 0.254352,0.0182 0.119909,0.0145 0.247086,0.0509 l -0.0218,0.54867 q -0.0036,0.0581 -0.0327,0.0981 -0.02544,0.0363 -0.0654,0.0618 -0.03997,0.0218 -0.09084,0.0327 -0.04724,0.0109 -0.09447,0.0109 -0.148978,0 -0.265253,0.0291 -0.116276,0.0291 -0.196215,0.10538 -0.07631,0.0727 -0.116275,0.19621 -0.03997,0.11991 -0.03997,0.30523 v 0.17804 h 0.886601 v 0.77033 h -0.850265 v 2.99046 z"
       style="font-style:normal;font-variant:normal;font-weight:900;font-stretch:normal;font-size:7.26722px;font-family:Lato;-inkscape-font-specification:'Lato, Heavy';font-variant-ligatures:normal;font-variant-position:normal;font-variant-caps:normal;font-variant-numeric:normal;font-variant-alternates:normal;font-variant-east-asian:normal;font-feature-settings:normal;font-variation-settings:normal;text-indent:0;text-align:start;text-decoration:none;text-decoration-line:none;text-decoration-style:solid;text-decoration-color:#000000;letter-spacing:0px;word-spacing:0px;text-transform:none;writing-mode:lr-tb;direction:ltr;text-orientation:mixed;dominant-baseline:auto;baseline-shift:baseline;text-anchor:start;white-space:normal;shape-padding:0;shape-margin:0;inline-size:0;vector-effect:none;fill:#ffffff;fill-opacity:1;stroke:#000000;stroke-width:0.529167;stroke-linecap:round;stroke-linejoin:round;stroke-miterlimit:4;stroke-dasharray:none;stroke-dashoffset:0;stroke-opacity:0.5;paint-order:stroke fill markers;stop-color:#000000;stop-opacity:1"
       id="path1137" />
    <path
       d="m 86.054426,354.43745 q -0.268887,0 -0.476002,-0.0763 -0.203483,-0.0799 -0.345193,-0.22165 -0.138078,-0.14534 -0.21075,-0.34882 -0.07267,-0.20349 -0.07267,-0.4542 v -1.94762 h -0.319758 q -0.08721,0 -0.148978,-0.0545 -0.06177,-0.0581 -0.06177,-0.16715 v -0.43967 l 0.599546,-0.11627 0.22165,-0.91931 q 0.0436,-0.17441 0.247085,-0.17441 h 0.588645 v 1.10098 h 0.91567 v 0.77033 h -0.91567 v 1.87131 q 0,0.13081 0.06177,0.21802 0.06541,0.0836 0.185315,0.0836 0.06177,0 0.101741,-0.0109 0.0436,-0.0145 0.07267,-0.0291 0.0327,-0.0182 0.05814,-0.0291 0.02907,-0.0145 0.0654,-0.0145 0.05087,0 0.07994,0.0254 0.0327,0.0218 0.0654,0.0727 l 0.341559,0.53414 q -0.218016,0.16352 -0.490537,0.24709 -0.272521,0.0799 -0.56321,0.0799 z"
       style="font-style:normal;font-variant:normal;font-weight:900;font-stretch:normal;font-size:7.26722px;font-family:Lato;-inkscape-font-specification:'Lato, Heavy';font-variant-ligatures:normal;font-variant-position:normal;font-variant-caps:normal;font-variant-numeric:normal;font-variant-alternates:normal;font-variant-east-asian:normal;font-feature-settings:normal;font-variation-settings:normal;text-indent:0;text-align:start;text-decoration:none;text-decoration-line:none;text-decoration-style:solid;text-decoration-color:#000000;letter-spacing:0px;word-spacing:0px;text-transform:none;writing-mode:lr-tb;direction:ltr;text-orientation:mixed;dominant-baseline:auto;baseline-shift:baseline;text-anchor:start;white-space:normal;shape-padding:0;shape-margin:0;inline-size:0;vector-effect:none;fill:#ffffff;fill-opacity:1;stroke:#000000;stroke-width:0.529167;stroke-linecap:round;stroke-linejoin:round;stroke-miterlimit:4;stroke-dasharray:none;stroke-dashoffset:0;stroke-opacity:0.5;paint-order:stroke fill markers;stop-color:#000000;stop-opacity:1"
       id="path1139" />
    <path
       d="m 91.991734,350.16069 q -0.0545,0.0872 -0.116276,0.13081 -0.05814,0.0436 -0.152611,0.0436 -0.08357,0 -0.181681,-0.0509 -0.09447,-0.0545 -0.218016,-0.11991 -0.119909,-0.0654 -0.276155,-0.11627 -0.156245,-0.0545 -0.356094,-0.0545 -0.345192,0 -0.515972,0.14898 -0.167146,0.14535 -0.167146,0.39607 0,0.15987 0.101741,0.26525 0.101741,0.10537 0.265253,0.18168 0.167146,0.0763 0.377896,0.14171 0.214383,0.0618 0.436033,0.14171 0.22165,0.0763 0.4324,0.18168 0.214383,0.10538 0.377895,0.26889 0.167146,0.16351 0.268887,0.3997 0.101741,0.23255 0.101741,0.56321 0,0.36699 -0.127176,0.68675 -0.127176,0.31976 -0.370628,0.55957 -0.239819,0.23619 -0.595912,0.37427 -0.35246,0.13444 -0.803028,0.13444 -0.247086,0 -0.505072,-0.0509 -0.254353,-0.0509 -0.494171,-0.14171 -0.239818,-0.0945 -0.450567,-0.22165 -0.21075,-0.12718 -0.366995,-0.28342 l 0.363361,-0.57411 q 0.03997,-0.0654 0.112642,-0.10538 0.07267,-0.04 0.156245,-0.04 0.109008,0 0.218017,0.069 0.112642,0.069 0.250719,0.15261 0.141711,0.0836 0.323391,0.15261 0.181681,0.069 0.428766,0.069 0.334292,0 0.519606,-0.14534 0.185314,-0.14898 0.185314,-0.46874 0,-0.18531 -0.101741,-0.30159 -0.101741,-0.11627 -0.268887,-0.19258 -0.163512,-0.0763 -0.374262,-0.13444 -0.210749,-0.0581 -0.432399,-0.12718 -0.221651,-0.0727 -0.4324,-0.17441 -0.210749,-0.10538 -0.377895,-0.27252 -0.163513,-0.17078 -0.265254,-0.4215 -0.101741,-0.25436 -0.101741,-0.62498 0,-0.29796 0.119909,-0.58138 0.119909,-0.28342 0.35246,-0.50507 0.232551,-0.22165 0.570477,-0.35246 0.337926,-0.13445 0.773959,-0.13445 0.243452,0 0.472369,0.04 0.232551,0.0363 0.439667,0.11265 0.207116,0.0727 0.385163,0.17804 0.18168,0.10174 0.323391,0.23255 z"
       style="font-style:normal;font-variant:normal;font-weight:900;font-stretch:normal;font-size:7.26722px;font-family:Lato;-inkscape-font-specification:'Lato, Heavy';font-variant-ligatures:normal;font-variant-position:normal;font-variant-caps:normal;font-variant-numeric:normal;font-variant-alternates:normal;font-variant-east-asian:normal;font-feature-settings:normal;font-variation-settings:normal;text-indent:0;text-align:start;text-decoration:none;text-decoration-line:none;text-decoration-style:solid;text-decoration-color:#000000;letter-spacing:0px;word-spacing:0px;text-transform:none;writing-mode:lr-tb;direction:ltr;text-orientation:mixed;dominant-baseline:auto;baseline-shift:baseline;text-anchor:start;white-space:normal;shape-padding:0;shape-margin:0;inline-size:0;vector-effect:none;fill:#ffffff;fill-opacity:1;stroke:#000000;stroke-width:0.529167;stroke-linecap:round;stroke-linejoin:round;stroke-miterlimit:4;stroke-dasharray:none;stroke-dashoffset:0;stroke-opacity:0.5;paint-order:stroke fill markers;stop-color:#000000;stop-opacity:1"
       id="path1141" />
    <path
       d="m 95.698014,351.50513 q -0.05087,0.0618 -0.09811,0.0981 -0.04724,0.0363 -0.134444,0.0363 -0.08357,0 -0.152611,-0.04 -0.06541,-0.04 -0.148979,-0.0872 -0.08357,-0.0509 -0.196214,-0.0908 -0.112642,-0.04 -0.279788,-0.04 -0.207116,0 -0.359728,0.0763 -0.148978,0.0763 -0.247085,0.21802 -0.09811,0.14171 -0.145345,0.34882 -0.04724,0.20348 -0.04724,0.46147 0,0.54141 0.207116,0.8321 0.21075,0.29069 0.577744,0.29069 0.196215,0 0.308857,-0.0472 0.116276,-0.0509 0.196215,-0.10901 0.07994,-0.0618 0.145344,-0.11264 0.06904,-0.0509 0.17078,-0.0509 0.134444,0 0.203482,0.0981 l 0.327025,0.40333 q -0.174413,0.19984 -0.366995,0.32702 -0.192581,0.12354 -0.396063,0.19622 -0.199849,0.069 -0.403331,0.0945 -0.203482,0.0291 -0.396063,0.0291 -0.345193,0 -0.661317,-0.13081 -0.312491,-0.13081 -0.552309,-0.3779 -0.236185,-0.25072 -0.377895,-0.61408 -0.138078,-0.36336 -0.138078,-0.82846 0,-0.40696 0.11991,-0.75942 0.123542,-0.3561 0.359727,-0.61408 0.239818,-0.26162 0.588645,-0.4106 0.35246,-0.14898 0.813928,-0.14898 0.443301,0 0.777593,0.14171 0.334292,0.14171 0.603179,0.41423 z"
       style="font-style:normal;font-variant:normal;font-weight:900;font-stretch:normal;font-size:7.26722px;font-family:Lato;-inkscape-font-specification:'Lato, Heavy';font-variant-ligatures:normal;font-variant-position:normal;font-variant-caps:normal;font-variant-numeric:normal;font-variant-alternates:normal;font-variant-east-asian:normal;font-feature-settings:normal;font-variation-settings:normal;text-indent:0;text-align:start;text-decoration:none;text-decoration-line:none;text-decoration-style:solid;text-decoration-color:#000000;letter-spacing:0px;word-spacing:0px;text-transform:none;writing-mode:lr-tb;direction:ltr;text-orientation:mixed;dominant-baseline:auto;baseline-shift:baseline;text-anchor:start;white-space:normal;shape-padding:0;shape-margin:0;inline-size:0;vector-effect:none;fill:#ffffff;fill-opacity:1;stroke:#000000;stroke-width:0.529167;stroke-linecap:round;stroke-linejoin:round;stroke-miterlimit:4;stroke-dasharray:none;stroke-dashoffset:0;stroke-opacity:0.5;paint-order:stroke fill markers;stop-color:#000000;stop-opacity:1"
       id="path1143" />
    <path
       d="m 97.674686,350.61126 v 3.76805 h -1.126419 v -3.76805 z m 0.13081,-1.03195 q 0,0.13445 -0.05451,0.25435 -0.0545,0.11628 -0.148978,0.20712 -0.09447,0.0872 -0.22165,0.14171 -0.123543,0.0509 -0.265253,0.0509 -0.138078,0 -0.257987,-0.0509 -0.119909,-0.0545 -0.214383,-0.14171 -0.09084,-0.0908 -0.145344,-0.20712 -0.05087,-0.1199 -0.05087,-0.25435 0,-0.13807 0.05087,-0.25798 0.0545,-0.11991 0.145344,-0.21075 0.09447,-0.0908 0.214383,-0.14171 0.119909,-0.0509 0.257987,-0.0509 0.14171,0 0.265253,0.0509 0.127177,0.0509 0.22165,0.14171 0.09447,0.0908 0.148978,0.21075 0.05451,0.11991 0.05451,0.25798 z"
       style="font-style:normal;font-variant:normal;font-weight:900;font-stretch:normal;font-size:7.26722px;font-family:Lato;-inkscape-font-specification:'Lato, Heavy';font-variant-ligatures:normal;font-variant-position:normal;font-variant-caps:normal;font-variant-numeric:normal;font-variant-alternates:normal;font-variant-east-asian:normal;font-feature-settings:normal;font-variation-settings:normal;text-indent:0;text-align:start;text-decoration:none;text-decoration-line:none;text-decoration-style:solid;text-decoration-color:#000000;letter-spacing:0px;word-spacing:0px;text-transform:none;writing-mode:lr-tb;direction:ltr;text-orientation:mixed;dominant-baseline:auto;baseline-shift:baseline;text-anchor:start;white-space:normal;shape-padding:0;shape-margin:0;inline-size:0;vector-effect:none;fill:#ffffff;fill-opacity:1;stroke:#000000;stroke-width:0.529167;stroke-linecap:round;stroke-linejoin:round;stroke-miterlimit:4;stroke-dasharray:none;stroke-dashoffset:0;stroke-opacity:0.5;paint-order:stroke fill markers;stop-color:#000000;stop-opacity:1"
       id="path1145" />
    <path
       d="m 100.19641,350.55312 q 0.37426,0 0.68312,0.11628 0.31249,0.11627 0.53414,0.33792 0.22528,0.22165 0.34882,0.54504 0.12718,0.31976 0.12718,0.72672 0,0.12718 -0.0109,0.20712 -0.0109,0.0799 -0.04,0.12718 -0.0291,0.0472 -0.0799,0.0654 -0.0472,0.0182 -0.12354,0.0182 h -2.1729 q 0.0545,0.47237 0.287055,0.68675 0.232551,0.21075 0.599545,0.21075 0.19622,0 0.33793,-0.0472 0.14171,-0.0472 0.25072,-0.10537 0.11264,-0.0581 0.20348,-0.10537 0.0945,-0.0472 0.19621,-0.0472 0.13445,0 0.20348,0.0981 l 0.32703,0.40333 q -0.17441,0.19984 -0.3779,0.32702 -0.19984,0.12354 -0.41423,0.19622 -0.21075,0.069 -0.42513,0.0945 -0.21075,0.0291 -0.40333,0.0291 -0.396064,0 -0.744891,-0.12718 -0.345193,-0.13081 -0.606813,-0.38516 -0.257986,-0.25435 -0.410598,-0.63225 -0.148978,-0.37789 -0.148978,-0.87933 0,-0.3779 0.127177,-0.71582 0.13081,-0.33793 0.370628,-0.59228 0.243452,-0.25435 0.585011,-0.40333 0.345193,-0.14898 0.777594,-0.14898 z m 0.0218,0.77759 q -0.323391,0 -0.505071,0.18532 -0.181681,0.18168 -0.239819,0.52687 h 1.40621 q 0,-0.13444 -0.0363,-0.26162 -0.0327,-0.12718 -0.11264,-0.22528 -0.0763,-0.10174 -0.20348,-0.16352 -0.12718,-0.0618 -0.30886,-0.0618 z"
       style="font-style:normal;font-variant:normal;font-weight:900;font-stretch:normal;font-size:7.26722px;font-family:Lato;-inkscape-font-specification:'Lato, Heavy';font-variant-ligatures:normal;font-variant-position:normal;font-variant-caps:normal;font-variant-numeric:normal;font-variant-alternates:normal;font-variant-east-asian:normal;font-feature-settings:normal;font-variation-settings:normal;text-indent:0;text-align:start;text-decoration:none;text-decoration-line:none;text-decoration-style:solid;text-decoration-color:#000000;letter-spacing:0px;word-spacing:0px;text-transform:none;writing-mode:lr-tb;direction:ltr;text-orientation:mixed;dominant-baseline:auto;baseline-shift:baseline;text-anchor:start;white-space:normal;shape-padding:0;shape-margin:0;inline-size:0;vector-effect:none;fill:#ffffff;fill-opacity:1;stroke:#000000;stroke-width:0.529167;stroke-linecap:round;stroke-linejoin:round;stroke-miterlimit:4;stroke-dasharray:none;stroke-dashoffset:0;stroke-opacity:0.5;paint-order:stroke fill markers;stop-color:#000000;stop-opacity:1"
       id="path1147" />
    <path
       d="m 102.53644,354.37931 v -3.76805 h 0.69766 q 0.10537,0 0.17441,0.0472 0.0727,0.0472 0.10174,0.14172 l 0.0654,0.21801 q 0.109,-0.10174 0.22528,-0.18895 0.11628,-0.0872 0.24709,-0.14534 0.13444,-0.0618 0.28705,-0.0945 0.15625,-0.0363 0.33793,-0.0363 0.30885,0 0.54504,0.10901 0.23982,0.10537 0.40333,0.29795 0.16351,0.18895 0.24708,0.45421 0.0836,0.26162 0.0836,0.57047 v 2.39455 h -1.12642 v -2.39455 q 0,-0.27615 -0.12718,-0.42876 -0.12717,-0.15625 -0.37426,-0.15625 -0.18531,0 -0.34883,0.0799 -0.16351,0.0799 -0.31249,0.21438 v 2.68524 z"
       style="font-style:normal;font-variant:normal;font-weight:900;font-stretch:normal;font-size:7.26722px;font-family:Lato;-inkscape-font-specification:'Lato, Heavy';font-variant-ligatures:normal;font-variant-position:normal;font-variant-caps:normal;font-variant-numeric:normal;font-variant-alternates:normal;font-variant-east-asian:normal;font-feature-settings:normal;font-variation-settings:normal;text-indent:0;text-align:start;text-decoration:none;text-decoration-line:none;text-decoration-style:solid;text-decoration-color:#000000;letter-spacing:0px;word-spacing:0px;text-transform:none;writing-mode:lr-tb;direction:ltr;text-orientation:mixed;dominant-baseline:auto;baseline-shift:baseline;text-anchor:start;white-space:normal;shape-padding:0;shape-margin:0;inline-size:0;vector-effect:none;fill:#ffffff;fill-opacity:1;stroke:#000000;stroke-width:0.529167;stroke-linecap:round;stroke-linejoin:round;stroke-miterlimit:4;stroke-dasharray:none;stroke-dashoffset:0;stroke-opacity:0.5;paint-order:stroke fill markers;stop-color:#000000;stop-opacity:1"
       id="path1149" />
    <path
       d="m 109.46937,351.50513 q -0.0509,0.0618 -0.0981,0.0981 -0.0472,0.0363 -0.13445,0.0363 -0.0836,0 -0.15261,-0.04 -0.0654,-0.04 -0.14898,-0.0872 -0.0836,-0.0509 -0.19621,-0.0908 -0.11264,-0.04 -0.27979,-0.04 -0.20712,0 -0.35973,0.0763 -0.14898,0.0763 -0.24708,0.21802 -0.0981,0.14171 -0.14535,0.34882 -0.0472,0.20348 -0.0472,0.46147 0,0.54141 0.20712,0.8321 0.21075,0.29069 0.57774,0.29069 0.19622,0 0.30886,-0.0472 0.11628,-0.0509 0.19622,-0.10901 0.0799,-0.0618 0.14534,-0.11264 0.069,-0.0509 0.17078,-0.0509 0.13444,0 0.20348,0.0981 l 0.32703,0.40333 q -0.17442,0.19984 -0.367,0.32702 -0.19258,0.12354 -0.39606,0.19622 -0.19985,0.069 -0.40333,0.0945 -0.20348,0.0291 -0.39606,0.0291 -0.3452,0 -0.66132,-0.13081 -0.31249,-0.13081 -0.55231,-0.3779 -0.23619,-0.25072 -0.3779,-0.61408 -0.13807,-0.36336 -0.13807,-0.82846 0,-0.40696 0.11991,-0.75942 0.12354,-0.3561 0.35972,-0.61408 0.23982,-0.26162 0.58865,-0.4106 0.35246,-0.14898 0.81393,-0.14898 0.4433,0 0.77759,0.14171 0.33429,0.14171 0.60318,0.41423 z"
       style="font-style:normal;font-variant:normal;font-weight:900;font-stretch:normal;font-size:7.26722px;font-family:Lato;-inkscape-font-specification:'Lato, Heavy';font-variant-ligatures:normal;font-variant-position:normal;font-variant-caps:normal;font-variant-numeric:normal;font-variant-alternates:normal;font-variant-east-asian:normal;font-feature-settings:normal;font-variation-settings:normal;text-indent:0;text-align:start;text-decoration:none;text-decoration-line:none;text-decoration-style:solid;text-decoration-color:#000000;letter-spacing:0px;word-spacing:0px;text-transform:none;writing-mode:lr-tb;direction:ltr;text-orientation:mixed;dominant-baseline:auto;baseline-shift:baseline;text-anchor:start;white-space:normal;shape-padding:0;shape-margin:0;inline-size:0;vector-effect:none;fill:#ffffff;fill-opacity:1;stroke:#000000;stroke-width:0.529167;stroke-linecap:round;stroke-linejoin:round;stroke-miterlimit:4;stroke-dasharray:none;stroke-dashoffset:0;stroke-opacity:0.5;paint-order:stroke fill markers;stop-color:#000000;stop-opacity:1"
       id="path1151" />
    <path
       d="m 111.89661,350.55312 q 0.37426,0 0.68312,0.11628 0.31249,0.11627 0.53414,0.33792 0.22528,0.22165 0.34883,0.54504 0.12717,0.31976 0.12717,0.72672 0,0.12718 -0.0109,0.20712 -0.0109,0.0799 -0.04,0.12718 -0.0291,0.0472 -0.0799,0.0654 -0.0472,0.0182 -0.12354,0.0182 h -2.1729 q 0.0545,0.47237 0.28706,0.68675 0.23255,0.21075 0.59954,0.21075 0.19622,0 0.33793,-0.0472 0.14171,-0.0472 0.25072,-0.10537 0.11264,-0.0581 0.20348,-0.10537 0.0945,-0.0472 0.19622,-0.0472 0.13444,0 0.20348,0.0981 l 0.32702,0.40333 q -0.17441,0.19984 -0.37789,0.32702 -0.19985,0.12354 -0.41423,0.19622 -0.21075,0.069 -0.42514,0.0945 -0.21075,0.0291 -0.40333,0.0291 -0.39606,0 -0.74489,-0.12718 -0.34519,-0.13081 -0.60681,-0.38516 -0.25799,-0.25435 -0.4106,-0.63225 -0.14898,-0.37789 -0.14898,-0.87933 0,-0.3779 0.12718,-0.71582 0.13081,-0.33793 0.37063,-0.59228 0.24345,-0.25435 0.58501,-0.40333 0.34519,-0.14898 0.77759,-0.14898 z m 0.0218,0.77759 q -0.32339,0 -0.50507,0.18532 -0.18168,0.18168 -0.23982,0.52687 h 1.40621 q 0,-0.13444 -0.0363,-0.26162 -0.0327,-0.12718 -0.11264,-0.22528 -0.0763,-0.10174 -0.20348,-0.16352 -0.12718,-0.0618 -0.30886,-0.0618 z"
       style="font-style:normal;font-variant:normal;font-weight:900;font-stretch:normal;font-size:7.26722px;font-family:Lato;-inkscape-font-specification:'Lato, Heavy';font-variant-ligatures:normal;font-variant-position:normal;font-variant-caps:normal;font-variant-numeric:normal;font-variant-alternates:normal;font-variant-east-asian:normal;font-feature-settings:normal;font-variation-settings:normal;text-indent:0;text-align:start;text-decoration:none;text-decoration-line:none;text-decoration-style:solid;text-decoration-color:#000000;letter-spacing:0px;word-spacing:0px;text-transform:none;writing-mode:lr-tb;direction:ltr;text-orientation:mixed;dominant-baseline:auto;baseline-shift:baseline;text-anchor:start;white-space:normal;shape-padding:0;shape-margin:0;inline-size:0;vector-effect:none;fill:#ffffff;fill-opacity:1;stroke:#000000;stroke-width:0.529167;stroke-linecap:round;stroke-linejoin:round;stroke-miterlimit:4;stroke-dasharray:none;stroke-dashoffset:0;stroke-opacity:0.5;paint-order:stroke fill markers;stop-color:#000000;stop-opacity:1"
       id="path1153" />
  </g>
</svg>
