<?xml version="1.0" encoding="UTF-8" standalone="no"?>
<svg
   xmlns:dc="http://purl.org/dc/elements/1.1/"
   xmlns:cc="http://creativecommons.org/ns#"
   xmlns:rdf="http://www.w3.org/1999/02/22-rdf-syntax-ns#"
   xmlns:svg="http://www.w3.org/2000/svg"
   xmlns="http://www.w3.org/2000/svg"
   viewBox="0 0 297.94724 52.413586"
   version="1.1"
   id="svg6"
   width="297.94724"
   height="52.413586">
  <metadata
     id="metadata12">
    <rdf:RDF>
      <cc:Work
         rdf:about="">
        <dc:format>image/svg+xml</dc:format>
        <dc:type
           rdf:resource="http://purl.org/dc/dcmitype/StillImage" />
        <dc:title></dc:title>
      </cc:Work>
    </rdf:RDF>
  </metadata>
  <defs
     id="defs10" />
  <g
     id="g869"
     transform="translate(-2.35,-1.6964154)">
    <path
       id="formakademisk"
       d="m 23.9,1.7 a 7.78,7.78 0 0 0 -5.3,1.87 l -4.18,3.74 c -2.6,2.26 -4.29,3.9 -5.05,4.91 a 6.5,6.5 0 0 0 -1,1.94 C 8.17,14.83 8,15.96 7.9,17.56 A 63.7,63.7 0 0 0 7.75,21.6 c 0,0.35 -0.16,0.62 -0.46,0.83 -0.1,0.09 -1.7,0.93 -4.77,2.52 v 1.7 l 4.7,-0.21 0.97,0.03 v 10.38 c -0.04,6.32 -0.14,10.08 -0.3,11.28 -0.08,0.67 -0.3,1.13 -0.7,1.38 -0.5,0.32 -2.12,0.57 -4.84,0.76 v 2.63 c 4.82,-0.12 7.95,-0.17 9.4,-0.17 l 11.8,0.17 v -2.63 c -3,-0.23 -4.57,-0.36 -4.7,-0.38 -0.56,-0.1 -0.95,-0.24 -1.2,-0.45 -0.24,-0.2 -0.42,-0.47 -0.53,-0.8 -0.14,-0.46 -0.24,-1.8 -0.3,-4.05 -0.05,-2.24 -0.08,-4.6 -0.08,-7.07 V 26.47 c 2,-0.07 3.21,-0.1 3.63,-0.1 l 1.73,0.07 3.5,0.07 0.55,-3.08 c 0.06,-0.41 0.15,-0.82 0.27,-1.21 l -0.45,-0.35 c -1.45,0.1 -3.17,0.18 -5.15,0.22 l -4.08,0.03 v -4.8 c 0,-3.68 0.14,-5.98 0.41,-6.9 0.19,-0.62 0.56,-1.12 1.1,-1.48 a 5.8,5.8 0 0 1 3.2,-0.76 c 0.92,0 1.68,0.12 2.28,0.36 0.6,0.24 1.24,0.69 1.93,1.33 L 27.05,9.25 C 27,7.13 27.15,4.82 27.53,2.33 26.23,1.91 25.03,1.71 23.9,1.71 Z m 23.46,17.37 c -3.55,0 -6.66,0.66 -9.34,1.96 a 13,13 0 0 0 -6.01,5.8 c -1.34,2.58 -2,5.82 -2,9.74 0,5.77 1.4,10.13 4.23,13.1 2.82,2.96 6.84,4.44 12.05,4.44 3.2,0 6.09,-0.6 8.65,-1.8 1.5,-0.71 2.93,-1.77 4.29,-3.16 a 14.87,14.87 0 0 0 3.25,-5.52 24.3,24.3 0 0 0 1.21,-8.1 c 0,-5.39 -1.39,-9.48 -4.17,-12.27 -2.78,-2.8 -6.83,-4.19 -12.16,-4.19 z m 61.5,0.28 a 28.16,28.16 0 0 1 -4.46,1.66 c -1.31,0.35 -4.06,0.88 -8.27,1.59 v 2.7 c 2.19,0.07 3.5,0.18 3.94,0.34 0.28,0.1 0.49,0.24 0.61,0.44 0.13,0.2 0.22,1.02 0.3,2.5 0.11,2.92 0.17,5.4 0.17,7.45 v 4.51 c 0,1.45 -0.02,2.5 -0.04,3.14 l -0.13,3.07 a 6.36,6.36 0 0 1 -0.38,2.48 c -0.17,0.28 -0.4,0.48 -0.73,0.6 -0.7,0.24 -1.94,0.37 -3.74,0.37 v 2.7 a 250,250 0 0 1 9.36,-0.14 c 3.5,0 6.49,0.05 8.97,0.14 v -2.7 c -1.82,-0.14 -2.89,-0.25 -3.21,-0.34 a 1.73,1.73 0 0 1 -0.94,-0.52 c -0.18,-0.23 -0.3,-0.78 -0.34,-1.66 a 112.2,112.2 0 0 1 -0.17,-7.15 v -6.04 c -0.03,-3.18 0.02,-4.99 0.13,-5.43 a 6.22,6.22 0 0 1 2.1,-2.34 6.33,6.33 0 0 1 3.88,-1.18 c 1.4,0 2.54,0.33 3.42,0.99 a 4.64,4.64 0 0 1 1.76,2.45 c 0.29,0.98 0.43,2.64 0.43,4.99 v 4.9 l -0.07,6.12 c 0,1.89 -0.1,3.09 -0.25,3.6 -0.16,0.52 -0.37,0.87 -0.64,1.04 A 5,5 0 0 1 118.63,50 c -0.7,0.06 -1.27,0.13 -1.71,0.2 v 2.7 c 2.05,-0.1 5.22,-0.14 9.5,-0.14 3.86,0 6.81,0.05 8.86,0.14 v -2.7 l -2.81,-0.34 c -0.67,-0.1 -1.1,-0.2 -1.31,-0.32 -0.25,-0.16 -0.45,-0.4 -0.58,-0.72 -0.14,-0.32 -0.23,-0.9 -0.24,-1.76 l -0.1,-2.8 -0.08,-3.45 v -8.36 c -0.03,-1.84 0.09,-3.07 0.34,-3.68 a 5.5,5.5 0 0 1 1.94,-2.04 6.26,6.26 0 0 1 3.77,-1.12 c 1.31,0 2.4,0.3 3.27,0.92 a 5,5 0 0 1 1.85,2.52 c 0.37,1.08 0.55,3.66 0.55,7.77 v 2.62 c 0,1.83 -0.04,4 -0.13,6.54 l -0.39,6.26 0.49,0.66 a 63.2,63.2 0 0 1 5.95,-0.25 c 2.04,0 4.65,0.1 7.81,0.25 v -2.7 c -0.93,-0.09 -1.58,-0.15 -1.95,-0.17 -1.07,-0.07 -1.75,-0.24 -2.07,-0.5 -0.31,-0.27 -0.53,-0.91 -0.66,-1.93 -0.13,-1.03 -0.2,-3.38 -0.2,-7.07 v -3.6 a 107.94,107.94 0 0 0 0.11,-6.05 c 0,-2.3 -0.16,-4 -0.51,-5.1 a 8.9,8.9 0 0 0 -4.9,-5.4 c -1.26,-0.58 -3.03,-0.86 -5.32,-0.86 -0.88,0 -1.58,0.06 -2.1,0.16 -0.52,0.1 -1.15,0.3 -1.88,0.6 l -6.31,5.07 c -0.92,-2.1 -2.1,-3.6 -3.5,-4.5 -1.42,-0.88 -3.51,-1.33 -6.27,-1.33 -0.88,0 -1.58,0.06 -2.1,0.16 -0.51,0.1 -1.14,0.3 -1.87,0.6 l -6.29,5.07 v -5.58 z m -28.66,0 a 28.48,28.48 0 0 1 -4.49,1.66 c -1.32,0.35 -4.09,0.87 -8.3,1.59 v 2.7 c 2.18,0.07 3.49,0.18 3.93,0.34 0.28,0.1 0.48,0.24 0.61,0.44 0.12,0.2 0.23,1.02 0.3,2.5 0.1,2.92 0.17,5.4 0.17,7.44 v 4.52 c 0,1.45 -0.01,2.5 -0.04,3.14 l -0.13,3.07 a 6.37,6.37 0 0 1 -0.38,2.48 c -0.16,0.28 -0.41,0.48 -0.73,0.59 -0.7,0.25 -1.94,0.38 -3.74,0.38 v 2.7 c 3.85,-0.12 7.57,-0.18 11.14,-0.18 3.2,0 6.11,0.06 8.72,0.18 v -2.7 l -2.84,-0.27 a 6.18,6.18 0 0 1 -2.39,-0.49 c -0.36,-0.23 -0.6,-0.54 -0.7,-0.95 -0.1,-0.4 -0.17,-1.49 -0.2,-3.26 l -0.07,-4.7 v -3.45 c 0,-3.38 0.05,-5.32 0.14,-5.83 0.19,-0.88 0.77,-1.74 1.75,-2.58 a 5.21,5.21 0 0 1 3.5,-1.26 c 1.03,0 1.96,0.24 2.81,0.73 0.53,0.3 1.08,0.82 1.66,1.58 l 1.45,-0.44 c 0.04,-0.4 0.09,-1.93 0.14,-4.6 l 0.25,-4.92 a 6.19,6.19 0 0 0 -2.3,-0.4 c -1.36,0 -2.45,0.27 -3.28,0.82 -0.59,0.4 -1.49,1.3 -2.68,2.73 -0.8,1.02 -1.95,2.3 -3.44,3.84 l 0.08,-6.99 z m -33.7,3.28 c 1.61,0 3,0.5 4.13,1.5 1.14,0.98 2,2.74 2.6,5.27 0.59,2.52 0.88,5.55 0.88,9.08 0,5.02 -0.74,8.41 -2.21,10.16 a 5.58,5.58 0 0 1 -4.5,1.97 5.86,5.86 0 0 1 -5.12,-2.59 c -1.8,-2.6 -2.7,-6.97 -2.7,-13.1 0,-3.3 0.29,-5.81 0.86,-7.53 0.58,-1.72 1.39,-2.94 2.43,-3.66 a 6.13,6.13 0 0 1 3.63,-1.1 z m 126.28,16.45 a 575.13,575.13 0 0 1 -5.83,13.43 5.63,5.63 0 0 1 1.37,0 c 0.16,-0.59 0.4,-1.33 0.73,-2.23 0.32,-0.9 0.69,-1.85 1.08,-2.85 l 1.14,-0.03 1.14,-0.01 1.23,0.01 1.21,0.03 0.53,1.33 0.54,1.38 a 43.88,43.88 0 0 1 0.85,2.37 c 0.18,-0.02 0.34,-0.04 0.5,-0.04 h 0.98 c 0.16,0 0.33,0.02 0.5,0.04 a 113.33,113.33 0 0 1 -1.48,-3.35 280.44,280.44 0 0 1 -2.1,-5.05 l -1.07,-2.62 -0.96,-2.4 z m 31.3,0 a 882.69,882.69 0 0 1 -5.85,13.43 5.6,5.6 0 0 1 1.38,0 c 0.16,-0.59 0.4,-1.33 0.73,-2.23 0.33,-0.9 0.68,-1.85 1.08,-2.85 l 1.14,-0.03 1.14,-0.01 1.23,0.01 1.2,0.03 0.53,1.33 0.55,1.38 a 47.36,47.36 0 0 1 0.85,2.37 c 0.17,-0.02 0.34,-0.04 0.5,-0.04 h 0.98 c 0.16,0 0.32,0.02 0.5,0.04 -0.17,-0.3 -0.37,-0.75 -0.63,-1.34 l -0.85,-2 -1.02,-2.43 -1.09,-2.63 -1.05,-2.62 -0.97,-2.4 z m 44,0 a 182.88,182.88 0 0 1 -1.32,10.15 l -0.5,3.28 a 5.03,5.03 0 0 1 1.3,0 c 0,-0.51 0.05,-1.16 0.1,-1.97 a 122.09,122.09 0 0 1 0.52,-5.29 l 0.29,-2.58 h 0.04 c 0.82,1.69 1.64,3.34 2.45,4.96 0.81,1.62 1.6,3.23 2.34,4.84 h 0.17 a 73.7,73.7 0 0 1 2.36,-5 c 0.83,-1.59 1.67,-3.19 2.53,-4.8 h 0.04 c 0.2,1.66 0.36,3.3 0.5,4.9 0.14,1.6 0.27,3.24 0.4,4.94 0.16,-0.02 0.3,-0.04 0.45,-0.04 h 0.87 c 0.15,0 0.29,0.02 0.44,0.04 a 131.6,131.6 0 0 1 -0.4,-3.21 l -0.38,-3.28 -0.37,-3.38 c -0.11,-1.14 -0.24,-2.33 -0.38,-3.56 h -0.24 l -1.01,1.9 -1.09,2.07 -1.08,2.09 -1,1.9 a 122.5,122.5 0 0 0 -1.36,2.62 c -0.95,-1.8 -1.88,-3.57 -2.75,-5.28 -0.88,-1.72 -1.74,-3.48 -2.6,-5.3 z m 31.71,0 a 4.9,4.9 0 0 0 -1.67,0.27 c -0.5,0.18 -0.93,0.43 -1.29,0.75 -0.35,0.32 -0.62,0.7 -0.8,1.14 -0.2,0.44 -0.28,0.93 -0.28,1.47 0,0.76 0.14,1.35 0.44,1.8 0.3,0.45 0.65,0.82 1.09,1.1 0.43,0.3 0.9,0.53 1.4,0.72 0.5,0.2 0.98,0.4 1.41,0.64 0.44,0.23 0.8,0.52 1.1,0.86 0.29,0.35 0.43,0.81 0.43,1.4 a 3.02,3.02 0 0 1 -0.72,1.97 2.56,2.56 0 0 1 -1.94,0.81 3.02,3.02 0 0 1 -1.94,-0.65 3.81,3.81 0 0 1 -1.01,-1.34 h -0.23 a 5.48,5.48 0 0 1 -0.35,1.7 c 0.32,0.28 0.72,0.51 1.2,0.72 0.48,0.22 1.1,0.32 1.88,0.32 0.72,0 1.36,-0.1 1.93,-0.32 a 3.93,3.93 0 0 0 2.33,-2.27 c 0.2,-0.52 0.3,-1.08 0.3,-1.67 a 2.91,2.91 0 0 0 -1.52,-2.72 c -0.44,-0.27 -0.9,-0.5 -1.41,-0.68 -0.5,-0.19 -0.97,-0.4 -1.4,-0.63 a 3.8,3.8 0 0 1 -1.1,-0.88 2.15,2.15 0 0 1 -0.44,-1.42 c 0,-0.34 0.06,-0.66 0.18,-0.96 a 2.18,2.18 0 0 1 1.27,-1.24 2.54,2.54 0 0 1 1.85,0 2.46,2.46 0 0 1 1.08,1.04 c 0.1,0.21 0.19,0.4 0.25,0.59 h 0.22 a 4.87,4.87 0 0 1 0.5,-1.61 c -0.37,-0.31 -0.77,-0.54 -1.2,-0.69 a 4.83,4.83 0 0 0 -1.56,-0.22 z m -64.03,0.25 0.1,2.49 c 0.04,0.8 0.06,1.64 0.06,2.48 v 3.3 c 0,0.84 -0.02,1.68 -0.05,2.5 l -0.1,2.41 c 0.41,-0.02 0.83,-0.04 1.24,-0.04 h 1.25 l 1.25,0.02 1.25,0.02 c 0.73,0 1.5,-0.11 2.3,-0.34 a 6.05,6.05 0 0 0 3.84,-3.26 c 0.44,-0.87 0.65,-1.95 0.65,-3.23 0,-0.98 -0.12,-1.87 -0.35,-2.66 a 4.81,4.81 0 0 0 -3,-3.25 7.94,7.94 0 0 0 -2.8,-0.44 c -0.48,0 -0.95,0.01 -1.41,0.05 a 20.53,20.53 0 0 1 -2.82,0.02 l -1.4,-0.07 z m 18.24,0 c 0.05,0.82 0.07,1.64 0.1,2.46 0.03,0.82 0.05,1.65 0.05,2.5 v 3.3 c 0,0.84 -0.02,1.66 -0.05,2.48 l -0.1,2.44 c 0.57,-0.02 1.13,-0.04 1.7,-0.04 h 3.38 a 36,36 0 0 1 1.67,0.04 c -0.04,-0.13 -0.06,-0.29 -0.06,-0.5 v -0.3 c 0,-0.1 0.02,-0.2 0.05,-0.3 -0.3,0.07 -0.65,0.12 -1.05,0.15 a 43.92,43.92 0 0 1 -2.68,0.1 h -1.3 c 0,-0.23 -0.04,-0.6 -0.04,-1.07 v -4.2 l 0.01,-0.38 0.9,0.01 1.22,0.02 a 34.82,34.82 0 0 1 2.41,0.14 2.82,2.82 0 0 1 0,-1.17 l -0.86,0.07 -1,0.06 a 43.15,43.15 0 0 1 -2.67,0.06 v -2.53 c 0,-0.47 0,-0.9 0.02,-1.26 l 0.05,-1.18 a 38.07,38.07 0 0 1 3.82,0.18 l 1.09,0.07 a 2.85,2.85 0 0 1 0,-1.15 168.75,168.75 0 0 1 -3.32,0.1 46.23,46.23 0 0 1 -3.34,-0.1 z m 33.36,0 0.1,2.49 c 0.03,0.8 0.05,1.64 0.05,2.48 v 3.3 c 0,0.84 -0.02,1.68 -0.05,2.5 l -0.1,2.41 a 10.06,10.06 0 0 1 1.82,0 l -0.1,-2.42 c -0.03,-0.81 -0.05,-1.65 -0.05,-2.49 v -3.3 c 0,-0.84 0.02,-1.67 0.05,-2.48 l 0.1,-2.49 a 18.27,18.27 0 0 1 -0.9,0.1 9.63,9.63 0 0 1 -0.91,-0.1 z m -82.89,0 c 0.04,0.84 0.08,1.67 0.1,2.48 0.04,0.82 0.06,1.65 0.06,2.5 v 3.3 c 0,0.83 -0.02,1.67 -0.05,2.48 l -0.1,2.42 a 10.55,10.55 0 0 1 1.82,0 102.36,102.36 0 0 1 -0.15,-4.9 v -1.68 c 0,-0.07 0.03,-0.11 0.1,-0.11 0.05,0 0.12,0.05 0.22,0.15 0.2,0.2 0.5,0.56 0.93,1.06 a 631.34,631.34 0 0 1 4.46,5.48 c 0.17,-0.02 0.35,-0.04 0.51,-0.04 h 1.08 a 4,4 0 0 1 0.55,0.04 c -1.05,-1.22 -2.1,-2.42 -3.12,-3.63 -1.02,-1.21 -2.04,-2.4 -3.05,-3.56 0.34,-0.4 0.76,-0.86 1.26,-1.4 a 87.72,87.72 0 0 1 4.7,-4.59 6.87,6.87 0 0 1 -0.89,0.1 l -0.37,-0.03 -0.4,-0.07 a 164.76,164.76 0 0 1 -2.79,3.18 c -0.48,0.53 -0.96,1.03 -1.44,1.52 a 26,26 0 0 1 -1.37,1.3 c -0.13,0.12 -0.22,0.18 -0.26,0.18 -0.08,0 -0.11,-0.05 -0.11,-0.16 V 44.3 c 0,-0.84 0.02,-1.67 0.05,-2.49 l 0.1,-2.48 a 10.06,10.06 0 0 1 -0.91,0.1 l -0.45,-0.03 -0.47,-0.07 z m 104.85,0 0.1,2.48 c 0.04,0.82 0.05,1.65 0.05,2.5 v 3.3 c 0,0.83 0,1.67 -0.04,2.48 l -0.1,2.42 a 10.35,10.35 0 0 1 1.82,0 c -0.05,-0.8 -0.08,-1.6 -0.1,-2.42 C 291.02,49.28 291,48.44 291,47.6 v -1.67 c 0,-0.07 0.03,-0.11 0.09,-0.11 0.05,0 0.13,0.05 0.23,0.15 0.2,0.2 0.5,0.56 0.92,1.06 l 1.4,1.7 1.58,1.98 1.48,1.8 c 0.18,-0.02 0.35,-0.04 0.52,-0.04 h 1.07 c 0.19,0 0.37,0.01 0.56,0.04 -1.06,-1.22 -2.1,-2.42 -3.12,-3.63 l -3.05,-3.56 c 0.33,-0.4 0.75,-0.86 1.26,-1.4 a 79.11,79.11 0 0 1 3.23,-3.23 c 0.55,-0.52 1.04,-0.98 1.47,-1.36 a 7.25,7.25 0 0 1 -0.9,0.1 6.14,6.14 0 0 1 -0.77,-0.1 l -1.34,1.59 a 88.02,88.02 0 0 1 -2.89,3.11 c -0.48,0.49 -0.94,0.92 -1.37,1.3 -0.12,0.12 -0.2,0.18 -0.26,0.18 -0.07,0 -0.11,-0.05 -0.11,-0.16 V 44.3 c 0,-0.84 0.02,-1.67 0.05,-2.49 l 0.1,-2.48 a 10.8,10.8 0 0 1 -0.91,0.1 l -0.45,-0.03 -0.46,-0.07 z m -68.9,0.8 c 0.78,0 1.48,0.09 2.13,0.25 0.65,0.16 1.2,0.44 1.67,0.86 0.46,0.42 0.83,0.98 1.1,1.7 0.27,0.71 0.4,1.63 0.4,2.74 a 8,8 0 0 1 -0.51,3.1 c -0.35,0.8 -0.79,1.43 -1.33,1.89 a 4.4,4.4 0 0 1 -1.83,0.94 c -0.69,0.16 -1.37,0.25 -2.05,0.25 -0.48,0 -0.94,-0.02 -1.38,-0.05 -0.45,-0.03 -0.8,-0.08 -1.07,-0.14 a 67.7,67.7 0 0 1 -0.11,-4.07 v -3.3 a 46.23,46.23 0 0 1 0.12,-3.97 24.1,24.1 0 0 1 2.87,-0.2 z m -47.9,1.54 2.07,4.87 -1.05,0.03 -1.04,0.01 c -0.32,0 -0.66,0 -1,-0.02 l -1.01,-0.01 z m 31.29,0 2.07,4.87 -1.05,0.03 -1.04,0.01 c -0.32,0 -0.66,0 -1,-0.02 a 35.1,35.1 0 0 0 -1.02,-0.01 z"
       fill="#fff"
       style="fill:#ffffff" />
    <g
       id="academic-forskningstidsskrift"
       opacity="0.8"
       fill="#fff"
       style="fill:#ffffff">
      <path
         id="path3"
         style="fill:#ffffff;stroke:#ffffff;stroke-width:1;paint-order:stroke fill markers"
         d="m 248.05078,20.759766 -0.33008,0.0098 c -0.21353,2.229385 -0.48106,4.453274 -0.80078,6.669922 l -0.5,3.470703 -0.5,3.279297 c 0.43167,-0.05375 0.86911,-0.05375 1.30078,0 0,-0.5 0.0296,-1.158984 0.0996,-1.958984 0.1255,-1.770309 0.29221,-3.538236 0.5,-5.300781 l 0.29883,-2.580079 h 0.0312 c 0.82,1.7 1.63922,3.340938 2.44922,4.960938 0.82,1.62 1.59961,3.229609 2.34961,4.849609 h 0.16016 c 0.75,-1.74 1.53132,-3.41 2.36132,-5 0.83,-1.6 1.6693,-3.200781 2.5293,-4.800781 h 0.0391 c 0.2,1.66 0.37,3.280859 0.5,4.880859 l 0.41016,4.949219 0.4414,-0.0293 h 0.87891 l 0.44141,0.0293 c -0.15,-1.06 -0.29016,-2.128984 -0.41016,-3.208984 l -0.38086,-3.28125 c -0.26437,-2.308423 -0.51437,-4.618155 -0.75,-6.929688 h -0.24023 l -1,1.900391 -1.09961,2.070312 -1.08008,2.080078 c -0.35,0.68 -0.68,1.320391 -1,1.900391 l -0.81055,1.568359 -0.54883,1.050782 c -0.94999,-1.81 -1.87023,-3.569297 -2.74023,-5.279297 -0.88,-1.71 -1.74961,-3.480781 -2.59961,-5.300781 z m -75.27148,0.0098 c -1.88348,4.502414 -3.82706,8.979168 -5.83008,13.429688 0.45511,-0.05338 0.91598,-0.05338 1.37109,0 0.17,-0.6 0.40047,-1.338281 0.73047,-2.238281 0.32,-0.9 0.69008,-1.851563 1.08008,-2.851563 l 1.13867,-0.0293 h 2.37109 l 1.20899,0.0293 0.53125,1.330078 0.53906,1.380859 c 0.30657,0.781474 0.58963,1.570958 0.84961,2.369141 l 0.5,-0.0293 H 178.25 l 0.5,0.0293 c -0.50918,-1.109599 -1.00303,-2.225987 -1.48047,-3.349609 -0.71842,-1.675614 -1.41807,-3.35983 -2.09961,-5.050782 l -1.07031,-2.61914 -0.96875,-2.400391 z m 17.2207,0 c -1.02,0 -1.97031,0.150938 -2.82031,0.460938 -1.66929,0.577858 -3.00303,1.856417 -3.65039,3.5 -0.35472,0.924927 -0.52765,1.909936 -0.50977,2.90039 0,1.1 0.16977,2.058204 0.50977,2.908203 0.59783,1.641039 1.91295,2.919727 3.57031,3.470704 1.68335,0.569548 3.50513,0.591101 5.20117,0.06055 0.33,-0.1 0.62914,-0.200312 0.86914,-0.320312 0.24,-0.13 0.4193,-0.239844 0.5293,-0.339844 l 0.16992,-1.130859 -0.0801,-0.08008 -0.63867,0.5 c -0.58183,0.40328 -1.22321,0.713575 -1.90039,0.919922 -1.08791,0.264189 -2.22918,0.198584 -3.2793,-0.189453 -0.62739,-0.243465 -1.18967,-0.629369 -1.64062,-1.128907 -0.4997,-0.550197 -0.8745,-1.201822 -1.09961,-1.910156 -0.27972,-0.889123 -0.41211,-1.818161 -0.39063,-2.75 0,-1.07 0.13039,-1.979766 0.40039,-2.759766 0.25,-0.77 0.61985,-1.409921 1.08985,-1.919921 0.44893,-0.494908 1.00789,-0.879476 1.63086,-1.121094 0.63,-0.24 1.30906,-0.359375 2.03906,-0.359375 0.45,0 0.87023,0.05969 1.24023,0.179687 0.8961,0.276617 1.69306,0.80361 2.29883,1.519532 l 0.1211,-0.03906 c 0.04,-0.2 0.10039,-0.449766 0.15039,-0.759766 0.06,-0.3 0.14023,-0.550468 0.24023,-0.730468 -1.26399,-0.601974 -2.65096,-0.90403 -4.05078,-0.88086 z m 13.7207,0 c -1.91055,4.488964 -3.85712,8.962365 -5.83984,13.419922 0.45843,-0.0538 0.92048,-0.0538 1.37891,0 0.16,-0.58 0.40046,-1.328515 0.73046,-2.228515 0.32,-0.9 0.68008,-1.851563 1.08008,-2.851563 l 1.14063,-0.0293 h 2.35937 l 1.20899,0.0293 0.53125,1.330078 0.54883,1.380859 c 0.29684,0.785089 0.58178,1.574346 0.85156,2.369141 l 0.48828,-0.0293 h 0.99023 l 0.5,0.0293 c -0.17,-0.3 -0.3789,-0.749844 -0.6289,-1.339844 l -0.86133,-2 c -0.71823,-1.679043 -1.41788,-3.366355 -2.09961,-5.060547 l -1.06055,-2.61914 -0.96875,-2.400391 z m 78.28321,0 c -0.96092,-0.01129 -1.91655,0.145238 -2.82422,0.460938 -1.66714,0.581355 -2.99963,1.858704 -3.65039,3.5 -0.35328,0.925325 -0.52616,1.910053 -0.50977,2.90039 0,1.1 0.16977,2.058204 0.50977,2.908203 0.59783,1.641039 1.91295,2.919727 3.57031,3.470704 1.68335,0.569548 3.50513,0.591101 5.20117,0.06055 0.34,-0.1 0.62914,-0.200312 0.86914,-0.320312 0.25,-0.13 0.42102,-0.239844 0.54102,-0.339844 l 0.1582,-1.130859 -0.0801,-0.08008 -0.63867,0.5 c -0.57804,0.409724 -1.2205,0.720541 -1.90039,0.919922 -1.08807,0.262367 -2.2288,0.196794 -3.2793,-0.189453 -0.63047,-0.243085 -1.19586,-0.62893 -1.65039,-1.128907 -0.49636,-0.550946 -0.86797,-1.202562 -1.08984,-1.910156 -0.27728,-0.889674 -0.40961,-1.81831 -0.39063,-2.75 0,-1.07 0.13039,-1.979766 0.40039,-2.759766 0.21875,-0.709785 0.58709,-1.364396 1.08008,-1.919921 0.47,-0.5 1.02063,-0.881094 1.64063,-1.121094 0.63,-0.24 1.30906,-0.359375 2.03906,-0.359375 0.45,0 0.87023,0.05969 1.24023,0.179687 0.89619,0.28236 1.69661,0.808214 2.31055,1.519532 l 0.10938,-0.03906 0.15039,-0.759766 c 0.06,-0.3 0.14023,-0.550468 0.24023,-0.730468 -1.26341,-0.599707 -2.64855,-0.901613 -4.04687,-0.88086 z M 215.40039,21 c 0.04,0.85 0.0796,1.670234 0.0996,2.490234 0.03,0.8 0.0508,1.640469 0.0508,2.480469 v 3.298828 c 0,0.85 -0.0208,1.68 -0.0508,2.5 l -0.0996,2.410157 c 0.42,-0.02 0.84,-0.03906 1.25,-0.03906 h 1.25 l 1.25,0.01953 1.25,0.01953 c 0.73,0 1.49883,-0.100079 2.29883,-0.330079 1.69179,-0.485015 3.09149,-1.67662 3.83984,-3.269531 0.43,-0.87 0.64063,-1.950703 0.64063,-3.220703 0,-0.99 -0.10985,-1.879922 -0.33985,-2.669922 -0.20591,-0.740266 -0.58229,-1.422108 -1.09961,-1.990234 -0.52605,-0.560493 -1.17745,-0.98879 -1.90039,-1.25 C 222.93803,21.130788 221.98545,20.979108 221.0293,21 c -0.47,0 -0.93844,0.02078 -1.39844,0.05078 -1.40961,0.07418 -2.82301,0.0567 -4.23047,-0.05078 z m 18.23047,0 c 0.084,1.648866 0.13555,3.29837 0.1582,4.949219 V 29.25 c 0,0.84 -0.0188,1.670234 -0.0488,2.490234 l -0.0996,2.439454 c 0.56298,-0.02564 1.1259,-0.03803 1.68946,-0.03906 h 3.38086 c 0.56,0 1.11992,0.01906 1.66992,0.03906 -0.04,-0.130001 -0.0606,-0.3 -0.0606,-0.5 v -0.298829 c 0.01,-0.1 0.0188,-0.200781 0.0488,-0.300781 -0.3,0.07 -0.64883,0.120391 -1.04883,0.150391 -0.89161,0.06969 -1.78537,0.10266 -2.67969,0.09961 h -1.30078 c -0.02,-0.24 -0.0293,-0.600312 -0.0293,-1.070312 l -0.01,-1.798828 v -1.900391 -0.880859 h 0.89844 c 0.39,0.02 0.8007,0.02125 1.2207,0.03125 0.80791,0.02188 1.61488,0.06724 2.41992,0.138671 -0.0809,-0.385803 -0.0809,-0.784118 0,-1.169921 L 238.9707,26.75 c -0.73288,0.04266 -1.46744,0.07561 -2.20117,0.09961 -0.42,0.02 -0.91898,0.01953 -1.45898,0.01953 v -1.06836 l -0.01,-1.460937 c 0,-0.47 -7e-4,-0.899532 0.0293,-1.269532 l 0.0508,-1.169921 c 0.92423,7.4e-5 1.8477,0.03304 2.76953,0.09961 l 1.03906,0.08008 1.08985,0.07031 c -0.0796,-0.379204 -0.0796,-0.771187 0,-1.150391 l -1.66016,0.07031 c -1.10963,0.04063 -2.22045,0.04063 -3.33008,0 z m 33.35937,0 0.01,0.002 V 21 Z m 0.01,0.002 0.0996,2.488281 c 0.03,0.8 0.0508,1.640469 0.0508,2.480469 v 3.298828 c 0,0.85 -0.0208,1.68 -0.0508,2.5 L 267,34.179688 c 0.60545,-0.05445 1.21486,-0.05445 1.82031,0 -0.0872,-1.63198 -0.13766,-3.26613 -0.15039,-4.900391 v -3.298828 c 0,-0.85 0.0208,-1.68 0.0508,-2.5 L 268.82031,21 l -0.46093,0.07031 c -0.29866,0.04024 -0.59979,0.04024 -0.89844,0 z m -46.93945,0.798828 h 0.004 c 0.76839,2.91e-4 1.4764,0.08031 2.11524,0.25 0.65,0.16 1.19968,0.449375 1.67969,0.859375 0.46,0.42 0.83156,0.979219 1.10156,1.699219 0.26,0.71 0.39843,1.630234 0.39844,2.740234 0,1.27 -0.17954,2.29961 -0.51954,3.09961 -0.50227,1.420181 -1.69339,2.486858 -3.16015,2.830078 -0.68,0.17 -1.35883,0.25 -2.04883,0.25 -0.47,0 -0.93086,-0.01883 -1.38086,-0.04883 -0.45,-0.03 -0.80055,-0.08062 -1.06055,-0.140625 -0.08,-1.33 -0.10937,-2.690313 -0.10937,-4.070313 v -3.298828 c 0,-0.69 -7e-4,-1.371015 0.0293,-2.041015 0.02,-0.670001 0.0498,-1.319688 0.0898,-1.929688 0.94863,-0.123153 1.9048,-0.189221 2.86133,-0.199219 z m -47.55078,1.539063 2.07031,4.880859 -1.05078,0.01953 -1.03907,0.0098 -1,-0.0098 -1.00976,-0.01953 z m 30.92968,0 2.08008,4.880859 -1.04883,0.01953 -1.04101,0.0098 -1,-0.0098 -1.01953,-0.01953 z" />
    </g>
    <path
       id="path34"
       style="fill:#ffffff;stroke:#ffffff;stroke-width:1;paint-order:stroke fill markers"
       d="m 279.89486,39.07771 a 4.83,4.83 0 0 0 -0.10547,0.002 4.9,4.9 0 0 0 -1.66992,0.26954 c -0.5,0.18 -0.92906,0.43 -1.28906,0.75 -0.35,0.31999 -0.62078,0.70062 -0.80078,1.14062 -0.2,0.44 -0.2793,0.92875 -0.2793,1.46875 0,0.76 0.13945,1.35078 0.43945,1.80078 0.3,0.45 0.64985,0.81961 1.08985,1.09961 0.43,0.3 0.90039,0.5307 1.40039,0.7207 0.5,0.2 0.98015,0.40063 1.41015,0.64063 0.44,0.23 0.79961,0.51937 1.09961,0.85937 0.29,0.35 0.42969,0.81039 0.42969,1.40039 a 3.02,3.02 0 0 1 -0.71875,1.96875 2.56,2.56 0 0 1 -1.93945,0.81055 3.02,3.02 0 0 1 -1.94141,-0.65039 3.81,3.81 0 0 1 -1.00976,-1.33984 h -0.23047 a 5.48,5.48 0 0 1 -0.34961,1.70117 c 0.32,0.28 0.72117,0.50875 1.20117,0.71875 0.48,0.22 1.09891,0.32031 1.87891,0.32031 0.72,0 1.35968,-0.10031 1.92968,-0.32031 a 3.93,3.93 0 0 0 2.33008,-2.26953 c 0.2,-0.52 0.30078,-1.07992 0.30078,-1.66992 a 2.91,2.91 0 0 0 -1.51953,-2.72071 c -0.44,-0.27 -0.90016,-0.49968 -1.41016,-0.67968 -0.5,-0.19 -0.97039,-0.39891 -1.40039,-0.62891 a 3.8,3.8 0 0 1 -1.09961,-0.88086 2.15,2.15 0 0 1 -0.4414,-1.41992 c 0,-0.34 0.0616,-0.66094 0.18164,-0.96094 a 2.18,2.18 0 0 1 1.26953,-1.23828 2.54,2.54 0 0 1 1.84961,0 2.46,2.46 0 0 1 1.08008,1.03906 c 0.1,0.21 0.19,0.39984 0.25,0.58985 h 0.2207 a 4.87,4.87 0 0 1 0.5,-1.60938 c -0.37,-0.31 -0.77117,-0.53945 -1.20117,-0.68945 a 4.83,4.83 0 0 0 -1.45508,-0.22266 z m -107.11523,0.002 a 575.13,575.13 0 0 1 -5.83008,13.42969 5.63,5.63 0 0 1 1.37109,0 c 0.16,-0.59 0.40047,-1.33047 0.73047,-2.23047 0.32,-0.9 0.69008,-1.84961 1.08008,-2.84961 l 1.13867,-0.02929 1.14063,-0.0098 1.23046,0.0098 1.20899,0.02929 0.53125,1.33008 0.53906,1.38086 a 43.88,43.88 0 0 1 0.84961,2.36914 c 0.18,-0.02 0.34,-0.03906 0.5,-0.03906 h 0.98047 c 0.16,0 0.33,0.01906 0.5,0.03906 a 113.33,113.33 0 0 1 -1.48047,-3.34961 280.44,280.44 0 0 1 -2.09961,-5.05078 l -1.07031,-2.61914 -0.95899,-2.40039 z m 31.30078,0 a 882.69,882.69 0 0 1 -5.84961,13.42969 5.6,5.6 0 0 1 1.37891,0 c 0.15999,-0.59 0.40046,-1.33047 0.73046,-2.23047 0.33,-0.9 0.68008,-1.84961 1.08008,-2.84961 l 1.14063,-0.02929 1.13867,-0.0098 1.23047,0.0098 1.20117,0.02929 0.5293,1.33008 0.55078,1.38086 a 47.36,47.36 0 0 1 0.84961,2.36914 c 0.17,-0.02 0.34,-0.03906 0.5,-0.03906 h 0.97851 c 0.16,0 0.32,0.01906 0.5,0.03906 -0.17,-0.3 -0.3689,-0.74984 -0.6289,-1.33984 l -0.84961,-2 -1.02149,-2.42969 -1.08984,-2.63086 -1.04883,-2.61914 -0.9707,-2.40039 z m 44,0 A 182.88,182.88 0 0 1 246.7601,49.2301 l -0.5,3.2793 a 5.03,5.03 0 0 1 1.30078,0 c 0,-0.51 0.0496,-1.1607 0.0996,-1.9707 a 122.09,122.09 0 0 1 0.51953,-5.28906 l 0.29101,-2.58008 h 0.0391 c 0.82,1.69 1.64117,3.33898 2.45117,4.95898 0.81,1.62 1.59984,3.2318 2.33984,4.8418 h 0.16992 a 73.7,73.7 0 0 1 2.35938,-5 c 0.83,-1.59 1.66929,-3.19078 2.5293,-4.80078 h 0.041 c 0.2,1.66 0.36,3.30039 0.5,4.90039 0.14,1.6 0.27039,3.23945 0.40039,4.93945 0.16,-0.02 0.29922,-0.03906 0.44922,-0.03906 h 0.86914 c 0.15,0 0.29141,0.01906 0.44141,0.03906 a 131.6,131.6 0 0 1 -0.40039,-3.20898 l -0.38086,-3.28125 -0.36914,-3.37891 c -0.11,-1.14 -0.24086,-2.33055 -0.38086,-3.56055 h -0.24024 l -1.00976,1.90039 -1.08985,2.07032 -1.08007,2.08984 -1,1.89844 a 122.5,122.5 0 0 0 -1.35939,2.62104 c -0.95,-1.8 -1.88,-3.57125 -2.75,-5.28125 -0.88,-1.72 -1.73961,-3.47883 -2.59961,-5.29883 z m -26.4375,0.24805 a 7.94,7.94 0 0 0 -0.24219,0.002 c -0.48,0 -0.95016,0.0088 -1.41016,0.04883 a 20.53,20.53 0 0 1 -2.82031,0.02149 l -1.40039,-0.07032 h -0.01 l 0.0996,2.49024 c 0.04,0.8 0.0605,1.64047 0.0605,2.48047 v 3.29883 c 0,0.84 -0.0208,1.68 -0.0508,2.5 l -0.0996,2.41015 c 0.41,-0.02 0.83024,-0.03906 1.24024,-0.03906 h 1.25 l 1.25,0.01953 1.25,0.01953 c 0.73,0 1.50078,-0.10984 2.30078,-0.33984 a 6.05,6.05 0 0 0 3.83984,-3.25977 c 0.44,-0.87 0.65039,-1.95047 0.65039,-3.23047 0,-0.98 -0.12156,-1.87015 -0.35156,-2.66015 a 4.81,4.81 0 0 0 -3,-3.25 7.94,7.94 0 0 0 -2.55664,-0.44141 z m -37.17188,0.002 c 0.04,0.84 0.0796,1.67047 0.0996,2.48047 0.04,0.82 0.0606,1.65 0.0606,2.5 v 3.29883 c 0,0.83 -0.0208,1.67047 -0.0508,2.48047 l -0.0996,2.41992 a 10.55,10.55 0 0 1 1.82031,0 102.36,102.36 0 0 1 -0.15039,-4.90039 v -1.67969 c 0,-0.07 0.0296,-0.10937 0.0996,-0.10937 0.05,0 0.1207,0.05039 0.2207,0.15039 0.2,0.2 0.49969,0.55859 0.92969,1.05859 a 631.34,631.34 0 0 1 4.45899,5.48047 c 0.16999,-0.02 0.34976,-0.03906 0.50976,-0.03906 h 1.08008 a 4,4 0 0 1 0.55076,0.03896 c -1.05,-1.22 -2.09914,-2.42086 -3.11914,-3.63086 -1.02,-1.21 -2.04078,-2.39859 -3.05078,-3.55859 0.34,-0.4 0.75976,-0.86039 1.25976,-1.40039 a 87.72,87.72 0 0 1 4.69922,-4.58985 6.87,6.87 0 0 1 -0.88867,0.09961 l -0.37109,-0.02929 -0.39844,-0.07032 a 164.76,164.76 0 0 1 -2.79102,3.17969 c -0.48,0.53 -0.95945,1.02953 -1.43945,1.51953 a 26,26 0 0 1 -1.37109,1.30078 c -0.13,0.12 -0.21977,0.17969 -0.25977,0.17969 -0.08,0 -0.10937,-0.05016 -0.10937,-0.16015 v -1.04883 c 0,-0.84 0.0208,-1.67024 0.0508,-2.49024 l 0.0996,-2.48047 a 10.06,10.06 0 0 1 -0.91016,0.09961 l -0.45117,-0.02929 -0.46875,-0.07032 z m 49.5293,0 c 0.05,0.82 0.0696,1.63899 0.0996,2.45899 0.03,0.82 0.0508,1.65 0.0508,2.5 v 3.30078 c 0,0.84 -0.0208,1.66047 -0.0508,2.48047 l -0.0996,2.43935 c 0.57,-0.02 1.12922,-0.03906 1.69922,-0.03906 h 3.38086 a 36,36 0 0 1 1.66992,0.03906 c -0.04,-0.13 -0.0606,-0.29 -0.0606,-0.5 v -0.30078 c 0,-0.1 0.0208,-0.19883 0.0508,-0.29883 -0.3,0.07 -0.65078,0.12039 -1.05078,0.15039 a 43.92,43.92 0 0 1 -2.67968,0.09961 h -1.29883 c 0,-0.23 -0.041,-0.60031 -0.041,-1.07031 v -4.19922 l 0.01,-0.38086 0.90039,0.0098 1.2207,0.01953 a 34.82,34.82 0 0 1 2.41016,0.14062 2.82,2.82 0 0 1 0,-1.16992 l -0.86133,0.07031 -1,0.06055 a 43.15,43.15 0 0 1 -2.66992,0.05859 v -2.52929 c 0,-0.47 -4.7e-4,-0.89977 0.0195,-1.25977 l 0.0506,-1.17972 a 38.07,38.07 0 0 1 3.82031,0.17969 l 1.08985,0.07031 a 2.85,2.85 0 0 1 0,-1.15039 168.75,168.75 0 0 1 -3.32032,0.09961 46.23,46.23 0 0 1 -3.33984,-0.09961 z m 33.35938,0 0.10156,2.49024 c 0.03,0.8 0.0488,1.64047 0.0488,2.48047 v 3.29883 c 0,0.84 -0.0188,1.68 -0.0488,2.5 l -0.10156,2.41005 a 10.06,10.06 0 0 1 1.82031,0 l -0.0996,-2.41992 c -0.03,-0.81 -0.0508,-1.65023 -0.0508,-2.49023 v -3.29883 c 0,-0.84 0.0208,-1.67047 0.0508,-2.48047 l 0.0996,-2.49024 a 18.27,18.27 0 0 1 -0.90039,0.09961 9.63,9.63 0 0 1 -0.91016,-0.09961 z m 21.96093,0 0.0996,2.48047 c 0.04,0.82 0.0508,1.65 0.0508,2.5 v 3.29883 c 0,0.83 -0.001,1.67047 -0.041,2.48047 l -0.0996,2.41992 a 10.35,10.35 0 0 1 1.82031,0 c -0.05,-0.8 -0.0796,-1.59992 -0.0996,-2.41992 -0.03,-0.81 -0.0508,-1.65024 -0.0508,-2.49023 v -1.66993 c 0,-0.07 0.0298,-0.10937 0.0898,-0.10937 0.05,0 0.13047,0.05039 0.23047,0.15039 0.2,0.2 0.49992,0.55859 0.91992,1.05859 l 1.40039,1.70117 1.58008,1.97852 1.47852,1.80078 c 0.18,-0.02 0.35148,-0.03906 0.52148,-0.03906 h 1.06836 c 0.19,0 0.37055,0.0091 0.56055,0.03906 -1.06,-1.22 -2.09914,-2.42086 -3.11914,-3.63086 L 292.68,45.32 c 0.33,-0.4 0.74976,-0.86039 1.25976,-1.40039 a 79.11,79.11 0 0 1 3.23047,-3.23047 c 0.55,-0.52 1.04071,-0.97938 1.4707,-1.35938 a 7.25,7.25 0 0 1 -0.90039,0.09961 6.14,6.14 0 0 1 -0.76953,-0.09961 l -1.33984,1.58985 a 88.02,88.02 0 0 1 -2.89063,3.10937 c -0.48,0.49 -0.94109,0.92078 -1.37109,1.30078 -0.12,0.12 -0.19977,0.17969 -0.25976,0.17969 -0.07,0 -0.10938,-0.05015 -0.10938,-0.16015 v -1.04883 c 0,-0.84 0.0208,-1.67024 0.0508,-2.49024 l 0.0996,-2.48047 a 10.8,10.8 0 0 1 -0.91016,0.09961 l -0.45117,-0.02929 -0.45898,-0.07032 z m -68.90039,0.79883 h 0.002 0.008 c 0.77589,7.8e-4 1.47393,0.0907 2.12109,0.25 0.65,0.16 1.19992,0.44133 1.66992,0.86133 0.46,0.42 0.82961,0.97922 1.09961,1.69922 0.27,0.71 0.40039,1.63023 0.40039,2.74023 a 8,8 0 0 1 -0.50976,3.09961 c -0.35,0.8 -0.79008,1.43063 -1.33008,1.89063 a 4.4,4.4 0 0 1 -1.83008,0.93945 c -0.69,0.16 -1.37078,0.25 -2.05078,0.25 -0.48,0 -0.94086,-0.01883 -1.38086,-0.04883 -0.45,-0.03 -0.79836,-0.08062 -1.06836,-0.14062 a 67.7,67.7 0 0 1 -0.11133,-4.07031 v -3.29883 a 46.23,46.23 0 0 1 0.1211,-3.97071 24.1,24.1 0 0 1 2.85937,-0.20117 z m -47.90039,1.54102 2.07031,4.86914 -1.05078,0.03125 -1.03906,0.0098 c -0.32,0 -0.66,4.7e-4 -1,-0.01953 l -1.00977,-0.0098 z m 31.29102,0 2.07031,4.86914 -1.05078,0.03125 -1.04102,0.0098 c -0.32,0 -0.66,4.7e-4 -1,-0.01953 a 35.1,35.1 0 0 0 -1.01953,-0.0098 z" />
  </g>
</svg>
