<?xml version="1.0" encoding="UTF-8" standalone="no"?>
<svg
   xmlns:dc="http://purl.org/dc/elements/1.1/"
   xmlns:cc="http://creativecommons.org/ns#"
   xmlns:rdf="http://www.w3.org/1999/02/22-rdf-syntax-ns#"
   xmlns:svg="http://www.w3.org/2000/svg"
   xmlns="http://www.w3.org/2000/svg"
   height="113.42"
   width="654.57068"
   version="1.1"
   viewBox="0 0 654.57068 113.42"
   data-name="Layer 1"
   id="Layer_1">
  <metadata
     id="metadata197">
    <rdf:RDF>
      <cc:Work
         rdf:about="">
        <dc:format>image/svg+xml</dc:format>
        <dc:type
           rdf:resource="http://purl.org/dc/dcmitype/StillImage" />
        <dc:title>Nordic Journal of Art and Research</dc:title>
      </cc:Work>
    </rdf:RDF>
  </metadata>
  <defs
     id="defs195" />
  <title
     id="title130">Nordic Journal of Art and Research</title>
  <g
     id="g227">
    <g
       id="g1062"
       transform="matrix(-1,0,0,1,377.5,-19.58)">
      <path
         d="m 300.07,132.96 2.46,-24 25.5,-8.45 25.51,8.49 2.45,24 h 21.51 l -25,-57.46 -5.86,-44.75 -18.59,-11.21 -18.61,11.21 -5.8,44.71 -25,57.46 z m 4.45,-42.71 1.39,-13.52 22.12,-48.7 22.13,48.7 1.38,13.52 -23.51,7.84 z"
         id="path132" />
      <path
         d="m 232.64,132.96 9.68,-15.82 8.76,15.82 h 12.12 l 2.92,-9.37 10.6,-4.61 v -12.13 l -9.53,-3.08 -4.92,-11.67 14.6,-15.21 h -39.79 v 12.29 l 27.35,-12.14 -16.29,27.81 -7.07,7.22 -6.14,-13.06 h -12.14 l 16.75,14.6 -19.05,19.35 z m 10.74,-17.66 5.68,-9.53 5.23,-5.53 12,4.45 4.45,8.61 -5.37,9.52 -9.22,3.84 z"
         id="path134" />
      <path
         d="m 129.53,132.96 h 21.51 l 19.21,-29 33.74,-25.46 -9.35,54.46 h 21.55 l -9.55,-56.07 9.53,-56.08 h -21.53 l -10.3,8.6 -50.85,10.76 v 21.51 l 38.25,6.91 13.37,8.3 -16.9,25.5 z m 74.52,-56.84 -31,-9.37 -22.43,-15.06 34.84,-20.59 10.45,-3.53 z"
         id="path136" />
    </g>
    <g
       id="g193">
      <path
         d="m 281.24885,25.633427 v 29.120165 h -4.77597 V 20.658456 h 7.03129 l 15.58825,29.020665 V 20.658456 h 4.80914 v 34.095136 h -7.03129 z"
         id="path138"
         style="stroke-width:1" />
      <path
         d="m 322.50795,55.284256 c -12.03943,1.026834 -19.07072,-13.260952 -10.91509,-22.173778 8.15563,-8.912827 23.0109,-3.175358 23.05402,8.907188 0.73297,7.1623 -4.93849,13.363767 -12.13893,13.26659 z m 6.79913,-13.26659 c 0,-6.633295 -3.71465,-9.386113 -7.59513,-9.386113 -3.88047,0 -7.56195,2.487486 -7.56195,9.386113 0,6.898627 3.71464,9.419278 7.56195,9.419278 3.84732,0 7.59513,-2.785983 7.59513,-9.253445 z"
         id="path140"
         style="stroke-width:1" />
      <path
         d="m 350.63312,33.726047 c -3.94681,0 -5.9368,2.222154 -5.9368,7.760956 v 13.266589 h -4.27847 v -25.30602 h 4.21214 v 4.411142 a 7.628289,7.628289 0 0 1 7.13079,-4.543807 h 1.2935 v 4.576973 a 23.647697,23.647697 0 0 0 -2.42116,-0.165833 z"
         id="path142"
         style="stroke-width:1" />
      <path
         d="m 379.08996,20.658456 v 34.095136 h -4.31164 v -3.814144 a 8.8554486,8.8554486 0 0 1 -8.25846,4.344808 c -5.80413,0 -10.81227,-4.809139 -10.81227,-13.26659 0,-8.457451 5.00814,-13.26659 10.81227,-13.26659 a 8.8554486,8.8554486 0 0 1 8.25846,4.444308 V 20.658456 Z m -18.73907,21.525043 c 0,6.036298 2.88549,9.518778 7.2303,9.518778 3.81414,0 7.39612,-2.819151 7.39612,-9.518778 0,-6.699629 -3.58198,-9.485612 -7.39612,-9.485612 -4.34481,0 -7.2303,3.482479 -7.2303,9.485612 z"
         id="path144"
         style="stroke-width:1" />
      <path
         d="m 390.83089,25.832427 h -4.27848 v -5.173971 h 4.27848 z m 0,28.921165 h -4.27848 v -25.30602 h 4.27848 z"
         id="path146"
         style="stroke-width:1" />
      <path
         d="m 415.07558,37.905023 a 6.6332948,6.6332948 0 0 0 -6.6333,-5.107636 c -3.81414,0 -7.29662,2.951815 -7.29662,9.319779 0,6.367963 3.51565,9.485611 7.29662,9.485611 a 6.6332948,6.6332948 0 0 0 6.6333,-5.07447 h 4.44431 a 11.309768,11.309768 0 0 1 -11.14394,8.755949 c -7.23029,0 -11.80726,-5.505635 -11.80726,-13.26659 a 12.138929,12.138929 0 0 1 12.23843,-13.26659 10.513772,10.513772 0 0 1 10.5801,8.888615 z"
         id="path148"
         style="stroke-width:1" />
      <path
         d="m 455.63817,20.658456 v 23.216533 c 0,7.42929 -4.0463,11.442433 -10.74593,11.442433 -6.69963,0 -10.6796,-3.780978 -10.6796,-11.177101 h 4.47747 a 6.367963,6.367963 0 0 0 6.20213,7.263457 c 2.78598,0 5.9368,-1.426158 5.9368,-7.561956 V 20.62529 Z"
         id="path150"
         style="stroke-width:1" />
      <path
         d="m 474.24456,55.284256 c -12.03942,1.026834 -19.07072,-13.260952 -10.91508,-22.173778 8.15564,-8.912827 23.0109,-3.175358 23.05401,8.907188 0.73299,7.1623 -4.93848,13.363767 -12.13893,13.26659 z m 6.79913,-13.26659 c 0,-6.633295 -3.71464,-9.386113 -7.59512,-9.386113 -3.88047,0 -7.52878,2.752818 -7.52878,9.551946 0,6.799126 3.71464,9.419278 7.56195,9.419278 3.84731,0 7.56195,-2.951816 7.56195,-9.419278 z"
         id="path152"
         style="stroke-width:1" />
      <path
         d="m 499.88225,55.284256 c -5.87046,0 -8.09261,-3.979977 -8.09261,-9.750944 v -16.08574 h 4.27847 v 14.924914 c 0,3.880477 0.66333,7.296624 5.30664,7.296624 4.0463,0 6.46746,-2.885484 6.46746,-8.291619 V 29.447572 h 4.27847 v 25.30602 h -4.27847 v -3.615145 a 8.5569504,8.5569504 0 0 1 -7.95996,4.145809 z"
         id="path154"
         style="stroke-width:1" />
      <path
         d="m 529.73208,33.726047 c -3.94681,0 -5.90363,2.222154 -5.90363,7.760956 v 13.266589 h -4.04632 v -25.30602 h 4.21215 v 4.411142 a 7.628289,7.628289 0 0 1 7.13079,-4.543807 h 1.29349 v 4.576973 a 22.9512,22.9512 0 0 0 -2.68648,-0.165833 z"
         id="path156"
         style="stroke-width:1" />
      <path
         d="m 549.63197,29.016408 c 6.13579,0 8.32477,3.946811 8.32477,9.750943 v 15.986241 h -4.27847 V 40.027678 c 0,-3.913645 -0.66333,-7.296625 -5.5388,-7.296625 -4.14581,0 -6.6333,2.885484 -6.6333,8.291619 v 13.73092 h -4.27847 v -25.30602 h 4.27847 v 3.814145 a 8.8554486,8.8554486 0 0 1 8.1258,-4.245309 z"
         id="path158"
         style="stroke-width:1" />
      <path
         d="m 580.57628,39.198515 v -0.497496 c 0,-4.61014 -2.58698,-6.168964 -5.7378,-6.168964 a 5.17397,5.17397 0 0 0 -5.77097,5.041304 h -4.41113 a 9.5851111,9.5851111 0 0 1 10.14894,-8.523784 c 6.96495,0 10.11577,3.316647 9.94994,10.447439 v 5.837299 a 48.025055,48.025055 0 0 0 0.66333,9.551945 h -4.31164 a 21.326043,21.326043 0 0 1 -0.33166,-3.316647 9.1207804,9.1207804 0 0 1 -8.59013,3.714645 c -4.77597,0 -8.72277,-2.653318 -8.72277,-7.296625 0,-5.969965 6.73279,-7.628289 17.11389,-8.789116 z m -12.37109,8.789116 c 0,2.387986 1.85732,3.979978 4.90864,3.979978 a 7.0312926,7.0312926 0 0 0 7.79412,-7.794122 v -1.591991 c -7.76096,0.795995 -12.70276,1.923656 -12.70276,5.406135 z"
         id="path160"
         style="stroke-width:1" />
      <path
         d="M 591.98555,54.753592 V 20.658456 h 4.27848 v 34.095136 z"
         id="path162"
         style="stroke-width:1" />
      <path
         d="M 626.08069,55.284256 C 614.04125,56.31109 607.00996,42.023304 615.1656,33.110478 c 8.15564,-8.912827 23.0109,-3.175358 23.05402,8.907188 0.73298,7.1623 -4.93849,13.363767 -12.13893,13.26659 z m 6.79913,-13.26659 c 0,-6.633295 -3.71465,-9.386113 -7.59512,-9.386113 -3.88049,0 -7.56197,2.487486 -7.56197,9.386113 0,6.898627 3.71465,9.419278 7.56197,9.419278 3.8473,0 7.59512,-2.785983 7.59512,-9.253445 z"
         id="path164"
         style="stroke-width:1" />
      <path
         d="m 652.21586,20.658456 h 2.189 v 3.58198 h -1.95682 c -2.25532,0 -2.62016,0.497497 -2.62016,3.316648 v 2.05632 h 4.74281 v 3.316648 h -4.74281 v 21.856707 h -4.27847 V 32.896885 h -3.51565 v -3.316647 h 3.51565 v -1.824156 c -0.16583,-5.406135 0.92866,-7.097626 6.66645,-7.097626 z"
         id="path166"
         style="stroke-width:1" />
      <path
         d="m 291.89529,72.863282 12.73593,34.095128 h -7.29663 l -2.38798,-6.89862 h -13.26659 l -2.38799,6.89862 h -6.86546 l 12.70276,-34.095128 z m 1.12766,21.690873 -4.70964,-13.465588 -4.70964,13.465588 z"
         id="path168"
         style="stroke-width:1" />
      <path
         d="m 319.12497,87.788195 c -3.31665,0 -5.30663,1.160827 -5.30663,5.936799 v 13.266596 h -6.6333 V 81.652397 h 6.40113 v 4.444308 a 6.8986267,6.8986267 0 0 1 6.6333,-4.377975 10.182108,10.182108 0 0 1 1.39298,0 v 6.102631 a 23.879862,23.879862 0 0 0 -2.48748,-0.03317 z"
         id="path170"
         style="stroke-width:1" />
      <path
         d="m 333.48606,74.786937 v 6.86546 h 5.27347 v 4.477474 h -5.27347 v 13.067591 c 0,2.586988 0.89548,3.117648 3.31664,3.117648 h 1.98999 v 4.6433 h -4.74281 c -5.80413,0 -6.93179,-1.75782 -6.93179,-6.63329 V 86.129871 h -3.58198 v -4.477474 h 3.58198 v -6.86546 z"
         id="path172"
         style="stroke-width:1" />
      <path
         d="m 360.58306,87.522863 a 12.536928,12.536928 0 0 1 -3.48248,-7.760955 c 0,-4.643307 4.17898,-7.561956 9.78411,-7.561956 4.37798,0 9.35294,1.956822 9.35294,7.628289 a 10.248441,10.248441 0 0 1 -6.33479,8.789115 l 4.51064,4.974972 a 23.216532,23.216532 0 0 0 1.12766,-5.8373 h 6.40113 a 28.622667,28.622667 0 0 1 -3.31665,10.414274 l 7.99312,8.722778 h -8.65644 l -3.31666,-3.64831 a 15.190245,15.190245 0 0 1 -10.61327,4.27848 10.480606,10.480606 0 0 1 -11.54192,-10.049445 10.81227,10.81227 0 0 1 8.09261,-9.949942 z m 3.31665,3.780978 c -3.05132,1.260326 -4.74281,3.316648 -4.74281,5.7378 a 5.4724682,5.4724682 0 0 0 5.7378,5.571969 8.2584521,8.2584521 0 0 0 6.26847,-3.316649 z m 2.88549,-6.135798 a 5.5388012,5.5388012 0 0 0 3.31664,-5.074471 3.0513156,3.0513156 0 0 0 -3.31664,-3.316646 2.9518162,2.9518162 0 0 0 -3.15082,2.785983 9.4192786,9.4192786 0 0 0 2.98498,5.505635 z"
         id="path174"
         style="stroke-width:1" />
      <path
         d="m 406.41913,93.625494 v 13.266586 h -6.63329 V 72.863282 h 11.21026 c 11.24343,0 15.52191,3.316646 15.52191,10.347939 a 9.3529457,9.3529457 0 0 1 -6.23529,8.988115 l 7.56195,14.759074 h -7.56195 l -6.6333,-13.266583 z m 0,-5.240303 h 5.5388 c 5.24031,0 7.52879,-1.790989 7.52879,-5.107637 0,-3.979977 -3.31665,-5.140804 -7.86046,-5.140804 h -5.20713 z"
         id="path176"
         style="stroke-width:1" />
      <path
         d="m 442.76958,102.54727 a 5.8372994,5.8372994 0 0 0 5.33981,-2.918644 h 6.6333 a 12.072597,12.072597 0 0 1 -11.93994,7.959954 13.266963,13.266963 0 0 1 -0.19899,-26.53318 c 7.82728,0 12.70276,6.069465 12.43742,15.024413 h -18.67272 a 6.367963,6.367963 0 0 0 6.40112,6.467457 z m 5.70464,-10.911764 a 5.5056348,5.5056348 0 0 0 -5.87046,-5.770967 6.1026312,6.1026312 0 0 0 -6.13581,5.770967 z"
         id="path178"
         style="stroke-width:1" />
      <path
         d="m 469.03744,85.665541 c -2.38799,0 -4.07948,0.895494 -4.07948,2.454319 0,1.558824 0.96183,2.387986 3.31664,2.918649 l 3.31665,0.729663 c 5.04131,1.12766 9.31978,2.421152 9.31978,7.628289 0,5.207139 -5.2403,8.192119 -10.97811,8.192119 -5.7378,0 -10.91176,-3.31665 -11.50876,-8.988114 h 6.23529 a 4.9749711,4.9749711 0 0 0 5.47248,4.278474 c 2.78598,0 4.5438,-1.02816 4.5438,-2.85232 0,-1.824153 -1.95681,-2.653314 -4.11264,-3.117645 l -3.78098,-0.795995 c -4.74281,-0.994994 -7.89362,-2.984983 -7.89362,-7.595123 0,-4.61014 5.00814,-7.628289 10.4806,-7.628289 5.47248,0 10.31478,2.421153 11.14394,8.258452 h -6.06946 a 5.0413041,5.0413041 0 0 0 -5.40613,-3.482479 z"
         id="path180"
         style="stroke-width:1" />
      <path
         d="m 497.22894,102.54727 a 5.8372994,5.8372994 0 0 0 5.30663,-2.918644 h 6.63329 a 12.072597,12.072597 0 0 1 -11.93992,7.959954 13.266963,13.266963 0 0 1 -0.19901,-26.53318 c 7.82729,0 12.70276,6.069465 12.43744,15.024413 h -18.67273 a 6.434296,6.434296 0 0 0 6.4343,6.467457 z m 5.67147,-10.911764 a 5.5056348,5.5056348 0 0 0 -5.87048,-5.770967 6.0694648,6.0694648 0 0 0 -6.10262,5.770967 z"
         id="path182"
         style="stroke-width:1" />
      <path
         d="m 513.34784,100.15929 c 0,-5.969966 6.6333,-7.760955 16.58324,-8.888616 V 90.83951 c 0,-3.913644 -2.12265,-5.273469 -4.77597,-5.273469 a 4.2784752,4.2784752 0 0 0 -4.70964,4.112643 h -5.96997 c 0.4975,-5.008138 4.61014,-8.65645 11.11077,-8.65645 6.50063,0 10.91177,2.586985 10.91177,11.143935 0,0.795995 0,4.112643 0,6.434297 a 35.952458,35.952458 0 0 0 0.76283,8.357944 h -5.96997 a 21.292876,21.292876 0 0 1 -0.43116,-3.31664 9.0544475,9.0544475 0 0 1 -8.25845,3.78097 c -4.97498,0.16584 -9.25345,-2.65331 -9.25345,-7.26345 z m 6.6333,-0.33166 c 0,1.82415 1.45933,3.31664 4.37797,3.31664 a 5.17397,5.17397 0 0 0 5.77097,-5.90363 v -1.857323 c -7.03129,0.762829 -10.08261,1.625158 -10.08261,4.444313 z"
         id="path184"
         style="stroke-width:1" />
      <path
         d="m 554.4411,87.788195 c -3.31664,0 -5.3398,1.160827 -5.3398,5.936799 v 13.266596 h -6.46746 V 81.652397 h 6.40113 v 4.444308 a 6.8654601,6.8654601 0 0 1 6.63329,-4.377975 10.314773,10.314773 0 0 1 1.42616,0 v 6.102631 a 24.675857,24.675857 0 0 0 -2.65332,-0.03317 z"
         id="path186"
         style="stroke-width:1" />
      <path
         d="m 577.4918,90.308847 a 5.4393018,5.4393018 0 0 0 -5.27347,-4.178976 c -3.31665,0 -6.06946,2.885484 -6.06946,8.158952 0,5.273472 2.55382,8.258447 6.10263,8.258447 a 5.4393018,5.4393018 0 0 0 5.47247,-4.17897 h 6.20212 a 11.276601,11.276601 0 0 1 -11.97309,9.22028 12.238429,12.238429 0 0 1 -12.43743,-13.26659 12.437428,12.437428 0 0 1 12.70276,-13.26659 10.81227,10.81227 0 0 1 11.4756,9.220281 z"
         id="path188"
         style="stroke-width:1" />
      <path
         d="m 602.33349,81.088567 c 6.06947,0 8.75595,3.714645 8.75595,9.949942 v 15.919901 h -6.6333 V 92.431501 c 0,-3.316647 -0.69649,-6.102631 -4.37797,-6.102631 -4.27847,0 -5.20714,3.316648 -5.20714,7.462457 v 13.266593 h -6.63329 V 72.863282 h 6.63329 v 12.138929 a 8.2252856,8.2252856 0 0 1 7.46246,-3.913644 z"
         id="path190"
         style="stroke-width:1" />
    </g>
  </g>
</svg>
