<?xml version="1.0" encoding="UTF-8" standalone="no"?>
<svg
   xmlns:dc="http://purl.org/dc/elements/1.1/"
   xmlns:cc="http://creativecommons.org/ns#"
   xmlns:rdf="http://www.w3.org/1999/02/22-rdf-syntax-ns#"
   xmlns:svg="http://www.w3.org/2000/svg"
   xmlns="http://www.w3.org/2000/svg"
   xmlns:sodipodi="http://sodipodi.sourceforge.net/DTD/sodipodi-0.dtd"
   xmlns:inkscape="http://www.inkscape.org/namespaces/inkscape"
   height="153"
   width="428"
   version="1.1"
   viewBox="0 0 428 153"
   data-name="Layer 1"
   id="Layer_1"
   sodipodi:docname="ar-logo-sort.svg"
   inkscape:version="1.0.1 (1.0.1+r73)">
  <sodipodi:namedview
     pagecolor="#ffffff"
     bordercolor="#666666"
     borderopacity="1"
     objecttolerance="10"
     gridtolerance="10"
     guidetolerance="10"
     inkscape:pageopacity="0"
     inkscape:pageshadow="2"
     inkscape:window-width="1502"
     inkscape:window-height="820"
     id="namedview37"
     showgrid="false"
     inkscape:zoom="1.0887462"
     inkscape:cx="98.122202"
     inkscape:cy="78.795524"
     inkscape:window-x="2199"
     inkscape:window-y="166"
     inkscape:window-maximized="0"
     inkscape:current-layer="Layer_1" />
  <metadata
     id="metadata197">
    <rdf:RDF>
      <cc:Work
         rdf:about="">
        <dc:format>image/svg+xml</dc:format>
        <dc:type
           rdf:resource="http://purl.org/dc/dcmitype/StillImage" />
        <dc:title>Nordic Journal of Art and Research</dc:title>
      </cc:Work>
    </rdf:RDF>
  </metadata>
  <defs
     id="defs195" />
  <title
     id="title130">Nordic Journal of Art and Research</title>
  <path
     d="m 77.43,132.96 -2.46,-24 -25.5,-8.45 -25.51,8.49 -2.45,24 H 0 l 25,-57.46 5.86,-44.75 18.59,-11.21 18.61,11.21 5.8,44.71 25,57.46 z M 72.98,90.25 71.59,76.73 49.47,28.03 27.34,76.73 25.96,90.25 49.47,98.09 Z"
     id="path132" />
  <path
     d="m 144.86,132.96 -9.68,-15.82 -8.76,15.82 H 114.3 l -2.92,-9.37 -10.6,-4.61 v -12.13 l 9.53,-3.08 4.92,-11.67 -14.6,-15.21 h 39.79 v 12.29 l -27.35,-12.14 16.29,27.81 7.07,7.22 6.14,-13.06 h 12.14 l -16.75,14.6 19.05,19.35 z m -10.74,-17.66 -5.68,-9.53 -5.23,-5.53 -12,4.45 -4.45,8.61 5.37,9.52 9.22,3.84 z"
     id="path134" />
  <path
     d="m 247.97,132.96 h -21.51 l -19.21,-29 -33.74,-25.46 9.35,54.46 h -21.55 l 9.55,-56.07 -9.53,-56.08 h 21.53 l 10.3,8.6 50.85,10.76 v 21.51 l -38.25,6.91 -13.37,8.3 16.9,25.5 z m -74.52,-56.84 31,-9.37 22.43,-15.06 -34.84,-20.59 -10.45,-3.53 z"
     id="path136" />
  <path
     d="m 264.94,35.56 v 8.78 H 263.5 V 34.06 h 2.12 l 4.7,8.75 v -8.75 h 1.45 v 10.28 h -2.12 z"
     id="path138" />
  <path
     d="m 277.38,44.5 c -3.63,0.3096 -5.75,-3.9983 -3.291,-6.6856 2.459,-2.6873 6.938,-0.9574 6.951,2.6856 0.221,2.1595 -1.489,4.0293 -3.66,4 z m 2.05,-4 c 0,-2 -1.12,-2.83 -2.29,-2.83 -1.17,0 -2.28,0.75 -2.28,2.83 0,2.08 1.12,2.84 2.28,2.84 1.16,0 2.29,-0.84 2.29,-2.79 z"
     id="path140" />
  <path
     d="m 285.86,38 c -1.19,0 -1.79,0.67 -1.79,2.34 v 4 h -1.29 v -7.63 h 1.27 v 1.33 a 2.3,2.3 0 0 1 2.15,-1.37 h 0.39 v 1.38 A 7.13,7.13 0 0 0 285.86,38 Z"
     id="path142" />
  <path
     d="m 294.44,34.06 v 10.28 h -1.3 v -1.15 a 2.67,2.67 0 0 1 -2.49,1.31 c -1.75,0 -3.26,-1.45 -3.26,-4 0,-2.55 1.51,-4 3.26,-4 a 2.67,2.67 0 0 1 2.49,1.34 v -3.78 z m -5.65,6.49 c 0,1.82 0.87,2.87 2.18,2.87 1.15,0 2.23,-0.85 2.23,-2.87 0,-2.02 -1.08,-2.86 -2.23,-2.86 -1.31,0 -2.18,1.05 -2.18,2.86 z"
     id="path144" />
  <path
     d="m 297.98,35.62 h -1.29 v -1.56 h 1.29 z m 0,8.72 h -1.29 v -7.63 h 1.29 z"
     id="path146" />
  <path
     d="m 305.29,39.26 a 2,2 0 0 0 -2,-1.54 c -1.15,0 -2.2,0.89 -2.2,2.81 0,1.92 1.06,2.86 2.2,2.86 a 2,2 0 0 0 2,-1.53 h 1.34 a 3.41,3.41 0 0 1 -3.36,2.64 c -2.18,0 -3.56,-1.66 -3.56,-4 a 3.66,3.66 0 0 1 3.69,-4 3.17,3.17 0 0 1 3.19,2.68 z"
     id="path148" />
  <path
     d="m 317.52,34.06 v 7 c 0,2.24 -1.22,3.45 -3.24,3.45 -2.02,0 -3.22,-1.14 -3.22,-3.37 h 1.35 a 1.92,1.92 0 0 0 1.87,2.19 c 0.84,0 1.79,-0.43 1.79,-2.28 v -7 z"
     id="path150" />
  <path
     d="m 323.13,44.5 c -3.63,0.3096 -5.75,-3.9983 -3.291,-6.6856 2.459,-2.6873 6.938,-0.9574 6.951,2.6856 0.221,2.1595 -1.489,4.0293 -3.66,4 z m 2.05,-4 c 0,-2 -1.12,-2.83 -2.29,-2.83 -1.17,0 -2.27,0.83 -2.27,2.88 0,2.05 1.12,2.84 2.28,2.84 1.16,0 2.28,-0.89 2.28,-2.84 z"
     id="path152" />
  <path
     d="m 330.86,44.5 c -1.77,0 -2.44,-1.2 -2.44,-2.94 v -4.85 h 1.29 v 4.5 c 0,1.17 0.2,2.2 1.6,2.2 1.22,0 1.95,-0.87 1.95,-2.5 v -4.2 h 1.29 v 7.63 h -1.29 v -1.09 a 2.58,2.58 0 0 1 -2.4,1.25 z"
     id="path154" />
  <path
     d="m 339.86,38 c -1.19,0 -1.78,0.67 -1.78,2.34 v 4 h -1.22 v -7.63 h 1.27 v 1.33 a 2.3,2.3 0 0 1 2.15,-1.37 h 0.39 v 1.38 A 6.92,6.92 0 0 0 339.86,38 Z"
     id="path156" />
  <path
     d="m 345.86,36.58 c 1.85,0 2.51,1.19 2.51,2.94 v 4.82 h -1.29 V 39.9 c 0,-1.18 -0.2,-2.2 -1.67,-2.2 -1.25,0 -2,0.87 -2,2.5 v 4.14 h -1.29 v -7.63 h 1.29 v 1.15 a 2.67,2.67 0 0 1 2.45,-1.28 z"
     id="path158" />
  <path
     d="M 355.19,39.65 V 39.5 c 0,-1.39 -0.78,-1.86 -1.73,-1.86 a 1.56,1.56 0 0 0 -1.74,1.52 h -1.33 a 2.89,2.89 0 0 1 3.06,-2.57 c 2.1,0 3.05,1 3,3.15 v 1.76 a 14.48,14.48 0 0 0 0.2,2.88 h -1.3 a 6.43,6.43 0 0 1 -0.1,-1 2.75,2.75 0 0 1 -2.59,1.12 c -1.44,0 -2.63,-0.8 -2.63,-2.2 0,-1.8 2.03,-2.3 5.16,-2.65 z m -3.73,2.65 c 0,0.72 0.56,1.2 1.48,1.2 a 2.12,2.12 0 0 0 2.35,-2.35 v -0.48 c -2.34,0.24 -3.83,0.58 -3.83,1.63 z"
     id="path160" />
  <path
     d="M 358.63,44.34 V 34.06 h 1.29 v 10.28 z"
     id="path162" />
  <path
     d="m 368.91,44.5 c -3.63,0.3096 -5.75,-3.9983 -3.291,-6.6856 2.459,-2.6873 6.938,-0.9574 6.951,2.6856 0.221,2.1595 -1.489,4.0293 -3.66,4 z m 2.05,-4 c 0,-2 -1.12,-2.83 -2.29,-2.83 -1.17,0 -2.28,0.75 -2.28,2.83 0,2.08 1.12,2.84 2.28,2.84 1.16,0 2.29,-0.84 2.29,-2.79 z"
     id="path164" />
  <path
     d="m 376.79,34.06 h 0.66 v 1.08 h -0.59 c -0.68,0 -0.79,0.15 -0.79,1 v 0.62 h 1.43 v 1 h -1.43 v 6.59 h -1.29 v -6.6 h -1.06 v -1 h 1.06 V 36.2 c -0.05,-1.63 0.28,-2.14 2.01,-2.14 z"
     id="path166" />
  <path
     d="m 268.15,51.08 3.84,10.28 h -2.2 l -0.72,-2.08 h -4 l -0.72,2.08 h -2.07 l 3.83,-10.28 z m 0.34,6.54 -1.42,-4.06 -1.42,4.06 z"
     id="path168" />
  <path
     d="m 276.36,55.58 c -1,0 -1.6,0.35 -1.6,1.79 v 4 h -2 v -7.64 h 1.93 v 1.34 a 2.08,2.08 0 0 1 2,-1.32 3.07,3.07 0 0 1 0.42,0 v 1.84 a 7.2,7.2 0 0 0 -0.75,-0.01 z"
     id="path170" />
  <path
     d="m 280.69,51.66 v 2.07 h 1.59 v 1.35 h -1.59 v 3.94 c 0,0.78 0.27,0.94 1,0.94 h 0.6 v 1.4 h -1.43 c -1.75,0 -2.09,-0.53 -2.09,-2 v -4.28 h -1.08 v -1.35 h 1.08 v -2.07 z"
     id="path172" />
  <path
     d="m 288.86,55.5 a 3.78,3.78 0 0 1 -1.05,-2.34 c 0,-1.4 1.26,-2.28 2.95,-2.28 1.32,0 2.82,0.59 2.82,2.3 a 3.09,3.09 0 0 1 -1.91,2.65 l 1.36,1.5 a 7,7 0 0 0 0.34,-1.76 h 1.93 a 8.63,8.63 0 0 1 -1,3.14 l 2.41,2.63 h -2.61 l -1,-1.1 a 4.58,4.58 0 0 1 -3.2,1.29 3.16,3.16 0 0 1 -3.48,-3.03 3.26,3.26 0 0 1 2.44,-3 z m 1,1.14 c -0.92,0.38 -1.43,1 -1.43,1.73 a 1.65,1.65 0 0 0 1.73,1.68 2.49,2.49 0 0 0 1.89,-1 z m 0.87,-1.85 a 1.67,1.67 0 0 0 1,-1.53 0.92,0.92 0 0 0 -1,-1 0.89,0.89 0 0 0 -0.95,0.84 2.84,2.84 0 0 0 0.9,1.66 z"
     id="path174" />
  <path
     d="m 302.68,57.34 v 4 h -2 V 51.08 h 3.38 c 3.39,0 4.68,1 4.68,3.12 a 2.82,2.82 0 0 1 -1.88,2.71 l 2.28,4.45 h -2.28 l -2,-4 z m 0,-1.58 h 1.67 c 1.58,0 2.27,-0.54 2.27,-1.54 0,-1.2 -1,-1.55 -2.37,-1.55 h -1.57 z"
     id="path176" />
  <path
     d="m 313.64,60.03 a 1.76,1.76 0 0 0 1.61,-0.88 h 2 a 3.64,3.64 0 0 1 -3.6,2.4 4.0001125,4.0001125 0 0 1 -0.06,-8 c 2.36,0 3.83,1.83 3.75,4.53 h -5.63 a 1.92,1.92 0 0 0 1.93,1.95 z m 1.72,-3.29 a 1.66,1.66 0 0 0 -1.77,-1.74 1.84,1.84 0 0 0 -1.85,1.74 z"
     id="path178" />
  <path
     d="m 321.56,54.94 c -0.72,0 -1.23,0.27 -1.23,0.74 0,0.47 0.29,0.72 1,0.88 l 1,0.22 c 1.52,0.34 2.81,0.73 2.81,2.3 0,1.57 -1.58,2.47 -3.31,2.47 -1.73,0 -3.29,-1 -3.47,-2.71 h 1.88 a 1.5,1.5 0 0 0 1.65,1.29 c 0.84,0 1.37,-0.31 1.37,-0.86 0,-0.55 -0.59,-0.8 -1.24,-0.94 l -1.14,-0.24 c -1.43,-0.3 -2.38,-0.9 -2.38,-2.29 0,-1.39 1.51,-2.3 3.16,-2.3 1.65,0 3.11,0.73 3.36,2.49 h -1.83 a 1.52,1.52 0 0 0 -1.63,-1.05 z"
     id="path180" />
  <path
     d="m 330.06,60.03 a 1.76,1.76 0 0 0 1.6,-0.88 h 2 a 3.64,3.64 0 0 1 -3.6,2.4 4.0001125,4.0001125 0 0 1 -0.06,-8 c 2.36,0 3.83,1.83 3.75,4.53 h -5.63 a 1.94,1.94 0 0 0 1.94,1.95 z m 1.71,-3.29 A 1.66,1.66 0 0 0 330,55 a 1.83,1.83 0 0 0 -1.84,1.74 z"
     id="path182" />
  <path
     d="m 334.92,59.31 c 0,-1.8 2,-2.34 5,-2.68 V 56.5 c 0,-1.18 -0.64,-1.59 -1.44,-1.59 a 1.29,1.29 0 0 0 -1.42,1.24 h -1.8 c 0.15,-1.51 1.39,-2.61 3.35,-2.61 1.96,0 3.29,0.78 3.29,3.36 0,0.24 0,1.24 0,1.94 a 10.84,10.84 0 0 0 0.23,2.52 h -1.8 a 6.42,6.42 0 0 1 -0.13,-1 2.73,2.73 0 0 1 -2.49,1.14 c -1.5,0.05 -2.79,-0.8 -2.79,-2.19 z m 2,-0.1 c 0,0.55 0.44,1 1.32,1 a 1.56,1.56 0 0 0 1.74,-1.78 v -0.56 c -2.12,0.23 -3.04,0.49 -3.04,1.34 z"
     id="path184" />
  <path
     d="m 347.31,55.58 c -1,0 -1.61,0.35 -1.61,1.79 v 4 h -1.95 v -7.64 h 1.93 v 1.34 a 2.07,2.07 0 0 1 2,-1.32 3.11,3.11 0 0 1 0.43,0 v 1.84 a 7.44,7.44 0 0 0 -0.8,-0.01 z"
     id="path186" />
  <path
     d="m 354.26,56.34 a 1.64,1.64 0 0 0 -1.59,-1.26 c -1,0 -1.83,0.87 -1.83,2.46 0,1.59 0.77,2.49 1.84,2.49 a 1.64,1.64 0 0 0 1.65,-1.26 h 1.87 a 3.4,3.4 0 0 1 -3.61,2.78 3.69,3.69 0 0 1 -3.75,-4 3.75,3.75 0 0 1 3.83,-4 3.26,3.26 0 0 1 3.46,2.78 z"
     id="path188" />
  <path
     d="m 361.75,53.56 c 1.83,0 2.64,1.12 2.64,3 v 4.8 h -2 v -4.38 c 0,-1 -0.21,-1.84 -1.32,-1.84 -1.29,0 -1.57,1 -1.57,2.25 v 4 h -2 V 51.08 h 2 v 3.66 a 2.48,2.48 0 0 1 2.25,-1.18 z"
     id="path190" />
</svg>
