<?xml version="1.0" encoding="UTF-8"?>
<svg width="815px" height="182px" viewBox="0 0 815 182" version="1.1" xmlns="http://www.w3.org/2000/svg" xmlns:xlink="http://www.w3.org/1999/xlink">
<style>
/* <![CDATA[ */
    .shape {
        fill: #000;
    }
/* ]]> */
</style>
    <g id="ar-tittelhode-grafisk-element2" stroke="none" stroke-width="1" fill="none" fill-rule="evenodd">
        <g class="shape" transform="translate(-1.000000, 0.000000)" fill="#000000">
            <polygon id="Fill-1" points="234.0301 0.5813 266.7381 87.7333 78.3831 11.6103 63.5941 0.5813 0.9631 0.5813 68.8101 28.1413 206.7051 132.9763 291.0961 112.0933 311.9761 27.7033 290.5551 0.5813"></polygon>
            <polygon id="Fill-2" points="412.5997 77.5017 397.2217 118.7177 339.3957 129.7927 339.3957 183.5807 396.2837 183.5807 384.9167 166.7037 403.9917 126.7157 455.6617 108.8777 507.3387 126.7157 523.3317 166.7037 508.8657 183.5807 568.8577 183.5807 568.8577 129.7927 514.1067 118.7177 499.3397 77.5017"></polygon>
            <polygon id="Fill-3" points="662.1102 61.9433 662.1102 148.0683 815.2052 180.2503 815.2052 151.9923 730.3962 101.9283 815.2052 45.0023 815.2052 34.2753"></polygon>
        </g>
    </g>
</svg>
