<?xml version="1.0" encoding="UTF-8" standalone="no"?>
<svg
   height="50"
   width="100"
   version="1.1"
   viewBox="0 0 100 50"
   data-name="Layer 1"
   id="Layer_1"
   xmlns:xlink="http://www.w3.org/1999/xlink"
   xmlns="http://www.w3.org/2000/svg"
   xmlns:svg="http://www.w3.org/2000/svg"
   xmlns:rdf="http://www.w3.org/1999/02/22-rdf-syntax-ns#"
   xmlns:cc="http://creativecommons.org/ns#"
   xmlns:dc="http://purl.org/dc/elements/1.1/">
  <metadata
     id="metadata197">
    <rdf:RDF>
      <cc:Work
         rdf:about="">
        <dc:format>image/svg+xml</dc:format>
        <dc:type
           rdf:resource="http://purl.org/dc/dcmitype/StillImage" />
        <dc:title>Nordic Journal of Art and Research</dc:title>
      </cc:Work>
    </rdf:RDF>
  </metadata>
  <defs
     id="defs195">
    <linearGradient
       id="linearGradient1341">
      <stop
         style="stop-color:#000000;stop-opacity:1;"
         offset="0"
         id="stop1337" />
      <stop
         style="stop-color:#010101;stop-opacity:1"
         offset="0.37751904"
         id="stop2343" />
      <stop
         style="stop-color:#433b39;stop-opacity:1"
         offset="0.38591728"
         id="stop1635" />
      <stop
         style="stop-color:#000000;stop-opacity:1"
         offset="0.76731747"
         id="stop2021" />
      <stop
         style="stop-color:#000000;stop-opacity:1"
         offset="1"
         id="stop1339" />
    </linearGradient>
    <linearGradient
       xlink:href="#linearGradient1341"
       id="linearGradient1343"
       x1="47.939522"
       y1="49.684452"
       x2="47.939522"
       y2="0.64739102"
       gradientUnits="userSpaceOnUse" />
  </defs>
  <title
     id="title130">Nordic Journal of Art and Research</title>
  <rect
     style="fill:url(#linearGradient1343);fill-opacity:1;stroke:none;stroke-width:4;stroke-linecap:round;stroke-linejoin:round;paint-order:stroke fill markers;stop-color:#000000"
     id="rect2744"
     width="100"
     height="50"
     x="0"
     y="0"
     rx="0" />
  <rect
     style="fill:#000000;fill-opacity:1;stroke:none;stroke-width:4;stroke-linecap:round;stroke-linejoin:round;paint-order:stroke fill markers;stop-color:#000000;font-variation-settings:normal;opacity:0;vector-effect:none;stroke-miterlimit:4;stroke-dasharray:none;stroke-dashoffset:0;stroke-opacity:1;-inkscape-stroke:none;stop-opacity:1"
     id="rect81709"
     width="90"
     height="40"
     x="5"
     y="5"
     rx="0" />
  <path
     id="path936"
     style="fill:#ffffff;stroke-width:3.77954"
     d="m 23.509528,13.421255 c -0.28986,2.37e-4 -0.63242,0.01446 -0.99708,0.04342 -0.30783,0.02445 -0.74151,0.05255 -0.9642,0.0624 -0.38911,0.01721 -1.92748,-0.02719 -2.14382,-0.06197 -0.0994,-0.01598 -0.10528,-0.01314 -0.12099,0.06029 -0.009,0.04254 -0.007,0.108671 0.005,0.146716 0.0184,0.05974 0.0812,0.09345 0.4608,0.247056 0.46421,0.187824 0.66621,0.290176 0.71925,0.365103 0.0256,0.03617 0.0354,0.319193 0.0476,1.37525 0.0198,1.701663 0.0197,5.278488 0,7.241354 -0.0175,1.730558 0.002,1.582057 -0.22598,1.707468 -0.0676,0.0372 -0.31041,0.147211 -0.53964,0.244527 -0.22924,0.09731 -0.42462,0.190555 -0.43425,0.207004 -0.0228,0.03893 -0.0234,0.223939 -8.6e-4,0.250429 0.01,0.01127 0.0499,0.01383 0.0894,0.0055 0.0395,-0.0084 0.40907,-0.02967 0.82169,-0.04722 0.74035,-0.03148 2.05521,-0.01754 2.65564,0.02825 0.15719,0.01198 0.2994,0.01627 0.31578,0.0093 0.0389,-0.01659 0.0385,-0.214651 -4.4e-4,-0.252537 -0.0165,-0.01606 -0.23354,-0.112812 -0.4823,-0.215014 -0.47017,-0.193164 -0.63642,-0.285479 -0.66739,-0.369741 -0.0209,-0.05673 -0.0541,-2.149114 -0.0569,-3.589479 l -0.002,-0.970095 0.0653,0.01223 c 0.16805,0.03061 1.05303,0.03956 1.32677,0.01349 0.74462,-0.07092 1.30637,-0.282651 1.79305,-0.676242 0.095,-0.07684 0.26656,-0.255488 0.38113,-0.396723 0.31544,-0.388856 0.51315,-0.822114 0.63703,-1.395908 0.0875,-0.405214 0.11478,-0.74792 0.10118,-1.280812 -0.009,-0.372243 -0.0243,-0.534034 -0.0649,-0.714186 -0.0755,-0.335003 -0.17272,-0.594458 -0.31957,-0.853313 -0.35291,-0.622064 -0.92539,-1.0066 -1.71717,-1.15349 -0.15493,-0.02874 -0.39228,-0.04312 -0.68214,-0.043 z m -0.65179,0.802299 c 0.45123,0 0.57501,0.0089 0.70111,0.04975 0.49504,0.160323 0.83558,0.544664 0.99076,1.118498 0.0914,0.338024 0.1302,0.684731 0.13027,1.169089 1.5e-4,0.701688 -0.0669,1.114349 -0.25338,1.558645 -0.0907,0.215974 -0.14692,0.306734 -0.30524,0.492425 -0.15409,0.180735 -0.23604,0.251535 -0.39672,0.342759 -0.23874,0.135535 -0.47853,0.211992 -0.79176,0.252958 -0.12519,0.01637 -0.38902,0.02993 -0.58602,0.02993 h -0.35794 v -2.484051 -2.483629 l 0.16063,-0.02319 c 0.0884,-0.01274 0.40701,-0.02319 0.70829,-0.02319 z m 13.63656,2.30445 c -0.28245,-7.77e-4 -0.56394,0.03807 -0.8335,0.116783 -0.3219,0.094 -0.61198,0.243682 -0.9018,0.465021 -0.28123,0.214791 -0.59135,0.564759 -0.79133,0.892943 -0.18633,0.305777 -0.39743,0.800733 -0.50592,1.186375 -0.10443,0.371202 -0.18828,0.835573 -0.22092,1.223475 -0.0525,0.624354 -0.0172,1.41987 0.0881,1.986566 0.10992,0.591293 0.32005,1.182803 0.5818,1.637484 0.17091,0.296889 0.45548,0.650247 0.68299,0.848253 0.0903,0.07863 0.25528,0.198565 0.36679,0.26645 0.23897,0.145483 0.59466,0.285342 0.82548,0.32463 0.0906,0.01541 0.18905,0.03311 0.21923,0.03921 0.0302,0.0061 0.20833,0.0069 0.39546,0.0021 0.23286,-0.006 0.41062,-0.02561 0.56368,-0.06197 0.43448,-0.103218 0.84609,-0.310477 1.17963,-0.594031 0.37574,-0.319435 0.75572,-0.848679 0.97684,-1.360073 0.25849,-0.597826 0.4227,-1.295484 0.48694,-2.070463 0.0329,-0.396763 0.0138,-1.341821 -0.0337,-1.663623 -0.0471,-0.319499 -0.15113,-0.767016 -0.23441,-1.009725 -0.23166,-0.675111 -0.59496,-1.22764 -1.0561,-1.606707 -0.20849,-0.171376 -0.59208,-0.384936 -0.84025,-0.467551 -0.30751,-0.102369 -0.62891,-0.154261 -0.94901,-0.155148 z m 33.28594,0 c -0.28245,-7.77e-4 -0.56394,0.03807 -0.8335,0.116783 -0.3219,0.094 -0.61198,0.243682 -0.90179,0.465021 -0.28124,0.214791 -0.59136,0.564759 -0.79134,0.892943 -0.18633,0.305777 -0.39742,0.800733 -0.50592,1.186375 -0.10443,0.371202 -0.18827,0.835573 -0.22091,1.223475 -0.0525,0.624354 -0.0172,1.41987 0.0881,1.986566 0.10992,0.591293 0.32005,1.182803 0.5818,1.637484 0.17092,0.296889 0.45548,0.650247 0.68299,0.848253 0.0904,0.07863 0.25528,0.198565 0.36679,0.26645 0.23897,0.145483 0.59466,0.285342 0.82549,0.32463 0.0906,0.01541 0.18904,0.03311 0.21923,0.03921 0.0302,0.0061 0.2079,0.0069 0.39504,0.0021 0.23285,-0.006 0.41103,-0.02561 0.56409,-0.06197 0.43449,-0.103218 0.84567,-0.310477 1.17921,-0.594031 0.37574,-0.319435 0.75614,-0.848679 0.97726,-1.360073 0.25849,-0.597826 0.4227,-1.295484 0.48695,-2.070463 0.0329,-0.396763 0.0137,-1.341821 -0.0337,-1.663623 -0.0471,-0.319499 -0.15113,-0.767016 -0.23441,-1.009725 -0.23166,-0.675111 -0.59496,-1.22764 -1.0561,-1.606707 -0.20848,-0.171376 -0.59207,-0.384936 -0.84024,-0.467551 -0.30751,-0.102369 -0.62891,-0.154261 -0.94902,-0.155148 z m 14.05647,0.01265 c -0.397,-2.38e-4 -0.7096,0.02293 -1.15138,0.195621 -0.44178,0.172688 -0.89076,0.535512 -1.14506,0.975154 -0.15191,0.262635 -0.24824,0.535953 -0.29933,0.850362 -0.0284,0.174731 -0.0343,0.313851 -0.0257,0.596138 0.007,0.228182 0.0254,0.430612 0.0489,0.532899 0.0474,0.206767 0.15748,0.487018 0.26392,0.672448 0.10932,0.190457 0.35948,0.475423 0.57252,0.65221 0.0956,0.07933 0.4058,0.300815 0.68932,0.492004 0.28351,0.19119 0.59351,0.41074 0.68889,0.48821 0.36071,0.292977 0.61026,0.623859 0.70955,0.940162 0.031,0.09862 0.0579,0.254315 0.0653,0.376907 0.0382,0.626104 -0.19381,1.143048 -0.6189,1.379467 -0.099,0.05505 -0.25725,0.116628 -0.36173,0.140813 -0.14329,0.03316 -0.25104,0.0401 -0.47177,0.02909 -0.30546,-0.01524 -0.48674,-0.06257 -0.6813,-0.177071 -0.0603,-0.03548 -0.13125,-0.09115 -0.15726,-0.123949 -0.026,-0.0328 -0.0719,-0.128295 -0.10202,-0.212063 -0.0787,-0.219156 -0.21769,-0.734325 -0.30145,-1.116812 -0.0397,-0.181499 -0.0816,-0.344277 -0.0932,-0.36173 -0.0116,-0.01745 -0.0633,-0.03204 -0.11467,-0.03204 -0.0514,0 -0.10276,0.01459 -0.11426,0.03204 -0.0115,0.01745 -0.0429,0.351507 -0.07,0.742433 -0.0271,0.390924 -0.0633,0.865089 -0.0805,1.053571 -0.0414,0.454004 -0.0404,0.5258 0.007,0.554401 0.10278,0.0618 0.84115,0.22743 1.17963,0.264762 0.19716,0.02174 0.80387,0.01655 0.97768,-0.0084 1.01781,-0.146239 1.71214,-0.646094 2.05318,-1.478541 0.24262,-0.592211 0.2582,-1.430245 0.0379,-2.035893 -0.12137,-0.333721 -0.35292,-0.667935 -0.66233,-0.956604 -0.21911,-0.204425 -0.49927,-0.415074 -0.95745,-0.719667 -0.5498,-0.365501 -0.72668,-0.505995 -0.92414,-0.733579 -0.13317,-0.153489 -0.19784,-0.25233 -0.25802,-0.395037 -0.0918,-0.217674 -0.12396,-0.386916 -0.12353,-0.644622 8.7e-4,-0.465248 0.18416,-0.881131 0.49285,-1.118075 0.1621,-0.124426 0.3644,-0.208665 0.5915,-0.246635 0.14931,-0.02496 0.23336,-0.0253 0.40263,-8.42e-4 0.24956,0.03613 0.40452,0.112264 0.51477,0.253381 0.0409,0.05229 0.11936,0.215064 0.17454,0.361308 0.0949,0.251516 0.139,0.384252 0.30945,0.925828 0.0657,0.208771 0.0774,0.228906 0.13449,0.236516 0.0343,0.0046 0.0844,0.0022 0.11088,-0.0055 0.0475,-0.01377 0.0485,-0.02431 0.0746,-0.795132 0.0145,-0.429715 0.0371,-0.893979 0.0502,-1.031649 0.0202,-0.211211 0.0186,-0.255984 -0.008,-0.287107 -0.0395,-0.04565 -0.28006,-0.117088 -0.59824,-0.177493 -0.19002,-0.03608 -0.43228,-0.08702 -0.82928,-0.08727 z m -28.85242,0.01686 v 4.32e-4 c -0.64581,-4.53e-4 -0.76186,0.03987 -1.13874,0.187189 -0.50668,0.198055 -0.89919,0.526659 -1.15349,0.966301 -0.15191,0.262635 -0.24782,0.535953 -0.29891,0.850362 -0.0284,0.174731 -0.0343,0.313851 -0.0257,0.596138 0.007,0.228182 0.0254,0.430612 0.0489,0.532899 0.0474,0.206767 0.15748,0.487018 0.26392,0.672448 0.10932,0.190457 0.35948,0.475423 0.57253,0.65221 0.0956,0.07933 0.40579,0.300815 0.68931,0.492004 0.28351,0.19119 0.59351,0.41074 0.68889,0.48821 0.36071,0.292977 0.61026,0.623859 0.70955,0.940162 0.031,0.09862 0.0579,0.254315 0.0653,0.376907 0.0382,0.626104 -0.19381,1.143048 -0.6189,1.379467 -0.099,0.05505 -0.25725,0.116628 -0.36173,0.140813 -0.14328,0.03316 -0.25104,0.0401 -0.47177,0.02909 -0.30546,-0.01524 -0.48715,-0.06257 -0.68172,-0.177071 -0.0603,-0.03548 -0.13083,-0.09115 -0.15684,-0.123949 -0.026,-0.0328 -0.072,-0.128295 -0.10202,-0.212063 -0.0787,-0.219156 -0.21769,-0.734325 -0.30144,-1.116812 -0.0397,-0.181499 -0.0816,-0.344277 -0.0932,-0.36173 -0.0116,-0.01745 -0.0633,-0.03204 -0.11467,-0.03204 -0.0514,0 -0.10275,0.01459 -0.11425,0.03204 -0.0115,0.01745 -0.0429,0.351507 -0.07,0.742433 -0.0271,0.390924 -0.0633,0.865089 -0.0805,1.053571 -0.0414,0.454004 -0.0408,0.5258 0.007,0.554401 0.10278,0.0618 0.84157,0.22743 1.18005,0.264762 0.19716,0.02174 0.80345,0.01655 0.97726,-0.0084 1.01781,-0.146239 1.71256,-0.646094 2.0536,-1.478541 0.24262,-0.592211 0.2582,-1.430245 0.0379,-2.035893 -0.12137,-0.333721 -0.35292,-0.667935 -0.66233,-0.956604 -0.21912,-0.204425 -0.49927,-0.415074 -0.95745,-0.719667 -0.5498,-0.365501 -0.72668,-0.505995 -0.92414,-0.733579 -0.13317,-0.153489 -0.19784,-0.25233 -0.25802,-0.395037 -0.0918,-0.217674 -0.12438,-0.386916 -0.12395,-0.644622 8.7e-4,-0.465248 0.18416,-0.881131 0.49285,-1.118075 0.1621,-0.124426 0.36482,-0.208665 0.59192,-0.246635 0.14931,-0.02496 0.23336,-0.0253 0.40263,-8.42e-4 0.24956,0.03613 0.4041,0.112264 0.51434,0.253381 0.0409,0.05229 0.11979,0.215064 0.17497,0.361308 0.0949,0.251516 0.139,0.384252 0.30945,0.925828 0.0657,0.208771 0.0774,0.228907 0.13449,0.236516 0.0344,0.0046 0.084,0.0022 0.11046,-0.0055 0.0474,-0.01377 0.0485,-0.02431 0.0746,-0.795132 0.0145,-0.429715 0.0375,-0.893979 0.0506,-1.031649 0.0201,-0.211211 0.0185,-0.255984 -0.008,-0.287107 -0.0395,-0.04565 -0.28007,-0.117088 -0.59824,-0.177493 -0.19002,-0.03608 -0.36751,-0.07012 -0.83392,-0.07041 z m 5.45378,0 v 4.32e-4 c -0.64581,-4.53e-4 -0.76185,0.03987 -1.13874,0.187189 -0.50668,0.198055 -0.89919,0.526659 -1.15349,0.966301 -0.15191,0.262635 -0.24782,0.535953 -0.29891,0.850362 -0.0284,0.174731 -0.0347,0.313851 -0.0261,0.596138 0.007,0.228182 0.0259,0.430612 0.0493,0.532899 0.0475,0.206767 0.15748,0.487018 0.26392,0.672448 0.10932,0.190457 0.35948,0.475423 0.57253,0.65221 0.0956,0.07933 0.40537,0.300815 0.68889,0.492004 0.28351,0.19119 0.59393,0.41074 0.68931,0.48821 0.36071,0.292977 0.61026,0.623859 0.70955,0.940162 0.031,0.09862 0.0579,0.254315 0.0653,0.376907 0.0382,0.626104 -0.19381,1.143048 -0.6189,1.379467 -0.099,0.05505 -0.25725,0.116628 -0.36173,0.140813 -0.14328,0.03316 -0.25104,0.0401 -0.47177,0.02909 -0.30546,-0.01524 -0.48715,-0.06257 -0.68172,-0.177071 -0.0603,-0.03548 -0.13083,-0.09115 -0.15683,-0.123949 -0.026,-0.0328 -0.072,-0.128295 -0.10203,-0.212063 -0.0787,-0.219156 -0.21769,-0.734325 -0.30144,-1.116812 -0.0398,-0.181499 -0.0816,-0.344277 -0.0932,-0.36173 -0.0116,-0.01745 -0.0633,-0.03204 -0.11467,-0.03204 -0.0514,0 -0.10275,0.01459 -0.11425,0.03204 -0.0115,0.01745 -0.0429,0.351507 -0.07,0.742433 -0.0271,0.390924 -0.0633,0.865089 -0.0805,1.053571 -0.0414,0.454004 -0.0408,0.5258 0.007,0.554401 0.10278,0.0618 0.84157,0.22743 1.18005,0.264762 0.19716,0.02174 0.80345,0.01655 0.97727,-0.0084 1.0178,-0.146239 1.71255,-0.646094 2.05359,-1.478541 0.24262,-0.592211 0.2582,-1.430245 0.0379,-2.035893 -0.12137,-0.333721 -0.35292,-0.667935 -0.66233,-0.956604 -0.21911,-0.204425 -0.49927,-0.415074 -0.95745,-0.719667 -0.5498,-0.365501 -0.72668,-0.505995 -0.92414,-0.733579 -0.13317,-0.153489 -0.19783,-0.25233 -0.25802,-0.395037 -0.0918,-0.217674 -0.12438,-0.386916 -0.12395,-0.644622 8.7e-4,-0.465248 0.18416,-0.881131 0.49285,-1.118075 0.1621,-0.124426 0.36482,-0.208665 0.59192,-0.246635 0.14931,-0.02496 0.23294,-0.0253 0.40221,-8.42e-4 0.24956,0.03613 0.40452,0.112264 0.51477,0.253381 0.0409,0.05229 0.11978,0.215064 0.17496,0.361308 0.0949,0.251516 0.13901,0.384252 0.30945,0.925828 0.0657,0.208771 0.0774,0.228907 0.13449,0.236516 0.0344,0.0046 0.084,0.0022 0.11046,-0.0055 0.0474,-0.01377 0.0485,-0.02431 0.0746,-0.795132 0.0146,-0.429715 0.0375,-0.893979 0.0506,-1.031649 0.0201,-0.211211 0.0185,-0.255984 -0.008,-0.287107 -0.0395,-0.04565 -0.28007,-0.117088 -0.59824,-0.177493 -0.19002,-0.03608 -0.36751,-0.07012 -0.83392,-0.07041 z m -14.23481,0.183395 v 0.09908 0.0995 l 0.18129,0.08474 c 0.2639,0.123693 0.54525,0.292623 0.61426,0.368476 0.0331,0.03634 0.0675,0.09693 0.0767,0.134911 0.009,0.03798 0.0169,1.628714 0.0169,3.535092 0,3.276416 -0.002,3.470119 -0.0388,3.535093 -0.0595,0.105076 -0.17814,0.183649 -0.5232,0.346974 -0.30663,0.145133 -0.31612,0.151779 -0.32295,0.229771 -0.004,0.0442 -0.001,0.09732 0.005,0.118047 0.009,0.02611 0.0307,0.03321 0.0725,0.02319 0.0332,-0.008 0.30245,-0.02675 0.59824,-0.04216 0.35369,-0.01842 1.03795,-0.02242 1.99795,-0.01096 0.80288,0.0096 1.67669,0.02666 1.9423,0.03794 0.3857,0.01639 0.4925,0.01405 0.52911,-0.01265 0.0445,-0.03248 0.0462,-0.05973 0.0637,-0.943113 0.01,-0.500289 0.0191,-0.989569 0.0202,-1.087299 l 0.002,-0.177914 -0.0936,-0.0076 c -0.109,-0.0091 -0.0908,-0.0441 -0.2576,0.489896 -0.12058,0.386097 -0.30354,0.813028 -0.37016,0.863431 -0.10174,0.07697 -0.31886,0.116516 -0.79008,0.144608 -0.35979,0.02145 -0.59798,0.02128 -0.95449,-8.42e-4 -0.26139,-0.01622 -0.49651,-0.03595 -0.52236,-0.04427 -0.0457,-0.0147 -0.0473,-0.0308 -0.0599,-0.57801 -0.007,-0.309413 -0.0186,-1.068741 -0.0257,-1.687653 l -0.0131,-1.125243 0.88494,0.0097 c 0.93179,0.0104 0.97977,0.01634 1.09025,0.131117 0.0751,0.078 0.16493,0.296759 0.27783,0.677928 0.0547,0.184614 0.11015,0.351098 0.12353,0.369741 0.0281,0.03917 0.18725,0.0463 0.19815,0.0089 0.004,-0.01383 -5e-5,-0.222368 -0.009,-0.463336 -0.009,-0.24097 -0.0108,-0.925159 -0.003,-1.520279 0.0102,-0.813994 0.008,-1.08655 -0.0118,-1.100369 -0.0141,-0.01011 -0.059,-0.01128 -0.0995,-0.0025 -0.0723,0.01568 -0.075,0.02109 -0.15304,0.307766 -0.10121,0.37162 -0.20817,0.640597 -0.28879,0.725147 -0.0348,0.0365 -0.0981,0.08029 -0.14039,0.09739 -0.0873,0.0353 -0.8333,0.07446 -1.45746,0.07631 l -0.41486,8.41e-4 0.0143,-1.097839 c 0.008,-0.603841 0.0207,-1.276839 0.0282,-1.495827 l 0.0139,-0.398409 0.13406,-0.01644 c 0.0738,-0.0091 0.52933,-0.01195 1.01226,-0.0067 0.74326,0.0081 0.89268,0.01562 0.97347,0.05059 0.0525,0.02272 0.11201,0.06673 0.13196,0.09781 0.13896,0.21649 0.24321,0.463237 0.43382,1.026589 0.0426,0.125952 0.0435,0.126901 0.14081,0.126901 h 0.0982 l -0.002,-0.139549 c -8.6e-4,-0.07679 -0.01,-0.513635 -0.0198,-0.970938 -0.0135,-0.612426 -0.0253,-0.838553 -0.0455,-0.857951 -0.0189,-0.01819 -0.40293,-0.01702 -1.24245,0.0034 -1.13947,0.02764 -3.21278,0.01751 -3.63501,-0.01771 z m 34.40823,4.32e-4 -0.27994,0.0215 c -0.35999,0.0278 -1.57073,0.02766 -1.9756,0 l -0.31283,-0.02108 v 0.08811 c 0,0.04846 0.0123,0.09913 0.0274,0.112988 0.0151,0.01385 0.12632,0.07379 0.24705,0.132803 0.31994,0.156389 0.60196,0.32968 0.63662,0.391242 0.0513,0.09104 0.0752,0.916133 0.0902,3.1253 0.01,1.411476 0.007,2.073343 -0.008,2.05613 -0.0269,-0.03061 -2.19026,-4.222481 -2.43009,-4.708819 -0.093,-0.188482 -0.23776,-0.505689 -0.3221,-0.704911 -0.0871,-0.205705 -0.17428,-0.377385 -0.20152,-0.397144 -0.0376,-0.02724 -0.25023,-0.03869 -0.98064,-0.05312 -0.51312,-0.01014 -1.00729,-0.02005 -1.09784,-0.02192 l -0.16442,-0.0034 -0.006,0.07631 c -0.003,0.04188 0.002,0.08801 0.011,0.102869 0.009,0.01486 0.11857,0.07637 0.24284,0.136598 0.28959,0.140352 0.46934,0.275624 0.54681,0.411057 l 0.0611,0.107086 -8.6e-4,3.098739 c -10e-4,3.301549 -0.0135,3.823571 -0.0936,3.948258 -0.0495,0.07704 -0.19135,0.162962 -0.53079,0.320414 -0.13884,0.0644 -0.2655,0.129223 -0.2812,0.144186 -0.0165,0.01569 -0.0257,0.06555 -0.0219,0.118047 0.006,0.07932 0.0137,0.09048 0.0615,0.08727 1.05351,-0.07074 1.29306,-0.07468 1.97687,-0.03246 0.2434,0.01503 0.46851,0.02962 0.50043,0.03204 0.0531,0.004 0.0584,-0.0047 0.0645,-0.100761 l 0.007,-0.104978 -0.32505,-0.146294 c -0.36151,-0.162632 -0.55549,-0.268169 -0.59572,-0.324208 -0.0784,-0.109173 -0.12244,-1.812751 -0.10413,-4.015714 0.008,-0.963435 0.0213,-1.84283 0.0299,-1.954524 l 0.016,-0.20321 0.13323,0.253801 c 1.04591,1.989214 2.31316,4.413137 2.49501,4.772481 0.26515,0.523966 0.54633,1.112377 0.69015,1.443548 0.0545,0.12552 0.12329,0.272173 0.15262,0.325895 l 0.0531,0.09739 0.38787,-0.0067 0.38829,-0.0072 -0.006,-2.830182 c -0.005,-2.651764 0.0148,-4.218126 0.0607,-4.780491 0.0169,-0.206562 0.0237,-0.230361 0.0923,-0.312825 0.048,-0.05775 0.19663,-0.158325 0.41991,-0.284156 l 0.34529,-0.194357 4.3e-4,-0.09781 z m -40.01758,8.42e-4 0.007,0.09612 0.007,0.0957 0.29385,0.145872 c 0.33247,0.164861 0.47272,0.258123 0.53543,0.355828 0.0385,0.06001 0.0454,0.12945 0.0615,0.634504 0.0239,0.746615 0.0236,5.030711 -4.3e-4,5.868633 l -0.019,0.656005 -0.0624,0.07547 c -0.0725,0.08749 -0.245,0.187227 -0.56199,0.324629 -0.21631,0.09376 -0.22511,0.100605 -0.23188,0.178758 -0.004,0.0447 -10e-4,0.09816 0.005,0.11889 0.009,0.02614 0.0306,0.03329 0.0725,0.02319 0.10428,-0.02514 0.98562,-0.0652 1.43554,-0.06535 0.33924,-2.37e-4 1.20733,0.03264 1.57762,0.05945 0.0506,0.0037 0.0548,-0.0046 0.0548,-0.106664 v -0.110467 l -0.27108,-0.124372 c -0.31345,-0.14357 -0.51826,-0.255266 -0.59488,-0.324629 l -0.054,-0.04891 -0.0156,-0.94775 c -0.009,-0.52133 -0.0167,-1.266284 -0.0177,-1.655191 l -0.002,-0.707018 0.76267,0.01265 c 0.46719,0.0077 0.80048,0.02388 0.85964,0.04174 0.0531,0.01603 0.125,0.0523 0.15979,0.08095 0.0867,0.0714 0.17558,0.285653 0.30144,0.727256 0.11438,0.401333 0.14499,0.45021 0.26181,0.413586 0.0512,-0.01606 0.0578,-0.03064 0.0552,-0.118047 -0.003,-0.102857 -0.002,-2.436252 10e-4,-2.840722 l 0.002,-0.228505 -0.0852,-0.008 c -0.0469,-0.0044 -0.0952,0.0035 -0.10751,0.01771 -0.0123,0.01422 -0.065,0.175726 -0.1172,0.359201 -0.12655,0.444739 -0.23377,0.699501 -0.31999,0.760139 -0.0371,0.02608 -0.12769,0.05915 -0.20153,0.07378 -0.0738,0.01463 -0.45932,0.0346 -0.85668,0.04427 l -0.72262,0.01771 0.0135,-1.547262 c 0.007,-0.850841 0.0197,-1.566084 0.0274,-1.589422 0.009,-0.02638 0.0528,-0.05023 0.11636,-0.06282 0.0563,-0.01114 0.45789,-0.01984 0.89253,-0.01982 0.87656,0 0.99784,0.01483 1.10289,0.137019 0.0883,0.102738 0.23938,0.421511 0.3727,0.7867 0.0642,0.175877 0.12518,0.336993 0.13533,0.357936 0.0115,0.02367 0.0506,0.03794 0.10371,0.03794 h 0.0856 l -0.008,-0.494955 c -0.005,-0.272252 -0.0144,-0.71766 -0.0219,-0.98991 l -0.0135,-0.494956 -0.79049,0.01265 c -1.23212,0.01979 -3.47416,0.01488 -3.87027,-0.0084 z m -14.0843,4.32e-4 0.007,0.0957 0.007,0.09612 0.29386,0.145451 c 0.33247,0.164861 0.47271,0.258124 0.53543,0.355829 0.0385,0.06001 0.0454,0.129451 0.0615,0.634503 0.0239,0.745861 0.0236,5.030445 -4.3e-4,5.866947 -0.0146,0.509572 -0.0263,0.667005 -0.0519,0.712078 -0.0449,0.07926 -0.25263,0.203331 -0.55946,0.333483 -0.25058,0.106296 -0.25748,0.110891 -0.26434,0.190562 -0.004,0.04496 -10e-4,0.09901 0.005,0.119734 0.009,0.02609 0.0311,0.03317 0.0729,0.02319 0.10265,-0.02451 1.02573,-0.06542 1.47643,-0.06535 0.45791,0 1.37645,0.04054 1.47601,0.06493 0.0502,0.0123 0.0639,0.0038 0.0818,-0.05059 0.0399,-0.121352 0.002,-0.167555 -0.20953,-0.255488 -0.34839,-0.144889 -0.53652,-0.245809 -0.61048,-0.327159 l -0.0725,-0.07968 -0.0143,-0.429186 c -0.008,-0.236088 -0.0143,-0.958935 -0.0143,-1.606285 v -1.176678 l 0.33137,0.0067 0.33138,0.0072 0.25211,0.532899 c 0.38153,0.806827 0.7723,1.693118 1.11934,2.538437 l 0.31283,0.761826 0.7087,0.01813 c 0.38986,0.01015 0.82733,0.02895 0.97221,0.04132 0.18862,0.0161 0.2684,0.01435 0.28036,-0.0059 0.009,-0.01554 0.0141,-0.06267 0.011,-0.104556 -0.005,-0.07082 -0.0263,-0.08771 -0.29638,-0.241154 -0.15974,-0.09075 -0.32106,-0.199269 -0.35878,-0.241154 -0.0998,-0.110848 -0.20881,-0.304887 -0.41991,-0.748756 -0.42806,-0.900099 -1.29051,-2.795548 -1.29051,-2.836085 0,-0.01485 0.0271,-0.0348 0.0603,-0.04427 0.11189,-0.03188 0.46983,-0.240297 0.60584,-0.352877 0.29315,-0.242666 0.52599,-0.598776 0.64167,-0.981479 0.0872,-0.288415 0.12088,-0.537582 0.12184,-0.900531 10e-4,-0.428064 -0.0406,-0.666203 -0.17117,-0.977263 -0.084,-0.200035 -0.13143,-0.27576 -0.2791,-0.444784 -0.14722,-0.168509 -0.21792,-0.226832 -0.40852,-0.336435 -0.27236,-0.156614 -0.50739,-0.237407 -0.86723,-0.298069 -0.23299,-0.03927 -0.34833,-0.04162 -0.99876,-0.02235 -0.94069,0.02788 -2.03743,0.02881 -2.50935,0.0021 z m 36.22321,0 v 0.09739 0.09781 l 0.25802,0.123107 c 0.34104,0.16256 0.54406,0.300458 0.59276,0.403468 0.0362,0.0765 0.0384,0.293764 0.0384,3.589479 v 3.507688 l -0.0658,0.0801 c -0.0794,0.09676 -0.24333,0.195677 -0.56873,0.342759 -0.23381,0.105675 -0.24368,0.11301 -0.25043,0.19014 -0.004,0.04421 -10e-4,0.09732 0.005,0.118047 0.009,0.02609 0.0311,0.03359 0.0729,0.02361 0.10031,-0.02395 1.02045,-0.06548 1.46041,-0.06577 0.32448,-2.37e-4 1.13007,0.03114 1.5304,0.05945 0.0492,0.0035 0.0556,-0.0071 0.0615,-0.10034 l 0.006,-0.103713 -0.31366,-0.146295 c -0.34606,-0.160997 -0.53576,-0.279133 -0.57253,-0.356671 -0.0392,-0.08255 -0.0646,-2.525717 -0.0498,-4.797776 0.007,-1.130893 0.0217,-2.123971 0.0316,-2.207061 0.015,-0.125748 0.0298,-0.162502 0.0881,-0.218809 0.0841,-0.08122 0.27666,-0.191861 0.5544,-0.318728 0.11272,-0.05149 0.21721,-0.104556 0.2323,-0.118047 0.0151,-0.01349 0.0274,-0.06391 0.0274,-0.112145 v -0.08769 l -0.35667,0.02066 c -0.46041,0.02712 -1.96548,0.02712 -2.42587,0 z m -26.34013,0.339807 c 0.0281,2.38e-4 0.0566,0.0014 0.0847,0.0038 0.35946,0.03042 0.63011,0.160295 0.87102,0.418224 0.0841,0.09004 0.1903,0.227604 0.2361,0.305658 0.34325,0.58501 0.52024,1.40675 0.57295,2.656906 0.0371,0.881081 -0.0231,1.840369 -0.15684,2.491639 -0.1015,0.494208 -0.26036,0.933119 -0.44857,1.239918 -0.20886,0.340456 -0.51262,0.580204 -0.8335,0.658113 -0.42246,0.102567 -0.81527,-0.02344 -1.13241,-0.362995 -0.24951,-0.267137 -0.41455,-0.570308 -0.5759,-1.059474 -0.13995,-0.424262 -0.25163,-1.04814 -0.29976,-1.672055 -0.0299,-0.386944 -0.0299,-1.420501 0,-1.766492 0.0127,-0.146597 0.0425,-0.404699 0.0666,-0.573372 0.12192,-0.85087 0.35714,-1.483722 0.70154,-1.889177 0.12186,-0.143458 0.20741,-0.218191 0.32927,-0.287529 0.19215,-0.10934 0.3877,-0.164023 0.58475,-0.163158 z m 33.28595,0 c 0.0282,2.38e-4 0.0565,0.0014 0.0847,0.0038 0.35945,0.03042 0.63011,0.160295 0.87102,0.418224 0.0841,0.09004 0.19029,0.227604 0.23609,0.305658 0.34325,0.58501 0.52025,1.40675 0.57295,2.656906 0.0371,0.881081 -0.0231,1.840369 -0.15683,2.491639 -0.1015,0.494208 -0.26037,0.933119 -0.44858,1.239918 -0.20886,0.340456 -0.51261,0.580204 -0.8335,0.658113 -0.42246,0.102567 -0.81568,-0.02344 -1.13283,-0.362995 -0.24951,-0.267137 -0.41413,-0.570308 -0.57548,-1.059474 -0.13994,-0.424262 -0.25205,-1.04814 -0.30018,-1.672055 -0.0298,-0.386944 -0.0298,-1.420501 0,-1.766492 0.0127,-0.146597 0.0429,-0.404699 0.067,-0.573372 0.12193,-0.85087 0.35714,-1.483722 0.70154,-1.889177 0.12186,-0.143458 0.20742,-0.218191 0.32927,-0.287529 0.19216,-0.109344 0.38769,-0.164031 0.58476,-0.163158 z m -40.3789,0.268979 c 0.0283,-3.67e-4 0.0563,-1.97e-4 0.0835,0 0.0726,5.4e-4 0.14024,0.003 0.1952,0.008 0.2431,0.02194 0.49207,0.103084 0.65474,0.213328 0.13162,0.0892 0.32237,0.329966 0.39082,0.49369 0.1092,0.261186 0.13494,0.431712 0.13322,0.875658 -0.001,0.331566 -0.01,0.443424 -0.0485,0.609208 -0.0259,0.111691 -0.0832,0.287429 -0.1269,0.390399 -0.14379,0.339025 -0.43887,0.619584 -0.78754,0.748335 -0.0604,0.02229 -0.1976,0.05794 -0.30482,0.07926 -0.10722,0.02131 -0.32188,0.03879 -0.47725,0.03879 h -0.28247 v -1.699037 -1.698615 l 0.0679,-0.01729 c 0.0914,-0.02323 0.30439,-0.0392 0.50212,-0.04174 z m -13.71245,2.022402 c -0.24567,-0.0013 -0.49264,0.04937 -0.69985,0.146294 -0.175,0.08186 -0.32956,0.197475 -0.43045,0.321679 -0.10566,0.130075 -0.20597,0.339606 -0.23862,0.498749 -0.0535,0.260654 -0.0254,0.631967 0.0691,0.911915 0.0556,0.16464 0.16664,0.394825 0.27783,0.576745 l 0.0877,0.143343 -0.13364,0.07083 c -0.0735,0.03888 -0.19066,0.109274 -0.26055,0.156413 -0.44752,0.301858 -0.69408,0.649463 -0.80567,1.136204 -0.0309,0.135121 -0.0379,0.217983 -0.0379,0.44605 0,0.202374 0.008,0.317024 0.0295,0.413587 0.0727,0.328363 0.20215,0.572259 0.40599,0.765199 0.0716,0.06779 0.18046,0.151417 0.242,0.185503 0.12829,0.07106 0.31548,0.139047 0.44605,0.162315 0.1448,0.0258 0.54855,0.0076 0.71081,-0.03204 0.37121,-0.09074 0.70456,-0.276348 1.03502,-0.576323 l 0.11426,-0.103713 0.18592,0.287529 0.1855,0.287951 0.11173,0.0013 c 0.12625,0.0014 0.81053,0.027 1.17921,0.04427 l 0.24537,0.0118 -0.005,-0.0645 -0.005,-0.06451 -0.19351,-0.08182 c -0.10631,-0.04495 -0.22661,-0.104373 -0.26772,-0.132381 -0.10558,-0.07195 -0.18621,-0.167762 -0.39714,-0.47261 -0.10151,-0.146704 -0.22499,-0.324176 -0.27446,-0.394615 l -0.0898,-0.128166 0.0932,-0.142078 c 0.14137,-0.215236 0.3307,-0.598293 0.51351,-1.038394 0.0905,-0.217901 0.17906,-0.419315 0.19646,-0.447315 0.0566,-0.09108 0.14543,-0.160892 0.31831,-0.25085 l 0.16948,-0.08854 v -0.06788 -0.06788 l -0.094,0.0084 c -0.14233,0.01278 -1.28212,0.0093 -1.37483,-0.0042 -0.0711,-0.01041 -0.0832,-0.0077 -0.0999,0.02319 -0.0105,0.01933 -0.0143,0.05292 -0.009,0.07462 0.008,0.03094 0.0349,0.04776 0.12563,0.07715 0.18734,0.0607 0.35847,0.144635 0.38914,0.190983 0.0265,0.03988 0.0265,0.05425 0,0.209534 -0.0402,0.235662 -0.18081,0.646706 -0.30819,0.900953 -0.0596,0.119022 -0.11859,0.229252 -0.13112,0.244948 -0.0201,0.02516 -0.0868,-0.06725 -0.56199,-0.779111 l -0.5388,-0.807359 0.0413,-0.02698 c 0.0229,-0.01489 0.10181,-0.06989 0.17538,-0.121842 0.4028,-0.284412 0.66358,-0.618569 0.76731,-0.983164 0.0199,-0.07 0.0406,-0.203928 0.046,-0.297648 0.0117,-0.205799 -0.0232,-0.40459 -0.0995,-0.563254 -0.10047,-0.208984 -0.32619,-0.396129 -0.57759,-0.478935 -0.0597,-0.01966 -0.18708,-0.04784 -0.28289,-0.0624 -0.0801,-0.01217 -0.1618,-0.01853 -0.24369,-0.01897 z m 0.0982,0.352455 c 0.0397,6.69e-4 0.0805,0.0066 0.12226,0.01813 0.0859,0.02363 0.19265,0.120389 0.24495,0.222603 0.079,0.154348 0.0999,0.272073 0.0982,0.548077 -0.001,0.199696 -0.009,0.28242 -0.0367,0.384075 -0.0699,0.257209 -0.21831,0.484839 -0.41359,0.63366 -0.0556,0.04241 -0.10505,0.07715 -0.10961,0.07715 -0.0155,0 -0.14411,-0.212888 -0.22429,-0.371006 -0.15861,-0.31276 -0.23061,-0.61371 -0.20869,-0.873971 0.033,-0.39162 0.24974,-0.643442 0.52742,-0.63872 z m -0.84109,2.562468 c 0.0269,0 0.85065,1.248911 1.17963,1.788415 l 0.1231,0.201945 -0.0653,0.06661 c -0.10338,0.105507 -0.28834,0.218365 -0.44773,0.272773 -0.11434,0.03903 -0.18504,0.05144 -0.31915,0.05649 -0.19207,0.0073 -0.29975,-0.01478 -0.44479,-0.09106 -0.0481,-0.0253 -0.13728,-0.09596 -0.19857,-0.156834 -0.0789,-0.07834 -0.13298,-0.152555 -0.18466,-0.254645 -0.0402,-0.07934 -0.0895,-0.205266 -0.10961,-0.27994 -0.0294,-0.109042 -0.0367,-0.187564 -0.0379,-0.398831 -0.002,-0.279934 0.0175,-0.417088 0.086,-0.617218 0.06,-0.175248 0.15095,-0.323174 0.28458,-0.462493 0.0661,-0.0689 0.12666,-0.125214 0.13449,-0.125214 z m -5.6131503,2.1906 c -0.28986,1.51e-4 -0.63199,0.01487 -0.99665,0.04385 -0.30782,0.02445 -0.74194,0.05254 -0.96462,0.0624 -0.38911,0.01722 -1.92705,-0.02762 -2.1434,-0.0624 -0.0994,-0.01598 -0.10571,-0.01272 -0.12142,0.06071 -0.009,0.04255 -0.007,0.108249 0.005,0.146294 0.0184,0.05974 0.0812,0.09345 0.46081,0.247056 0.4642,0.187823 0.66621,0.290599 0.71924,0.365525 0.0256,0.03617 0.0354,0.31877 0.0476,1.374828 0.0198,1.701661 0.0198,5.278909 0,7.241775 -0.0175,1.730558 0.002,1.582054 -0.22597,1.70747 -0.0677,0.0372 -0.31041,0.147208 -0.53965,0.244525 -0.22922,0.09731 -0.42462,0.190132 -0.43424,0.206583 -0.0228,0.03893 -0.0234,0.22436 -8.6e-4,0.25085 0.01,0.01127 0.0499,0.0134 0.0894,0.0051 0.0395,-0.0084 0.40908,-0.02967 0.8217,-0.04722 0.74034,-0.03149 2.05521,-0.01712 2.65564,0.02867 0.15718,0.01198 0.2994,0.01584 0.31577,0.0089 0.0391,-0.0166 0.0389,-0.214649 0,-0.252539 -0.0165,-0.01606 -0.23354,-0.112811 -0.4823,-0.215014 -0.47017,-0.193162 -0.63643,-0.285059 -0.66739,-0.369319 -0.0208,-0.05673 -0.0541,-2.14911 -0.0569,-3.589478 l -0.002,-0.970095 0.0653,0.01181 c 0.16804,0.03061 1.05345,0.03999 1.32719,0.01392 0.74463,-0.07092 1.3063603,-0.283072 1.7930503,-0.676665 0.095,-0.07683 0.26656,-0.255066 0.38113,-0.396302 0.31544,-0.388854 0.51315,-0.822116 0.63703,-1.395907 0.0875,-0.405218 0.11436,-0.747922 0.10076,-1.280812 -0.01,-0.372233 -0.0243,-0.534455 -0.0649,-0.714608 -0.0755,-0.335001 -0.1723,-0.594455 -0.31915,-0.853312 -0.35291,-0.622069 -0.92582,-1.006603 -1.7175903,-1.15349 -0.15493,-0.02874 -0.39229,-0.04313 -0.68215,-0.043 z m -0.65136,0.802299 c 0.45122,0 0.57459,0.0089 0.70069,0.04975 0.49504,0.16032 0.8355803,0.545086 0.9907503,1.118918 0.0914,0.338026 0.13028,0.684731 0.13028,1.16909 1.5e-4,0.701688 -0.0669,1.114344 -0.25338,1.558644 -0.0907,0.21597 -0.14691,0.306737 -0.3052403,0.492426 -0.15409,0.180738 -0.23604,0.251118 -0.39672,0.342337 -0.23875,0.135537 -0.47853,0.212411 -0.79176,0.253381 -0.1252,0.01636 -0.38903,0.02951 -0.58602,0.02951 h -0.35794 V 27.812051 25.328 l 0.16063,-0.02319 c 0.0884,-0.01274 0.40743,-0.02319 0.70871,-0.02319 z m 14.1369903,2.304872 c -0.28245,-7.99e-4 -0.56394,0.03807 -0.83349,0.116783 -0.32191,0.094 -0.61199,0.243682 -0.9018,0.465021 -0.28124,0.214789 -0.59136,0.564759 -0.79134,0.892943 -0.18633,0.305775 -0.39742,0.800732 -0.50592,1.186375 -0.10442,0.371202 -0.18827,0.835149 -0.22091,1.223052 -0.0525,0.624351 -0.0172,1.420295 0.0881,1.986988 0.10992,0.591295 0.32005,1.182806 0.58181,1.637484 0.17091,0.296891 0.45547,0.650248 0.68298,0.848254 0.0904,0.07863 0.25529,0.198566 0.36679,0.266449 0.23897,0.145481 0.59424,0.284922 0.82507,0.32421 0.0906,0.01541 0.18947,0.03311 0.21965,0.03921 0.0302,0.0061 0.2079,0.0073 0.39504,0.0025 0.23285,-0.006 0.41104,-0.02561 0.56409,-0.06198 0.43449,-0.103217 0.84568,-0.310482 1.17921,-0.594033 0.37574,-0.319434 0.75615,-0.848679 0.97726,-1.360072 0.2585,-0.597827 0.4227,-1.295904 0.48695,-2.070885 0.0329,-0.396762 0.0133,-1.341822 -0.0342,-1.663623 -0.0471,-0.319497 -0.1507,-0.76659 -0.23399,-1.009303 -0.23165,-0.67511 -0.59496,-1.228062 -1.0561,-1.607129 -0.20848,-0.171376 -0.59207,-0.384516 -0.84024,-0.46713 -0.30751,-0.102369 -0.62891,-0.154259 -0.94902,-0.155147 z m 33.04985,0 c -0.28245,-7.99e-4 -0.56352,0.03807 -0.83307,0.116783 -0.32191,0.094 -0.61241,0.243682 -0.90222,0.465021 -0.28124,0.214791 -0.59136,0.564339 -0.79134,0.892521 -0.18633,0.305781 -0.39742,0.801152 -0.50592,1.186797 -0.10443,0.371195 -0.18827,0.835153 -0.22091,1.223052 -0.0525,0.624356 -0.0172,1.420292 0.0881,1.986988 0.10992,0.591293 0.32005,1.18281 0.5818,1.637484 0.17092,0.296895 0.45548,0.650248 0.68299,0.848254 0.0904,0.07863 0.2557,0.198566 0.36721,0.266449 0.23897,0.145481 0.59424,0.284922 0.82507,0.32421 0.0905,0.01541 0.18947,0.03311 0.21965,0.03921 0.0302,0.0061 0.2079,0.0073 0.39504,0.0025 0.23285,-0.006 0.41061,-0.02561 0.56367,-0.06198 0.43449,-0.103217 0.8461,-0.310482 1.17963,-0.594033 0.37574,-0.319434 0.75614,-0.848681 0.97726,-1.360072 0.25849,-0.597831 0.42229,-1.295902 0.48653,-2.070885 0.0329,-0.396756 0.0138,-1.341818 -0.0337,-1.663623 -0.0471,-0.31951 -0.15113,-0.76659 -0.23441,-1.009303 -0.23166,-0.675107 -0.59454,-1.228058 -1.05568,-1.607129 -0.20848,-0.171379 -0.59207,-0.384509 -0.84024,-0.46713 -0.30751,-0.102369 -0.62933,-0.154259 -0.94944,-0.155147 z m 28.15384,0.01265 c -0.0397,3.7e-5 -0.0805,4.53e-4 -0.12268,0.0017 -0.33726,0.0098 -0.68564,0.01729 -1.11555,0.194778 -0.50371,0.207951 -0.89455,0.534668 -1.14885,0.974311 -0.15192,0.262635 -0.24825,0.535952 -0.29934,0.850361 -0.0284,0.174732 -0.0343,0.313421 -0.0257,0.595715 0.007,0.228184 0.0254,0.431036 0.0489,0.533322 0.0475,0.206768 0.15749,0.487014 0.26392,0.672447 0.10932,0.190458 0.35948,0.475429 0.57253,0.652212 0.0956,0.07932 0.4058,0.300394 0.68931,0.491582 0.28351,0.191189 0.59351,0.411163 0.68889,0.48863 0.36071,0.29298 0.61027,0.623432 0.70955,0.939742 0.031,0.09861 0.0579,0.254312 0.0653,0.376907 0.0382,0.626104 -0.19381,1.143469 -0.61891,1.379888 -0.099,0.05505 -0.25724,0.11663 -0.36173,0.140812 -0.14328,0.03317 -0.25104,0.03968 -0.47177,0.02867 -0.30546,-0.01524 -0.48715,-0.06215 -0.68172,-0.17665 -0.0603,-0.03548 -0.13082,-0.09158 -0.15683,-0.124371 -0.026,-0.0328 -0.072,-0.127874 -0.10203,-0.211642 -0.0787,-0.219154 -0.21769,-0.734745 -0.30144,-1.117234 -0.0397,-0.181502 -0.0816,-0.344278 -0.0932,-0.36173 -0.0116,-0.01744 -0.0633,-0.03162 -0.11468,-0.03162 -0.0514,0 -0.10275,0.01416 -0.11425,0.03162 -0.0115,0.01744 -0.0429,0.351513 -0.07,0.742434 -0.0271,0.390927 -0.0633,0.865089 -0.0805,1.053571 -0.0414,0.454003 -0.0408,0.5258 0.007,0.554401 0.10278,0.0618 0.84157,0.227851 1.18006,0.265184 0.19715,0.02175 0.80344,0.01653 0.97726,-0.0084 1.0178,-0.14624 1.71255,-0.646091 2.0536,-1.478542 0.24261,-0.592206 0.25818,-1.430248 0.0379,-2.035893 -0.12136,-0.333723 -0.35291,-0.667937 -0.66233,-0.956604 -0.21911,-0.204422 -0.49927,-0.415073 -0.95745,-0.719668 -0.5498,-0.365503 -0.72667,-0.505994 -0.92414,-0.733577 -0.13317,-0.153492 -0.19783,-0.252323 -0.25802,-0.395037 -0.0918,-0.217669 -0.12438,-0.386921 -0.12394,-0.644622 8.6e-4,-0.465252 0.18415,-0.881129 0.49284,-1.118076 0.1621,-0.124421 0.36482,-0.208664 0.59193,-0.246634 0.1493,-0.0251 0.23336,-0.02534 0.40262,-8.42e-4 0.24956,0.03613 0.4041,0.112264 0.51435,0.25338 0.0409,0.05229 0.11979,0.214642 0.17496,0.360887 0.0949,0.251511 0.13901,0.384674 0.30945,0.92625 0.0657,0.208776 0.0773,0.228902 0.13449,0.236515 0.0344,0.0046 0.084,0.0022 0.11046,-0.0055 0.0474,-0.01377 0.0485,-0.02431 0.0746,-0.795133 0.0145,-0.429713 0.0375,-0.893981 0.0506,-1.031648 0.0202,-0.211217 0.0186,-0.256409 -0.008,-0.28753 -0.0395,-0.04565 -0.28007,-0.116668 -0.59825,-0.177071 -0.23872,-0.05857 -0.46087,-0.08753 -0.73864,-0.08727 z m -42.89794,0.0038 v 4.32e-4 c -0.6458,-4.54e-4 -0.76185,0.05294 -1.13873,0.200258 -0.50668,0.198055 -0.89877,0.526659 -1.15307,0.966301 -0.15191,0.262632 -0.24825,0.535952 -0.29933,0.850362 -0.0284,0.174733 -0.0343,0.313426 -0.0257,0.595714 0.007,0.228184 0.0254,0.431036 0.0489,0.533322 0.0475,0.206768 0.15749,0.487017 0.26392,0.672447 0.10932,0.190458 0.35948,0.475427 0.57253,0.652212 0.0956,0.07932 0.4058,0.300394 0.68932,0.491582 0.28351,0.191191 0.5935,0.411159 0.68888,0.48863 0.36072,0.29298 0.61027,0.623436 0.70955,0.939741 0.031,0.09862 0.0579,0.254313 0.0653,0.376908 0.0382,0.626104 -0.19339,1.143469 -0.61848,1.379888 -0.099,0.05505 -0.25767,0.11663 -0.36215,0.140812 -0.14329,0.03316 -0.25104,0.03968 -0.47177,0.02867 -0.30546,-0.01524 -0.48674,-0.06215 -0.6813,-0.17665 -0.0603,-0.03548 -0.13125,-0.09158 -0.15726,-0.124371 -0.026,-0.0328 -0.0715,-0.127874 -0.1016,-0.211642 -0.0787,-0.219154 -0.21811,-0.734749 -0.30187,-1.117234 -0.0397,-0.1815 -0.0816,-0.344276 -0.0932,-0.36173 -0.0116,-0.01744 -0.0629,-0.03162 -0.11425,-0.03162 -0.0514,0 -0.10318,0.01416 -0.11468,0.03162 -0.0115,0.01744 -0.0429,0.351507 -0.07,0.742434 -0.0271,0.390927 -0.0633,0.865089 -0.0805,1.053571 -0.0414,0.454003 -0.0404,0.5258 0.007,0.554401 0.10277,0.0618 0.84115,0.227851 1.17963,0.265184 0.19715,0.02174 0.80386,0.01653 0.97768,-0.0084 1.0178,-0.14624 1.71214,-0.646514 2.05318,-1.478963 0.24262,-0.59221 0.2582,-1.429823 0.0379,-2.035472 -0.12136,-0.33372 -0.35292,-0.668356 -0.66233,-0.957027 -0.21911,-0.204422 -0.49927,-0.415073 -0.95744,-0.719666 -0.5498,-0.365501 -0.72669,-0.505571 -0.92415,-0.733156 -0.13317,-0.15349 -0.19783,-0.252752 -0.25801,-0.39546 -0.0918,-0.217673 -0.12397,-0.386496 -0.12353,-0.644199 8.6e-4,-0.46525 0.18415,-0.881131 0.49285,-1.118075 0.16209,-0.124425 0.3644,-0.209086 0.5915,-0.247056 0.1493,-0.02496 0.23336,-0.02488 0.40262,-4.32e-4 0.24956,0.03612 0.40453,0.112261 0.51477,0.25338 0.0409,0.05229 0.11937,0.214644 0.17454,0.360887 0.0949,0.251515 0.13943,0.384251 0.30988,0.925827 0.0657,0.208773 0.0769,0.229327 0.13407,0.236939 0.0344,0.0046 0.0844,0.0022 0.11088,-0.0055 0.0474,-0.01377 0.0485,-0.02473 0.0746,-0.795555 0.0146,-0.429714 0.0371,-0.89398 0.0502,-1.031648 0.0201,-0.211212 0.0189,-0.255987 -0.008,-0.287108 -0.0395,-0.04566 -0.28007,-0.116667 -0.59825,-0.177071 -0.19001,-0.03608 -0.36792,-0.08319 -0.83434,-0.08348 z m 5.46854,0.01813 c -0.64581,-4.54e-4 -0.76227,0.03523 -1.13916,0.182551 -0.50667,0.198054 -0.89876,0.526658 -1.15306,0.966301 -0.15192,0.262635 -0.24783,0.535952 -0.29892,0.850361 -0.0284,0.174733 -0.0347,0.313421 -0.0261,0.595716 0.007,0.228183 0.0258,0.431035 0.0493,0.533322 0.0475,0.206768 0.15707,0.487014 0.2635,0.672446 0.10932,0.190458 0.35948,0.475429 0.57253,0.652212 0.0956,0.07932 0.4058,0.300394 0.68931,0.491582 0.28351,0.191189 0.59351,0.411164 0.68889,0.488631 0.36071,0.292979 0.61026,0.623431 0.70955,0.939741 0.031,0.09861 0.0583,0.254313 0.0658,0.376907 0.0382,0.626104 -0.19381,1.14347 -0.61891,1.379888 -0.099,0.05505 -0.25724,0.11663 -0.36173,0.140812 -0.14328,0.03317 -0.25146,0.03968 -0.47219,0.02867 -0.30546,-0.01524 -0.48673,-0.06215 -0.6813,-0.17665 -0.0603,-0.03548 -0.13082,-0.09158 -0.15683,-0.12437 -0.026,-0.0328 -0.0719,-0.127875 -0.10203,-0.211642 -0.0787,-0.219154 -0.21769,-0.734746 -0.30144,-1.117235 -0.0397,-0.181502 -0.082,-0.344278 -0.0936,-0.36173 -0.0116,-0.01744 -0.0629,-0.03162 -0.11426,-0.03162 -0.0514,0 -0.10275,0.01416 -0.11425,0.03162 -0.0115,0.01744 -0.0433,0.351513 -0.0704,0.742434 -0.0271,0.390927 -0.0634,0.865089 -0.0805,1.053572 -0.0414,0.454002 -0.0404,0.525799 0.007,0.5544 0.10278,0.0618 0.84157,0.227851 1.18005,0.265184 0.19716,0.02175 0.80345,0.01654 0.97727,-0.0084 1.0178,-0.146239 1.71213,-0.646091 2.05318,-1.478542 0.24261,-0.592206 0.25861,-1.430248 0.0384,-2.035893 -0.12136,-0.333722 -0.35292,-0.667937 -0.66233,-0.956604 -0.21911,-0.204421 -0.49969,-0.415073 -0.95787,-0.719667 -0.5498,-0.365504 -0.72625,-0.505995 -0.92372,-0.733578 -0.13317,-0.153492 -0.19783,-0.252323 -0.25802,-0.395037 -0.0918,-0.217669 -0.12438,-0.386921 -0.12395,-0.644622 8.7e-4,-0.465252 0.18416,-0.881129 0.49285,-1.118076 0.1621,-0.124421 0.36482,-0.208664 0.59192,-0.246634 0.14931,-0.0251 0.23295,-0.02533 0.40221,-8.42e-4 0.24956,0.03613 0.40452,0.112264 0.51477,0.25338 0.0409,0.05229 0.11936,0.214642 0.17454,0.360887 0.0949,0.251511 0.13943,0.384674 0.30987,0.92625 0.0657,0.208776 0.0774,0.228902 0.13449,0.236516 0.0344,0.0046 0.084,0.0022 0.11046,-0.0055 0.0474,-0.01377 0.0485,-0.02431 0.0746,-0.795133 0.0145,-0.429713 0.0371,-0.893981 0.0502,-1.031648 0.0201,-0.211216 0.0189,-0.256409 -0.008,-0.287529 -0.0395,-0.04565 -0.28007,-0.116669 -0.59825,-0.177071 -0.19002,-0.03607 -0.3675,-0.06535 -0.83392,-0.06535 z m 22.55461,0.08179 c -0.32112,0 -0.43897,0.0086 -0.45448,0.03204 -0.0115,0.01746 -0.1181,0.362834 -0.23652,0.767728 -0.56104,1.918327 -1.55376,5.187335 -1.96591,6.473204 -0.19565,0.610433 -0.20741,0.639502 -0.3124,0.758453 -0.1002,0.113524 -0.30128,0.242421 -0.5915,0.379858 -0.0273,0.01291 -0.0493,0.02984 -0.0658,0.04933 l -0.005,-2.596193 c -0.005,-2.651772 0.0144,-4.21812 0.0603,-4.780492 0.0169,-0.206561 0.0242,-0.230362 0.0927,-0.312825 0.048,-0.05775 0.19621,-0.158325 0.41949,-0.284156 l 0.34529,-0.194357 4.3e-4,-0.09781 4.3e-4,-0.09781 -0.27994,0.0215 c -0.35999,0.02758 -1.57074,0.0277 -1.97561,0 l -0.31282,-0.0215 v 0.08811 c 0,0.04845 0.0123,0.09956 0.0274,0.11341 0.0151,0.01386 0.12633,0.07337 0.24706,0.132381 0.31993,0.15639 0.60196,0.330104 0.63661,0.391664 0.0513,0.09105 0.0752,0.915709 0.0902,3.124879 0.01,1.411468 0.007,2.073763 -0.008,2.056551 -0.0269,-0.03061 -2.18983,-4.222898 -2.42966,-4.709241 -0.093,-0.188484 -0.23818,-0.50569 -0.32252,-0.704911 -0.0871,-0.205701 -0.17386,-0.376962 -0.20111,-0.396723 -0.0376,-0.02723 -0.25064,-0.03911 -0.98105,-0.05354 -0.51312,-0.01014 -1.00729,-0.01963 -1.09784,-0.0215 l -0.16443,-0.0034 -0.006,0.07589 c -0.003,0.04189 0.002,0.08843 0.0114,0.103292 0.009,0.01486 0.11814,0.07637 0.24242,0.136597 0.28958,0.14035 0.46934,0.275199 0.54681,0.410636 l 0.0616,0.107507 -10e-4,3.09874 c -10e-4,3.301546 -0.0135,3.82357 -0.0936,3.948256 -0.0495,0.07705 -0.19135,0.162541 -0.53079,0.319992 -0.13884,0.0644 -0.2655,0.129223 -0.2812,0.144187 -0.0165,0.01569 -0.0257,0.06597 -0.0219,0.118469 0.006,0.07932 0.0137,0.09048 0.0616,0.08727 1.05351,-0.07074 1.29305,-0.07468 1.97686,-0.03246 0.24341,0.01502 0.46851,0.02919 0.50044,0.03162 0.0531,0.004 0.0589,-0.0043 0.0649,-0.100339 l 0.006,-0.104978 -0.32505,-0.146294 c -0.36151,-0.162633 -0.5555,-0.268168 -0.59572,-0.324209 -0.0784,-0.109175 -0.12244,-1.812754 -0.10413,-4.015712 0.008,-0.963441 0.0217,-1.843255 0.0303,-1.954947 l 0.0156,-0.202788 0.13322,0.2538 c 1.04592,1.98922 2.31317,4.413136 2.49502,4.772481 0.26515,0.523963 0.54632,1.111959 0.69015,1.443128 0.0545,0.125519 0.12329,0.272169 0.15262,0.325894 v 4.31e-4 l 0.0531,0.09739 0.38829,-0.0067 0.38787,-0.0072 v -0.03668 c 0.0128,0.01381 0.0272,0.01895 0.0405,0.01308 0.0181,-0.008 0.26922,-0.02799 0.55819,-0.04469 0.41516,-0.02399 0.65287,-0.02374 1.1341,0.0017 0.33494,0.01768 0.63383,0.03423 0.66401,0.03668 0.0492,0.004 0.0557,-0.0063 0.0616,-0.09865 l 0.006,-0.102869 -0.26982,-0.123106 c -0.5116,-0.233174 -0.58838,-0.292353 -0.58813,-0.455747 1.5e-4,-0.136288 0.14876,-0.790782 0.29174,-1.283764 l 0.11426,-0.393772 0.29638,-0.02023 c 0.28703,-0.01971 2.14345,-0.0096 2.16195,0.01181 0.0127,0.0147 0.20915,0.745813 0.31704,1.180472 0.1039,0.418579 0.11249,0.559584 0.0396,0.634083 -0.0865,0.0885 -0.17031,0.139075 -0.47556,0.28795 -0.2506,0.122227 -0.30141,0.156322 -0.31915,0.213751 -0.0256,0.08277 0.008,0.156881 0.0679,0.150088 0.18139,-0.02051 1.12441,-0.05903 1.44734,-0.05903 0.32229,0 1.11894,0.03185 1.46927,0.0586 0.0189,0.0015 0.0321,0.0017 0.0417,-8.64e-4 0,0 4.3e-4,4.32e-4 4.3e-4,4.32e-4 0.0119,0.01256 0.0323,0.01468 0.0637,0.0072 0.0332,-0.008 0.30245,-0.02719 0.59825,-0.04258 0.35273,-0.01835 1.02883,-0.02196 1.96464,-0.01053 0.78477,0.0096 1.64422,0.02671 1.90983,0.03794 0.35517,0.01502 0.48932,0.01258 0.50718,-0.0089 0.0156,-0.01872 0.0352,-0.355818 0.0548,-0.942692 0.0168,-0.502619 0.0308,-1.033875 0.0308,-1.180472 v -0.266449 h -0.0949 -0.0944 l -0.14882,0.418646 c -0.20439,0.576566 -0.37009,0.954335 -0.4743,1.080974 -0.13513,0.164223 -0.20818,0.175385 -1.11934,0.175385 -0.42257,0 -0.81387,-0.0087 -0.86975,-0.01982 -0.0961,-0.01904 -0.10254,-0.02529 -0.11468,-0.114254 -0.0238,-0.174201 -0.0397,-4.626948 -0.0207,-5.786 0.0179,-1.088699 0.0213,-1.151629 0.0628,-1.215885 0.0599,-0.09284 0.22729,-0.197922 0.56705,-0.355406 l 0.28753,-0.133225 0.007,-0.104978 0.007,-0.104556 -0.37986,0.02066 c -0.49325,0.02717 -1.94803,0.02694 -2.40521,0 l -0.35667,-0.02108 v 0.09865 0.09823 l 0.18128,0.08516 c 0.26391,0.123693 0.54525,0.292198 0.61427,0.368055 0.0331,0.03634 0.0675,0.09735 0.0767,0.135332 0.009,0.03798 0.0169,1.630234 0.0169,3.538466 0,3.4483 -4.3e-4,3.469795 -0.0447,3.538466 -0.0586,0.09078 -0.22119,0.1952 -0.55819,0.357935 -0.17275,0.08342 -0.2371,0.116052 -0.26308,0.15009 -0.0325,-0.03768 -0.11838,-0.08091 -0.34318,-0.201945 -0.23083,-0.124283 -0.35688,-0.248122 -0.4157,-0.406843 -0.0565,-0.152374 -0.93426,-3.196862 -1.304,-4.523316 -0.17478,-0.627031 -0.44789,-1.619834 -0.6071,-2.206218 -0.1592,-0.586391 -0.29959,-1.080382 -0.31198,-1.097839 -0.0166,-0.02344 -0.13589,-0.03162 -0.45617,-0.03162 z m 17.39173,0.09486 0.007,0.09781 0.008,0.09781 0.20911,0.102448 c 0.11512,0.05629 0.2546,0.133305 0.30988,0.171168 0.11939,0.08179 0.23176,0.223275 0.25211,0.317042 0.03,0.138342 -0.0323,1.492582 -0.13575,2.952444 -0.0716,1.00926 -0.18814,2.536283 -0.25001,3.267378 -0.0494,0.583947 -0.0741,0.782543 -0.10245,0.832654 -0.0579,0.102231 -0.20359,0.205398 -0.5194,0.367634 -0.27752,0.142566 -0.29093,0.152782 -0.29765,0.229349 -0.004,0.04406 -0.002,0.09699 0.006,0.118046 v 4.32e-4 c 0.007,0.02186 0.0272,0.03171 0.0464,0.02319 0.0185,-0.0082 0.28606,-0.0286 0.59445,-0.04553 0.43952,-0.02413 0.6894,-0.02416 1.15686,0 0.32799,0.01694 0.61842,0.03763 0.64547,0.04595 0.0379,0.01166 0.0537,0.0015 0.0683,-0.04427 0.0104,-0.03262 0.0125,-0.08641 0.005,-0.119311 -0.0113,-0.04874 -0.0664,-0.08415 -0.2985,-0.19267 -0.38579,-0.180418 -0.53636,-0.269294 -0.57632,-0.339808 -0.029,-0.0512 -0.0314,-0.147014 -0.0185,-0.698587 0.0185,-0.788876 0.0652,-2.036942 0.12353,-3.292252 0.0495,-1.065603 0.12776,-2.44091 0.13955,-2.454538 0.0104,-0.0121 0.43751,1.294952 0.79344,2.429242 0.32353,1.031008 0.65451,2.128176 1.09489,3.629953 l 0.29385,1.002558 0.1619,0.0072 0.16147,0.0076 0.19478,-0.680036 c 0.49954,-1.744707 1.93286,-6.402204 1.96042,-6.370333 0.0122,0.01411 0.0412,0.420395 0.1269,1.780826 0.0889,1.412543 0.20249,3.412333 0.22008,3.871527 0.007,0.174521 0.0171,0.398696 0.0232,0.498327 0.0105,0.168663 0.008,0.186445 -0.0472,0.261391 -0.0632,0.08687 -0.38188,0.275029 -0.67498,0.398409 -0.18832,0.07928 -0.22865,0.132839 -0.1893,0.252536 0.0179,0.05457 0.0316,0.06323 0.0818,0.05101 0.0992,-0.02412 0.99726,-0.06513 1.43259,-0.06535 0.3202,-1.53e-4 1.04869,0.02888 1.49245,0.05944 0.0495,0.0034 0.0554,-0.0068 0.0616,-0.104134 0.006,-0.09761 8.6e-4,-0.110458 -0.0536,-0.13449 -0.0333,-0.01461 -0.1705,-0.0888 -0.30523,-0.164844 -0.28618,-0.161533 -0.43826,-0.303133 -0.47051,-0.438461 -0.066,-0.276861 -0.41738,-5.897621 -0.41738,-6.675992 -10e-6,-0.266846 0.0233,-0.342425 0.13702,-0.442677 0.0804,-0.07086 0.28151,-0.192892 0.55019,-0.333905 0.16745,-0.08789 0.1716,-0.09208 0.16484,-0.173276 l -0.007,-0.08306 -0.17539,0.0025 c -0.0966,0.0016 -0.61758,0.01207 -1.1577,0.02319 -0.85624,0.01761 -0.98596,0.02545 -1.0131,0.06071 -0.0171,0.02223 -0.12056,0.366026 -0.22977,0.763934 -0.29447,1.07281 -0.69367,2.428371 -1.01141,3.435596 -0.42123,1.335214 -0.5154,1.616319 -0.53881,1.607549 -0.0262,-0.0098 -0.16763,-0.459521 -0.56409,-1.793897 -0.34083,-1.147058 -0.71297,-2.479399 -0.93974,-3.362658 -0.0826,-0.321733 -0.15729,-0.604892 -0.16569,-0.629444 -0.008,-0.02455 -0.0365,-0.04961 -0.0624,-0.05565 -0.0259,-0.006 -0.45683,-0.01768 -0.95787,-0.02572 -0.50104,-0.008 -1.00796,-0.02165 -1.1265,-0.03036 z m -54.40712,0.0017 v 0.09908 0.09908 l 0.18086,0.08516 c 0.26391,0.123691 0.54567,0.292198 0.61469,0.368054 0.0331,0.03634 0.0675,0.09735 0.0767,0.135333 0.009,0.03798 0.0165,1.628713 0.0165,3.535093 0,3.276412 -0.002,3.469698 -0.0388,3.534671 -0.0595,0.10508 -0.17814,0.184068 -0.5232,0.347395 -0.30662,0.145134 -0.31612,0.15178 -0.32294,0.22977 -0.004,0.0442 -0.001,0.09732 0.005,0.118048 0.009,0.02611 0.0311,0.03321 0.0729,0.02319 0.0332,-0.008 0.30245,-0.02718 0.59824,-0.04258 0.35369,-0.01841 1.03752,-0.022 1.99753,-0.01053 0.80287,0.0096 1.67711,0.02666 1.94272,0.03794 0.3857,0.01638 0.49207,0.01364 0.52868,-0.01308 0.0445,-0.03248 0.0466,-0.05931 0.0641,-0.94269 0.01,-0.500287 0.0187,-0.989567 0.0198,-1.087299 l 0.002,-0.177914 -0.094,-0.008 c -0.10899,-0.0091 -0.0908,-0.04367 -0.25759,0.490317 -0.12058,0.386098 -0.30355,0.81303 -0.37016,0.863431 -0.10174,0.07698 -0.31844,0.116516 -0.78966,0.144608 -0.35979,0.02146 -0.59841,0.02128 -0.95491,-8.64e-4 -0.2614,-0.01621 -0.49651,-0.03638 -0.52236,-0.04469 -0.0457,-0.0147 -0.0473,-0.03038 -0.0599,-0.57759 -0.007,-0.309413 -0.0186,-1.069161 -0.0257,-1.688075 l -0.0131,-1.125242 0.88535,0.01012 c 0.9318,0.01041 0.97936,0.01591 1.08983,0.130696 0.0751,0.078 0.16494,0.297182 0.27784,0.678348 0.0547,0.184614 0.11057,0.351097 0.12395,0.36974 0.0281,0.03917 0.18725,0.04588 0.19815,0.0084 0.004,-0.01384 -4.3e-4,-0.222365 -0.01,-0.463336 -0.009,-0.240966 -0.0104,-0.924739 -0.003,-1.519857 0.0102,-0.813993 0.007,-1.086548 -0.0122,-1.100369 -0.0141,-0.0101 -0.0586,-0.01127 -0.0991,-0.0025 -0.0722,0.01567 -0.075,0.02109 -0.15303,0.307766 -0.10122,0.371618 -0.2086,0.640171 -0.28922,0.724725 -0.0348,0.03649 -0.0977,0.08071 -0.13997,0.09781 -0.0873,0.0353 -0.8333,0.07404 -1.45746,0.07589 l -0.41485,0.0013 0.0143,-1.09784 c 0.008,-0.603838 0.0207,-1.277258 0.0282,-1.496247 l 0.0135,-0.397988 0.13449,-0.01644 c 0.0738,-0.0091 0.52932,-0.01237 1.01225,-0.0072 0.74327,0.0081 0.89269,0.01605 0.97347,0.05101 0.0525,0.02272 0.11159,0.06673 0.13154,0.09781 0.13896,0.216493 0.24322,0.463239 0.43382,1.02659 0.0426,0.125955 0.0439,0.126901 0.14124,0.126901 h 0.0978 l -10e-4,-0.139549 c -8.6e-4,-0.07679 -0.01,-0.514057 -0.0198,-0.97136 -0.0135,-0.612425 -0.0257,-0.838133 -0.046,-0.857529 -0.019,-0.01819 -0.40292,-0.01744 -1.24244,0.003 -1.13948,0.02765 -3.21279,0.01752 -3.63501,-0.01771 z m -5.56256,0.0013 0.007,0.0957 0.007,0.09612 0.29386,0.145872 c 0.33247,0.164864 0.47271,0.258125 0.53543,0.355828 0.0385,0.06001 0.0454,0.12945 0.0615,0.634504 0.0239,0.746616 0.0236,5.030709 -4.3e-4,5.868634 l -0.019,0.656005 -0.0624,0.07547 c -0.0725,0.08749 -0.24501,0.187228 -0.56199,0.324628 -0.21632,0.09377 -0.22512,0.100605 -0.23188,0.178759 -0.004,0.0447 -0.001,0.09816 0.005,0.11889 0.009,0.02614 0.031,0.03329 0.0729,0.02319 0.10427,-0.02514 0.9852,-0.06562 1.43511,-0.06577 0.33925,-1.51e-4 1.20734,0.03265 1.57762,0.05945 0.0506,0.0037 0.0548,-0.0042 0.0548,-0.106241 v -0.11088 l -0.27067,-0.12395 c -0.31345,-0.143569 -0.51868,-0.255688 -0.59529,-0.325051 l -0.054,-0.04891 -0.0156,-0.94775 c -0.009,-0.521326 -0.0163,-1.265863 -0.0173,-1.65477 l -0.002,-0.707018 0.76309,0.01222 c 0.46718,0.0077 0.80006,0.02388 0.85921,0.04174 0.0531,0.01604 0.12501,0.05273 0.15979,0.08137 0.0867,0.0714 0.17558,0.285656 0.30144,0.727255 0.11438,0.401334 0.14499,0.449785 0.26181,0.413165 0.0513,-0.01608 0.0582,-0.03022 0.0557,-0.117625 -0.003,-0.102856 -0.002,-2.436674 8.7e-4,-2.841144 l 0.002,-0.228507 -0.0856,-0.008 c -0.0469,-0.0044 -0.0952,0.0035 -0.10751,0.0177 -0.0123,0.01422 -0.065,0.176145 -0.1172,0.359621 -0.12655,0.444739 -0.23377,0.699082 -0.31999,0.759718 -0.0371,0.02608 -0.12769,0.05958 -0.20153,0.0742 -0.0738,0.01464 -0.45932,0.03418 -0.85668,0.04385 l -0.72262,0.0177 0.0135,-1.546841 c 0.007,-0.850837 0.0197,-1.566084 0.0274,-1.58942 0.009,-0.02638 0.0528,-0.05023 0.11636,-0.06282 0.0563,-0.01114 0.45788,-0.02026 0.89252,-0.02024 0.87656,4.9e-5 0.99784,0.01525 1.1029,0.137441 0.0883,0.102738 0.23937,0.421512 0.37269,0.7867 0.0642,0.175877 0.12518,0.336993 0.13533,0.357936 0.0115,0.02367 0.0506,0.03794 0.10371,0.03794 h 0.0856 l -0.008,-0.494954 c -0.005,-0.272252 -0.0144,-0.717658 -0.0219,-0.989911 l -0.0135,-0.494955 -0.79049,0.01265 c -1.23212,0.01979 -3.47416,0.01489 -3.87026,-0.0084 z m 22.14145,0 v 0.09781 0.09781 l 0.25801,0.122685 c 0.34104,0.162564 0.54406,0.300876 0.59277,0.40389 0.0362,0.0765 0.0384,0.293338 0.0384,3.589057 v 3.50811 l -0.0658,0.0801 c -0.0794,0.09676 -0.24332,0.195254 -0.56873,0.342335 -0.2338,0.10568 -0.24368,0.113433 -0.25043,0.190561 -0.004,0.04421 -10e-4,0.09732 0.005,0.118049 0.009,0.02609 0.0311,0.03317 0.0729,0.02319 0.10032,-0.02395 1.02046,-0.06506 1.46041,-0.06535 0.32448,-2.16e-4 1.13007,0.03072 1.5304,0.05902 0.0492,0.0035 0.0556,-0.0067 0.0616,-0.09992 l 0.006,-0.104134 -0.31367,-0.145872 c -0.34605,-0.160996 -0.53576,-0.27913 -0.57253,-0.356671 -0.0391,-0.08255 -0.0645,-2.525717 -0.0498,-4.797778 0.007,-1.130894 0.0217,-2.124391 0.0316,-2.207481 0.015,-0.125752 0.0298,-0.162082 0.0881,-0.218388 0.0841,-0.08122 0.27666,-0.191852 0.5544,-0.318727 0.11271,-0.05149 0.21721,-0.104976 0.2323,-0.118469 0.0151,-0.01349 0.0274,-0.06391 0.0274,-0.112145 v -0.08769 l -0.35667,0.02108 c -0.4604,0.02712 -1.96505,0.02712 -2.42545,0 z m 29.05015,0 v 0.09781 0.09781 l 0.25802,0.122685 c 0.34103,0.162564 0.54364,0.300876 0.59234,0.40389 0.0362,0.0765 0.0388,0.293338 0.0388,3.589057 v 3.50811 l -0.0662,0.0801 c -0.0794,0.09676 -0.24291,0.195254 -0.56832,0.342335 -0.2338,0.10568 -0.24409,0.113433 -0.25085,0.190561 -0.004,0.04421 -0.001,0.09732 0.005,0.118049 0.009,0.02609 0.0311,0.03317 0.0729,0.02319 0.10031,-0.02395 1.02087,-0.06506 1.46083,-0.06535 0.32448,-2.16e-4 1.12964,0.03072 1.52997,0.05902 0.0492,0.0035 0.0557,-0.0067 0.0616,-0.09992 l 0.007,-0.104134 -0.31409,-0.145872 c -0.34605,-0.160996 -0.53576,-0.27913 -0.57253,-0.356671 -0.0391,-0.08255 -0.0641,-2.525717 -0.0493,-4.797778 0.007,-1.130894 0.0213,-2.124391 0.0312,-2.207481 0.015,-0.125752 0.0302,-0.162082 0.0885,-0.218388 0.0841,-0.08122 0.27624,-0.191852 0.55398,-0.318727 0.11271,-0.05149 0.21763,-0.104976 0.23272,-0.118469 0.0151,-0.01349 0.0274,-0.06391 0.0274,-0.112145 v -0.08769 l -0.35709,0.02108 c -0.4604,0.02712 -1.96505,0.02712 -2.42545,0 z m -65.071,4.32e-4 0.007,0.0957 0.007,0.0957 0.29386,0.145873 c 0.33247,0.164862 0.47271,0.258124 0.53542,0.355827 0.0385,0.06001 0.0454,0.12945 0.0616,0.634504 0.0238,0.745862 0.0232,5.030448 -8.7e-4,5.866947 -0.0146,0.509573 -0.0259,0.667005 -0.0514,0.712078 -0.0449,0.07927 -0.25263,0.202908 -0.55946,0.333062 -0.25058,0.106295 -0.25749,0.111311 -0.26434,0.190984 -0.004,0.04496 -0.001,0.09859 0.005,0.119312 h 4.3e-4 c 0.009,0.02609 0.0307,0.03317 0.0725,0.02319 0.10265,-0.02451 1.02573,-0.065 1.47643,-0.06493 0.45791,7.4e-5 1.37645,0.04012 1.47601,0.06451 0.0502,0.0123 0.0639,0.0042 0.0818,-0.05017 0.0399,-0.121355 0.002,-0.167557 -0.20953,-0.255489 -0.34839,-0.14489 -0.53652,-0.245812 -0.61047,-0.327158 l -0.0725,-0.07968 -0.0143,-0.429186 c -0.008,-0.23609 -0.0143,-0.958937 -0.0143,-1.606286 v -1.177098 l 0.33137,0.0072 0.33138,0.0067 0.25211,0.53332 c 0.38153,0.806827 0.7723,1.693117 1.11934,2.538438 l 0.31283,0.761403 0.7087,0.01854 c 0.38986,0.01014 0.82733,0.02853 0.9722,0.04089 0.18864,0.0161 0.26841,0.01435 0.28037,-0.0059 0.009,-0.01554 0.0141,-0.06225 0.011,-0.104134 -0.005,-0.07082 -0.0263,-0.08771 -0.29638,-0.241154 -0.15974,-0.09075 -0.32106,-0.199269 -0.35878,-0.241155 -0.0998,-0.110847 -0.20882,-0.305307 -0.41991,-0.749177 -0.42807,-0.900099 -1.29051,-2.795127 -1.29051,-2.835663 0,-0.01485 0.0271,-0.0348 0.0603,-0.04427 0.11189,-0.03188 0.46983,-0.240718 0.60584,-0.353299 0.29316,-0.242665 0.52599,-0.598776 0.64166,-0.981477 0.0872,-0.288416 0.12091,-0.53716 0.12185,-0.90011 0.001,-0.428065 -0.0406,-0.666202 -0.17117,-0.977264 -0.084,-0.200036 -0.13143,-0.27618 -0.2791,-0.445206 -0.14722,-0.168507 -0.21793,-0.22641 -0.40853,-0.336013 -0.27235,-0.156609 -0.50738,-0.237407 -0.86722,-0.29807 -0.233,-0.03927 -0.34833,-0.04204 -0.99877,-0.02277 -0.94068,0.02788 -2.03741,0.02878 -2.50934,0.0021 z m 10.02685,0.339807 c 0.0282,1.52e-4 0.0565,0.0014 0.0847,0.0038 0.35945,0.03042 0.62969,0.160293 0.8706,0.418224 0.0841,0.09004 0.19072,0.227604 0.23651,0.305658 0.34325,0.585012 0.52025,1.406329 0.57295,2.656485 0.0371,0.881081 -0.0235,1.840789 -0.15725,2.49206 -0.1015,0.494207 -0.25995,0.933119 -0.44816,1.239918 -0.20886,0.340455 -0.51261,0.580206 -0.8335,0.658113 -0.42246,0.102569 -0.81568,-0.02344 -1.13283,-0.362995 -0.24951,-0.267135 -0.41413,-0.570726 -0.57548,-1.059896 -0.13994,-0.424258 -0.25204,-1.048141 -0.30018,-1.672054 -0.0298,-0.386944 -0.0298,-1.420499 0,-1.766493 0.0127,-0.146596 0.0429,-0.404276 0.067,-0.572949 0.12191,-0.850871 0.35713,-1.484147 0.70154,-1.8896 0.12185,-0.143457 0.20741,-0.218188 0.32926,-0.287529 0.19216,-0.109344 0.38769,-0.163609 0.58476,-0.162736 z m 33.05027,0 c 0.0281,1.52e-4 0.0561,0.0014 0.0843,0.0038 0.35945,0.03042 0.63011,0.160295 0.87102,0.418224 0.0841,0.09003 0.19029,0.22761 0.23609,0.305658 0.34325,0.585012 0.52067,1.406327 0.57337,2.656485 0.0371,0.881081 -0.0235,1.840794 -0.15725,2.49206 -0.1015,0.494207 -0.26037,0.933117 -0.44858,1.239918 -0.20886,0.340455 -0.51219,0.580206 -0.83308,0.658113 -0.42245,0.102569 -0.81568,-0.02344 -1.13283,-0.362995 -0.24951,-0.267135 -0.41413,-0.570732 -0.57548,-1.059896 -0.13994,-0.424264 -0.25204,-1.048138 -0.30018,-1.672054 -0.0298,-0.386946 -0.0298,-1.420504 0,-1.766493 0.0127,-0.146596 0.0429,-0.404276 0.067,-0.572949 0.12192,-0.850874 0.35671,-1.484145 0.70111,-1.8896 0.12186,-0.143454 0.20742,-0.218188 0.32927,-0.287529 0.19216,-0.109344 0.38811,-0.163612 0.58518,-0.162736 z m -40.20351,0.268557 c 0.0726,5.4e-4 0.14024,0.003 0.1952,0.008 0.2431,0.02194 0.49206,0.103509 0.65474,0.21375 0.13162,0.0892 0.32194,0.329546 0.3904,0.493268 0.10919,0.261186 0.13539,0.432136 0.13364,0.87608 -10e-4,0.331566 -0.01,0.443424 -0.0485,0.609207 -0.0259,0.111693 -0.0832,0.287432 -0.1269,0.3904 -0.14379,0.339024 -0.43887,0.619162 -0.78754,0.747913 -0.0604,0.02229 -0.19759,0.05794 -0.30482,0.07926 -0.10722,0.02133 -0.32187,0.03879 -0.47725,0.03879 h -0.28247 V 30.167576 28.46896 l 0.0679,-0.0173 c 0.1045,-0.02655 0.36778,-0.04374 0.5856,-0.04216 z m 53.25279,1.110909 c 0.007,0.008 0.24063,0.841846 0.5194,1.85292 l 0.50676,1.838165 h -1.07128 -1.0717 l 0.17581,-0.590238 c 0.0967,-0.324604 0.34533,-1.158057 0.55229,-1.852497 0.20696,-0.694439 0.3818,-1.256329 0.38872,-1.24835 z" />
</svg>
