<?xml version="1.0" encoding="UTF-8" standalone="no"?>
<svg
   height="50"
   width="100"
   version="1.1"
   viewBox="0 0 100 50"
   data-name="Layer 1"
   id="Layer_1"
   xmlns="http://www.w3.org/2000/svg"
   xmlns:svg="http://www.w3.org/2000/svg"
   xmlns:rdf="http://www.w3.org/1999/02/22-rdf-syntax-ns#"
   xmlns:cc="http://creativecommons.org/ns#"
   xmlns:dc="http://purl.org/dc/elements/1.1/">
  <metadata
     id="metadata197">
    <rdf:RDF>
      <cc:Work
         rdf:about="">
        <dc:format>image/svg+xml</dc:format>
        <dc:type
           rdf:resource="http://purl.org/dc/dcmitype/StillImage" />
        <dc:title>Nordic Journal of Art and Research</dc:title>
      </cc:Work>
    </rdf:RDF>
  </metadata>
  <defs
     id="defs195" />
  <title
     id="title130">Nordic Journal of Art and Research</title>
  <rect
     style="fill:#0012f0;fill-opacity:1;stroke:none;stroke-width:4;stroke-linecap:round;stroke-linejoin:round;paint-order:stroke fill markers;stop-color:#000000"
     id="rect2744"
     width="100"
     height="50"
     x="0"
     y="0"
     rx="0" />
  <rect
     style="fill:#0012f0;fill-opacity:1;stroke:none;stroke-width:4;stroke-linecap:round;stroke-linejoin:round;paint-order:stroke fill markers;stop-color:#000000;font-variation-settings:normal;opacity:1;vector-effect:none;stroke-miterlimit:4;stroke-dasharray:none;stroke-dashoffset:0;stroke-opacity:1;-inkscape-stroke:none;stop-opacity:1"
     id="rect81709"
     width="90"
     height="40"
     x="5"
     y="5"
     rx="0" />
  <g
     aria-label="FLEKS"
     id="text1529"
     style="font-weight:bold;font-size:28.3744px;line-height:0.76;font-family:'Liberation Sans';-inkscape-font-specification:'Liberation Sans, Bold';letter-spacing:0px;word-spacing:0px;fill:#ffffff">
    <path
       d="m 9.0871066,18.40517 v 6.040643 h 9.9892294 v 3.158869 H 9.0871066 v 7.162873 H 4.9999739 V 15.246301 H 19.394994 v 3.158869 z"
       id="path846" />
    <path
       d="M 22.332188,34.767555 V 15.246301 h 4.087133 v 16.362386 h 10.474143 v 3.158868 z"
       id="path848" />
    <path
       d="M 39.664403,34.767555 V 15.246301 H 55.015396 V 18.40517 H 43.751535 v 4.904559 H 54.17026 v 3.158869 H 43.751535 v 5.140089 h 11.831903 v 3.158868 z"
       id="path850" />
    <path
       d="m 72.098225,34.767555 -7.010471,-8.963982 -2.410716,1.842673 v 7.121309 H 58.589905 V 15.246301 h 4.087133 v 8.853145 l 8.797726,-8.853145 h 4.766013 l -8.340522,8.257394 9.019401,11.26386 z"
       id="path852" />
    <path
       d="m 95.000026,29.142552 q 0,2.867921 -2.133622,4.391936 -2.119767,1.510161 -6.234609,1.510161 -3.75462,0 -5.888242,-1.33005 -2.133622,-1.33005 -2.743228,-4.031714 l 3.948586,-0.65117 q 0.401786,1.551725 1.565579,2.258314 1.163794,0.692734 3.228142,0.692734 4.281099,0 4.281099,-2.604681 0,-0.831281 -0.498769,-1.371614 -0.484914,-0.540333 -1.385469,-0.900555 -0.8867,-0.360222 -3.422107,-0.872845 -2.189041,-0.512623 -3.048032,-0.817427 -0.85899,-0.318657 -1.551725,-0.734298 -0.692734,-0.429495 -1.177648,-1.025247 -0.484914,-0.595751 -0.762008,-1.399323 -0.263239,-0.803572 -0.263239,-1.842674 0,-2.646245 1.98122,-4.045568 1.995075,-1.413178 5.79126,-1.413178 3.629928,0 5.444892,1.136084 1.828818,1.136084 2.355296,3.75462 l -3.96244,0.540333 q -0.304803,-1.260777 -1.246922,-1.898092 -0.928264,-0.637316 -2.673954,-0.637316 -3.713057,0 -3.713057,2.327588 0,0.762008 0.387932,1.246922 0.401786,0.484914 1.177648,0.831281 0.775862,0.332512 3.145014,0.845136 2.812501,0.595751 4.017859,1.108375 1.219213,0.498768 1.925802,1.177648 0.706589,0.665025 1.080665,1.607144 0.374077,0.928264 0.374077,2.147476 z"
       id="path854" />
  </g>
</svg>
