<?xml version="1.0" encoding="UTF-8" standalone="no"?>
<svg
   xmlns:dc="http://purl.org/dc/elements/1.1/"
   xmlns:cc="http://creativecommons.org/ns#"
   xmlns:rdf="http://www.w3.org/1999/02/22-rdf-syntax-ns#"
   xmlns:svg="http://www.w3.org/2000/svg"
   xmlns="http://www.w3.org/2000/svg"
   xmlns:sodipodi="http://sodipodi.sourceforge.net/DTD/sodipodi-0.dtd"
   xmlns:inkscape="http://www.inkscape.org/namespaces/inkscape"
   width="100"
   height="50"
   viewBox="0 0 26.2411 13.7097"
   id="svg8"
   version="1.1"
   sodipodi:docname="sjvd-thumb.svg"
   inkscape:version="0.92.4 (f8dce91, 2019-08-02)">
  <metadata
     id="metadata8163">
    <rdf:RDF>
      <cc:Work
         rdf:about="">
        <dc:format>image/svg+xml</dc:format>
        <dc:type
           rdf:resource="http://purl.org/dc/dcmitype/StillImage" />
        <dc:title></dc:title>
      </cc:Work>
    </rdf:RDF>
  </metadata>
  <defs
     id="defs8161" />
  <sodipodi:namedview
     pagecolor="#ffffff"
     bordercolor="#666666"
     borderopacity="1"
     objecttolerance="10"
     gridtolerance="10"
     guidetolerance="10"
     inkscape:pageopacity="0"
     inkscape:pageshadow="2"
     inkscape:window-width="1920"
     inkscape:window-height="1200"
     id="namedview8159"
     showgrid="false"
     inkscape:zoom="4.1624"
     inkscape:cx="92.1643"
     inkscape:cy="2.15614"
     inkscape:window-x="3600"
     inkscape:window-y="0"
     inkscape:window-maximized="1"
     inkscape:current-layer="svg8" />
  <style
     id="style10">
    #sjvd {fill:currentColor;} path {fill:inherit;}
  </style>
  <rect
     style="opacity:1;vector-effect:none;fill:#000000;fill-opacity:1;stroke:none;stroke-width:0.411291;stroke-linecap:butt;stroke-linejoin:miter;stroke-miterlimit:4;stroke-dasharray:none;stroke-dashoffset:0;stroke-opacity:1;paint-order:fill markers stroke"
     id="rect8708"
     width="27.4194"
     height="13.7097"
     x="-0.58915"
     y="3.69263e-07" />
  <g
     id="sjvd"
     style="fill:#3fcaee;fill-opacity:1"
     transform="matrix(0.705511,0,0,0.705543,-0.040758,1.69887)">
    <title
       id="title8151">SJVD</title>
    <path
       id="S"
       d="M 6.05,0.34 6.63,1.85 6.53,1.87 6.07,1.38 Q 5.6,0.91 5.02,0.65 4.44,0.4 3.7,0.4 2.45,0.4 1.72,1.11 1,1.81 1,2.82 q 0,0.66 0.33,1.17 0.35,0.49 1.44,0.92 1.86,0.62 2.55,0.94 0.69,0.32 1.32,1.08 0.65,0.75 0.65,1.94 0,0.5 -0.12,0.94 -0.12,0.45 -0.37,0.87 -0.26,0.41 -0.62,0.76 -0.35,0.33 -0.72,0.51 -0.37,0.18 -1.17,0.27 -0.8,0.09 -1.05,0.09 H 0 V 8.78 h 0.12 q 0.02,1.76 0.83,2.45 0.8,0.69 2.5,0.69 Q 5,11.92 5.8,11.19 6.61,10.46 6.61,9.43 6.61,8.8 6.33,8.36 6.05,7.92 5.55,7.59 5.05,7.25 3.65,6.78 2.25,6.29 1.69,5.93 1.13,5.56 0.75,4.83 0.37,4.08 0.37,3.32 0.37,1.91 1.33,0.96 2.3,0 3.88,0 4.48,0 5.19,0.14 5.9,0.28 5.99,0.32 Z"
       style="fill:#3fcaee;fill-opacity:1"
       inkscape:connector-curvature="0" />
    <path
       id="J"
       d="m 8.22,0.18 h 3.25 V 0.3 q -0.62,0 -0.78,0.26 -0.15,0.25 -0.15,0.82 V 11.7 q 0,1.47 -0.1,2.2 -0.1,0.72 -0.44,1.26 -0.34,0.55 -0.91,0.88 -0.57,0.33 -1.33,0.33 -0.72,0 -1.48,-0.25 L 6.3,15.98 q 0.22,0.07 0.66,0.07 1.07,0 1.63,-0.78 0.56,-0.79 0.56,-2.68 V 1.43 Q 9.15,0.68 8.95,0.49 8.78,0.29 8.22,0.29 Z"
       style="fill:#3fcaee;fill-opacity:1"
       inkscape:connector-curvature="0" />
    <path
       id="V"
       d="M 17.94,12.5 H 17.79 L 13.48,1.81 Q 13,0.69 12.72,0.5 12.42,0.3 12.11,0.3 V 0.18 h 2.8 V 0.3 q -0.37,-0.03 -0.37,0.3 0,0.11 0.05,0.25 l 3.76,9.35 3.74,-9.34 q 0.08,-0.19 0.08,-0.3 0,-0.28 -0.44,-0.26 V 0.18 h 1.82 V 0.3 q -0.2,0 -0.4,0.06 -0.21,0.05 -0.43,0.42 -0.23,0.37 -0.23,0.4 z"
       style="fill:#3fcaee;fill-opacity:1"
       inkscape:connector-curvature="0" />
    <path
       id="D"
       d="M 24.26,0.3 V 0.18 h 5.56 q 2.13,0 3.35,0.34 1.24,0.33 2.15,1.04 0.92,0.72 1.45,1.84 0.54,1.11 0.54,2.48 0,1.33 -0.56,2.61 -0.55,1.28 -1.51,2.21 -0.95,0.92 -2.02,1.27 -1.05,0.34 -3.26,0.34 h -5.7 v -0.12 h 0.15 q 0.44,0 0.58,-0.35 0.14,-0.37 0.14,-1.3 V 1.7 q 0,-0.99 -0.17,-1.2 -0.17,-0.2 -0.7,-0.2 z m 4.13,0.13 h -1.86 v 9.41 q 0,0.9 0.3,1.33 0.3,0.43 1.03,0.62 0.72,0.2 1.95,0.2 3.4,0 4.78,-1.75 1.38,-1.75 1.38,-3.82 0,-2.43 -1.9,-4.2 -1.87,-1.8 -5.67,-1.8 z"
       style="fill:#3fcaee;fill-opacity:1"
       inkscape:connector-curvature="0" />
  </g>
</svg>
