<?xml version="1.0" encoding="UTF-8" standalone="no"?>
<svg
   version="1.1"
   id="svg64"
   viewBox="-200 -23 756.59302 114.3904"
   preserveAspectRation="xMidYMid meet"
   width="756.59302"
   height="114.3904"
   xmlns:xlink="http://www.w3.org/1999/xlink"
   xmlns="http://www.w3.org/2000/svg"
   xmlns:svg="http://www.w3.org/2000/svg">
  <defs
     id="defs68">
    <linearGradient
       id="linearGradient961">
      <stop
         id="stop957"
         offset="0"
         style="stop-color:#ffffff;stop-opacity:1" />
      <stop
         id="stop959"
         offset="1"
         style="stop-color:#ff8100;stop-opacity:1" />
    </linearGradient>
    <radialGradient
       gradientTransform="matrix(2.54097,0,0,2.54097,-214.282,-58.5639)"
       gradientUnits="userSpaceOnUse"
       r="7.5219898"
       fy="32.139156"
       fx="36.657265"
       cy="32.139156"
       cx="36.657265"
       id="radialGradient963"
       xlink:href="#linearGradient961" />
  </defs>
  <path
     d="m -107.95,36.2492 -13.515,5.5981 -13.515,-5.5981 -5.598,-13.515 5.598,-13.515 13.515,-5.5981 13.515,5.5981 5.5981,13.515 z"
     id="path955"
     style="opacity:1;vector-effect:none;fill:url(#radialGradient963);fill-opacity:1;stroke:none;stroke-width:2.54097px;stroke-linecap:butt;stroke-linejoin:miter;stroke-miterlimit:4;stroke-dasharray:none;stroke-dashoffset:0;stroke-opacity:1;paint-order:stroke markers fill" />
  <path
     style="opacity:1;vector-effect:none;fill:#000000;fill-opacity:1;stroke:none;stroke-width:2.5446px;stroke-linecap:butt;stroke-linejoin:miter;stroke-miterlimit:4;stroke-dasharray:none;stroke-dashoffset:0;stroke-opacity:1"
     d="m 68.1013,90.5464 -0.3123,-0.847 0.681,-0.544 c 0.727,-0.58 1.2262,-1.535 1.2262,-2.342 0,-0.445 -0.077,-0.493 -0.7808,-0.493 h -0.7783 v -2.145 -2.1473 h 1.7717 1.7715 l -0.077,2.9763 c -0.077,2.81 -0.1025,3.037 -0.6273,4.111 -0.5248,1.068 -1.7742,2.275 -2.3527,2.275 -0.1281,0 -0.3636,-0.378 -0.5376,-0.844 z m 51.1247,-4.284 c -2.053,-0.865 -3.361,-2.236 -4.449,-4.6577 -0.917,-2.036 -1.093,-3.1072 -1.083,-6.4061 0,-4.5385 0.793,-7.0361 2.911,-9.322 1.53,-1.6556 2.823,-2.2401 5.172,-2.3387 1.543,-0.077 2.035,0 2.956,0.3354 1.454,0.5468 2.699,1.5196 3.454,2.6965 0.663,1.0382 1.454,3.1201 1.318,3.4751 -0.102,0.2824 -3.448,1.129 -3.635,0.9224 -0.08,-0.077 -0.256,-0.4887 -0.382,-0.8919 -1.026,-3.2286 -5.15,-3.4854 -6.938,-0.4334 -1.254,2.1317 -1.392,7.8525 -0.258,10.4331 1.603,3.6443 5.768,3.4983 7.163,-0.2509 0.23,-0.6224 0.423,-1.2575 0.423,-1.4139 0,-0.3879 0.05,-0.3782 1.996,0.3402 1.183,0.4385 1.706,0.7283 1.706,0.9477 0,0.4357 -0.648,2.2808 -1.13,3.2129 -0.655,1.2763 -1.697,2.3213 -2.997,3.0213 -1.132,0.608 -1.401,0.668 -3.188,0.724 -1.695,0.05 -2.094,0 -3.039,-0.395 z m 55.526,0.128 c -2.944,-0.933 -5.097,-3.6119 -5.893,-7.3291 -0.433,-1.9884 -0.415,-6.0584 0,-7.9636 1.164,-4.9923 4.073,-7.6084 8.461,-7.6084 4.541,0 7.675,2.8732 8.709,7.9913 0.464,2.2911 0.313,6.5425 -0.304,8.4928 -0.937,2.9715 -2.446,4.91 -4.639,5.991 -1.182,0.582 -1.472,0.642 -3.344,0.685 -1.446,0.02 -2.347,-0.05 -3.026,-0.259 z m 3.902,-3.8741 c 1.164,-0.3476 2.414,-1.5424 3,-2.8603 0.551,-1.2475 0.852,-3.6514 0.719,-5.645 -0.291,-4.2641 -1.974,-6.4918 -4.905,-6.4918 -2.482,0 -4.188,1.676 -4.787,4.7 -0.322,1.6479 -0.154,5.4988 0.3,6.7791 0.681,1.9306 1.955,3.2511 3.487,3.6164 0.926,0.2278 1.138,0.2023 2.186,-0.1024 z m 31.212,3.8741 c -2.946,-0.933 -5.097,-3.6119 -5.893,-7.3291 -0.435,-1.9884 -0.418,-6.0584 0,-7.9636 1.163,-4.9923 4.068,-7.6084 8.459,-7.6084 4.541,0 7.672,2.8732 8.709,7.9913 0.463,2.2911 0.313,6.5425 -0.305,8.4928 -0.936,2.9715 -2.44,4.91 -4.636,5.991 -1.182,0.582 -1.477,0.642 -3.346,0.685 -1.447,0.02 -2.348,-0.05 -3.026,-0.259 z m 3.902,-3.8741 c 1.164,-0.3476 2.414,-1.5424 2.998,-2.8603 0.548,-1.2475 0.849,-3.6514 0.719,-5.645 -0.294,-4.2641 -1.976,-6.4918 -4.908,-6.4918 -2.48,0 -4.188,1.676 -4.785,4.7 -0.322,1.6479 -0.153,5.4988 0.3,6.7791 0.682,1.9306 1.954,3.2511 3.487,3.6164 0.927,0.2278 1.139,0.2023 2.189,-0.1024 z m 16.17,3.8361 c -3.006,-1.039 -5.059,-3.4354 -6.068,-7.0794 -0.491,-1.7514 -0.494,-6.5851 0,-8.3492 0.842,-3.1248 2.652,-5.5567 4.979,-6.6985 1.255,-0.6175 1.367,-0.6374 3.741,-0.6374 2.363,0 2.488,0 3.737,0.6349 0.712,0.3528 1.616,0.9953 2.015,1.439 0.899,0.9953 1.843,2.9661 1.905,3.9794 l 0.05,0.7611 -1.647,0.3551 c -0.906,0.2023 -1.746,0.3125 -1.876,0.2647 -0.129,-0.051 -0.293,-0.3377 -0.364,-0.6403 -0.418,-1.6958 -2.03,-2.8727 -3.914,-2.8552 -2.817,0 -4.56,2.0086 -5.011,5.6982 -0.378,3.0367 0.287,6.2676 1.616,7.8751 1.661,2.0215 4.656,2.1145 7.135,0.2278 0.63,-0.4789 0.65,-0.5291 0.65,-1.943 v -1.4542 h -2.148 -2.145 V 76.0778 74.223 h 4.095 4.097 v 4.4681 4.4703 l -0.993,0.89 c -1.117,1.008 -2.895,1.948 -4.48,2.369 -1.468,0.39 -4.132,0.36 -5.353,-0.08 z m 41.256,0.176 c -1.691,-0.516 -2.75,-1.446 -3.63,-3.185 -1.686,-3.3239 -0.441,-7.5905 2.831,-9.7125 l 0.47,-0.3025 -0.857,-1.7262 c -0.786,-1.5903 -0.855,-1.8396 -0.842,-3.208 0,-1.7616 0.432,-2.7419 1.633,-3.7703 0.944,-0.8087 1.905,-1.1264 3.42,-1.1264 1.511,0 2.479,0.3177 3.423,1.1264 1.265,1.0789 1.646,1.9987 1.646,3.9464 0,2.0288 -0.394,2.896 -2.046,4.4861 l -1.113,1.0734 1.185,1.8927 c 0.758,1.2022 1.237,1.8069 1.329,1.6583 0.08,-0.1279 0.259,-0.7007 0.382,-1.2677 0.128,-0.5821 0.327,-0.9979 0.445,-0.9523 0.128,0.051 0.848,0.2508 1.621,0.4408 0.783,0.2023 1.418,0.4535 1.418,0.5671 0,0.4562 -0.819,3.1149 -1.173,3.8104 l -0.381,0.7458 1.447,1.2198 c 0.798,0.6703 1.398,1.3137 1.331,1.4287 -0.464,0.791 -2.035,3.037 -2.127,3.037 -0.206,0 -1.895,-1.303 -2.392,-1.824 l -0.461,-0.497 -0.927,0.779 c -1.336,1.127 -2.586,1.547 -4.536,1.524 -0.884,0 -1.823,-0.08 -2.096,-0.151 z m 3.821,-4.2104 c 1.506,-0.8723 1.513,-0.799 -0.393,-3.6141 -0.946,-1.3886 -1.775,-2.5276 -1.849,-2.5276 -0.281,0 -1.426,1.2726 -1.787,1.9833 -0.466,0.915 -0.491,2.4948 -0.05,3.4249 0.413,0.8746 1.609,1.4769 2.594,1.3105 0.379,-0.051 1.044,-0.3228 1.482,-0.577 z m 0.179,-11.8371 c 0.813,-0.9475 1.086,-1.7692 0.859,-2.5706 -0.316,-1.1469 -1.245,-1.6356 -2.349,-1.2501 -1.184,0.4134 -1.285,1.8599 -0.255,3.5258 0.383,0.6121 0.768,1.1138 0.86,1.1138 0.102,0 0.479,-0.3681 0.87,-0.8189 z m 93.07,15.9175 c -2.944,-0.933 -5.097,-3.612 -5.895,-7.3289 -0.433,-1.9884 -0.415,-6.0585 0,-7.9637 1.164,-4.9924 4.072,-7.6083 8.461,-7.6083 4.541,0 7.675,2.8729 8.711,7.9913 0.461,2.291 0.311,6.542 -0.304,8.4928 -0.943,2.9713 -2.445,4.9098 -4.642,5.9898 -1.18,0.583 -1.472,0.643 -3.346,0.686 -1.444,0.03 -2.345,-0.05 -3.023,-0.259 z m 3.902,-3.8739 c 1.162,-0.3478 2.414,-1.5424 2.998,-2.8603 0.548,-1.2475 0.855,-3.6517 0.719,-5.645 -0.292,-4.2644 -1.974,-6.4921 -4.908,-6.4921 -2.478,0 -4.188,1.6758 -4.785,4.7001 -0.322,1.6481 -0.153,5.499 0.298,6.779 0.685,1.9306 1.958,3.2511 3.488,3.6164 0.928,0.2253 1.14,0.1997 2.19,-0.1024 z m 34.507,3.8359 c -3.005,-1.039 -5.061,-3.4352 -6.072,-7.0792 -0.49,-1.7516 -0.495,-6.5854 0,-8.3495 0.847,-3.1245 2.657,-5.5569 4.979,-6.6982 1.254,-0.6175 1.372,-0.6377 3.743,-0.6377 2.365,0 2.488,0 3.74,0.6352 0.712,0.3527 1.615,0.9953 2.015,1.4387 0.899,0.9956 1.84,2.9664 1.902,3.9794 l 0.05,0.7612 -1.647,0.3553 c -0.909,0.1997 -1.748,0.3125 -1.878,0.2647 -0.129,-0.051 -0.293,-0.3377 -0.367,-0.6402 -0.415,-1.6959 -2.03,-2.8727 -3.912,-2.8553 -2.816,0 -4.559,2.0083 -5.01,5.6982 -0.379,3.0365 0.285,6.2673 1.616,7.875 1.664,2.0214 4.659,2.1144 7.137,0.2254 0.628,-0.4787 0.648,-0.5292 0.648,-1.9429 v -1.4541 h -2.148 -2.145 v -1.8522 -1.8549 h 4.095 4.099 v 4.4682 4.4699 l -0.998,0.89 c -1.111,1.008 -2.893,1.948 -4.476,2.369 -1.472,0.39 -4.133,0.36 -5.352,-0.08 z m 139.077,0 c -3.003,-1.039 -5.056,-3.4352 -6.07,-7.0792 -0.486,-1.7516 -0.494,-6.5854 0,-8.3495 0.853,-3.1245 2.657,-5.5569 4.982,-6.6982 1.254,-0.6175 1.367,-0.6377 3.741,-0.6377 2.365,0 2.487,0 3.737,0.6352 0.712,0.3527 1.615,0.9953 2.017,1.4387 0.896,0.9956 1.841,2.9664 1.9,3.9794 l 0.05,0.7612 -1.654,0.3553 c -0.901,0.1997 -1.748,0.3125 -1.871,0.2647 -0.128,-0.051 -0.295,-0.3377 -0.364,-0.6402 -0.414,-1.6959 -2.033,-2.8727 -3.914,-2.8553 -2.816,0 -4.56,2.0083 -5.015,5.6982 -0.374,3.0365 0.292,6.2673 1.615,7.875 1.669,2.0214 4.662,2.1144 7.143,0.2254 0.627,-0.4787 0.645,-0.5292 0.645,-1.9429 v -1.4541 h -2.143 -2.147 v -1.8522 -1.8549 h 4.098 4.093 v 4.4682 4.4699 l -0.99,0.89 c -1.119,1.008 -2.906,1.948 -4.483,2.369 -1.469,0.39 -4.132,0.36 -5.353,-0.08 z M -13.39917,75.1231 V 63.9058 h 2.82506 c 2.76719,0 2.82505,0 2.93078,0.4388 0.0512,0.2509 0.799,3.644 1.64589,7.5602 0.84662,3.9164 1.54732,7.059 1.55474,6.9835 0,-0.077 0.71836,-3.4349 1.5778,-7.4722 0.8566,-4.0347 1.5599,-7.3767 1.5599,-7.422 0,-0.051 1.2727,-0.1024 2.8276,-0.1024 H 4.3502 V 75.1088 86.3234 H 2.5989 0.8444 l -0.051,-8.3064 -0.051,-8.309 -1.6406,8.0646 c -0.9024,4.4353 -1.6784,8.1748 -1.7287,8.3088 -0.1025,0.267 -3.74248,0.363 -3.75784,0.102 0,-0.08 -0.78877,-3.9184 -1.74111,-8.533 l -1.72914,-8.3869 v 8.5331 8.5338 h -1.75647 -1.754173 z m 21.06567,0 V 63.9058 h 6.9254 6.9255 v 1.8551 1.8522 h -4.975 -4.9748 v 2.5352 2.5353 h 4.5841 4.5842 v 1.8548 1.8522 h -4.5842 -4.5841 v 3.12 3.1225 h 5.0733 5.0703 v 1.8523 1.852 H 14.6901 7.6665 Z m 16.9706,0 V 63.8782 l 4.9259,0.077 c 4.504,0.051 4.9976,0.1023 5.8042,0.4687 2.0256,0.9401 3.7509,3.4904 4.3973,6.5195 0.4275,1.976 0.4298,6.4289 0,8.3795 -0.6718,3.1248 -2.2291,5.4055 -4.3819,6.4165 -1.0865,0.509 -1.1781,0.517 -5.9314,0.577 l -4.8266,0.05 V 75.1249 Z m 9.2619,7.0136 c 1.5397,-0.7308 2.2368,-2.8481 2.2419,-6.7996 0,-2.8578 -0.2534,-4.4103 -0.9313,-5.6726 -0.7913,-1.4619 -1.5853,-1.8169 -4.397,-1.9785 l -2.2749,-0.128 v 7.5679 7.5705 l 2.3207,-0.1025 c 1.6234,-0.077 2.5343,-0.2022 3.0406,-0.4485 z m 9.0741,-7.011 V 63.9084 h 1.8524 1.855 v 11.2173 11.2147 h -1.855 -1.8524 z m 5.0715,11.0887 c 0,-0.08 1.4147,-4.5669 3.1425,-9.995 1.7277,-5.4308 3.313,-10.4235 3.5191,-11.0989 l 0.3816,-1.2244 2.0512,0.051 2.0507,0.051 3.5969,10.9752 c 1.9763,6.0334 3.5943,11.0581 3.5943,11.1671 0,0.128 -0.814,0.2 -2.0353,0.2 -1.7715,0 -2.048,-0.05 -2.135,-0.341 -0.051,-0.199 -0.4148,-1.373 -0.8014,-2.633 l -0.7066,-2.2932 h -3.5739 -3.5726 l -0.7431,2.6342 -0.743,2.634 h -2.0127 c -1.107,0 -2.0127,-0.05 -2.0127,-0.128 z M 59.2537,76.4237 C 59.1,75.9144 58.5497,74.1101 58.0299,72.414 l -0.9395,-3.0849 -0.914,3.0849 c -0.5084,1.6961 -1.0452,3.5004 -1.2004,4.0097 l -0.2798,0.9272 h 2.4172 2.4193 z m 26.6325,0.5365 v -9.3619 h -2.729 -2.7317 V 65.7432 63.891 h 7.4115 7.412 v 1.8522 1.8551 H 92.52 89.785 v 9.3619 9.3622 H 87.837 85.8862 Z M 97.202,75.108 V 63.891 h 6.923 6.924 v 1.8522 1.8551 h -4.974 -4.974 v 2.5349 2.5353 h 4.588 4.582 v 1.8522 1.8551 h -4.582 -4.588 v 3.1199 3.1221 h 5.071 5.072 v 1.8526 1.852 h -7.022 -7.02 z m 35.304,0 V 63.891 h 1.951 1.951 v 4.4858 4.4883 h 3.512 3.512 V 68.3768 63.891 h 1.948 1.954 v 11.217 11.2144 h -1.954 -1.948 V 81.446 76.5696 h -3.512 -3.512 v 4.8764 4.8764 h -1.951 -1.951 z m 18.335,0 V 63.891 h 1.905 1.902 l 3.646,7.2655 3.648,7.2653 V 71.1565 63.891 h 1.853 1.853 v 11.2221 11.2243 l -1.987,-0.05 -1.985,-0.05 -3.57,-7.0213 -3.571,-7.0236 v 7.0715 7.0724 h -1.851 -1.856 V 75.1167 Z m 38.23,0.1024 v -11.119 h 1.853 1.854 v 9.2668 9.2662 h 4.68 4.684 v 1.852 1.853 h -6.535 -6.536 z m 59.496,6.3836 v -4.7356 l -3.238,-6.2298 c -1.782,-3.4272 -3.285,-6.3432 -3.341,-6.4816 -0.08,-0.2022 0.402,-0.2509 2.14,-0.2509 h 2.232 l 2.028,4.1883 c 1.119,2.3033 2.086,4.1908 2.148,4.1934 0.05,0 1.019,-1.8824 2.127,-4.1883 l 2.018,-4.1934 h 2.227 2.222 l -1.562,2.9735 c -0.852,1.6383 -2.35,4.5011 -3.325,6.3682 l -1.777,3.3898 v 4.8512 4.8496 h -1.948 -1.951 z m 44.277,-6.3836 v -11.119 h 1.853 1.854 v 9.2668 9.2662 h 4.682 4.683 v 1.852 1.853 h -6.536 -6.536 z M 308.058,75.108 V 63.891 h 1.854 1.854 v 11.217 11.2144 h -1.854 -1.854 z m 6.828,0 V 63.891 h 6.342 6.338 v 1.8522 1.8551 h -4.387 -4.391 v 2.729 2.7319 h 3.807 3.801 v 1.8522 1.8547 h -3.801 -3.807 v 4.7783 4.778 h -1.951 -1.951 z m 15.412,0 V 63.891 h 6.925 6.923 v 1.8522 1.8551 h -4.972 -4.975 v 2.5349 2.5353 h 4.583 4.586 v 1.8522 1.8551 h -4.586 -4.583 v 3.1199 3.1221 h 5.07 5.074 v 1.8526 1.852 h -7.023 -7.022 z m 17.165,0.1024 v -11.119 h 1.854 1.854 v 9.2668 9.2662 h 4.682 4.677 v 1.852 1.853 h -6.533 -6.534 z M 382.38,75.108 V 63.891 h 1.905 1.903 l 3.645,7.2655 3.646,7.2653 V 71.1565 63.891 h 1.853 1.851 v 11.2221 11.2243 l -1.985,-0.05 -1.988,-0.05 -3.566,-7.0213 -3.57,-7.0236 v 7.0715 7.0724 h -1.853 -1.853 V 75.1167 Z m 45.058,0.1024 v -11.119 h 1.854 1.856 v 9.2668 9.2662 h 4.677 4.682 v 1.852 1.853 h -6.533 -6.536 z M 442.653,75.108 V 63.891 h 6.925 6.925 v 1.8522 1.8551 h -4.974 -4.974 v 2.5349 2.5353 h 4.582 4.585 v 1.8522 1.8551 h -4.585 -4.582 v 3.1199 3.1221 h 5.074 5.068 v 1.8526 1.852 h -7.022 -7.022 z m 15.217,11.0884 c 0,-0.08 1.413,-4.5663 3.143,-9.9948 1.724,-5.4309 3.311,-10.4231 3.515,-11.0984 l 0.38,-1.225 2.056,0.051 2.053,0.051 3.589,10.9751 c 1.982,6.0331 3.597,11.0581 3.597,11.1661 0,0.129 -0.817,0.203 -2.033,0.203 -1.772,0 -2.051,-0.05 -2.135,-0.34 -0.05,-0.202 -0.418,-1.374 -0.799,-2.634 L 470.53,81.057 h -3.579 -3.571 l -0.735,2.6344 -0.75,2.633 h -2.01 c -1.109,0 -2.015,-0.05 -2.015,-0.126 z m 11.208,-9.7727 c -0.153,-0.5093 -0.699,-2.3136 -1.219,-4.0097 L 466.912,69.3291 466,72.414 c -0.503,1.6961 -1.049,3.5004 -1.202,4.0097 l -0.28,0.9272 h 2.42 2.421 z m 8.881,-1.3308 V 63.863 l 5.616,0.051 c 4.88,0.051 5.705,0.1025 6.389,0.4132 1.12,0.5067 1.937,1.3764 2.554,2.7447 0.461,1.0182 0.546,1.4565 0.546,2.951 0,2.3336 -0.416,3.5737 -1.644,4.7985 -0.573,0.5795 -1.288,1.0509 -1.902,1.2723 l -0.989,0.3505 1.104,1.1871 c 0.832,0.8947 1.579,2.0891 3.01,4.8157 1.045,1.9934 1.905,3.6814 1.905,3.7494 0,0.08 -1.026,0.104 -2.27,0.08 l -2.266,-0.05 -1.849,-3.3176 c -3.115,-5.5969 -3.141,-5.6324 -5.206,-5.8767 l -1.091,-0.128 v 4.7077 4.7086 h -1.954 -1.953 z m 8.858,-2.0163 c 0.957,-0.1255 1.247,-0.2509 1.707,-0.766 0.482,-0.5369 0.561,-0.7836 0.561,-1.7816 0,-2.4044 -0.511,-2.737 -4.421,-2.8832 l -2.798,-0.1024 v 2.8576 2.8555 h 1.902 c 1.044,0 2.421,-0.077 3.049,-0.151 z m 9.485,2.0314 V 63.891 h 1.902 1.905 l 3.643,7.2655 3.642,7.2653 V 71.1565 63.891 h 1.857 1.851 v 11.2221 11.2243 l -1.982,-0.05 -1.986,-0.05 -3.574,-7.0213 -3.564,-7.0236 v 7.0715 7.0724 h -1.854 -1.852 V 75.1167 Z m 18.336,0 V 63.891 h 1.852 1.854 v 11.217 11.2144 h -1.854 -1.852 z m 6.827,0 V 63.891 h 1.902 1.903 l 3.645,7.2655 3.643,7.2653 V 71.1565 63.891 h 1.856 1.854 v 11.2221 11.2243 l -1.984,-0.05 -1.987,-0.05 -3.574,-7.0213 -3.563,-7.0236 v 7.0715 7.0724 h -1.854 -1.854 V 75.1167 Z"
     id="path605" />
  <path
     id="path867"
     d="m 169.589,-22.6426 v 10 h 10 v -10 z m 346,-0.3574 v 70.3574 h 41 v -10 h -31 v -30 h 31 v -10 h -31 V -23 Z m -122,20.3574 v 50 h 10 v -40 h 31 v 40 h 10 v -50 z m -407,0 v 30 h 41 v 10 h -41 v 10 h 51 v -30 H -3.41105 v -10 H 37.589 v -10 z m 61,0 v 50 h 51 v -10 h -41 v -10 h 41 v -30 z m 61,0 v 50 h 10 v -40 h 11 v 40 h 10 v -40 h 10 v 40 h 10 v -50 z m 61,0 v 50 h 10 v -50 z m 21,0 v 50 h 10 v -40 h 30 v 40 h 10 v -50 z m 61,0 v 10 h 40 v 10 h -40 v 30 h 51 v -50 z m 61,0 v 50 h 10 v -40 h 41 v -10 z m 142,0 v 50 h 51 v -10 h -41 v -10 h 41 v -30 z m -397,10 h 31 v 10 h -31 z m 407,0 h 31 v 10 h -31 z m -203,20 h 30 v 10 h -30 z m 112,10 v 10 h 10 v -10 z"
     style="fill:#000000;stroke:none;stroke-width:2.54503px;stroke-linecap:butt;stroke-linejoin:miter;stroke-opacity:1" />
  <path
     id="path950"
     d="M -181.151,-1.6426 -200,22.8638 l 18.849,23.4936 h 7.062 c 0,0 -6.68,-15.9994 -10.025,-23.4637 1.783,-7.9337 9.901,-24.5363 9.901,-24.5363 z m 27.057,0 -18.844,24.5064 18.844,23.4936 h 7.062 c 0,0 -6.68,-15.9994 -10.025,-23.4637 1.783,-7.9337 9.901,-24.5363 9.901,-24.5363 z m 59.4648,0 c 0,0 8.1179,16.6026 9.9008,24.5363 -3.3448,7.4643 -10.0248,23.4637 -10.0248,23.4637 h 7.0619 l 18.844,-23.4936 -18.844,-24.5064 z m 27.0571,0 c 0,0 8.1182,16.6026 9.9008,24.5363 -3.3448,7.4643 -10.0248,23.4637 -10.0248,23.4637 h 7.0621 L -41.7851,22.8638 -60.634,-1.6426 Z"
     style="font-style:normal;font-variant:normal;font-weight:normal;font-stretch:condensed;font-size:48.2704px;line-height:1.2;font-family:'Liberation Sans Narrow';-inkscape-font-specification:'Liberation Sans Narrow, Condensed';font-variant-ligatures:normal;font-variant-position:normal;font-variant-caps:normal;font-variant-numeric:normal;font-variant-alternates:normal;font-feature-settings:normal;text-indent:0;text-align:start;text-decoration:none;text-decoration-line:none;text-decoration-style:solid;text-decoration-color:#000000;letter-spacing:normal;word-spacing:normal;text-transform:none;writing-mode:lr-tb;direction:ltr;text-orientation:mixed;dominant-baseline:auto;baseline-shift:baseline;text-anchor:start;white-space:normal;shape-padding:0;opacity:1;vector-effect:none;fill:#000000;fill-opacity:1;stroke:none;stroke-width:2.54097px;stroke-linecap:butt;stroke-linejoin:miter;stroke-miterlimit:4;stroke-dasharray:none;stroke-dashoffset:0;stroke-opacity:1;paint-order:stroke markers fill" />
</svg>
