<?xml version="1.0" encoding="UTF-8" standalone="no"?>
<svg
   xmlns:dc="http://purl.org/dc/elements/1.1/"
   xmlns:cc="http://creativecommons.org/ns#"
   xmlns:rdf="http://www.w3.org/1999/02/22-rdf-syntax-ns#"
   xmlns:svg="http://www.w3.org/2000/svg"
   xmlns="http://www.w3.org/2000/svg"
   height="43"
   width="98"
   xml:space="preserve"
   viewBox="0 0 98.000023 42.999998"
   y="0px"
   x="0px"
   id="Layer_1"
   version="1.2"><metadata
   id="metadata1185"><rdf:RDF><cc:Work
       rdf:about=""><dc:format>image/svg+xml</dc:format><dc:type
         rdf:resource="http://purl.org/dc/dcmitype/StillImage" /><dc:title></dc:title></cc:Work></rdf:RDF></metadata><defs
   id="defs1183">
</defs>
<g
   transform="translate(2.1923813,1.2027335)"
   id="g1120">
		<rect
   x="42.400002"
   y="1.7"
   width="0.80000001"
   height="38"
   id="rect1118"
   style="fill:#4a6cb2" />
	</g><g
   id="g1116"
   style="fill:#ffff8c;fill-opacity:1"
   transform="translate(2.1923813,1.2027335)">
		<path
   style="fill:#ffff8c;fill-opacity:1"
   id="path1108"
   d="M 15.3,1.7 V 19.5 H 11.6 V 12 H 3.7 v 7.5 H 0 V 1.7 H 3.7 V 9 h 7.8 V 1.7 Z" />
		<path
   style="fill:#ffff8c;fill-opacity:1"
   id="path1110"
   d="M 25.3,12.7 H 22 v 6.8 H 18.3 V 1.7 h 7.8 c 2,0 3.6,0.5 4.8,1.4 1.1,1 1.7,2.3 1.7,4.1 0,1.3 -0.3,2.3 -0.9,3.2 -0.6,0.9 -1.5,1.5 -2.7,1.9 l 4.7,7.2 H 29.5 Z M 22,9.8 h 3.7 c 1.1,0 1.9,-0.2 2.4,-0.6 0.5,-0.4 0.8,-1.1 0.8,-2 0,-0.9 -0.3,-1.5 -0.8,-2 C 27.6,4.8 26.8,4.6 25.7,4.6 H 22 Z" />
		<path
   style="fill:#ffff8c;fill-opacity:1"
   id="path1112"
   d="m 15.4,36.7 v 3 H 0 V 21.9 h 15 v 3 H 3.7 v 4.4 H 13 v 2.9 H 3.7 v 4.5 z" />
		<path
   style="fill:#ffff8c;fill-opacity:1"
   id="path1114"
   d="M 25.3,32.9 H 22 v 6.8 H 18.3 V 21.9 h 7.8 c 2,0 3.6,0.5 4.8,1.4 1.1,1 1.7,2.3 1.7,4.1 0,1.3 -0.3,2.3 -0.9,3.2 -0.6,0.9 -1.5,1.5 -2.7,1.9 l 4.7,7.2 H 29.5 Z M 22,30.1 h 3.7 c 1.1,0 1.9,-0.2 2.4,-0.6 0.5,-0.4 0.8,-1.1 0.8,-2 0,-0.9 -0.3,-1.5 -0.8,-2 -0.5,-0.4 -1.3,-0.6 -2.4,-0.6 H 22 Z" />
	</g><g
   id="g1986"><path
     id="path1017"
     style="font-size:8.8582px;font-family:WorkSans-Medium;fill:#ffff8c;fill-opacity:1;stroke:#ffff8c;stroke-width:0.75;stroke-linecap:round;stroke-linejoin:miter;stroke-opacity:1;paint-order:stroke fill markers"
     d="m 75.912738,35.484375 c -0.701444,-0.0036 -1.306682,0.234041 -1.736328,0.701172 -0.426762,0.464248 -0.638672,1.091794 -0.638672,1.884765 -10e-7,0.767019 0.223997,1.376342 0.673828,1.826172 0.452714,0.44983 1.065104,0.673828 1.83789,0.673828 0.308538,0 0.614176,-0.03226 0.914063,-0.0957 0.299887,-0.06344 0.591484,-0.154282 0.876953,-0.27539 v -0.753907 c -0.282586,0.149944 -0.567116,0.262919 -0.855469,0.337891 -0.285469,0.07497 -0.581064,0.113281 -0.886718,0.113281 -0.527686,0 -0.941279,-0.144218 -1.238282,-0.429687 -0.294122,-0.288353 -0.457587,-0.706036 -0.492187,-1.253906 h 3.658203 v -0.388672 c 0,-0.720882 -0.189686,-1.290873 -0.570313,-1.708985 -0.479751,-0.43964 -0.841524,-0.627277 -1.542968,-0.630862 z m 0.0078,0.673828 c 0.39216,0 0.706911,0.131107 0.94336,0.390625 0.2393,0.259518 0.361387,0.605604 0.367187,1.041016 l -2.837891,0.0059 c 0.04037,-0.455598 0.1937,-0.80968 0.458985,-1.060547 0.268168,-0.250867 0.624296,-0.376953 1.068359,-0.376953 z" /><path
     id="path1015"
     style="font-size:8.8582px;font-family:WorkSans-Medium;fill:#ffff8c;fill-opacity:1;stroke:#ffff8c;stroke-width:0.75;stroke-linecap:round;stroke-linejoin:miter;stroke-opacity:1;paint-order:stroke fill markers"
     d="m 62.215715,35.484375 c -0.72665,0 -1.304729,0.234041 -1.734375,0.701172 -0.426762,0.464248 -0.640625,1.091794 -0.640625,1.884765 0,0.767019 0.22595,1.376342 0.675781,1.826172 0.452714,0.44983 1.065106,0.673828 1.837891,0.673828 0.308538,0 0.612222,-0.03226 0.912109,-0.0957 0.299887,-0.06344 0.593437,-0.154282 0.878906,-0.27539 v -0.753907 c -0.282585,0.149944 -0.569068,0.262919 -0.857422,0.337891 -0.285468,0.07497 -0.581065,0.113281 -0.886718,0.113281 -0.527686,0 -0.939324,-0.144218 -1.236328,-0.429687 -0.294122,-0.288353 -0.459541,-0.706036 -0.494141,-1.253906 h 3.660156 v -0.388672 c 0,-0.720882 -0.189686,-1.290873 -0.570312,-1.708985 -0.377742,-0.421031 -0.893245,-0.630859 -1.544922,-0.630859 z m 0.0078,0.673828 c 0.39216,0 0.706911,0.131107 0.94336,0.390625 0.2393,0.259518 0.361387,0.605604 0.367187,1.041016 l -2.835937,0.0059 c 0.04037,-0.455598 0.191746,-0.80968 0.457031,-1.060547 0.268168,-0.250867 0.624296,-0.376953 1.068359,-0.376953 z" /><path
     style="font-size:8.8582px;font-family:WorkSans-Medium;fill:#ffff8c;fill-opacity:1;stroke:#ffff8c;stroke-width:0.75;stroke-linecap:round;stroke-linejoin:miter;stroke-opacity:1;paint-order:stroke fill markers"
     d="m 79.199032,35.601206 1.267578,4.84375 h 0.9375 l 1.046875,-3.785441 1.042969,3.785441 h 0.939453 l 1.265625,-4.84375 H 84.90411 l -0.990234,3.779263 -0.996094,-3.779297 h -0.9375 l -0.990234,3.779297 -0.996094,-3.779297 z"
     id="path1013" /><path
     style="font-size:8.8582px;font-family:WorkSans-Medium;fill:#ffff8c;fill-opacity:1;stroke:#ffff8c;stroke-width:0.75;stroke-linecap:round;stroke-linejoin:miter;stroke-opacity:1;paint-order:stroke fill markers"
     d="m 65.279358,35.601206 1.816406,4.84375 h 1.082032 l 1.816406,-4.84375 h -0.84375 l -1.513672,4.064453 -1.513672,-4.064453 z"
     id="path1009" /><path
     id="path1003"
     style="font-size:8.8582px;font-family:WorkSans-Medium;fill:#ffff8c;fill-opacity:1;stroke:#ffff8c;stroke-width:0.75;stroke-linecap:round;stroke-linejoin:miter;stroke-opacity:1;paint-order:stroke fill markers"
     d="m 53.832031,33.988281 v 6.457031 h 0.873047 v -2.728515 h 0.951172 c 0.346023,0 0.619396,0.06965 0.818359,0.210937 0.201847,0.141295 0.409666,0.428798 0.623047,0.861328 l 0.826172,1.65625 h 0.9375 l -0.886719,-1.765624 c -0.178779,-0.363324 -0.356377,-0.647855 -0.535156,-0.855469 -0.175895,-0.207611 -0.357493,-0.34281 -0.544922,-0.40625 0.360441,-0.103808 0.632883,-0.290425 0.820313,-0.558594 C 57.905157,36.591207 58,36.254234 58,35.847656 58,35.224815 57.818403,34.759709 57.455078,34.451172 57.091753,34.142634 56.540917,33.988281 55.802734,33.988281 Z m 0.873047,0.716797 h 1.097656 c 0.420995,0 0.739744,0.09782 0.953125,0.291016 0.216265,0.190312 0.324219,0.473821 0.324219,0.851562 0,0.377744 -0.107954,0.665248 -0.324219,0.861328 -0.213381,0.193197 -0.53213,0.289063 -0.953125,0.289063 h -1.097656 z" /><g
     id="g1117"
     transform="translate(0.72893845)"><path
       style="font-size:8.8582px;font-family:WorkSans-Medium;fill:#ffff8c;fill-opacity:1;stroke:#ffff8c;stroke-width:0.75;stroke-linecap:round;stroke-linejoin:miter;stroke-opacity:1;paint-order:stroke fill markers"
       d="m 70.493647,35.601206 v 4.84375 h 0.794922 v -4.84375 z"
       id="path1011" /><path
       style="font-size:8.8582px;font-family:WorkSans-Medium;fill:#ffff8c;fill-opacity:1;stroke:#ffff8c;stroke-width:0.75;stroke-linecap:round;stroke-linejoin:miter;stroke-opacity:1;paint-order:stroke fill markers"
       d="m 70.493647,33.384397 v 1.007812 h 0.794922 v -1.007812 z"
       id="path999" /></g></g><g
   id="g1999"
   transform="translate(0,-0.04882524)"><path
     id="path997"
     style="font-size:8.8582px;font-family:WorkSans-Medium;fill:#ffff8c;fill-opacity:1;stroke:#ffff8c;stroke-width:0.75;stroke-linecap:round;stroke-linejoin:miter;stroke-opacity:1;paint-order:stroke fill markers"
     d="m 77.655583,25.249947 c -0.259517,0 -0.524893,0.03022 -0.798829,0.08789 -0.273934,0.05479 -0.558372,0.137541 -0.849609,0.25 v 0.736328 c 0.242217,-0.132644 0.495412,-0.232508 0.757813,-0.298828 0.262401,-0.06632 0.531774,-0.09961 0.808593,-0.09961 0.435413,0 0.772386,0.100887 1.011719,0.302734 0.242217,0.198964 0.363281,0.481448 0.363281,0.847657 v 0.07812 h -1.115234 c -0.723766,-1e-6 -1.268558,0.137244 -1.634766,0.414063 -0.363325,0.276819 -0.544922,0.689388 -0.544921,1.234375 0,0.467132 0.146264,0.839439 0.4375,1.119141 0.29412,0.276818 0.687626,0.416015 1.183593,0.416015 0.39216,0 0.725042,-0.07058 0.996094,-0.208984 0.271051,-0.141293 0.496071,-0.358224 0.677734,-0.652344 v 0.734375 h 0.796875 v -2.763672 c 0,-0.738183 -0.173507,-1.289019 -0.519531,-1.652343 -0.346023,-0.363324 -0.869614,-0.544922 -1.570312,-0.544922 z m 0.501953,2.527343 h 0.791015 v 0.175782 c 0,0.519035 -0.134174,0.935695 -0.402343,1.25 -0.265284,0.311419 -0.617415,0.46875 -1.058594,0.46875 -0.320072,0 -0.57429,-0.08369 -0.761719,-0.248047 -0.184546,-0.167245 -0.277344,-0.391243 -0.277344,-0.673828 0,-0.354674 0.125064,-0.604894 0.373047,-0.751954 0.247984,-0.147059 0.692911,-0.220703 1.335938,-0.220703 z" /><path
     id="path995"
     style="font-size:8.8582px;font-family:WorkSans-Medium;fill:#ffff8c;fill-opacity:1;stroke:#ffff8c;stroke-width:0.75;stroke-linecap:round;stroke-linejoin:miter;stroke-opacity:1;paint-order:stroke fill markers"
     d="m 89.661122,25.249947 c -0.694929,0 -1.239721,0.225951 -1.634765,0.675781 -0.39216,0.449831 -0.587891,1.073285 -0.587891,1.869141 0,0.792971 0.195731,1.414473 0.587891,1.867187 0.395044,0.44983 0.939835,0.675781 1.634765,0.675781 0.692048,0 1.235816,-0.22595 1.63086,-0.675781 0.395043,-0.452714 0.591797,-1.074217 0.591797,-1.867187 0,-0.795854 -0.196754,-1.419309 -0.591797,-1.869141 -0.395044,-0.449829 -0.938812,-0.675781 -1.63086,-0.675781 z m 0,0.675781 c 0.423879,0 0.759829,0.168487 1.007813,0.505859 0.247984,0.33449 0.371095,0.78946 0.371094,1.363282 10e-7,0.576706 -0.12311,1.030746 -0.371094,1.365234 -0.247984,0.33449 -0.583934,0.501953 -1.007813,0.501953 -0.429646,0 -0.76764,-0.164487 -1.015624,-0.496094 -0.2451,-0.334489 -0.369141,-0.791505 -0.369141,-1.371093 0,-0.579589 0.125062,-1.035582 0.373047,-1.367188 0.247983,-0.334489 0.584956,-0.501953 1.011718,-0.501953 z" /><path
     id="path993"
     style="font-size:8.8582px;font-family:WorkSans-Medium;fill:#ffff8c;fill-opacity:1;stroke:#ffff8c;stroke-width:0.75;stroke-linecap:round;stroke-linejoin:miter;stroke-opacity:1;paint-order:stroke fill markers"
     d="m 63.093403,23.482369 v 2.621093 c -0.167243,-0.288352 -0.380085,-0.502215 -0.636718,-0.640625 -0.253751,-0.141292 -0.558458,-0.21289 -0.916016,-0.21289 -0.585356,0 -1.062549,0.234041 -1.43164,0.701172 -0.366209,0.467131 -0.548829,1.082498 -0.548829,1.84375 0,0.761251 0.18262,1.374664 0.548829,1.841796 0.369092,0.467132 0.846284,0.701172 1.43164,0.701172 0.357558,0 0.662265,-0.07058 0.916016,-0.208984 0.256633,-0.141293 0.469474,-0.356179 0.636718,-0.644531 v 0.726562 h 0.796876 v -6.728515 z m -1.357421,2.433593 c 0.420995,0 0.751923,0.167463 0.99414,0.501953 0.242217,0.331606 0.363281,0.791596 0.363281,1.376954 0,0.585356 -0.121064,1.044416 -0.363281,1.378906 -0.242217,0.331606 -0.573145,0.498047 -0.99414,0.498047 -0.420995,0 -0.753878,-0.166441 -0.996094,-0.498047 -0.239333,-0.33449 -0.357422,-0.793551 -0.357422,-1.378906 0,-0.585357 0.118089,-1.045348 0.357422,-1.376954 0.242216,-0.33449 0.575099,-0.501953 0.996094,-0.501953 z" /><path
     style="font-size:8.8582px;font-family:WorkSans-Medium;fill:#ffff8c;fill-opacity:1;stroke:#ffff8c;stroke-width:0.75;stroke-linecap:round;stroke-linejoin:miter;stroke-opacity:1;paint-order:stroke fill markers"
     d="m 65.181187,25.366742 v 2.933594 c 0,0.666095 0.145241,1.171556 0.433593,1.517578 0.288353,0.346023 0.711057,0.519532 1.267578,0.519532 0.337373,0 0.632968,-0.0716 0.886719,-0.212891 0.256634,-0.144177 0.480632,-0.36213 0.673828,-0.65625 v 0.742187 h 0.796875 v -4.84375 h -0.796875 v 2.746094 c 0,0.4729 -0.126086,0.847158 -0.376953,1.121094 -0.247983,0.273934 -0.585979,0.410156 -1.015625,0.410156 -0.357557,0 -0.625909,-0.113997 -0.804687,-0.341797 -0.178779,-0.230682 -0.267579,-0.574722 -0.267579,-1.033203 v -2.902344 z"
     id="path989" /><path
     style="font-size:8.8582px;font-family:WorkSans-Medium;fill:#ffff8c;fill-opacity:1;stroke:#ffff8c;stroke-width:0.75;stroke-linecap:round;stroke-linejoin:miter;stroke-opacity:1;paint-order:stroke fill markers"
     d="m 95.622353,25.249555 c -0.337373,0 -0.635014,0.07262 -0.894531,0.216797 -0.256634,0.144176 -0.479609,0.361107 -0.669922,0.652343 v -0.751953 h -0.800781 v 4.84375 H 94.0579 v -2.736328 c 0,-0.472899 0.12311,-0.847158 0.371094,-1.121093 0.247983,-0.273935 0.585979,-0.410157 1.015625,-0.410157 0.357558,0 0.625909,0.113998 0.804687,0.341797 0.178779,0.2278 0.281139,0.570963 0.269531,1.029297 v 2.896484 h 0.794922 v -2.923828 c 0,-0.668979 -0.142265,-1.174437 -0.427734,-1.517578 -0.285469,-0.346022 -0.707151,-0.519531 -1.263672,-0.519531 z"
     id="path987" /><path
     style="font-size:8.8582px;font-family:WorkSans-Medium;fill:#ffff8c;fill-opacity:1;stroke:#ffff8c;stroke-width:0.75;stroke-linecap:round;stroke-linejoin:miter;stroke-opacity:1;paint-order:stroke fill markers"
     d="m 72.964283,25.249555 c -0.755484,0 -1.349743,0.226973 -1.785156,0.679687 -0.432529,0.452715 -0.648437,1.075148 -0.648437,1.865235 0,0.778552 0.214885,1.396988 0.644531,1.855469 0.429645,0.45848 1.008748,0.6875 1.738281,0.6875 0.268169,0 0.51941,-0.02623 0.755859,-0.07813 0.239333,-0.0519 0.471328,-0.130567 0.69336,-0.234375 v -0.734375 c -0.224915,0.12399 -0.451889,0.21781 -0.679688,0.28125 -0.224915,0.06055 -0.452911,0.08984 -0.683593,0.08984 -0.516152,0 -0.915703,-0.162442 -1.201172,-0.488281 -0.28547,-0.328722 -0.429688,-0.787783 -0.429688,-1.378907 0,-0.591123 0.144218,-1.051114 0.429688,-1.376953 0.285469,-0.328722 0.68502,-0.492187 1.201172,-0.492187 0.230682,0 0.458678,0.03226 0.683593,0.0957 0.227799,0.06055 0.454773,0.151399 0.679688,0.275391 v -0.744141 c -0.219149,-0.100923 -0.446122,-0.175589 -0.679688,-0.224609 -0.233566,-0.0519 -0.47365,-0.07813 -0.71875,-0.07813 z"
     id="path981" /><path
     style="font-size:8.8582px;font-family:WorkSans-Medium;fill:#ffff8c;fill-opacity:1;stroke:#ffff8c;stroke-width:0.75;stroke-linecap:round;stroke-linejoin:miter;stroke-opacity:1;paint-order:stroke fill markers"
     d="m 81.620321,23.991742 v 1.375 h -0.583985 v 0.619141 h 0.583985 v 2.628906 c 0,0.605541 0.116043,1.023224 0.349609,1.253907 0.233565,0.227799 0.657292,0.341796 1.271484,0.341796 h 0.81836 v -0.666015 h -0.81836 c -0.331606,0 -0.552535,-0.05551 -0.662109,-0.167968 -0.106691,-0.112458 -0.160156,-0.366676 -0.160156,-0.761719 v -2.628906 h 1.640625 v -0.619141 h -1.640625 v -1.375 z"
     id="path979" /><path
     style="font-size:8.8582px;font-family:WorkSans-Medium;fill:#ffff8c;fill-opacity:1;stroke:#ffff8c;stroke-width:0.75;stroke-linecap:round;stroke-linejoin:miter;stroke-opacity:1;paint-order:stroke fill markers"
     d="m 53.833006,23.753461 v 6.457031 h 4.160156 v -0.734375 h -3.287109 v -2.339843 h 3.076172 v -0.736328 h -3.076172 v -1.910157 h 3.208984 v -0.736328 z"
     id="path977" /><g
     id="g1106"
     transform="translate(1.365332)"><path
       style="font-size:8.8582px;font-family:WorkSans-Medium;fill:#ffff8c;fill-opacity:1;stroke:#ffff8c;stroke-width:0.75;stroke-linecap:round;stroke-linejoin:miter;stroke-opacity:1;paint-order:stroke fill markers"
       d="m 83.98535,25.366742 v 4.84375 h 0.796875 v -4.84375 z"
       id="path991" /><path
       style="font-size:8.8582px;font-family:WorkSans-Medium;fill:#ffff8c;fill-opacity:1;stroke:#ffff8c;stroke-width:0.75;stroke-linecap:round;stroke-linejoin:miter;stroke-opacity:1;paint-order:stroke fill markers"
       d="m 83.98535,23.151887 v 1.007812 h 0.796875 v -1.007812 z"
       id="path975" /></g></g><g
   id="g2008"
   transform="translate(0,0.75882975)"><path
     id="path971"
     style="font-size:8.8582px;font-family:WorkSans-Medium;fill:#ffff8c;fill-opacity:1;stroke:#ffff8c;stroke-width:0.75;stroke-linecap:round;stroke-linejoin:miter;stroke-opacity:1;paint-order:stroke fill markers"
     d="m 64.501552,14.161011 c -0.594006,0 -1.072223,0.226974 -1.435547,0.679688 -0.363325,0.452714 -0.544922,1.053017 -0.544922,1.802734 0,0.746833 0.181597,1.346114 0.544922,1.798828 0.363324,0.452714 0.841541,0.679688 1.435547,0.679688 0.357558,0 0.665241,-0.0716 0.921875,-0.212891 0.256634,-0.141292 0.468451,-0.353202 0.632812,-0.638672 v 0.392578 c 0,0.550754 -0.131107,0.961371 -0.390625,1.232422 -0.259517,0.273935 -0.649956,0.41211 -1.171875,0.41211 -0.236449,0 -0.467513,-0.03124 -0.695312,-0.0918 -0.227799,-0.06055 -0.459795,-0.154375 -0.69336,-0.28125 v 0.775391 c 0.233565,0.08651 0.474672,0.149086 0.722656,0.189453 0.247985,0.04325 0.511314,0.06445 0.791016,0.06445 0.755485,0 1.317386,-0.201775 1.683594,-0.605469 0.366208,-0.400805 0.568988,-1.013441 0.548828,-1.837885 v -4.242187 h -0.794922 v 0.734375 C 65.891878,14.727105 65.680061,14.513242 65.423427,14.371949 65.166793,14.230656 64.85911,14.161011 64.501552,14.161011 Z m 0.195312,0.666016 c 0.429645,0 0.763551,0.157421 1,0.474609 0.239333,0.317188 0.359375,0.76509 0.359375,1.341797 0,0.573821 -0.120042,1.018751 -0.359375,1.335938 -0.236449,0.317189 -0.570355,0.476562 -1,0.476562 -0.426763,0 -0.758714,-0.159373 -0.998047,-0.476562 -0.236449,-0.317188 -0.355469,-0.762116 -0.355468,-1.335938 0,-0.576706 0.119019,-1.024608 0.355468,-1.341797 0.239333,-0.317187 0.571284,-0.474609 0.998047,-0.474609 z" /><path
     style="font-size:8.8582px;font-family:WorkSans-Medium;fill:#ffff8c;fill-opacity:1;stroke:#ffff8c;stroke-width:0.75;stroke-linecap:round;stroke-linejoin:miter;stroke-opacity:1;paint-order:stroke fill markers"
     d="m 60.128814,14.277808 v 4.843749 h 0.796875 v -4.843749 z"
     id="path969" /><path
     style="font-size:8.8582px;font-family:WorkSans-Medium;fill:#ffff8c;fill-opacity:1;stroke:#ffff8c;stroke-width:0.75;stroke-linecap:round;stroke-linejoin:miter;stroke-opacity:1;paint-order:stroke fill markers"
     d="m 80.075668,14.16062 c 0,-0.594006 -1.052044,0.123111 -1.375,0.371094 -0.322955,0.247982 -0.484375,0.601043 -0.484375,1.056641 0,0.374858 0.108977,0.670453 0.328125,0.886718 0.219149,0.213381 0.575276,0.370802 1.06836,0.474609 l 0.277343,0.06445 c 0.493084,0.106691 0.810902,0.218643 0.955078,0.333984 0.147061,0.115341 0.220704,0.281783 0.220704,0.498047 0,0.233566 -0.100888,0.415163 -0.302735,0.544922 -0.201847,0.126875 -0.490375,0.189453 -0.865234,0.189453 -0.279702,0 -0.562187,-0.03636 -0.847656,-0.111328 -0.28547,-0.07785 -0.575021,-0.194829 -0.869141,-0.347656 v 0.822266 c 0.311421,0.100923 0.607016,0.175589 0.886719,0.224609 0.282585,0.0519 0.554935,0.07813 0.814453,0.07813 0.622842,0 1.11017,-0.130178 1.464844,-0.392578 0.357558,-0.262402 0.537109,-0.618529 0.537109,-1.06836 0,-0.395043 -0.120042,-0.702727 -0.359375,-0.921875 -0.236449,-0.222032 -0.636001,-0.394517 -1.201172,-0.515625 l -0.273437,-0.06055 c -0.426762,-0.09516 -0.71027,-0.193069 -0.851563,-0.296876 -0.141293,-0.106689 -0.21289,-0.252953 -0.21289,-0.437499 0,-0.242216 0.09884,-0.423813 0.294921,-0.544921 0.198964,-0.121108 0.495582,-0.181642 0.890625,-0.181642 0.259518,0 0.509738,0.02826 0.751954,0.08594 0.242216,0.05767 0.476256,0.144424 0.701171,0.259765 v -0.751953 c -0.219148,-0.08651 -0.459232,-0.152059 -0.71875,-0.195312 -0.259517,-0.04325 -0.830078,0.22967 -0.830078,-0.06445 z"
     id="path967" /><path
     id="path963"
     style="font-size:8.8582px;font-family:WorkSans-Medium;fill:#ffff8c;fill-opacity:1;stroke:#ffff8c;stroke-width:0.75;stroke-linecap:round;stroke-linejoin:miter;stroke-opacity:1;paint-order:stroke fill markers"
     d="m 53.832031,12.664918 v 6.457031 h 0.873047 v -2.728516 h 0.951172 c 0.346023,0 0.619396,0.06964 0.818359,0.210938 0.201847,0.141293 0.409666,0.4288 0.623047,0.861328 l 0.826172,1.65625 h 0.9375 l -0.886719,-1.765625 c -0.178779,-0.363325 -0.356377,-0.647855 -0.535156,-0.855469 -0.175895,-0.207611 -0.357493,-0.34281 -0.544922,-0.40625 0.360441,-0.103806 0.632883,-0.290426 0.820313,-0.558594 C 57.905157,15.267843 58,14.930871 58,14.524293 c 0,-0.622842 -0.181597,-1.087947 -0.544922,-1.396485 -0.363325,-0.308539 -0.914161,-0.46289 -1.652344,-0.46289 z m 0.873047,0.716796 h 1.097656 c 0.420995,0 0.739744,0.09782 0.953125,0.291016 0.216265,0.190313 0.324219,0.47382 0.324219,0.851563 0,0.377742 -0.107954,0.665248 -0.324219,0.861328 -0.213381,0.193196 -0.53213,0.289062 -0.953125,0.289062 h -1.097656 z" /><path
     style="font-size:8.8582px;font-family:WorkSans-Medium;fill:#ffff8c;fill-opacity:1;stroke:#ffff8c;stroke-width:0.75;stroke-linecap:round;stroke-linejoin:miter;stroke-opacity:1;paint-order:stroke fill markers"
     d="m 74.352126,12.900855 v 1.376953 h -0.583985 v 0.617187 h 0.583985 v 2.630859 c 0,0.605541 0.117996,1.023224 0.351562,1.253906 0.233566,0.2278 0.657293,0.341797 1.271484,0.341797 h 0.816407 v -0.666015 h -0.816407 c -0.331605,0 -0.552534,-0.05551 -0.662109,-0.167968 -0.10669,-0.112458 -0.144591,-0.366983 -0.160156,-0.761719 v -2.63086 h 1.638672 v -0.617187 h -1.638672 v -1.376953 z"
     id="path961" /><path
     style="font-size:8.8582px;font-family:WorkSans-Medium;fill:#ffff8c;fill-opacity:1;stroke:#ffff8c;stroke-width:0.75;stroke-linecap:round;stroke-linejoin:miter;stroke-opacity:1;paint-order:stroke fill markers"
     d="m 68.489911,12.391089 v 6.730468 h 0.800781 v -2.738281 c 0,-0.472899 0.125064,-0.845206 0.373047,-1.11914 0.247983,-0.273936 0.585979,-0.412109 1.015625,-0.412109 0.357557,0 0.625909,0.113998 0.804687,0.341797 0.178779,0.227797 0.283978,0.571109 0.267579,1.029296 v 2.898437 h 0.796875 v -2.923828 c 0,-0.668978 -0.144219,-1.174438 -0.429688,-1.517577 -0.285469,-0.346024 -0.705198,-0.519533 -1.261719,-0.519533 -0.337373,0 -0.636967,0.07262 -0.896484,0.216797 -0.256634,0.144178 -0.479609,0.361107 -0.669922,0.652344 v -2.638672 z"
     id="path957" /><path
     style="font-size:8.8582px;font-family:WorkSans-Medium;fill:#ffff8c;fill-opacity:1;stroke:#ffff8c;stroke-width:0.75;stroke-linecap:round;stroke-linejoin:miter;stroke-opacity:1;paint-order:stroke fill markers"
     d="m 60.128814,12.060999 v 1.007813 h 0.796875 v -1.007813 z"
     id="path955" /></g><g
   id="g2015"><path
     id="path953"
     style="font-size:8.8582px;font-family:WorkSans-Medium;fill:#ffff8c;fill-opacity:1;stroke:#ffff8c;stroke-width:0.75;stroke-linecap:round;stroke-linejoin:miter;stroke-opacity:1;paint-order:stroke fill markers"
     d="m 76.82889,4.6492187 c -0.259518,0 -0.526846,0.03022 -0.800782,0.087891 -0.273934,0.054787 -0.55642,0.1375424 -0.847656,0.25 v 0.7363282 c 0.242216,-0.1326423 0.495412,-0.2325068 0.757813,-0.2988282 0.262402,-0.066321 0.531775,-0.099609 0.808593,-0.099609 0.435413,0 0.772386,0.1008874 1.011719,0.3027344 0.242217,0.1989635 0.655811,0.6273505 0.363281,0.8476563 v 0.078125 h -1.115234 c -0.723765,0 -1.270511,0.1372437 -1.636719,0.4140625 -0.363325,0.2768187 -0.544922,0.6874349 -0.544921,1.2324218 0,0.4671318 0.146264,0.8413915 0.4375,1.1210938 0.29412,0.2768187 0.689579,0.4160156 1.185546,0.4160156 0.392159,0 0.723089,-0.070575 0.994141,-0.2089844 0.271052,-0.1412928 0.498025,-0.3582238 0.679687,-0.6523437 V 9.610157 H 78.91678 V 6.8464843 c 0,-0.7381834 -0.171555,-1.2890191 -0.517578,-1.6523437 C 78.053179,4.8308159 77.529588,4.6492187 76.82889,4.6492187 Z m 0.501953,2.5273438 h 0.791015 v 0.1757812 c 0,0.5190351 -0.134174,0.9356953 -0.402343,1.25 -0.265284,0.3114211 -0.619367,0.46875 -1.060547,0.46875 -0.320072,0 -0.572337,-0.083686 -0.759766,-0.2480469 -0.184545,-0.1672446 -0.277344,-0.3912423 -0.277344,-0.6738281 0,-0.354674 0.123111,-0.6048931 0.371094,-0.7519531 0.247983,-0.14706 0.694864,-0.2207031 1.337891,-0.2207031 z" /><path
     style="font-size:8.8582px;font-family:WorkSans-Medium;fill:#ffff8c;fill-opacity:1;stroke:#ffff8c;stroke-width:0.75;stroke-linecap:round;stroke-linejoin:miter;stroke-opacity:1;paint-order:stroke fill markers"
     d="m 60.493606,4.7660147 v 2.9335937 c 0,0.6660952 0.143288,1.1715547 0.431641,1.5175782 0.288353,0.3460234 0.711057,0.5195312 1.267578,0.5195312 0.337373,0 0.632968,-0.071598 0.886719,-0.2128906 0.256634,-0.1441765 0.482585,-0.3621301 0.675781,-0.65625 v 0.7421875 h 0.794922 v -4.84375 h -0.794922 v 2.7460937 c 0,0.4728988 -0.126086,0.8471586 -0.376953,1.1210938 C 63.130389,8.9071374 62.79044,9.0433585 62.360794,9.0433584 62.003237,9.0433585 61.736838,8.9293603 61.55806,8.7015616 61.379281,8.4708793 61.288528,8.1268395 61.288528,7.6683584 V 4.7660147 Z"
     id="path951" /><path
     style="font-size:8.8582px;font-family:WorkSans-Medium;fill:#ffff8c;fill-opacity:1;stroke:#ffff8c;stroke-width:0.75;stroke-linecap:round;stroke-linejoin:miter;stroke-opacity:1;paint-order:stroke fill markers"
     d="m 83.055582,4.6488272 c -0.337372,0 -0.635013,0.07262 -0.894531,0.2167969 -0.256634,0.1441764 -0.479609,0.3611074 -0.669922,0.6523437 V 4.7660147 h -0.800781 v 4.84375 h 0.800781 V 6.8734366 c 0,-0.4728988 0.123111,-0.8471586 0.371094,-1.1210938 0.247983,-0.2739352 0.585979,-0.4101562 1.015625,-0.4101562 0.357557,0 0.625908,0.113998 0.804687,0.3417968 0.178779,0.2277988 0.269532,0.5708159 0.269532,1.0292969 v 2.8964844 h 0.794922 V 6.6859366 c 0,-0.6689787 -0.142266,-1.1744382 -0.427735,-1.5175782 C 84.033785,4.822335 83.612104,4.6488272 83.055582,4.6488272 Z"
     id="path949" /><path
     style="font-size:8.8582px;font-family:WorkSans-Medium;fill:#ffff8c;fill-opacity:1;stroke:#ffff8c;stroke-width:0.75;stroke-linecap:round;stroke-linejoin:miter;stroke-opacity:1;paint-order:stroke fill markers"
     d="m 68.681236,4.6488272 c -0.348907,0 -0.650547,0.071598 -0.904297,0.2128906 -0.253751,0.141293 -0.470682,0.3592466 -0.652344,0.65625 V 4.7660147 h -0.800781 v 4.84375 h 0.800781 V 6.8734366 c 0,-0.4700152 0.118089,-0.8432523 0.357422,-1.1171875 0.239333,-0.2768188 0.562172,-0.4140625 0.96875,-0.4140625 0.34314,0 0.597358,0.1110222 0.761719,0.3359375 0.164361,0.2220316 0.269723,0.5686226 0.246093,1.0351562 v 2.8964844 h 0.800782 V 6.8734366 c 0,-0.4728988 0.120041,-0.8471586 0.359375,-1.1210938 0.239332,-0.2739352 0.564217,-0.4101562 0.976562,-0.4101562 0.337373,0 0.589545,0.1110222 0.753906,0.3359375 0.164361,0.2249152 0.246094,0.5709081 0.246094,1.0351562 v 2.8964844 h 0.800781 V 6.6859366 c 0,-0.6516776 -0.138174,-1.1521158 -0.412109,-1.5039063 -0.273935,-0.354674 -0.663351,-0.5332031 -1.167969,-0.5332031 -0.374858,0 -0.699744,0.085731 -0.976562,0.2558594 -0.27682,0.1701282 -0.515881,0.433458 -0.714844,0.7910156 C 70.00637,5.3554458 69.82375,5.0971372 69.575767,4.9183584 69.330667,4.7395797 69.033026,4.6488272 68.681236,4.6488272 Z"
     id="path945" /><path
     style="font-size:8.8582px;font-family:WorkSans-Medium;fill:#ffff8c;fill-opacity:1;stroke:#ffff8c;stroke-width:0.75;stroke-linecap:round;stroke-linejoin:miter;stroke-opacity:1;paint-order:stroke fill markers"
     d="m 53.833006,3.1527335 v 6.4570312 h 0.873047 V 6.535546 h 3.173828 v 3.0742187 h 0.875 V 3.1527335 h -0.875 V 5.7992178 H 54.706053 V 3.1527335 Z"
     id="path1299" /></g><g
   transform="translate(2,1.2999992)"
   id="text1132"
   style="font-size:8.85820007px;font-family:WorkSans-Medium;fill:#ffffff"
   aria-label=" " /><g
   transform="translate(2,1.2999992)"
   id="text1146"
   style="font-size:8.85820007px;font-family:WorkSans-Medium;fill:#ffffff"
   aria-label=" " />
</svg>
