<?xml version="1.0" encoding="UTF-8" standalone="no"?>
<svg
   xmlns:dc="http://purl.org/dc/elements/1.1/"
   xmlns:cc="http://creativecommons.org/ns#"
   xmlns:rdf="http://www.w3.org/1999/02/22-rdf-syntax-ns#"
   xmlns:svg="http://www.w3.org/2000/svg"
   xmlns="http://www.w3.org/2000/svg"
   viewBox="0 0 551.474 94.485327"
   height="94.485329"
   width="551.474"
   xml:space="preserve"
   id="svg2"
   version="1.1"><metadata
     id="metadata8"><rdf:RDF><cc:Work
         rdf:about=""><dc:format>image/svg+xml</dc:format><dc:type
           rdf:resource="http://purl.org/dc/dcmitype/StillImage" /><dc:title></dc:title></cc:Work></rdf:RDF></metadata><defs
     id="defs6"><clipPath
       id="clipPath18"
       clipPathUnits="userSpaceOnUse"><path
         id="path16"
         d="M 0,155.906 H 490.394 V 0 H 0 Z" /></clipPath></defs><g
     transform="matrix(1.3333333,0,0,-1.3333333,-56.692665,151.1808)"
     id="g10"
     style="fill:#ffffff"><g
       id="g12"
       style="fill:#ffffff"><g
         clip-path="url(#clipPath18)"
         id="g14"
         style="fill:#ffffff"><g
           transform="translate(174.4199,112.1758)"
           id="g20"
           style="fill:#ffffff"><path
             id="path22"
             style="fill:#ffffff;fill-opacity:1;fill-rule:nonzero;stroke:none"
             d="m 0,0 h 3.286 v -12.977 c 0,-2.422 1.281,-3.898 3.899,-3.898 2.645,0 3.954,1.503 3.954,3.842 V 0 h 3.258 v -13.144 c 0,-4.233 -2.896,-6.767 -7.212,-6.767 -4.317,0 -7.185,2.534 -7.185,6.767 z" /></g><g
           transform="translate(192.8574,107.4419)"
           id="g24"
           style="fill:#ffffff"><path
             id="path26"
             style="fill:#ffffff;fill-opacity:1;fill-rule:nonzero;stroke:none"
             d="m 0,0 h 3.063 v -1.42 h 0.055 c 0.78,1.002 2.312,1.837 3.983,1.837 3.23,0 5.263,-2.032 5.263,-5.513 v -9.663 H 9.217 v 8.827 c 0,2.172 -0.779,3.426 -2.868,3.426 -1.95,0 -3.175,-1.198 -3.175,-3.092 v -9.161 H 0 Z" /></g><path
           id="path28"
           style="fill:#ffffff;fill-opacity:1;fill-rule:nonzero;stroke:none"
           d="m 209.316,107.442 h 3.174 V 92.683 h -3.174 z m -0.055,5.569 h 3.286 v -3.147 h -3.286 z" /><g
           transform="translate(214.8301,107.4419)"
           id="g30"
           style="fill:#ffffff"><path
             id="path32"
             style="fill:#ffffff;fill-opacity:1;fill-rule:nonzero;stroke:none"
             d="M 0,0 H 3.286 L 7.24,-10.192 H 7.296 L 11.25,0 h 3.258 L 8.577,-14.759 H 5.932 Z" /></g><g
           transform="translate(240.8682,101.5103)"
           id="g34"
           style="fill:#ffffff"><path
             id="path36"
             style="fill:#ffffff;fill-opacity:1;fill-rule:nonzero;stroke:none"
             d="M 0,0 C -0.111,1.977 -1.253,3.537 -3.62,3.537 -5.903,3.537 -7.072,1.699 -7.185,0 Z M 2.646,-5.792 C 1.504,-7.63 -0.361,-9.245 -3.48,-9.245 c -4.01,0 -6.934,3.007 -6.934,7.797 0,4.79 2.924,7.797 6.794,7.797 3.844,0 6.712,-2.952 6.712,-7.797 V -2.395 H -7.212 c 0.083,-2.395 1.337,-4.038 3.676,-4.038 2.256,0 3.258,1.504 3.898,2.507 z" /></g><g
           transform="translate(247.1631,107.4419)"
           id="g38"
           style="fill:#ffffff"><path
             id="path40"
             style="fill:#ffffff;fill-opacity:1;fill-rule:nonzero;stroke:none"
             d="M 0,0 H 3.007 V -1.56 H 3.063 C 3.647,-0.418 4.873,0.278 6.126,0.278 6.655,0.278 7.101,0.139 7.435,0 L 6.934,-3.091 c -0.307,0.083 -0.668,0.222 -1.17,0.222 -1.671,0 -2.59,-1.113 -2.59,-3.675 v -8.215 H 0 Z" /></g><g
           transform="translate(258.9434,98.3076)"
           id="g42"
           style="fill:#ffffff"><path
             id="path44"
             style="fill:#ffffff;fill-opacity:1;fill-rule:nonzero;stroke:none"
             d="m 0,0 c 0.25,-2.172 1.476,-3.369 3.564,-3.369 2.005,0 3.119,0.751 3.119,1.893 0,1.17 -0.919,1.448 -4.066,2.339 -3.342,0.947 -4.957,2.089 -4.957,4.317 0,2.228 1.894,4.372 5.431,4.372 3.536,0 5.374,-1.838 6.043,-4.317 L 6.46,4.456 C 5.987,5.848 5.124,6.906 3.091,6.906 1.42,6.906 0.557,6.126 0.557,5.319 0.557,4.344 1.169,4.094 4.9,3.036 8.633,1.978 9.552,0.613 9.552,-1.531 c 0,-2.061 -1.699,-4.511 -5.876,-4.511 -4.345,0 -6.21,2.673 -6.572,5.346 z" /></g><path
           id="path46"
           style="fill:#ffffff;fill-opacity:1;fill-rule:nonzero;stroke:none"
           d="m 271.615,107.442 h 3.174 V 92.683 h -3.174 z m -0.055,5.569 h 3.286 v -3.147 h -3.286 z" /><g
           transform="translate(279.8594,104.7129)"
           id="g48"
           style="fill:#ffffff"><path
             id="path50"
             style="fill:#ffffff;fill-opacity:1;fill-rule:nonzero;stroke:none"
             d="m 0,0 h -2.229 v 2.729 h 2.312 v 3.62 H 3.091 V 2.729 H 6.794 V 0 H 3.118 v -6.767 c 0,-1.532 0.307,-2.2 1.922,-2.2 H 6.21 V -12.03 H 4.789 C 1.086,-12.03 0,-10.359 0,-7.101 Z" /></g><g
           transform="translate(293.6436,93.3511)"
           id="g52"
           style="fill:#ffffff"><path
             id="path54"
             style="fill:#ffffff;fill-opacity:1;fill-rule:nonzero;stroke:none"
             d="m 0,0 -5.736,14.091 h 3.341 L 1.477,3.926 h 0.055 l 3.87,10.165 H 8.688 L 0.279,-6.934 h -3.063 z" /></g><g
           transform="translate(320.1016,100.062)"
           id="g56"
           style="fill:#ffffff"><path
             id="path58"
             style="fill:#ffffff;fill-opacity:1;fill-rule:nonzero;stroke:none"
             d="M 0,0 C 0,3.203 -1.532,4.929 -3.677,4.929 -5.82,4.929 -7.38,3.258 -7.38,0 c 0,-3.286 1.531,-4.929 3.703,-4.929 C -1.532,-4.929 0,-3.202 0,0 m -10.526,0 c 0,5.041 3.202,7.797 6.849,7.797 3.621,0 6.795,-2.756 6.795,-7.797 0,-5.04 -2.979,-7.797 -6.795,-7.797 -3.843,0 -6.849,2.757 -6.849,7.797" /></g><g
           transform="translate(327.1201,104.7129)"
           id="g60"
           style="fill:#ffffff"><path
             id="path62"
             style="fill:#ffffff;fill-opacity:1;fill-rule:nonzero;stroke:none"
             d="m 0,0 h -2.229 v 2.729 h 2.285 v 2.144 c 0,2.646 1.447,3.425 3.647,3.425 h 2.73 V 5.486 H 4.344 C 3.369,5.486 3.063,5.179 3.063,4.149 V 2.729 H 6.767 V 0 H 3.146 V -12.03 H 0 Z" /></g><g
           transform="translate(176.3418,67.9766)"
           id="g64"
           style="fill:#ffffff"><path
             id="path66"
             style="fill:#ffffff;fill-opacity:1;fill-rule:nonzero;stroke:none"
             d="m 0,0 c 0.473,-3.118 1.42,-4.706 4.399,-4.706 2.395,0 3.788,1.03 3.788,2.645 0,1.588 -0.668,2.228 -5.152,3.621 -4.178,1.308 -5.709,3.09 -5.709,5.625 0,2.812 2.283,5.402 6.405,5.402 3.454,0 6.46,-1.643 7.101,-5.347 L 7.63,6.461 C 7.156,8.188 6.21,9.524 3.731,9.524 c -2.2,0 -3.174,-1.03 -3.174,-2.311 0,-1.253 0.64,-1.699 4.928,-3.147 4.706,-1.587 5.932,-3.063 5.932,-5.931 0,-3.286 -2.617,-5.876 -7.045,-5.876 -4.456,0 -7.241,2.339 -7.825,6.989 z" /></g><g
           transform="translate(200.292,68.0323)"
           id="g68"
           style="fill:#ffffff"><path
             id="path70"
             style="fill:#ffffff;fill-opacity:1;fill-rule:nonzero;stroke:none"
             d="M 0,0 C 0,3.203 -1.532,4.93 -3.677,4.93 -5.82,4.93 -7.38,3.259 -7.38,0 c 0,-3.285 1.531,-4.929 3.703,-4.929 C -1.532,-4.929 0,-3.202 0,0 m -10.526,0 c 0,5.041 3.202,7.798 6.849,7.798 3.62,0 6.795,-2.757 6.795,-7.798 0,-5.04 -2.979,-7.797 -6.795,-7.797 -3.843,0 -6.849,2.757 -6.849,7.797" /></g><g
           transform="translate(206.4746,75.4121)"
           id="g72"
           style="fill:#ffffff"><path
             id="path74"
             style="fill:#ffffff;fill-opacity:1;fill-rule:nonzero;stroke:none"
             d="m 0,0 h 3.175 v -9.189 c 0,-2.201 0.752,-2.953 2.59,-2.953 1.782,0 3.035,0.948 3.035,3.175 V 0 h 3.175 V -14.759 H 8.911 v 1.42 H 8.855 C 8.521,-13.813 7.352,-15.177 5.04,-15.177 1.587,-15.177 0,-13.005 0,-9.552 Z" /></g><g
           transform="translate(223.3242,72.6826)"
           id="g76"
           style="fill:#ffffff"><path
             id="path78"
             style="fill:#ffffff;fill-opacity:1;fill-rule:nonzero;stroke:none"
             d="M 0,0 H -2.229 V 2.729 H 0.083 V 6.35 H 3.091 V 2.729 H 6.794 V 0 H 3.118 v -6.767 c 0,-1.531 0.307,-2.2 1.922,-2.2 h 1.17 v -3.062 H 4.789 C 1.086,-12.029 0,-10.358 0,-7.101 Z" /></g><g
           transform="translate(233.0996,80.9815)"
           id="g80"
           style="fill:#ffffff"><path
             id="path82"
             style="fill:#ffffff;fill-opacity:1;fill-rule:nonzero;stroke:none"
             d="m 0,0 h 3.174 v -7.018 h 0.055 c 0.641,0.975 2.368,1.867 3.956,1.867 3.118,0 5.318,-2.005 5.318,-5.403 v -9.774 H 9.356 v 9.022 c 0,1.838 -1.002,3.231 -3.035,3.231 -1.922,0 -3.147,-1.281 -3.147,-2.981 v -9.272 H 0 Z" /></g><path
           id="path84"
           style="fill:#ffffff;fill-opacity:1;fill-rule:nonzero;stroke:none"
           d="m 248.557,71.18 h 7.329 v -2.534 h -7.329 z" /><g
           transform="translate(258.8105,80.1465)"
           id="g86"
           style="fill:#ffffff"><path
             id="path88"
             style="fill:#ffffff;fill-opacity:1;fill-rule:nonzero;stroke:none"
             d="M 0,0 H 12.142 V -3.036 H 3.286 v -5.012 h 8.075 v -2.924 H 3.286 v -5.486 h 8.856 v -3.035 H 0 Z" /></g><g
           transform="translate(276.8008,64.7744)"
           id="g90"
           style="fill:#ffffff"><path
             id="path92"
             style="fill:#ffffff;fill-opacity:1;fill-rule:nonzero;stroke:none"
             d="m 0,0 c 0,-1.197 0.836,-1.782 2.423,-1.782 2.534,0 3.593,1.225 3.593,2.478 V 3.648 H 5.96 C 5.793,3.286 5.514,2.896 2.59,2.116 0.335,1.56 0,0.808 0,0 M 6.377,-2.646 H 6.321 C 6.183,-2.868 5.013,-4.539 2.145,-4.539 c -3.676,0 -5.208,2.089 -5.208,4.316 0,2.59 1.448,3.732 5.012,4.595 3.203,0.808 3.955,1.142 3.955,2.2 0,0.947 -0.807,1.754 -2.701,1.754 -2.256,0 -2.925,-1.28 -3.286,-2.59 l -2.701,1.031 c 0.585,2.339 2.478,4.289 5.903,4.289 3.286,0 5.959,-1.56 5.959,-5.625 V -4.121 H 6.377 Z" /></g><g
           transform="translate(291.3379,66.2784)"
           id="g94"
           style="fill:#ffffff"><path
             id="path96"
             style="fill:#ffffff;fill-opacity:1;fill-rule:nonzero;stroke:none"
             d="m 0,0 c 0.25,-2.172 1.476,-3.369 3.564,-3.369 2.005,0 3.119,0.751 3.119,1.893 0,1.169 -0.919,1.448 -4.066,2.339 -3.342,0.947 -4.957,2.089 -4.957,4.317 0,2.227 1.894,4.372 5.431,4.372 3.536,0 5.374,-1.838 6.043,-4.317 L 6.46,4.455 C 5.987,5.848 5.124,6.906 3.091,6.906 1.42,6.906 0.557,6.126 0.557,5.318 0.557,4.344 1.169,4.094 4.9,3.035 8.633,1.978 9.552,0.612 9.552,-1.531 c 0,-2.062 -1.699,-4.512 -5.876,-4.512 -4.345,0 -6.21,2.674 -6.572,5.347 z" /></g><g
           transform="translate(304.5674,72.6826)"
           id="g98"
           style="fill:#ffffff"><path
             id="path100"
             style="fill:#ffffff;fill-opacity:1;fill-rule:nonzero;stroke:none"
             d="M 0,0 H -2.229 V 2.729 H 0.083 V 6.35 H 3.091 V 2.729 H 6.794 V 0 H 3.118 v -6.767 c 0,-1.531 0.307,-2.2 1.922,-2.2 h 1.17 v -3.062 H 4.789 C 1.086,-12.029 0,-10.358 0,-7.101 Z" /></g><g
           transform="translate(323.3086,69.4805)"
           id="g102"
           style="fill:#ffffff"><path
             id="path104"
             style="fill:#ffffff;fill-opacity:1;fill-rule:nonzero;stroke:none"
             d="M 0,0 C -0.111,1.978 -1.253,3.537 -3.62,3.537 -5.903,3.537 -7.073,1.699 -7.185,0 Z M 2.646,-5.792 C 1.504,-7.63 -0.361,-9.245 -3.48,-9.245 c -4.01,0 -6.934,3.008 -6.934,7.797 0,4.79 2.924,7.798 6.794,7.798 3.844,0 6.712,-2.953 6.712,-7.798 V -2.395 H -7.212 c 0.083,-2.394 1.337,-4.038 3.676,-4.038 2.256,0 3.258,1.504 3.898,2.506 z" /></g><g
           transform="translate(329.6045,75.4121)"
           id="g106"
           style="fill:#ffffff"><path
             id="path108"
             style="fill:#ffffff;fill-opacity:1;fill-rule:nonzero;stroke:none"
             d="M 0,0 H 3.007 V -1.56 H 3.063 C 3.647,-0.418 4.873,0.278 6.126,0.278 6.655,0.278 7.101,0.14 7.435,0 L 6.934,-3.091 c -0.307,0.083 -0.668,0.223 -1.17,0.223 -1.671,0 -2.59,-1.114 -2.59,-3.676 v -8.215 H 0 Z" /></g><g
           transform="translate(339.6855,75.4121)"
           id="g110"
           style="fill:#ffffff"><path
             id="path112"
             style="fill:#ffffff;fill-opacity:1;fill-rule:nonzero;stroke:none"
             d="m 0,0 h 3.063 v -1.42 h 0.055 c 0.78,1.002 2.312,1.838 3.983,1.838 3.23,0 5.263,-2.033 5.263,-5.514 v -9.663 H 9.217 v 8.827 c 0,2.172 -0.779,3.426 -2.868,3.426 -1.95,0 -3.175,-1.198 -3.175,-3.092 v -9.161 H 0 Z" /></g><g
           transform="translate(362.4941,80.1465)"
           id="g114"
           style="fill:#ffffff"><path
             id="path116"
             style="fill:#ffffff;fill-opacity:1;fill-rule:nonzero;stroke:none"
             d="m 0,0 h 3.425 l 7.742,-13.785 h 0.056 V 0 h 3.285 V -19.493 H 11.167 L 3.342,-5.709 H 3.286 V -19.493 H 0 Z" /></g><g
           transform="translate(390.873,68.0323)"
           id="g118"
           style="fill:#ffffff"><path
             id="path120"
             style="fill:#ffffff;fill-opacity:1;fill-rule:nonzero;stroke:none"
             d="M 0,0 C 0,3.203 -1.532,4.93 -3.677,4.93 -5.82,4.93 -7.38,3.259 -7.38,0 c 0,-3.285 1.531,-4.929 3.703,-4.929 C -1.532,-4.929 0,-3.202 0,0 m -10.526,0 c 0,5.041 3.202,7.798 6.849,7.798 3.621,0 6.795,-2.757 6.795,-7.798 0,-5.04 -2.979,-7.797 -6.795,-7.797 -3.843,0 -6.849,2.757 -6.849,7.797" /></g><g
           transform="translate(397.1123,75.4121)"
           id="g122"
           style="fill:#ffffff"><path
             id="path124"
             style="fill:#ffffff;fill-opacity:1;fill-rule:nonzero;stroke:none"
             d="M 0,0 H 3.007 V -1.56 H 3.063 C 3.647,-0.418 4.873,0.278 6.126,0.278 6.655,0.278 7.101,0.14 7.435,0 L 6.934,-3.091 c -0.307,0.083 -0.668,0.223 -1.17,0.223 -1.671,0 -2.59,-1.114 -2.59,-3.676 v -8.215 H 0 Z" /></g><g
           transform="translate(406.0791,75.4121)"
           id="g126"
           style="fill:#ffffff"><path
             id="path128"
             style="fill:#ffffff;fill-opacity:1;fill-rule:nonzero;stroke:none"
             d="M 0,0 H 3.119 L 5.207,-10.275 H 5.264 L 8.771,0 h 2.87 l 3.285,-10.248 h 0.055 L 17.349,0 h 3.063 L 16.876,-14.759 H 13.813 L 10.22,-3.676 H 10.164 L 6.294,-14.759 H 3.258 Z" /></g><g
           transform="translate(431.2275,64.7744)"
           id="g130"
           style="fill:#ffffff"><path
             id="path132"
             style="fill:#ffffff;fill-opacity:1;fill-rule:nonzero;stroke:none"
             d="m 0,0 c 0,-1.197 0.836,-1.782 2.423,-1.782 2.534,0 3.593,1.225 3.593,2.478 V 3.648 H 5.96 C 5.793,3.286 5.514,2.896 2.59,2.116 0.335,1.56 0,0.808 0,0 M 6.377,-2.646 H 6.321 C 6.183,-2.868 5.013,-4.539 2.145,-4.539 c -3.676,0 -5.208,2.089 -5.208,4.316 0,2.59 1.448,3.732 5.012,4.595 3.203,0.808 3.955,1.142 3.955,2.2 0,0.947 -0.807,1.754 -2.701,1.754 -2.256,0 -2.924,-1.28 -3.286,-2.59 l -2.701,1.031 c 0.585,2.339 2.478,4.289 5.903,4.289 3.286,0 5.959,-1.56 5.959,-5.625 V -4.121 H 6.377 Z" /></g><g
           transform="translate(447.4355,61.3213)"
           id="g134"
           style="fill:#ffffff"><path
             id="path136"
             style="fill:#ffffff;fill-opacity:1;fill-rule:nonzero;stroke:none"
             d="m 0,0 -5.736,14.091 h 3.341 L 1.477,3.927 h 0.055 l 3.87,10.164 H 8.688 L 0.279,-6.934 h -3.063 z" /></g><path
           id="path138"
           style="fill:#ffffff;fill-opacity:1;fill-rule:nonzero;stroke:none"
           d="M 456.125,43.328 H 174.834 v 1.199 h 281.291 z" /><g
           transform="translate(42.5195,112.1826)"
           id="g140"
           style="fill:#ffffff"><path
             id="path142"
             style="fill:#ffffff;fill-opacity:1;fill-rule:nonzero;stroke:none"
             d="m 0,0 h 11.427 l 0.001,-42.599 c 0,-5.617 0.447,-9.742 2.87,-14.154 3.199,-5.824 8.818,-9.222 17.744,-9.222 14.396,0 18.974,7.537 18.974,13.884 0,8.621 -11.378,12.503 -22.17,17.518 -9.573,4.447 -11.72,11.72 -10.153,20.015 1.643,8.703 9.644,15.761 23.304,15.761 9.766,0 15.084,-0.967 21.322,-1.783 L 100.167,-49.128 100.168,0 113.537,-0.001 v -3.473 h -9.256 v -65.383 h -3.235 L 60.705,-15.97 v -19.909 c -1.034,1.338 -2.383,2.645 -4.112,3.938 v 21.62 c -1.349,4.343 -5.613,8.015 -14.403,8.237 -7.18,0.181 -13.489,-3.155 -14.61,-10.404 -1.473,-9.526 7.014,-11.842 18.188,-17.251 12.183,-5.898 15.181,-11.652 15.181,-18.178 0,-9.188 -10.056,-21.744 -29.001,-21.744 -10.381,0 -18.976,3.06 -24.564,8.758 C 1.287,-54.686 0,-49.44 0,-39.65 Z" /></g></g></g></g></svg>
