<?xml version="1.0" encoding="UTF-8" standalone="no"?>
<svg
   xmlns:dc="http://purl.org/dc/elements/1.1/"
   xmlns:cc="http://creativecommons.org/ns#"
   xmlns:rdf="http://www.w3.org/1999/02/22-rdf-syntax-ns#"
   xmlns:svg="http://www.w3.org/2000/svg"
   xmlns="http://www.w3.org/2000/svg"
   viewBox="0 0 302 72"
   version="1.1"
   id="svg6">
  <metadata
     id="metadata12">
    <rdf:RDF>
      <cc:Work
         rdf:about="">
        <dc:format>image/svg+xml</dc:format>
        <dc:type
           rdf:resource="http://purl.org/dc/dcmitype/StillImage" />
        <dc:title></dc:title>
      </cc:Work>
    </rdf:RDF>
  </metadata>
  <defs
     id="defs10" />
  <path
     id="formakademisk"
     d="M23.9 1.7a7.78 7.78 0 0 0-5.3 1.87l-4.18 3.74c-2.6 2.26-4.29 3.9-5.05 4.91a6.5 6.5 0 0 0-1 1.94c-.2.67-.37 1.8-.47 3.4a63.7 63.7 0 0 0-.15 4.04c0 .35-.16.62-.46.83-.1.09-1.7.93-4.77 2.52v1.7l4.7-.21.97.03v10.38c-.04 6.32-.14 10.08-.3 11.28-.08.67-.3 1.13-.7 1.38-.5.32-2.12.57-4.84.76v2.63c4.82-.12 7.95-.17 9.4-.17l11.8.17v-2.63c-3-.23-4.57-.36-4.7-.38-.56-.1-.95-.24-1.2-.45-.24-.2-.42-.47-.53-.8-.14-.46-.24-1.8-.3-4.05-.05-2.24-.08-4.6-.08-7.07V26.47c2-.07 3.21-.1 3.63-.1l1.73.07 3.5.07.55-3.08c.06-.41.15-.82.27-1.21l-.45-.35c-1.45.1-3.17.18-5.15.22l-4.08.03v-4.8c0-3.68.14-5.98.41-6.9.19-.62.56-1.12 1.1-1.48a5.8 5.8 0 0 1 3.2-.76c.92 0 1.68.12 2.28.36.6.24 1.24.69 1.93 1.33l1.39-.62c-.05-2.12.1-4.43.48-6.92-1.3-.42-2.5-.62-3.63-.62zm23.46 17.37c-3.55 0-6.66.66-9.34 1.96a13 13 0 0 0-6.01 5.8c-1.34 2.58-2 5.82-2 9.74 0 5.77 1.4 10.13 4.23 13.1 2.82 2.96 6.84 4.44 12.05 4.44 3.2 0 6.09-.6 8.65-1.8 1.5-.71 2.93-1.77 4.29-3.16a14.87 14.87 0 0 0 3.25-5.52 24.3 24.3 0 0 0 1.21-8.1c0-5.39-1.39-9.48-4.17-12.27-2.78-2.8-6.83-4.19-12.16-4.19zm61.5.28a28.16 28.16 0 0 1-4.46 1.66c-1.31.35-4.06.88-8.27 1.59v2.7c2.19.07 3.5.18 3.94.34.28.1.49.24.61.44.13.2.22 1.02.3 2.5.11 2.92.17 5.4.17 7.45v4.51c0 1.45-.02 2.5-.04 3.14l-.13 3.07a6.36 6.36 0 0 1-.38 2.48c-.17.28-.4.48-.73.6-.7.24-1.94.37-3.74.37v2.7a250 250 0 0 1 9.36-.14c3.5 0 6.49.05 8.97.14v-2.7c-1.82-.14-2.89-.25-3.21-.34a1.73 1.73 0 0 1-.94-.52c-.18-.23-.3-.78-.34-1.66a112.2 112.2 0 0 1-.17-7.15v-6.04c-.03-3.18.02-4.99.13-5.43a6.22 6.22 0 0 1 2.1-2.34 6.33 6.33 0 0 1 3.88-1.18c1.4 0 2.54.33 3.42.99a4.64 4.64 0 0 1 1.76 2.45c.29.98.43 2.64.43 4.99v4.9l-.07 6.12c0 1.89-.1 3.09-.25 3.6-.16.52-.37.87-.64 1.04a5 5 0 0 1-1.93.37c-.7.06-1.27.13-1.71.2v2.7c2.05-.1 5.22-.14 9.5-.14 3.86 0 6.81.05 8.86.14v-2.7l-2.81-.34c-.67-.1-1.1-.2-1.31-.32-.25-.16-.45-.4-.58-.72-.14-.32-.23-.9-.24-1.76l-.1-2.8-.08-3.45v-8.36c-.03-1.84.09-3.07.34-3.68a5.5 5.5 0 0 1 1.94-2.04 6.26 6.26 0 0 1 3.77-1.12c1.31 0 2.4.3 3.27.92a5 5 0 0 1 1.85 2.52c.37 1.08.55 3.66.55 7.77v2.62c0 1.83-.04 4-.13 6.54l-.39 6.26.49.66a63.2 63.2 0 0 1 5.95-.25c2.04 0 4.65.1 7.81.25v-2.7c-.93-.09-1.58-.15-1.95-.17-1.07-.07-1.75-.24-2.07-.5-.31-.27-.53-.91-.66-1.93-.13-1.03-.2-3.38-.2-7.07v-3.6a107.94 107.94 0 0 0 .11-6.05c0-2.3-.16-4-.51-5.1a8.9 8.9 0 0 0-4.9-5.4c-1.26-.58-3.03-.86-5.32-.86-.88 0-1.58.06-2.1.16s-1.15.3-1.88.6l-6.31 5.07c-.92-2.1-2.1-3.6-3.5-4.5-1.42-.88-3.51-1.33-6.27-1.33-.88 0-1.58.06-2.1.16-.51.1-1.14.3-1.87.6l-6.29 5.07v-5.58zm-28.66 0a28.48 28.48 0 0 1-4.49 1.66c-1.32.35-4.09.87-8.3 1.59v2.7c2.18.07 3.49.18 3.93.34.28.1.48.24.61.44.12.2.23 1.02.3 2.5.1 2.92.17 5.4.17 7.44v4.52c0 1.45-.01 2.5-.04 3.14l-.13 3.07a6.37 6.37 0 0 1-.38 2.48c-.16.28-.41.48-.73.59-.7.25-1.94.38-3.74.38v2.7c3.85-.12 7.57-.18 11.14-.18 3.2 0 6.11.06 8.72.18v-2.7l-2.84-.27a6.18 6.18 0 0 1-2.39-.49c-.36-.23-.6-.54-.7-.95-.1-.4-.17-1.49-.2-3.26l-.07-4.7v-3.45c0-3.38.05-5.32.14-5.83.19-.88.77-1.74 1.75-2.58a5.21 5.21 0 0 1 3.5-1.26c1.03 0 1.96.24 2.81.73.53.3 1.08.82 1.66 1.58l1.45-.44c.04-.4.09-1.93.14-4.6l.25-4.92a6.19 6.19 0 0 0-2.3-.4c-1.36 0-2.45.27-3.28.82-.59.4-1.49 1.3-2.68 2.73-.8 1.02-1.95 2.3-3.44 3.84l.08-6.99zm-33.7 3.28c1.61 0 3 .5 4.13 1.5 1.14.98 2 2.74 2.6 5.27.59 2.52.88 5.55.88 9.08 0 5.02-.74 8.41-2.21 10.16a5.58 5.58 0 0 1-4.5 1.97 5.86 5.86 0 0 1-5.12-2.59c-1.8-2.6-2.7-6.97-2.7-13.1 0-3.3.29-5.81.86-7.53.58-1.72 1.39-2.94 2.43-3.66a6.13 6.13 0 0 1 3.63-1.1zm126.28 16.45a575.13 575.13 0 0 1-5.83 13.43 5.63 5.63 0 0 1 1.37 0c.16-.59.4-1.33.73-2.23.32-.9.69-1.85 1.08-2.85l1.14-.03 1.14-.01 1.23.01 1.21.03.53 1.33.54 1.38a43.88 43.88 0 0 1 .85 2.37c.18-.02.34-.04.5-.04h.98c.16 0 .33.02.5.04a113.33 113.33 0 0 1-1.48-3.35 280.44 280.44 0 0 1-2.1-5.05l-1.07-2.62-.96-2.4zm31.3 0a882.69 882.69 0 0 1-5.85 13.43 5.6 5.6 0 0 1 1.38 0c.16-.59.4-1.33.73-2.23.33-.9.68-1.85 1.08-2.85l1.14-.03 1.14-.01 1.23.01 1.2.03.53 1.33.55 1.38a47.36 47.36 0 0 1 .85 2.37c.17-.02.34-.04.5-.04h.98c.16 0 .32.02.5.04-.17-.3-.37-.75-.63-1.34l-.85-2-1.02-2.43-1.09-2.63-1.05-2.62-.97-2.4zm44 0a182.88 182.88 0 0 1-1.32 10.15l-.5 3.28a5.03 5.03 0 0 1 1.3 0c0-.51.05-1.16.1-1.97a122.09 122.09 0 0 1 .52-5.29l.29-2.58h.04c.82 1.69 1.64 3.34 2.45 4.96.81 1.62 1.6 3.23 2.34 4.84h.17a73.7 73.7 0 0 1 2.36-5c.83-1.59 1.67-3.19 2.53-4.8h.04c.2 1.66.36 3.3.5 4.9.14 1.6.27 3.24.4 4.94.16-.02.3-.04.45-.04h.87c.15 0 .29.02.44.04a131.6 131.6 0 0 1-.4-3.21l-.38-3.28-.37-3.38c-.11-1.14-.24-2.33-.38-3.56h-.24l-1.01 1.9-1.09 2.07-1.08 2.09-1 1.9a122.5 122.5 0 0 0-1.36 2.62c-.95-1.8-1.88-3.57-2.75-5.28-.88-1.72-1.74-3.48-2.6-5.3zm31.71 0a4.9 4.9 0 0 0-1.67.27c-.5.18-.93.43-1.29.75-.35.32-.62.7-.8 1.14-.2.44-.28.93-.28 1.47 0 .76.14 1.35.44 1.8.3.45.65.82 1.09 1.1.43.3.9.53 1.4.72.5.2.98.4 1.41.64.44.23.8.52 1.1.86.29.35.43.81.43 1.4a3.02 3.02 0 0 1-.72 1.97 2.56 2.56 0 0 1-1.94.81 3.02 3.02 0 0 1-1.94-.65 3.81 3.81 0 0 1-1.01-1.34h-.23a5.48 5.48 0 0 1-.35 1.7c.32.28.72.51 1.2.72.48.22 1.1.32 1.88.32.72 0 1.36-.1 1.93-.32a3.93 3.93 0 0 0 2.33-2.27c.2-.52.3-1.08.3-1.67a2.91 2.91 0 0 0-1.52-2.72c-.44-.27-.9-.5-1.41-.68-.5-.19-.97-.4-1.4-.63a3.8 3.8 0 0 1-1.1-.88 2.15 2.15 0 0 1-.44-1.42c0-.34.06-.66.18-.96a2.18 2.18 0 0 1 1.27-1.24 2.54 2.54 0 0 1 1.85 0 2.46 2.46 0 0 1 1.08 1.04c.1.21.19.4.25.59h.22a4.87 4.87 0 0 1 .5-1.61c-.37-.31-.77-.54-1.2-.69a4.83 4.83 0 0 0-1.56-.22zm-64.03.25l.1 2.49c.04.8.06 1.64.06 2.48v3.3c0 .84-.02 1.68-.05 2.5l-.1 2.41c.41-.02.83-.04 1.24-.04h1.25l1.25.02 1.25.02c.73 0 1.5-.11 2.3-.34a6.05 6.05 0 0 0 3.84-3.26c.44-.87.65-1.95.65-3.23 0-.98-.12-1.87-.35-2.66a4.81 4.81 0 0 0-3-3.25 7.94 7.94 0 0 0-2.8-.44c-.48 0-.95.01-1.41.05a20.53 20.53 0 0 1-2.82.02l-1.4-.07zm18.24 0c.05.82.07 1.64.1 2.46.03.82.05 1.65.05 2.5v3.3c0 .84-.02 1.66-.05 2.48l-.1 2.44c.57-.02 1.13-.04 1.7-.04h3.38a36 36 0 0 1 1.67.04c-.04-.13-.06-.29-.06-.5v-.3c0-.1.02-.2.05-.3-.3.07-.65.12-1.05.15a43.92 43.92 0 0 1-2.68.1h-1.3c0-.23-.04-.6-.04-1.07v-4.2l.01-.38.9.01 1.22.02a34.82 34.82 0 0 1 2.41.14 2.82 2.82 0 0 1 0-1.17l-.86.07-1 .06a43.15 43.15 0 0 1-2.67.06V42.67c0-.47 0-.9.02-1.26l.05-1.18a38.07 38.07 0 0 1 3.82.18l1.09.07a2.85 2.85 0 0 1 0-1.15 168.75 168.75 0 0 1-3.32.1 46.23 46.23 0 0 1-3.34-.1zm33.36 0l.1 2.49c.03.8.05 1.64.05 2.48v3.3c0 .84-.02 1.68-.05 2.5l-.1 2.41a10.06 10.06 0 0 1 1.82 0l-.1-2.42c-.03-.81-.05-1.65-.05-2.49v-3.3c0-.84.02-1.67.05-2.48l.1-2.49a18.27 18.27 0 0 1-.9.1 9.63 9.63 0 0 1-.91-.1zm-82.89 0c.04.84.08 1.67.1 2.48.04.82.06 1.65.06 2.5v3.3c0 .83-.02 1.67-.05 2.48l-.1 2.42a10.55 10.55 0 0 1 1.82 0 102.36 102.36 0 0 1-.15-4.9v-1.68c0-.07.03-.11.1-.11.05 0 .12.05.22.15.2.2.5.56.93 1.06a631.34 631.34 0 0 1 4.46 5.48c.17-.02.35-.04.51-.04h1.08a4 4 0 0 1 .55.04c-1.05-1.22-2.1-2.42-3.12-3.63s-2.04-2.4-3.05-3.56c.34-.4.76-.86 1.26-1.4a87.72 87.72 0 0 1 4.7-4.59 6.87 6.87 0 0 1-.89.1l-.37-.03-.4-.07a164.76 164.76 0 0 1-2.79 3.18c-.48.53-.96 1.03-1.44 1.52a26 26 0 0 1-1.37 1.3c-.13.12-.22.18-.26.18-.08 0-.11-.05-.11-.16V44.3c0-.84.02-1.67.05-2.49l.1-2.48a10.06 10.06 0 0 1-.91.1l-.45-.03-.47-.07zm104.85 0l.1 2.48c.04.82.05 1.65.05 2.5v3.3c0 .83 0 1.67-.04 2.48l-.1 2.42a10.35 10.35 0 0 1 1.82 0c-.05-.8-.08-1.6-.1-2.42-.03-.81-.05-1.65-.05-2.49v-1.67c0-.07.03-.11.09-.11.05 0 .13.05.23.15.2.2.5.56.92 1.06l1.4 1.7 1.58 1.98 1.48 1.8c.18-.02.35-.04.52-.04H298.29c.19 0 .37.01.56.04-1.06-1.22-2.1-2.42-3.12-3.63l-3.05-3.56c.33-.4.75-.86 1.26-1.4a79.11 79.11 0 0 1 3.23-3.23c.55-.52 1.04-.98 1.47-1.36a7.25 7.25 0 0 1-.9.1 6.14 6.14 0 0 1-.77-.1l-1.34 1.59a88.02 88.02 0 0 1-2.89 3.11c-.48.49-.94.92-1.37 1.3-.12.12-.2.18-.26.18-.07 0-.11-.05-.11-.16V44.3c0-.84.02-1.67.05-2.49l.1-2.48a10.8 10.8 0 0 1-.91.1l-.45-.03-.46-.07zm-68.9.8c.78 0 1.48.09 2.13.25.65.16 1.2.44 1.67.86.46.42.83.98 1.1 1.7.27.71.4 1.63.4 2.74a8 8 0 0 1-.51 3.1c-.35.8-.79 1.43-1.33 1.89a4.4 4.4 0 0 1-1.83.94c-.69.16-1.37.25-2.05.25-.48 0-.94-.02-1.38-.05-.45-.03-.8-.08-1.07-.14a67.7 67.7 0 0 1-.11-4.07v-3.3a46.23 46.23 0 0 1 .12-3.97 24.1 24.1 0 0 1 2.87-.2zm-47.9 1.54l2.07 4.87-1.05.03-1.04.01c-.32 0-.66 0-1-.02l-1.01-.01zm31.29 0l2.07 4.87-1.05.03-1.04.01c-.32 0-.66 0-1-.02a35.1 35.1 0 0 0-1.02-.01z"
     fill="#fff" />
  <g
     id="academic-forskningstidsskrift"
     opacity=".8"
     fill="#fff"
     style="stroke:#ffffff">
    <path
       d="M190 20.77c-1.02 0-1.97.15-2.82.46a6.05 6.05 0 0 0-3.65 3.5 7.71 7.71 0 0 0-.51 2.9c0 1.1.17 2.06.51 2.91a5.72 5.72 0 0 0 3.57 3.47 8.4 8.4 0 0 0 5.2.06c.33-.1.63-.2.87-.32.24-.13.42-.24.53-.34l.17-1.13-.08-.08-.64.5a6.83 6.83 0 0 1-1.9.92 5.63 5.63 0 0 1-3.28-.19 4.31 4.31 0 0 1-1.64-1.13 5.17 5.17 0 0 1-1.1-1.91 8.51 8.51 0 0 1-.39-2.75c0-1.07.13-1.98.4-2.76.25-.77.62-1.41 1.09-1.92a4.3 4.3 0 0 1 1.63-1.12c.63-.24 1.31-.36 2.04-.36.45 0 .87.06 1.24.18a4.91 4.91 0 0 1 2.3 1.52l.12-.04c.04-.2.1-.45.15-.76.06-.3.14-.55.24-.73a9.07 9.07 0 0 0-4.05-.88zm92.01 0a8.3 8.3 0 0 0-2.83.46 6.08 6.08 0 0 0-3.65 3.5 7.77 7.77 0 0 0-.51 2.9c0 1.1.17 2.06.51 2.91a5.72 5.72 0 0 0 3.57 3.47 8.4 8.4 0 0 0 5.2.06c.34-.1.63-.2.87-.32.25-.13.42-.24.54-.34l.16-1.13-.08-.08-.64.5a6.4 6.4 0 0 1-1.9.92 5.66 5.66 0 0 1-3.28-.19 4.34 4.34 0 0 1-1.65-1.13 5.16 5.16 0 0 1-1.09-1.91 8.65 8.65 0 0 1-.39-2.75c0-1.07.13-1.98.4-2.76a5.2 5.2 0 0 1 1.08-1.92c.47-.5 1.02-.88 1.64-1.12.63-.24 1.31-.36 2.04-.36.45 0 .87.06 1.24.18a5.06 5.06 0 0 1 2.31 1.52l.11-.04.15-.76c.06-.3.14-.55.24-.73a9.12 9.12 0 0 0-4.05-.88zm-109.23 0a548.3 548.3 0 0 1-5.83 13.43 5.88 5.88 0 0 1 1.37 0c.17-.6.4-1.34.73-2.24.32-.9.69-1.85 1.08-2.85l1.14-.03h2.37l1.21.03.53 1.33.54 1.38a42.7 42.7 0 0 1 .85 2.37l.5-.03h.98l.5.03a128.85 128.85 0 0 1-1.48-3.35 249.62 249.62 0 0 1-2.1-5.05l-1.07-2.62-.97-2.4zm30.94 0a907.16 907.16 0 0 1-5.84 13.42 5.92 5.92 0 0 1 1.38 0c.16-.58.4-1.33.73-2.23.32-.9.68-1.85 1.08-2.85l1.14-.03h2.36l1.21.03.53 1.33.55 1.38a73.5 73.5 0 0 1 .85 2.37l.49-.03h.99l.5.03c-.17-.3-.38-.75-.63-1.34l-.86-2a253.17 253.17 0 0 1-2.1-5.06l-1.06-2.62-.97-2.4zm44 0a140.67 140.67 0 0 1-.8 6.67l-.5 3.47-.5 3.28a5.26 5.26 0 0 1 1.3 0c0-.5.03-1.16.1-1.96a114.3 114.3 0 0 1 .5-5.3l.3-2.58h.03c.82 1.7 1.64 3.34 2.45 4.96.82 1.62 1.6 3.23 2.35 4.85h.16c.75-1.74 1.53-3.41 2.36-5 .83-1.6 1.67-3.2 2.53-4.8h.04c.2 1.66.37 3.28.5 4.88l.41 4.95.44-.03h.88l.44.03c-.15-1.06-.29-2.13-.41-3.21l-.38-3.28a560.28 560.28 0 0 1-.75-6.93h-.24l-1 1.9-1.1 2.07-1.08 2.08c-.35.68-.68 1.32-1 1.9l-.81 1.57-.55 1.05c-.95-1.81-1.87-3.57-2.74-5.28-.88-1.71-1.75-3.48-2.6-5.3zM215.4 21c.04.85.08 1.67.1 2.49.03.8.05 1.64.05 2.48v3.3c0 .85-.02 1.68-.05 2.5l-.1 2.41c.42-.02.84-.04 1.25-.04h1.25l1.25.02 1.25.02c.73 0 1.5-.1 2.3-.33a6.1 6.1 0 0 0 3.84-3.27c.43-.87.64-1.95.64-3.22 0-.99-.11-1.88-.34-2.67a4.91 4.91 0 0 0-1.1-1.99 4.88 4.88 0 0 0-1.9-1.25 7.92 7.92 0 0 0-2.81-.45c-.47 0-.94.02-1.4.05a32.87 32.87 0 0 1-4.23-.05zm51.6 0l.1 2.49c.03.8.05 1.64.05 2.48v3.3c0 .85-.02 1.68-.05 2.5l-.1 2.41a10.16 10.16 0 0 1 1.82 0 107.46 107.46 0 0 1-.15-4.9v-3.3c0-.85.02-1.68.05-2.5l.1-2.48-.46.07a3.37 3.37 0 0 1-.9 0l-.47-.07zm-33.37 0a133.2 133.2 0 0 1 .16 4.95v3.3c0 .84-.02 1.67-.05 2.49l-.1 2.44a38.7 38.7 0 0 1 1.69-.04h3.38c.56 0 1.12.02 1.67.04-.04-.13-.06-.3-.06-.5v-.3c.01-.1.02-.2.05-.3-.3.07-.65.12-1.05.15a32.95 32.95 0 0 1-2.68.1h-1.3c-.02-.24-.03-.6-.03-1.07l-.01-1.8v-1.9-.88h.9c.39.02.8.02 1.22.03a39.48 39.48 0 0 1 2.42.14 2.85 2.85 0 0 1 0-1.17l-.87.07a86.52 86.52 0 0 1-2.2.1c-.42.02-.92.02-1.46.02v-1.07l-.01-1.46c0-.47 0-.9.03-1.27l.05-1.17a38.5 38.5 0 0 1 2.77.1l1.04.08 1.09.07a2.8 2.8 0 0 1 0-1.15l-1.66.07a45.5 45.5 0 0 1-3.33 0l-1.67-.07zm-13.57.8c.77 0 1.48.08 2.12.25.65.16 1.2.45 1.68.86.46.42.83.98 1.1 1.7.26.71.4 1.63.4 2.74 0 1.27-.18 2.3-.52 3.1a4.42 4.42 0 0 1-3.16 2.83c-.68.17-1.36.25-2.05.25-.47 0-.93-.02-1.38-.05-.45-.03-.8-.08-1.06-.14-.08-1.33-.11-2.69-.11-4.07v-3.3c0-.69 0-1.37.03-2.04.02-.67.05-1.32.09-1.93a24.18 24.18 0 0 1 2.87-.2zm-47.55 1.54l2.07 4.88-1.05.02-1.04.01-1-.01-1.01-.02zm30.93 0l2.08 4.88-1.05.02-1.04.01-1-.01-1.02-.02zM10.69 62.79c-1.13 0-2.06.33-2.78 1.01a3.6 3.6 0 0 0-1.13 2.75c0 1.14.35 2.05 1.06 2.73a3.94 3.94 0 0 0 2.82 1.01c1.2 0 2.16-.35 2.9-1.06a3.75 3.75 0 0 0 1.13-2.83 3.3 3.3 0 0 0-1.26-2.76 4.33 4.33 0 0 0-2.74-.85zm13.89 0c-.67 0-1.22.17-1.65.5-.46.37-.7.88-.7 1.52 0 .68.29 1.19.86 1.53l1.6.71c.56.3.85.71.85 1.25 0 .43-.14.8-.42 1.1-.28.29-.63.44-1.05.44-.4 0-.73-.1-1.01-.3a2.7 2.7 0 0 1-.7-.8h-.1a7.24 7.24 0 0 1-.2.94c.16.18.42.33.76.44.35.11.67.17.95.17.76 0 1.37-.2 1.85-.63.5-.44.76-1.04.76-1.77a1.6 1.6 0 0 0-.86-1.46l-1.6-.7c-.58-.3-.86-.72-.86-1.25 0-.37.12-.66.38-.89.26-.23.57-.35.95-.35.31 0 .58.08.8.24.22.16.4.38.5.68h.11l.16-.55.12-.32c-.19-.17-.41-.3-.68-.38a2.73 2.73 0 0 0-.82-.12zm39.3 0c-.68 0-1.23.17-1.65.5-.47.37-.7.88-.7 1.52 0 .68.28 1.19.85 1.53l1.6.71c.57.3.85.71.85 1.25 0 .43-.14.8-.42 1.1-.27.29-.62.44-1.04.44-.4 0-.74-.1-1.02-.3a2.69 2.69 0 0 1-.7-.8h-.1a6.58 6.58 0 0 1-.2.94c.17.18.43.33.77.44.35.11.66.17.95.17.75 0 1.37-.2 1.85-.63.5-.44.76-1.04.76-1.77a1.6 1.6 0 0 0-.87-1.46l-1.6-.7c-.57-.3-.86-.72-.86-1.25 0-.37.13-.66.38-.89.26-.23.58-.35.95-.35.32 0 .59.08.8.24.23.16.4.38.51.68h.1a18.1 18.1 0 0 1 .3-.87c-.2-.17-.43-.3-.7-.38a2.74 2.74 0 0 0-.82-.12zm22.29 0c-.67 0-1.22.17-1.65.5-.47.37-.7.88-.7 1.52 0 .68.29 1.19.86 1.53l1.6.71c.56.3.85.71.85 1.25 0 .43-.14.8-.43 1.1-.27.29-.62.44-1.04.44-.4 0-.73-.1-1.01-.3a2.7 2.7 0 0 1-.7-.8h-.1a7.24 7.24 0 0 1-.2.94c.16.18.42.33.76.44.35.11.67.17.95.17.76 0 1.37-.2 1.85-.63.5-.44.76-1.04.76-1.77a1.6 1.6 0 0 0-.86-1.46l-1.61-.7c-.57-.3-.85-.72-.85-1.25 0-.37.12-.66.38-.89.26-.23.57-.35.94-.35.32 0 .59.08.8.24.23.16.4.38.51.68h.11l.16-.55.12-.32c-.19-.17-.41-.3-.68-.38a2.73 2.73 0 0 0-.82-.12zm5.27 0c-.67 0-1.22.17-1.64.5-.47.37-.7.88-.7 1.52 0 .68.28 1.19.85 1.53l1.6.71c.57.3.85.71.85 1.25 0 .43-.14.8-.42 1.1-.27.29-.62.44-1.04.44-.4 0-.74-.1-1.02-.3a2.7 2.7 0 0 1-.7-.8h-.1a6.71 6.71 0 0 1-.2.94c.17.18.43.33.77.44.35.11.66.17.95.17.75 0 1.37-.2 1.85-.63.5-.44.76-1.04.76-1.77a1.6 1.6 0 0 0-.87-1.46l-1.6-.7c-.57-.3-.86-.72-.86-1.25 0-.37.13-.66.38-.89.26-.23.58-.35.95-.35.32 0 .59.08.8.24.23.16.4.38.51.68h.1a17.55 17.55 0 0 1 .3-.87c-.2-.17-.43-.3-.7-.38a2.74 2.74 0 0 0-.82-.12zm41.82 0c-1.12 0-2.05.33-2.77 1.01a3.6 3.6 0 0 0-1.13 2.75c0 1.14.35 2.05 1.05 2.73a3.94 3.94 0 0 0 2.83 1.01c1.19 0 2.16-.35 2.9-1.06a3.75 3.75 0 0 0 1.12-2.83 3.3 3.3 0 0 0-1.25-2.76 4.33 4.33 0 0 0-2.75-.85zm30.31 0c-.66 0-1.21.17-1.64.5-.47.37-.7.88-.7 1.52 0 .68.28 1.19.85 1.53l1.6.71c.57.3.85.71.85 1.25 0 .43-.14.8-.42 1.1-.27.29-.62.44-1.04.44-.4 0-.73-.1-1.02-.3a2.68 2.68 0 0 1-.7-.8h-.1l-.08.52-.11.42c.17.18.42.33.77.44.34.11.66.17.95.17.75 0 1.37-.2 1.85-.63.5-.44.76-1.04.76-1.77a1.6 1.6 0 0 0-.87-1.46l-1.6-.7c-.57-.3-.86-.72-.86-1.25 0-.37.13-.66.38-.89.26-.23.58-.35.95-.35.32 0 .59.08.8.24.23.16.4.38.51.68h.1l.16-.55.13-.32c-.19-.17-.42-.3-.69-.38a2.72 2.72 0 0 0-.82-.12zm28.93 0c-1.13 0-2.05.33-2.78 1.01a3.6 3.6 0 0 0-1.13 2.75c0 1.14.35 2.05 1.06 2.73a3.94 3.94 0 0 0 2.83 1.01c1.19 0 2.15-.35 2.9-1.06a3.75 3.75 0 0 0 1.12-2.83 3.3 3.3 0 0 0-1.26-2.76 4.33 4.33 0 0 0-2.74-.85zm32.07 0c-.67 0-1.22.17-1.64.5-.47.37-.7.88-.7 1.52 0 .68.28 1.19.85 1.53l1.6.71c.57.3.85.71.85 1.25 0 .43-.14.8-.42 1.1-.27.29-.62.44-1.05.44-.39 0-.73-.1-1-.3a2.7 2.7 0 0 1-.7-.8h-.1l-.09.52-.11.42c.16.18.42.33.76.44.35.11.67.17.96.17.75 0 1.36-.2 1.84-.63.51-.44.76-1.04.76-1.77a1.6 1.6 0 0 0-.86-1.46l-1.6-.7c-.58-.3-.86-.72-.86-1.25 0-.37.12-.66.38-.89.26-.23.57-.35.95-.35.31 0 .58.08.8.24.22.16.4.38.5.68h.11l.16-.55.13-.32c-.2-.17-.42-.3-.69-.38a2.74 2.74 0 0 0-.82-.12zm43.88 0l-3.3 7.38.38-.04.39.04c.13-.46.25-.83.36-1.11l.68-1.75h2.68a36.7 36.7 0 0 1 1.11 2.86l.56-.04.55.04-3.16-7.38zm-211 0c-1.21 0-2.2.32-2.94.96a3.51 3.51 0 0 0-1.17 2.8c0 1.12.32 2.01.95 2.67.68.72 1.66 1.07 2.94 1.07.98 0 1.94-.16 2.87-.49v-2.98l-.46.03-.46-.03v2.71c-.24.12-.5.21-.78.28-.29.05-.58.08-.87.08-1.03 0-1.81-.3-2.35-.89-.54-.6-.8-1.43-.8-2.5 0-1.04.27-1.86.82-2.44.55-.58 1.3-.87 2.21-.87.46 0 .9.09 1.31.26.42.18.78.43 1.07.76h.11l.13-.46.12-.35a3.36 3.36 0 0 0-.85-.37 6.45 6.45 0 0 0-1.84-.24zm116.13 0c-1.21 0-2.2.32-2.94.96a3.52 3.52 0 0 0-1.17 2.8c0 1.12.31 2.01.95 2.67.68.72 1.66 1.07 2.94 1.07.98 0 1.94-.16 2.87-.49v-2.98l-.46.03-.46-.03v2.71c-.24.12-.5.21-.79.28-.28.05-.57.08-.86.08-1.03 0-1.81-.3-2.36-.89-.53-.6-.8-1.43-.8-2.5 0-1.04.28-1.86.83-2.44.55-.58 1.29-.87 2.21-.87.46 0 .9.09 1.31.26.42.18.78.43 1.07.76h.11c.04-.15.1-.3.13-.46l.12-.35a3.35 3.35 0 0 0-.85-.37 6.46 6.46 0 0 0-1.85-.24zm28.15 0c-1.21 0-2.2.32-2.94.96a3.52 3.52 0 0 0-1.17 2.8c0 1.12.32 2.01.95 2.67.68.72 1.66 1.07 2.94 1.07.98 0 1.94-.16 2.88-.49v-2.98l-.47.03-.46-.03v2.71c-.24.12-.5.21-.79.28a4.4 4.4 0 0 1-.86.08c-1.03 0-1.81-.3-2.35-.89-.54-.6-.8-1.43-.8-2.5 0-1.04.27-1.86.82-2.44.55-.58 1.3-.87 2.21-.87.46 0 .9.09 1.31.26.42.18.78.43 1.07.76h.11c.04-.15.1-.3.13-.46l.12-.35a3.35 3.35 0 0 0-.85-.37 6.47 6.47 0 0 0-1.85-.24zm32.85 0c-1.22 0-2.2.32-2.94.96a3.52 3.52 0 0 0-1.17 2.8c0 1.12.31 2.01.95 2.67.68.72 1.66 1.07 2.94 1.07.98 0 1.94-.16 2.87-.49v-2.98l-.46.03-.47-.03v2.71c-.23.12-.49.21-.78.28a4.4 4.4 0 0 1-.86.08c-1.03 0-1.81-.3-2.36-.89-.53-.6-.8-1.43-.8-2.5 0-1.04.28-1.86.82-2.44.56-.58 1.3-.87 2.22-.87.46 0 .9.09 1.3.26.43.18.79.43 1.07.76h.12l.13-.46.11-.35a3.33 3.33 0 0 0-.84-.37 6.47 6.47 0 0 0-1.85-.24zM2 62.95v7.22l.46-.04.47.03v-3.6h1.63c.05 0 .19 0 .42.03l.52.02-.03-.3.03-.27c-.05 0-.18 0-.4.03l-.54.02H2.93v-2.65h.81l1.06.02a5.86 5.86 0 0 1 .95.11l-.04-.3.03-.32zm14.08 0v7.22l.46-.04.47.04v-3.53h.4l.84 1 1.25 1.6.66.93.6-.04.62.04-.2-.27-.51-.59-2.17-2.76a3.31 3.31 0 0 0 1.48-.6c.45-.36.68-.83.68-1.4 0-.54-.19-.94-.57-1.2-.38-.27-.97-.4-1.77-.4zm11.74 0v7.22l.46-.04.47.04v-3.69l.04-.02c.05.01.1.02.14.05l2.3 2.7a10.5 10.5 0 0 1 .73.96l.59-.04.58.04v-.06l-.86-1.05-2.56-2.9.9-.91 2.39-2.3-.41.03-.42-.03-2.6 2.68a11.32 11.32 0 0 1-.55.52.46.46 0 0 1-.18.08c-.05.01-.09 0-.1-.02v-3.26l-.46.03zm6.54 0v7.22l.3-.04.3.04v-5.7h.1l4.56 5.05.55.65h.31v-7.22l-.3.03-.29-.03v5.43h-.1l-5.02-5.43zm8.16 0v7.22l.46-.04.47.04v-7.22l-.47.03zm2.99 0v7.22l.3-.04.29.04v-5.7h.1l4.56 5.05.55.65h.32v-7.22l-.3.03-.3-.03v5.43h-.1l-5.01-5.43zm20.85 0l.04.31-.04.32a21.45 21.45 0 0 1 2.31-.13v6.74l.47-.03.46.03v-6.74a16.53 16.53 0 0 1 2.2.13l-.02-.32.03-.31zm6.66 0v7.22l.47-.04.46.04v-7.22l-.46.03zm3 0v7.18h2.05c.91 0 1.6-.06 2.05-.2.45-.14.83-.34 1.14-.6a3.83 3.83 0 0 0 1.33-3.11c0-.52-.1-1.02-.29-1.48a2.8 2.8 0 0 0-1.67-1.62 5.13 5.13 0 0 0-1.5-.17h-.72zm18.66 0v7.22l.47-.04.46.04v-3.69l.05-.02c.05.01.1.02.13.05l2.3 2.7a10.37 10.37 0 0 1 .73.96l.6-.04.57.04v-.06l-.85-1.05a503.2 503.2 0 0 1-2.57-2.9l.9-.91 2.4-2.3-.42.03-.42-.03-2.6 2.68-.2.19-.34.32a.46.46 0 0 1-.18.09c-.06.01-.09 0-.1-.02v-3.26l-.46.03zm6.44 0v7.22l.47-.04.46.04v-3.53h.4l.85 1 1.24 1.6.67.93.6-.04.61.04-.2-.27-.5-.59-2.18-2.76a3.31 3.31 0 0 0 1.49-.6c.45-.36.67-.83.67-1.4 0-.54-.19-.94-.57-1.2-.38-.27-.97-.4-1.77-.4zm6.5 0v7.22l.47-.04.46.04v-7.22l-.46.03zm2.88 0v7.22l.46-.04.46.03v-3.6h1.64a8.98 8.98 0 0 0 .94.05l-.03-.3.03-.27c-.05 0-.19 0-.41.03l-.53.02h-1.64v-2.65h.82l1.05.02a6.27 6.27 0 0 1 .95.11l-.03-.3.03-.33zm4.55 0l.03.31-.03.32a21.55 21.55 0 0 1 2.31-.13v6.74l.46-.03.46.03v-6.74a16.47 16.47 0 0 1 2.21.13l-.03-.32.03-.31zm9.53 0v7.22l.46-.04.46.03v-3.6h1.64a8.99 8.99 0 0 0 .94.05l-.03-.3.03-.27c-.05 0-.19 0-.41.03l-.53.02h-1.64v-2.65h.81l1.06.02a6.2 6.2 0 0 1 .95.11l-.03-.3.03-.33zm14.08 0v7.22l.46-.04.47.04v-3.53h.4l.84 1 1.25 1.6.66.93.6-.04.62.04-.2-.27-.51-.59-2.18-2.76a3.32 3.32 0 0 0 1.5-.6c.44-.36.67-.83.67-1.4 0-.54-.2-.94-.57-1.2-.38-.27-.97-.4-1.78-.4zm9.49 0v7.18h2.05c.92 0 1.6-.06 2.05-.2.46-.14.84-.34 1.14-.6a3.86 3.86 0 0 0 1.33-3.11c0-.52-.1-1.02-.29-1.48a2.78 2.78 0 0 0-1.66-1.62 5.13 5.13 0 0 0-1.51-.17h-.72zm8.09 0v7.18h3.81l-.03-.31.03-.32-.54.08-.43.02-.81.02-1.1.02v-3.09h1.64a9.02 9.02 0 0 0 .94.05l-.03-.29.03-.27-.42.03c-.21.02-.39.02-.52.02h-1.64v-2.65h.81l1.06.02a6.31 6.31 0 0 1 .95.12l-.03-.32.03-.31zm10.62 0v7.22l.46-.04.47.04v-7.22l-.47.03zm11.2 0v7.22l.3-.04.3.04v-5.7h.1l4.55 5.05.55.65h.32v-7.22l-.3.03-.3-.03v5.43h-.1l-5.01-5.43zm31.08 0v7.18h2.06c.92 0 1.6-.06 2.05-.2.46-.14.84-.34 1.14-.6a3.83 3.83 0 0 0 1.33-3.11c0-.52-.1-1.02-.29-1.48a2.77 2.77 0 0 0-1.66-1.62 5.13 5.13 0 0 0-1.51-.17h-.72zm8.1 0v7.18h3.81l-.04-.31.04-.32-.54.08-.43.02-.82.02-1.1.02v-3.09h1.64a9.05 9.05 0 0 0 .94.05l-.03-.29.03-.27-.4.03c-.23.02-.4.02-.54.02h-1.63v-2.65h.81l1.06.02a6.16 6.16 0 0 1 .95.12l-.04-.32.03-.31zm10.62 0v7.22l.46-.04.47.04v-7.22l-.47.03zm11.2 0v7.22l.3-.04.29.04v-5.7h.1l4.56 5.05.55.65h.32v-7.22l-.3.03-.3-.03v5.43h-.1l-5.01-5.43zm8.2 0v7.18h2.07c.91 0 1.6-.06 2.04-.2.46-.14.84-.34 1.14-.6a3.85 3.85 0 0 0 1.33-3.11c0-.52-.1-1.02-.28-1.48a2.79 2.79 0 0 0-1.67-1.62 5.13 5.13 0 0 0-1.5-.17h-.73zm8.17 0v7.22l.46-.04.47.04v-7.22l-.47.03zm2.98 0v7.18h2.06c.92 0 1.6-.06 2.05-.2.46-.14.84-.34 1.14-.6a3.83 3.83 0 0 0 1.33-3.11c0-.52-.1-1.02-.29-1.48a2.77 2.77 0 0 0-1.66-1.62 5.15 5.15 0 0 0-1.51-.17h-.72zm14.58 0v7.22l.46-.04.47.04v-3.69l.04-.02c.06.01.1.02.14.05l2.3 2.7a9.46 9.46 0 0 1 .73.96l.59-.04.58.04v-.06l-.86-1.05-2.56-2.9.9-.91 2.4-2.3-.43.03-.42-.03-2.6 2.68a8.48 8.48 0 0 1-.55.52.54.54 0 0 1-.17.08c-.06.01-.1 0-.1-.02v-3.26l-.46.03zm5.7 0l.03.31-.03.32a21.57 21.57 0 0 1 2.3-.13v6.74l.48-.03.46.03v-6.74a16.54 16.54 0 0 1 2.2.13l-.03-.32.04-.31zm6.66 0v7.22l.46-.04.47.04v-7.22l-.47.03zm2.9 0v7.22l.46-.04.46.04v-3.69l.04-.02c.06.01.1.02.14.05l2.3 2.7a11.67 11.67 0 0 1 .73.96l.6-.04.57.04v-.06l-.85-1.05-2.57-2.9.9-.91 2.4-2.3-.42.03-.43-.03-2.6 2.68a8.94 8.94 0 0 1-.55.52.53.53 0 0 1-.17.08c-.06.01-.1 0-.1-.02v-3.26l-.45.03zm6.44 0v7.22l.47-.04.46.04v-3.69l.04-.02c.06.01.1.02.14.05l2.3 2.7a10.84 10.84 0 0 1 .73.96l.6-.04.57.04v-.06l-.85-1.05-2.57-2.9.9-.91 2.4-2.3-.42.03-.43-.03-2.6 2.68-.2.19-.34.32a.54.54 0 0 1-.18.09c-.06.01-.1 0-.1-.02v-3.26l-.46.03zm-283.9.19c.44 0 .85.08 1.23.26s.7.43.97.76c.26.33.43.68.52 1.05.1.37.14.8.14 1.27 0 .78-.21 1.5-.64 2.18a2.6 2.6 0 0 1-2.31 1.28 2.7 2.7 0 0 1-2.04-.82 3.4 3.4 0 0 1-.84-2.44c0-1.08.26-1.93.79-2.57a2.68 2.68 0 0 1 2.18-.97zm122.58 0c.43 0 .84.08 1.22.26a2.78 2.78 0 0 1 1.5 1.82c.1.36.14.78.14 1.26 0 .78-.22 1.5-.65 2.18a2.6 2.6 0 0 1-2.3 1.28 2.7 2.7 0 0 1-2.05-.82 3.4 3.4 0 0 1-.84-2.44c0-1.08.27-1.93.8-2.57a2.68 2.68 0 0 1 2.18-.97zm59.23 0c.44 0 .85.08 1.23.26s.7.43.97.76c.26.33.43.68.52 1.05.1.37.14.8.14 1.27 0 .78-.21 1.5-.64 2.18a2.6 2.6 0 0 1-2.31 1.28 2.7 2.7 0 0 1-2.04-.82c-.56-.6-.84-1.4-.84-2.44 0-1.08.26-1.93.79-2.57a2.68 2.68 0 0 1 2.18-.97zm-174.59.17a4 4 0 0 1 .55.04c.77.12 1.16.57 1.16 1.33 0 .39-.13.72-.38.99-.25.26-.58.43-.97.52l-.39.05a5.9 5.9 0 0 1-.43.01h-.31a2.1 2.1 0 0 0-.23-.01v-2.9l.48-.01.52-.02zm85.04 0c.22 0 .4.02.55.04.78.12 1.17.57 1.17 1.33 0 .39-.13.72-.39.99-.25.26-.57.43-.97.52l-.39.05a5.9 5.9 0 0 1-.43.01h-.3a2.03 2.03 0 0 0-.24-.01v-2.9l.49-.01.51-.02zm37.54 0c.21 0 .4.02.55.04.77.12 1.16.57 1.16 1.33 0 .39-.13.72-.38.99-.26.26-.58.43-.97.52l-.4.05-.43.01h-.3l-.24-.01v-2.9l.49-.01.52-.02zm-62.32.02c1.2 0 2.04.23 2.53.7.5.45.75 1.23.75 2.35 0 .69-.11 1.28-.34 1.78a2.49 2.49 0 0 1-1.9 1.48c-.26.04-.59.05-.99.05l-.54-.01-.84-.02v-6.29l.58-.02c.35-.02.6-.02.75-.02zm72.13 0c1.2 0 2.04.23 2.54.7.5.45.75 1.23.75 2.35 0 .69-.12 1.28-.34 1.78a2.5 2.5 0 0 1-1.91 1.48c-.25.04-.58.05-.98.05l-.54-.01-.85-.02v-6.29l.59-.02c.35-.02.6-.02.74-.02zm61 0c1.2 0 2.04.23 2.53.7.5.45.75 1.23.75 2.35 0 .69-.1 1.28-.33 1.78a2.49 2.49 0 0 1-1.91 1.48c-.26.04-.58.05-.98.05l-.54-.01-.85-.02v-6.29l.58-.02c.35-.02.6-.02.75-.02zm38.13 0c1.2 0 2.04.23 2.53.7.5.45.75 1.23.75 2.35 0 .69-.11 1.28-.34 1.78a2.49 2.49 0 0 1-1.91 1.48c-.25.04-.58.05-.98.05l-.54-.01a20.1 20.1 0 0 0-.84-.02v-6.29l.57-.02c.36-.02.6-.02.76-.02zm11.14 0c1.2 0 2.04.23 2.54.7.5.45.75 1.23.75 2.35a4.3 4.3 0 0 1-.34 1.78 2.48 2.48 0 0 1-1.91 1.48c-.26.04-.58.05-.98.05l-.54-.01a20.1 20.1 0 0 0-.85-.02v-6.29l.58-.02c.36-.02.6-.02.75-.02zm7.64.84l1.17 2.7h-2.32z"
       id="path3"
       style="stroke:#ffffff" />
  </g>
  <path
     id="path839"
     style="fill:#ffffff;stroke-width:1;stroke:#ffffff"
     d="m 279.89453,39.078359 a 4.83,4.83 0 0 0 -0.10547,0.002 4.9,4.9 0 0 0 -1.66992,0.269532 c -0.5,0.18 -0.92906,0.43 -1.28906,0.75 -0.35,0.32 -0.62078,0.700625 -0.80078,1.140625 -0.2,0.44 -0.2793,0.92875 -0.2793,1.46875 0,0.76 0.13945,1.350781 0.43945,1.800781 0.3,0.45 0.64985,0.819609 1.08985,1.099609 0.43,0.3 0.90039,0.530703 1.40039,0.720703 0.5,0.2 0.98015,0.398672 1.41015,0.638672 0.44,0.23 0.79961,0.521328 1.09961,0.861328 0.29,0.35 0.42969,0.808438 0.42969,1.398438 a 3.02,3.02 0 0 1 -0.71875,1.970703 2.56,2.56 0 0 1 -1.93945,0.810547 3.02,3.02 0 0 1 -1.94141,-0.650391 3.81,3.81 0 0 1 -1.00976,-1.339843 h -0.23047 a 5.48,5.48 0 0 1 -0.34961,1.699218 c 0.32,0.28 0.72117,0.510703 1.20117,0.720703 0.48,0.220001 1.09891,0.320313 1.87891,0.320313 0.72,0 1.35968,-0.100313 1.92968,-0.320313 a 3.93,3.93 0 0 0 2.33008,-2.269531 c 0.2,-0.52 0.30078,-1.079922 0.30078,-1.669922 a 2.91,2.91 0 0 0 -1.51953,-2.720703 c -0.44,-0.27 -0.90016,-0.499687 -1.41016,-0.679687 -0.5,-0.19 -0.97039,-0.40086 -1.40039,-0.63086 a 3.8,3.8 0 0 1 -1.09961,-0.878906 2.15,2.15 0 0 1 -0.4414,-1.419922 c 0,-0.34 0.0616,-0.660937 0.18164,-0.960937 a 2.18,2.18 0 0 1 1.26953,-1.240235 2.54,2.54 0 0 1 1.84961,0 2.46,2.46 0 0 1 1.08008,1.041016 c 0.1,0.21 0.19,0.399844 0.25,0.589844 h 0.2207 a 4.87,4.87 0 0 1 0.5,-1.609375 c -0.37,-0.31 -0.77117,-0.541407 -1.20117,-0.691407 a 4.83,4.83 0 0 0 -1.45508,-0.220703 z m -107.11523,0.002 A 575.13,575.13 0 0 1 166.94922,52.51 a 5.63,5.63 0 0 1 1.37109,0 c 0.16,-0.59 0.40047,-1.330469 0.73047,-2.230469 0.32,-0.9 0.69008,-1.849609 1.08008,-2.849609 l 1.13867,-0.0293 1.14063,-0.01172 1.23046,0.01172 1.20899,0.0293 0.53125,1.330078 0.53906,1.378906 A 43.88,43.88 0 0 1 176.76953,52.51 c 0.18,-0.02 0.34,-0.04102 0.5,-0.04102 H 178.25 c 0.16,0 0.33,0.02102 0.5,0.04102 a 113.33,113.33 0 0 1 -1.48047,-3.349609 280.44,280.44 0 0 1 -2.09961,-5.050782 l -1.07031,-2.61914 -0.95899,-2.400391 z m 31.30078,0 A 882.69,882.69 0 0 1 198.23047,52.51 a 5.6,5.6 0 0 1 1.37891,0 c 0.15999,-0.59 0.40046,-1.330469 0.73046,-2.230469 0.33,-0.9 0.68008,-1.849609 1.08008,-2.849609 l 1.14063,-0.0293 1.13867,-0.01172 1.23047,0.01172 1.20117,0.0293 0.5293,1.330078 0.55078,1.378906 A 47.36,47.36 0 0 1 208.06055,52.51 c 0.17,-0.02 0.34,-0.04102 0.5,-0.04102 h 0.97851 c 0.16,0 0.32,0.02102 0.5,0.04102 -0.17,-0.3 -0.3689,-0.749844 -0.6289,-1.339844 l -0.84961,-2 -1.02149,-2.429687 -1.08984,-2.63086 -1.04883,-2.61914 -0.9707,-2.400391 z m 44,0 a 182.88,182.88 0 0 1 -1.32031,10.148438 l -0.5,3.28125 a 5.03,5.03 0 0 1 1.30078,0 c 0,-0.51 0.0496,-1.160703 0.0996,-1.970703 a 122.09,122.09 0 0 1 0.51953,-5.289063 l 0.29101,-2.580078 h 0.0391 c 0.82,1.69 1.64117,3.338985 2.45117,4.958985 0.81,1.62 1.59984,3.229843 2.33984,4.839843 h 0.16992 a 73.7,73.7 0 0 1 2.35938,-5 c 0.83,-1.59 1.66929,-3.188828 2.5293,-4.798828 h 0.041 c 0.2,1.66 0.36,3.300391 0.5,4.900391 0.14,1.6 0.27039,3.239453 0.40039,4.939453 0.16,-0.02 0.29922,-0.04102 0.44922,-0.04102 h 0.86914 c 0.15,0 0.29141,0.02102 0.44141,0.04102 a 131.6,131.6 0 0 1 -0.40039,-3.210938 l -0.38086,-3.279296 -0.36914,-3.38086 c -0.11,-1.14 -0.24086,-2.328594 -0.38086,-3.558594 h -0.24024 l -1.00976,1.898438 -1.08985,2.070312 -1.08007,2.089844 -1,1.900391 A 122.5,122.5 0 0 0 253.75,49.660391 c -0.95,-1.8 -1.88,-3.57125 -2.75,-5.28125 -0.88,-1.72 -1.73961,-3.478829 -2.59961,-5.298829 z m -26.4375,0.248047 a 7.94,7.94 0 0 0 -0.24219,0.002 c -0.48,0 -0.95016,0.0088 -1.41016,0.04883 a 20.53,20.53 0 0 1 -2.82031,0.02148 l -1.40039,-0.07031 h -0.01 l 0.0996,2.490235 c 0.04,0.8 0.0605,1.638515 0.0605,2.478515 v 3.300782 c 0,0.84 -0.0208,1.68 -0.0508,2.5 L 215.76953,52.51 c 0.41,-0.02 0.83024,-0.04102 1.24024,-0.04102 h 1.25 l 1.25,0.02148 1.25,0.01953 c 0.73,0 1.50078,-0.109844 2.30078,-0.339844 a 6.05,6.05 0 0 0 3.83984,-3.259765 c 0.44,-0.87 0.65039,-1.950469 0.65039,-3.230469 0,-0.98 -0.12156,-1.870156 -0.35156,-2.660156 a 4.81,4.81 0 0 0 -3,-3.25 7.94,7.94 0 0 0 -2.55664,-0.441407 z m -37.17188,0.002 c 0.04,0.84 0.0796,1.668516 0.0996,2.478516 0.04,0.82 0.0606,1.65 0.0606,2.5 v 3.300781 c 0,0.83 -0.0208,1.670469 -0.0508,2.480469 L 184.48047,52.51 a 10.55,10.55 0 0 1 1.82031,0 102.36,102.36 0 0 1 -0.15039,-4.900391 v -1.679687 c 0,-0.07 0.0296,-0.109375 0.0996,-0.109375 0.05,0 0.1207,0.04844 0.2207,0.148437 0.2,0.2 0.49969,0.560547 0.92969,1.060547 A 631.34,631.34 0 0 1 191.85938,52.51 c 0.16999,-0.02 0.34976,-0.04102 0.50976,-0.04102 h 1.08008 A 4,4 0 0 1 194,52.51 c -1.05,-1.22 -2.09914,-2.420859 -3.11914,-3.630859 -1.02,-1.21 -2.04078,-2.398594 -3.05078,-3.558594 0.34,-0.4 0.75976,-0.860391 1.25976,-1.400391 a 87.72,87.72 0 0 1 4.69922,-4.589844 6.87,6.87 0 0 1 -0.88867,0.09961 l -0.37109,-0.0293 -0.39844,-0.07031 A 164.76,164.76 0 0 1 189.33984,42.51 c -0.48,0.53 -0.95945,1.029531 -1.43945,1.519531 a 26,26 0 0 1 -1.37109,1.300781 c -0.13,0.12 -0.21977,0.179688 -0.25977,0.179688 -0.08,0 -0.10937,-0.05016 -0.10937,-0.160156 v -1.050782 c 0,-0.84 0.0208,-1.670234 0.0508,-2.490234 l 0.0996,-2.478516 a 10.06,10.06 0 0 1 -0.91016,0.09961 l -0.45117,-0.0293 -0.46875,-0.07031 z m 49.5293,0 c 0.05,0.82 0.0696,1.638985 0.0996,2.458985 0.03,0.82 0.0508,1.65 0.0508,2.5 v 3.300781 c 0,0.84 -0.0208,1.660469 -0.0508,2.480469 L 234,52.51 c 0.57,-0.02 1.12922,-0.04102 1.69922,-0.04102 h 3.38086 A 36,36 0 0 1 240.75,52.51 c -0.04,-0.13 -0.0606,-0.29 -0.0606,-0.5 v -0.300781 c 0,-0.1 0.0208,-0.198828 0.0508,-0.298828 -0.3,0.07 -0.65078,0.118437 -1.05078,0.148437 a 43.92,43.92 0 0 1 -2.67968,0.101563 h -1.29883 c 0,-0.23 -0.041,-0.600313 -0.041,-1.070313 v -4.201172 l 0.01,-0.378906 0.90039,0.0098 1.2207,0.01953 a 34.82,34.82 0 0 1 2.41016,0.140625 2.82,2.82 0 0 1 0,-1.169922 l -0.86133,0.07031 -1,0.05859 a 43.15,43.15 0 0 1 -2.66992,0.06055 v -2.529297 c 0,-0.47 -4.7e-4,-0.899765 0.0195,-1.259765 L 235.75,40.22875 a 38.07,38.07 0 0 1 3.82031,0.181641 l 1.08985,0.06836 a 2.85,2.85 0 0 1 0,-1.148438 168.75,168.75 0 0 1 -3.32032,0.09961 A 46.23,46.23 0 0 1 234,39.330312 Z m 33.35938,0 0.10156,2.490235 c 0.03,0.8 0.0488,1.638515 0.0488,2.478515 v 3.300782 c 0,0.84 -0.0188,1.68 -0.0488,2.5 L 267.35938,52.51 a 10.06,10.06 0 0 1 1.82031,0 l -0.0996,-2.419922 c -0.03,-0.81 -0.0508,-1.650234 -0.0508,-2.490234 v -3.300782 c 0,-0.84 0.0208,-1.668515 0.0508,-2.478515 l 0.0996,-2.490235 a 18.27,18.27 0 0 1 -0.90039,0.09961 9.63,9.63 0 0 1 -0.91016,-0.09961 z m 21.96093,0 0.0996,2.478516 c 0.04,0.82 0.0508,1.65 0.0508,2.5 v 3.300781 c 0,0.83 -0.001,1.670469 -0.041,2.480469 L 289.33008,52.51 a 10.35,10.35 0 0 1 1.82031,0 c -0.05,-0.8 -0.0796,-1.599922 -0.0996,-2.419922 -0.03,-0.81 -0.0508,-1.650234 -0.0508,-2.490234 v -1.669922 c 0,-0.07 0.0298,-0.109375 0.0898,-0.109375 0.05,0 0.13047,0.04844 0.23047,0.148437 0.2,0.2 0.49992,0.560547 0.91992,1.060547 l 1.40039,1.699219 1.58008,1.980469 1.47852,1.800781 c 0.18,-0.02 0.35148,-0.04102 0.52148,-0.04102 h 1.06836 c 0.19,0 0.37055,0.01102 0.56055,0.04102 -1.06,-1.22 -2.09914,-2.420859 -3.11914,-3.630859 l -3.05078,-3.558594 c 0.33,-0.4 0.74976,-0.860391 1.25976,-1.400391 a 79.11,79.11 0 0 1 3.23047,-3.230469 c 0.55,-0.52 1.04071,-0.979375 1.4707,-1.359375 a 7.25,7.25 0 0 1 -0.90039,0.09961 6.14,6.14 0 0 1 -0.76953,-0.09961 l -1.33984,1.589844 a 88.02,88.02 0 0 1 -2.89063,3.109375 c -0.48,0.49 -0.94109,0.920781 -1.37109,1.300781 -0.12,0.12 -0.19977,0.179688 -0.25976,0.179688 -0.07,0 -0.10938,-0.05016 -0.10938,-0.160156 v -1.050782 c 0,-0.84 0.0208,-1.670234 0.0508,-2.490234 l 0.0996,-2.478516 a 10.8,10.8 0 0 1 -0.91016,0.09961 l -0.45117,-0.0293 -0.45898,-0.07031 z m -68.90039,0.798829 h 0.002 0.008 c 0.77589,7.82e-4 1.47393,0.0907 2.12109,0.25 0.65,0.16 1.19992,0.441328 1.66992,0.861328 0.46,0.42 0.82961,0.979218 1.09961,1.699218 0.27,0.71 0.40039,1.630235 0.40039,2.740235 a 8,8 0 0 1 -0.50976,3.099609 c -0.35,0.8 -0.79008,1.430625 -1.33008,1.890625 a 4.4,4.4 0 0 1 -1.83008,0.939453 c -0.69,0.16 -1.37078,0.25 -2.05078,0.25 -0.48,0 -0.94086,-0.02078 -1.38086,-0.05078 -0.45,-0.03 -0.79836,-0.07867 -1.06836,-0.138672 a 67.7,67.7 0 0 1 -0.11133,-4.070312 v -3.300782 a 46.23,46.23 0 0 1 0.1211,-3.96875 24.1,24.1 0 0 1 2.85937,-0.201171 z m -47.90039,1.541015 2.07031,4.869141 -1.05078,0.03125 -1.03906,0.0098 c -0.32,0 -0.66,-0.0015 -1,-0.02148 l -1.00977,-0.0098 z m 31.29102,0 2.07031,4.869141 -1.05078,0.03125 -1.04102,0.0098 c -0.32,0 -0.66,-0.0015 -1,-0.02148 a 35.1,35.1 0 0 0 -1.01953,-0.0098 z" />
</svg>
