<?xml version="1.0" encoding="UTF-8" standalone="no"?>
<svg
   xmlns:dc="http://purl.org/dc/elements/1.1/"
   xmlns:cc="http://creativecommons.org/ns#"
   xmlns:rdf="http://www.w3.org/1999/02/22-rdf-syntax-ns#"
   xmlns:svg="http://www.w3.org/2000/svg"
   xmlns="http://www.w3.org/2000/svg"
   viewBox="0 0 329.05374 66.789948"
   version="1.1"
   id="svg6"
   width="329.05374"
   height="66.789948">
  <metadata
     id="metadata12">
    <rdf:RDF>
      <cc:Work
         rdf:about="">
        <dc:format>image/svg+xml</dc:format>
        <dc:type
           rdf:resource="http://purl.org/dc/dcmitype/StillImage" />
        <dc:title></dc:title>
      </cc:Work>
    </rdf:RDF>
  </metadata>
  <defs
     id="defs10" />
  <g
     id="g1599"
     transform="translate(-2.3499997,-1.6964154)">
    <path
       id="formakademisk"
       d="m 23.9,1.7 a 7.78,7.78 0 0 0 -5.3,1.87 l -4.18,3.74 c -2.6,2.26 -4.29,3.9 -5.05,4.91 a 6.5,6.5 0 0 0 -1,1.94 C 8.17,14.83 8,15.96 7.9,17.56 A 63.7,63.7 0 0 0 7.75,21.6 c 0,0.35 -0.16,0.62 -0.46,0.83 -0.1,0.09 -1.7,0.93 -4.77,2.52 v 1.7 l 4.7,-0.21 0.97,0.03 v 10.38 c -0.04,6.32 -0.14,10.08 -0.3,11.28 -0.08,0.67 -0.3,1.13 -0.7,1.38 -0.5,0.32 -2.12,0.57 -4.84,0.76 v 2.63 c 4.82,-0.12 7.95,-0.17 9.4,-0.17 l 11.8,0.17 v -2.63 c -3,-0.23 -4.57,-0.36 -4.7,-0.38 -0.56,-0.1 -0.95,-0.24 -1.2,-0.45 -0.24,-0.2 -0.42,-0.47 -0.53,-0.8 -0.14,-0.46 -0.24,-1.8 -0.3,-4.05 -0.05,-2.24 -0.08,-4.6 -0.08,-7.07 V 26.47 c 2,-0.07 3.21,-0.1 3.63,-0.1 l 1.73,0.07 3.5,0.07 0.55,-3.08 c 0.06,-0.41 0.15,-0.82 0.27,-1.21 l -0.45,-0.35 c -1.45,0.1 -3.17,0.18 -5.15,0.22 l -4.08,0.03 v -4.8 c 0,-3.68 0.14,-5.98 0.41,-6.9 0.19,-0.62 0.56,-1.12 1.1,-1.48 a 5.8,5.8 0 0 1 3.2,-0.76 c 0.92,0 1.68,0.12 2.28,0.36 0.6,0.24 1.24,0.69 1.93,1.33 L 27.05,9.25 C 27,7.13 27.15,4.82 27.53,2.33 26.23,1.91 25.03,1.71 23.9,1.71 Z m 23.46,17.37 c -3.55,0 -6.66,0.66 -9.34,1.96 a 13,13 0 0 0 -6.01,5.8 c -1.34,2.58 -2,5.82 -2,9.74 0,5.77 1.4,10.13 4.23,13.1 2.82,2.96 6.84,4.44 12.05,4.44 3.2,0 6.09,-0.6 8.65,-1.8 1.5,-0.71 2.93,-1.77 4.29,-3.16 a 14.87,14.87 0 0 0 3.25,-5.52 24.3,24.3 0 0 0 1.21,-8.1 c 0,-5.39 -1.39,-9.48 -4.17,-12.27 -2.78,-2.8 -6.83,-4.19 -12.16,-4.19 z m 61.5,0.28 a 28.16,28.16 0 0 1 -4.46,1.66 c -1.31,0.35 -4.06,0.88 -8.27,1.59 v 2.7 c 2.19,0.07 3.5,0.18 3.94,0.34 0.28,0.1 0.49,0.24 0.61,0.44 0.13,0.2 0.22,1.02 0.3,2.5 0.11,2.92 0.17,5.4 0.17,7.45 v 4.51 c 0,1.45 -0.02,2.5 -0.04,3.14 l -0.13,3.07 a 6.36,6.36 0 0 1 -0.38,2.48 c -0.17,0.28 -0.4,0.48 -0.73,0.6 -0.7,0.24 -1.94,0.37 -3.74,0.37 v 2.7 a 250,250 0 0 1 9.36,-0.14 c 3.5,0 6.49,0.05 8.97,0.14 v -2.7 c -1.82,-0.14 -2.89,-0.25 -3.21,-0.34 a 1.73,1.73 0 0 1 -0.94,-0.52 c -0.18,-0.23 -0.3,-0.78 -0.34,-1.66 a 112.2,112.2 0 0 1 -0.17,-7.15 v -6.04 c -0.03,-3.18 0.02,-4.99 0.13,-5.43 a 6.22,6.22 0 0 1 2.1,-2.34 6.33,6.33 0 0 1 3.88,-1.18 c 1.4,0 2.54,0.33 3.42,0.99 a 4.64,4.64 0 0 1 1.76,2.45 c 0.29,0.98 0.43,2.64 0.43,4.99 v 4.9 l -0.07,6.12 c 0,1.89 -0.1,3.09 -0.25,3.6 -0.16,0.52 -0.37,0.87 -0.64,1.04 A 5,5 0 0 1 118.63,50 c -0.7,0.06 -1.27,0.13 -1.71,0.2 v 2.7 c 2.05,-0.1 5.22,-0.14 9.5,-0.14 3.86,0 6.81,0.05 8.86,0.14 v -2.7 l -2.81,-0.34 c -0.67,-0.1 -1.1,-0.2 -1.31,-0.32 -0.25,-0.16 -0.45,-0.4 -0.58,-0.72 -0.14,-0.32 -0.23,-0.9 -0.24,-1.76 l -0.1,-2.8 -0.08,-3.45 v -8.36 c -0.03,-1.84 0.09,-3.07 0.34,-3.68 a 5.5,5.5 0 0 1 1.94,-2.04 6.26,6.26 0 0 1 3.77,-1.12 c 1.31,0 2.4,0.3 3.27,0.92 a 5,5 0 0 1 1.85,2.52 c 0.37,1.08 0.55,3.66 0.55,7.77 v 2.62 c 0,1.83 -0.04,4 -0.13,6.54 l -0.39,6.26 0.49,0.66 a 63.2,63.2 0 0 1 5.95,-0.25 c 2.04,0 4.65,0.1 7.81,0.25 v -2.7 c -0.93,-0.09 -1.58,-0.15 -1.95,-0.17 -1.07,-0.07 -1.75,-0.24 -2.07,-0.5 -0.31,-0.27 -0.53,-0.91 -0.66,-1.93 -0.13,-1.03 -0.2,-3.38 -0.2,-7.07 v -3.6 a 107.94,107.94 0 0 0 0.11,-6.05 c 0,-2.3 -0.16,-4 -0.51,-5.1 a 8.9,8.9 0 0 0 -4.9,-5.4 c -1.26,-0.58 -3.03,-0.86 -5.32,-0.86 -0.88,0 -1.58,0.06 -2.1,0.16 -0.52,0.1 -1.15,0.3 -1.88,0.6 l -6.31,5.07 c -0.92,-2.1 -2.1,-3.6 -3.5,-4.5 -1.42,-0.88 -3.51,-1.33 -6.27,-1.33 -0.88,0 -1.58,0.06 -2.1,0.16 -0.51,0.1 -1.14,0.3 -1.87,0.6 l -6.29,5.07 v -5.58 z m -28.66,0 a 28.48,28.48 0 0 1 -4.49,1.66 c -1.32,0.35 -4.09,0.87 -8.3,1.59 v 2.7 c 2.18,0.07 3.49,0.18 3.93,0.34 0.28,0.1 0.48,0.24 0.61,0.44 0.12,0.2 0.23,1.02 0.3,2.5 0.1,2.92 0.17,5.4 0.17,7.44 v 4.52 c 0,1.45 -0.01,2.5 -0.04,3.14 l -0.13,3.07 a 6.37,6.37 0 0 1 -0.38,2.48 c -0.16,0.28 -0.41,0.48 -0.73,0.59 -0.7,0.25 -1.94,0.38 -3.74,0.38 v 2.7 c 3.85,-0.12 7.57,-0.18 11.14,-0.18 3.2,0 6.11,0.06 8.72,0.18 v -2.7 l -2.84,-0.27 a 6.18,6.18 0 0 1 -2.39,-0.49 c -0.36,-0.23 -0.6,-0.54 -0.7,-0.95 -0.1,-0.4 -0.17,-1.49 -0.2,-3.26 l -0.07,-4.7 v -3.45 c 0,-3.38 0.05,-5.32 0.14,-5.83 0.19,-0.88 0.77,-1.74 1.75,-2.58 a 5.21,5.21 0 0 1 3.5,-1.26 c 1.03,0 1.96,0.24 2.81,0.73 0.53,0.3 1.08,0.82 1.66,1.58 l 1.45,-0.44 c 0.04,-0.4 0.09,-1.93 0.14,-4.6 l 0.25,-4.92 a 6.19,6.19 0 0 0 -2.3,-0.4 c -1.36,0 -2.45,0.27 -3.28,0.82 -0.59,0.4 -1.49,1.3 -2.68,2.73 -0.8,1.02 -1.95,2.3 -3.44,3.84 l 0.08,-6.99 z m -33.7,3.28 c 1.61,0 3,0.5 4.13,1.5 1.14,0.98 2,2.74 2.6,5.27 0.59,2.52 0.88,5.55 0.88,9.08 0,5.02 -0.74,8.41 -2.21,10.16 a 5.58,5.58 0 0 1 -4.5,1.97 5.86,5.86 0 0 1 -5.12,-2.59 c -1.8,-2.6 -2.7,-6.97 -2.7,-13.1 0,-3.3 0.29,-5.81 0.86,-7.53 0.58,-1.72 1.39,-2.94 2.43,-3.66 a 6.13,6.13 0 0 1 3.63,-1.1 z m 126.28,16.45 a 575.13,575.13 0 0 1 -5.83,13.43 5.63,5.63 0 0 1 1.37,0 c 0.16,-0.59 0.4,-1.33 0.73,-2.23 0.32,-0.9 0.69,-1.85 1.08,-2.85 l 1.14,-0.03 1.14,-0.01 1.23,0.01 1.21,0.03 0.53,1.33 0.54,1.38 a 43.88,43.88 0 0 1 0.85,2.37 c 0.18,-0.02 0.34,-0.04 0.5,-0.04 h 0.98 c 0.16,0 0.33,0.02 0.5,0.04 a 113.33,113.33 0 0 1 -1.48,-3.35 280.44,280.44 0 0 1 -2.1,-5.05 l -1.07,-2.62 -0.96,-2.4 z m 31.3,0 a 882.69,882.69 0 0 1 -5.85,13.43 5.6,5.6 0 0 1 1.38,0 c 0.16,-0.59 0.4,-1.33 0.73,-2.23 0.33,-0.9 0.68,-1.85 1.08,-2.85 l 1.14,-0.03 1.14,-0.01 1.23,0.01 1.2,0.03 0.53,1.33 0.55,1.38 a 47.36,47.36 0 0 1 0.85,2.37 c 0.17,-0.02 0.34,-0.04 0.5,-0.04 h 0.98 c 0.16,0 0.32,0.02 0.5,0.04 -0.17,-0.3 -0.37,-0.75 -0.63,-1.34 l -0.85,-2 -1.02,-2.43 -1.09,-2.63 -1.05,-2.62 -0.97,-2.4 z m 44,0 a 182.88,182.88 0 0 1 -1.32,10.15 l -0.5,3.28 a 5.03,5.03 0 0 1 1.3,0 c 0,-0.51 0.05,-1.16 0.1,-1.97 a 122.09,122.09 0 0 1 0.52,-5.29 l 0.29,-2.58 h 0.04 c 0.82,1.69 1.64,3.34 2.45,4.96 0.81,1.62 1.6,3.23 2.34,4.84 h 0.17 a 73.7,73.7 0 0 1 2.36,-5 c 0.83,-1.59 1.67,-3.19 2.53,-4.8 h 0.04 c 0.2,1.66 0.36,3.3 0.5,4.9 0.14,1.6 0.27,3.24 0.4,4.94 0.16,-0.02 0.3,-0.04 0.45,-0.04 h 0.87 c 0.15,0 0.29,0.02 0.44,0.04 a 131.6,131.6 0 0 1 -0.4,-3.21 l -0.38,-3.28 -0.37,-3.38 c -0.11,-1.14 -0.24,-2.33 -0.38,-3.56 h -0.24 l -1.01,1.9 -1.09,2.07 -1.08,2.09 -1,1.9 a 122.5,122.5 0 0 0 -1.36,2.62 c -0.95,-1.8 -1.88,-3.57 -2.75,-5.28 -0.88,-1.72 -1.74,-3.48 -2.6,-5.3 z m 31.71,0 a 4.9,4.9 0 0 0 -1.67,0.27 c -0.5,0.18 -0.93,0.43 -1.29,0.75 -0.35,0.32 -0.62,0.7 -0.8,1.14 -0.2,0.44 -0.28,0.93 -0.28,1.47 0,0.76 0.14,1.35 0.44,1.8 0.3,0.45 0.65,0.82 1.09,1.1 0.43,0.3 0.9,0.53 1.4,0.72 0.5,0.2 0.98,0.4 1.41,0.64 0.44,0.23 0.8,0.52 1.1,0.86 0.29,0.35 0.43,0.81 0.43,1.4 a 3.02,3.02 0 0 1 -0.72,1.97 2.56,2.56 0 0 1 -1.94,0.81 3.02,3.02 0 0 1 -1.94,-0.65 3.81,3.81 0 0 1 -1.01,-1.34 h -0.23 a 5.48,5.48 0 0 1 -0.35,1.7 c 0.32,0.28 0.72,0.51 1.2,0.72 0.48,0.22 1.1,0.32 1.88,0.32 0.72,0 1.36,-0.1 1.93,-0.32 a 3.93,3.93 0 0 0 2.33,-2.27 c 0.2,-0.52 0.3,-1.08 0.3,-1.67 a 2.91,2.91 0 0 0 -1.52,-2.72 c -0.44,-0.27 -0.9,-0.5 -1.41,-0.68 -0.5,-0.19 -0.97,-0.4 -1.4,-0.63 a 3.8,3.8 0 0 1 -1.1,-0.88 2.15,2.15 0 0 1 -0.44,-1.42 c 0,-0.34 0.06,-0.66 0.18,-0.96 a 2.18,2.18 0 0 1 1.27,-1.24 2.54,2.54 0 0 1 1.85,0 2.46,2.46 0 0 1 1.08,1.04 c 0.1,0.21 0.19,0.4 0.25,0.59 h 0.22 a 4.87,4.87 0 0 1 0.5,-1.61 c -0.37,-0.31 -0.77,-0.54 -1.2,-0.69 a 4.83,4.83 0 0 0 -1.56,-0.22 z m -64.03,0.25 0.1,2.49 c 0.04,0.8 0.06,1.64 0.06,2.48 v 3.3 c 0,0.84 -0.02,1.68 -0.05,2.5 l -0.1,2.41 c 0.41,-0.02 0.83,-0.04 1.24,-0.04 h 1.25 l 1.25,0.02 1.25,0.02 c 0.73,0 1.5,-0.11 2.3,-0.34 a 6.05,6.05 0 0 0 3.84,-3.26 c 0.44,-0.87 0.65,-1.95 0.65,-3.23 0,-0.98 -0.12,-1.87 -0.35,-2.66 a 4.81,4.81 0 0 0 -3,-3.25 7.94,7.94 0 0 0 -2.8,-0.44 c -0.48,0 -0.95,0.01 -1.41,0.05 a 20.53,20.53 0 0 1 -2.82,0.02 l -1.4,-0.07 z m 18.24,0 c 0.05,0.82 0.07,1.64 0.1,2.46 0.03,0.82 0.05,1.65 0.05,2.5 v 3.3 c 0,0.84 -0.02,1.66 -0.05,2.48 l -0.1,2.44 c 0.57,-0.02 1.13,-0.04 1.7,-0.04 h 3.38 a 36,36 0 0 1 1.67,0.04 c -0.04,-0.13 -0.06,-0.29 -0.06,-0.5 v -0.3 c 0,-0.1 0.02,-0.2 0.05,-0.3 -0.3,0.07 -0.65,0.12 -1.05,0.15 a 43.92,43.92 0 0 1 -2.68,0.1 h -1.3 c 0,-0.23 -0.04,-0.6 -0.04,-1.07 v -4.2 l 0.01,-0.38 0.9,0.01 1.22,0.02 a 34.82,34.82 0 0 1 2.41,0.14 2.82,2.82 0 0 1 0,-1.17 l -0.86,0.07 -1,0.06 a 43.15,43.15 0 0 1 -2.67,0.06 v -2.53 c 0,-0.47 0,-0.9 0.02,-1.26 l 0.05,-1.18 a 38.07,38.07 0 0 1 3.82,0.18 l 1.09,0.07 a 2.85,2.85 0 0 1 0,-1.15 168.75,168.75 0 0 1 -3.32,0.1 46.23,46.23 0 0 1 -3.34,-0.1 z m 33.36,0 0.1,2.49 c 0.03,0.8 0.05,1.64 0.05,2.48 v 3.3 c 0,0.84 -0.02,1.68 -0.05,2.5 l -0.1,2.41 a 10.06,10.06 0 0 1 1.82,0 l -0.1,-2.42 c -0.03,-0.81 -0.05,-1.65 -0.05,-2.49 v -3.3 c 0,-0.84 0.02,-1.67 0.05,-2.48 l 0.1,-2.49 a 18.27,18.27 0 0 1 -0.9,0.1 9.63,9.63 0 0 1 -0.91,-0.1 z m -82.89,0 c 0.04,0.84 0.08,1.67 0.1,2.48 0.04,0.82 0.06,1.65 0.06,2.5 v 3.3 c 0,0.83 -0.02,1.67 -0.05,2.48 l -0.1,2.42 a 10.55,10.55 0 0 1 1.82,0 102.36,102.36 0 0 1 -0.15,-4.9 v -1.68 c 0,-0.07 0.03,-0.11 0.1,-0.11 0.05,0 0.12,0.05 0.22,0.15 0.2,0.2 0.5,0.56 0.93,1.06 a 631.34,631.34 0 0 1 4.46,5.48 c 0.17,-0.02 0.35,-0.04 0.51,-0.04 h 1.08 a 4,4 0 0 1 0.55,0.04 c -1.05,-1.22 -2.1,-2.42 -3.12,-3.63 -1.02,-1.21 -2.04,-2.4 -3.05,-3.56 0.34,-0.4 0.76,-0.86 1.26,-1.4 a 87.72,87.72 0 0 1 4.7,-4.59 6.87,6.87 0 0 1 -0.89,0.1 l -0.37,-0.03 -0.4,-0.07 a 164.76,164.76 0 0 1 -2.79,3.18 c -0.48,0.53 -0.96,1.03 -1.44,1.52 a 26,26 0 0 1 -1.37,1.3 c -0.13,0.12 -0.22,0.18 -0.26,0.18 -0.08,0 -0.11,-0.05 -0.11,-0.16 V 44.3 c 0,-0.84 0.02,-1.67 0.05,-2.49 l 0.1,-2.48 a 10.06,10.06 0 0 1 -0.91,0.1 l -0.45,-0.03 -0.47,-0.07 z m 104.85,0 0.1,2.48 c 0.04,0.82 0.05,1.65 0.05,2.5 v 3.3 c 0,0.83 0,1.67 -0.04,2.48 l -0.1,2.42 a 10.35,10.35 0 0 1 1.82,0 c -0.05,-0.8 -0.08,-1.6 -0.1,-2.42 C 291.02,49.28 291,48.44 291,47.6 v -1.67 c 0,-0.07 0.03,-0.11 0.09,-0.11 0.05,0 0.13,0.05 0.23,0.15 0.2,0.2 0.5,0.56 0.92,1.06 l 1.4,1.7 1.58,1.98 1.48,1.8 c 0.18,-0.02 0.35,-0.04 0.52,-0.04 h 1.07 c 0.19,0 0.37,0.01 0.56,0.04 -1.06,-1.22 -2.1,-2.42 -3.12,-3.63 l -3.05,-3.56 c 0.33,-0.4 0.75,-0.86 1.26,-1.4 a 79.11,79.11 0 0 1 3.23,-3.23 c 0.55,-0.52 1.04,-0.98 1.47,-1.36 a 7.25,7.25 0 0 1 -0.9,0.1 6.14,6.14 0 0 1 -0.77,-0.1 l -1.34,1.59 a 88.02,88.02 0 0 1 -2.89,3.11 c -0.48,0.49 -0.94,0.92 -1.37,1.3 -0.12,0.12 -0.2,0.18 -0.26,0.18 -0.07,0 -0.11,-0.05 -0.11,-0.16 V 44.3 c 0,-0.84 0.02,-1.67 0.05,-2.49 l 0.1,-2.48 a 10.8,10.8 0 0 1 -0.91,0.1 l -0.45,-0.03 -0.46,-0.07 z m -68.9,0.8 c 0.78,0 1.48,0.09 2.13,0.25 0.65,0.16 1.2,0.44 1.67,0.86 0.46,0.42 0.83,0.98 1.1,1.7 0.27,0.71 0.4,1.63 0.4,2.74 a 8,8 0 0 1 -0.51,3.1 c -0.35,0.8 -0.79,1.43 -1.33,1.89 a 4.4,4.4 0 0 1 -1.83,0.94 c -0.69,0.16 -1.37,0.25 -2.05,0.25 -0.48,0 -0.94,-0.02 -1.38,-0.05 -0.45,-0.03 -0.8,-0.08 -1.07,-0.14 a 67.7,67.7 0 0 1 -0.11,-4.07 v -3.3 a 46.23,46.23 0 0 1 0.12,-3.97 24.1,24.1 0 0 1 2.87,-0.2 z m -47.9,1.54 2.07,4.87 -1.05,0.03 -1.04,0.01 c -0.32,0 -0.66,0 -1,-0.02 l -1.01,-0.01 z m 31.29,0 2.07,4.87 -1.05,0.03 -1.04,0.01 c -0.32,0 -0.66,0 -1,-0.02 a 35.1,35.1 0 0 0 -1.02,-0.01 z"
       fill="#ffffff" />
    <path
       d="m 192.03603,18.461742 c -1.02,0 -1.97,0.15 -2.82,0.46 -1.66929,0.577858 -3.00264,1.856417 -3.65,3.5 -0.35472,0.924927 -0.52788,1.909546 -0.51,2.9 0,1.1 0.17,2.06 0.51,2.91 0.59783,1.641038 1.91264,2.919023 3.57,3.47 1.68335,0.569548 3.50396,0.590555 5.2,0.06 0.33,-0.1 0.63,-0.2 0.87,-0.32 0.24,-0.13 0.42,-0.24 0.53,-0.34 l 0.17,-1.13 -0.08,-0.08 -0.64,0.5 c -0.58183,0.40328 -1.22282,0.713653 -1.9,0.92 -1.08791,0.264189 -2.22988,0.198038 -3.28,-0.19 -0.62739,-0.243464 -1.18905,-0.630462 -1.64,-1.13 -0.4997,-0.550197 -0.87489,-1.201666 -1.1,-1.91 -0.27972,-0.889123 -0.41148,-1.818161 -0.39,-2.75 0,-1.07 0.13,-1.98 0.4,-2.76 0.25,-0.77 0.62,-1.41 1.09,-1.92 0.44893,-0.494907 1.00703,-0.878382 1.63,-1.12 0.63,-0.24 1.31,-0.36 2.04,-0.36 0.45,0 0.87,0.06 1.24,0.18 0.8961,0.276617 1.69423,0.804079 2.3,1.52 l 0.12,-0.04 c 0.04,-0.2 0.1,-0.45 0.15,-0.76 0.06,-0.3 0.14,-0.55 0.24,-0.73 -1.26399,-0.601974 -2.65018,-0.90317 -4.05,-0.88 z m 92.01,0 c -0.96288,-0.01199 -1.92049,0.143662 -2.83,0.46 -1.66714,0.581355 -2.99924,1.858704 -3.65,3.5 -0.35328,0.925325 -0.52639,1.909663 -0.51,2.9 0,1.1 0.17,2.06 0.51,2.91 0.59783,1.641038 1.91264,2.919023 3.57,3.47 1.68335,0.569548 3.50396,0.590555 5.2,0.06 0.34,-0.1 0.63,-0.2 0.87,-0.32 0.25,-0.13 0.42,-0.24 0.54,-0.34 l 0.16,-1.13 -0.08,-0.08 -0.64,0.5 c -0.57804,0.409724 -1.22011,0.720619 -1.9,0.92 -1.08807,0.262367 -2.2295,0.196248 -3.28,-0.19 -0.63047,-0.243084 -1.19547,-0.630023 -1.65,-1.13 -0.49636,-0.550946 -0.86813,-1.202406 -1.09,-1.91 -0.27728,-0.889674 -0.40898,-1.81831 -0.39,-2.75 0,-1.07 0.13,-1.98 0.4,-2.76 0.21875,-0.709785 0.58701,-1.364474 1.08,-1.92 0.47,-0.5 1.02,-0.88 1.64,-1.12 0.63,-0.24 1.31,-0.36 2.04,-0.36 0.45,0 0.87,0.06 1.24,0.18 0.89619,0.28236 1.69606,0.808682 2.31,1.52 l 0.11,-0.04 0.15,-0.76 c 0.06,-0.3 0.14,-0.55 0.24,-0.73 -1.26458,-0.600259 -2.65036,-0.901366 -4.05,-0.88 z m -109.23,0 c -1.88348,4.502414 -3.82698,8.97948 -5.83,13.43 0.45511,-0.05338 0.91489,-0.05338 1.37,0 0.17,-0.6 0.4,-1.34 0.73,-2.24 0.32,-0.9 0.69,-1.85 1.08,-2.85 l 1.14,-0.03 h 2.37 l 1.21,0.03 0.53,1.33 0.54,1.38 c 0.30657,0.781473 0.59002,1.571817 0.85,2.37 l 0.5,-0.03 h 0.98 l 0.5,0.03 c -0.50918,-1.109599 -1.00256,-2.226378 -1.48,-3.35 -0.71842,-1.675614 -1.41846,-3.359048 -2.1,-5.05 l -1.07,-2.62 -0.97,-2.4 z m 30.94,0 c -1.91055,4.488964 -3.85728,8.962443 -5.84,13.42 0.45843,-0.0538 0.92157,-0.0538 1.38,0 0.16,-0.58 0.4,-1.33 0.73,-2.23 0.32,-0.9 0.68,-1.85 1.08,-2.85 l 1.14,-0.03 h 2.36 l 1.21,0.03 0.53,1.33 0.55,1.38 c 0.29684,0.785089 0.58022,1.575205 0.85,2.37 l 0.49,-0.03 h 0.99 l 0.5,0.03 c -0.17,-0.3 -0.38,-0.75 -0.63,-1.34 l -0.86,-2 c -0.71823,-1.679043 -1.41827,-3.365809 -2.1,-5.06 l -1.06,-2.62 -0.97,-2.4 z m 44,0 c -0.21353,2.229385 -0.48028,4.453352 -0.8,6.67 l -0.5,3.47 -0.5,3.28 c 0.43167,-0.05375 0.86833,-0.05375 1.3,0 0,-0.5 0.03,-1.16 0.1,-1.96 0.1255,-1.770309 0.29221,-3.537455 0.5,-5.3 l 0.3,-2.58 h 0.03 c 0.82,1.7 1.64,3.34 2.45,4.96 0.82,1.62 1.6,3.23 2.35,4.85 h 0.16 c 0.75,-1.74 1.53,-3.41 2.36,-5 0.83,-1.6 1.67,-3.2 2.53,-4.8 h 0.04 c 0.2,1.66 0.37,3.28 0.5,4.88 l 0.41,4.95 0.44,-0.03 h 0.88 l 0.44,0.03 c -0.15,-1.06 -0.29,-2.13 -0.41,-3.21 l -0.38,-3.28 c -0.26437,-2.308423 -0.51437,-4.618467 -0.75,-6.93 h -0.24 l -1,1.9 -1.1,2.07 -1.08,2.08 c -0.35,0.68 -0.68,1.32 -1,1.9 l -0.81,1.57 -0.55,1.05 c -0.95,-1.81 -1.87,-3.57 -2.74,-5.28 -0.88,-1.71 -1.75,-3.48 -2.6,-5.3 z m -32.32,0.23 c 0.04,0.85 0.08,1.67 0.1,2.49 0.03,0.8 0.05,1.64 0.05,2.48 v 3.3 c 0,0.85 -0.02,1.68 -0.05,2.5 l -0.1,2.41 c 0.42,-0.02 0.84,-0.04 1.25,-0.04 h 1.25 l 1.25,0.02 1.25,0.02 c 0.73,0 1.5,-0.1 2.3,-0.33 1.69179,-0.485015 3.09165,-1.677089 3.84,-3.27 0.43,-0.87 0.64,-1.95 0.64,-3.22 0,-0.99 -0.11,-1.88 -0.34,-2.67 -0.20591,-0.740266 -0.58268,-1.421874 -1.1,-1.99 -0.52605,-0.560493 -1.17706,-0.98879 -1.9,-1.25 -0.90181,-0.318431 -1.85385,-0.470892 -2.81,-0.45 -0.47,0 -0.94,0.02 -1.4,0.05 -1.40961,0.07418 -2.82254,0.05748 -4.23,-0.05 z m 51.6,0 0.1,2.49 c 0.03,0.8 0.05,1.64 0.05,2.48 v 3.3 c 0,0.85 -0.02,1.68 -0.05,2.5 l -0.1,2.41 c 0.60545,-0.05445 1.21455,-0.05445 1.82,0 -0.0872,-1.63198 -0.13727,-3.265739 -0.15,-4.9 v -3.3 c 0,-0.85 0.02,-1.68 0.05,-2.5 l 0.1,-2.48 -0.46,0.07 c -0.29865,0.04024 -0.60135,0.04024 -0.9,0 l -0.47,-0.07 z m -33.37,0 c 0.084,1.648866 0.13735,3.299151 0.16,4.95 v 3.3 c 0,0.84 -0.02,1.67 -0.05,2.49 l -0.1,2.44 c 0.56297,-0.02564 1.12644,-0.03897 1.69,-0.04 h 3.38 c 0.56,0 1.12,0.02 1.67,0.04 -0.04,-0.13 -0.06,-0.3 -0.06,-0.5 v -0.3 c 0.01,-0.1 0.02,-0.2 0.05,-0.3 -0.3,0.07 -0.65,0.12 -1.05,0.15 -0.89161,0.06969 -1.78568,0.103051 -2.68,0.1 h -1.3 c -0.02,-0.24 -0.03,-0.6 -0.03,-1.07 l -0.01,-1.8 v -1.9 -0.88 h 0.9 c 0.39,0.02 0.8,0.02 1.22,0.03 0.80791,0.02189 1.61496,0.06857 2.42,0.14 -0.0809,-0.385803 -0.0809,-0.784197 0,-1.17 l -0.87,0.07 c -0.73288,0.04266 -1.46627,0.076 -2.2,0.1 -0.42,0.02 -0.92,0.02 -1.46,0.02 v -1.07 l -0.01,-1.46 c 0,-0.47 0,-0.9 0.03,-1.27 l 0.05,-1.17 c 0.92423,7.4e-5 1.84817,0.03343 2.77,0.1 l 1.04,0.08 1.09,0.07 c -0.0796,-0.379204 -0.0796,-0.770796 0,-1.15 l -1.66,0.07 c -1.10963,0.04063 -2.22037,0.04063 -3.33,0 l -1.67,-0.07 z m -13.57,0.8 c 0.77,0 1.48,0.08 2.12,0.25 0.65,0.16 1.2,0.45 1.68,0.86 0.46,0.42 0.83,0.98 1.1,1.7 0.26,0.71 0.4,1.63 0.4,2.74 0,1.27 -0.18,2.3 -0.52,3.1 -0.50227,1.420181 -1.69324,2.48678 -3.16,2.83 -0.68,0.17 -1.36,0.25 -2.05,0.25 -0.47,0 -0.93,-0.02 -1.38,-0.05 -0.45,-0.03 -0.8,-0.08 -1.06,-0.14 -0.08,-1.33 -0.11,-2.69 -0.11,-4.07 v -3.3 c 0,-0.69 0,-1.37 0.03,-2.04 0.02,-0.67 0.05,-1.32 0.09,-1.93 0.95185,-0.123571 1.91021,-0.190355 2.87,-0.2 z m -47.55,1.54 2.07,4.88 -1.05,0.02 -1.04,0.01 -1,-0.01 -1.01,-0.02 z m 30.93,0 2.08,4.88 -1.05,0.02 -1.04,0.01 -1,-0.01 -1.02,-0.02 z"
       id="path899"
       style="fill:#ffffff;stroke:#ffffff" />
    <path
       id="path839"
       style="fill:#ffffff;stroke:#ffffff;stroke-width:1"
       d="m 279.89453,39.078359 a 4.83,4.83 0 0 0 -0.10547,0.002 4.9,4.9 0 0 0 -1.66992,0.269532 c -0.5,0.18 -0.92906,0.43 -1.28906,0.75 -0.35,0.32 -0.62078,0.700625 -0.80078,1.140625 -0.2,0.44 -0.2793,0.92875 -0.2793,1.46875 0,0.76 0.13945,1.350781 0.43945,1.800781 0.3,0.45 0.64985,0.819609 1.08985,1.099609 0.43,0.3 0.90039,0.530703 1.40039,0.720703 0.5,0.2 0.98015,0.398672 1.41015,0.638672 0.44,0.23 0.79961,0.521328 1.09961,0.861328 0.29,0.35 0.42969,0.808438 0.42969,1.398438 a 3.02,3.02 0 0 1 -0.71875,1.970703 2.56,2.56 0 0 1 -1.93945,0.810547 3.02,3.02 0 0 1 -1.94141,-0.650391 3.81,3.81 0 0 1 -1.00976,-1.339843 h -0.23047 a 5.48,5.48 0 0 1 -0.34961,1.699218 c 0.32,0.28 0.72117,0.510703 1.20117,0.720703 0.48,0.220001 1.09891,0.320313 1.87891,0.320313 0.72,0 1.35968,-0.100313 1.92968,-0.320313 a 3.93,3.93 0 0 0 2.33008,-2.269531 c 0.2,-0.52 0.30078,-1.079922 0.30078,-1.669922 a 2.91,2.91 0 0 0 -1.51953,-2.720703 c -0.44,-0.27 -0.90016,-0.499687 -1.41016,-0.679687 -0.5,-0.19 -0.97039,-0.40086 -1.40039,-0.63086 a 3.8,3.8 0 0 1 -1.09961,-0.878906 2.15,2.15 0 0 1 -0.4414,-1.419922 c 0,-0.34 0.0616,-0.660937 0.18164,-0.960937 a 2.18,2.18 0 0 1 1.26953,-1.240235 2.54,2.54 0 0 1 1.84961,0 2.46,2.46 0 0 1 1.08008,1.041016 c 0.1,0.21 0.19,0.399844 0.25,0.589844 h 0.2207 a 4.87,4.87 0 0 1 0.5,-1.609375 c -0.37,-0.31 -0.77117,-0.541407 -1.20117,-0.691407 a 4.83,4.83 0 0 0 -1.45508,-0.220703 z m -107.11523,0.002 A 575.13,575.13 0 0 1 166.94922,52.51 a 5.63,5.63 0 0 1 1.37109,0 c 0.16,-0.59 0.40047,-1.330469 0.73047,-2.230469 0.32,-0.9 0.69008,-1.849609 1.08008,-2.849609 l 1.13867,-0.0293 1.14063,-0.01172 1.23046,0.01172 1.20899,0.0293 0.53125,1.330078 0.53906,1.378906 A 43.88,43.88 0 0 1 176.76953,52.51 c 0.18,-0.02 0.34,-0.04102 0.5,-0.04102 H 178.25 c 0.16,0 0.33,0.02102 0.5,0.04102 a 113.33,113.33 0 0 1 -1.48047,-3.349609 280.44,280.44 0 0 1 -2.09961,-5.050782 l -1.07031,-2.61914 -0.95899,-2.400391 z m 31.30078,0 A 882.69,882.69 0 0 1 198.23047,52.51 a 5.6,5.6 0 0 1 1.37891,0 c 0.15999,-0.59 0.40046,-1.330469 0.73046,-2.230469 0.33,-0.9 0.68008,-1.849609 1.08008,-2.849609 l 1.14063,-0.0293 1.13867,-0.01172 1.23047,0.01172 1.20117,0.0293 0.5293,1.330078 0.55078,1.378906 A 47.36,47.36 0 0 1 208.06055,52.51 c 0.17,-0.02 0.34,-0.04102 0.5,-0.04102 h 0.97851 c 0.16,0 0.32,0.02102 0.5,0.04102 -0.17,-0.3 -0.3689,-0.749844 -0.6289,-1.339844 l -0.84961,-2 -1.02149,-2.429687 -1.08984,-2.63086 -1.04883,-2.61914 -0.9707,-2.400391 z m 44,0 a 182.88,182.88 0 0 1 -1.32031,10.148438 l -0.5,3.28125 a 5.03,5.03 0 0 1 1.30078,0 c 0,-0.51 0.0496,-1.160703 0.0996,-1.970703 a 122.09,122.09 0 0 1 0.51953,-5.289063 l 0.29101,-2.580078 h 0.0391 c 0.82,1.69 1.64117,3.338985 2.45117,4.958985 0.81,1.62 1.59984,3.229843 2.33984,4.839843 h 0.16992 a 73.7,73.7 0 0 1 2.35938,-5 c 0.83,-1.59 1.66929,-3.188828 2.5293,-4.798828 h 0.041 c 0.2,1.66 0.36,3.300391 0.5,4.900391 0.14,1.6 0.27039,3.239453 0.40039,4.939453 0.16,-0.02 0.29922,-0.04102 0.44922,-0.04102 h 0.86914 c 0.15,0 0.29141,0.02102 0.44141,0.04102 a 131.6,131.6 0 0 1 -0.40039,-3.210938 l -0.38086,-3.279296 -0.36914,-3.38086 c -0.11,-1.14 -0.24086,-2.328594 -0.38086,-3.558594 h -0.24024 l -1.00976,1.898438 -1.08985,2.070312 -1.08007,2.089844 -1,1.900391 A 122.5,122.5 0 0 0 253.75,49.660391 c -0.95,-1.8 -1.88,-3.57125 -2.75,-5.28125 -0.88,-1.72 -1.73961,-3.478829 -2.59961,-5.298829 z m -26.4375,0.248047 a 7.94,7.94 0 0 0 -0.24219,0.002 c -0.48,0 -0.95016,0.0088 -1.41016,0.04883 a 20.53,20.53 0 0 1 -2.82031,0.02148 l -1.40039,-0.07031 h -0.01 l 0.0996,2.490235 c 0.04,0.8 0.0605,1.638515 0.0605,2.478515 v 3.300782 c 0,0.84 -0.0208,1.68 -0.0508,2.5 L 215.76953,52.51 c 0.41,-0.02 0.83024,-0.04102 1.24024,-0.04102 h 1.25 l 1.25,0.02148 1.25,0.01953 c 0.73,0 1.50078,-0.109844 2.30078,-0.339844 a 6.05,6.05 0 0 0 3.83984,-3.259765 c 0.44,-0.87 0.65039,-1.950469 0.65039,-3.230469 0,-0.98 -0.12156,-1.870156 -0.35156,-2.660156 a 4.81,4.81 0 0 0 -3,-3.25 7.94,7.94 0 0 0 -2.55664,-0.441407 z m -37.17188,0.002 c 0.04,0.84 0.0796,1.668516 0.0996,2.478516 0.04,0.82 0.0606,1.65 0.0606,2.5 v 3.300781 c 0,0.83 -0.0208,1.670469 -0.0508,2.480469 L 184.48047,52.51 a 10.55,10.55 0 0 1 1.82031,0 102.36,102.36 0 0 1 -0.15039,-4.900391 v -1.679687 c 0,-0.07 0.0296,-0.109375 0.0996,-0.109375 0.05,0 0.1207,0.04844 0.2207,0.148437 0.2,0.2 0.49969,0.560547 0.92969,1.060547 a 631.34,631.34 0 0 1 4.459,5.480469 c 0.16999,-0.02 0.34976,-0.04102 0.50976,-0.04102 h 1.08008 A 4,4 0 0 1 194,52.51 c -1.05,-1.22 -2.09914,-2.420859 -3.11914,-3.630859 -1.02,-1.21 -2.04078,-2.398594 -3.05078,-3.558594 0.34,-0.4 0.75976,-0.860391 1.25976,-1.400391 a 87.72,87.72 0 0 1 4.69922,-4.589844 6.87,6.87 0 0 1 -0.88867,0.09961 l -0.37109,-0.0293 -0.39844,-0.07031 A 164.76,164.76 0 0 1 189.33984,42.51 c -0.48,0.53 -0.95945,1.029531 -1.43945,1.519531 a 26,26 0 0 1 -1.37109,1.300781 c -0.13,0.12 -0.21977,0.179688 -0.25977,0.179688 -0.08,0 -0.10937,-0.05016 -0.10937,-0.160156 v -1.050782 c 0,-0.84 0.0208,-1.670234 0.0508,-2.490234 l 0.0996,-2.478516 a 10.06,10.06 0 0 1 -0.91016,0.09961 l -0.45117,-0.0293 -0.46875,-0.07031 z m 49.5293,0 c 0.05,0.82 0.0696,1.638985 0.0996,2.458985 0.03,0.82 0.0508,1.65 0.0508,2.5 v 3.300781 c 0,0.84 -0.0208,1.660469 -0.0508,2.480469 L 234,52.51 c 0.57,-0.02 1.12922,-0.04102 1.69922,-0.04102 h 3.38086 A 36,36 0 0 1 240.75,52.51 c -0.04,-0.13 -0.0606,-0.29 -0.0606,-0.5 v -0.300781 c 0,-0.1 0.0208,-0.198828 0.0508,-0.298828 -0.3,0.07 -0.65078,0.118437 -1.05078,0.148437 a 43.92,43.92 0 0 1 -2.67968,0.101563 h -1.29883 c 0,-0.23 -0.041,-0.600313 -0.041,-1.070313 v -4.201172 l 0.01,-0.378906 0.90039,0.0098 1.2207,0.01953 a 34.82,34.82 0 0 1 2.41016,0.140625 2.82,2.82 0 0 1 0,-1.169922 l -0.86133,0.07031 -1,0.05859 a 43.15,43.15 0 0 1 -2.66992,0.06055 v -2.529297 c 0,-0.47 -4.7e-4,-0.899765 0.0195,-1.259765 L 235.75,40.22875 a 38.07,38.07 0 0 1 3.82031,0.181641 l 1.08985,0.06836 a 2.85,2.85 0 0 1 0,-1.148438 168.75,168.75 0 0 1 -3.32032,0.09961 A 46.23,46.23 0 0 1 234,39.330312 Z m 33.35938,0 0.10156,2.490235 c 0.03,0.8 0.0488,1.638515 0.0488,2.478515 v 3.300782 c 0,0.84 -0.0188,1.68 -0.0488,2.5 L 267.35938,52.51 a 10.06,10.06 0 0 1 1.82031,0 l -0.0996,-2.419922 c -0.03,-0.81 -0.0508,-1.650234 -0.0508,-2.490234 v -3.300782 c 0,-0.84 0.0208,-1.668515 0.0508,-2.478515 l 0.0996,-2.490235 a 18.27,18.27 0 0 1 -0.90039,0.09961 9.63,9.63 0 0 1 -0.91016,-0.09961 z m 21.96093,0 0.0996,2.478516 c 0.04,0.82 0.0508,1.65 0.0508,2.5 v 3.300781 c 0,0.83 -10e-4,1.670469 -0.041,2.480469 L 289.33008,52.51 a 10.35,10.35 0 0 1 1.82031,0 c -0.05,-0.8 -0.0796,-1.599922 -0.0996,-2.419922 -0.03,-0.81 -0.0508,-1.650234 -0.0508,-2.490234 v -1.669922 c 0,-0.07 0.0298,-0.109375 0.0898,-0.109375 0.05,0 0.13047,0.04844 0.23047,0.148437 0.2,0.2 0.49992,0.560547 0.91992,1.060547 l 1.40039,1.699219 1.58008,1.980469 1.47852,1.800781 c 0.18,-0.02 0.35148,-0.04102 0.52148,-0.04102 h 1.06836 c 0.19,0 0.37055,0.01102 0.56055,0.04102 -1.06,-1.22 -2.09914,-2.420859 -3.11914,-3.630859 l -3.05078,-3.558594 c 0.33,-0.4 0.74976,-0.860391 1.25976,-1.400391 a 79.11,79.11 0 0 1 3.23047,-3.230469 c 0.55,-0.52 1.04071,-0.979375 1.4707,-1.359375 a 7.25,7.25 0 0 1 -0.90039,0.09961 6.14,6.14 0 0 1 -0.76953,-0.09961 l -1.33984,1.589844 a 88.02,88.02 0 0 1 -2.89063,3.109375 c -0.48,0.49 -0.94109,0.920781 -1.37109,1.300781 -0.12,0.12 -0.19977,0.179688 -0.25976,0.179688 -0.07,0 -0.10938,-0.05016 -0.10938,-0.160156 v -1.050782 c 0,-0.84 0.0208,-1.670234 0.0508,-2.490234 l 0.0996,-2.478516 a 10.8,10.8 0 0 1 -0.91016,0.09961 l -0.45117,-0.0293 -0.45898,-0.07031 z m -68.90039,0.798829 h 0.002 0.008 c 0.77589,7.82e-4 1.47393,0.0907 2.12109,0.25 0.65,0.16 1.19992,0.441328 1.66992,0.861328 0.46,0.42 0.82961,0.979218 1.09961,1.699218 0.27,0.71 0.40039,1.630235 0.40039,2.740235 a 8,8 0 0 1 -0.50976,3.099609 c -0.35,0.8 -0.79008,1.430625 -1.33008,1.890625 a 4.4,4.4 0 0 1 -1.83008,0.939453 c -0.69,0.16 -1.37078,0.25 -2.05078,0.25 -0.48,0 -0.94086,-0.02078 -1.38086,-0.05078 -0.45,-0.03 -0.79836,-0.07867 -1.06836,-0.138672 a 67.7,67.7 0 0 1 -0.11133,-4.070312 v -3.300782 a 46.23,46.23 0 0 1 0.1211,-3.96875 24.1,24.1 0 0 1 2.85937,-0.201171 z m -47.90039,1.541015 2.07031,4.869141 -1.05078,0.03125 -1.03906,0.0098 c -0.32,0 -0.66,-0.0015 -1,-0.02148 l -1.00977,-0.0098 z m 31.29102,0 2.07031,4.869141 -1.05078,0.03125 -1.04102,0.0098 c -0.32,0 -0.66,-0.0015 -1,-0.02148 a 35.1,35.1 0 0 0 -1.01953,-0.0098 z" />
    <g
       id="g1542">
      <g
         id="g1321"
         transform="translate(7.9368855,-98.500052)"
         style="fill:#ffffff;stroke:#ffffff">
        <path
           id="path1244"
           style="fill:#ffffff;stroke:#ffffff"
           d="m 146.06688,159.125 v 7.21875 l 0.46094,-0.0391 0.46875,0.0391 v -3.5293 h 0.40039 l 0.83984,1 1.25,1.59961 0.66016,0.92969 0.59961,-0.0391 0.62109,0.0391 -0.20117,-0.26953 -0.50977,-0.58984 -2.17968,-2.75977 c 0.54178,-0.0734 1.05703,-0.27915 1.5,-0.59961 0.44,-0.36 0.66992,-0.83039 0.66992,-1.40039 0,-0.54 -0.20031,-0.94117 -0.57031,-1.20117 -0.38,-0.27 -0.9693,-0.39844 -1.7793,-0.39844 z m 1.92969,0.35938 c 0.21,0 0.40078,0.0191 0.55078,0.0391 0.77,0.12 1.16016,0.57008 1.16016,1.33008 0,0.39 -0.13086,0.72023 -0.38086,0.99023 -0.26,0.26 -0.57875,0.42953 -0.96875,0.51953 l -0.40039,0.0508 -0.42969,0.01 h -0.30078 l -0.24024,-0.01 v -2.90039 l 0.49024,-0.01 z" />
        <path
           id="path1236"
           style="fill:#ffffff;stroke:#ffffff"
           d="m 139.93663,158.96484 c -1.12,0 -2.04953,0.32977 -2.76953,1.00977 -0.75527,0.71105 -1.16603,1.71334 -1.12891,2.75 0,1.14 0.34883,2.05047 1.04883,2.73047 0.77288,0.69729 1.79036,1.06015 2.83008,1.00976 1.19,0 2.16039,-0.35054 2.90039,-1.06054 0.75657,-0.74261 1.16261,-1.77084 1.11914,-2.83008 0.0553,-1.06821 -0.41065,-2.09672 -1.25,-2.75977 -0.79292,-0.58863 -1.76322,-0.88816 -2.75,-0.84961 z m 0.11133,0.34961 c 0.43,0 0.83875,0.0798 1.21875,0.25977 0.74532,0.354 1.29487,1.0211 1.5,1.82031 0.1,0.36 0.14062,0.77977 0.14062,1.25977 0,0.78 -0.22039,1.49968 -0.65039,2.17968 -0.4781,0.81189 -1.35687,1.3009 -2.29883,1.2793 -0.76897,0.0313 -1.51554,-0.26535 -2.05078,-0.81836 -0.58977,-0.67134 -0.89137,-1.54928 -0.83984,-2.4414 0,-1.08 0.27078,-1.92836 0.80078,-2.56836 0.53471,-0.64683 1.34123,-1.00654 2.17969,-0.97071 z" />
        <path
           style="fill:#ffffff;stroke:#ffffff"
           d="m 130.50826,159.12425 v 7.22 l 0.46,-0.04 0.46,0.03 v -3.6 h 1.64 c 0.31225,0.0331 0.62601,0.0498 0.94,0.05 l -0.03,-0.3 0.03,-0.27 c -0.05,0 -0.19,0 -0.41,0.03 l -0.53,0.02 h -1.64 v -2.65 h 0.81 l 1.06,0.02 c 0.31903,0.0121 0.63664,0.0489 0.95,0.11 l -0.03,-0.3 0.03,-0.33 z"
           id="path1198" />
      </g>
      <g
         id="g1325"
         transform="translate(14.997626,-98.500052)"
         style="fill:#ffffff;stroke:#ffffff">
        <path
           id="path1238"
           style="fill:#ffffff;stroke:#ffffff"
           d="m 198.42773,158.96484 c -1.13,0 -2.04929,0.32977 -2.77929,1.00977 -0.75527,0.71105 -1.16798,1.71334 -1.13086,2.75 0,1.14 0.35054,2.05047 1.06054,2.73047 0.77288,0.69729 1.79036,1.06015 2.83008,1.00976 1.19,0 2.15039,-0.35054 2.90039,-1.06054 0.75657,-0.74261 1.16261,-1.77084 1.11914,-2.83008 0.0529,-1.06998 -0.41666,-2.09883 -1.25976,-2.75977 -0.79021,-0.58645 -1.75685,-0.88586 -2.74024,-0.84961 z m 0.0996,0.34961 c 0.44,0 0.85047,0.0798 1.23047,0.25977 0.38,0.18 0.70071,0.42976 0.97071,0.75976 0.26,0.33 0.42953,0.68079 0.51953,1.05079 0.1,0.37 0.14062,0.79953 0.14062,1.26953 0,0.78 -0.21062,1.49968 -0.64062,2.17968 -0.47986,0.81508 -1.36505,1.30457 -2.31055,1.2793 -0.76554,0.0285 -1.50618,-0.268 -2.03906,-0.81836 -0.56,-0.6 -0.83985,-1.4014 -0.83985,-2.4414 0,-1.08 0.25907,-1.92836 0.78907,-2.56836 0.53471,-0.64683 1.34122,-1.00654 2.17968,-0.97071 z" />
        <path
           style="fill:#ffffff;stroke:#ffffff"
           d="m 208.12911,158.96425 c -1.21,0 -2.2,0.32 -2.94,0.96 -0.79295,0.70867 -1.223,1.73785 -1.17,2.8 0,1.12 0.32,2.01 0.95,2.67 0.68,0.72 1.66,1.07 2.94,1.07 0.98,0 1.94,-0.16 2.88,-0.49 v -2.98 l -0.47,0.03 -0.46,-0.03 v 2.71 c -0.24,0.12 -0.5,0.21 -0.79,0.28 -0.28335,0.0548 -0.5714,0.0816 -0.86,0.08 -1.03,0 -1.81,-0.3 -2.35,-0.89 -0.54,-0.6 -0.8,-1.43 -0.8,-2.5 0,-1.04 0.27,-1.86 0.82,-2.44 0.55,-0.58 1.3,-0.87 2.21,-0.87 0.46,0 0.9,0.09 1.31,0.26 0.42,0.18 0.78,0.43 1.07,0.76 h 0.11 c 0.04,-0.15 0.1,-0.3 0.13,-0.46 l 0.12,-0.35 c -0.26482,-0.16213 -0.55089,-0.28666 -0.85,-0.37 -0.60183,-0.16895 -1.22498,-0.24979 -1.85,-0.24 z"
           id="path1166" />
      </g>
      <g
         id="g1286"
         transform="translate(16.137779,-98.500052)"
         style="fill:#ffffff;stroke:#ffffff">
        <path
           id="path1256"
           style="fill:#ffffff;stroke:#ffffff"
           d="m 278.14622,158.96484 -3.30079,7.37891 0.38086,-0.0391 0.38868,0.0391 c 0.13,-0.46 0.25132,-0.82937 0.36132,-1.10937 l 0.67969,-1.75 h 2.67969 c 0.4097,0.93745 0.77939,1.89098 1.10937,2.85937 l 0.56055,-0.0391 0.55078,0.0391 -3.16015,-7.37891 z m -0.14063,1.37891 1.16992,2.70117 h -2.32031 z" />
        <path
           id="path1254"
           style="fill:#ffffff;stroke:#ffffff"
           d="m 267.48456,159.125 v 7.17969 h 2.06055 c 0.92,0 1.60078,-0.0612 2.05078,-0.20117 0.46,-0.14 0.83867,-0.33961 1.13867,-0.59961 0.90188,-0.77414 1.39333,-1.9225 1.33008,-3.10938 0,-0.52 -0.0991,-1.02047 -0.28906,-1.48047 -0.28972,-0.75682 -0.89649,-1.34796 -1.66016,-1.61914 -0.49216,-0.13102 -1.0008,-0.18823 -1.50977,-0.16992 h -0.7207 z m 2.25977,0.37891 c 1.2,0 2.04101,0.23117 2.54101,0.70117 0.5,0.45 0.75,1.22961 0.75,2.34961 0.0144,0.61075 -0.10135,1.21685 -0.33984,1.77929 -0.33703,0.7911 -1.05997,1.35163 -1.91016,1.48047 -0.26,0.04 -0.58047,0.0488 -0.98047,0.0488 l -0.53906,-0.01 c -0.28316,-0.0127 -0.56812,-0.0188 -0.85156,-0.0195 v -6.28906 l 0.58008,-0.0215 c 0.36,-0.02 0.6,-0.0195 0.75,-0.0195 z" />
        <path
           id="path1252"
           style="fill:#ffffff;stroke:#ffffff"
           d="m 255.94255,159.125 v 7.17969 h 2.07031 c 0.91,0 1.60102,-0.0612 2.04102,-0.20117 0.46,-0.14 0.83867,-0.33961 1.13867,-0.59961 0.89937,-0.77598 1.39026,-1.92305 1.33008,-3.10938 0,-0.52 -0.0993,-1.02047 -0.2793,-1.48047 -0.29421,-0.75742 -0.90391,-1.34809 -1.66992,-1.61914 -0.48888,-0.13033 -0.99435,-0.18753 -1.5,-0.16992 h -0.73047 z m 2.27148,0.37891 c 1.2,0 2.0393,0.23117 2.5293,0.70117 0.5,0.45 0.75,1.22961 0.75,2.34961 0,0.69 -0.10984,1.27929 -0.33984,1.77929 -0.3386,0.78989 -1.06075,1.3498 -1.91016,1.48047 -0.25,0.04 -0.58047,0.0488 -0.98047,0.0488 l -0.53906,-0.01 c -0.27983,-0.0125 -0.55973,-0.0187 -0.83984,-0.0195 v -6.28906 l 0.57031,-0.0215 c 0.36,-0.02 0.59976,-0.0195 0.75976,-0.0195 z" />
        <path
           id="path1250"
           style="fill:#ffffff;stroke:#ffffff"
           d="m 215.06836,159.125 v 7.17969 h 2.06055 c 0.92,0 1.59882,-0.0612 2.04882,-0.20117 0.46,-0.14 0.84063,-0.33961 1.14063,-0.59961 0.90188,-0.77414 1.39333,-1.9225 1.33008,-3.10938 0,-0.52 -0.10102,-1.02047 -0.29102,-1.48047 -0.28972,-0.75682 -0.89453,-1.34796 -1.6582,-1.61914 -0.4921,-0.13131 -1.00274,-0.18853 -1.51172,-0.16992 h -0.71875 z m 2.25976,0.37891 c 1.2,0 2.0393,0.23117 2.5293,0.70117 0.5,0.45 0.75,1.22961 0.75,2.34961 0,0.69 -0.10008,1.27929 -0.33008,1.77929 -0.3386,0.78989 -1.05879,1.3498 -1.9082,1.48047 -0.26,0.04 -0.58047,0.0488 -0.98047,0.0488 l -0.54101,-0.01 -0.84961,-0.0195 v -6.28906 l 0.58007,-0.0215 c 0.35,-0.02 0.60001,-0.0195 0.75,-0.0195 z" />
        <path
           style="fill:#ffffff;stroke:#ffffff"
           d="m 308.72993,159.12425 v 7.22 l 0.47,-0.04 0.46,0.04 v -3.69 l 0.04,-0.02 c 0.06,0.01 0.1,0.02 0.14,0.05 l 2.3,2.7 c 0.26096,0.30621 0.50467,0.6267 0.73,0.96 l 0.6,-0.04 0.57,0.04 v -0.06 l -0.85,-1.05 -2.57,-2.9 0.9,-0.91 2.4,-2.3 -0.42,0.03 -0.43,-0.03 -2.6,2.68 -0.2,0.19 -0.34,0.32 c -0.0538,0.041 -0.11489,0.0715 -0.18,0.09 -0.06,0.01 -0.1,0 -0.1,-0.02 v -3.26 l -0.46,0.03 z"
           id="path1232" />
        <path
           style="fill:#ffffff;stroke:#ffffff"
           d="m 301.56016,159.12425 v 7.22 l 0.46,-0.04 0.46,0.04 v -3.69 l 0.04,-0.02 c 0.06,0.01 0.1,0.02 0.14,0.05 l 2.3,2.7 c 0.25972,0.3072 0.50338,0.62763 0.73,0.96 l 0.6,-0.04 0.57,0.04 v -0.06 l -0.85,-1.05 -2.57,-2.9 0.9,-0.91 2.4,-2.3 -0.42,0.03 -0.43,-0.03 -2.6,2.68 c -0.17591,0.18102 -0.35941,0.35451 -0.55,0.52 -0.0514,0.0366 -0.10902,0.0637 -0.17,0.08 -0.06,0.01 -0.1,0 -0.1,-0.02 v -3.26 l -0.45,0.03 z"
           id="path1230" />
        <path
           style="fill:#ffffff;stroke:#ffffff"
           d="m 298.61668,159.12425 v 7.22 l 0.46,-0.04 0.47,0.04 v -7.22 l -0.47,0.03 z"
           id="path1228" />
        <path
           style="fill:#ffffff;stroke:#ffffff"
           d="m 291.08453,159.12425 0.03,0.31 -0.03,0.32 c 0.7638,-0.0843 1.53157,-0.12767 2.3,-0.13 v 6.74 l 0.48,-0.03 0.46,0.03 v -6.74 c 0.73541,-0.006 1.47037,0.0378 2.2,0.13 l -0.03,-0.32 0.04,-0.31 z"
           id="path1226" />
        <path
           style="fill:#ffffff;stroke:#ffffff"
           d="m 283.40015,159.12425 v 7.22 l 0.46,-0.04 0.47,0.04 v -3.69 l 0.04,-0.02 c 0.06,0.01 0.1,0.02 0.14,0.05 l 2.3,2.7 c 0.2635,0.30415 0.50733,0.6248 0.73,0.96 l 0.59,-0.04 0.58,0.04 v -0.06 l -0.86,-1.05 -2.56,-2.9 0.9,-0.91 2.4,-2.3 -0.43,0.03 -0.42,-0.03 -2.6,2.68 c -0.1755,0.18143 -0.35902,0.35494 -0.55,0.52 -0.0516,0.0364 -0.10909,0.0635 -0.17,0.08 -0.06,0.01 -0.1,0 -0.1,-0.02 v -3.26 l -0.46,0.03 z"
           id="path1224" />
        <path
           style="fill:#ffffff;stroke:#ffffff"
           d="m 264.54108,159.12425 v 7.22 l 0.46,-0.04 0.47,0.04 v -7.22 l -0.47,0.03 z"
           id="path1220" />
        <path
           style="fill:#ffffff;stroke:#ffffff"
           d="m 247.80907,159.12425 v 7.22 l 0.3,-0.04 0.29,0.04 v -5.7 h 0.1 l 4.56,5.05 0.55,0.65 h 0.32 v -7.22 l -0.3,0.03 -0.3,-0.03 v 5.43 h -0.1 l -5.01,-5.43 z"
           id="path1216" />
        <path
           style="fill:#ffffff;stroke:#ffffff"
           d="m 235.95412,159.12425 v 7.22 l 0.46,-0.04 0.47,0.04 v -7.22 l -0.47,0.03 z"
           id="path1214" />
        <path
           style="fill:#ffffff;stroke:#ffffff"
           d="m 223.66736,159.12425 v 7.18 h 3.81 l -0.04,-0.31 0.04,-0.32 -0.54,0.08 -0.43,0.02 -0.82,0.02 -1.1,0.02 v -3.09 h 1.64 c 0.31225,0.033 0.62601,0.0496 0.94,0.05 l -0.03,-0.29 0.03,-0.27 -0.4,0.03 c -0.23,0.02 -0.4,0.02 -0.54,0.02 h -1.63 v -2.65 h 0.81 l 1.06,0.02 c 0.3193,0.0153 0.63693,0.0554 0.95,0.12 l -0.04,-0.32 0.03,-0.31 z"
           id="path1212" />
        <path
           style="fill:#ffffff;stroke:#ffffff"
           d="m 243.01198,158.96425 c -1.22,0 -2.2,0.32 -2.94,0.96 -0.79295,0.70867 -1.223,1.73785 -1.17,2.8 0,1.12 0.31,2.01 0.95,2.67 0.68,0.72 1.66,1.07 2.94,1.07 0.98,0 1.94,-0.16 2.87,-0.49 v -2.98 l -0.46,0.03 -0.47,-0.03 v 2.71 c -0.23,0.12 -0.49,0.21 -0.78,0.28 -0.28335,0.0548 -0.5714,0.0816 -0.86,0.08 -1.03,0 -1.81,-0.3 -2.36,-0.89 -0.53,-0.6 -0.8,-1.43 -0.8,-2.5 0,-1.04 0.28,-1.86 0.82,-2.44 0.56,-0.58 1.3,-0.87 2.22,-0.87 0.46,0 0.9,0.09 1.3,0.26 0.43,0.18 0.79,0.43 1.07,0.76 h 0.12 l 0.13,-0.46 0.11,-0.35 c -0.26158,-0.16152 -0.54426,-0.28603 -0.84,-0.37 -0.60183,-0.16895 -1.22498,-0.24979 -1.85,-0.24 z"
           id="path1168" />
        <path
           style="fill:#ffffff;stroke:#ffffff"
           d="m 232.1301,158.96425 c -0.67,0 -1.22,0.17 -1.64,0.5 -0.47,0.37 -0.7,0.88 -0.7,1.52 0,0.68 0.28,1.19 0.85,1.53 l 1.6,0.71 c 0.57,0.3 0.85,0.71 0.85,1.25 0,0.43 -0.14,0.8 -0.42,1.1 -0.27,0.29 -0.62,0.44 -1.05,0.44 -0.39,0 -0.73,-0.1 -1,-0.3 -0.28404,-0.21765 -0.52199,-0.48958 -0.7,-0.8 h -0.1 l -0.09,0.52 -0.11,0.42 c 0.16,0.18 0.42,0.33 0.76,0.44 0.35,0.11 0.67,0.17 0.96,0.17 0.75,0 1.36,-0.2 1.84,-0.63 0.51,-0.44 0.76,-1.04 0.76,-1.77 0.0157,-0.61098 -0.31801,-1.17753 -0.86,-1.46 l -1.6,-0.7 c -0.58,-0.3 -0.86,-0.72 -0.86,-1.25 0,-0.37 0.12,-0.66 0.38,-0.89 0.26,-0.23 0.57,-0.35 0.95,-0.35 0.31,0 0.58,0.08 0.8,0.24 0.22,0.16 0.4,0.38 0.5,0.68 h 0.11 l 0.16,-0.55 0.13,-0.32 c -0.2,-0.17 -0.42,-0.3 -0.69,-0.38 -0.26567,-0.0813 -0.54216,-0.12181 -0.82,-0.12 z"
           id="path1158" />
      </g>
      <g
         id="g1294"
         transform="translate(11.049864,-98.500052)"
         style="fill:#ffffff;stroke:#ffffff">
        <path
           id="path1248"
           style="fill:#ffffff;stroke:#ffffff"
           d="m 154.07812,159.125 v 7.17969 h 2.05079 c 0.92,0 1.59882,-0.0612 2.04882,-0.20117 0.46,-0.14 0.84063,-0.33961 1.14063,-0.59961 0.89812,-0.77689 1.38874,-1.92332 1.33008,-3.10938 0,-0.52 -0.10102,-1.02047 -0.29102,-1.48047 -0.29087,-0.75607 -0.89526,-1.34679 -1.6582,-1.61914 -0.4921,-0.13131 -1.00274,-0.18853 -1.51172,-0.16992 h -0.71875 z m 2.25,0.37891 c 1.2,0 2.04102,0.23117 2.54102,0.70117 0.5,0.45 0.75,1.22961 0.75,2.34961 0,0.69 -0.1218,1.27929 -0.3418,1.77929 -0.34016,0.78868 -1.05957,1.348 -1.9082,1.48047 -0.25,0.04 -0.58047,0.0488 -0.98047,0.0488 l -0.54101,-0.01 -0.84961,-0.0195 v -6.28906 l 0.58984,-0.0215 c 0.35,-0.02 0.60024,-0.0195 0.74023,-0.0195 z" />
        <path
           style="fill:#ffffff;stroke:#ffffff"
           d="m 187.06664,159.12425 v 7.22 l 0.3,-0.04 0.3,0.04 v -5.7 h 0.1 l 4.55,5.05 0.55,0.65 h 0.32 v -7.22 l -0.3,0.03 -0.3,-0.03 v 5.43 h -0.1 l -5.01,-5.43 z"
           id="path1208" />
        <path
           style="fill:#ffffff;stroke:#ffffff"
           d="m 175.09351,159.12425 v 7.22 l 0.46,-0.04 0.47,0.04 v -7.22 l -0.47,0.03 z"
           id="path1206" />
        <path
           style="fill:#ffffff;stroke:#ffffff"
           d="m 162.71605,159.12425 v 7.18 h 3.81 l -0.03,-0.31 0.03,-0.32 -0.54,0.08 -0.43,0.02 -0.81,0.02 -1.1,0.02 v -3.09 h 1.64 c 0.31225,0.033 0.62601,0.0497 0.94,0.05 l -0.03,-0.29 0.03,-0.27 -0.42,0.03 c -0.21,0.02 -0.39,0.02 -0.52,0.02 h -1.64 v -2.65 h 0.81 l 1.06,0.02 c 0.31925,0.0159 0.63683,0.056 0.95,0.12 l -0.03,-0.32 0.03,-0.31 z"
           id="path1204" />
        <path
           style="fill:#ffffff;stroke:#ffffff"
           d="m 182.20076,158.96425 c -1.21,0 -2.2,0.32 -2.94,0.96 -0.79295,0.70867 -1.223,1.73785 -1.17,2.8 0,1.12 0.31,2.01 0.95,2.67 0.68,0.72 1.66,1.07 2.94,1.07 0.98,0 1.94,-0.16 2.87,-0.49 v -2.98 l -0.46,0.03 -0.46,-0.03 v 2.71 c -0.24,0.12 -0.5,0.21 -0.79,0.28 -0.28,0.05 -0.57,0.08 -0.86,0.08 -1.03,0 -1.81,-0.3 -2.36,-0.89 -0.53,-0.6 -0.8,-1.43 -0.8,-2.5 0,-1.04 0.28,-1.86 0.83,-2.44 0.55,-0.58 1.29,-0.87 2.21,-0.87 0.46,0 0.9,0.09 1.31,0.26 0.42,0.18 0.78,0.43 1.07,0.76 h 0.11 c 0.04,-0.15 0.1,-0.3 0.13,-0.46 l 0.12,-0.35 c -0.26482,-0.16213 -0.55089,-0.28666 -0.85,-0.37 -0.60181,-0.16909 -1.22497,-0.24993 -1.85,-0.24 z"
           id="path1164" />
        <path
           style="fill:#ffffff;stroke:#ffffff"
           d="m 171.21022,158.96425 c -0.66,0 -1.21,0.17 -1.64,0.5 -0.47,0.37 -0.7,0.88 -0.7,1.52 0,0.68 0.28,1.19 0.85,1.53 l 1.6,0.71 c 0.57,0.3 0.85,0.71 0.85,1.25 0,0.43 -0.14,0.8 -0.42,1.1 -0.27,0.29 -0.62,0.44 -1.04,0.44 -0.4,0 -0.73,-0.1 -1.02,-0.3 -0.28441,-0.21725 -0.52242,-0.48927 -0.7,-0.8 h -0.1 l -0.08,0.52 -0.11,0.42 c 0.17,0.18 0.42,0.33 0.77,0.44 0.34,0.11 0.66,0.17 0.95,0.17 0.75,0 1.37,-0.2 1.85,-0.63 0.5,-0.44 0.76,-1.04 0.76,-1.77 0.0138,-0.61319 -0.32413,-1.18032 -0.87,-1.46 l -1.6,-0.7 c -0.57,-0.3 -0.86,-0.72 -0.86,-1.25 0,-0.37 0.13,-0.66 0.38,-0.89 0.26,-0.23 0.58,-0.35 0.95,-0.35 0.32,0 0.59,0.08 0.8,0.24 0.23,0.16 0.4,0.38 0.51,0.68 h 0.1 l 0.16,-0.55 0.13,-0.32 c -0.19,-0.17 -0.42,-0.3 -0.69,-0.38 -0.2656,-0.0817 -0.54214,-0.12212 -0.82,-0.12 z"
           id="path1154" />
      </g>
      <g
         id="g1316"
         transform="translate(6.6944383,-98.500052)"
         style="fill:#ffffff;stroke:#ffffff">
        <path
           id="path1246"
           style="fill:#ffffff;stroke:#ffffff"
           d="m 76.248871,159.12524 v 7.17969 h 2.048828 c 0.91,0 1.600781,-0.0612 2.050781,-0.20117 0.45,-0.14 0.828672,-0.33961 1.138672,-0.59961 0.90188,-0.77414 1.393323,-1.9225 1.330078,-3.10938 0,-0.52 -0.09906,-1.02047 -0.289062,-1.48047 -0.29534,-0.75667 -0.90463,-1.34693 -1.669922,-1.61914 -0.488881,-0.13033 -0.994353,-0.18753 -1.5,-0.16992 h -0.720703 z m 2.25,0.37891 c 1.2,0 2.039297,0.23117 2.529297,0.70117 0.5,0.45 0.75,1.22961 0.75,2.34961 0,0.69 -0.109844,1.27929 -0.339844,1.77929 -0.336762,0.78718 -1.054728,1.34661 -1.900391,1.48047 -0.26,0.04 -0.590234,0.0488 -0.990234,0.0488 l -0.539063,-0.01 -0.839843,-0.0195 v -6.28906 l 0.580078,-0.0215 c 0.35,-0.02 0.6,-0.0195 0.75,-0.0195 z" />
        <path
           id="path1242"
           style="fill:#ffffff;stroke:#ffffff"
           d="m 104.89558,159.125 v 7.21875 l 0.46875,-0.0391 0.46094,0.0391 v -3.5293 h 0.40039 l 0.84961,1 1.24023,1.59961 0.66992,0.92969 0.59961,-0.0391 0.60938,0.0391 -0.19922,-0.26953 -0.5,-0.58984 -2.17969,-2.75977 c 0.5384,-0.0746 1.05036,-0.28031 1.49023,-0.59961 0.45,-0.36 0.66993,-0.83039 0.66993,-1.40039 0,-0.54 -0.19032,-0.94117 -0.57032,-1.20117 -0.38,-0.27 -0.96953,-0.39844 -1.76953,-0.39844 z m 1.92969,0.35938 c 0.22,0 0.39882,0.0191 0.54882,0.0391 0.78,0.12 1.17188,0.57008 1.17188,1.33008 0,0.39 -0.13063,0.72023 -0.39063,0.99023 -0.25,0.26 -0.5707,0.42953 -0.9707,0.51953 l -0.38867,0.0508 c -0.14316,0.009 -0.28823,0.0117 -0.43164,0.01 h -0.29883 c -0.0797,-0.008 -0.1601,-0.0112 -0.24023,-0.01 v -2.90039 l 0.49023,-0.01 z" />
        <path
           id="path1240"
           style="fill:#ffffff;stroke:#ffffff"
           d="m 11.545376,159.12225 v 7.21875 l 0.460938,-0.0391 0.46875,0.0391 v -3.5293 h 0.400391 l 0.839843,1 1.25,1.59961 0.660157,0.92969 0.599609,-0.0391 0.621094,0.0391 -0.201172,-0.26953 -0.509766,-0.58984 -2.169922,-2.75977 c 0.53491,-0.0762 1.043501,-0.28181 1.480469,-0.59961 0.45,-0.36 0.679688,-0.83039 0.679688,-1.40039 0,-0.54 -0.190313,-0.94117 -0.570313,-1.20117 -0.38,-0.27 -0.969531,-0.39844 -1.769531,-0.39844 z m 1.929688,0.35938 c 0.184035,6.6e-4 0.368586,0.0131 0.550781,0.0391 0.77,0.12 1.160156,0.57008 1.160157,1.33008 0,0.39 -0.13086,0.72023 -0.38086,0.99023 -0.25,0.26 -0.57875,0.42953 -0.96875,0.51953 l -0.390625,0.0508 c -0.143164,0.009 -0.28628,0.0117 -0.429687,0.01 h -0.310547 c -0.07643,-0.008 -0.153677,-0.0107 -0.230469,-0.01 v -2.90039 l 0.480469,-0.01 z" />
        <path
           id="path1234"
           style="fill:#ffffff;stroke:#ffffff"
           d="m 5.7237229,158.98224 c -1.1300002,0 -2.0612492,0.32977 -2.7812503,1.00977 -0.755274,0.71105 -1.166031,1.71334 -1.128907,2.75 0,1.14 0.348594,2.05047 1.058594,2.73047 0.7703761,0.69479 1.7840031,1.05748 2.8203133,1.00976 1.2,0 2.16039,-0.35054 2.90039,-1.06054 0.760242,-0.74087 1.171725,-1.76933 1.13086,-2.83008 0.05289,-1.06998 -0.418624,-2.09883 -1.261719,-2.75977 -0.790211,-0.58645 -1.754895,-0.88586 -2.738281,-0.84961 z m 0.09961,0.34961 c 0.44,0 0.850469,0.0798 1.230469,0.25977 0.38,0.18 0.69875,0.42976 0.96875,0.75976 0.26,0.33 0.429531,0.68079 0.519531,1.05079 0.1,0.37 0.140625,0.79953 0.140625,1.26953 0,0.78 -0.210625,1.49968 -0.640625,2.17968 -0.479858,0.81508 -1.363091,1.30457 -2.308594,1.2793 -0.7655372,0.0285 -1.5081352,-0.268 -2.0410152,-0.81836 -0.5897671,-0.67134 -0.8913691,-1.54928 -0.8398441,-2.4414 0,-1.08 0.261016,-1.92836 0.7910151,-2.56836 0.534711,-0.64683 1.341228,-1.00654 2.1796882,-0.97071 z" />
        <path
           style="fill:#ffffff;stroke:#ffffff"
           d="m 120.97826,159.12178 0.03,0.31 -0.03,0.32 c 0.76712,-0.0847 1.53823,-0.12806 2.31,-0.13 v 6.74 l 0.46,-0.03 0.46,0.03 v -6.74 c 0.73875,-0.006 1.47708,0.0371 2.21,0.13 l -0.03,-0.32 0.03,-0.31 z"
           id="path1196" />
        <path
           style="fill:#ffffff;stroke:#ffffff"
           d="m 115.30116,159.12521 v 7.22 l 0.46,-0.04 0.46,0.03 v -3.6 h 1.64 c 0.31224,0.0331 0.62601,0.0498 0.94,0.05 l -0.03,-0.3 0.03,-0.27 c -0.05,0 -0.19,0 -0.41,0.03 l -0.53,0.02 h -1.64 v -2.65 h 0.82 l 1.05,0.02 c 0.31901,0.0124 0.6366,0.0492 0.95,0.11 l -0.03,-0.3 0.03,-0.33 z"
           id="path1194" />
        <path
           style="fill:#ffffff;stroke:#ffffff"
           d="m 112.55352,159.12022 v 7.22 l 0.47,-0.04 0.46,0.04 v -7.22 l -0.46,0.03 z"
           id="path1192" />
        <path
           style="fill:#ffffff;stroke:#ffffff"
           d="m 97.041916,159.12634 v 7.22 l 0.47,-0.04 0.46,0.04 v -3.69 l 0.05,-0.02 c 0.05,0.01 0.1,0.02 0.13,0.05 l 2.299994,2.7 c 0.26175,0.30557 0.5055,0.62611 0.73,0.96 l 0.6,-0.04 0.57,0.04 v -0.06 l -0.85,-1.05 c -0.86038,-0.96336 -1.717053,-1.93004 -2.569992,-2.9 l 0.899999,-0.91 2.399993,-2.3 -0.42,0.03 -0.42,-0.03 -2.599991,2.68 -0.2,0.19 -0.340003,0.32 c -0.0526,0.0429 -0.1141,0.0736 -0.18,0.09 -0.06,0.01 -0.09,0 -0.1,-0.02 v -3.26 l -0.46,0.03 z"
           id="path1188" />
        <path
           style="fill:#ffffff;stroke:#ffffff"
           d="m 73.501236,159.12344 v 7.22 l 0.47,-0.04 0.46,0.04 v -7.22 l -0.46,0.03 z"
           id="path1184" />
        <path
           style="fill:#ffffff;stroke:#ffffff"
           d="m 66.182878,159.125 0.04,0.31 -0.04,0.32 c 0.767101,-0.0849 1.538222,-0.12826 2.31,-0.13 v 6.74 l 0.47,-0.03 0.46,0.03 v -6.74 c 0.735409,-0.006 1.470375,0.0378 2.2,0.13 l -0.02,-0.32 0.03,-0.31 z"
           id="path1182" />
        <path
           style="fill:#ffffff;stroke:#ffffff"
           d="m 43.227211,159.12834 v 7.22 l 0.3,-0.04 0.29,0.04 v -5.7 h 0.1 l 4.56,5.05 0.55,0.65 h 0.32 v -7.22 l -0.3,0.03 -0.3,-0.03 v 5.43 h -0.1 l -5.01,-5.43 z"
           id="path1180" />
        <path
           style="fill:#ffffff;stroke:#ffffff"
           d="m 40.479576,159.12666 v 7.22 l 0.46,-0.04 0.47,0.04 v -7.22 l -0.47,0.03 z"
           id="path1178" />
        <path
           style="fill:#ffffff;stroke:#ffffff"
           d="m 32.541943,159.12738 v 7.22 l 0.3,-0.04 0.3,0.04 v -5.7 h 0.1 l 4.56,5.05 0.55,0.65 h 0.31 v -7.22 l -0.3,0.03 -0.29,-0.03 v 5.43 h -0.1 l -5.02,-5.43 z"
           id="path1176" />
        <path
           style="fill:#ffffff;stroke:#ffffff"
           d="m 24.700071,159.12425 v 7.22 l 0.46,-0.04 0.47,0.04 v -3.69 l 0.04,-0.02 c 0.05,0.01 0.1,0.02 0.14,0.05 l 2.3,2.7 c 0.261525,0.30575 0.50526,0.62628 0.73,0.96 l 0.59,-0.04 0.58,0.04 v -0.06 l -0.86,-1.05 -2.56,-2.9 0.9,-0.91 2.39,-2.3 -0.41,0.03 -0.42,-0.03 -2.6,2.68 c -0.177486,0.17942 -0.360921,0.35285 -0.55,0.52 -0.05352,0.0394 -0.114927,0.0666 -0.18,0.08 -0.05,0.01 -0.09,0 -0.1,-0.02 v -3.26 l -0.46,0.03 z"
           id="path1174" />
        <path
           style="fill:#ffffff;stroke:#ffffff"
           d="m -3.8444386,159.12271 v 7.22 l 0.46,-0.04 0.47,0.03 v -3.6 h 1.6299996 c 0.05,0 0.19,0 0.41999999,0.03 l 0.52,0.02 -0.03,-0.3 0.03,-0.27 c -0.05,0 -0.18,0 -0.4,0.03 l -0.53999999,0.02 h -1.6299996 v -2.65 h 0.81 l 1.0599996,0.02 c 0.31913499,0.0107 0.63685999,0.0475 0.95000002,0.11 l -0.04,-0.3 0.03,-0.32 z"
           id="path1170" />
        <path
           style="fill:#ffffff;stroke:#ffffff"
           d="m 55.279451,158.9671 c -1.21,0 -2.2,0.32 -2.94,0.96 -0.794158,0.70781 -1.22446,1.73759 -1.17,2.8 0,1.12 0.32,2.01 0.95,2.67 0.68,0.72 1.66,1.07 2.94,1.07 0.98,0 1.94,-0.16 2.87,-0.49 v -2.98 l -0.46,0.03 -0.46,-0.03 v 2.71 c -0.24,0.12 -0.5,0.21 -0.78,0.28 -0.29,0.05 -0.58,0.08 -0.87,0.08 -1.03,0 -1.81,-0.3 -2.35,-0.89 -0.54,-0.6 -0.8,-1.43 -0.8,-2.5 0,-1.04 0.27,-1.86 0.82,-2.44 0.55,-0.58 1.3,-0.87 2.21,-0.87 0.46,0 0.9,0.09 1.31,0.26 0.42,0.18 0.78,0.43 1.07,0.76 h 0.11 l 0.13,-0.46 0.12,-0.35 c -0.264877,-0.16202 -0.550932,-0.28653 -0.85,-0.37 -0.59856,-0.16827 -1.218305,-0.2491 -1.84,-0.24 z"
           id="path1162" />
        <path
           style="fill:#ffffff;stroke:#ffffff"
           d="m 93.413873,158.97 c -0.67,0 -1.22,0.17 -1.64,0.5 -0.47,0.37 -0.7,0.88 -0.7,1.52 0,0.68 0.28,1.19 0.85,1.53 l 1.6,0.71 c 0.57,0.3 0.85,0.71 0.85,1.25 0,0.43 -0.14,0.8 -0.42,1.1 -0.27,0.29 -0.62,0.44 -1.04,0.44 -0.4,0 -0.74,-0.1 -1.02,-0.3 -0.284041,-0.21765 -0.521985,-0.48958 -0.7,-0.8 h -0.1 c -0.04411,0.31771 -0.110952,0.63185 -0.2,0.94 0.17,0.18 0.43,0.33 0.77,0.44 0.35,0.11 0.66,0.17 0.95,0.17 0.75,0 1.37,-0.2 1.85,-0.63 0.5,-0.44 0.76,-1.04 0.76,-1.77 0.01381,-0.61319 -0.324131,-1.18032 -0.87,-1.46 l -1.6,-0.7 c -0.57,-0.3 -0.86,-0.72 -0.86,-1.25 0,-0.37 0.13,-0.66 0.38,-0.89 0.26,-0.23 0.58,-0.35 0.95,-0.35 0.32,0 0.59,0.08 0.8,0.24 0.23,0.16 0.4,0.38 0.51,0.68 h 0.1 c 0.09238,-0.29257 0.192412,-0.58267 0.3,-0.87 -0.2,-0.17 -0.43,-0.3 -0.7,-0.38 -0.265668,-0.0813 -0.542163,-0.12181 -0.82,-0.12 z"
           id="path1150" />
        <path
           style="fill:#ffffff;stroke:#ffffff"
           d="m 87.216056,158.97322 c -0.67,0 -1.22,0.17 -1.65,0.5 -0.47,0.37 -0.7,0.88 -0.7,1.52 0,0.68 0.29,1.19 0.86,1.53 l 1.6,0.71 c 0.56,0.3 0.85,0.71 0.85,1.25 0,0.43 -0.14,0.8 -0.43,1.1 -0.27,0.29 -0.62,0.44 -1.04,0.44 -0.4,0 -0.73,-0.1 -1.01,-0.3 -0.284041,-0.21765 -0.521985,-0.48958 -0.7,-0.8 h -0.1 c -0.04577,0.31742 -0.112588,0.63144 -0.2,0.94 0.16,0.18 0.42,0.33 0.76,0.44 0.35,0.11 0.67,0.17 0.95,0.17 0.76,0 1.37,-0.2 1.85,-0.63 0.5,-0.44 0.76,-1.04 0.76,-1.77 0.01571,-0.61098 -0.318012,-1.17753 -0.86,-1.46 l -1.61,-0.7 c -0.57,-0.3 -0.85,-0.72 -0.85,-1.25 0,-0.37 0.12,-0.66 0.38,-0.89 0.26,-0.23 0.57,-0.35 0.94,-0.35 0.32,0 0.59,0.08 0.8,0.24 0.23,0.16 0.4,0.38 0.51,0.68 h 0.11 l 0.16,-0.55 0.12,-0.32 c -0.19,-0.17 -0.41,-0.3 -0.68,-0.38 -0.265634,-0.0815 -0.542153,-0.12196 -0.82,-0.12 z"
           id="path1148" />
        <path
           style="fill:#ffffff;stroke:#ffffff"
           d="m 62.490114,158.97644 c -0.68,0 -1.23,0.17 -1.65,0.5 -0.47,0.37 -0.7,0.88 -0.7,1.52 0,0.68 0.28,1.19 0.85,1.53 l 1.6,0.71 c 0.57,0.3 0.85,0.71 0.85,1.25 0,0.43 -0.14,0.8 -0.42,1.1 -0.27,0.29 -0.62,0.44 -1.04,0.44 -0.4,0 -0.74,-0.1 -1.02,-0.3 -0.284225,-0.21745 -0.522204,-0.48943 -0.7,-0.8 h -0.1 c -0.04367,0.31779 -0.11051,0.63196 -0.2,0.94 0.17,0.18 0.43,0.33 0.77,0.44 0.35,0.11 0.66,0.17 0.95,0.17 0.75,0 1.37,-0.2 1.85,-0.63 0.5,-0.44 0.76,-1.04 0.76,-1.77 0.01381,-0.61319 -0.324131,-1.18032 -0.87,-1.46 l -1.6,-0.7 c -0.57,-0.3 -0.86,-0.72 -0.86,-1.25 0,-0.37 0.13,-0.66 0.38,-0.89 0.26,-0.23 0.58,-0.35 0.95,-0.35 0.32,0 0.59,0.08 0.8,0.24 0.23,0.16 0.4,0.38 0.51,0.68 h 0.1 c 0.09261,-0.2925 0.192643,-0.58259 0.3,-0.87 -0.2,-0.17 -0.43,-0.3 -0.7,-0.38 -0.265668,-0.0813 -0.542163,-0.12181 -0.82,-0.12 z"
           id="path1146" />
        <path
           style="fill:#ffffff;stroke:#ffffff"
           d="m 21.081906,158.97966 c -0.67,0 -1.22,0.17 -1.65,0.5 -0.46,0.37 -0.7,0.88 -0.7,1.52 0,0.68 0.29,1.19 0.86,1.53 l 1.6,0.71 c 0.56,0.3 0.85,0.71 0.85,1.25 0,0.43 -0.14,0.8 -0.42,1.1 -0.28,0.29 -0.63,0.44 -1.05,0.44 -0.4,0 -0.73,-0.1 -1.01,-0.3 -0.284041,-0.21765 -0.521985,-0.48958 -0.7,-0.8 h -0.1 c -0.04577,0.31742 -0.112588,0.63144 -0.2,0.94 0.16,0.18 0.42,0.33 0.76,0.44 0.35,0.11 0.67,0.17 0.95,0.17 0.76,0 1.37,-0.2 1.85,-0.63 0.5,-0.44 0.76,-1.04 0.76,-1.77 0.01571,-0.61098 -0.318012,-1.17753 -0.86,-1.46 l -1.6,-0.7 c -0.58,-0.3 -0.86,-0.72 -0.86,-1.25 0,-0.37 0.12,-0.66 0.38,-0.89 0.26,-0.23 0.57,-0.35 0.95,-0.35 0.31,0 0.58,0.08 0.8,0.24 0.22,0.16 0.4,0.38 0.5,0.68 h 0.11 l 0.16,-0.55 0.12,-0.32 c -0.19,-0.17 -0.41,-0.3 -0.68,-0.38 -0.265634,-0.0815 -0.542153,-0.12196 -0.82,-0.12 z"
           id="path1144" />
      </g>
    </g>
  </g>
</svg>
