<?xml version="1.0" encoding="UTF-8" standalone="no"?>
<svg
   xmlns:dc="http://purl.org/dc/elements/1.1/"
   xmlns:cc="http://creativecommons.org/ns#"
   xmlns:rdf="http://www.w3.org/1999/02/22-rdf-syntax-ns#"
   xmlns:svg="http://www.w3.org/2000/svg"
   xmlns="http://www.w3.org/2000/svg"
   id="svg6591"
   version="1.1"
   viewBox="0 0 225.0102 29.02818"
   height="109.71281"
   width="850.43225">
  <metadata
     id="metadata8141">
    <rdf:RDF>
      <cc:Work
         rdf:about="">
        <dc:format>image/svg+xml</dc:format>
        <dc:type
           rdf:resource="http://purl.org/dc/dcmitype/StillImage" />
        <dc:title></dc:title>
      </cc:Work>
    </rdf:RDF>
  </metadata>
  <defs
     id="defs6585" />
  <path
     style="fill:#ffffff;stroke-width:0.264583"
     d="m 44.49651,1.3229167 c -1.389613,0 -2.481189,0.3233711 -3.275254,0.9699667 -0.788392,0.6465953 -1.182872,1.531584 -1.182872,2.6546182 0,0.9698932 0.286517,1.7271947 0.85938,2.271696 0.57286,0.544502 1.500412,0.944176 2.782257,1.19941 l 1.046449,0.204122 c 0.873471,0.175828 1.499973,0.439509 1.879988,0.791166 0.385689,0.351657 0.578776,0.8395694 0.578776,1.4634764 0,0.714659 -0.266792,1.264857 -0.799951,1.650546 -0.533157,0.385688 -1.289942,0.578259 -2.271178,0.578259 -0.646597,0 -1.304759,-0.09914 -1.974041,-0.297656 -0.669282,-0.198516 -1.352878,-0.493341 -2.050521,-0.884701 v 1.769401 c 0.726004,0.26658 1.426726,0.467973 2.101681,0.604098 0.680628,0.136125 1.32166,0.204638 1.922881,0.204638 1.593799,0 2.801643,-0.317661 3.624066,-0.952913 0.828099,-0.635251 1.242304,-1.568512 1.242304,-2.799312 0,-1.0322844 -0.306245,-1.8544694 -0.918808,-2.4670334 -0.606894,-0.618236 -1.551572,-1.04957 -2.833418,-1.2934611 L 44.190585,6.7768472 C 43.249052,6.6010186 42.60802,6.3710782 42.267705,6.0874838 41.933065,5.7982172 41.765928,5.3725929 41.765928,4.8110759 c 0,-0.6692832 0.252261,-1.1852249 0.75706,-1.5482261 0.510468,-0.3630009 1.233516,-0.5446694 2.169374,-0.5446694 0.538832,0 1.097336,0.076819 1.675868,0.22996 0.578533,0.1531411 1.194134,0.3856781 1.846398,0.6976319 V 1.9699057 C 47.568036,1.7543738 46.935822,1.5924297 46.317586,1.4846639 45.69935,1.376898 45.092058,1.3229167 44.49651,1.3229167 Z M 1.521355,1.6050699 V 14.307137 H 3.2395964 V 8.2408406 h 5.036902 V 6.7949341 H 3.2395964 V 3.0514933 h 5.581571 V 1.6050699 Z m 8.982397,0 V 14.307137 h 7.903911 V 12.860714 H 12.222511 V 1.6050699 Z m 9.011337,0 V 14.307137 h 8.184515 V 12.860714 H 21.23333 V 8.2578936 h 6.049243 V 6.8119873 H 21.23333 v -3.760494 h 6.31331 V 1.6050699 Z m 10.364226,0 V 14.307137 h 1.718757 V 8.1901976 l 6.099887,6.1169394 h 2.263428 L 33.206244,7.5261556 39.510252,1.6050699 H 37.298499 L 31.598072,6.9732178 V 1.6050699 Z"
     id="path7955" />
  <path
     id="path8312"
     d="m 23.548227,19.822687 v 2.349603 c -0.147376,-0.258474 -0.334251,-0.450163 -0.5604,-0.574229 -0.223611,-0.126651 -0.493137,-0.18981 -0.808225,-0.18981 -0.515825,0 -0.936233,0.20939 -1.261486,0.628113 -0.322711,0.418728 -0.483873,0.969065 -0.483873,1.651432 0,0.682367 0.161148,1.233302 0.483873,1.652028 0.325253,0.418726 0.745661,0.628119 1.261486,0.628119 0.315088,0 0.584614,-0.06215 0.808225,-0.18621 0.226149,-0.126651 0.413019,-0.319347 0.5604,-0.577821 v 0.65147 h 0.701087 v -6.032684 z m 2.145643,0 v 0.903553 h 0.701679 v -0.903553 z m 16.52707,0 v 0.903553 h 0.701087 v -0.903553 z m 39.722408,0 v 6.032686 h 0.701674 v -6.032686 z m 10.440978,0 c -0.48025,0 -0.830855,0.111225 -1.051923,0.333518 -0.22107,0.219701 -0.331413,0.571106 -0.331413,1.054447 v 0.302384 h -0.671063 v 0.554468 h 0.671063 v 3.787869 h 0.705209 v -3.787869 h 1.154939 v -0.554468 h -1.154939 v -0.383817 c 0,-0.26881 0.04824,-0.454671 0.144806,-0.558062 0.0991,-0.103389 0.274107,-0.155074 0.525672,-0.155074 h 0.671067 v -0.593387 z m 31.647294,0 v 6.032686 h 0.70167 v -6.032686 z m 18.18884,0 v 6.032686 h 0.70108 v -6.032686 z m 8.90748,0 v 6.032686 h 0.70522 v -2.454392 c 0,-0.423892 0.10932,-0.7586 0.32788,-1.004151 0.21852,-0.245547 0.51674,-0.368247 0.89534,-0.368247 0.3151,0 0.55179,0.102381 0.70934,0.306575 0.15756,0.204193 0.23605,0.511747 0.23605,0.922717 v 2.597498 h 0.70168 v -2.620848 c 0,-0.599658 -0.12633,-1.053442 -0.37792,-1.361026 -0.25158,-0.310166 -0.62215,-0.465248 -1.11257,-0.465248 -0.29728,0 -0.56069,0.06476 -0.78937,0.194005 -0.22616,0.129226 -0.42273,0.324543 -0.59043,0.585601 v -2.36517 z m 37.42901,0 v 2.349603 c -0.14749,-0.258474 -0.33364,-0.450163 -0.55981,-0.574229 -0.2236,-0.126651 -0.49312,-0.18981 -0.8082,-0.18981 -0.5158,0 -0.93623,0.20939 -1.26149,0.628113 -0.32273,0.418728 -0.48447,0.969065 -0.48447,1.651432 0,0.682367 0.16174,1.233302 0.48447,1.652028 0.32526,0.418726 0.74569,0.628119 1.26149,0.628119 0.31508,0 0.5846,-0.06215 0.8082,-0.18621 0.22617,-0.126651 0.41245,-0.319347 0.55981,-0.577821 v 0.65147 h 0.70171 v -6.032684 z m 24.81647,0 v 0.903553 h 0.70107 V 19.822687 Z M 3.5186602,19.9622 c -0.6225515,0 -1.1117729,0.147221 -1.4675165,0.441898 -0.3532027,0.294657 -0.529789,0.697757 -0.529789,1.209534 0,0.441985 0.1283355,0.787153 0.38498,1.035286 0.2566436,0.248133 0.6719101,0.43037 1.2461821,0.546684 l 0.468569,0.09339 c 0.391318,0.08011 0.6721162,0.200214 0.8423647,0.360469 0.1727898,0.160262 0.2595969,0.382115 0.2595969,0.666435 0,0.325676 -0.1196332,0.576905 -0.3584908,0.752668 -0.2388561,0.175761 -0.5781864,0.26346 -1.0177835,0.26346 -0.2896774,0 -0.5843187,-0.04547 -0.8841598,-0.135918 -0.2998408,-0.09046 -0.6057549,-0.224624 -0.9183012,-0.402973 v 0.806557 c 0.3252513,0.121473 0.6388769,0.212809 0.9412587,0.274837 0.3049233,0.06204 0.5918531,0.0934 0.8612023,0.0934 0.7140279,0 1.2556496,-0.144627 1.624098,-0.434112 0.3709897,-0.289486 0.5562788,-0.715112 0.5562788,-1.275996 0,-0.47042 -0.1370398,-0.844757 -0.4114695,-1.123908 -0.27189,-0.281721 -0.6948677,-0.47864 -1.2691402,-0.589782 L 3.3815033,22.447118 C 2.9596934,22.366997 2.6721743,22.262596 2.519713,22.133358 2.3697938,22.00153 2.2948469,21.807833 2.2948469,21.551947 c 0,-0.304999 0.112914,-0.540538 0.3390651,-0.705958 0.2286924,-0.165429 0.553188,-0.247896 0.9724574,-0.247896 0.2413977,0 0.4913502,0.035 0.7505349,0.104779 0.2591848,0.06978 0.5348422,0.17578 0.8270599,0.317953 V 20.256801 C 4.8942869,20.158575 4.6109188,20.084967 4.333947,20.035854 4.0569749,19.98674 3.7854677,19.962191 3.5186602,19.962191 Z M 56.643571,20.066993 V 25.4524 c 0,0.501434 -0.0698,0.848618 -0.209563,1.042472 -0.139766,0.193855 -0.380013,0.291007 -0.720512,0.291007 h -0.240172 v 0.659254 h 0.293739 c 0.576814,0 0.994651,-0.157707 1.253836,-0.473037 0.261724,-0.315336 0.392631,-0.821821 0.392631,-1.519696 v -5.385407 z m 39.50285,0 v 5.788382 h 0.769959 v -5.788382 z m 49.357349,0 v 0.659253 h 2.02028 v 5.129129 h 0.77349 v -5.129134 h 2.02026 v -0.659248 z m 47.71477,0 v 5.788382 h 0.76998 v -2.326249 h 0.9683 c 0.6378,0 1.11932,-0.146229 1.44455,-0.438307 0.3278,-0.292071 0.49153,-0.723334 0.49153,-1.294556 0,-0.566055 -0.1638,-0.995301 -0.49153,-1.287375 -0.32523,-0.294657 -0.80675,-0.441895 -1.44455,-0.441895 z m -89.85697,0.213166 v 1.232882 h -0.51449 v 0.554468 h 0.51449 v 2.35739 c 0,0.542788 0.10322,0.917126 0.30904,1.123903 0.20582,0.204195 0.57897,0.306573 1.12021,0.306573 h 0.72051 v -0.596979 h -0.72051 c -0.29222,0 -0.48621,-0.05069 -0.58277,-0.151472 -0.094,-0.100801 -0.14128,-0.327904 -0.14128,-0.682009 v -2.357388 h 1.44456 v -0.554469 h -1.44456 v -1.232881 z m 22.82392,0 v 1.232882 h -0.51448 v 0.554468 h 0.51448 v 2.35739 c 0,0.542788 0.10264,0.917126 0.30847,1.123903 0.20582,0.204195 0.57956,0.306573 1.1208,0.306573 h 0.72051 v -0.59698 h -0.72051 c -0.29222,0 -0.4868,-0.05069 -0.58337,-0.151473 -0.094,-0.1008 -0.14068,-0.327904 -0.14068,-0.682008 v -2.357386 h 1.44456 v -0.554462 h -1.44456 v -1.232881 z m 84.04602,0 v 1.232882 h -0.51447 v 0.554468 h 0.51447 v 2.35739 c 0,0.542788 0.10316,0.917126 0.30904,1.123903 0.20583,0.204195 0.57957,0.306573 1.12082,0.306573 h 0.71991 v -0.59698 h -0.71991 c -0.29224,0 -0.48683,-0.05069 -0.58337,-0.151473 -0.0942,-0.1008 -0.14115,-0.327904 -0.14115,-0.682008 v -2.357389 h 1.44458 v -0.554469 h -1.44458 v -1.232881 z m -16.24299,0.430518 h 0.9683 c 0.35829,0 0.63553,0.09395 0.83118,0.282626 0.19565,0.188685 0.29314,0.456605 0.29314,0.80296 0,0.348939 -0.0975,0.61727 -0.29314,0.805954 -0.19565,0.188688 -0.47289,0.283225 -0.83118,0.283225 h -0.9683 z M 8.5381185,21.408251 c -0.6657486,0 -1.1903676,0.203154 -1.5740624,0.608955 -0.381154,0.405803 -0.571584,0.962378 -0.571584,1.67059 0,0.697878 0.1894392,1.252433 0.5680518,1.663404 0.378613,0.410974 0.8893891,0.616743 1.532268,0.616743 0.2363162,0 0.458582,-0.02352 0.6669456,-0.07006 0.2109052,-0.04651 0.4141876,-0.115912 0.6098468,-0.208978 V 25.02965 c -0.1982009,0.111157 -0.3979207,0.195224 -0.5986617,0.252086 -0.1982006,0.05429 -0.3989117,0.08142 -0.6021939,0.08142 -0.4548434,0 -0.8080165,-0.146229 -1.0595787,-0.438306 -0.2515614,-0.294656 -0.3773276,-0.707205 -0.3773276,-1.237074 0,-0.529868 0.1257663,-0.94081 0.3773276,-1.232883 0.2515622,-0.29466 0.6047353,-0.441896 1.0595787,-0.441896 0.2032822,0 0.4039933,0.02877 0.6021939,0.08562 0.200741,0.05429 0.4004608,0.136753 0.5986617,0.247891 V 21.679497 C 9.5764662,21.589027 9.376745,21.522248 9.1709226,21.478304 8.9650993,21.431781 8.754105,21.408261 8.5381185,21.408261 Z m 3.9563485,0 c -0.228692,0 -0.463809,0.02618 -0.705207,0.07785 -0.241397,0.04911 -0.490361,0.123735 -0.747004,0.224542 v 0.659254 c 0.213446,-0.118884 0.435713,-0.208207 0.666946,-0.267653 0.231234,-0.05945 0.46892,-0.08924 0.71286,-0.08924 0.383696,0 0.680908,0.09092 0.891813,0.271847 0.213446,0.178334 0.320228,0.431589 0.320228,0.759848 v 0.06946 H 12.65105 c -0.637798,0 -1.118317,0.12432 -1.441027,0.372442 -0.320169,0.248133 -0.480343,0.616232 -0.480343,1.104748 0,0.418723 0.128337,0.753429 0.384981,1.004149 0.259185,0.248131 0.607216,0.372438 1.044273,0.372438 0.345581,0 0.63824,-0.06215 0.877096,-0.18621 0.238854,-0.126651 0.43799,-0.321961 0.598073,-0.585605 v 0.659256 h 0.701674 v -2.477744 c 0,-0.661687 -0.152453,-1.155099 -0.457383,-1.480776 -0.304922,-0.325675 -0.766456,-0.488602 -1.383927,-0.488602 z m 5.347927,0 c -0.297297,0 -0.56069,0.06476 -0.789384,0.194005 -0.226151,0.129226 -0.422715,0.324543 -0.590421,0.585601 v -0.674821 h -0.705207 v 4.342337 h 0.705207 v -2.454392 c 0,-0.423892 0.109344,-0.7586 0.327879,-1.004151 0.21853,-0.245547 0.516736,-0.368247 0.895347,-0.368247 0.315087,0 0.551786,0.102381 0.709328,0.306575 0.157533,0.204193 0.236051,0.511747 0.236051,0.922717 v 2.597498 h 0.701086 v -2.620848 c 0,-0.599658 -0.125756,-1.053442 -0.377325,-1.361026 -0.251564,-0.310166 -0.622139,-0.465248 -1.112561,-0.465248 z m 12.075072,0 c -0.297296,0 -0.560692,0.06476 -0.789382,0.194005 -0.226151,0.129226 -0.422714,0.324543 -0.590422,0.585601 v -0.674821 h -0.705208 v 4.342337 h 0.705208 v -2.454392 c 0,-0.423892 0.108755,-0.7586 0.327293,-1.004151 0.218526,-0.245547 0.517322,-0.368247 0.895932,-0.368247 0.315087,0 0.551195,0.102381 0.708744,0.306575 0.15755,0.204193 0.236638,0.511747 0.236638,0.922717 v 2.597498 h 0.701083 v -2.620848 c 0,-0.599658 -0.125756,-1.053442 -0.377325,-1.361026 -0.251564,-0.310166 -0.622141,-0.465248 -1.112561,-0.465248 z m 4.394309,0 c -0.228691,0 -0.46381,0.02618 -0.705205,0.07785 -0.241402,0.04911 -0.490361,0.123735 -0.747003,0.224542 v 0.659254 c 0.213447,-0.118884 0.43571,-0.208207 0.666944,-0.267653 0.231232,-0.05945 0.468921,-0.08924 0.712861,-0.08924 0.383698,0 0.680908,0.09092 0.891812,0.271847 0.213446,0.178334 0.320229,0.431589 0.320229,0.759848 v 0.06946 h -0.983059 c -0.637792,0 -1.118311,0.12432 -1.441022,0.372442 -0.320168,0.248133 -0.480344,0.616232 -0.480344,1.104748 0,0.418723 0.128314,0.753429 0.384983,1.004149 0.259186,0.248131 0.607216,0.372438 1.044272,0.372438 0.345581,0 0.638238,-0.06215 0.877096,-0.18621 0.238858,-0.126651 0.437989,-0.321961 0.598074,-0.585605 v 0.659256 h 0.701676 v -2.477744 c 0,-0.661687 -0.152455,-1.155099 -0.457385,-1.480776 -0.304921,-0.325678 -0.766458,-0.488603 -1.383929,-0.488603 z m 11.571775,0 c -0.228693,0 -0.46381,0.02618 -0.705209,0.07785 -0.241395,0.04911 -0.490358,0.123735 -0.747003,0.224542 v 0.659254 c 0.213449,-0.118884 0.435714,-0.208207 0.666947,-0.267653 0.231233,-0.05945 0.468922,-0.08924 0.712862,-0.08924 0.383695,0 0.680907,0.09092 0.891811,0.271847 0.213449,0.178334 0.320228,0.431589 0.320228,0.759848 v 0.06946 h -0.983054 c -0.637794,0 -1.118318,0.12432 -1.441024,0.372442 -0.320171,0.248133 -0.480345,0.616232 -0.480345,1.104748 0,0.418723 0.128301,0.753429 0.384983,1.004149 0.259184,0.248131 0.607215,0.372438 1.044271,0.372438 0.34558,0 0.638243,-0.06215 0.877095,-0.18621 0.238856,-0.126651 0.437989,-0.321961 0.598074,-0.585605 v 0.659256 h 0.701675 v -2.477744 c 0,-0.661687 -0.152455,-1.155099 -0.457383,-1.480776 -0.304926,-0.325677 -0.766459,-0.488603 -1.383928,-0.488603 z m 5.347927,0 c -0.297297,0 -0.560692,0.06476 -0.789384,0.194005 -0.226151,0.129226 -0.422715,0.324543 -0.590422,0.585601 v -0.674821 h -0.705205 v 4.342337 h 0.705205 v -2.454392 c 0,-0.423892 0.109345,-0.7586 0.327881,-1.004151 0.218526,-0.245547 0.516734,-0.368247 0.895343,-0.368247 0.315091,0 0.55179,0.102381 0.70933,0.306575 0.157553,0.204193 0.236052,0.511747 0.236052,0.922717 v 2.597498 h 0.701085 v -2.620848 c 0,-0.599658 -0.125755,-1.053442 -0.377325,-1.361026 -0.251564,-0.310166 -0.622139,-0.465248 -1.11256,-0.465248 z m 9.337832,0 c -0.612389,0 -1.092322,0.201546 -1.44044,0.604764 -0.345578,0.403216 -0.518602,0.961396 -0.518602,1.674781 0,0.710798 0.173016,1.26958 0.518602,1.675381 0.348118,0.403216 0.828051,0.604766 1.44044,0.604766 0.609845,0 1.089372,-0.20155 1.437494,-0.604766 0.34812,-0.405801 0.522136,-0.964583 0.522136,-1.675381 0,-0.713385 -0.174006,-1.271565 -0.522136,-1.674781 -0.348122,-0.403218 -0.827649,-0.604764 -1.437494,-0.604764 z m 10.188436,0 c -0.337958,0 -0.624889,0.06476 -0.861203,0.194005 -0.236312,0.126651 -0.428323,0.321961 -0.575702,0.585601 v -0.674821 h -0.705211 v 4.342337 h 0.705211 v -2.287329 c 0,-0.491101 0.105178,-0.867043 0.316105,-1.128102 0.213448,-0.26364 0.518372,-0.395791 0.914772,-0.395791 0.111796,0 0.213442,0.01145 0.304923,0.03474 0.094,0.02069 0.180828,0.05467 0.259596,0.101182 l -0.0042,-0.732903 c -0.07115,-0.01281 -0.135813,-0.02176 -0.194253,-0.02693 -0.05845,-0.0076 -0.111837,-0.01213 -0.160121,-0.01213 z m 3.501893,0 c -0.297303,0 -0.560694,0.06476 -0.789388,0.194005 -0.226151,0.129226 -0.422713,0.324543 -0.590418,0.585601 V 21.513036 H 72.17462 v 4.342337 h 0.705212 v -2.454392 c 0,-0.423892 0.109345,-0.7586 0.327883,-1.004151 0.218525,-0.245547 0.516728,-0.368247 0.895343,-0.368247 0.315083,0 0.551782,0.102381 0.709322,0.306575 0.157553,0.204193 0.236054,0.511747 0.236054,0.922717 v 2.597498 h 0.701676 v -2.620848 c 0,-0.599658 -0.126358,-1.053442 -0.377915,-1.361026 -0.251562,-0.310166 -0.622141,-0.465248 -1.112557,-0.465248 z m 4.394307,0 c -0.228696,0 -0.463224,0.02618 -0.704617,0.07785 -0.241399,0.04911 -0.490951,0.123735 -0.747595,0.224542 v 0.659254 c 0.213446,-0.118884 0.4363,-0.208207 0.667536,-0.267653 0.231233,-0.05945 0.468332,-0.08924 0.71227,-0.08924 0.383694,0 0.681496,0.09092 0.892401,0.271847 0.213445,0.178334 0.31964,0.431589 0.31964,0.759848 v 0.06946 h -0.983054 c -0.637796,0 -1.118315,0.12432 -1.441026,0.372442 -0.320166,0.248133 -0.479754,0.616232 -0.479754,1.104748 0,0.418723 0.128341,0.753429 0.384981,1.004149 0.259183,0.248131 0.607213,0.372438 1.044273,0.372438 0.345584,0 0.63765,-0.06215 0.876504,-0.18621 0.23886,-0.126651 0.437991,-0.321961 0.598076,-0.585605 v 0.659256 h 0.701673 v -2.477744 c 0,-0.661687 -0.152453,-1.155099 -0.457383,-1.480776 -0.304921,-0.325678 -0.766456,-0.488603 -1.383925,-0.488603 z m 9.114743,0 c -0.612388,0 -1.092316,0.201546 -1.440439,0.604764 -0.345577,0.403216 -0.518606,0.961396 -0.518606,1.674781 0,0.710798 0.173034,1.26958 0.518606,1.675381 0.348123,0.403216 0.828051,0.604766 1.440439,0.604766 0.609848,0 1.088786,-0.20155 1.436906,-0.604766 0.348119,-0.405801 0.522135,-0.964583 0.522135,-1.675381 0,-0.713385 -0.174007,-1.271565 -0.522135,-1.674781 -0.34812,-0.403218 -0.827058,-0.604764 -1.436906,-0.604764 z m 12.707872,0 c -0.29729,0 -0.560688,0.06476 -0.789382,0.194005 -0.226152,0.129226 -0.422712,0.324543 -0.590419,0.585601 v -0.674821 h -0.70521 v 4.342337 h 0.70521 v -2.454392 c 0,-0.423892 0.109372,-0.7586 0.327881,-1.004151 0.21853,-0.245547 0.516729,-0.368247 0.89534,-0.368247 0.31509,0 0.55179,0.102381 0.70934,0.306575 0.15753,0.204193 0.23604,0.511747 0.23604,0.922717 v 2.597498 h 0.70109 v -2.620848 c 0,-0.599658 -0.12575,-1.053442 -0.37732,-1.361026 -0.25157,-0.310166 -0.62215,-0.465248 -1.11257,-0.465248 z m 7.74847,0 c -0.64034,0 -1.14954,0.20939 -1.52815,0.628113 -0.37607,0.416144 -0.56393,0.979554 -0.56393,1.690352 0,0.68754 0.19814,1.233245 0.59454,1.636461 0.39894,0.403216 0.93899,0.604766 1.61998,0.604766 0.27189,0 0.53983,-0.02877 0.8041,-0.08562 0.26427,-0.05688 0.52193,-0.139346 0.7735,-0.247892 v -0.674824 c -0.24903,0.134405 -0.50056,0.235178 -0.75466,0.302384 -0.25156,0.06722 -0.5118,0.101182 -0.78115,0.101182 -0.465,0 -0.82846,-0.127932 -1.09019,-0.383817 -0.25918,-0.258472 -0.40393,-0.633408 -0.43442,-1.124506 h 3.22465 v -0.349086 c 0,-0.646184 -0.16788,-1.156292 -0.5033,-1.531076 -0.33288,-0.377367 -0.7867,-0.566444 -1.36097,-0.566444 z m 5.13071,0 c -0.33795,0 -0.62547,0.06476 -0.86179,0.194005 -0.23631,0.126651 -0.42774,0.321961 -0.57512,0.585601 v -0.674821 h -0.7052 v 4.342337 h 0.7052 v -2.287329 c 0,-0.491101 0.10526,-0.867043 0.31611,-1.128102 0.21345,-0.26364 0.51838,-0.395791 0.91478,-0.395791 0.11173,0 0.21344,0.01145 0.30492,0.03474 0.094,0.02069 0.18023,0.05467 0.25901,0.101182 l -0.003,-0.732903 c -0.0711,-0.01281 -0.13577,-0.02176 -0.19425,-0.02693 -0.0584,-0.0076 -0.11188,-0.01213 -0.16012,-0.01213 z m 3.26294,0 c -0.66575,0 -1.19096,0.203154 -1.57464,0.608955 -0.38116,0.405803 -0.57159,0.962378 -0.57159,1.67059 0,0.697878 0.18943,1.252433 0.56805,1.663404 0.37861,0.410974 0.88939,0.616743 1.53227,0.616743 0.23632,0 0.45859,-0.02352 0.66695,-0.07006 0.21089,-0.04651 0.41418,-0.115912 0.60985,-0.208978 V 25.02965 c -0.19821,0.111157 -0.39793,0.195224 -0.59867,0.252086 -0.1982,0.05429 -0.39892,0.08142 -0.60219,0.08142 -0.45485,0 -0.80802,-0.146229 -1.05959,-0.438306 -0.25155,-0.294656 -0.37732,-0.707205 -0.37732,-1.237074 0,-0.529868 0.12576,-0.94081 0.37732,-1.232883 0.25157,-0.29466 0.60474,-0.441896 1.05959,-0.441896 0.20327,0 0.40399,0.02877 0.60219,0.08562 0.20074,0.05429 0.40046,0.136753 0.59867,0.247891 v -0.66702 c -0.19313,-0.09046 -0.39285,-0.157248 -0.59867,-0.201192 -0.20582,-0.04651 -0.41623,-0.07006 -0.63222,-0.07006 z m 19.71289,0 c -0.33796,0 -0.6249,0.06476 -0.86121,0.194005 -0.23632,0.126651 -0.42834,0.321961 -0.57573,0.585601 v -0.674821 h -0.70519 v 4.342337 h 0.70519 v -2.287329 c 0,-0.491101 0.10588,-0.867043 0.31671,-1.128102 0.21345,-0.26364 0.51837,-0.395791 0.91478,-0.395791 0.11186,0 0.21344,0.01145 0.30491,0.03474 0.094,0.02069 0.18023,0.05467 0.25901,0.101182 l -0.005,-0.732903 c -0.071,-0.01281 -0.13577,-0.02176 -0.19426,-0.02693 -0.0584,-0.0076 -0.11199,-0.01213 -0.16012,-0.01213 z m 2.59949,0 c -0.2287,0 -0.46381,0.02618 -0.70522,0.07785 -0.2414,0.04911 -0.49035,0.123735 -0.74699,0.224542 v 0.659254 c 0.21343,-0.118884 0.43571,-0.208207 0.66694,-0.267653 0.23123,-0.05945 0.46893,-0.08924 0.71285,-0.08924 0.38371,0 0.68091,0.09092 0.89182,0.271847 0.21344,0.178334 0.32024,0.431589 0.32024,0.759848 v 0.06946 h -0.98306 c -0.63779,0 -1.11832,0.12432 -1.44104,0.372442 -0.32017,0.248133 -0.48034,0.616232 -0.48034,1.104748 0,0.418723 0.12821,0.753429 0.385,1.004149 0.25917,0.248131 0.60719,0.372438 1.04426,0.372438 0.34557,0 0.63823,-0.06215 0.87709,-0.18621 0.23888,-0.126651 0.43799,-0.321961 0.59809,-0.585605 v 0.659256 h 0.70165 v -2.477744 c 0,-0.661687 -0.15244,-1.155099 -0.45738,-1.480776 -0.30491,-0.325677 -0.76644,-0.488603 -1.38391,-0.488603 z m 18.96642,0 c -0.64032,0 -1.15012,0.20939 -1.52874,0.628113 -0.37606,0.416144 -0.56393,0.979554 -0.56393,1.690352 0,0.68754 0.19815,1.233245 0.59454,1.636461 0.39897,0.403216 0.93898,0.604766 1.61998,0.604766 0.2719,0 0.53983,-0.02877 0.80411,-0.08562 0.26425,-0.05688 0.52193,-0.139346 0.77349,-0.247892 v -0.674824 c -0.24903,0.134405 -0.50057,0.235178 -0.75465,0.302384 -0.25157,0.06722 -0.5118,0.101182 -0.78114,0.101182 -0.46503,0 -0.82848,-0.127932 -1.0902,-0.383817 -0.25914,-0.258472 -0.40389,-0.633408 -0.43442,-1.124506 h 3.22464 v -0.349086 c 0,-0.646184 -0.1679,-1.156292 -0.50331,-1.531076 -0.33286,-0.377367 -0.78609,-0.566444 -1.36037,-0.566444 z m 4.66862,0 c -0.61238,0 -1.09233,0.201546 -1.44043,0.604764 -0.34559,0.403216 -0.51861,0.961396 -0.51861,1.674781 0,0.710798 0.17301,1.26958 0.51861,1.675381 0.3481,0.403216 0.82805,0.604766 1.44043,0.604766 0.60982,0 1.08937,-0.20155 1.43749,-0.604766 0.34813,-0.405801 0.52215,-0.964583 0.52215,-1.675381 0,-0.713385 -0.17402,-1.271565 -0.52215,-1.674781 -0.34812,-0.403218 -0.82767,-0.604764 -1.43749,-0.604764 z m 5.23372,0 c -0.33795,0 -0.62545,0.06476 -0.86177,0.194005 -0.23632,0.126651 -0.42776,0.321961 -0.57511,0.585601 v -0.674821 h -0.70522 v 4.342337 h 0.70522 v -2.287329 c 0,-0.491101 0.10516,-0.867043 0.31608,-1.128102 0.21346,-0.26364 0.51838,-0.395791 0.91477,-0.395791 0.112,0 0.21345,0.01145 0.30493,0.03474 0.094,0.02069 0.18025,0.05467 0.259,0.101182 l -0.004,-0.732903 c -0.0711,-0.01281 -0.13583,-0.02176 -0.19428,-0.02693 -0.0584,-0.0076 -0.11187,-0.01213 -0.16008,-0.01213 z m 9.70399,0 c -0.22869,0 -0.4638,0.02618 -0.70522,0.07785 -0.24139,0.04911 -0.49035,0.123735 -0.74701,0.224542 v 0.659254 c 0.21345,-0.118884 0.43572,-0.208207 0.66696,-0.267653 0.23124,-0.05945 0.46892,-0.08924 0.71287,-0.08924 0.3837,0 0.68088,0.09092 0.89181,0.271847 0.21343,0.178334 0.32024,0.431589 0.32024,0.759848 v 0.06946 h -0.98366 c -0.63779,0 -1.11775,0.12432 -1.44044,0.372442 -0.32019,0.248133 -0.48034,0.616232 -0.48034,1.104748 0,0.418723 0.12834,0.753429 0.38497,1.004149 0.25918,0.248131 0.60722,0.372438 1.04428,0.372438 0.3456,0 0.63767,-0.06215 0.87651,-0.18621 0.23885,-0.126651 0.43857,-0.321961 0.59868,-0.585605 v 0.659256 h 0.70106 v -2.477744 c 0,-0.661687 -0.15248,-1.155099 -0.45739,-1.480776 -0.30491,-0.325677 -0.76585,-0.488603 -1.38332,-0.488603 z m 5.34735,0 c -0.2973,0 -0.56013,0.06476 -0.7888,0.194005 -0.22618,0.129226 -0.4233,0.324543 -0.59102,0.585601 v -0.674821 h -0.70464 v 4.342337 h 0.70464 v -2.454392 c 0,-0.423892 0.10946,-0.7586 0.32788,-1.004151 0.21853,-0.245547 0.51734,-0.368247 0.89589,-0.368247 0.31514,0 0.55125,0.102381 0.70879,0.306575 0.15742,0.204193 0.23664,0.511747 0.23664,0.922717 v 2.597498 h 0.70109 v -2.620848 c 0,-0.599658 -0.12579,-1.053442 -0.37733,-1.361026 -0.25157,-0.310166 -0.62273,-0.465248 -1.11314,-0.465248 z m 17.02624,0 c -0.33798,0 -0.6249,0.06476 -0.86122,0.194005 -0.2363,0.126651 -0.42835,0.321961 -0.57568,0.585601 v -0.674821 h -0.70522 v 4.342337 h 0.70522 v -2.287329 c 0,-0.491101 0.10583,-0.867043 0.31667,-1.128102 0.21342,-0.26364 0.51839,-0.395791 0.91477,-0.395791 0.112,0 0.21345,0.01145 0.30491,0.03474 0.0942,0.02069 0.18032,0.05467 0.25906,0.101182 l -0.005,-0.732903 c -0.0711,-0.01281 -0.13589,-0.02176 -0.19423,-0.02693 -0.0585,-0.0076 -0.112,-0.01213 -0.16008,-0.01213 z m 2.77696,0 c -0.22871,0 -0.46381,0.02618 -0.70523,0.07785 -0.24139,0.04911 -0.49035,0.123735 -0.74698,0.224542 v 0.659254 c 0.21342,-0.118884 0.4357,-0.208207 0.66695,-0.267653 0.23121,-0.05945 0.46888,-0.08924 0.71285,-0.08924 0.3837,0 0.68088,0.09092 0.89181,0.271847 0.21344,0.178334 0.32021,0.431589 0.32021,0.759848 v 0.06946 h -0.98303 c -0.63779,0 -1.11835,0.12432 -1.44105,0.372442 -0.32016,0.248133 -0.48033,0.616232 -0.48033,1.104748 0,0.418723 0.12808,0.753429 0.38499,1.004149 0.2592,0.248131 0.60719,0.372438 1.04425,0.372438 0.3456,0 0.63825,-0.06215 0.8771,-0.18621 0.23885,-0.126651 0.43801,-0.321961 0.59807,-0.585605 v 0.659256 h 0.70172 v -2.477744 c 0,-0.661687 -0.15258,-1.155099 -0.45743,-1.480776 -0.30492,-0.325677 -0.76645,-0.488603 -1.3839,-0.488603 z m 5.1307,0 c -0.66575,0 -1.19097,0.203154 -1.57464,0.608955 -0.38117,0.405803 -0.57159,0.962378 -0.57159,1.67059 0,0.697878 0.18943,1.252433 0.56806,1.663404 0.3786,0.410974 0.88937,0.616743 1.53226,0.616743 0.23631,0 0.4586,-0.02352 0.66693,-0.07006 0.21092,-0.04651 0.41418,-0.115912 0.60985,-0.208978 V 25.02965 c -0.19819,0.111157 -0.39791,0.195224 -0.59864,0.252086 -0.19821,0.05429 -0.3989,0.08142 -0.60222,0.08142 -0.45482,0 -0.80801,-0.146229 -1.05957,-0.438306 -0.25155,-0.294656 -0.37733,-0.707205 -0.37733,-1.237074 0,-0.529868 0.12566,-0.94081 0.37733,-1.232883 0.25156,-0.29466 0.60475,-0.441896 1.05957,-0.441896 0.20332,0 0.40401,0.02877 0.60222,0.08562 0.20073,0.05429 0.40045,0.136753 0.59864,0.247891 v -0.66702 c -0.19312,-0.09046 -0.39285,-0.157248 -0.59864,-0.201192 -0.20582,-0.04651 -0.41623,-0.07006 -0.63223,-0.07006 z m 9.59416,0 c -0.66574,0 -1.19039,0.203154 -1.57408,0.608955 -0.38114,0.405803 -0.57158,0.962378 -0.57158,1.67059 0,0.697878 0.18883,1.252433 0.56749,1.663404 0.37859,0.410974 0.88936,0.616743 1.53222,0.616743 0.23634,0 0.4586,-0.02352 0.66697,-0.07006 0.21088,-0.04651 0.41417,-0.115912 0.60983,-0.208978 V 25.02965 c -0.19823,0.111157 -0.39732,0.195224 -0.59808,0.252086 -0.19819,0.05429 -0.39889,0.08142 -0.60219,0.08142 -0.45482,0 -0.808,-0.146229 -1.05956,-0.438306 -0.25155,-0.294656 -0.37734,-0.707205 -0.37734,-1.237074 0,-0.529868 0.12553,-0.94081 0.37734,-1.232883 0.25156,-0.29466 0.60474,-0.441896 1.05956,-0.441896 0.2033,0 0.404,0.02877 0.60219,0.08562 0.20076,0.05429 0.39985,0.136753 0.59808,0.247891 v -0.66702 c -0.19311,-0.09046 -0.39223,-0.157248 -0.59808,-0.201192 -0.20582,-0.04651 -0.41679,-0.07006 -0.63277,-0.07006 z m 4.24595,0 c -0.64034,0 -1.14954,0.20939 -1.52813,0.628113 -0.37609,0.416144 -0.56453,0.979554 -0.56453,1.690352 0,0.68754 0.19812,1.233245 0.59454,1.636461 0.39894,0.403216 0.93899,0.604766 1.61995,0.604766 0.27191,0 0.54045,-0.02877 0.80472,-0.08562 0.26423,-0.05688 0.52193,-0.139346 0.77347,-0.247892 v -0.674824 c -0.24899,0.134405 -0.50057,0.235178 -0.75464,0.302384 -0.25158,0.06722 -0.51181,0.101182 -0.78114,0.101182 -0.46501,0 -0.82846,-0.127932 -1.0902,-0.383817 -0.25918,-0.258472 -0.40389,-0.633408 -0.43443,-1.124506 h 3.22407 v -0.349086 c 0,-0.646184 -0.16737,-1.156292 -0.50272,-1.531076 -0.33288,-0.377367 -0.78671,-0.566444 -1.36096,-0.566444 z m -195.9313,0.104807 v 4.342338 h 0.701679 v -4.342338 z m 11.404007,0 1.601142,4.342338 h 0.953032 l 1.600554,-4.342338 h -0.742883 l -1.334481,3.644763 -1.333891,-3.644763 z m 5.123063,0 v 4.342338 h 0.701087 v -4.342338 z m 21.394067,0 v 2.628636 c 0,0.597073 0.126774,1.050855 0.380861,1.361022 0.254101,0.310167 0.62685,0.465251 1.117265,0.465251 0.2973,0 0.557542,-0.06319 0.781145,-0.189811 0.22615,-0.129227 0.424295,-0.326156 0.594544,-0.589799 v 0.667039 h 0.701675 v -4.342334 h -0.701675 v 2.462177 c 0,0.423892 -0.110363,0.758601 -0.331414,1.004151 -0.218527,0.24555 -0.517322,0.368245 -0.895931,0.368245 -0.315091,0 -0.5512,-0.102381 -0.708743,-0.306574 -0.157551,-0.206776 -0.236637,-0.515335 -0.236637,-0.926308 v -2.601705 z m 55.389493,0 v 2.628636 c 0,0.597073 0.12678,1.050855 0.38086,1.361022 0.25411,0.310167 0.62685,0.465251 1.11726,0.465251 0.2973,0 0.55753,-0.06319 0.78115,-0.189811 0.22615,-0.129227 0.42429,-0.326156 0.59454,-0.589799 v 0.667039 h 0.7011 v -4.342345 h -0.7011 v 2.462173 c 0,0.423895 -0.1104,0.758604 -0.33141,1.004155 -0.21853,0.245549 -0.51732,0.368244 -0.89593,0.368244 -0.31509,0 -0.5512,-0.102381 -0.70875,-0.306575 -0.15753,-0.206777 -0.23664,-0.515334 -0.23664,-0.926308 v -2.601689 z m 10.18432,0 v 2.628636 c 0,0.597073 0.12734,1.050855 0.38145,1.361022 0.2541,0.310167 0.62625,0.465251 1.11667,0.465251 0.2973,0 0.55755,-0.06319 0.78115,-0.189811 0.22615,-0.129227 0.42429,-0.326156 0.59454,-0.589799 v 0.667039 h 0.70168 v -4.342338 h -0.70168 v 2.462177 c 0,0.423895 -0.11041,0.758601 -0.33141,1.004151 -0.21853,0.245553 -0.51732,0.368245 -0.89593,0.368245 -0.31509,0 -0.55121,-0.102381 -0.70875,-0.306574 -0.15753,-0.206776 -0.23664,-0.515332 -0.23664,-0.926308 v -2.601691 z m 39.76184,0 1.72654,4.272282 -0.1254,0.325737 c -0.12954,0.346352 -0.24823,0.566202 -0.35496,0.659254 -0.10664,0.09306 -0.25661,0.139517 -0.44973,0.139517 h -0.41147 v 0.596979 h 0.56044 c 0.31511,0 0.56663,-0.07886 0.75467,-0.236516 0.18804,-0.157666 0.38105,-0.494993 0.57922,-1.011934 l 1.87547,-4.745319 h -0.74349 l -1.33388,3.396272 -1.33388,-3.396272 z m 44.42276,0 v 4.342338 h 0.70107 V 21.513032 Z M 22.351492,22.005226 c 0.370989,0 0.663058,0.14987 0.876505,0.449684 0.213447,0.297243 0.32023,0.708184 0.32023,1.232883 0,0.5247 -0.106773,0.937247 -0.32023,1.237077 -0.213447,0.297243 -0.505516,0.446091 -0.876505,0.446087 -0.370993,0 -0.663651,-0.14884 -0.877098,-0.446087 -0.210904,-0.29983 -0.316105,-0.712377 -0.316105,-1.237077 0,-0.524699 0.105192,-0.93564 0.316105,-1.232883 0.213447,-0.299829 0.506105,-0.449684 0.877098,-0.449684 z m 165.008758,0 c 0.37097,0 0.66363,0.14987 0.87708,0.449684 0.21347,0.297243 0.31962,0.708184 0.31962,1.232883 0,0.5247 -0.10623,0.937247 -0.31962,1.237077 -0.21345,0.297243 -0.50611,0.446091 -0.87708,0.446087 -0.37101,0 -0.66308,-0.14884 -0.87653,-0.446087 -0.21089,-0.29983 -0.31607,-0.712377 -0.31607,-1.237077 0,-0.524699 0.10517,-0.93564 0.31607,-1.232883 0.21345,-0.299829 0.50552,-0.449684 0.87653,-0.449684 z m -126.790941,0.0076 c 0.373528,0 0.669752,0.151454 0.888281,0.453874 0.218525,0.29983 0.327878,0.706551 0.327878,1.220908 0,0.516945 -0.109345,0.925871 -0.327878,1.2257 -0.218529,0.299826 -0.514753,0.44968 -0.888281,0.44968 -0.378614,0 -0.676816,-0.148841 -0.895343,-0.446087 -0.215988,-0.299827 -0.324352,-0.709761 -0.324352,-1.229293 0,-0.51953 0.109345,-0.927856 0.327882,-1.225099 0.218529,-0.299826 0.51574,-0.449683 0.891813,-0.449683 z m 27.199379,0 c 0.373529,0 0.669753,0.151454 0.888283,0.453874 0.218524,0.29983 0.327878,0.706551 0.327878,1.220908 0,0.516945 -0.109345,0.925871 -0.327878,1.2257 -0.21853,0.299826 -0.514754,0.44968 -0.888283,0.44968 -0.378615,0 -0.677406,-0.148841 -0.895933,-0.446087 -0.215987,-0.299827 -0.323758,-0.709761 -0.323758,-1.229293 -2e-6,-0.51953 0.109344,-0.927856 0.327879,-1.225099 0.21853,-0.299826 0.515739,-0.449683 0.891812,-0.449683 z m 20.463992,0 c 0.34558,0 0.62282,0.116472 0.83118,0.349089 0.2109,0.232627 0.31868,0.544398 0.32376,0.934693 l -2.50001,0.0037 c 0.0356,-0.40839 0.17003,-0.724792 0.40381,-0.949662 0.23632,-0.224872 0.54994,-0.33771 0.94126,-0.33771 z m 49.67186,0 c 0.34559,0 0.62281,0.116472 0.83118,0.349089 0.21068,0.232627 0.31846,0.544398 0.32376,0.934693 l -2.50001,0.0037 c 0.0355,-0.40839 0.17004,-0.724792 0.40382,-0.949662 0.23632,-0.224872 0.54993,-0.33771 0.94125,-0.33771 z m 4.66156,0 c 0.37354,0 0.66977,0.151454 0.88829,0.453874 0.21853,0.29983 0.32787,0.706551 0.32787,1.220908 0,0.516945 -0.10932,0.925871 -0.32787,1.2257 -0.21852,0.299826 -0.51475,0.44968 -0.88829,0.44968 -0.37862,0 -0.67682,-0.148841 -0.89533,-0.446087 -0.21599,-0.299827 -0.32437,-0.709761 -0.32437,-1.229293 0,-0.51953 0.10932,-0.927856 0.32788,-1.225099 0.21853,-0.299826 0.51576,-0.449683 0.89182,-0.449683 z m 59.06672,0 c 0.34557,0 0.6228,0.116472 0.83117,0.349089 0.21068,0.232627 0.31844,0.544398 0.32378,0.934693 l -2.50062,0.0037 c 0.0354,-0.40839 0.17057,-0.724792 0.40442,-0.949662 0.23632,-0.224872 0.54994,-0.33771 0.94125,-0.33771 z M 12.936547,23.672802 h 0.697556 V 23.8315 c 0,0.46525 -0.118061,0.838579 -0.35437,1.120314 -0.233775,0.279148 -0.54483,0.419147 -0.933606,0.419143 -0.282052,4e-6 -0.505901,-0.07361 -0.671067,-0.22095 -0.162624,-0.149908 -0.243702,-0.352059 -0.243702,-0.605362 0,-0.317919 0.109353,-0.542404 0.327879,-0.674223 0.218527,-0.13183 0.61066,-0.1976 1.17731,-0.1976 z m 21.817309,0 h 0.697557 V 23.8315 c 0,0.46525 -0.118053,0.838579 -0.354371,1.120314 -0.233774,0.279148 -0.544829,0.419147 -0.933604,0.419143 -0.282057,4e-6 -0.505901,-0.07361 -0.67107,-0.22095 -0.162632,-0.149908 -0.243704,-0.352059 -0.243704,-0.605362 0,-0.317919 0.109372,-0.542404 0.327884,-0.674223 0.218529,-0.13183 0.61066,-0.1976 1.177308,-0.1976 z m 11.571777,0 h 0.697553 V 23.8315 c 0,0.46525 -0.118052,0.838579 -0.354371,1.120314 -0.233771,0.279148 -0.544826,0.419147 -0.933603,0.419143 -0.282056,4e-6 -0.5059,-0.07361 -0.67107,-0.22095 -0.162631,-0.149908 -0.2437,-0.352059 -0.2437,-0.605362 0,-0.317919 0.109345,-0.542404 0.327878,-0.674223 0.218531,-0.13183 0.610662,-0.1976 1.177313,-0.1976 z m 32.77098,0 H 79.79358 V 23.8315 c 0,0.46525 -0.118039,0.838579 -0.354369,1.120314 -0.233775,0.279148 -0.544831,0.419147 -0.933608,0.419143 -0.282056,4e-6 -0.5059,-0.07361 -0.671065,-0.22095 -0.162632,-0.149908 -0.243706,-0.352059 -0.243703,-0.605362 0,-0.317919 0.109344,-0.542404 0.32788,-0.674223 0.218529,-0.13183 0.61125,-0.1976 1.177898,-0.1976 z m 60.276527,0 h 0.69756 V 23.8315 c 0,0.46525 -0.11816,0.838579 -0.35439,1.120314 -0.23377,0.279148 -0.54482,0.419147 -0.93359,0.419143 -0.28206,4e-6 -0.50592,-0.07361 -0.67108,-0.22095 -0.16262,-0.149908 -0.2437,-0.352059 -0.2437,-0.605362 0,-0.317919 0.10879,-0.542404 0.32729,-0.674223 0.21852,-0.13183 0.61125,-0.1976 1.17791,-0.1976 z m 38.57273,0 h 0.69759 V 23.8315 c 0,0.46525 -0.11803,0.838579 -0.35441,1.120314 -0.23378,0.279148 -0.54543,0.419147 -0.93416,0.419143 -0.28207,4e-6 -0.50533,-0.07361 -0.67048,-0.22095 -0.16263,-0.149908 -0.24429,-0.352059 -0.24429,-0.605362 0,-0.317919 0.10931,-0.542404 0.32787,-0.674223 0.21853,-0.13183 0.61124,-0.1976 1.17788,-0.1976 z m 25.15056,0 h 0.69754 V 23.8315 c 0,0.46525 -0.11816,0.838579 -0.35436,1.120314 -0.23377,0.279148 -0.54483,0.419147 -0.93361,0.419143 -0.28205,4e-6 -0.50587,-0.07361 -0.67107,-0.22095 -0.16269,-0.149908 -0.24371,-0.352059 -0.24371,-0.605362 0,-0.317919 0.10891,-0.542404 0.32732,-0.674223 0.2185,-0.13183 0.61122,-0.1976 1.17789,-0.1976 z"
     style="fill:#ffffff;stroke:#ffffff;stroke-width:0.396876" />
</svg>
