<?xml version="1.0" encoding="UTF-8" standalone="no"?>
<svg
   xmlns:dc="http://purl.org/dc/elements/1.1/"
   xmlns:cc="http://creativecommons.org/ns#"
   xmlns:rdf="http://www.w3.org/1999/02/22-rdf-syntax-ns#"
   xmlns:svg="http://www.w3.org/2000/svg"
   xmlns="http://www.w3.org/2000/svg"
   width="480"
   height="126"
   viewBox="0 0 127 33.3375"
   version="1.1"
   id="svg6591">
  <metadata
     id="metadata8141">
    <rdf:RDF>
      <cc:Work
         rdf:about="">
        <dc:format>image/svg+xml</dc:format>
        <dc:type
           rdf:resource="http://purl.org/dc/dcmitype/StillImage" />
        <dc:title></dc:title>
      </cc:Work>
    </rdf:RDF>
  </metadata>
  <defs
     id="defs6585" />
  <path
     id="path7955"
     d="m 42.975154,4.2173111 c -1.389613,0 -2.481189,0.3233711 -3.275254,0.9699667 -0.788392,0.6465953 -1.182872,1.531584 -1.182872,2.6546182 0,0.9698932 0.286517,1.7271947 0.85938,2.271696 0.57286,0.544502 1.500412,0.944176 2.782257,1.19941 l 1.046449,0.204122 c 0.873471,0.175828 1.499973,0.439509 1.879988,0.791166 0.385689,0.351657 0.578776,0.839569 0.578776,1.463476 0,0.714659 -0.266792,1.264857 -0.799951,1.650546 -0.533157,0.385688 -1.289942,0.578259 -2.271178,0.578259 -0.646597,0 -1.304759,-0.09914 -1.974041,-0.297656 -0.669282,-0.198516 -1.352878,-0.493341 -2.050521,-0.884701 v 1.769401 c 0.726004,0.26658 1.426726,0.467973 2.101681,0.604098 0.680628,0.136125 1.32166,0.204638 1.922881,0.204638 1.593799,0 2.801643,-0.317661 3.624066,-0.952913 0.828099,-0.635251 1.242304,-1.568512 1.242304,-2.799312 0,-1.032284 -0.306245,-1.854469 -0.918808,-2.467033 -0.606894,-0.618236 -1.551572,-1.04957 -2.833418,-1.2934611 L 42.669229,9.6712416 C 41.727696,9.495413 41.086664,9.2654726 40.746349,8.9818782 40.411709,8.6926116 40.244572,8.2669873 40.244572,7.7054703 c 0,-0.6692832 0.252261,-1.1852249 0.75706,-1.5482261 0.510468,-0.3630009 1.233516,-0.5446694 2.169374,-0.5446694 0.538832,0 1.097336,0.076819 1.675868,0.22996 0.578533,0.1531411 1.194134,0.3856781 1.846398,0.6976319 V 4.8643001 C 46.04668,4.6487682 45.414466,4.4868241 44.79623,4.3790583 44.177994,4.2712924 43.570702,4.2173111 42.975154,4.2173111 Z M 0,4.4994643 V 17.201531 h 1.7182414 v -6.066296 h 5.036902 V 9.6893285 H 1.7182414 V 5.9458877 h 5.581571 V 4.4994643 Z m 8.9823974,0 V 17.201531 H 16.886307 V 15.755108 H 10.701155 V 4.4994643 Z m 9.0113356,0 V 17.201531 h 8.184515 v -1.446423 h -6.466274 v -4.60282 h 6.049243 V 9.7063817 h -6.049243 v -3.760494 h 6.31331 V 4.4994643 Z m 10.364226,0 V 17.201531 h 1.718757 v -6.116939 l 6.099887,6.116939 h 2.263428 L 31.684888,10.42055 37.988896,4.4994643 H 35.777143 L 30.076716,9.8676122 V 4.4994643 Z"
     style="fill:#ffffff;stroke-width:0.26458332" />
  <path
     style="fill:#ffffff;stroke-width:0.16080394"
     d="m 11.752193,23.906549 v 1.232411 c -0.07863,-0.135574 -0.178335,-0.236118 -0.298995,-0.301193 -0.119305,-0.06643 -0.263107,-0.09956 -0.431219,-0.09956 -0.275214,0 -0.499517,0.109829 -0.673053,0.329458 -0.172178,0.21963 -0.258165,0.508292 -0.258165,0.866206 0,0.357915 0.08598,0.64689 0.258165,0.86652 0.173536,0.21963 0.397839,0.32946 0.673053,0.32946 0.168112,0 0.311914,-0.0326 0.431219,-0.09767 0.12066,-0.06643 0.220362,-0.167504 0.298995,-0.303078 v 0.341708 h 0.374058 v -3.164256 z m 1.144785,0 v 0.473931 h 0.374373 v -0.473931 z m 8.817835,0 v 0.473931 h 0.374058 v -0.473931 z m 20.937805,0 v 3.164257 h 0.374371 v -3.164257 z m 5.826315,0 c -0.256232,0 -0.443294,0.05834 -0.561242,0.174937 -0.11795,0.115237 -0.176822,0.299556 -0.176822,0.553077 v 0.158606 H 47.38283 v 0.290829 h 0.358039 v 1.986808 h 0.376256 V 25.083998 H 48.73333 V 24.793169 H 48.117125 V 24.59185 c 0,-0.140996 0.02574,-0.238484 0.07726,-0.292713 0.05287,-0.05423 0.146247,-0.08134 0.280466,-0.08134 h 0.358041 v -0.311243 z m 16.624683,0 v 3.164257 h 0.37437 v -3.164257 z m 9.704455,0 v 3.164257 h 0.374054 v -3.164257 z m 5.012871,0 v 3.164257 h 0.376254 v -1.287374 c 0,-0.22234 0.05834,-0.397901 0.174938,-0.526696 0.116594,-0.128794 0.2757,-0.193153 0.477702,-0.193153 0.168114,0 0.294401,0.0537 0.378454,0.160804 0.08406,0.107104 0.125941,0.268421 0.125941,0.483983 v 1.362436 h 0.374375 v -1.374684 c 0,-0.314532 -0.06742,-0.55255 -0.201637,-0.713883 -0.134219,-0.162689 -0.331936,-0.244032 -0.59359,-0.244032 -0.158619,0 -0.299146,0.03397 -0.421167,0.101759 -0.120659,0.06778 -0.225536,0.17023 -0.315016,0.30716 v -1.240577 z m 19.969828,0 v 1.232411 c -0.0787,-0.135574 -0.17801,-0.236118 -0.29867,-0.301193 -0.11931,-0.06643 -0.26311,-0.09956 -0.43122,-0.09956 -0.2752,0 -0.49951,0.109829 -0.67305,0.329458 -0.17218,0.21963 -0.25848,0.508292 -0.25848,0.866206 0,0.357915 0.0863,0.64689 0.25848,0.86652 0.17354,0.21963 0.39785,0.32946 0.67305,0.32946 0.16811,0 0.31191,-0.0326 0.43122,-0.09767 0.12066,-0.06643 0.22005,-0.167504 0.29867,-0.303078 v 0.341708 h 0.37439 v -3.164256 z m 13.11088,0 v 0.473931 h 0.37405 V 23.906549 Z M 1.0656402,23.979727 c -0.3321555,0 -0.5931741,0.07722 -0.7829771,0.231783 C 0.0942157,24.366064 0,24.577497 0,24.845933 c 0,0.23183 0.068472,0.412877 0.2054018,0.543027 0.1369294,0.130151 0.3584902,0.225738 0.6648867,0.286746 l 0.2499998,0.04899 c 0.2087834,0.04202 0.3586002,0.105015 0.4494344,0.189072 0.09219,0.08406 0.1385051,0.200427 0.1385051,0.349558 0,0.170823 -0.063829,0.302597 -0.1912689,0.394788 -0.1274391,0.09219 -0.308485,0.13819 -0.5430272,0.13819 -0.1545541,0 -0.3117567,-0.02385 -0.4717336,-0.07129 -0.1599767,-0.04745 -0.3231938,-0.117823 -0.4899494,-0.21137 v 0.423053 c 0.1735342,0.06372 0.3408657,0.111623 0.5021981,0.144158 0.1626885,0.03254 0.3157767,0.04899 0.4594849,0.04899 0.3809618,0 0.669938,-0.07586 0.8665196,-0.2277 0.1979374,-0.151841 0.2967964,-0.375089 0.2967964,-0.669284 0,-0.246744 -0.073116,-0.44309 -0.2195351,-0.58951 C 1.7726488,25.495578 1.5469737,25.392291 1.2405771,25.333995 L 0.9924617,25.283113 C 0.7674097,25.241088 0.614007,25.186327 0.532663,25.11854 0.4526753,25.049394 0.4126882,24.947795 0.4126882,24.813579 c 0,-0.159978 0.060244,-0.283523 0.1809044,-0.370289 0.1220163,-0.08677 0.2951474,-0.130025 0.5188439,-0.130025 0.1287951,0 0.2621545,0.01835 0.4004396,0.05496 0.1382852,0.0366 0.2853591,0.0922 0.4412686,0.166772 V 24.13425 C 1.7995907,24.08273 1.6484027,24.04412 1.5006275,24.018358 1.3528521,23.992598 1.2079924,23.979718 1.0656402,23.979718 Z m 28.3442078,0.05497 v 2.824747 c 0,0.263012 -0.03724,0.445116 -0.11181,0.546796 -0.07457,0.101681 -0.202752,0.152639 -0.384421,0.152639 h -0.128141 v 0.34579 h 0.156721 c 0.307753,0 0.530685,-0.08272 0.66897,-0.248116 0.139641,-0.165399 0.209484,-0.43106 0.209484,-0.797109 v -2.824747 z m 21.076309,0 v 3.036115 h 0.410803 v -3.036115 z m 26.398226,0 v 0.345791 h 1.077892 v 2.690324 h 0.41269 v -2.690327 h 1.077885 v -0.345791 z m 25.393527,0 v 3.036115 h 0.41081 v -1.220161 h 0.51663 c 0.34029,0 0.5972,-0.0767 0.77073,-0.2299 0.17489,-0.153197 0.26225,-0.379402 0.26225,-0.679019 0,-0.296907 -0.0874,-0.522054 -0.26225,-0.675252 -0.17353,-0.154554 -0.43044,-0.231783 -0.77073,-0.231783 z m -47.942194,0.111809 v 0.646671 h -0.274497 v 0.290829 h 0.274497 V 26.3205 c 0,0.284703 0.05508,0.48105 0.164887,0.589509 0.109815,0.107104 0.308904,0.160803 0.597676,0.160803 h 0.38442 v -0.313127 h -0.38442 c -0.155911,0 -0.259412,-0.02659 -0.31093,-0.07945 -0.05016,-0.05287 -0.07538,-0.171992 -0.07538,-0.357726 v -1.236495 h 0.770728 v -0.290829 h -0.770728 v -0.64667 z m 11.917076,0 v 0.646671 h -0.274496 v 0.290829 h 0.274496 V 26.3205 c 0,0.284703 0.05476,0.48105 0.164577,0.589509 0.109816,0.107104 0.309217,0.160803 0.59799,0.160803 h 0.384422 v -0.313127 h -0.384422 c -0.15591,0 -0.259727,-0.02659 -0.311248,-0.07945 -0.05014,-0.05287 -0.07506,-0.171992 -0.07506,-0.357726 v -1.236495 h 0.770728 v -0.290829 h -0.770728 v -0.64667 z m 45.007528,0 v 0.646671 h -0.2745 v 0.290829 h 0.2745 V 26.3205 c 0,0.284703 0.055,0.48105 0.16488,0.589509 0.10982,0.107104 0.30922,0.160803 0.59799,0.160803 h 0.38411 v -0.313127 h -0.38411 c -0.15591,0 -0.25973,-0.02659 -0.31124,-0.07945 -0.0502,-0.05287 -0.0753,-0.171992 -0.0753,-0.357726 v -1.236495 h 0.77073 v -0.290829 h -0.77073 v -0.64667 z m -8.5716,0.225816 h 0.51663 c 0.19116,0 0.33908,0.04927 0.44347,0.148242 0.10439,0.09897 0.1564,0.239499 0.1564,0.421168 0,0.183024 -0.052,0.323769 -0.1564,0.422738 -0.10439,0.09897 -0.25231,0.148556 -0.44347,0.148556 h -0.51663 z M 3.7437167,24.738207 c -0.3552028,0 -0.6351074,0.106559 -0.8398236,0.319409 -0.2033604,0.212851 -0.3049623,0.504785 -0.3049623,0.876255 0,0.366051 0.1010732,0.656925 0.3030777,0.872487 0.2020048,0.215563 0.4745238,0.323493 0.8175246,0.323493 0.126084,0 0.2446714,-0.01234 0.3558415,-0.03675 0.1125262,-0.0244 0.2209852,-0.0608 0.325377,-0.109613 V 26.6377 c -0.1057478,0.0583 -0.2123062,0.102399 -0.3194093,0.132224 -0.1057477,0.02848 -0.2128349,0.04271 -0.3212939,0.04271 -0.2426766,0 -0.4311083,-0.0767 -0.5653264,-0.229899 -0.1342179,-0.154553 -0.201319,-0.370942 -0.201319,-0.648869 0,-0.277926 0.067101,-0.493472 0.201319,-0.64667 0.1342181,-0.154554 0.3226498,-0.231783 0.5653264,-0.231783 0.108459,0 0.2155462,0.01509 0.3212939,0.04491 0.1071031,0.02848 0.2136615,0.07173 0.3194093,0.130024 v -0.349866 c -0.103036,-0.04745 -0.209595,-0.08248 -0.3194093,-0.105529 -0.1098148,-0.0244 -0.2223884,-0.03674 -0.3376256,-0.03674 z m 2.1108656,0 c -0.122016,0 -0.24746,0.01373 -0.3762553,0.04083 -0.1287945,0.02576 -0.2616264,0.0649 -0.3985555,0.117776 v 0.345791 c 0.1138818,-0.06236 0.2324696,-0.109208 0.3558414,-0.140389 0.1233724,-0.03118 0.2501874,-0.0468 0.3803384,-0.0468 0.204717,0 0.363291,0.04769 0.475817,0.142589 0.113882,0.09354 0.170854,0.226376 0.170854,0.398554 v 0.03643 h -0.524497 c -0.34029,0 -0.5966652,0.06521 -0.7688437,0.195353 -0.1708226,0.13015 -0.2562814,0.323225 -0.2562814,0.57946 0,0.219629 0.068472,0.395188 0.2054024,0.526696 0.138285,0.130149 0.3239729,0.19535 0.5571597,0.19535 0.184381,0 0.340526,-0.0326 0.467965,-0.09767 0.127438,-0.06643 0.233685,-0.168875 0.319095,-0.307161 v 0.345792 h 0.374371 v -1.299623 c 0,-0.347067 -0.08134,-0.605871 -0.244032,-0.776695 -0.162688,-0.170823 -0.408934,-0.256281 -0.738379,-0.256281 z m 2.853328,0 c -0.15862,0 -0.299151,0.03397 -0.421168,0.101759 -0.120661,0.06778 -0.225535,0.17023 -0.315013,0.30716 v -0.353957 h -0.376255 v 2.277637 h 0.376255 v -1.287374 c 0,-0.22234 0.05834,-0.397901 0.174937,-0.526696 0.116594,-0.128794 0.275698,-0.193153 0.477702,-0.193153 0.168111,0 0.294399,0.0537 0.378454,0.160804 0.08405,0.107104 0.125943,0.268421 0.125943,0.483983 v 1.362436 h 0.374057 v -1.374684 c 0,-0.314532 -0.0671,-0.55255 -0.201319,-0.713883 -0.134219,-0.162689 -0.331936,-0.244032 -0.593593,-0.244032 z m 6.4425207,0 c -0.158619,0 -0.299151,0.03397 -0.421167,0.101759 -0.12066,0.06778 -0.225534,0.17023 -0.315013,0.30716 v -0.353957 h -0.376255 v 2.277637 h 0.376255 v -1.287374 c 0,-0.22234 0.05803,-0.397901 0.174624,-0.526696 0.116592,-0.128794 0.276011,-0.193153 0.478014,-0.193153 0.168112,0 0.294084,0.0537 0.378142,0.160804 0.08406,0.107104 0.126256,0.268421 0.126256,0.483983 v 1.362436 h 0.374056 v -1.374684 c 0,-0.314532 -0.0671,-0.55255 -0.201318,-0.713883 -0.134219,-0.162689 -0.331937,-0.244032 -0.593594,-0.244032 z m 2.344534,0 c -0.122015,0 -0.24746,0.01373 -0.376254,0.04083 -0.128797,0.02576 -0.261626,0.0649 -0.398555,0.117776 v 0.345791 c 0.113882,-0.06236 0.232468,-0.109208 0.35584,-0.140389 0.123372,-0.03118 0.250188,-0.0468 0.38034,-0.0468 0.204717,0 0.36329,0.04769 0.475816,0.142589 0.113882,0.09354 0.170854,0.226376 0.170854,0.398554 v 0.03643 h -0.524499 c -0.340287,0 -0.596663,0.06521 -0.768842,0.195353 -0.170822,0.13015 -0.256282,0.323225 -0.256282,0.57946 0,0.219629 0.06846,0.395188 0.205403,0.526696 0.138286,0.130149 0.323974,0.19535 0.55716,0.19535 0.18438,0 0.340525,-0.0326 0.467965,-0.09767 0.12744,-0.06643 0.233684,-0.168875 0.319095,-0.307161 v 0.345792 h 0.374372 v -1.299623 c 0,-0.347067 -0.08134,-0.605871 -0.244033,-0.776695 -0.162687,-0.170823 -0.408935,-0.256281 -0.73838,-0.256281 z m 6.173993,0 c -0.122017,0 -0.247461,0.01373 -0.376256,0.04083 -0.128794,0.02576 -0.261626,0.0649 -0.398556,0.117776 v 0.345791 c 0.113884,-0.06236 0.232471,-0.109208 0.355842,-0.140389 0.123372,-0.03118 0.250189,-0.0468 0.38034,-0.0468 0.204716,0 0.36329,0.04769 0.475816,0.142589 0.113883,0.09354 0.170854,0.226376 0.170854,0.398554 v 0.03643 H 23.7525 c -0.340288,0 -0.596666,0.06521 -0.768842,0.195353 -0.170823,0.13015 -0.256283,0.323225 -0.256283,0.57946 0,0.219629 0.06846,0.395188 0.205404,0.526696 0.138284,0.130149 0.323972,0.19535 0.557159,0.19535 0.184381,0 0.340527,-0.0326 0.467965,-0.09767 0.127438,-0.06643 0.233684,-0.168875 0.319095,-0.307161 v 0.345792 h 0.374371 v -1.299623 c 0,-0.347067 -0.08134,-0.605871 -0.244032,-0.776695 -0.162689,-0.170823 -0.408935,-0.256281 -0.738379,-0.256281 z m 2.853327,0 c -0.15862,0 -0.299151,0.03397 -0.421167,0.101759 -0.12066,0.06778 -0.225535,0.17023 -0.315013,0.30716 v -0.353957 h -0.376254 v 2.277637 h 0.376254 v -1.287374 c 0,-0.22234 0.05834,-0.397901 0.174937,-0.526696 0.116593,-0.128794 0.275698,-0.193153 0.477701,-0.193153 0.168113,0 0.294401,0.0537 0.378455,0.160804 0.08406,0.107104 0.125942,0.268421 0.125942,0.483983 v 1.362436 h 0.374057 v -1.374684 c 0,-0.314532 -0.0671,-0.55255 -0.201318,-0.713883 -0.134219,-0.162689 -0.331935,-0.244032 -0.593594,-0.244032 z m 4.982097,0 c -0.326733,0 -0.582796,0.105715 -0.76853,0.317211 -0.18438,0.211494 -0.276694,0.50427 -0.276694,0.878453 0,0.372828 0.09231,0.665919 0.276694,0.878769 0.185734,0.211495 0.441797,0.317211 0.76853,0.317211 0.325376,0 0.581223,-0.105716 0.766959,-0.317211 0.185736,-0.21285 0.278581,-0.505941 0.278581,-0.878769 0,-0.374183 -0.09284,-0.666959 -0.278581,-0.878453 -0.185736,-0.211496 -0.441583,-0.317211 -0.766959,-0.317211 z m 5.435927,0 c -0.180314,0 -0.333402,0.03397 -0.459485,0.101759 -0.126082,0.06643 -0.228528,0.168875 -0.30716,0.30716 v -0.353957 h -0.376257 v 2.277637 h 0.376257 v -1.199747 c 0,-0.257591 0.05612,-0.45478 0.168655,-0.59171 0.113883,-0.138285 0.276571,-0.2076 0.488066,-0.2076 0.05965,0 0.11388,0.006 0.162688,0.01822 0.05016,0.01085 0.09648,0.02867 0.138505,0.05307 l -0.0022,-0.384423 c -0.03796,-0.0067 -0.07246,-0.01141 -0.103642,-0.01413 -0.03118,-0.004 -0.05967,-0.0063 -0.08543,-0.0063 z m 1.612751,0 c -0.158623,0 -0.299152,0.03397 -0.421169,0.101759 -0.12066,0.06778 -0.225534,0.17023 -0.315011,0.30716 v -0.353957 h -0.376257 v 2.277637 h 0.376257 v -1.287374 c 0,-0.22234 0.05834,-0.397901 0.174937,-0.526696 0.116593,-0.128794 0.275696,-0.193153 0.477701,-0.193153 0.16811,0 0.294399,0.0537 0.378452,0.160804 0.08406,0.107104 0.125943,0.268421 0.125943,0.483983 v 1.362436 h 0.374372 v -1.374684 c 0,-0.314532 -0.06742,-0.55255 -0.201632,-0.713883 -0.134219,-0.162689 -0.331937,-0.244032 -0.593593,-0.244032 z m 2.344534,0 c -0.122018,0 -0.247148,0.01373 -0.375941,0.04083 -0.128795,0.02576 -0.261941,0.0649 -0.398871,0.117776 v 0.345791 c 0.113882,-0.06236 0.232783,-0.109208 0.356157,-0.140389 0.123371,-0.03118 0.249873,-0.0468 0.380023,-0.0468 0.204717,0 0.363606,0.04769 0.476132,0.142589 0.11388,0.09354 0.17054,0.226376 0.17054,0.398554 v 0.03643 h -0.524498 c -0.340289,0 -0.596664,0.06521 -0.768844,0.195353 -0.170821,0.13015 -0.255967,0.323225 -0.255967,0.57946 0,0.219629 0.06848,0.395188 0.205403,0.526696 0.138284,0.130149 0.323972,0.19535 0.55716,0.19535 0.184382,0 0.340211,-0.0326 0.467649,-0.09767 0.127441,-0.06643 0.233686,-0.168875 0.319097,-0.307161 v 0.345792 h 0.37437 v -1.299623 c 0,-0.347067 -0.08134,-0.605871 -0.244031,-0.776695 -0.162689,-0.170823 -0.408935,-0.256281 -0.738379,-0.256281 z m 5.118716,0 c -0.326733,0 -0.582794,0.105715 -0.768531,0.317211 -0.184379,0.211494 -0.276695,0.50427 -0.276695,0.878453 0,0.372828 0.09232,0.665919 0.276695,0.878769 0.185737,0.211495 0.441798,0.317211 0.768531,0.317211 0.325377,0 0.580909,-0.105716 0.766645,-0.317211 0.185736,-0.21285 0.27858,-0.505941 0.27858,-0.878769 0,-0.374183 -0.09284,-0.666959 -0.27858,-0.878453 -0.185736,-0.211496 -0.441268,-0.317211 -0.766645,-0.317211 z m 6.780148,0 c -0.158621,0 -0.299152,0.03397 -0.421169,0.101759 -0.120661,0.06778 -0.225534,0.17023 -0.315012,0.30716 V 24.793169 H 51.68402 v 2.277637 h 0.376257 v -1.287374 c 0,-0.22234 0.05835,-0.397901 0.174938,-0.526696 0.116593,-0.128794 0.275694,-0.193153 0.477699,-0.193153 0.168112,0 0.294401,0.0537 0.378457,0.160804 0.08405,0.107104 0.12594,0.268421 0.12594,0.483983 v 1.362436 h 0.374058 v -1.374684 c 0,-0.314532 -0.0671,-0.55255 -0.201319,-0.713883 -0.134218,-0.162689 -0.331935,-0.244032 -0.593592,-0.244032 z m 4.134106,0 c -0.341646,0 -0.613322,0.109829 -0.815327,0.329458 -0.200647,0.218275 -0.300879,0.513794 -0.300879,0.886621 0,0.360627 0.105716,0.64686 0.317212,0.858354 0.212849,0.211495 0.500983,0.317211 0.86432,0.317211 0.145064,0 0.288023,-0.01509 0.42902,-0.04491 0.140997,-0.02983 0.27847,-0.07309 0.412689,-0.130025 v -0.353957 c -0.132864,0.0705 -0.267066,0.123355 -0.402637,0.158606 -0.134219,0.03526 -0.273065,0.05307 -0.416773,0.05307 -0.248099,0 -0.442018,-0.0671 -0.581659,-0.201319 -0.138286,-0.135573 -0.215516,-0.332234 -0.231783,-0.589824 h 1.720476 V 25.83839 c 0,-0.338935 -0.08957,-0.606497 -0.26853,-0.803078 -0.177601,-0.197936 -0.419733,-0.29711 -0.726129,-0.29711 z m 2.737433,0 c -0.180312,0 -0.33371,0.03397 -0.459797,0.101759 -0.126081,0.06643 -0.228215,0.168875 -0.306847,0.30716 v -0.353957 h -0.376255 v 2.277637 h 0.376255 v -1.199747 c 0,-0.257591 0.05616,-0.45478 0.168653,-0.59171 0.113883,-0.138285 0.276575,-0.2076 0.48807,-0.2076 0.05962,0 0.113878,0.006 0.162687,0.01822 0.05015,0.01085 0.09616,0.02867 0.138193,0.05307 l -0.0018,-0.384423 c -0.03793,-0.0067 -0.07244,-0.01141 -0.103642,-0.01413 -0.03118,-0.004 -0.05969,-0.0063 -0.08543,-0.0063 z m 1.480529,0 c -0.355207,0 -0.635423,0.106559 -0.840135,0.319409 -0.203364,0.212851 -0.304964,0.504785 -0.304964,0.876255 0,0.366051 0.101071,0.656925 0.303079,0.872487 0.202003,0.215563 0.474524,0.323493 0.817521,0.323493 0.126087,0 0.244679,-0.01234 0.355845,-0.03675 0.112521,-0.0244 0.220982,-0.0608 0.325378,-0.109613 V 26.6377 c -0.105751,0.0583 -0.21231,0.102399 -0.31941,0.132224 -0.105751,0.02848 -0.212839,0.04271 -0.321294,0.04271 -0.242679,0 -0.43111,-0.0767 -0.565329,-0.229899 -0.134218,-0.154553 -0.201316,-0.370942 -0.201316,-0.648869 0,-0.277926 0.06709,-0.493472 0.201316,-0.64667 0.134219,-0.154554 0.32265,-0.231783 0.565329,-0.231783 0.108455,0 0.215543,0.01509 0.321294,0.04491 0.1071,0.02848 0.213659,0.07173 0.31941,0.130024 v -0.349864 c -0.10304,-0.04745 -0.2096,-0.08248 -0.31941,-0.105529 -0.109817,-0.0244 -0.222076,-0.03675 -0.337314,-0.03675 z m 10.517587,0 c -0.180311,0 -0.333407,0.03397 -0.459488,0.101759 -0.12608,0.06643 -0.228525,0.168875 -0.307162,0.30716 v -0.353957 h -0.376255 v 2.277637 h 0.376255 v -1.199747 c 0,-0.257591 0.05646,-0.45478 0.168969,-0.59171 0.113883,-0.138285 0.276569,-0.2076 0.48807,-0.2076 0.05962,0 0.113877,0.006 0.162686,0.01822 0.05014,0.01085 0.09616,0.02867 0.138187,0.05307 l -0.0025,-0.384423 c -0.03793,-0.0067 -0.07244,-0.01141 -0.103641,-0.01413 -0.03118,-0.004 -0.05969,-0.0063 -0.08543,-0.0063 z m 1.386933,0 c -0.122014,0 -0.247463,0.01373 -0.37626,0.04083 -0.128791,0.02576 -0.261623,0.0649 -0.398553,0.117776 v 0.345791 c 0.113876,-0.06236 0.23247,-0.109208 0.355839,-0.140389 0.123376,-0.03118 0.250192,-0.0468 0.380338,-0.0468 0.20472,0 0.363297,0.04769 0.475818,0.142589 0.113882,0.09354 0.170854,0.226376 0.170854,0.398554 v 0.03643 H 73.13659 c -0.340293,0 -0.596667,0.06521 -0.768845,0.195353 -0.170824,0.13015 -0.256282,0.323225 -0.256282,0.57946 0,0.219629 0.06846,0.395188 0.205399,0.526696 0.138286,0.130149 0.323975,0.19535 0.557161,0.19535 0.184377,0 0.340523,-0.0326 0.467965,-0.09767 0.127443,-0.06643 0.233685,-0.168875 0.319094,-0.307161 v 0.345792 h 0.37437 v -1.299623 c 0,-0.347067 -0.08134,-0.605871 -0.244029,-0.776695 -0.162691,-0.170823 -0.408933,-0.256281 -0.738377,-0.256281 z m 10.379703,0 c -0.341641,0 -0.613633,0.109829 -0.815641,0.329458 -0.200647,0.218275 -0.300879,0.513794 -0.300879,0.886621 0,0.360627 0.10572,0.64686 0.31721,0.858354 0.212856,0.211495 0.500985,0.317211 0.864323,0.317211 0.145067,0 0.288025,-0.01509 0.42902,-0.04491 0.140995,-0.02983 0.27847,-0.07309 0.412689,-0.130025 v -0.353957 c -0.132862,0.0705 -0.267069,0.123355 -0.402637,0.158606 -0.134218,0.03526 -0.273067,0.05307 -0.416773,0.05307 -0.248102,0 -0.44202,-0.0671 -0.58166,-0.201319 -0.13826,-0.135573 -0.215494,-0.332234 -0.231782,-0.589824 h 1.720479 V 25.83839 c 0,-0.338935 -0.08958,-0.606497 -0.268534,-0.803078 -0.1776,-0.197936 -0.419417,-0.29711 -0.725815,-0.29711 z m 2.490893,0 c -0.326733,0 -0.582802,0.105715 -0.768529,0.317211 -0.184383,0.211494 -0.276696,0.50427 -0.276696,0.878453 0,0.372828 0.09231,0.665919 0.276696,0.878769 0.185727,0.211495 0.441796,0.317211 0.768529,0.317211 0.325367,0 0.581223,-0.105716 0.766956,-0.317211 0.185733,-0.21285 0.278586,-0.505941 0.278586,-0.878769 0,-0.374183 -0.09285,-0.666959 -0.278586,-0.878453 -0.185733,-0.211496 -0.441589,-0.317211 -0.766956,-0.317211 z m 2.792395,0 c -0.180311,0 -0.333711,0.03397 -0.459796,0.101759 -0.126084,0.06643 -0.228217,0.168875 -0.306845,0.30716 v -0.353957 h -0.376258 v 2.277637 h 0.376258 v -1.199747 c 0,-0.257591 0.0561,-0.45478 0.168648,-0.59171 0.113885,-0.138285 0.276573,-0.2076 0.488066,-0.2076 0.05971,0 0.113883,0.006 0.162696,0.01822 0.05017,0.01085 0.09616,0.02867 0.138187,0.05307 l -0.0018,-0.384423 c -0.03794,-0.0067 -0.07247,-0.01141 -0.103651,-0.01413 -0.0312,-0.004 -0.05971,-0.0063 -0.08542,-0.0063 z m 5.177449,0 c -0.122012,0 -0.247458,0.01373 -0.376258,0.04083 -0.128791,0.02576 -0.261629,0.0649 -0.398557,0.117776 v 0.345791 c 0.113884,-0.06236 0.23247,-0.109208 0.355848,-0.140389 0.12337,-0.03118 0.250183,-0.0468 0.380341,-0.0468 0.204713,0 0.363283,0.04769 0.475815,0.142589 0.113875,0.09354 0.170857,0.226376 0.170857,0.398554 v 0.03643 h -0.524814 c -0.340293,0 -0.596355,0.06521 -0.76853,0.195353 -0.170833,0.13015 -0.256287,0.323225 -0.256287,0.57946 0,0.219629 0.06851,0.395188 0.205406,0.526696 0.138276,0.130149 0.323974,0.19535 0.557154,0.19535 0.184383,0 0.340221,-0.0326 0.467654,-0.09767 0.12744,-0.06643 0.233998,-0.168875 0.319417,-0.307161 v 0.345792 h 0.374049 v -1.299623 c 0,-0.347067 -0.08136,-0.605871 -0.244041,-0.776695 -0.162671,-0.170823 -0.408613,-0.256281 -0.738054,-0.256281 z m 2.853014,0 c -0.15862,0 -0.29884,0.03397 -0.42085,0.101759 -0.12067,0.06778 -0.22584,0.17023 -0.31533,0.30716 v -0.353957 h -0.37595 v 2.277637 h 0.37595 v -1.287374 c 0,-0.22234 0.0584,-0.397901 0.17493,-0.526696 0.1166,-0.128794 0.27602,-0.193153 0.47801,-0.193153 0.16813,0 0.2941,0.0537 0.37815,0.160804 0.084,0.107104 0.12626,0.268421 0.12626,0.483983 v 1.362436 h 0.37406 v -1.374684 c 0,-0.314532 -0.0671,-0.55255 -0.20132,-0.713883 -0.13422,-0.162689 -0.33225,-0.244032 -0.59391,-0.244032 z m 9.08417,0 c -0.18032,0 -0.33341,0.03397 -0.45949,0.101759 -0.12608,0.06643 -0.22854,0.168875 -0.30715,0.30716 v -0.353957 h -0.37627 v 2.277637 h 0.37627 v -1.199747 c 0,-0.257591 0.0565,-0.45478 0.16896,-0.59171 0.11387,-0.138285 0.27657,-0.2076 0.48806,-0.2076 0.0597,0 0.11388,0.006 0.16269,0.01822 0.0502,0.01085 0.0962,0.02867 0.1382,0.05307 l -0.003,-0.384423 c -0.0379,-0.0067 -0.0725,-0.01141 -0.10363,-0.01413 -0.0312,-0.004 -0.0597,-0.0063 -0.0854,-0.0063 z m 1.38694,0 c -0.12202,0 -0.24746,0.01373 -0.37627,0.04083 -0.12879,0.02576 -0.26162,0.0649 -0.39855,0.117776 v 0.345791 c 0.11388,-0.06236 0.23247,-0.109208 0.35584,-0.140389 0.12337,-0.03118 0.25018,-0.0468 0.38035,-0.0468 0.20471,0 0.36328,0.04769 0.47581,0.142589 0.11388,0.09354 0.17084,0.226376 0.17084,0.398554 v 0.03643 h -0.52448 c -0.34029,0 -0.59668,0.06521 -0.76885,0.195353 -0.17082,0.13015 -0.25628,0.323225 -0.25628,0.57946 0,0.219629 0.0684,0.395188 0.2054,0.526696 0.13829,0.130149 0.32397,0.19535 0.55715,0.19535 0.18439,0 0.34053,-0.0326 0.46797,-0.09767 0.12744,-0.06643 0.23369,-0.168875 0.31909,-0.307161 v 0.345792 h 0.37439 v -1.299623 c 0,-0.347067 -0.0814,-0.605871 -0.24404,-0.776695 -0.16269,-0.170823 -0.40894,-0.256281 -0.73837,-0.256281 z m 2.73743,0 c -0.35521,0 -0.63543,0.106559 -0.84014,0.319409 -0.20336,0.212851 -0.30497,0.504785 -0.30497,0.876255 0,0.366051 0.10108,0.656925 0.30309,0.872487 0.202,0.215563 0.47452,0.323493 0.81752,0.323493 0.12608,0 0.24468,-0.01234 0.35584,-0.03675 0.11253,-0.0244 0.22098,-0.0608 0.32538,-0.109613 V 26.6377 c -0.10575,0.0583 -0.21231,0.102399 -0.31941,0.132224 -0.10575,0.02848 -0.21283,0.04271 -0.3213,0.04271 -0.24267,0 -0.43111,-0.0767 -0.56532,-0.229899 -0.13422,-0.154553 -0.20133,-0.370942 -0.20133,-0.648869 0,-0.277926 0.0671,-0.493472 0.20133,-0.64667 0.13421,-0.154554 0.32265,-0.231783 0.56532,-0.231783 0.10847,0 0.21555,0.01509 0.3213,0.04491 0.1071,0.02848 0.21366,0.07173 0.31941,0.130024 v -0.349864 c -0.10304,-0.04745 -0.2096,-0.08248 -0.31941,-0.105529 -0.10981,-0.0244 -0.22207,-0.03675 -0.33731,-0.03675 z m 5.08386,0 c -0.3552,0 -0.63512,0.106559 -0.83983,0.319409 -0.20336,0.212851 -0.30496,0.504785 -0.30496,0.876255 0,0.366051 0.10075,0.656925 0.30277,0.872487 0.202,0.215563 0.47451,0.323493 0.81751,0.323493 0.12609,0 0.24467,-0.01234 0.35585,-0.03675 0.11251,-0.0244 0.22098,-0.0608 0.32536,-0.109613 V 26.6377 c -0.10575,0.0583 -0.21198,0.102399 -0.31909,0.132224 -0.10575,0.02848 -0.21283,0.04271 -0.32129,0.04271 -0.24267,0 -0.4311,-0.0767 -0.56532,-0.229899 -0.13422,-0.154553 -0.20132,-0.370942 -0.20132,-0.648869 0,-0.277926 0.067,-0.493472 0.20132,-0.64667 0.13422,-0.154554 0.32265,-0.231783 0.56532,-0.231783 0.10846,0 0.21554,0.01509 0.32129,0.04491 0.10711,0.02848 0.21334,0.07173 0.31909,0.130024 v -0.349864 c -0.10303,-0.04745 -0.20926,-0.08248 -0.31909,-0.105529 -0.10982,-0.0244 -0.22238,-0.03675 -0.33761,-0.03675 z m 2.26538,0 c -0.34165,0 -0.61332,0.109829 -0.81533,0.329458 -0.20065,0.218275 -0.30119,0.513794 -0.30119,0.886621 0,0.360627 0.10571,0.64686 0.31721,0.858354 0.21286,0.211495 0.50098,0.317211 0.86431,0.317211 0.14508,0 0.28835,-0.01509 0.42935,-0.04491 0.14098,-0.02983 0.27847,-0.07309 0.41268,-0.130025 v -0.353957 c -0.13285,0.0705 -0.26707,0.123355 -0.40263,0.158606 -0.13423,0.03526 -0.27307,0.05307 -0.41677,0.05307 -0.24811,0 -0.44202,-0.0671 -0.58166,-0.201319 -0.13828,-0.135573 -0.2155,-0.332234 -0.23179,-0.589824 h 1.72017 V 25.83839 c 0,-0.338935 -0.0893,-0.606497 -0.26823,-0.803078 -0.1776,-0.197936 -0.41973,-0.29711 -0.72612,-0.29711 z m -104.407302,0.05497 v 2.277637 h 0.374373 v -2.277637 z m 6.084482,0 0.854271,2.277637 h 0.50848 l 0.853957,-2.277637 h -0.396356 l -0.711998,1.911746 -0.711682,-1.911746 z m 2.733353,0 v 2.277637 h 0.374058 v -2.277637 z m 11.414567,0 v 1.378768 c 0,0.313176 0.06764,0.551193 0.203205,0.713882 0.135572,0.162688 0.334449,0.244033 0.596104,0.244033 0.158621,0 0.29747,-0.03314 0.416771,-0.09956 0.120661,-0.06778 0.226379,-0.171075 0.317212,-0.30936 v 0.349874 h 0.374372 v -2.277635 h -0.374372 v 1.291457 c 0,0.22234 -0.05888,0.397901 -0.176822,0.526696 -0.116592,0.128796 -0.27601,0.193152 -0.478013,0.193152 -0.168113,0 -0.294087,-0.0537 -0.378142,-0.160804 -0.08406,-0.108458 -0.126256,-0.270303 -0.126256,-0.485866 v -1.364643 z m 29.292074,0 v 1.378768 c 0,0.313176 0.06764,0.551193 0.2032,0.713882 0.13558,0.162688 0.334452,0.244033 0.596106,0.244033 0.158621,0 0.297464,-0.03314 0.416773,-0.09956 0.12066,-0.06778 0.226374,-0.171075 0.31721,-0.30936 v 0.349874 h 0.37406 v -2.277641 h -0.37406 v 1.291456 c 0,0.222341 -0.0589,0.397902 -0.176822,0.526697 -0.116594,0.128796 -0.27601,0.193152 -0.478012,0.193152 -0.168113,0 -0.29409,-0.0537 -0.378144,-0.160804 -0.08405,-0.108459 -0.126257,-0.270303 -0.126257,-0.485866 v -1.364635 z m 5.43373,0 v 1.378768 c 0,0.313176 0.06794,0.551193 0.203515,0.713882 0.135574,0.162688 0.334131,0.244033 0.59579,0.244033 0.15862,0 0.29747,-0.03314 0.416774,-0.09956 0.120659,-0.06778 0.22638,-0.171075 0.317209,-0.30936 v 0.349874 h 0.37437 v -2.277637 h -0.37437 v 1.291457 c 0,0.222341 -0.0589,0.397901 -0.176822,0.526696 -0.116594,0.128797 -0.276004,0.193152 -0.478012,0.193152 -0.168113,0 -0.29409,-0.0537 -0.378144,-0.160804 -0.08405,-0.108458 -0.126257,-0.270302 -0.126257,-0.485866 v -1.364635 z m 21.179945,0 0.921174,2.240891 -0.0669,0.170855 c -0.06915,0.181669 -0.132442,0.296984 -0.189392,0.345791 -0.05691,0.04881 -0.13691,0.07318 -0.239941,0.07318 h -0.21954 v 0.313127 h 0.298995 c 0.168111,0 0.302315,-0.04136 0.402639,-0.124057 0.100324,-0.0827 0.203302,-0.259633 0.309039,-0.530779 l 1.000631,-2.489008 h -0.396668 l -0.711688,1.781408 -0.711677,-1.781408 z m 23.866521,0 v 2.277637 h 0.37405 V 24.793167 Z M 11.113689,25.051332 c 0.197937,0 0.353767,0.07861 0.467649,0.235868 0.113882,0.155909 0.170855,0.371455 0.170855,0.64667 0,0.275215 -0.05697,0.491603 -0.170855,0.64887 -0.113882,0.155909 -0.269712,0.233983 -0.467649,0.233981 -0.19794,0 -0.354084,-0.07807 -0.467966,-0.233981 -0.112526,-0.157267 -0.168655,-0.373655 -0.168655,-0.64887 0,-0.275215 0.05612,-0.490761 0.168655,-0.64667 0.113882,-0.157266 0.270026,-0.235868 0.467966,-0.235868 z m 88.038591,0 c 0.19793,0 0.35408,0.07861 0.46796,0.235868 0.11389,0.155909 0.17053,0.371455 0.17053,0.64667 0,0.275215 -0.0567,0.491603 -0.17053,0.64887 -0.11388,0.155909 -0.27003,0.233983 -0.46796,0.233981 -0.19795,0 -0.35378,-0.07807 -0.46766,-0.233981 -0.11252,-0.157267 -0.16864,-0.373655 -0.16864,-0.64887 0,-0.275215 0.0561,-0.490761 0.16864,-0.64667 0.11388,-0.157266 0.26971,-0.235868 0.46766,-0.235868 z m -67.647898,0.004 c 0.199292,0 0.357339,0.07944 0.473932,0.238065 0.116593,0.157266 0.174937,0.370599 0.174937,0.640389 0,0.271148 -0.05834,0.485636 -0.174937,0.642903 -0.116593,0.157264 -0.27464,0.235865 -0.473932,0.235865 -0.202005,0 -0.361107,-0.07807 -0.477701,-0.233981 -0.115237,-0.157265 -0.173053,-0.372283 -0.173053,-0.644787 0,-0.272503 0.05834,-0.486678 0.174938,-0.642587 0.116593,-0.157265 0.275167,-0.235867 0.475816,-0.235867 z m 14.511928,0 c 0.199292,0 0.357339,0.07944 0.473933,0.238065 0.116592,0.157266 0.174936,0.370599 0.174936,0.640389 0,0.271148 -0.05834,0.485636 -0.174936,0.642903 -0.116594,0.157264 -0.274641,0.235865 -0.473933,0.235865 -0.202006,0 -0.361422,-0.07807 -0.478015,-0.233981 -0.115237,-0.157265 -0.172738,-0.372283 -0.172738,-0.644787 -1e-6,-0.272503 0.05834,-0.486678 0.174937,-0.642587 0.116593,-0.157265 0.275166,-0.235867 0.475816,-0.235867 z m 10.918336,0 c 0.184381,0 0.332297,0.06109 0.443467,0.183103 0.112523,0.122017 0.170025,0.285548 0.17274,0.490264 l -1.333856,0.0019 c 0.01898,-0.214208 0.09072,-0.380167 0.215451,-0.498115 0.126083,-0.11795 0.293414,-0.177136 0.502198,-0.177136 z m 26.501872,0 c 0.184377,0 0.332294,0.06109 0.443467,0.183103 0.112399,0.122017 0.169906,0.285548 0.172738,0.490264 l -1.333858,0.0019 c 0.01896,-0.214208 0.09073,-0.380167 0.215453,-0.498115 0.126086,-0.11795 0.293416,-0.177136 0.5022,-0.177136 z m 2.487124,0 c 0.199292,0 0.357341,0.07944 0.473931,0.238065 0.116599,0.157266 0.174934,0.370599 0.174934,0.640389 0,0.271148 -0.05835,0.485636 -0.174934,0.642903 -0.11659,0.157264 -0.274639,0.235865 -0.473931,0.235865 -0.202009,0 -0.361109,-0.07807 -0.477701,-0.233981 -0.115239,-0.157265 -0.173055,-0.372283 -0.173055,-0.644787 0,-0.272503 0.05834,-0.486678 0.174938,-0.642587 0.116594,-0.157265 0.275171,-0.235867 0.475818,-0.235867 z m 31.384718,0 c 0.18437,0 0.33229,0.06109 0.44347,0.183103 0.1124,0.122017 0.1699,0.285548 0.17274,0.490264 l -1.33417,0.0019 c 0.0189,-0.214208 0.091,-0.380167 0.21576,-0.498115 0.12609,-0.11795 0.29342,-0.177136 0.5022,-0.177136 z M 6.0904493,25.926007 h 0.372173 v 0.08324 c 0,0.244032 -0.06299,0.43985 -0.18907,0.587625 -0.124728,0.146419 -0.290688,0.219851 -0.498115,0.219849 -0.150486,2e-6 -0.269918,-0.03861 -0.3580404,-0.115892 -0.086766,-0.07863 -0.1300248,-0.184662 -0.1300248,-0.317525 0,-0.166754 0.058344,-0.2845 0.1749367,-0.353642 0.1165925,-0.06915 0.3258105,-0.103644 0.6281405,-0.103644 z m 11.6403837,0 h 0.372173 v 0.08324 c 0,0.244032 -0.06299,0.43985 -0.18907,0.587625 -0.124728,0.146419 -0.290688,0.219851 -0.498114,0.219849 -0.150489,2e-6 -0.269918,-0.03861 -0.358042,-0.115892 -0.08677,-0.07863 -0.130025,-0.184662 -0.130025,-0.317525 0,-0.166754 0.05835,-0.2845 0.174938,-0.353642 0.116594,-0.06915 0.325811,-0.103644 0.62814,-0.103644 z m 6.173993,0 h 0.372172 v 0.08324 c 0,0.244032 -0.06299,0.43985 -0.189071,0.587625 -0.124726,0.146419 -0.290686,0.219851 -0.498113,0.219849 -0.150489,2e-6 -0.269918,-0.03861 -0.358043,-0.115892 -0.08677,-0.07863 -0.130023,-0.184662 -0.130023,-0.317525 0,-0.166754 0.05834,-0.2845 0.174936,-0.353642 0.116595,-0.06915 0.325811,-0.103644 0.628142,-0.103644 z m 17.228949,0 h 0.371859 v 0.08324 c 0,0.244032 -0.06298,0.43985 -0.18907,0.587625 -0.124728,0.146419 -0.290688,0.219851 -0.498116,0.219849 -0.150487,2e-6 -0.269917,-0.03861 -0.35804,-0.115892 -0.08677,-0.07863 -0.130026,-0.184662 -0.130025,-0.317525 0,-0.166754 0.05834,-0.2845 0.174937,-0.353642 0.116593,-0.06915 0.326125,-0.103644 0.628455,-0.103644 z m 32.155138,0 h 0.372169 v 0.08324 c 0,0.244032 -0.06298,0.43985 -0.189068,0.587625 -0.124732,0.146419 -0.290687,0.219851 -0.498117,0.219849 -0.150489,2e-6 -0.26992,-0.03861 -0.358039,-0.115892 -0.08676,-0.07863 -0.130026,-0.184662 -0.130026,-0.317525 0,-0.166754 0.05804,-0.2845 0.174623,-0.353642 0.116594,-0.06915 0.326126,-0.103644 0.628458,-0.103644 z m 20.840441,0 h 0.372178 v 0.08324 c 0,0.244032 -0.063,0.43985 -0.189084,0.587625 -0.124723,0.146419 -0.290999,0.219851 -0.498418,0.219849 -0.150487,2e-6 -0.269604,-0.03861 -0.357727,-0.115892 -0.08676,-0.07863 -0.130338,-0.184662 -0.130338,-0.317525 0,-0.166754 0.05835,-0.2845 0.174934,-0.353642 0.11659,-0.06915 0.326123,-0.103644 0.628455,-0.103644 z m 13.324116,0 h 0.37216 v 0.08324 c 0,0.244032 -0.063,0.43985 -0.18906,0.587625 -0.12473,0.146419 -0.29069,0.219851 -0.49811,0.219849 -0.15049,2e-6 -0.26991,-0.03861 -0.35805,-0.115892 -0.0868,-0.07863 -0.13003,-0.184662 -0.13003,-0.317525 0,-0.166754 0.0581,-0.2845 0.17463,-0.353642 0.11659,-0.06915 0.32612,-0.103644 0.62846,-0.103644 z"
     id="path8312" />
</svg>
