<?xml version="1.0" encoding="UTF-8" standalone="no"?>
<svg
   xmlns:dc="http://purl.org/dc/elements/1.1/"
   xmlns:cc="http://creativecommons.org/ns#"
   xmlns:rdf="http://www.w3.org/1999/02/22-rdf-syntax-ns#"
   xmlns:svg="http://www.w3.org/2000/svg"
   xmlns="http://www.w3.org/2000/svg"
   id="svg6591"
   version="1.1"
   viewBox="0 0 168.41617 26.916733"
   height="101.73254"
   width="636.53357">
  <metadata
     id="metadata8141">
    <rdf:RDF>
      <cc:Work
         rdf:about="">
        <dc:format>image/svg+xml</dc:format>
        <dc:type
           rdf:resource="http://purl.org/dc/dcmitype/StillImage" />
        <dc:title></dc:title>
      </cc:Work>
    </rdf:RDF>
  </metadata>
  <defs
     id="defs6585">
    <filter
       style="color-interpolation-filters:sRGB"
       id="filter892">
      <feGaussianBlur
         stdDeviation="0.5 0.5"
         result="blur"
         id="feGaussianBlur890" />
    </filter>
  </defs>
  <path
     style="fill:#00ffff;stroke:#00ffff;stroke-width:0.529167;stroke-linecap:round;stroke-linejoin:bevel;stroke-miterlimit:4;stroke-dasharray:none;paint-order:stroke fill markers;filter:url(#filter892)"
     d="m 44.430363,1.3229166 c -1.389613,0 -2.481189,0.323371 -3.275254,0.9699666 -0.788392,0.6465953 -1.182872,1.5315841 -1.182872,2.6546183 0,0.9698931 0.286517,1.7271946 0.85938,2.2716959 0.57286,0.544502 1.500412,0.9441761 2.782257,1.1994101 l 1.046449,0.204122 c 0.873471,0.1758279 1.499973,0.4395089 1.879988,0.791166 0.385689,0.351657 0.578776,0.8395695 0.578776,1.4634765 0,0.714659 -0.266792,1.264857 -0.799951,1.650546 -0.533157,0.385688 -1.289942,0.578259 -2.271178,0.578259 -0.646597,0 -1.304759,-0.09914 -1.974041,-0.297656 -0.669282,-0.198516 -1.352878,-0.493341 -2.050521,-0.884701 v 1.769401 c 0.726004,0.26658 1.426726,0.467973 2.101681,0.604098 0.680628,0.136125 1.32166,0.204638 1.922881,0.204638 1.593799,0 2.801643,-0.317661 3.624066,-0.952913 0.828099,-0.635251 1.242304,-1.568512 1.242304,-2.799312 0,-1.0322846 -0.306245,-1.8544696 -0.918808,-2.4670335 C 47.388626,7.6644624 46.443948,7.2331284 45.162102,6.9892374 L 44.124438,6.776847 C 43.182905,6.6010185 42.541873,6.371078 42.201558,6.0874836 41.866918,5.7982171 41.699781,5.3725927 41.699781,4.8110758 c 0,-0.6692832 0.252261,-1.1852249 0.75706,-1.5482261 0.510468,-0.3630009 1.233516,-0.5446695 2.169374,-0.5446695 0.538832,0 1.097336,0.076819 1.675868,0.2299601 0.578533,0.1531411 1.194134,0.3856781 1.846398,0.6976319 V 1.9699055 C 47.501889,1.7543736 46.869675,1.5924296 46.251439,1.4846638 45.633203,1.3768979 45.025911,1.3229166 44.430363,1.3229166 Z M 1.4552081,1.6050697 V 14.307137 H 3.1734495 V 8.2408404 h 5.036902 V 6.7949339 H 3.1734495 V 3.0514932 h 5.581571 V 1.6050697 Z m 8.9823969,0 V 14.307137 h 7.903911 V 12.860714 H 12.156364 V 1.6050697 Z m 9.011337,0 V 14.307137 h 8.184515 V 12.860714 H 21.167183 V 8.2578934 h 6.049243 V 6.8119871 h -6.049243 v -3.760494 h 6.31331 V 1.6050697 Z m 10.364226,0 V 14.307137 h 1.718757 V 8.1901974 l 6.099887,6.1169396 H 39.89524 L 33.140097,7.5261554 39.444105,1.6050697 H 37.232352 L 31.531925,6.9732176 V 1.6050697 Z"
     id="path11" />
  <path
     style="fill:#ffffff;stroke-width:0.264583"
     d="m 44.430363,1.3229166 c -1.389613,0 -2.481189,0.323371 -3.275254,0.9699666 -0.788392,0.6465953 -1.182872,1.5315841 -1.182872,2.6546183 0,0.9698931 0.286517,1.7271946 0.85938,2.2716959 0.57286,0.544502 1.500412,0.9441761 2.782257,1.1994101 l 1.046449,0.204122 c 0.873471,0.1758279 1.499973,0.4395089 1.879988,0.791166 0.385689,0.351657 0.578776,0.8395695 0.578776,1.4634765 0,0.714659 -0.266792,1.264857 -0.799951,1.650546 -0.533157,0.385688 -1.289942,0.578259 -2.271178,0.578259 -0.646597,0 -1.304759,-0.09914 -1.974041,-0.297656 -0.669282,-0.198516 -1.352878,-0.493341 -2.050521,-0.884701 v 1.769401 c 0.726004,0.26658 1.426726,0.467973 2.101681,0.604098 0.680628,0.136125 1.32166,0.204638 1.922881,0.204638 1.593799,0 2.801643,-0.317661 3.624066,-0.952913 0.828099,-0.635251 1.242304,-1.568512 1.242304,-2.799312 0,-1.0322846 -0.306245,-1.8544696 -0.918808,-2.4670335 C 47.388626,7.6644624 46.443948,7.2331284 45.162102,6.9892374 L 44.124438,6.776847 C 43.182905,6.6010185 42.541873,6.371078 42.201558,6.0874836 41.866918,5.7982171 41.699781,5.3725927 41.699781,4.8110758 c 0,-0.6692832 0.252261,-1.1852249 0.75706,-1.5482261 0.510468,-0.3630009 1.233516,-0.5446695 2.169374,-0.5446695 0.538832,0 1.097336,0.076819 1.675868,0.2299601 0.578533,0.1531411 1.194134,0.3856781 1.846398,0.6976319 V 1.9699055 C 47.501889,1.7543736 46.869675,1.5924296 46.251439,1.4846638 45.633203,1.3768979 45.025911,1.3229166 44.430363,1.3229166 Z M 1.4552081,1.6050697 V 14.307137 H 3.1734495 V 8.2408404 h 5.036902 V 6.7949339 H 3.1734495 V 3.0514932 h 5.581571 V 1.6050697 Z m 8.9823969,0 V 14.307137 h 7.903911 V 12.860714 H 12.156364 V 1.6050697 Z m 9.011337,0 V 14.307137 h 8.184515 V 12.860714 H 21.167183 V 8.2578934 h 6.049243 V 6.8119871 h -6.049243 v -3.760494 h 6.31331 V 1.6050697 Z m 10.364226,0 V 14.307137 h 1.718757 V 8.1901974 l 6.099887,6.1169396 H 39.89524 L 33.140097,7.5261554 39.444105,1.6050697 H 37.232352 L 31.531925,6.9732176 V 1.6050697 Z"
     id="path7955" />
  <path
     id="path8312"
     d="m 17.897122,19.822685 v 1.724205 c -0.110008,-0.189675 -0.249501,-0.330342 -0.418309,-0.421385 -0.166914,-0.09294 -0.368101,-0.139288 -0.603298,-0.139288 -0.385037,0 -0.698849,0.153656 -0.941634,0.460927 -0.240887,0.307274 -0.361186,0.711127 -0.361186,1.211867 0,0.50074 0.120289,0.905032 0.361186,1.212305 0.242785,0.307273 0.556597,0.460931 0.941634,0.460931 0.235197,0 0.436384,-0.04561 0.603298,-0.136646 0.168808,-0.09294 0.308297,-0.234346 0.418309,-0.424021 v 0.478067 h 0.523325 v -4.426954 z m 1.601611,0 v 0.663053 H 20.0225 v -0.663053 z m 12.336598,0 v 0.663053 h 0.523325 v -0.663053 z m 29.29305,0 v 4.426955 h 0.523763 v -4.426955 z m 8.151308,0 c -0.358482,0 -0.62019,0.08162 -0.785206,0.244745 -0.165017,0.161223 -0.247383,0.419094 -0.247383,0.773783 v 0.221898 h -0.500913 v 0.406884 H 68.2471 v 2.779645 h 0.526402 v -2.779645 h 0.862102 v -0.406884 h -0.862102 v -0.281656 c 0,-0.19726 0.03601,-0.33365 0.10809,-0.409521 0.07397,-0.07587 0.204607,-0.113798 0.392387,-0.113798 h 0.500917 v -0.435444 z m 23.258773,0 v 4.426955 h 0.523762 v -4.426955 z m 13.577028,0 v 4.426955 h 0.52332 v -4.426955 z m 7.01325,0 v 4.426955 h 0.52641 v -1.801102 c 0,-0.311064 0.0816,-0.556682 0.24474,-0.736874 0.16312,-0.180189 0.38572,-0.27023 0.66833,-0.27023 0.2352,0 0.41188,0.07513 0.52948,0.224973 0.11761,0.149843 0.1762,0.375535 0.1762,0.677116 v 1.906117 h 0.52377 v -1.923252 c 0,-0.440046 -0.0943,-0.773045 -0.2821,-0.998759 -0.18779,-0.227609 -0.4644,-0.341412 -0.83047,-0.341412 -0.22191,0 -0.41853,0.04752 -0.58923,0.142366 -0.16881,0.09483 -0.31554,0.238159 -0.44072,0.429731 v -1.735629 z m 27.93881,0 v 1.724205 c -0.1101,-0.189675 -0.24905,-0.330342 -0.41787,-0.421385 -0.16691,-0.09294 -0.36809,-0.139288 -0.60328,-0.139288 -0.38502,0 -0.69885,0.153656 -0.94164,0.460927 -0.2409,0.307274 -0.36163,0.711127 -0.36163,1.211867 0,0.50074 0.12073,0.905032 0.36163,1.212305 0.24279,0.307273 0.55662,0.460931 0.94164,0.460931 0.23519,0 0.43637,-0.04561 0.60328,-0.136646 0.16882,-0.09294 0.30787,-0.234346 0.41787,-0.424021 v 0.478067 h 0.52379 v -4.426954 z m 18.34278,0 v 0.663053 h 0.52331 V 19.822685 Z M 2.9460927,19.925064 c -0.4647023,0 -0.8298806,0.108035 -1.0954246,0.324277 -0.2636474,0.216228 -0.39546,0.512034 -0.39546,0.88759 0,0.324341 0.095796,0.577635 0.2873676,0.759722 0.1915711,0.182087 0.5015459,0.315818 0.93021,0.401172 l 0.3497624,0.06853 c 0.2920985,0.05879 0.5016998,0.146922 0.6287814,0.264522 0.1289786,0.117605 0.1937756,0.280407 0.1937756,0.489049 0,0.23899 -0.0893,0.423349 -0.2675947,0.552329 -0.1782937,0.128978 -0.4315861,0.193334 -0.7597225,0.193334 -0.2162291,0 -0.4361635,-0.03337 -0.6599792,-0.09974 -0.2238155,-0.06638 -0.4521645,-0.164836 -0.685464,-0.295713 v 0.591874 c 0.2427831,0.08914 0.4768883,0.156165 0.7026005,0.201683 0.2276094,0.04553 0.4417876,0.06854 0.6428427,0.06854 0.5329847,0 0.9372771,-0.106132 1.2123047,-0.318564 0.2769245,-0.212433 0.4152332,-0.524769 0.4152332,-0.936362 0,-0.345207 -0.1022931,-0.619906 -0.3071406,-0.824755 C 3.9352335,22.045817 3.6195026,21.901312 3.1908381,21.819753 L 2.8437122,21.748567 C 2.5288531,21.689772 2.314235,21.613159 2.2004306,21.518321 2.0885238,21.421582 2.0325798,21.279441 2.0325798,21.091665 c 0,-0.223817 0.084284,-0.396662 0.2530944,-0.518052 0.170707,-0.121396 0.4129261,-0.181913 0.7258889,-0.181913 0.1801908,0 0.3667673,0.02568 0.5602352,0.07689 0.193468,0.05121 0.3992319,0.128992 0.6173572,0.233323 V 20.14125 C 3.9729265,20.069169 3.7614069,20.015154 3.5546619,19.979113 3.3479166,19.943072 3.1452506,19.925057 2.9460927,19.925057 Z m 39.6549823,0.0769 v 3.951963 c 0,0.367967 -0.0521,0.62274 -0.156428,0.764996 -0.104328,0.142256 -0.28366,0.213549 -0.537825,0.213549 h -0.179276 v 0.483779 h 0.219261 c 0.430562,0 0.742455,-0.11573 0.935923,-0.347128 0.195364,-0.231402 0.293079,-0.603075 0.293079,-1.115196 v -3.951963 z m 29.486822,0 v 4.247678 h 0.574734 v -4.247678 z m 36.932453,0 v 0.483778 h 1.50803 v 3.7639 h 0.57737 v -3.763903 h 1.50802 v -0.483775 z m 35.52683,0 v 4.247678 h 0.57475 v -1.707067 h 0.72279 c 0.47608,0 0.83551,-0.107307 1.07828,-0.321642 0.24468,-0.21433 0.3669,-0.530803 0.3669,-0.949982 0,-0.415387 -0.12227,-0.73038 -0.3669,-0.944712 -0.24277,-0.216228 -0.6022,-0.324275 -1.07828,-0.324275 z m -67.073554,0.156427 v 0.904724 H 77.08959 v 0.406884 h 0.384036 v 1.729919 c 0,0.398313 0.07705,0.673013 0.230685,0.824752 0.153637,0.149844 0.432172,0.224972 0.836178,0.224972 h 0.537823 v -0.43808 h -0.537823 c -0.218128,0 -0.362931,-0.0372 -0.435007,-0.111155 -0.07017,-0.07397 -0.10546,-0.240625 -0.10546,-0.500477 v -1.729918 h 1.078288 v -0.406885 h -1.078288 v -0.904723 z m 16.672591,0 v 0.904724 h -0.384034 v 0.406884 h 0.384034 v 1.729919 c 0,0.398313 0.07661,0.673013 0.230252,0.824752 0.153638,0.149844 0.43261,0.224972 0.836618,0.224972 h 0.537826 v -0.438081 h -0.537826 c -0.218125,0 -0.363371,-0.0372 -0.435451,-0.111155 -0.07015,-0.07397 -0.105013,-0.240625 -0.105013,-0.500477 v -1.729916 h 1.078287 v -0.40688 H 94.672623 V 20.15841 Z m 62.967803,0 v 0.904724 h -0.38403 v 0.406884 h 0.38403 v 1.729919 c 0,0.398313 0.077,0.673013 0.23068,0.824752 0.15364,0.149844 0.43262,0.224972 0.83663,0.224972 h 0.53738 v -0.438081 h -0.53738 c -0.21814,0 -0.36339,-0.0372 -0.43545,-0.111155 -0.0703,-0.07397 -0.10536,-0.240625 -0.10536,-0.500477 v -1.729918 h 1.0783 v -0.406885 h -1.0783 v -0.904723 z m -11.99209,0.315926 h 0.72279 c 0.26744,0 0.47439,0.06894 0.62043,0.207399 0.14604,0.138463 0.21881,0.33507 0.21881,0.589235 0,0.256061 -0.0728,0.45297 -0.21881,0.591432 -0.14604,0.138464 -0.35299,0.207838 -0.62043,0.207838 h -0.72279 z m -138.4290728,0.5119 c -0.4969467,0 -0.8885475,0.14908 -1.1749557,0.446868 -0.2845116,0.29779 -0.4266577,0.70622 -0.4266577,1.225926 0,0.512123 0.1414065,0.919071 0.4240211,1.220653 0.2826149,0.301584 0.6638827,0.452583 1.1437583,0.452583 0.1763978,0 0.3423076,-0.01726 0.4978402,-0.05141 0.1574298,-0.03413 0.3091695,-0.08506 0.4552189,-0.153354 v -0.48378 c -0.1479466,0.08157 -0.2970271,0.143261 -0.4468698,0.184988 -0.1479464,0.03984 -0.2977668,0.05975 -0.4495064,0.05975 -0.3395169,0 -0.6031423,-0.107307 -0.7909204,-0.321641 -0.1877775,-0.216227 -0.2816554,-0.518967 -0.2816554,-0.9078 0,-0.388832 0.093878,-0.690393 0.2816554,-0.904724 C 6.1125638,21.538046 6.3761892,21.43 6.7157061,21.43 c 0.1517396,0 0.30156,0.02111 0.4495064,0.06283 0.1498427,0.03984 0.2989232,0.100353 0.4468698,0.181909 v -0.489474 c -0.1441526,-0.06639 -0.2932341,-0.115394 -0.4468698,-0.147641 -0.1536364,-0.03414 -0.3111326,-0.0514 -0.4723553,-0.0514 z m 2.9532078,0 c -0.1707066,0 -0.3462091,0.01921 -0.5264003,0.05713 -0.18019,0.03604 -0.3660285,0.0908 -0.5575992,0.164775 v 0.483779 C 8.7213918,21.604661 8.8873022,21.539113 9.0599056,21.49549 9.2325098,21.45186 9.4099304,21.43 9.5920182,21.43 c 0.2864095,0 0.5082628,0.06672 0.6656918,0.199489 0.159327,0.130867 0.239034,0.316712 0.239034,0.557598 v 0.05097 H 9.7629459 c -0.4760829,0 -0.8347649,0.09123 -1.0756513,0.273309 -0.2389895,0.182087 -0.3585506,0.452208 -0.3585506,0.810695 0,0.307271 0.095797,0.552887 0.2873683,0.736873 0.1934677,0.182085 0.4532545,0.273305 0.7794946,0.273305 0.2579585,0 0.4764132,-0.04561 0.6547071,-0.136646 0.178292,-0.09294 0.326937,-0.236264 0.44643,-0.429733 v 0.48378 h 0.523763 v -1.818238 c 0,-0.485565 -0.113798,-0.847644 -0.341413,-1.086635 -0.227608,-0.23899 -0.572119,-0.35855 -1.033029,-0.35855 z m 3.99195,0 c -0.221917,0 -0.418526,0.04752 -0.589234,0.142366 -0.16881,0.09483 -0.315535,0.238159 -0.440719,0.429731 v -0.495203 h -0.5264 v 3.186529 h 0.5264 v -1.801102 c 0,-0.311064 0.08162,-0.556682 0.244745,-0.736874 0.163121,-0.180189 0.385716,-0.27023 0.66833,-0.27023 0.235196,0 0.411879,0.07513 0.529476,0.224973 0.11759,0.149843 0.1762,0.375535 0.1762,0.677116 v 1.906117 h 0.523324 v -1.923252 c 0,-0.440046 -0.09387,-0.773045 -0.281653,-0.998759 -0.18778,-0.227609 -0.464395,-0.341412 -0.830469,-0.341412 z m 9.013413,0 c -0.221916,0 -0.418528,0.04752 -0.589233,0.142366 -0.16881,0.09483 -0.315534,0.238159 -0.440719,0.429731 v -0.495203 h -0.526401 v 3.186529 h 0.526401 v -1.801102 c 0,-0.311064 0.08118,-0.556682 0.244307,-0.736874 0.163118,-0.180189 0.386154,-0.27023 0.668767,-0.27023 0.235196,0 0.411438,0.07513 0.52904,0.224973 0.117603,0.149843 0.176638,0.375535 0.176638,0.677116 v 1.906117 h 0.523322 v -1.923252 c 0,-0.440046 -0.09387,-0.773045 -0.281653,-0.998759 -0.18778,-0.227609 -0.464396,-0.341412 -0.830469,-0.341412 z m 3.280123,0 c -0.170706,0 -0.34621,0.01921 -0.526399,0.05713 -0.180194,0.03604 -0.366029,0.0908 -0.557599,0.164775 v 0.483779 c 0.159327,-0.08724 0.325235,-0.152788 0.497839,-0.196411 0.172603,-0.04363 0.350025,-0.06549 0.532114,-0.06549 0.28641,0 0.508262,0.06672 0.665691,0.199489 0.159326,0.130867 0.239034,0.316712 0.239034,0.557598 v 0.05097 h -0.733802 c -0.476079,0 -0.834761,0.09123 -1.075648,0.273309 -0.238989,0.182087 -0.358552,0.452208 -0.358552,0.810695 0,0.307271 0.09578,0.552887 0.28737,0.736873 0.193469,0.182085 0.453255,0.273305 0.779495,0.273305 0.257958,0 0.476411,-0.04561 0.654706,-0.136646 0.178295,-0.09294 0.326936,-0.236264 0.446431,-0.429733 v 0.48378 h 0.523765 v -1.818238 c 0,-0.485565 -0.1138,-0.847644 -0.341414,-1.086635 -0.227608,-0.238992 -0.572121,-0.358551 -1.033031,-0.358551 z m 8.637728,0 c -0.170708,0 -0.34621,0.01921 -0.526402,0.05713 -0.180189,0.03604 -0.366027,0.0908 -0.557599,0.164775 v 0.483779 c 0.159329,-0.08724 0.325238,-0.152788 0.497841,-0.196411 0.172604,-0.04363 0.350026,-0.06549 0.532115,-0.06549 0.286408,0 0.508261,0.06672 0.66569,0.199489 0.159329,0.130867 0.239034,0.316712 0.239034,0.557598 v 0.05097 h -0.733799 c -0.47608,0 -0.834766,0.09123 -1.075649,0.273309 -0.238991,0.182087 -0.358553,0.452208 -0.358553,0.810695 0,0.307271 0.09577,0.552887 0.28737,0.736873 0.193467,0.182085 0.453254,0.273305 0.779494,0.273305 0.257957,0 0.476415,-0.04561 0.654706,-0.136646 0.178293,-0.09294 0.326936,-0.236264 0.446431,-0.429733 v 0.48378 h 0.523764 v -1.818238 c 0,-0.485565 -0.1138,-0.847644 -0.341413,-1.086635 -0.227611,-0.238991 -0.572122,-0.358551 -1.03303,-0.358551 z m 3.991949,0 c -0.221917,0 -0.418527,0.04752 -0.589234,0.142366 -0.16881,0.09483 -0.315535,0.238159 -0.440719,0.429731 v -0.495203 h -0.526399 v 3.186529 h 0.526399 v -1.801102 c 0,-0.311064 0.08162,-0.556682 0.244746,-0.736874 0.163118,-0.180189 0.385715,-0.27023 0.668327,-0.27023 0.235199,0 0.411882,0.07513 0.529478,0.224973 0.117605,0.149843 0.1762,0.375535 0.1762,0.677116 v 1.906117 h 0.523324 v -1.923252 c 0,-0.440046 -0.09387,-0.773045 -0.281654,-0.998759 -0.187779,-0.227609 -0.464394,-0.341412 -0.830468,-0.341412 z m 6.970206,0 c -0.457117,0 -0.815362,0.1479 -1.075214,0.443793 -0.257956,0.295891 -0.387109,0.705499 -0.387109,1.229001 0,0.521604 0.129147,0.931654 0.387109,1.229442 0.259852,0.295891 0.618097,0.443794 1.075214,0.443794 0.455217,0 0.813159,-0.147903 1.073014,-0.443794 0.259854,-0.297788 0.389748,-0.707838 0.389748,-1.229442 0,-0.523502 -0.129887,-0.93311 -0.389748,-1.229001 -0.259855,-0.295893 -0.617797,-0.443793 -1.073014,-0.443793 z m 7.605137,0 c -0.252268,0 -0.466447,0.04752 -0.642843,0.142366 -0.176395,0.09294 -0.319721,0.236264 -0.429732,0.429731 v -0.495203 h -0.526403 v 3.186529 h 0.526403 v -1.678506 c 0,-0.360384 0.07851,-0.636261 0.235956,-0.827833 0.159328,-0.193467 0.386938,-0.290443 0.68283,-0.290443 0.08345,0 0.159323,0.0084 0.227609,0.02549 0.07017,0.01518 0.134979,0.04012 0.193775,0.07425 l -0.0031,-0.537825 c -0.05311,-0.0094 -0.101377,-0.01597 -0.145,-0.01976 -0.04363,-0.0056 -0.08348,-0.0089 -0.119522,-0.0089 z m 2.25632,0 c -0.221921,0 -0.418529,0.04752 -0.589237,0.142366 -0.16881,0.09483 -0.315533,0.238159 -0.440716,0.429731 v -0.495203 h -0.526404 v 3.186529 h 0.526404 v -1.801102 c 0,-0.311064 0.08162,-0.556682 0.244747,-0.736874 0.163118,-0.180189 0.385711,-0.27023 0.668327,-0.27023 0.235193,0 0.411877,0.07513 0.529472,0.224973 0.117605,0.149843 0.176202,0.375535 0.176202,0.677116 v 1.906117 h 0.523765 v -1.923252 c 0,-0.440046 -0.09432,-0.773045 -0.282094,-0.998759 -0.187778,-0.227609 -0.464396,-0.341412 -0.830466,-0.341412 z m 3.280122,0 c -0.17071,0 -0.345773,0.01921 -0.52596,0.05713 -0.180192,0.03604 -0.36647,0.0908 -0.558041,0.164775 v 0.483779 c 0.159326,-0.08724 0.325675,-0.152788 0.498281,-0.196411 0.172603,-0.04363 0.349585,-0.06549 0.531672,-0.06549 0.286408,0 0.508702,0.06672 0.666131,0.199489 0.159326,0.130867 0.238595,0.316712 0.238595,0.557598 v 0.05097 h -0.733799 c -0.476081,0 -0.834764,0.09123 -1.075651,0.273309 -0.238987,0.182087 -0.358111,0.452208 -0.358111,0.810695 0,0.307271 0.0958,0.552887 0.287368,0.736873 0.193467,0.182085 0.453253,0.273305 0.779496,0.273305 0.25796,0 0.475972,-0.04561 0.654264,-0.136646 0.178297,-0.09294 0.326938,-0.236264 0.446433,-0.429733 v 0.48378 h 0.523762 v -1.818238 c 0,-0.485565 -0.113798,-0.847644 -0.341412,-1.086635 -0.227608,-0.238992 -0.57212,-0.358551 -1.033028,-0.358551 z m 7.161342,0 c -0.457116,0 -0.815357,0.1479 -1.075213,0.443793 -0.257955,0.295891 -0.387112,0.705499 -0.387112,1.229001 0,0.521604 0.129161,0.931654 0.387112,1.229442 0.259856,0.295891 0.618097,0.443794 1.075213,0.443794 0.45522,0 0.812722,-0.147903 1.072576,-0.443794 0.259852,-0.297788 0.389746,-0.707838 0.389746,-1.229442 0,-0.523502 -0.129887,-0.93311 -0.389746,-1.229001 -0.259854,-0.295893 -0.617356,-0.443793 -1.072576,-0.443793 z m 9.485769,0 c -0.221917,0 -0.418528,0.04752 -0.589236,0.142366 -0.168811,0.09483 -0.315533,0.238159 -0.440717,0.429731 v -0.495203 h -0.526403 v 3.186529 h 0.526403 v -1.801102 c 0,-0.311064 0.08164,-0.556682 0.244746,-0.736874 0.163121,-0.180189 0.385711,-0.27023 0.668327,-0.27023 0.235197,0 0.411881,0.07513 0.52948,0.224973 0.11759,0.149843 0.176196,0.375535 0.176196,0.677116 v 1.906117 h 0.523325 v -1.923252 c 0,-0.440046 -0.09387,-0.773045 -0.281654,-0.998759 -0.187779,-0.227609 -0.464395,-0.341412 -0.830467,-0.341412 z m 5.783826,0 c -0.477981,0 -0.85807,0.153656 -1.140686,0.460927 -0.280714,0.305378 -0.420944,0.718824 -0.420944,1.240428 0,0.504536 0.147902,0.90499 0.443795,1.200881 0.297788,0.295891 0.700902,0.443794 1.209228,0.443794 0.202953,0 0.402959,-0.02111 0.60022,-0.06283 0.197263,-0.04174 0.389593,-0.102256 0.577374,-0.18191 v -0.495205 c -0.185884,0.09863 -0.37364,0.17258 -0.56331,0.221898 -0.18778,0.04933 -0.382032,0.07425 -0.583087,0.07425 -0.347103,0 -0.618405,-0.09388 -0.81377,-0.281656 C 80.219301,23.41712 80.111252,23.141982 80.088495,22.7816 h 2.407031 v -0.256169 c 0,-0.474188 -0.125312,-0.84852 -0.375686,-1.123547 -0.248474,-0.276922 -0.587228,-0.415672 -1.01589,-0.415672 z m 3.829806,0 c -0.252265,0 -0.466878,0.04752 -0.643278,0.142366 -0.176395,0.09294 -0.319286,0.236264 -0.429297,0.429731 v -0.495203 h -0.526397 v 3.186529 h 0.526397 v -1.678506 c 0,-0.360384 0.07857,-0.636261 0.235956,-0.827833 0.159328,-0.193467 0.386942,-0.290443 0.682834,-0.290443 0.0834,0 0.159321,0.0084 0.227608,0.02549 0.07016,0.01518 0.134533,0.04012 0.193337,0.07425 l -0.0025,-0.537825 c -0.05306,-0.0094 -0.101346,-0.01597 -0.144999,-0.01976 -0.04362,-0.0056 -0.08351,-0.0089 -0.119521,-0.0089 z m 2.071334,0 c -0.496952,0 -0.888989,0.14908 -1.17539,0.446868 -0.284517,0.29779 -0.426661,0.70622 -0.426661,1.225926 0,0.512123 0.141403,0.919071 0.424024,1.220653 0.282612,0.301584 0.663882,0.452583 1.143753,0.452583 0.176402,0 0.342317,-0.01726 0.497844,-0.05141 0.157423,-0.03413 0.309166,-0.08506 0.455221,-0.153354 v -0.48378 c -0.147951,0.08157 -0.297032,0.143261 -0.446871,0.184988 -0.14795,0.03984 -0.297773,0.05975 -0.449505,0.05975 -0.339521,0 -0.603145,-0.107307 -0.790926,-0.321641 -0.187776,-0.216227 -0.281651,-0.518967 -0.281651,-0.9078 0,-0.388832 0.09387,-0.690393 0.281651,-0.904724 C 86.42436,21.538046 86.687984,21.43 87.027505,21.43 c 0.151732,0 0.301555,0.02111 0.449505,0.06283 0.149839,0.03984 0.29892,0.100353 0.446871,0.181909 v -0.489478 c -0.144159,-0.06638 -0.293241,-0.115393 -0.446871,-0.14764 -0.153639,-0.03413 -0.310695,-0.05141 -0.47192,-0.05141 z m 14.71465,0 c -0.25227,0 -0.46646,0.04752 -0.64285,0.142366 -0.1764,0.09294 -0.31973,0.236264 -0.42975,0.429731 v -0.495203 h -0.5264 v 3.186529 h 0.5264 v -1.678506 c 0,-0.360384 0.079,-0.636261 0.2364,-0.827833 0.15932,-0.193467 0.38693,-0.290443 0.68284,-0.290443 0.0835,0 0.15932,0.0084 0.2276,0.02549 0.0702,0.01518 0.13453,0.04012 0.19334,0.07425 l -0.004,-0.537825 c -0.053,-0.0094 -0.10134,-0.01597 -0.145,-0.01976 -0.0436,-0.0056 -0.0836,-0.0089 -0.11952,-0.0089 z m 1.94038,0 c -0.17071,0 -0.34621,0.01921 -0.52641,0.05713 -0.18019,0.03604 -0.36602,0.0908 -0.55759,0.164775 v 0.483779 c 0.15932,-0.08724 0.32524,-0.152788 0.49784,-0.196411 0.1726,-0.04363 0.35003,-0.06549 0.5321,-0.06549 0.28642,0 0.50827,0.06672 0.6657,0.199489 0.15932,0.130867 0.23904,0.316712 0.23904,0.557598 v 0.05097 h -0.7338 c -0.47608,0 -0.83477,0.09123 -1.07566,0.273309 -0.23899,0.182087 -0.35855,0.452208 -0.35855,0.810695 0,0.307271 0.0957,0.552887 0.28738,0.736873 0.19346,0.182085 0.45324,0.273305 0.77949,0.273305 0.25795,0 0.4764,-0.04561 0.6547,-0.136646 0.17831,-0.09294 0.32694,-0.236264 0.44644,-0.429733 v 0.48378 h 0.52375 v -1.818238 c 0,-0.485565 -0.11379,-0.847644 -0.34141,-1.086635 -0.2276,-0.238991 -0.57211,-0.358551 -1.03302,-0.358551 z m 14.52173,0 c -0.47797,0 -0.85851,0.153656 -1.14113,0.460927 -0.28071,0.305378 -0.42094,0.718824 -0.42094,1.240428 0,0.504536 0.14791,0.90499 0.44379,1.200881 0.29781,0.295891 0.7009,0.443794 1.20923,0.443794 0.20296,0 0.40296,-0.02111 0.60023,-0.06283 0.19725,-0.04174 0.38959,-0.102256 0.57737,-0.18191 v -0.495205 c -0.18589,0.09863 -0.37365,0.17258 -0.56331,0.221898 -0.18778,0.04933 -0.38203,0.07425 -0.58308,0.07425 -0.34712,0 -0.61842,-0.09388 -0.81378,-0.281656 -0.19343,-0.189674 -0.30148,-0.464812 -0.32427,-0.825194 h 2.40703 v -0.256169 c 0,-0.474188 -0.12533,-0.84852 -0.3757,-1.123547 -0.24846,-0.276922 -0.58677,-0.415672 -1.01544,-0.415672 z m 3.48488,0 c -0.45711,0 -0.81537,0.1479 -1.07521,0.443793 -0.25796,0.295891 -0.38711,0.705499 -0.38711,1.229001 0,0.521604 0.12914,0.931654 0.38711,1.229442 0.25984,0.295891 0.6181,0.443794 1.07521,0.443794 0.4552,0 0.81316,-0.147903 1.07301,-0.443794 0.25986,-0.297788 0.38976,-0.707838 0.38976,-1.229442 0,-0.523502 -0.1299,-0.93311 -0.38976,-1.229001 -0.25985,-0.295893 -0.61781,-0.443793 -1.07301,-0.443793 z m 3.9067,0 c -0.25226,0 -0.46687,0.04752 -0.64327,0.142366 -0.1764,0.09294 -0.3193,0.236264 -0.42929,0.429731 v -0.495203 h -0.52641 v 3.186529 h 0.52641 v -1.678506 c 0,-0.360384 0.0785,-0.636261 0.23594,-0.827833 0.15934,-0.193467 0.38694,-0.290443 0.68283,-0.290443 0.0836,0 0.15933,0.0084 0.22761,0.02549 0.0702,0.01518 0.13455,0.04012 0.19333,0.07425 l -0.003,-0.537825 c -0.0531,-0.0094 -0.10139,-0.01597 -0.14502,-0.01976 -0.0436,-0.0056 -0.0835,-0.0089 -0.11949,-0.0089 z m 7.24352,0 c -0.1707,0 -0.3462,0.01921 -0.52641,0.05713 -0.18018,0.03604 -0.36602,0.0908 -0.5576,0.164775 v 0.483779 c 0.15933,-0.08724 0.32524,-0.152788 0.49785,-0.196411 0.17261,-0.04363 0.35002,-0.06549 0.53212,-0.06549 0.28641,0 0.50824,0.06672 0.66569,0.199489 0.15931,0.130867 0.23904,0.316712 0.23904,0.557598 v 0.05097 h -0.73425 c -0.47608,0 -0.83434,0.09123 -1.07521,0.273309 -0.23901,0.182087 -0.35855,0.452208 -0.35855,0.810695 0,0.307271 0.0958,0.552887 0.28736,0.736873 0.19346,0.182085 0.45326,0.273305 0.7795,0.273305 0.25797,0 0.47599,-0.04561 0.65427,-0.136646 0.17829,-0.09294 0.32737,-0.236264 0.44688,-0.429733 v 0.48378 h 0.52331 v -1.818238 c 0,-0.485565 -0.11382,-0.847644 -0.34142,-1.086635 -0.2276,-0.238991 -0.57167,-0.358551 -1.03258,-0.358551 z m 3.99152,0 c -0.22192,0 -0.41811,0.04752 -0.5888,0.142366 -0.16883,0.09483 -0.31597,0.238159 -0.44116,0.429731 v -0.495203 h -0.52598 v 3.186529 h 0.52598 v -1.801102 c 0,-0.311064 0.0817,-0.556682 0.24474,-0.736874 0.16312,-0.180189 0.38617,-0.27023 0.66874,-0.27023 0.23523,0 0.41148,0.07513 0.52907,0.224973 0.11751,0.149843 0.17664,0.375535 0.17664,0.677116 v 1.906117 h 0.52333 v -1.923252 c 0,-0.440046 -0.0939,-0.773045 -0.28166,-0.998759 -0.18778,-0.227609 -0.46483,-0.341412 -0.8309,-0.341412 z m 12.7092,0 c -0.25228,0 -0.46645,0.04752 -0.64285,0.142366 -0.17639,0.09294 -0.31974,0.236264 -0.42972,0.429731 v -0.495203 h -0.52641 v 3.186529 h 0.52641 v -1.678506 c 0,-0.360384 0.079,-0.636261 0.23638,-0.827833 0.15931,-0.193467 0.38695,-0.290443 0.68283,-0.290443 0.0836,0 0.15933,0.0084 0.2276,0.02549 0.0703,0.01518 0.1346,0.04012 0.19337,0.07425 l -0.004,-0.537825 c -0.0531,-0.0094 -0.10143,-0.01597 -0.14498,-0.01976 -0.0437,-0.0056 -0.0836,-0.0089 -0.11949,-0.0089 z m 1.9404,0 c -0.17072,0 -0.34621,0.01921 -0.52642,0.05713 -0.18018,0.03604 -0.36602,0.0908 -0.55758,0.164775 v 0.483779 c 0.15931,-0.08724 0.32523,-0.152788 0.49784,-0.196411 0.17259,-0.04363 0.35,-0.06549 0.53211,-0.06549 0.28641,0 0.50824,0.06672 0.66569,0.199489 0.15932,0.130867 0.23902,0.316712 0.23902,0.557598 v 0.05097 h -0.73378 c -0.47608,0 -0.83479,0.09123 -1.07567,0.273309 -0.23898,0.182087 -0.35854,0.452208 -0.35854,0.810695 0,0.307271 0.0956,0.552887 0.28737,0.736873 0.19348,0.182085 0.45324,0.273305 0.77948,0.273305 0.25797,0 0.47642,-0.04561 0.65471,-0.136646 0.17829,-0.09294 0.32695,-0.236264 0.44643,-0.429733 v 0.48378 h 0.5238 v -1.818238 c 0,-0.485565 -0.1139,-0.847644 -0.34145,-1.086635 -0.22761,-0.238991 -0.57212,-0.358551 -1.03301,-0.358551 z m 3.8298,0 c -0.49695,0 -0.889,0.14908 -1.17539,0.446868 -0.28452,0.29779 -0.42666,0.70622 -0.42666,1.225926 0,0.512123 0.1414,0.919071 0.42403,1.220653 0.2826,0.301584 0.66387,0.452583 1.14375,0.452583 0.17639,0 0.34232,-0.01726 0.49783,-0.05141 0.15744,-0.03413 0.30916,-0.08506 0.45522,-0.153354 v -0.48378 c -0.14794,0.08157 -0.29702,0.143261 -0.44685,0.184988 -0.14796,0.03984 -0.29776,0.05975 -0.44953,0.05975 -0.3395,0 -0.60314,-0.107307 -0.79091,-0.321641 -0.18777,-0.216227 -0.28166,-0.518967 -0.28166,-0.9078 0,-0.388832 0.0938,-0.690393 0.28166,-0.904724 0.18777,-0.21623 0.45141,-0.324276 0.79091,-0.324276 0.15177,0 0.30157,0.02111 0.44953,0.06283 0.14983,0.03984 0.29891,0.100353 0.44685,0.181909 v -0.489478 c -0.14415,-0.06638 -0.29324,-0.115393 -0.44685,-0.14764 -0.15364,-0.03413 -0.3107,-0.05141 -0.47193,-0.05141 z m 7.11258,0 c -0.49694,0 -0.88856,0.14908 -1.17497,0.446868 -0.2845,0.29779 -0.42665,0.70622 -0.42665,1.225926 0,0.512123 0.14095,0.919071 0.4236,1.220653 0.2826,0.301584 0.66386,0.452583 1.14372,0.452583 0.17642,0 0.34232,-0.01726 0.49786,-0.05141 0.15741,-0.03413 0.30916,-0.08506 0.45521,-0.153354 v -0.48378 c -0.14797,0.08157 -0.29658,0.143261 -0.44644,0.184988 -0.14794,0.03984 -0.29775,0.05975 -0.4495,0.05975 -0.3395,0 -0.60313,-0.107307 -0.79091,-0.321641 -0.18777,-0.216227 -0.28166,-0.518967 -0.28166,-0.9078 0,-0.388832 0.0937,-0.690393 0.28166,-0.904724 0.18778,-0.21623 0.45141,-0.324276 0.79091,-0.324276 0.15175,0 0.30156,0.02111 0.4495,0.06283 0.14986,0.03984 0.29847,0.100353 0.44644,0.181909 v -0.489478 c -0.14415,-0.06638 -0.29278,-0.115393 -0.44644,-0.14764 -0.15363,-0.03413 -0.31111,-0.05141 -0.47233,-0.05141 z m 3.16938,0 c -0.47798,0 -0.85807,0.153656 -1.14067,0.460927 -0.28073,0.305378 -0.42139,0.718824 -0.42139,1.240428 0,0.504536 0.14789,0.90499 0.44379,1.200881 0.29779,0.295891 0.70091,0.443794 1.20921,0.443794 0.20297,0 0.40342,-0.02111 0.60068,-0.06283 0.19724,-0.04174 0.3896,-0.102256 0.57736,-0.18191 v -0.495205 c -0.18586,0.09863 -0.37365,0.17258 -0.5633,0.221898 -0.18779,0.04933 -0.38204,0.07425 -0.58308,0.07425 -0.34711,0 -0.6184,-0.09388 -0.81378,-0.281656 -0.19346,-0.189674 -0.30148,-0.464812 -0.32428,-0.825194 h 2.4066 v -0.256169 c 0,-0.474188 -0.12493,-0.84852 -0.37525,-1.123547 -0.24848,-0.276922 -0.58724,-0.415672 -1.01589,-0.415672 z m -146.071097,0.07691 v 3.18653 H 20.0225 v -3.18653 z m 8.512498,0 1.195169,3.18653 h 0.711389 l 1.19473,-3.18653 h -0.554523 l -0.996121,2.67463 -0.99568,-2.67463 z m 3.8241,0 v 3.18653 h 0.523325 v -3.18653 z m 15.969558,0 v 1.928967 c 0,0.438149 0.09463,0.771147 0.284293,0.998757 0.189673,0.227609 0.467911,0.341414 0.83398,0.341414 0.221919,0 0.416176,-0.04637 0.583084,-0.139289 0.168809,-0.09483 0.316714,-0.239342 0.443796,-0.432811 v 0.489492 h 0.523764 V 21.06313 h -0.523764 v 1.806815 c 0,0.311064 -0.08238,0.556683 -0.247383,0.736874 -0.163119,0.180192 -0.386154,0.270229 -0.668766,0.270229 -0.235199,0 -0.411442,-0.07513 -0.52904,-0.224973 -0.117603,-0.151738 -0.176637,-0.378167 -0.176637,-0.679751 V 21.06312 Z m 40.981092,0 v 1.928967 c 0,0.438149 0.09463,0.771147 0.284289,0.998757 0.189682,0.227609 0.467915,0.341414 0.833981,0.341414 0.221918,0 0.416167,-0.04637 0.583086,-0.139289 0.16881,-0.09483 0.316709,-0.239342 0.443794,-0.432811 v 0.489492 h 0.523329 v -3.186535 h -0.523329 v 1.806812 c 0,0.311066 -0.08241,0.556685 -0.247383,0.736877 -0.163121,0.180191 -0.386153,0.270228 -0.668763,0.270228 -0.235199,0 -0.411446,-0.07513 -0.529044,-0.224973 -0.117589,-0.151739 -0.176639,-0.378167 -0.176639,-0.679751 v -1.909193 z m 7.602064,0 v 1.928967 c 0,0.438149 0.09505,0.771147 0.284728,0.998757 0.189674,0.227609 0.467466,0.341414 0.833541,0.341414 0.221915,0 0.416178,-0.04637 0.583087,-0.139289 0.168806,-0.09483 0.31671,-0.239342 0.44379,-0.432811 v 0.489492 h 0.523768 v -3.18653 h -0.523768 v 1.806815 c 0,0.311066 -0.08241,0.556683 -0.247376,0.736874 -0.163122,0.180194 -0.386151,0.270229 -0.668769,0.270229 -0.235198,0 -0.411446,-0.07513 -0.529042,-0.224973 -0.117591,-0.151738 -0.17664,-0.378165 -0.17664,-0.679751 v -1.909194 z m 29.631815,0 1.28877,3.135121 -0.0936,0.239035 c -0.0967,0.254163 -0.18529,0.415495 -0.26496,0.483779 -0.0796,0.06829 -0.19155,0.102382 -0.3357,0.102382 h -0.30714 v 0.43808 h 0.41834 c 0.23521,0 0.42296,-0.05787 0.56332,-0.173562 0.14036,-0.1157 0.28443,-0.36324 0.43236,-0.742586 l 1.39994,-3.482249 h -0.55498 l -0.99567,2.49228 -0.99567,-2.49228 z m 33.39047,0 v 3.18653 h 0.52331 V 21.063108 Z M 17.003822,21.424294 c 0.276924,0 0.494938,0.109979 0.654265,0.329991 0.159327,0.218125 0.239035,0.519685 0.239035,0.904724 0,0.38504 -0.0797,0.687778 -0.239035,0.907802 -0.159327,0.218125 -0.377341,0.327354 -0.654265,0.327351 -0.276927,0 -0.495381,-0.109223 -0.654708,-0.327351 -0.157429,-0.220024 -0.235956,-0.522762 -0.235956,-0.907802 0,-0.385039 0.07852,-0.686599 0.235956,-0.904724 0.159327,-0.220023 0.377781,-0.329991 0.654708,-0.329991 z m 123.170448,0 c 0.27691,0 0.49537,0.109979 0.6547,0.329991 0.15934,0.218125 0.23858,0.519685 0.23858,0.904724 0,0.38504 -0.0793,0.687778 -0.23858,0.907802 -0.15933,0.218125 -0.37779,0.327354 -0.6547,0.327351 -0.27694,0 -0.49495,-0.109223 -0.65428,-0.327351 -0.15742,-0.220024 -0.23593,-0.522762 -0.23593,-0.907802 0,-0.385039 0.0785,-0.686599 0.23593,-0.904724 0.15933,-0.220023 0.37734,-0.329991 0.65428,-0.329991 z m -94.642836,0.0056 c 0.278819,0 0.499935,0.111141 0.663055,0.333065 0.163118,0.220024 0.244744,0.518487 0.244744,0.895937 0,0.379349 -0.08162,0.67943 -0.244744,0.899453 -0.16312,0.220021 -0.384236,0.329988 -0.663055,0.329988 -0.282616,0 -0.505208,-0.109224 -0.668327,-0.327351 -0.161224,-0.220022 -0.242112,-0.520843 -0.242112,-0.90209 0,-0.381246 0.08162,-0.680887 0.244747,-0.899012 0.16312,-0.220021 0.384973,-0.32999 0.665692,-0.32999 z m 20.302921,0 c 0.27882,0 0.499936,0.111141 0.663057,0.333065 0.163117,0.220024 0.244744,0.518487 0.244744,0.895937 0,0.379349 -0.08162,0.67943 -0.244744,0.899453 -0.163121,0.220021 -0.384237,0.329988 -0.663057,0.329988 -0.282616,0 -0.505648,-0.109224 -0.668767,-0.327351 -0.161223,-0.220022 -0.241669,-0.520843 -0.241669,-0.90209 -10e-7,-0.381246 0.08162,-0.680887 0.244745,-0.899012 0.163121,-0.220021 0.384972,-0.32999 0.665691,-0.32999 z m 15.275305,0 c 0.257959,0 0.4649,0.08547 0.620432,0.256171 0.157426,0.170708 0.237874,0.399495 0.241672,0.685904 l -1.866133,0.0027 c 0.02656,-0.299688 0.126922,-0.531873 0.301428,-0.696889 0.176397,-0.165017 0.410501,-0.247821 0.702601,-0.247821 z m 37.07746,0 c 0.25796,0 0.46489,0.08547 0.62043,0.256171 0.15726,0.170708 0.23771,0.399495 0.24167,0.685904 l -1.86613,0.0027 c 0.0265,-0.299688 0.12693,-0.531873 0.30143,-0.696889 0.1764,-0.165017 0.4105,-0.247821 0.7026,-0.247821 z m 3.47961,0 c 0.27883,0 0.49995,0.111141 0.66306,0.333065 0.16312,0.220024 0.24474,0.518487 0.24474,0.895937 0,0.379349 -0.0816,0.67943 -0.24474,0.899453 -0.16311,0.220021 -0.38423,0.329988 -0.66306,0.329988 -0.28262,0 -0.50521,-0.109224 -0.66832,-0.327351 -0.16122,-0.220022 -0.24212,-0.520843 -0.24212,-0.90209 0,-0.381246 0.0816,-0.680887 0.24474,-0.899012 0.16312,-0.220021 0.38499,-0.32999 0.6657,-0.32999 z m 43.90881,0 c 0.25795,0 0.46489,0.08547 0.62043,0.256171 0.15726,0.170708 0.2377,0.399495 0.24168,0.685904 l -1.86658,0.0027 c 0.0264,-0.299688 0.12732,-0.531873 0.30188,-0.696889 0.1764,-0.165017 0.4105,-0.247821 0.70259,-0.247821 z M 9.9760549,22.648008 h 0.5206891 v 0.116457 c 0,0.341414 -0.08813,0.615373 -0.264519,0.822118 -0.1745,0.204847 -0.406687,0.307582 -0.6968878,0.307579 -0.2105375,3e-6 -0.377629,-0.05402 -0.5009168,-0.162139 -0.12139,-0.110007 -0.1819112,-0.258351 -0.1819112,-0.444232 0,-0.233298 0.081627,-0.398031 0.2447453,-0.494764 0.1631188,-0.09674 0.4558254,-0.145004 0.8788004,-0.145004 z m 16.2854861,0 h 0.52069 v 0.116457 c 0,0.341414 -0.08812,0.615373 -0.264519,0.822118 -0.1745,0.204847 -0.406687,0.307582 -0.696887,0.307579 -0.210541,3e-6 -0.377629,-0.05402 -0.500919,-0.162139 -0.121396,-0.110007 -0.181912,-0.258351 -0.181912,-0.444232 0,-0.233298 0.08164,-0.398031 0.244748,-0.494764 0.163121,-0.09674 0.455826,-0.145004 0.878799,-0.145004 z m 8.63773,0 h 0.520687 v 0.116457 c 0,0.341414 -0.08812,0.615373 -0.26452,0.822118 -0.174498,0.204847 -0.406684,0.307582 -0.696886,0.307579 -0.21054,3e-6 -0.377628,-0.05402 -0.500919,-0.162139 -0.121395,-0.110007 -0.181909,-0.258351 -0.181909,-0.444232 0,-0.233298 0.08162,-0.398031 0.244744,-0.494764 0.163122,-0.09674 0.455827,-0.145004 0.878803,-0.145004 z m 24.10417,0 h 0.52025 v 0.116457 c 0,0.341414 -0.08811,0.615373 -0.264518,0.822118 -0.174501,0.204847 -0.406688,0.307582 -0.69689,0.307579 -0.21054,3e-6 -0.377628,-0.05402 -0.500915,-0.162139 -0.121396,-0.110007 -0.181914,-0.258351 -0.181912,-0.444232 0,-0.233298 0.08162,-0.398031 0.244746,-0.494764 0.16312,-0.09674 0.456266,-0.145004 0.879239,-0.145004 z m 44.986669,0 h 0.52069 v 0.116457 c 0,0.341414 -0.0882,0.615373 -0.26453,0.822118 -0.1745,0.204847 -0.40668,0.307582 -0.69688,0.307579 -0.21054,3e-6 -0.37764,-0.05402 -0.50092,-0.162139 -0.12139,-0.110007 -0.18191,-0.258351 -0.18191,-0.444232 0,-0.233298 0.0812,-0.398031 0.2443,-0.494764 0.16312,-0.09674 0.45627,-0.145004 0.87925,-0.145004 z m 29.15682,0 h 0.52071 v 0.116457 c 0,0.341414 -0.0881,0.615373 -0.26455,0.822118 -0.1745,0.204847 -0.40713,0.307582 -0.6973,0.307579 -0.21055,3e-6 -0.3772,-0.05402 -0.50048,-0.162139 -0.12139,-0.110007 -0.18235,-0.258351 -0.18235,-0.444232 0,-0.233298 0.0816,-0.398031 0.24474,-0.494764 0.16312,-0.09674 0.45626,-0.145004 0.87923,-0.145004 z m 18.64112,0 h 0.52068 v 0.116457 c 0,0.341414 -0.0882,0.615373 -0.26451,0.822118 -0.1745,0.204847 -0.40669,0.307582 -0.69689,0.307579 -0.21054,3e-6 -0.37761,-0.05402 -0.50092,-0.162139 -0.12144,-0.110007 -0.18192,-0.258351 -0.18192,-0.444232 0,-0.233298 0.0813,-0.398031 0.24433,-0.494764 0.1631,-0.09674 0.45624,-0.145004 0.87923,-0.145004 z"
     style="fill:#ffffff;stroke:#ffffff;stroke-width:0.264583" />
</svg>
