<?xml version="1.0" encoding="UTF-8" standalone="no"?>
<svg
   xmlns:dc="http://purl.org/dc/elements/1.1/"
   xmlns:cc="http://creativecommons.org/ns#"
   xmlns:rdf="http://www.w3.org/1999/02/22-rdf-syntax-ns#"
   xmlns:svg="http://www.w3.org/2000/svg"
   xmlns="http://www.w3.org/2000/svg"
   id="svg6591"
   version="1.1"
   viewBox="0 0 238.125 33.3375"
   height="126"
   width="900">
  <metadata
     id="metadata8141">
    <rdf:RDF>
      <cc:Work
         rdf:about="">
        <dc:format>image/svg+xml</dc:format>
        <dc:type
           rdf:resource="http://purl.org/dc/dcmitype/StillImage" />
        <dc:title></dc:title>
      </cc:Work>
    </rdf:RDF>
  </metadata>
  <defs
     id="defs6585" />
  <path
     id="fleks-banner-text"
     style="fill:#ffffff;stroke:none;stroke-width:1.12822342"
     d="m 21.820885,23.189534 v 2.287792 c -0.14597,-0.251673 -0.331053,-0.43832 -0.55504,-0.559122 -0.221473,-0.12332 -0.48842,-0.18482 -0.800495,-0.18482 -0.510895,0 -0.927281,0.203885 -1.249424,0.611595 -0.319623,0.40771 -0.479247,0.943569 -0.479247,1.607984 0,0.664415 0.159624,1.200857 0.479247,1.608567 0.322143,0.40771 0.738529,0.611595 1.249424,0.611595 0.312075,0 0.579022,-0.06051 0.800495,-0.181322 0.223987,-0.123319 0.40907,-0.310947 0.55504,-0.56262 v 0.634332 h 0.694384 v -5.873981 z m 2.125128,0 v 0.879785 h 0.694968 v -0.879785 z m 16.369026,0 v 0.879785 h 0.694384 v -0.879785 z m 38.867984,0 v 5.873981 h 0.694968 v -5.873981 z m 10.815706,0 c -0.475659,0 -0.82291,0.108309 -1.041864,0.324744 -0.218956,0.213922 -0.328244,0.55608 -0.328244,1.026708 v 0.294428 h -0.664647 v 0.539882 h 0.664647 v 3.688219 h 0.698465 v -3.688219 h 1.143895 v -0.539882 h -1.143895 v -0.373717 c 0,-0.261741 0.04779,-0.442713 0.143424,-0.543382 0.09815,-0.100671 0.271485,-0.151004 0.520641,-0.151004 h 0.664652 v -0.577777 z m 30.861291,0 v 5.873981 h 0.69498 v -5.873981 z m 18.01491,0 v 5.873981 h 0.69438 v -5.873981 z m 9.30568,0 v 5.873981 h 0.69845 v -2.389822 c 0,-0.412743 0.10831,-0.738644 0.32475,-0.977734 0.21644,-0.239088 0.51179,-0.358561 0.88679,-0.358561 0.31207,0 0.5465,0.09969 0.70253,0.298511 0.15605,0.198821 0.23381,0.498283 0.23381,0.898443 v 2.529163 h 0.69496 v -2.551902 c 0,-0.583881 -0.12515,-1.025726 -0.3743,-1.325217 -0.24917,-0.302009 -0.61619,-0.453012 -1.10191,-0.453012 -0.29446,0 -0.55533,0.06307 -0.78184,0.188901 -0.224,0.125835 -0.41868,0.316009 -0.58479,0.5702 v -2.302951 z m 37.07109,0 v 2.287792 c -0.14597,-0.251673 -0.33047,-0.43832 -0.55445,-0.559122 -0.22149,-0.12332 -0.48842,-0.18482 -0.8005,-0.18482 -0.51088,0 -0.92727,0.203885 -1.24941,0.611595 -0.31963,0.40771 -0.47983,0.943569 -0.47983,1.607984 0,0.664415 0.1602,1.200857 0.47983,1.608567 0.32214,0.40771 0.73853,0.611595 1.24941,0.611595 0.31208,0 0.57901,-0.06051 0.8005,-0.181322 0.22398,-0.123319 0.40848,-0.310947 0.55445,-0.56262 v 0.634332 h 0.69498 v -5.873981 z m 24.3384,0 v 0.879785 h 0.69439 V 23.189534 Z M 1.9828569,23.325378 c -0.6165983,0 -1.1011413,0.143366 -1.45348297,0.430273 -0.34982519,0.286906 -0.52472283,0.6794 -0.52472283,1.177712 0,0.430359 0.12710903,0.766446 0.38129843,1.008051 0.25418953,0.241605 0.66548497,0.41905 1.23426537,0.532302 l 0.4640882,0.09096 c 0.3875761,0.07802 0.6656891,0.194945 0.8343096,0.350983 0.1711373,0.156037 0.2571144,0.372066 0.2571144,0.648907 0,0.317106 -0.1184903,0.561725 -0.3550627,0.732863 -0.2365723,0.17114 -0.5726574,0.256531 -1.0080511,0.256531 -0.2869071,0 -0.5787306,-0.04426 -0.87570451,-0.132348 -0.2969736,-0.08808 -0.5999624,-0.218724 -0.90951994,-0.392379 v 0.785337 c 0.32214119,0.11829 0.6327676,0.20721 0.93225784,0.267607 0.30200741,0.0604 0.58619341,0.09096 0.85296661,0.09096 0.7072002,0 1.2436423,-0.140824 1.6085675,-0.422693 0.3674421,-0.281872 0.5509592,-0.696299 0.5509592,-1.242428 0,-0.458044 -0.1357282,-0.822533 -0.4075349,-1.09434 C 3.2953154,26.13934 2.8763823,25.947603 2.307602,25.839385 L 1.8470117,25.744935 C 1.4292352,25.666916 1.1444658,25.565266 0.99346254,25.439429 0.84497536,25.311077 0.7707466,25.122466 0.7707466,24.873312 c 0,-0.296975 0.11183402,-0.526318 0.3358228,-0.687388 0.2265054,-0.161071 0.5478982,-0.241372 0.9631581,-0.241372 0.2390891,0 0.4866515,0.03408 0.7433578,0.102025 0.2567063,0.06795 0.5297274,0.171167 0.8191509,0.309586 V 23.612227 C 3.3453291,23.516595 3.0646707,23.444911 2.7903472,23.39709 2.516024,23.349269 2.247113,23.325378 1.9828569,23.325378 Z m 52.6168941,0.102025 v 5.243732 c 0,0.488245 -0.06914,0.826294 -0.207559,1.015047 -0.138419,0.188756 -0.376382,0.283351 -0.713621,0.283351 h -0.237876 v 0.641911 h 0.290928 c 0.571298,0 0.98514,-0.15355 1.241846,-0.46059 0.259223,-0.307041 0.388878,-0.800201 0.388878,-1.479719 v -5.243732 z m 39.125096,0 v 5.636107 h 0.762593 v -5.636107 z m 49.004453,0 v 0.641912 h 2.00096 v 4.994195 h 0.7661 v -4.994195 h 2.00093 v -0.641912 z m 47.13938,0 v 5.636107 h 0.76259 v -2.265053 h 0.95908 c 0.63171,0 1.10862,-0.142384 1.43075,-0.426775 0.32465,-0.284388 0.48682,-0.704303 0.48682,-1.260501 0,-0.551165 -0.16217,-0.969115 -0.48682,-1.253505 -0.32213,-0.286906 -0.79904,-0.430273 -1.43075,-0.430273 z m -88.99769,0.207558 v 1.200448 h -0.50956 v 0.539882 h 0.50956 v 2.295373 c 0,0.528511 0.10222,0.892999 0.3061,1.094337 0.20385,0.198823 0.57342,0.298509 1.1095,0.298509 h 0.71361 v -0.581274 h -0.71361 c -0.28943,0 -0.48157,-0.04936 -0.5772,-0.147505 -0.0932,-0.09816 -0.13993,-0.319277 -0.13993,-0.664067 v -2.295373 h 1.43074 v -0.539882 h -1.43074 v -1.200448 z m 22.12232,0 v 1.200448 h -0.50956 v 0.539882 h 0.50956 v 2.295373 c 0,0.528511 0.10165,0.892999 0.30551,1.094337 0.20387,0.198823 0.57402,0.298509 1.11008,0.298509 h 0.71362 v -0.581274 h -0.71362 c -0.28942,0 -0.48214,-0.04936 -0.57778,-0.147505 -0.0931,-0.09816 -0.13935,-0.319277 -0.13935,-0.664067 v -2.295373 h 1.43075 v -0.539882 h -1.43075 v -1.200448 z m 83.5499,0 v 1.200448 h -0.50956 v 0.539882 h 0.50956 v 2.295373 c 0,0.528511 0.10222,0.892999 0.30609,1.094337 0.20386,0.198823 0.57402,0.298509 1.11008,0.298509 h 0.71304 v -0.581274 h -0.71304 c -0.28942,0 -0.48215,-0.04936 -0.57777,-0.147505 -0.0931,-0.09816 -0.13994,-0.319277 -0.13994,-0.664067 v -2.295373 h 1.43075 v -0.539882 h -1.43075 v -1.200448 z m -15.91194,0.419194 h 0.95908 c 0.35486,0 0.62945,0.09147 0.82323,0.275188 0.1938,0.183722 0.29036,0.444598 0.29036,0.781838 0,0.339757 -0.0966,0.601032 -0.29036,0.784754 -0.19378,0.18372 -0.46837,0.27577 -0.82323,0.27577 h -0.95908 z M 6.9543157,24.733384 c -0.6593821,0 -1.1789842,0.197811 -1.5590101,0.592938 -0.3775091,0.395126 -0.5661178,0.937059 -0.5661178,1.626641 0,0.679518 0.1876276,1.219484 0.5626194,1.619645 0.3749926,0.40016 0.8808845,0.600517 1.5176154,0.600517 0.2340567,0 0.4541969,-0.02293 0.6605681,-0.06822 0.2088882,-0.0453 0.4102264,-0.112875 0.6040147,-0.203479 v -0.641911 c -0.1963053,0.108219 -0.3941155,0.190091 -0.5929367,0.245455 -0.1963053,0.05286 -0.3950971,0.07929 -0.5964354,0.07929 -0.4504938,0 -0.8002898,-0.142382 -1.0494461,-0.426774 -0.249156,-0.286905 -0.3737194,-0.688601 -0.3737194,-1.204531 0,-0.515929 0.1245634,-0.916059 0.3737194,-1.200449 0.2491563,-0.286907 0.5989523,-0.430273 1.0494461,-0.430273 0.2013383,0 0.4001301,0.02799 0.5964354,0.08337 0.1988212,0.05286 0.3966314,0.133153 0.5929367,0.241373 v -0.649485 c -0.1912712,-0.08809 -0.3890827,-0.153115 -0.5929367,-0.195897 -0.2038554,-0.0453 -0.4128316,-0.06821 -0.626753,-0.06821 z m 3.9185143,0 c -0.226504,0 -0.459374,0.02547 -0.698463,0.0758 -0.239089,0.04782 -0.4856704,0.120483 -0.7398602,0.218636 v 0.641909 c 0.2114038,-0.115767 0.4315463,-0.202726 0.6605682,-0.26061 0.229021,-0.05788 0.464438,-0.08687 0.706043,-0.08687 0.380027,0 0.674396,0.08852 0.883283,0.264695 0.211405,0.173653 0.317167,0.420235 0.317167,0.739857 v 0.06762 h -0.973652 c -0.631699,0 -1.1076229,0.121037 -1.427247,0.362642 -0.3171076,0.241607 -0.4757484,0.600021 -0.4757484,1.075684 0,0.40771 0.1271091,0.73361 0.3812991,0.977734 0.2567051,0.241604 0.6014083,0.362641 1.0342853,0.362641 0.342277,0 0.632137,-0.06051 0.868708,-0.181323 0.236572,-0.123318 0.4338,-0.313493 0.592355,-0.570198 v 0.641909 h 0.694967 v -2.412568 c 0,-0.644282 -0.151004,-1.124713 -0.453011,-1.441822 -0.302008,-0.317102 -0.759129,-0.475743 -1.370694,-0.475743 z m 5.296787,0 c -0.294456,0 -0.555331,0.06307 -0.781837,0.188901 -0.223987,0.125835 -0.418671,0.316009 -0.584775,0.5702 v -0.657071 h -0.698464 v 4.228101 h 0.698464 v -2.389822 c 0,-0.412743 0.108311,-0.738644 0.324746,-0.977734 0.216438,-0.239088 0.51179,-0.358561 0.886783,-0.358561 0.312073,0 0.546508,0.09969 0.702546,0.298511 0.156036,0.198821 0.233792,0.498283 0.233792,0.898443 v 2.529163 h 0.694385 v -2.551902 c 0,-0.583881 -0.124566,-1.025726 -0.37372,-1.325217 -0.249157,-0.302009 -0.616191,-0.453012 -1.10192,-0.453012 z m 11.959603,0 c -0.294455,0 -0.555329,0.06307 -0.781836,0.188901 -0.223988,0.125835 -0.418669,0.316009 -0.584774,0.5702 v -0.657071 h -0.698464 v 4.228101 h 0.698464 v -2.389822 c 0,-0.412743 0.107723,-0.738644 0.324163,-0.977734 0.216437,-0.239088 0.512374,-0.358561 0.887363,-0.358561 0.312076,0 0.545926,0.09969 0.701964,0.298511 0.156037,0.198821 0.234376,0.498283 0.234376,0.898443 v 2.529163 h 0.694383 v -2.551902 c 0,-0.583881 -0.124562,-1.025726 -0.373719,-1.325217 -0.249156,-0.302009 -0.616191,-0.453012 -1.10192,-0.453012 z m 4.352287,0 c -0.226506,0 -0.459376,0.02547 -0.698463,0.0758 -0.239091,0.04782 -0.485672,0.120483 -0.73986,0.218636 v 0.641909 c 0.211406,-0.115767 0.431545,-0.202726 0.660565,-0.26061 0.229023,-0.05788 0.464441,-0.08687 0.706049,-0.08687 0.380024,0 0.674393,0.08852 0.883281,0.264695 0.211408,0.173653 0.317166,0.420235 0.317166,0.739857 v 0.06762 h -0.973654 c -0.631696,0 -1.107621,0.121037 -1.427247,0.362642 -0.317106,0.241607 -0.475747,0.600021 -0.475747,1.075684 0,0.40771 0.127109,0.73361 0.381299,0.977734 0.256706,0.241604 0.60141,0.362641 1.034288,0.362641 0.342273,0 0.632133,-0.06051 0.868708,-0.181323 0.236571,-0.123318 0.4338,-0.313493 0.592353,-0.570198 v 0.641909 h 0.694967 v -2.412568 c 0,-0.644282 -0.151002,-1.124713 -0.453012,-1.441822 -0.302006,-0.317102 -0.759129,-0.475743 -1.370693,-0.475743 z m 11.461118,0 c -0.226506,0 -0.459376,0.02547 -0.698465,0.0758 -0.239087,0.04782 -0.48567,0.120483 -0.739861,0.218636 v 0.641909 c 0.211408,-0.115767 0.431548,-0.202726 0.660569,-0.26061 0.229021,-0.05788 0.464438,-0.08687 0.706045,-0.08687 0.380025,0 0.674394,0.08852 0.883283,0.264695 0.211406,0.173653 0.317165,0.420235 0.317165,0.739857 v 0.06762 h -0.973652 c -0.631697,0 -1.107626,0.121037 -1.427244,0.362642 -0.317109,0.241607 -0.475752,0.600021 -0.475752,1.075684 0,0.40771 0.127112,0.73361 0.381301,0.977734 0.256704,0.241604 0.601408,0.362641 1.034287,0.362641 0.342275,0 0.632137,-0.06051 0.868708,-0.181323 0.236571,-0.123318 0.433799,-0.313493 0.592352,-0.570198 v 0.641909 h 0.694969 v -2.412568 c 0,-0.644282 -0.151004,-1.124713 -0.453012,-1.441822 -0.302009,-0.317102 -0.759129,-0.475743 -1.370693,-0.475743 z m 5.296786,0 c -0.294455,0 -0.555331,0.06307 -0.781836,0.188901 -0.223987,0.125835 -0.418672,0.316009 -0.584774,0.5702 v -0.657071 h -0.698463 v 4.228101 h 0.698463 v -2.389822 c 0,-0.412743 0.108309,-0.738644 0.324744,-0.977734 0.216438,-0.239088 0.511792,-0.358561 0.886782,-0.358561 0.312075,0 0.54651,0.09969 0.702546,0.298511 0.156036,0.198821 0.233793,0.498283 0.233793,0.898443 v 2.529163 h 0.694383 v -2.551902 c 0,-0.583881 -0.124562,-1.025726 -0.373719,-1.325217 -0.249156,-0.302009 -0.616188,-0.453012 -1.101919,-0.453012 z m 9.248537,0 c -0.606532,0 -1.081875,0.196247 -1.426664,0.588858 -0.342277,0.392608 -0.513645,0.936104 -0.513645,1.630721 0,0.692099 0.171368,1.236181 0.513645,1.631305 0.344789,0.392609 0.820132,0.588857 1.426664,0.588857 0.604013,0 1.078955,-0.196248 1.423749,-0.588857 0.344791,-0.395124 0.517143,-0.939206 0.517143,-1.631305 0,-0.694617 -0.172352,-1.238113 -0.517143,-1.630721 -0.344794,-0.392611 -0.819736,-0.588858 -1.423749,-0.588858 z m 10.091006,0 c -0.334726,0 -0.61891,0.06307 -0.852966,0.188901 -0.234055,0.123319 -0.42423,0.313493 -0.570198,0.5702 v -0.657071 h -0.698466 v 4.228101 h 0.698466 v -2.227157 c 0,-0.478177 0.104191,-0.844231 0.313082,-1.098421 0.211407,-0.256705 0.513415,-0.38538 0.906023,-0.38538 0.110734,0 0.211404,0.01116 0.302008,0.03381 0.09313,0.02014 0.179097,0.05323 0.257115,0.09853 l -0.0041,-0.713623 c -0.07045,-0.01258 -0.13451,-0.0212 -0.192397,-0.02624 -0.05787,-0.0075 -0.110758,-0.01167 -0.158582,-0.01167 z m 2.993837,0 c -0.294459,0 -0.555333,0.06307 -0.781839,0.188901 -0.223987,0.125835 -0.41867,0.316009 -0.584773,0.5702 v -0.657071 h -0.698466 v 4.228101 h 0.698466 v -2.389822 c 0,-0.412743 0.108309,-0.738644 0.324746,-0.977734 0.216438,-0.239088 0.511788,-0.358561 0.886782,-0.358561 0.312073,0 0.546509,0.09969 0.702543,0.298511 0.156041,0.198821 0.233796,0.498283 0.233796,0.898443 v 2.529163 h 0.694964 v -2.551902 c 0,-0.583881 -0.125143,-1.025726 -0.3743,-1.325217 -0.249157,-0.302009 -0.616192,-0.453012 -1.101919,-0.453012 z m 4.352287,0 c -0.226507,0 -0.458795,0.02547 -0.697883,0.0758 -0.239087,0.04782 -0.486253,0.120483 -0.740443,0.218636 v 0.641909 c 0.211405,-0.115767 0.432128,-0.202726 0.661151,-0.26061 0.229022,-0.05788 0.463856,-0.08687 0.70546,-0.08687 0.380026,0 0.67498,0.08852 0.883868,0.264695 0.211404,0.173653 0.316583,0.420235 0.316583,0.739857 v 0.06762 h -0.973652 c -0.631699,0 -1.107621,0.121037 -1.427246,0.362642 -0.317107,0.241607 -0.475168,0.600021 -0.475168,1.075684 0,0.40771 0.127111,0.73361 0.3813,0.977734 0.256706,0.241604 0.60141,0.362641 1.034286,0.362641 0.342278,0 0.631554,-0.06051 0.868125,-0.181323 0.236575,-0.123318 0.433803,-0.313493 0.592355,-0.570198 v 0.641909 h 0.694965 v -2.412568 c 0,-0.644282 -0.151003,-1.124713 -0.453008,-1.441822 -0.302007,-0.317102 -0.75913,-0.475743 -1.370693,-0.475743 z m 9.50215,0 c -0.606532,0 -1.081872,0.196247 -1.426665,0.588858 -0.342273,0.392608 -0.513646,0.936104 -0.513646,1.630721 0,0.692099 0.171373,1.236181 0.513646,1.631305 0.344793,0.392609 0.820133,0.588857 1.426665,0.588857 0.604015,0 1.078372,-0.196248 1.423164,-0.588857 0.344792,-0.395124 0.517146,-0.939206 0.517146,-1.631305 0,-0.694617 -0.172354,-1.238113 -0.517146,-1.630721 -0.344792,-0.392611 -0.819149,-0.588858 -1.423164,-0.588858 z m 12.586363,0 c -0.294465,0 -0.555339,0.06307 -0.781845,0.188901 -0.223987,0.125835 -0.418674,0.316009 -0.584777,0.5702 v -0.657071 h -0.698468 v 4.228101 h 0.698468 v -2.389822 c 0,-0.412743 0.108311,-0.738644 0.324745,-0.977734 0.216434,-0.239088 0.511793,-0.358561 0.886784,-0.358561 0.31208,0 0.546501,0.09969 0.702541,0.298511 0.156031,0.198821 0.233806,0.498283 0.233806,0.898443 v 2.529163 h 0.694369 v -2.551902 c 0,-0.583881 -0.124559,-1.025726 -0.373715,-1.325217 -0.249147,-0.302009 -0.616182,-0.453012 -1.101908,-0.453012 z m 7.674359,0 c -0.63421,0 -1.13854,0.203885 -1.51353,0.611595 -0.37248,0.405192 -0.55854,0.953781 -0.55854,1.645881 0,0.66945 0.19625,1.200799 0.58886,1.593408 0.39513,0.392609 0.93,0.588857 1.60447,0.588857 0.2693,0 0.53468,-0.02799 0.79641,-0.08338 0.26176,-0.05536 0.51695,-0.135669 0.7661,-0.241371 v -0.657069 c -0.24663,0.130866 -0.49577,0.22899 -0.74743,0.294427 -0.24915,0.06544 -0.5069,0.09853 -0.77367,0.09853 -0.46057,0 -0.82055,-0.124563 -1.07975,-0.373719 -0.25672,-0.251674 -0.40009,-0.616744 -0.4303,-1.094922 h 3.19381 v -0.339905 c 0,-0.629182 -0.16627,-1.125871 -0.49846,-1.490797 -0.32971,-0.367442 -0.77919,-0.551541 -1.34797,-0.551541 z m 5.08165,0 c -0.33473,0 -0.61949,0.06307 -0.85356,0.188901 -0.23404,0.123319 -0.42364,0.313493 -0.5696,0.5702 v -0.657071 h -0.69847 v 4.228101 h 0.69847 v -2.227157 c 0,-0.478177 0.10424,-0.844231 0.31308,-1.098421 0.2114,-0.256705 0.51341,-0.38538 0.90601,-0.38538 0.1107,0 0.21141,0.01116 0.30202,0.03381 0.0931,0.02014 0.17851,0.05323 0.25654,0.09853 l -0.004,-0.713623 c -0.0704,-0.01258 -0.13449,-0.0212 -0.1924,-0.02624 -0.0579,-0.0075 -0.11078,-0.01167 -0.15858,-0.01167 z m 2.74838,0 c -0.65939,0 -1.17958,0.197811 -1.55958,0.592938 -0.37752,0.395126 -0.56613,0.937059 -0.56613,1.626641 0,0.679518 0.18763,1.219484 0.56263,1.619645 0.37498,0.40016 0.88087,0.600517 1.51761,0.600517 0.23406,0 0.45421,-0.02293 0.66056,-0.06822 0.20888,-0.0453 0.41022,-0.112875 0.60402,-0.203479 v -0.641911 c -0.1963,0.108219 -0.39412,0.190091 -0.59293,0.245455 -0.19632,0.05286 -0.39511,0.07929 -0.59645,0.07929 -0.45049,0 -0.80029,-0.142382 -1.04943,-0.426774 -0.24916,-0.286905 -0.37372,-0.688601 -0.37372,-1.204531 0,-0.515929 0.12456,-0.916059 0.37372,-1.200449 0.24914,-0.286907 0.59894,-0.430273 1.04943,-0.430273 0.20134,0 0.40013,0.02799 0.59645,0.08337 0.19881,0.05286 0.39663,0.133153 0.59293,0.241373 v -0.649498 c -0.19128,-0.0881 -0.38909,-0.153114 -0.59293,-0.195896 -0.20386,-0.0453 -0.41225,-0.06822 -0.62618,-0.06822 z m 19.52437,0 c -0.33473,0 -0.61893,0.06307 -0.85297,0.188901 -0.23405,0.123319 -0.42423,0.313493 -0.57021,0.5702 v -0.657071 h -0.69845 v 4.228101 h 0.69845 v -2.227157 c 0,-0.478177 0.10481,-0.844231 0.31366,-1.098421 0.21143,-0.256705 0.51343,-0.38538 0.90605,-0.38538 0.11067,0 0.21138,0.01116 0.302,0.03381 0.0931,0.02014 0.17852,0.05323 0.25652,0.09853 l -0.005,-0.713623 c -0.0704,-0.01258 -0.13448,-0.0212 -0.19239,-0.02624 -0.0579,-0.0075 -0.11079,-0.01167 -0.15859,-0.01167 z m 2.57464,0 c -0.2265,0 -0.45938,0.02547 -0.69847,0.0758 -0.23908,0.04782 -0.48568,0.120483 -0.73986,0.218636 v 0.641909 c 0.21139,-0.115767 0.43155,-0.202726 0.66058,-0.26061 0.22902,-0.05788 0.46443,-0.08687 0.70602,-0.08687 0.38004,0 0.67442,0.08852 0.88329,0.264695 0.21141,0.173653 0.31718,0.420235 0.31718,0.739857 v 0.06762 h -0.97365 c -0.63171,0 -1.10763,0.121037 -1.42726,0.362642 -0.3171,0.241607 -0.47575,0.600021 -0.47575,1.075684 0,0.40771 0.12711,0.73361 0.38131,0.977734 0.25669,0.241604 0.6014,0.362641 1.03427,0.362641 0.34229,0 0.63215,-0.06051 0.86871,-0.181323 0.23658,-0.123318 0.43381,-0.313493 0.59237,-0.570198 v 0.641909 h 0.69495 v -2.412568 c 0,-0.644282 -0.15101,-1.124713 -0.453,-1.441822 -0.30203,-0.317108 -0.75913,-0.475748 -1.37069,-0.475748 z m 19.26842,0 c -0.63422,0 -1.13914,0.203885 -1.51413,0.611595 -0.37246,0.405192 -0.55855,0.953781 -0.55855,1.645881 0,0.66945 0.19626,1.200799 0.58886,1.593408 0.39513,0.392609 0.93001,0.588857 1.60449,0.588857 0.2693,0 0.53468,-0.02799 0.79642,-0.08338 0.26173,-0.05536 0.51694,-0.135669 0.7661,-0.241371 v -0.657069 c -0.24665,0.130866 -0.49579,0.22899 -0.74744,0.294427 -0.24916,0.06544 -0.50691,0.09853 -0.77368,0.09853 -0.46057,0 -0.82055,-0.124563 -1.07977,-0.373719 -0.25666,-0.251674 -0.40003,-0.616744 -0.43027,-1.094922 h 3.19382 v -0.339905 c 0,-0.629182 -0.16628,-1.125871 -0.4985,-1.490797 -0.32969,-0.367442 -0.77858,-0.551541 -1.34735,-0.551541 z m 4.62396,0 c -0.60654,0 -1.08189,0.196247 -1.42665,0.588858 -0.34229,0.392608 -0.51366,0.936104 -0.51366,1.630721 0,0.692099 0.17137,1.236181 0.51366,1.631305 0.34476,0.392609 0.82011,0.588857 1.42665,0.588857 0.60401,0 1.07896,-0.196248 1.42375,-0.588857 0.34479,-0.395124 0.51716,-0.939206 0.51716,-1.631305 0,-0.694617 -0.17237,-1.238113 -0.51716,-1.630721 -0.34479,-0.392611 -0.81974,-0.588858 -1.42375,-0.588858 z m 5.18369,0 c -0.33472,0 -0.6195,0.06307 -0.85355,0.188901 -0.23406,0.123319 -0.42366,0.313493 -0.56963,0.5702 v -0.657071 h -0.69845 v 4.228101 h 0.69845 v -2.227157 c 0,-0.478177 0.10415,-0.844231 0.3131,-1.098421 0.21139,-0.256705 0.5134,-0.38538 0.90601,-0.38538 0.1108,0 0.2114,0.01116 0.30202,0.03381 0.0931,0.02014 0.1785,0.05323 0.25652,0.09853 l -0.004,-0.713623 c -0.0704,-0.01258 -0.13449,-0.0212 -0.1924,-0.02624 -0.0579,-0.0075 -0.11079,-0.01167 -0.15858,-0.01167 z m 9.61117,0 c -0.22651,0 -0.45938,0.02547 -0.69847,0.0758 -0.23908,0.04782 -0.48566,0.120483 -0.73985,0.218636 v 0.641909 c 0.2114,-0.115767 0.43154,-0.202726 0.66057,-0.26061 0.22902,-0.05788 0.46443,-0.08687 0.70603,-0.08687 0.38003,0 0.67438,0.08852 0.8833,0.264695 0.21139,0.173653 0.31717,0.420235 0.31717,0.739857 v 0.06762 h -0.97426 c -0.63169,0 -1.10704,0.121037 -1.42665,0.362642 -0.31712,0.241607 -0.47574,0.600021 -0.47574,1.075684 0,0.40771 0.12709,0.73361 0.38128,0.977734 0.25672,0.241604 0.60142,0.362641 1.03429,0.362641 0.34228,0 0.63157,-0.06051 0.86814,-0.181323 0.23656,-0.123318 0.43438,-0.313493 0.59294,-0.570198 v 0.641909 h 0.69437 v -2.412568 c 0,-0.644282 -0.15101,-1.124713 -0.45301,-1.441822 -0.302,-0.317108 -0.75854,-0.475748 -1.37011,-0.475748 z m 5.2962,0 c -0.29446,0 -0.55475,0.06307 -0.78125,0.188901 -0.22398,0.125835 -0.41924,0.316009 -0.58536,0.5702 v -0.657071 h -0.69788 v 4.228101 h 0.69788 v -2.389822 c 0,-0.412743 0.10831,-0.738644 0.32475,-0.977734 0.21643,-0.239088 0.51238,-0.358561 0.88737,-0.358561 0.31207,0 0.54592,0.09969 0.70196,0.298511 0.15603,0.198821 0.23438,0.498283 0.23438,0.898443 v 2.529163 h 0.69437 v -2.551902 c 0,-0.583881 -0.12456,-1.025726 -0.37371,-1.325217 -0.24916,-0.302009 -0.61679,-0.453012 -1.10251,-0.453012 z m 16.86343,0 c -0.33472,0 -0.6189,0.06307 -0.85296,0.188901 -0.23405,0.123319 -0.42423,0.313493 -0.57019,0.5702 v -0.657071 h -0.69849 v 4.228101 h 0.69849 v -2.227157 c 0,-0.478177 0.10481,-0.844231 0.31366,-1.098421 0.2114,-0.256705 0.51341,-0.38538 0.90602,-0.38538 0.11079,0 0.21141,0.01116 0.30201,0.03381 0.0931,0.02014 0.17849,0.05323 0.25652,0.09853 l -0.005,-0.713623 c -0.0703,-0.01258 -0.13447,-0.0212 -0.19239,-0.02624 -0.0579,-0.0075 -0.11081,-0.01167 -0.15859,-0.01167 z m 2.57465,0 c -0.2265,0 -0.45937,0.02547 -0.69845,0.0758 -0.2391,0.04782 -0.48569,0.120483 -0.73987,0.218636 v 0.641909 c 0.21139,-0.115767 0.43153,-0.202726 0.66055,-0.26061 0.22903,-0.05788 0.46445,-0.08687 0.70606,-0.08687 0.38003,0 0.67439,0.08852 0.88327,0.264695 0.21142,0.173653 0.31717,0.420235 0.31717,0.739857 v 0.06762 h -0.97365 c -0.6317,0 -1.10762,0.121037 -1.42725,0.362642 -0.3171,0.241607 -0.47574,0.600021 -0.47574,1.075684 0,0.40771 0.1271,0.73361 0.3813,0.977734 0.2567,0.241604 0.6014,0.362641 1.03429,0.362641 0.34228,0 0.63212,-0.06051 0.8687,-0.181323 0.23657,-0.123318 0.4338,-0.313493 0.59235,-0.570198 v 0.641909 h 0.69497 v -2.412568 c 0,-0.644282 -0.151,-1.124713 -0.45301,-1.441822 -0.30201,-0.317108 -0.75913,-0.475748 -1.37069,-0.475748 z m 5.08167,0 c -0.65941,0 -1.1796,0.197811 -1.55961,0.592938 -0.3775,0.395126 -0.56613,0.937059 -0.56613,1.626641 0,0.679518 0.18764,1.219484 0.56263,1.619645 0.37499,0.40016 0.88088,0.600517 1.51761,0.600517 0.23407,0 0.45421,-0.02293 0.66057,-0.06822 0.20889,-0.0453 0.41021,-0.112875 0.60401,-0.203479 v -0.641911 c -0.19629,0.108219 -0.3941,0.190091 -0.59293,0.245455 -0.1963,0.05286 -0.3951,0.07929 -0.59644,0.07929 -0.45049,0 -0.80029,-0.142382 -1.04944,-0.426774 -0.24916,-0.286905 -0.37372,-0.688601 -0.37372,-1.204531 0,-0.515929 0.12456,-0.916059 0.37372,-1.200449 0.24915,-0.286907 0.59895,-0.430273 1.04944,-0.430273 0.20134,0 0.40014,0.02799 0.59644,0.08337 0.19883,0.05286 0.39664,0.133153 0.59293,0.241373 v -0.649498 c -0.19127,-0.0881 -0.38907,-0.153114 -0.59293,-0.195896 -0.20386,-0.0453 -0.41226,-0.06822 -0.62615,-0.06822 z m 9.4374,0 c -0.65936,0 -1.17896,0.197811 -1.559,0.592938 -0.37749,0.395126 -0.56611,0.937059 -0.56611,1.626641 0,0.679518 0.18703,1.219484 0.56204,1.619645 0.37499,0.40016 0.88089,0.600517 1.5176,0.600517 0.23407,0 0.45421,-0.02293 0.66058,-0.06822 0.20889,-0.0453 0.41022,-0.112875 0.60401,-0.203479 v -0.641911 c -0.19632,0.108219 -0.39353,0.190091 -0.59235,0.245455 -0.19631,0.05286 -0.3951,0.07929 -0.59643,0.07929 -0.4505,0 -0.8003,-0.142382 -1.04946,-0.426774 -0.24915,-0.286905 -0.37371,-0.688601 -0.37371,-1.204531 0,-0.515929 0.12456,-0.916059 0.37371,-1.200449 0.24916,-0.286907 0.59896,-0.430273 1.04946,-0.430273 0.20133,0 0.40012,0.02799 0.59643,0.08337 0.19882,0.05286 0.39603,0.133153 0.59235,0.241373 v -0.649498 c -0.19128,-0.0881 -0.38849,-0.153114 -0.59235,-0.195896 -0.20387,-0.0453 -0.41283,-0.06822 -0.62677,-0.06822 z m 4.20538,0 c -0.63422,0 -1.13854,0.203885 -1.51354,0.611595 -0.37249,0.405192 -0.55911,0.953781 -0.55911,1.645881 0,0.66945 0.19622,1.200799 0.58885,1.593408 0.39512,0.392609 0.93,0.588857 1.60448,0.588857 0.26931,0 0.53526,-0.02799 0.79701,-0.08338 0.26172,-0.05536 0.51693,-0.135669 0.76609,-0.241371 v -0.657069 c -0.24664,0.130866 -0.49578,0.22899 -0.74744,0.294427 -0.24917,0.06544 -0.5069,0.09853 -0.77368,0.09853 -0.46056,0 -0.82054,-0.124563 -1.07976,-0.373719 -0.25667,-0.251674 -0.40003,-0.616744 -0.43027,-1.094922 h 3.19323 v -0.339905 c 0,-0.629182 -0.1657,-1.125871 -0.4979,-1.490797 -0.32971,-0.367442 -0.77919,-0.551541 -1.34796,-0.551541 z M 23.946013,24.83541 v 4.228101 h 0.694968 V 24.83541 Z m 11.294954,0 1.58583,4.228101 h 0.943918 l 1.585247,-4.228101 h -0.735776 l -1.321722,3.548877 -1.321135,-3.548877 z m 5.074072,0 v 4.228101 h 0.694384 V 24.83541 Z m 21.189481,0 v 2.559484 c 0,0.581364 0.125547,1.023207 0.377219,1.325216 0.251672,0.302007 0.620856,0.453012 1.106583,0.453012 0.294456,0 0.552206,-0.06151 0.773674,-0.184819 0.22399,-0.125838 0.420238,-0.317576 0.588857,-0.574282 v 0.64949 h 0.694967 v -4.228097 h -0.694967 v 2.397402 c 0,0.412741 -0.109291,0.738645 -0.328243,0.977734 -0.216439,0.23909 -0.512375,0.358559 -0.887364,0.358559 -0.312076,0 -0.545929,-0.09969 -0.701966,-0.298509 -0.156036,-0.201338 -0.234374,-0.501778 -0.234374,-0.90194 v -2.533246 z m 54.37647,0 v 2.559484 c 0,0.581364 0.12556,1.023207 0.37721,1.325216 0.25168,0.302007 0.62087,0.453012 1.10658,0.453012 0.29447,0 0.5522,-0.06151 0.77367,-0.184819 0.224,-0.125838 0.42024,-0.317576 0.58887,-0.574282 v 0.64949 h 0.69438 V 24.83541 h -0.69438 v 2.397403 c 0,0.412742 -0.10934,0.738644 -0.32826,0.977733 -0.21644,0.239091 -0.51236,0.35856 -0.88735,0.35856 -0.31208,0 -0.54594,-0.09969 -0.70196,-0.29851 -0.15604,-0.201338 -0.23439,-0.501778 -0.23439,-0.90194 V 24.83541 Z m 10.08692,0 v 2.559484 c 0,0.581364 0.12612,1.023207 0.3778,1.325216 0.25168,0.302007 0.62027,0.453012 1.106,0.453012 0.29446,0 0.5522,-0.06151 0.77368,-0.184819 0.22398,-0.125838 0.42023,-0.317576 0.58886,-0.574282 v 0.64949 h 0.69495 V 24.83541 h -0.69495 v 2.397403 c 0,0.412742 -0.10933,0.738644 -0.32825,0.977733 -0.21644,0.239091 -0.51236,0.35856 -0.88737,0.35856 -0.31208,0 -0.54593,-0.09969 -0.70197,-0.29851 -0.15603,-0.201338 -0.23437,-0.501778 -0.23437,-0.90194 V 24.83541 Z m 39.3175,0 1.71001,4.159889 -0.12418,0.317166 c -0.12835,0.33724 -0.24586,0.551308 -0.35157,0.641912 -0.10572,0.09059 -0.25414,0.135844 -0.44543,0.135844 h -0.40753 v 0.581276 h 0.55505 c 0.31207,0 0.56118,-0.07677 0.74743,-0.230294 0.18623,-0.153521 0.37739,-0.481971 0.57369,-0.985312 l 1.85753,-4.620481 h -0.73637 l -1.32114,3.306924 -1.32114,-3.306924 z m 44.30469,0 v 4.228101 h 0.69439 V 24.83541 Z M 20.635594,25.314657 c 0.367442,0 0.65672,0.145913 0.868126,0.437854 0.211404,0.289423 0.317165,0.689553 0.317165,1.200449 0,0.510895 -0.10576,0.91259 -0.317165,1.204531 -0.211406,0.289423 -0.500684,0.434355 -0.868126,0.434351 -0.367442,0 -0.657303,-0.144928 -0.868707,-0.434351 C 19.557998,27.86555 19.4538,27.463855 19.4538,26.95296 c 0,-0.510896 0.104193,-0.911026 0.313087,-1.200449 0.211404,-0.291941 0.501265,-0.437854 0.868707,-0.437854 z m 163.430816,0 c 0.36743,0 0.6573,0.145913 0.86872,0.437854 0.2114,0.289423 0.31657,0.689553 0.31657,1.200449 0,0.510895 -0.10514,0.91259 -0.31657,1.204531 -0.21142,0.289423 -0.50129,0.434355 -0.86872,0.434351 -0.36745,0 -0.65672,-0.144928 -0.86812,-0.434351 -0.20888,-0.291941 -0.31308,-0.693636 -0.31308,-1.204531 0,-0.510896 0.10413,-0.911026 0.31308,-1.200449 0.2114,-0.291941 0.50067,-0.437854 0.86812,-0.437854 z m -125.578462,0.0075 c 0.369957,0 0.663348,0.147477 0.879784,0.441933 0.216439,0.291941 0.324746,0.687961 0.324746,1.18879 0,0.503344 -0.10831,0.901513 -0.324746,1.193455 -0.216436,0.291938 -0.509827,0.43785 -0.879784,0.43785 -0.374994,0 -0.670344,-0.144931 -0.886784,-0.434353 -0.213921,-0.291941 -0.321246,-0.691091 -0.321246,-1.196952 0,-0.505862 0.108309,-0.903447 0.324745,-1.192869 0.21644,-0.291942 0.510809,-0.437854 0.883285,-0.437854 z m 26.93928,0 c 0.369956,0 0.663347,0.147477 0.879787,0.441933 0.216435,0.291941 0.324745,0.687961 0.324745,1.18879 0,0.503344 -0.10831,0.901513 -0.324745,1.193455 -0.21644,0.291938 -0.509831,0.43785 -0.879787,0.43785 -0.374994,0 -0.670928,-0.144931 -0.887366,-0.434353 C 84.325941,27.85791 84.2192,27.45876 84.2192,26.952899 c -3e-6,-0.505862 0.10831,-0.903447 0.324745,-1.192869 0.216438,-0.291942 0.510806,-0.437854 0.883283,-0.437854 z m 20.268302,0 c 0.34228,0 0.61685,0.1134 0.82324,0.339904 0.20886,0.226505 0.31562,0.530077 0.32066,0.910104 l -2.4761,0.0035 c 0.0352,-0.397645 0.1684,-0.705723 0.39994,-0.924679 0.23406,-0.218956 0.54468,-0.328826 0.93226,-0.328826 z m 49.19686,0 c 0.34227,0 0.61685,0.1134 0.82324,0.339904 0.20864,0.226505 0.3154,0.530077 0.32065,0.910104 l -2.47611,0.0035 c 0.0351,-0.397645 0.16843,-0.705723 0.39996,-0.924679 0.23407,-0.218956 0.54469,-0.328826 0.93226,-0.328826 z m 4.61698,0 c 0.36996,0 0.66336,0.147477 0.87979,0.441933 0.21644,0.291941 0.32473,0.687961 0.32473,1.18879 0,0.503344 -0.10831,0.901513 -0.32473,1.193455 -0.21643,0.291938 -0.50983,0.43785 -0.87979,0.43785 -0.37498,0 -0.67035,-0.144931 -0.88678,-0.434353 -0.21392,-0.291941 -0.32125,-0.691091 -0.32125,-1.196952 0,-0.505862 0.10831,-0.903447 0.32475,-1.192869 0.21643,-0.291942 0.5108,-0.437854 0.88328,-0.437854 z m 58.26117,0 c 0.34227,0 0.61685,0.1134 0.82323,0.339904 0.20866,0.226505 0.31539,0.530077 0.32066,0.910104 l -2.47668,0.0035 c 0.0352,-0.397645 0.169,-0.705723 0.40052,-0.924679 0.23407,-0.218956 0.54469,-0.328826 0.93227,-0.328826 z M 11.310683,26.938363 h 0.690885 v 0.154501 c 0,0.45301 -0.116927,0.816518 -0.35098,1.090842 -0.23154,0.271805 -0.539621,0.408118 -0.924678,0.408115 -0.279358,3e-6 -0.501065,-0.07168 -0.664652,-0.215135 -0.1610685,-0.145971 -0.2413715,-0.342798 -0.2413715,-0.589439 0,-0.309556 0.1083101,-0.528133 0.3247465,-0.656486 0.216436,-0.128351 0.60482,-0.192398 1.16605,-0.192398 z m 21.608677,0 h 0.690885 v 0.154501 c 0,0.45301 -0.116926,0.816518 -0.350982,1.090842 -0.231539,0.271805 -0.539618,0.408118 -0.924676,0.408115 -0.279359,3e-6 -0.501063,-0.07168 -0.664651,-0.215135 -0.16107,-0.145971 -0.241372,-0.342798 -0.241372,-0.589439 0,-0.309556 0.10831,-0.528133 0.324746,-0.656486 0.216439,-0.128351 0.60482,-0.192398 1.16605,-0.192398 z m 11.461118,0 h 0.690883 v 0.154501 c 0,0.45301 -0.116925,0.816518 -0.35098,1.090842 -0.231539,0.271805 -0.539619,0.408118 -0.924678,0.408115 -0.279359,3e-6 -0.501062,-0.07168 -0.664651,-0.215135 -0.161069,-0.145971 -0.241371,-0.342798 -0.241371,-0.589439 0,-0.309556 0.108309,-0.528133 0.324745,-0.656486 0.21644,-0.128351 0.604821,-0.192398 1.166052,-0.192398 z m 31.983033,0 h 0.690303 v 0.154501 c 0,0.45301 -0.116925,0.816518 -0.35098,1.090842 -0.231538,0.271805 -0.539622,0.408118 -0.92468,0.408115 -0.279357,3e-6 -0.501061,-0.07168 -0.664648,-0.215135 -0.16107,-0.145971 -0.241374,-0.342798 -0.241371,-0.589439 0,-0.309556 0.108308,-0.528133 0.324744,-0.656486 0.216438,-0.128351 0.605404,-0.192398 1.166632,-0.192398 z m 59.691329,0 h 0.69089 v 0.154501 c 0,0.45301 -0.11695,0.816518 -0.35099,1.090842 -0.23155,0.271805 -0.53961,0.408118 -0.92467,0.408115 -0.27937,3e-6 -0.50109,-0.07168 -0.66466,-0.215135 -0.16106,-0.145971 -0.24137,-0.342798 -0.24137,-0.589439 0,-0.309556 0.10776,-0.528133 0.32417,-0.656486 0.21643,-0.128351 0.60539,-0.192398 1.16663,-0.192398 z m 38.68724,0 h 0.6909 v 0.154501 c 0,0.45301 -0.11693,0.816518 -0.35099,1.090842 -0.23155,0.271805 -0.54021,0.408118 -0.92526,0.408115 -0.27936,3e-6 -0.50048,-0.07168 -0.66408,-0.215135 -0.16107,-0.145971 -0.24194,-0.342798 -0.24194,-0.589439 0,-0.309556 0.1083,-0.528133 0.32474,-0.656486 0.21643,-0.128351 0.6054,-0.192398 1.16663,-0.192398 z m 24.73428,0 h 0.69088 v 0.154501 c 0,0.45301 -0.11692,0.816518 -0.35098,1.090842 -0.23153,0.271805 -0.53962,0.408118 -0.92466,0.408115 -0.27937,3e-6 -0.50108,-0.07168 -0.66467,-0.215135 -0.16107,-0.145971 -0.24137,-0.342798 -0.24137,-0.589439 0,-0.309556 0.10774,-0.528133 0.32417,-0.656486 0.21643,-0.128351 0.6054,-0.192398 1.16663,-0.192398 z" />
  <path
     d="m 42.975154,4.2173111 c -1.389613,0 -2.481189,0.3233711 -3.275254,0.9699667 -0.788392,0.6465953 -1.182872,1.531584 -1.182872,2.6546182 0,0.9698932 0.286517,1.7271947 0.85938,2.271696 0.57286,0.544502 1.500412,0.944176 2.782257,1.19941 l 1.046449,0.204122 c 0.873471,0.175828 1.499973,0.439509 1.879988,0.791166 0.385689,0.351657 0.578776,0.839569 0.578776,1.463476 0,0.714659 -0.266792,1.264857 -0.799951,1.650546 -0.533157,0.385688 -1.289942,0.578259 -2.271178,0.578259 -0.646597,0 -1.304759,-0.09914 -1.974041,-0.297656 -0.669282,-0.198516 -1.352878,-0.493341 -2.050521,-0.884701 v 1.769401 c 0.726004,0.26658 1.426726,0.467973 2.101681,0.604098 0.680628,0.136125 1.32166,0.204638 1.922881,0.204638 1.593799,0 2.801643,-0.317661 3.624066,-0.952913 0.828099,-0.635251 1.242304,-1.568512 1.242304,-2.799312 0,-1.032284 -0.306245,-1.854469 -0.918808,-2.467033 -0.606894,-0.618236 -1.551572,-1.04957 -2.833418,-1.2934611 L 42.669229,9.6712416 C 41.727696,9.495413 41.086664,9.2654726 40.746349,8.9818782 40.411709,8.6926116 40.244572,8.2669873 40.244572,7.7054703 c 0,-0.6692832 0.252261,-1.1852249 0.75706,-1.5482261 0.510468,-0.3630009 1.233516,-0.5446694 2.169374,-0.5446694 0.538832,0 1.097336,0.076819 1.675868,0.22996 0.578533,0.1531411 1.194134,0.3856781 1.846398,0.6976319 V 4.8643001 C 46.04668,4.6487682 45.414466,4.4868241 44.79623,4.3790583 44.177994,4.2712924 43.570702,4.2173111 42.975154,4.2173111 Z M 0,4.4994643 V 17.201531 h 1.7182414 v -6.066296 h 5.036902 V 9.6893285 H 1.7182414 V 5.9458877 h 5.581571 V 4.4994643 Z m 8.9823974,0 V 17.201531 H 16.886307 V 15.755108 H 10.701155 V 4.4994643 Z m 9.0113356,0 V 17.201531 h 8.184515 v -1.446423 h -6.466274 v -4.60282 h 6.049243 V 9.7063817 h -6.049243 v -3.760494 h 6.31331 V 4.4994643 Z m 10.364226,0 V 17.201531 h 1.718757 v -6.116939 l 6.099887,6.116939 h 2.263428 L 31.684888,10.42055 37.988896,4.4994643 H 35.777143 L 30.076716,9.8676122 V 4.4994643 Z"
     style="fill:#ffffff;stroke:none"
     id="path816" />
</svg>
