<?xml version="1.0" encoding="UTF-8" standalone="no"?>
<svg
   viewBox="0 0 100 50"
   version="1.1"
   id="svg4721"
   width="100"
   height="50"
   sodipodi:docname="formakademisk-thumb.svg"
   inkscape:version="1.1 (c4e8f9e, 2021-05-24)"
   xmlns:inkscape="http://www.inkscape.org/namespaces/inkscape"
   xmlns:sodipodi="http://sodipodi.sourceforge.net/DTD/sodipodi-0.dtd"
   xmlns="http://www.w3.org/2000/svg"
   xmlns:svg="http://www.w3.org/2000/svg"
   xmlns:rdf="http://www.w3.org/1999/02/22-rdf-syntax-ns#"
   xmlns:cc="http://creativecommons.org/ns#"
   xmlns:dc="http://purl.org/dc/elements/1.1/">
  <sodipodi:namedview
     id="namedview10"
     pagecolor="#ffffff"
     bordercolor="#666666"
     borderopacity="1.0"
     inkscape:pageshadow="2"
     inkscape:pageopacity="0.0"
     inkscape:pagecheckerboard="0"
     showgrid="false"
     inkscape:zoom="5.6568543"
     inkscape:cx="73.981047"
     inkscape:cy="23.422912"
     inkscape:window-width="1920"
     inkscape:window-height="1176"
     inkscape:window-x="1920"
     inkscape:window-y="0"
     inkscape:window-maximized="1"
     inkscape:current-layer="svg4721" />
  <metadata
     id="metadata4727">
    <rdf:RDF>
      <cc:Work
         rdf:about="">
        <dc:format>image/svg+xml</dc:format>
        <dc:type
           rdf:resource="http://purl.org/dc/dcmitype/StillImage" />
        <dc:title />
      </cc:Work>
    </rdf:RDF>
  </metadata>
  <defs
     id="defs4725" />
  <rect
     style="opacity:1;vector-effect:none;fill:#bc544a;fill-opacity:1;stroke:none;stroke-width:2.000002;stroke-linecap:butt;stroke-linejoin:miter;stroke-miterlimit:4;stroke-dasharray:none;stroke-dashoffset:0;stroke-opacity:1;paint-order:fill markers stroke"
     id="rect5315"
     width="100"
     height="50"
     x="0"
     y="0"
     ry="0.415642" />
  <path
     id="path1068"
     style="fill:#ffffff;stroke-width:0.1;stroke:#ffffff;stroke-linejoin:round;stroke-linecap:round"
     d="M 81.916016 22.650391 L 81.806641 22.654297 C 81.736271 23.387456 81.650157 24.118707 81.544922 24.847656 L 81.378906 25.988281 L 81.214844 27.068359 C 81.356911 27.050599 81.500511 27.050599 81.642578 27.068359 C 81.642578 26.90393 81.652791 26.686915 81.675781 26.423828 C 81.716891 25.841648 81.771445 25.259301 81.839844 24.679688 L 81.939453 23.832031 L 81.949219 23.832031 C 82.218883 24.391091 82.487531 24.93014 82.753906 25.462891 C 83.023571 25.995643 83.2807 26.52389 83.527344 27.056641 L 83.580078 27.056641 C 83.826723 26.484427 84.082516 25.936949 84.355469 25.414062 C 84.628422 24.887888 84.904681 24.360159 85.1875 23.833984 L 85.201172 23.833984 C 85.266942 24.37989 85.322482 24.913279 85.365234 25.439453 L 85.5 27.068359 L 85.644531 27.056641 L 85.933594 27.056641 L 86.080078 27.068359 C 86.030748 26.719769 85.982821 26.366887 85.943359 26.011719 L 85.820312 24.933594 C 85.733492 24.174456 85.649877 23.414455 85.572266 22.654297 L 85.494141 22.654297 L 85.164062 23.279297 L 84.802734 23.958984 L 84.447266 24.644531 C 84.332166 24.868155 84.224376 25.078793 84.119141 25.269531 L 83.853516 25.785156 L 83.671875 26.130859 C 83.359459 25.535624 83.057592 24.956879 82.771484 24.394531 C 82.482088 23.832182 82.195546 23.248914 81.916016 22.650391 z M 57.162109 22.654297 C 56.542868 24.134952 55.904799 25.606726 55.246094 27.070312 C 55.395725 27.052882 55.545682 27.052883 55.695312 27.070312 C 55.751222 26.872996 55.827023 26.629957 55.935547 26.333984 C 56.040782 26.038011 56.162761 25.725343 56.291016 25.396484 L 56.666016 25.386719 L 57.445312 25.386719 L 57.84375 25.396484 L 58.017578 25.833984 L 58.195312 26.287109 C 58.296273 26.544113 58.389106 26.805864 58.474609 27.068359 L 58.638672 27.056641 L 58.960938 27.056641 L 59.125 27.068359 C 58.957611 26.703457 58.795538 26.33435 58.638672 25.964844 C 58.402551 25.413807 58.173501 24.860788 57.949219 24.304688 L 57.595703 23.443359 L 57.277344 22.654297 L 57.162109 22.654297 z M 62.826172 22.654297 C 62.490736 22.654297 62.177967 22.702742 61.898438 22.804688 C 61.349572 22.994734 60.910038 23.416518 60.697266 23.957031 C 60.580521 24.261193 60.523378 24.584421 60.529297 24.910156 C 60.529297 25.271901 60.585458 25.587658 60.697266 25.867188 C 60.893924 26.406845 61.326175 26.826611 61.871094 27.007812 C 62.424564 27.195097 63.024286 27.201838 63.582031 27.027344 C 63.690554 26.994454 63.788261 26.96134 63.867188 26.921875 C 63.946117 26.879125 64.006795 26.843429 64.042969 26.810547 L 64.097656 26.439453 L 64.072266 26.412109 L 63.861328 26.578125 C 63.669932 26.710754 63.458965 26.813015 63.236328 26.880859 C 62.878529 26.967739 62.503505 26.945949 62.158203 26.818359 C 61.952009 26.738279 61.767457 26.609577 61.619141 26.445312 C 61.454712 26.264374 61.331805 26.05129 61.257812 25.818359 C 61.165732 25.52597 61.122 25.220493 61.128906 24.914062 C 61.128906 24.562183 61.170973 24.262369 61.259766 24.005859 C 61.341976 23.752637 61.464578 23.542718 61.619141 23.375 C 61.766799 23.212247 61.949417 23.085311 62.154297 23.005859 C 62.361478 22.926929 62.586105 22.886719 62.826172 22.886719 C 62.974159 22.886719 63.110744 22.907796 63.232422 22.947266 C 63.52708 23.038226 63.790945 23.211835 63.990234 23.447266 L 64.029297 23.433594 C 64.042447 23.367824 64.061685 23.285541 64.078125 23.183594 C 64.097855 23.084934 64.125313 23.002554 64.158203 22.943359 C 63.742525 22.745386 63.286575 22.646668 62.826172 22.654297 z M 67.337891 22.654297 C 66.709442 24.130545 66.068143 25.602437 65.416016 27.068359 C 65.566633 27.050599 65.720477 27.050599 65.871094 27.068359 C 65.923714 26.877621 66.002805 26.629957 66.111328 26.333984 C 66.216563 26.038011 66.335254 25.725343 66.466797 25.396484 L 66.841797 25.386719 L 67.617188 25.386719 L 68.015625 25.396484 L 68.189453 25.833984 L 68.369141 26.287109 C 68.466811 26.545297 68.561599 26.806982 68.650391 27.068359 L 68.810547 27.056641 L 69.136719 27.056641 L 69.300781 27.068359 C 69.244871 26.969699 69.175964 26.82098 69.09375 26.626953 L 68.810547 25.96875 C 68.574426 25.416596 68.345376 24.86184 68.121094 24.304688 L 67.771484 23.443359 L 67.453125 22.654297 L 67.337891 22.654297 z M 93.080078 22.654297 C 92.76471 22.650866 92.450369 22.701101 92.152344 22.804688 C 91.604136 22.995885 91.167212 23.417275 90.953125 23.957031 C 90.837038 24.261324 90.779894 24.584487 90.785156 24.910156 C 90.785156 25.271901 90.841317 25.587658 90.953125 25.867188 C 91.149783 26.406845 91.582034 26.826611 92.126953 27.007812 C 92.680423 27.195097 93.278192 27.201838 93.835938 27.027344 C 93.94775 26.994454 94.044121 26.96134 94.123047 26.921875 C 94.205257 26.879125 94.261318 26.843429 94.300781 26.810547 L 94.353516 26.439453 L 94.326172 26.412109 L 94.117188 26.578125 C 93.927106 26.712859 93.715812 26.815284 93.492188 26.880859 C 93.134389 26.967149 92.757411 26.945359 92.412109 26.818359 C 92.204928 26.738419 92.020725 26.609742 91.871094 26.445312 C 91.70798 26.264143 91.584725 26.05106 91.511719 25.818359 C 91.420629 25.525773 91.376563 25.22046 91.382812 24.914062 C 91.382812 24.562183 91.426832 24.262369 91.515625 24.005859 C 91.587645 23.772435 91.708966 23.557681 91.871094 23.375 C 92.025658 23.21057 92.206263 23.084785 92.410156 23.005859 C 92.617337 22.926929 92.840011 22.886719 93.080078 22.886719 C 93.228065 22.886719 93.366603 22.907796 93.488281 22.947266 C 93.782939 23.040136 94.046128 23.213348 94.248047 23.447266 L 94.283203 23.433594 L 94.333984 23.183594 C 94.353714 23.084934 94.379219 23.002554 94.412109 22.943359 C 93.997282 22.746505 93.543053 22.64788 93.083984 22.654297 L 93.082031 22.654297 L 93.080078 22.654297 z M 71.177734 22.730469 C 71.190884 23.009999 71.204358 23.279164 71.210938 23.548828 C 71.220838 23.811915 71.228516 24.08704 71.228516 24.363281 L 71.228516 25.449219 C 71.228516 25.728749 71.220778 26.00182 71.210938 26.271484 L 71.177734 27.064453 C 71.315854 27.057853 71.455012 27.050781 71.589844 27.050781 L 72 27.050781 L 72.412109 27.056641 L 72.822266 27.064453 C 73.062333 27.064453 73.316991 27.030712 73.580078 26.955078 C 74.136508 26.795582 74.59581 26.404699 74.841797 25.880859 C 74.983206 25.594752 75.052734 25.239917 75.052734 24.822266 C 75.052734 24.496696 75.017038 24.203157 74.941406 23.943359 C 74.873656 23.699904 74.748145 23.475888 74.578125 23.289062 C 74.405145 23.104737 74.19089 22.962851 73.953125 22.876953 C 73.656494 22.772244 73.343686 22.723596 73.029297 22.730469 C 72.874733 22.730469 72.721587 22.736254 72.570312 22.746094 C 72.106622 22.770434 71.640438 22.765979 71.177734 22.730469 z M 77.173828 22.730469 C 77.200138 23.272725 77.218992 23.814542 77.226562 24.357422 L 77.226562 25.443359 C 77.226562 25.7196 77.218824 25.992054 77.208984 26.261719 L 77.177734 27.064453 C 77.362881 27.055853 77.546946 27.051101 77.732422 27.050781 L 78.84375 27.050781 C 79.027911 27.050781 79.211706 27.057903 79.392578 27.064453 C 79.379428 27.021703 79.373047 26.966161 79.373047 26.900391 L 79.373047 26.800781 C 79.376347 26.767891 79.380785 26.736015 79.390625 26.703125 C 79.291965 26.726145 79.176465 26.742083 79.044922 26.751953 C 78.75158 26.774973 78.458063 26.786176 78.164062 26.785156 L 77.736328 26.785156 C 77.729728 26.706226 77.726562 26.588158 77.726562 26.433594 L 77.722656 25.839844 L 77.722656 25.216797 L 77.722656 24.925781 L 78.019531 24.925781 C 78.147786 24.932381 78.281801 24.932247 78.419922 24.935547 C 78.68564 24.942747 78.950112 24.959072 79.214844 24.982422 C 79.188534 24.855548 79.188534 24.72453 79.214844 24.597656 L 78.929688 24.621094 C 78.688635 24.635234 78.448414 24.646397 78.207031 24.654297 C 78.068911 24.660897 77.904147 24.660156 77.726562 24.660156 L 77.726562 24.308594 L 77.722656 23.828125 C 77.722656 23.673561 77.722522 23.531834 77.732422 23.410156 L 77.75 23.025391 C 78.053866 23.025424 78.356948 23.036554 78.660156 23.058594 L 79.001953 23.085938 L 79.361328 23.107422 C 79.335018 22.982719 79.335018 22.855172 79.361328 22.730469 L 78.814453 22.751953 C 78.449419 22.765433 78.083784 22.765433 77.71875 22.751953 L 77.173828 22.730469 z M 88.148438 22.730469 L 88.179688 23.548828 C 88.189588 23.811915 88.197266 24.08704 88.197266 24.363281 L 88.197266 25.449219 C 88.197266 25.728749 88.189528 26.00182 88.179688 26.271484 L 88.148438 27.064453 C 88.347397 27.046693 88.547135 27.046693 88.746094 27.064453 C 88.716494 26.527755 88.701546 25.990579 88.697266 25.453125 L 88.697266 24.367188 C 88.697266 24.087657 88.703051 23.814587 88.712891 23.544922 L 88.746094 22.730469 L 88.595703 22.751953 C 88.497373 22.765103 88.397157 22.765103 88.298828 22.751953 L 88.148438 22.730469 z M 72.710938 22.992188 L 72.712891 22.992188 L 72.714844 22.992188 C 72.966506 22.992467 73.198855 23.018607 73.408203 23.074219 C 73.621961 23.126839 73.803085 23.222589 73.960938 23.357422 C 74.112212 23.495542 74.233474 23.679238 74.322266 23.916016 C 74.407766 24.149506 74.453125 24.453325 74.453125 24.818359 C 74.453125 25.23601 74.395019 25.574803 74.283203 25.837891 C 74.118115 26.304936 73.726577 26.654713 73.244141 26.767578 C 73.020517 26.823488 72.797225 26.849609 72.570312 26.849609 C 72.415749 26.849609 72.26322 26.843824 72.115234 26.833984 C 71.967247 26.824084 71.853082 26.806839 71.767578 26.787109 C 71.741268 26.349727 71.730469 25.903044 71.730469 25.449219 L 71.730469 24.363281 C 71.730469 24.136369 71.730334 23.913694 71.740234 23.693359 C 71.746834 23.473023 71.756371 23.259198 71.769531 23.058594 C 72.081314 23.018111 72.39654 22.995489 72.710938 22.992188 z M 57.074219 23.5 L 57.753906 25.103516 L 57.410156 25.111328 L 57.066406 25.113281 L 56.738281 25.111328 L 56.40625 25.103516 L 57.074219 23.5 z M 67.246094 23.5 L 67.929688 25.103516 L 67.583984 25.111328 L 67.242188 25.113281 L 66.914062 25.111328 L 66.578125 25.103516 L 67.246094 23.5 z M 57.162109 28.675781 C 56.542196 30.155855 55.903473 31.627979 55.246094 33.091797 C 55.395278 33.073567 55.546129 33.073567 55.695312 33.091797 C 55.748312 32.897797 55.827047 32.655375 55.935547 32.359375 C 56.040747 32.063475 56.162716 31.750675 56.291016 31.421875 L 56.666016 31.412109 L 57.041016 31.412109 L 57.445312 31.412109 L 57.84375 31.421875 L 58.017578 31.859375 L 58.195312 32.3125 C 58.295845 32.569541 58.388982 32.829414 58.474609 33.091797 C 58.533609 33.081797 58.586072 33.078125 58.638672 33.078125 L 58.960938 33.078125 C 59.013936 33.078125 59.0691 33.088797 59.125 33.091797 C 58.956969 32.727252 58.794839 32.360017 58.638672 31.990234 C 58.403466 31.439102 58.173638 30.88569 57.949219 30.330078 L 57.595703 29.46875 L 57.28125 28.679688 L 57.162109 28.675781 z M 81.925781 28.675781 A 60.1417 60.1417 0 0 1 81.492188 32.013672 L 81.326172 33.091797 A 1.65416 1.65416 0 0 1 81.753906 33.091797 C 81.753906 32.924097 81.771109 32.709759 81.787109 32.443359 A 40.1504 40.1504 0 0 1 81.958984 30.705078 L 82.052734 29.855469 L 82.066406 29.855469 C 82.336106 30.411269 82.606747 30.953528 82.873047 31.486328 C 83.139447 32.019028 83.399178 32.548725 83.642578 33.078125 L 83.697266 33.078125 A 24.2369 24.2369 0 0 1 84.474609 31.433594 C 84.747509 30.910794 85.023841 30.384969 85.306641 29.855469 L 85.318359 29.855469 C 85.384359 30.401369 85.438275 30.940697 85.484375 31.466797 C 85.530375 31.992997 85.572734 32.532697 85.615234 33.091797 C 85.668234 33.081797 85.714672 33.078125 85.763672 33.078125 L 86.048828 33.078125 C 86.097828 33.078125 86.143659 33.088797 86.193359 33.091797 A 43.2778 43.2778 0 0 1 86.0625 32.037109 L 85.9375 30.957031 L 85.816406 29.845703 C 85.780406 29.470903 85.737306 29.080281 85.691406 28.675781 L 85.611328 28.675781 L 85.279297 29.300781 L 84.921875 29.980469 L 84.566406 30.667969 L 84.238281 31.292969 A 40.2852 40.2852 0 0 0 83.791016 32.154297 C 83.478516 31.562397 83.172819 30.980269 82.886719 30.417969 C 82.597319 29.852269 82.31405 29.274281 82.03125 28.675781 L 81.925781 28.675781 z M 92.353516 28.675781 A 1.61141 1.61141 0 0 0 91.804688 28.763672 C 91.640186 28.822672 91.499259 28.906519 91.380859 29.011719 C 91.265759 29.117019 91.176386 29.242019 91.117188 29.386719 C 91.051187 29.531419 91.025391 29.691541 91.025391 29.869141 C 91.025391 30.119041 91.071222 30.312936 91.169922 30.460938 C 91.268922 30.608937 91.382644 30.730166 91.527344 30.822266 C 91.668744 30.921266 91.823881 30.998147 91.988281 31.060547 C 92.152681 31.126547 92.311725 31.190631 92.453125 31.269531 C 92.597825 31.345531 92.715753 31.440934 92.814453 31.552734 C 92.909453 31.667834 92.955078 31.819672 92.955078 32.013672 A 0.993154 0.993154 0 0 1 92.71875 32.662109 A 0.841879 0.841879 0 0 1 92.080078 32.927734 A 0.993154 0.993154 0 0 1 91.443359 32.714844 A 1.25295 1.25295 0 0 1 91.111328 32.273438 L 91.035156 32.273438 A 1.80215 1.80215 0 0 1 90.919922 32.832031 C 91.025222 32.924031 91.156553 32.999259 91.314453 33.068359 C 91.472253 33.140359 91.675141 33.173828 91.931641 33.173828 C 92.168441 33.173828 92.379006 33.140559 92.566406 33.068359 A 1.29242 1.29242 0 0 0 93.333984 32.322266 C 93.399984 32.151266 93.431641 31.967437 93.431641 31.773438 A 0.95698 0.95698 0 0 0 92.931641 30.878906 C 92.786941 30.789906 92.63645 30.71545 92.46875 30.65625 C 92.30425 30.59425 92.149312 30.522866 92.007812 30.447266 A 1.24966 1.24966 0 0 1 91.646484 30.158203 A 0.707047 0.707047 0 0 1 91.501953 29.691406 C 91.501953 29.579606 91.521547 29.475553 91.560547 29.376953 A 0.716913 0.716913 0 0 1 91.978516 28.96875 A 0.835302 0.835302 0 0 1 92.587891 28.96875 A 0.808993 0.808993 0 0 1 92.941406 29.310547 C 92.974406 29.379547 93.003435 29.441506 93.023438 29.503906 L 93.095703 29.503906 A 1.60154 1.60154 0 0 1 93.259766 28.974609 C 93.138066 28.872609 93.006634 28.797347 92.865234 28.748047 A 1.58839 1.58839 0 0 0 92.353516 28.675781 z M 67.455078 28.679688 C 66.826628 30.155936 66.187284 31.625875 65.535156 33.091797 C 65.685774 33.074037 65.837663 33.074037 65.988281 33.091797 C 66.040901 32.901059 66.119992 32.655348 66.228516 32.359375 C 66.333751 32.063402 66.452441 31.750734 66.583984 31.421875 L 66.958984 31.412109 L 67.734375 31.412109 L 68.132812 31.421875 L 68.306641 31.859375 L 68.488281 32.3125 C 68.585951 32.570688 68.678786 32.83042 68.767578 33.091797 L 68.927734 33.082031 L 69.253906 33.082031 L 69.417969 33.091797 C 69.362059 32.993137 69.293153 32.846371 69.210938 32.652344 L 68.927734 31.994141 C 68.691613 31.441987 68.462563 30.887231 68.238281 30.330078 L 67.888672 29.46875 L 67.570312 28.679688 L 67.455078 28.679688 z M 61.007812 28.757812 C 61.020812 29.034112 61.032065 29.305866 61.039062 29.572266 C 61.052062 29.841966 61.060547 30.115031 61.060547 30.394531 L 61.060547 31.480469 C 61.060547 31.753369 61.048969 32.030575 61.042969 32.296875 L 61.011719 33.091797 C 61.210567 33.074607 61.410527 33.074607 61.609375 33.091797 C 61.580235 32.555154 61.563957 32.017891 61.560547 31.480469 L 61.560547 30.927734 C 61.560547 30.904734 61.57075 30.892578 61.59375 30.892578 C 61.60975 30.892578 61.633016 30.909406 61.666016 30.941406 C 61.732016 31.007406 61.829303 31.124662 61.970703 31.289062 C 62.462995 31.887232 62.951935 32.488154 63.4375 33.091797 C 63.4935 33.081797 63.552869 33.078125 63.605469 33.078125 L 63.960938 33.078125 C 64.021726 33.07848 64.08242 33.083027 64.142578 33.091797 C 63.797278 32.690597 63.450634 32.296337 63.115234 31.898438 C 62.779834 31.500538 62.445381 31.108062 62.113281 30.726562 C 62.225081 30.594963 62.362944 30.445178 62.527344 30.267578 C 63.023289 29.745211 63.538624 29.241603 64.072266 28.757812 C 63.975436 28.775243 63.877572 28.786346 63.779297 28.791016 L 63.658203 28.78125 L 63.527344 28.757812 C 63.225838 29.110034 62.919823 29.458369 62.609375 29.802734 C 62.451475 29.977034 62.292566 30.141534 62.134766 30.302734 C 61.990249 30.450699 61.840411 30.593371 61.685547 30.730469 C 61.642547 30.769469 61.612609 30.789063 61.599609 30.789062 C 61.573609 30.789062 61.564453 30.772328 61.564453 30.736328 L 61.564453 30.392578 C 61.564453 30.116278 61.574048 29.843919 61.580078 29.574219 L 61.613281 28.757812 C 61.514231 28.773402 61.414514 28.784486 61.314453 28.791016 L 61.166016 28.78125 L 61.011719 28.757812 L 61.007812 28.757812 z M 71.296875 28.757812 L 71.330078 29.576172 C 71.343078 29.839272 71.349609 30.116278 71.349609 30.392578 L 71.349609 31.476562 C 71.349609 31.752762 71.339984 32.029228 71.333984 32.298828 L 71.300781 33.091797 C 71.435581 33.081797 71.574184 33.078125 71.708984 33.078125 L 72.119141 33.078125 L 72.53125 33.087891 L 72.941406 33.099609 C 73.181506 33.099609 73.436119 33.062128 73.699219 32.986328 A 1.9896 1.9896 0 0 0 74.960938 31.914062 C 75.105638 31.627962 75.175781 31.274416 75.175781 30.853516 C 75.175781 30.531216 75.135647 30.238316 75.060547 29.978516 A 1.58181 1.58181 0 0 0 74.072266 28.908203 A 2.61114 2.61114 0 0 0 73.152344 28.763672 C 72.994444 28.763672 72.840753 28.76425 72.689453 28.78125 A 6.75148 6.75148 0 0 1 71.761719 28.791016 L 71.300781 28.767578 L 71.296875 28.757812 z M 77.294922 28.757812 C 77.310922 29.027513 77.318125 29.296806 77.328125 29.566406 C 77.338125 29.836106 77.34375 30.109072 77.34375 30.388672 L 77.34375 31.474609 C 77.34375 31.750809 77.334125 32.019363 77.328125 32.289062 L 77.294922 33.091797 C 77.482322 33.081797 77.666016 33.078125 77.853516 33.078125 L 78.966797 33.078125 A 11.8389 11.8389 0 0 1 79.515625 33.091797 C 79.502625 33.048797 79.494141 32.997134 79.494141 32.927734 L 79.494141 32.828125 C 79.494141 32.795125 79.505719 32.761516 79.511719 32.728516 C 79.412719 32.751516 79.297516 32.770297 79.166016 32.779297 A 14.4435 14.4435 0 0 1 78.285156 32.810547 L 77.857422 32.810547 C 77.857422 32.734547 77.84375 32.613484 77.84375 32.458984 L 77.84375 31.078125 L 77.84375 30.953125 L 78.140625 30.953125 L 78.541016 30.962891 A 11.4509 11.4509 0 0 1 79.333984 31.009766 A 0.927382 0.927382 0 0 1 79.333984 30.625 L 79.050781 30.648438 L 78.722656 30.667969 A 14.1903 14.1903 0 0 1 77.84375 30.6875 L 77.84375 29.855469 C 77.84375 29.700969 77.843516 29.559706 77.853516 29.441406 L 77.869141 29.052734 A 12.5197 12.5197 0 0 1 79.126953 29.111328 L 79.484375 29.134766 A 0.937248 0.937248 0 0 1 79.484375 28.757812 A 55.495 55.495 0 0 1 78.392578 28.789062 A 15.2032 15.2032 0 0 1 77.294922 28.757812 z M 88.265625 28.757812 L 88.298828 29.576172 C 88.308828 29.839272 88.314453 30.116278 88.314453 30.392578 L 88.314453 31.476562 C 88.314453 31.752762 88.304828 32.029228 88.298828 32.298828 L 88.265625 33.091797 A 3.30832 3.30832 0 0 1 88.865234 33.091797 L 88.832031 32.296875 C 88.822031 32.030575 88.816406 31.752764 88.816406 31.476562 L 88.816406 30.392578 C 88.816406 30.116278 88.826031 29.842572 88.832031 29.576172 L 88.865234 28.757812 A 6.00825 6.00825 0 0 1 88.568359 28.791016 A 3.16691 3.16691 0 0 1 88.269531 28.757812 L 88.265625 28.757812 z M 95.488281 28.757812 L 95.521484 29.572266 C 95.534484 29.841966 95.537109 30.115031 95.537109 30.394531 L 95.537109 31.480469 C 95.537109 31.753369 95.536436 32.030575 95.523438 32.296875 L 95.490234 33.091797 A 3.40369 3.40369 0 0 1 96.089844 33.091797 C 96.072844 32.828697 96.063641 32.566575 96.056641 32.296875 C 96.046641 32.030575 96.041016 31.752764 96.041016 31.476562 L 96.041016 30.927734 C 96.041016 30.904734 96.050313 30.892578 96.070312 30.892578 C 96.086315 30.892578 96.113484 30.909406 96.146484 30.941406 C 96.212484 31.007406 96.311119 31.124662 96.449219 31.289062 L 96.910156 31.849609 L 97.429688 32.5 L 97.916016 33.091797 C 97.975016 33.081797 98.030034 33.078125 98.085938 33.078125 L 98.4375 33.078125 C 98.4995 33.078125 98.560547 33.078797 98.623047 33.091797 C 98.274447 32.690597 97.931103 32.296337 97.595703 31.898438 L 96.59375 30.726562 C 96.70235 30.594963 96.840113 30.445178 97.007812 30.267578 A 26.016 26.016 0 0 1 98.070312 29.205078 C 98.251212 29.034078 98.411334 28.882812 98.552734 28.757812 A 2.38423 2.38423 0 0 1 98.257812 28.791016 A 2.01919 2.01919 0 0 1 98.003906 28.757812 L 97.564453 29.28125 A 28.9462 28.9462 0 0 1 96.613281 30.302734 C 96.455381 30.463834 96.303509 30.605469 96.162109 30.730469 C 96.123109 30.769469 96.097125 30.789062 96.078125 30.789062 C 96.055125 30.789062 96.041016 30.772328 96.041016 30.736328 L 96.041016 30.392578 C 96.041016 30.116278 96.052594 29.843919 96.058594 29.574219 L 96.089844 28.757812 A 3.55168 3.55168 0 0 1 95.791016 28.791016 L 95.642578 28.78125 L 95.492188 28.757812 L 95.488281 28.757812 z M 72.830078 29.021484 L 72.832031 29.021484 L 72.833984 29.021484 C 73.088783 29.021813 73.316675 29.051802 73.529297 29.103516 C 73.742997 29.156516 73.923525 29.246666 74.078125 29.384766 C 74.229325 29.522966 74.352606 29.708512 74.441406 29.945312 C 74.530406 30.178812 74.572266 30.480603 74.572266 30.845703 A 2.63087 2.63087 0 0 1 74.404297 31.865234 C 74.289197 32.128334 74.144397 32.335028 73.966797 32.486328 A 1.44698 1.44698 0 0 1 73.365234 32.794922 C 73.138334 32.847922 72.915006 32.876953 72.691406 32.876953 C 72.533506 32.876953 72.382981 32.867328 72.238281 32.861328 C 72.090381 32.851328 71.973566 32.836406 71.884766 32.816406 A 22.2638 22.2638 0 0 1 71.849609 31.476562 L 71.849609 30.392578 A 15.2032 15.2032 0 0 1 71.888672 29.085938 A 7.9255 7.9255 0 0 1 72.830078 29.021484 z M 67.363281 29.523438 L 68.046875 31.128906 L 67.701172 31.134766 L 67.359375 31.138672 L 67.03125 31.134766 L 66.695312 31.128906 L 67.363281 29.523438 z M 57.076172 29.527344 L 57.757812 31.128906 L 57.412109 31.138672 L 57.070312 31.138672 C 56.965013 31.138672 56.853986 31.13894 56.742188 31.128906 L 56.410156 31.128906 L 57.076172 29.527344 z " />
  <path
     id="path1060"
     style="fill:#ffffff;stroke-width:0.328859"
     d="M 8.2011719 16.382812 A 2.55852 2.55852 0 0 0 6.4589844 16.998047 L 5.0839844 18.228516 C 4.2289444 18.971716 3.6737581 19.509597 3.4238281 19.841797 A 2.13758 2.13758 0 0 0 3.0957031 20.480469 C 3.0299031 20.700869 2.9723331 21.071456 2.9394531 21.597656 A 20.9483 20.9483 0 0 0 2.890625 22.927734 C 2.890625 23.042834 2.8389144 23.130119 2.7402344 23.199219 C 2.7073344 23.229219 2.181465 23.506397 1.171875 24.029297 L 1.171875 24.587891 L 2.7167969 24.519531 L 3.0351562 24.529297 L 3.0351562 27.943359 C 3.0219563 30.021659 2.9902 31.257744 2.9375 31.652344 C 2.9112 31.872644 2.8385313 32.023269 2.7070312 32.105469 C 2.5426013 32.210669 2.0097344 32.293069 1.1152344 32.355469 L 1.1152344 33.220703 C 2.7003344 33.181703 3.7301913 33.164062 4.2070312 33.164062 L 8.0859375 33.220703 L 8.0859375 32.355469 C 7.0993675 32.279869 6.5837656 32.237069 6.5410156 32.230469 C 6.3568556 32.197569 6.2287044 32.151131 6.1464844 32.082031 C 6.0675644 32.016231 6.0088262 31.928814 5.9726562 31.820312 C 5.9266163 31.669013 5.8927769 31.228281 5.8730469 30.488281 C 5.8566069 29.751681 5.8476562 28.974409 5.8476562 28.162109 L 5.8476562 24.529297 C 6.5053763 24.506297 6.9028956 24.496094 7.0410156 24.496094 L 7.609375 24.519531 L 8.7617188 24.541016 L 8.9414062 23.529297 C 8.9611064 23.394397 8.99175 23.259159 9.03125 23.130859 L 8.8828125 23.015625 C 8.4059625 23.048625 7.8405931 23.074891 7.1894531 23.087891 L 5.8476562 23.097656 L 5.8476562 21.519531 C 5.8476562 20.309331 5.8935919 19.5526 5.9824219 19.25 C 6.0449219 19.0461 6.16616 18.882072 6.34375 18.763672 A 1.90738 1.90738 0 0 1 7.3964844 18.513672 C 7.6990344 18.513672 7.9491644 18.553413 8.1464844 18.632812 C 8.3437944 18.711813 8.55434 18.857959 8.78125 19.068359 L 9.2382812 18.865234 C 9.2218313 18.168134 9.2715144 17.408744 9.3964844 16.589844 C 8.9689644 16.451744 8.5727819 16.386719 8.2011719 16.386719 L 8.2011719 16.382812 z M 15.917969 22.095703 C 14.750469 22.095703 13.727103 22.312734 12.845703 22.740234 A 4.27517 4.27517 0 0 0 10.869141 24.646484 C 10.428441 25.494884 10.210936 26.560409 10.210938 27.849609 C 10.210938 29.747109 10.670963 31.181503 11.601562 32.158203 C 12.528963 33.131703 13.851053 33.619141 15.564453 33.619141 C 16.616753 33.619141 17.568256 33.419991 18.410156 33.025391 C 18.903456 32.791891 19.373112 32.443428 19.820312 31.986328 A 4.89013 4.89013 0 0 0 20.888672 30.171875 A 7.99127 7.99127 0 0 0 21.287109 27.507812 C 21.287109 25.735212 20.830216 24.390156 19.916016 23.472656 C 19.001816 22.551856 17.670769 22.095703 15.917969 22.095703 z M 26.716797 22.1875 A 9.3659 9.3659 0 0 1 25.240234 22.732422 C 24.806134 22.847522 23.894266 23.019059 22.509766 23.255859 L 22.509766 24.144531 C 23.226666 24.167531 23.658034 24.203059 23.802734 24.255859 C 23.894734 24.288859 23.961106 24.334691 24.003906 24.400391 C 24.043906 24.466391 24.080516 24.735956 24.103516 25.222656 C 24.136516 26.182956 24.158203 26.999022 24.158203 27.669922 L 24.158203 29.15625 C 24.158203 29.63315 24.159484 29.977 24.146484 30.1875 L 24.103516 31.197266 A 2.09483 2.09483 0 0 1 23.978516 32.013672 C 23.925516 32.105672 23.843581 32.170831 23.738281 32.207031 C 23.508081 32.289031 23.099712 32.332031 22.507812 32.332031 L 22.507812 33.220703 C 23.773913 33.181703 24.997875 33.162109 26.171875 33.162109 C 27.224175 33.162109 28.180764 33.181703 29.039062 33.220703 L 29.039062 32.332031 L 28.105469 32.244141 A 2.03235 2.03235 0 0 1 27.318359 32.082031 C 27.199959 32.006031 27.120791 31.904331 27.087891 31.769531 C 27.054891 31.637931 27.033438 31.279366 27.023438 30.697266 L 27 29.152344 L 27 28.017578 C 27 26.906078 27.014922 26.267409 27.044922 26.099609 C 27.106922 25.810209 27.298894 25.528153 27.621094 25.251953 A 1.71336 1.71336 0 0 1 28.771484 24.837891 C 29.110184 24.837891 29.417766 24.917025 29.697266 25.078125 C 29.871566 25.177125 30.051388 25.347756 30.242188 25.597656 L 30.71875 25.453125 C 30.73175 25.321525 30.749625 24.817553 30.765625 23.939453 L 30.847656 22.322266 A 2.03564 2.03564 0 0 0 30.089844 22.189453 C 29.642544 22.189453 29.284719 22.278284 29.011719 22.458984 C 28.817719 22.590484 28.522159 22.887122 28.130859 23.357422 C 27.867759 23.692822 27.49 24.114594 27 24.621094 L 27.025391 22.322266 L 26.716797 22.1875 z M 36.142578 22.1875 A 9.26067 9.26067 0 0 1 34.675781 22.732422 C 34.244981 22.847522 33.339578 23.022359 31.955078 23.255859 L 31.955078 24.144531 C 32.675278 24.167531 33.107253 24.203059 33.251953 24.255859 C 33.343953 24.288859 33.411772 24.334691 33.451172 24.400391 C 33.494172 24.466391 33.523781 24.735956 33.550781 25.222656 C 33.586781 26.182956 33.607422 26.997675 33.607422 27.671875 L 33.607422 29.15625 C 33.607422 29.63315 33.59675 29.977 33.59375 30.1875 L 33.550781 31.197266 A 2.09154 2.09154 0 0 1 33.425781 32.013672 C 33.369781 32.105672 33.294147 32.171537 33.185547 32.210938 C 32.955347 32.289938 32.547078 32.332031 31.955078 32.332031 L 31.955078 33.220703 A 82.2148 82.2148 0 0 1 35.033203 33.173828 C 36.184203 33.173828 37.168775 33.190703 37.984375 33.220703 L 37.984375 32.332031 C 37.385875 32.286031 37.032934 32.250503 36.927734 32.220703 A 0.568926 0.568926 0 0 1 36.619141 32.048828 C 36.560141 31.972828 36.520613 31.793306 36.507812 31.503906 A 36.898 36.898 0 0 1 36.451172 29.152344 L 36.451172 27.166016 C 36.441172 26.120316 36.461141 25.525559 36.494141 25.380859 A 2.0455 2.0455 0 0 1 37.185547 24.611328 A 2.08168 2.08168 0 0 1 38.460938 24.222656 C 38.921337 24.222656 39.296537 24.331828 39.585938 24.548828 A 1.52591 1.52591 0 0 1 40.164062 25.353516 C 40.259062 25.675816 40.304688 26.221341 40.304688 26.994141 L 40.304688 28.605469 L 40.283203 30.619141 C 40.283203 31.240641 40.250172 31.634934 40.201172 31.802734 C 40.148172 31.973734 40.079034 32.088631 39.990234 32.144531 A 1.64429 1.64429 0 0 1 39.355469 32.267578 C 39.125269 32.287578 38.937669 32.309031 38.792969 32.332031 L 38.792969 33.220703 C 39.467069 33.187703 40.510469 33.173828 41.917969 33.173828 C 43.187369 33.173828 44.155978 33.190703 44.830078 33.220703 L 44.830078 32.332031 L 43.90625 32.220703 C 43.68595 32.187703 43.545663 32.154434 43.476562 32.115234 C 43.394562 32.062234 43.327956 31.984106 43.285156 31.878906 C 43.239156 31.773706 43.210031 31.583581 43.207031 31.300781 L 43.173828 30.378906 L 43.146484 29.244141 L 43.146484 26.496094 C 43.136484 25.890994 43.177966 25.485756 43.259766 25.285156 A 1.80872 1.80872 0 0 1 43.896484 24.613281 A 2.05866 2.05866 0 0 1 45.136719 24.246094 C 45.567519 24.246094 45.926791 24.345328 46.212891 24.548828 A 1.64429 1.64429 0 0 1 46.820312 25.376953 C 46.942012 25.732053 47.001953 26.580041 47.001953 27.931641 L 47.001953 28.792969 C 47.001953 29.394769 46.988984 30.110013 46.958984 30.945312 L 46.830078 33.003906 L 46.992188 33.220703 A 20.7839 20.7839 0 0 1 48.947266 33.138672 C 49.618066 33.138672 50.476425 33.171703 51.515625 33.220703 L 51.515625 32.332031 C 51.209825 32.302031 50.9966 32.284344 50.875 32.277344 C 50.5231 32.254344 50.300612 32.196728 50.195312 32.111328 C 50.093412 32.022328 50.019264 31.811962 49.976562 31.476562 C 49.933563 31.137863 49.912109 30.365744 49.912109 29.152344 L 49.912109 27.96875 A 35.497 35.497 0 0 0 49.947266 25.978516 C 49.947266 25.222116 49.893997 24.662481 49.779297 24.300781 A 2.92685 2.92685 0 0 0 48.167969 22.525391 C 47.753569 22.334691 47.171069 22.242187 46.417969 22.242188 C 46.128569 22.242188 45.899516 22.263875 45.728516 22.296875 C 45.557516 22.329875 45.349375 22.395741 45.109375 22.494141 L 43.035156 24.160156 C 42.732556 23.469556 42.345166 22.977641 41.884766 22.681641 C 41.417766 22.392241 40.729966 22.244141 39.822266 22.244141 C 39.532866 22.244141 39.301859 22.263875 39.130859 22.296875 C 38.963159 22.329875 38.755725 22.395741 38.515625 22.494141 L 36.447266 24.160156 L 36.447266 22.326172 L 36.142578 22.1875 z M 15.634766 23.265625 C 16.164266 23.265625 16.620588 23.430866 16.992188 23.759766 C 17.367088 24.082066 17.650256 24.660087 17.847656 25.492188 C 18.041656 26.320888 18.136719 27.317616 18.136719 28.478516 C 18.136719 30.129416 17.893556 31.244813 17.410156 31.820312 A 1.83503 1.83503 0 0 1 15.929688 32.466797 A 1.92711 1.92711 0 0 1 14.246094 31.615234 C 13.654194 30.760234 13.359375 29.322541 13.359375 27.306641 C 13.359375 26.221341 13.452825 25.397631 13.640625 24.832031 C 13.831425 24.266331 14.099406 23.863753 14.441406 23.626953 A 2.01591 2.01591 0 0 1 15.634766 23.265625 z " />
</svg>
