<svg xmlns="http://www.w3.org/2000/svg" width="141" height="62" viewBox="0 0 37 17" id="svg8">
  <style id="style10">
    #sjvd {fill:#3fcaee;} path {fill:inherit;}
  </style>
  <g id="sjvd">
    <title>SJVD</title>
    <path id="S" d="M6.05.34l.58 1.51-.1.02-.46-.49Q5.6.91 5.02.65 4.44.4 3.7.4q-1.25 0-1.98.71Q1 1.81 1 2.82q0 .66.33 1.17.35.49 1.44.92 1.86.62 2.55.94.69.32 1.32 1.08.65.75.65 1.94 0 .5-.12.94-.12.45-.37.87-.26.41-.62.76-.35.33-.72.51t-1.17.27q-.8.09-1.05.09H0V8.78h.12q.02 1.76.83 2.45.8.69 2.5.69 1.55 0 2.35-.73.81-.73.81-1.76 0-.63-.28-1.07-.28-.44-.78-.77-.5-.34-1.9-.81-1.4-.49-1.96-.85-.56-.37-.94-1.1-.38-.75-.38-1.51 0-1.41.96-2.36Q2.3 0 3.88 0q.6 0 1.31.14.71.14.8.18l.06.02z"/>
    <path id="J" d="M8.22.18h3.25V.3q-.62 0-.78.26-.15.25-.15.82V11.7q0 1.47-.1 2.2-.1.72-.44 1.26-.34.55-.91.88-.57.33-1.33.33-.72 0-1.48-.25l.02-.14q.22.07.66.07 1.07 0 1.63-.78.56-.79.56-2.68V1.43q0-.75-.2-.94-.17-.2-.73-.2z"/>
    <path id="V" d="M17.94 12.5h-.15L13.48 1.81Q13 .69 12.72.5q-.3-.2-.61-.2V.18h2.8V.3q-.37-.03-.37.3 0 .11.05.25l3.76 9.35L22.09.86q.08-.19.08-.3 0-.28-.44-.26V.18h1.82V.3q-.2 0-.4.06-.21.05-.43.42-.23.37-.23.4z"/>
    <path id="D" d="M24.26.3V.18h5.56q2.13 0 3.35.34 1.24.33 2.15 1.04.92.72 1.45 1.84.54 1.11.54 2.48 0 1.33-.56 2.61-.55 1.28-1.51 2.21-.95.92-2.02 1.27-1.05.34-3.26.34h-5.7v-.12h.15q.44 0 .58-.35.14-.37.14-1.3V1.7q0-.99-.17-1.2-.17-.2-.7-.2zm4.13.13h-1.86v9.41q0 .9.3 1.33.3.43 1.03.62.72.2 1.95.2 3.4 0 4.78-1.75 1.38-1.75 1.38-3.82 0-2.43-1.9-4.2Q32.2.42 28.4.42z"/>
  </g>
</svg>
