<?xml version="1.0" encoding="UTF-8" standalone="no"?>
<!-- Generator: Adobe Illustrator 21.1.0, SVG Export Plug-In . SVG Version: 6.00 Build 0)  -->

<svg
   xmlns:dc="http://purl.org/dc/elements/1.1/"
   xmlns:cc="http://creativecommons.org/ns#"
   xmlns:rdf="http://www.w3.org/1999/02/22-rdf-syntax-ns#"
   xmlns:svg="http://www.w3.org/2000/svg"
   xmlns="http://www.w3.org/2000/svg"
   xmlns:sodipodi="http://sodipodi.sourceforge.net/DTD/sodipodi-0.dtd"
   xmlns:inkscape="http://www.inkscape.org/namespaces/inkscape"
   version="1.2"
   id="Layer_1"
   x="0px"
   y="0px"
   viewBox="0 0 98.000023 42.999998"
   xml:space="preserve"
   sodipodi:docname="hrer-logo-text-as-path-hover.svg"
   inkscape:version="0.92.3 (d244b95, 2018-08-02)"
   width="98"
   height="43"><metadata
   id="metadata1185"><rdf:RDF><cc:Work
       rdf:about=""><dc:format>image/svg+xml</dc:format><dc:type
         rdf:resource="http://purl.org/dc/dcmitype/StillImage" /><dc:title></dc:title></cc:Work></rdf:RDF></metadata><defs
   id="defs1183">
	
	
	
	
	
	
	
	
	
	
	
	
	
	
	
	
	
	
	
	
	
	
	
	
	
	
	
	
	
	
</defs><sodipodi:namedview
   pagecolor="#ffffff"
   bordercolor="#666666"
   borderopacity="1"
   objecttolerance="10"
   gridtolerance="10"
   guidetolerance="10"
   inkscape:pageopacity="0"
   inkscape:pageshadow="2"
   inkscape:window-width="1920"
   inkscape:window-height="1171"
   id="namedview1181"
   showgrid="false"
   inkscape:pagecheckerboard="true"
   inkscape:zoom="10.734212"
   inkscape:cx="52.262893"
   inkscape:cy="15.27988"
   inkscape:window-x="0"
   inkscape:window-y="0"
   inkscape:window-maximized="1"
   inkscape:current-layer="Layer_1"
   fit-margin-top="2"
   fit-margin-right="2"
   fit-margin-bottom="2"
   fit-margin-left="2" />
<g
   id="g1120"
   transform="translate(2.1923813,1.2027335)">
		<rect
   style="fill:#4a6cb2"
   id="rect1118"
   height="38"
   width="0.80000001"
   y="1.7"
   x="42.400002" />
	</g><g
   id="g1354"
   transform="translate(2.1923813,1.2027335)"><g
     id="g1116">
		<path
   d="M 15.3,1.7 V 19.5 H 11.6 V 12 H 3.7 v 7.5 H 0 V 1.7 H 3.7 V 9 h 7.8 V 1.7 Z"
   id="path1108"
   inkscape:connector-curvature="0"
   style="fill:#ffffa7;fill-opacity:1" />
		<path
   d="M 25.3,12.7 H 22 v 6.8 H 18.3 V 1.7 h 7.8 c 2,0 3.6,0.5 4.8,1.4 1.1,1 1.7,2.3 1.7,4.1 0,1.3 -0.3,2.3 -0.9,3.2 -0.6,0.9 -1.5,1.5 -2.7,1.9 l 4.7,7.2 H 29.5 Z M 22,9.8 h 3.7 c 1.1,0 1.9,-0.2 2.4,-0.6 0.5,-0.4 0.8,-1.1 0.8,-2 0,-0.9 -0.3,-1.5 -0.8,-2 C 27.6,4.8 26.8,4.6 25.7,4.6 H 22 Z"
   id="path1110"
   inkscape:connector-curvature="0"
   style="fill:#ffffa7;fill-opacity:1" />
		<path
   d="m 15.4,36.7 v 3 H 0 V 21.9 h 15 v 3 H 3.7 v 4.4 H 13 v 2.9 H 3.7 v 4.5 z"
   id="path1112"
   inkscape:connector-curvature="0"
   style="fill:#ffffa7;fill-opacity:1" />
		<path
   d="M 25.3,32.9 H 22 v 6.8 H 18.3 V 21.9 h 7.8 c 2,0 3.6,0.5 4.8,1.4 1.1,1 1.7,2.3 1.7,4.1 0,1.3 -0.3,2.3 -0.9,3.2 -0.6,0.9 -1.5,1.5 -2.7,1.9 l 4.7,7.2 H 29.5 Z M 22,30.1 h 3.7 c 1.1,0 1.9,-0.2 2.4,-0.6 0.5,-0.4 0.8,-1.1 0.8,-2 0,-0.9 -0.3,-1.5 -0.8,-2 -0.5,-0.4 -1.3,-0.6 -2.4,-0.6 H 22 Z"
   id="path1114"
   inkscape:connector-curvature="0"
   style="fill:#ffffa7;fill-opacity:1" />
	</g><path
     id="path1299"
     d="M 51.640625,0.89453125 V 7.3515625 h 0.873047 V 4.2773438 H 55.6875 v 3.0742187 h 0.875 V 0.89453125 h -0.875 V 3.5410156 H 52.513672 V 0.89453125 Z M 65.900391,2.390625 c -0.348907,0 -0.650547,0.071598 -0.904297,0.2128906 -0.253751,0.141293 -0.470682,0.3592466 -0.652344,0.65625 V 2.5078125 h -0.800781 v 4.84375 H 64.34375 V 4.6152344 c 0,-0.4700152 0.118089,-0.8432523 0.357422,-1.1171875 0.239333,-0.2768188 0.562172,-0.4140625 0.96875,-0.4140625 0.34314,0 0.597358,0.1110222 0.761719,0.3359375 0.164361,0.2220316 0.246093,0.5680246 0.246093,1.0351562 v 2.8964844 h 0.800782 V 4.6152344 c 0,-0.4728988 0.120041,-0.8471586 0.359375,-1.1210938 0.239332,-0.2739352 0.564217,-0.4101562 0.976562,-0.4101562 0.337373,0 0.589545,0.1110222 0.753906,0.3359375 0.164361,0.2249152 0.246094,0.5709081 0.246094,1.0351562 v 2.8964844 h 0.800781 V 4.4277344 c 0,-0.6516776 -0.138174,-1.1521158 -0.412109,-1.5039063 C 69.92919,2.5691541 69.539774,2.390625 69.035156,2.390625 c -0.374858,0 -0.699744,0.085731 -0.976562,0.2558594 C 67.781774,2.8166126 67.542713,3.0799424 67.34375,3.4375 67.225525,3.0972436 67.042905,2.838935 66.794922,2.6601562 66.549822,2.4813775 66.252181,2.390625 65.900391,2.390625 Z m 7.779297,0 c -0.259518,0 -0.526846,0.03022 -0.800782,0.087891 -0.273935,0.054787 -0.55642,0.1375424 -0.847656,0.25 v 0.7363282 c 0.242216,-0.1326422 0.495411,-0.2325068 0.757812,-0.2988282 0.262402,-0.066321 0.531776,-0.099609 0.808594,-0.099609 0.435413,0 0.772386,0.1008874 1.011719,0.3027344 0.242217,0.1989635 0.363281,0.4814481 0.363281,0.8476563 v 0.078125 h -1.115234 c -0.723765,0 -1.270511,0.1372437 -1.636719,0.4140625 -0.363325,0.2768187 -0.544922,0.6874349 -0.544922,1.2324218 0,0.4671317 0.146264,0.8413915 0.4375,1.1210938 0.29412,0.2768187 0.68958,0.4160156 1.185547,0.4160156 0.392159,0 0.723089,-0.070575 0.994141,-0.2089844 0.271052,-0.1412929 0.498025,-0.3582238 0.679687,-0.6523437 v 0.734375 h 0.794922 V 4.5878906 C 75.767578,3.8497072 75.596023,3.2988715 75.25,2.9355469 74.903977,2.5722222 74.380386,2.390625 73.679688,2.390625 Z m 5.683593,0 c -0.337372,0 -0.635013,0.07262 -0.894531,0.2167969 -0.256634,0.1441764 -0.479609,0.3611074 -0.669922,0.6523437 V 2.5078125 h -0.800781 v 4.84375 h 0.800781 V 4.6152344 c 0,-0.4728988 0.123111,-0.8471586 0.371094,-1.1210938 0.247983,-0.2739352 0.585979,-0.4101562 1.015625,-0.4101562 0.357557,0 0.625908,0.113998 0.804687,0.3417968 0.178779,0.2277988 0.269532,0.5708159 0.269532,1.0292969 v 2.8964844 h 0.794922 V 4.4277344 c 0,-0.6689787 -0.142266,-1.1744382 -0.427735,-1.5175782 C 80.341484,2.5641328 79.919803,2.390625 79.363281,2.390625 Z M 58.007812,2.5078125 v 2.9335937 c 0,0.6660952 0.143288,1.1715547 0.431641,1.5175782 0.288353,0.3460234 0.711057,0.5195312 1.267578,0.5195312 0.337373,0 0.632968,-0.071598 0.886719,-0.2128906 0.256634,-0.1441765 0.482585,-0.3621301 0.675781,-0.65625 v 0.7421875 h 0.794922 v -4.84375 h -0.794922 v 2.7460937 c 0,0.4728988 -0.126086,0.8471586 -0.376953,1.1210938 C 60.644595,6.6489352 60.304646,6.7851563 59.875,6.7851562 59.517443,6.7851563 59.251044,6.6711581 59.072266,6.4433594 58.893487,6.2126771 58.802734,5.8686373 58.802734,5.4101562 V 2.5078125 Z m 16.173829,2.4101563 h 0.791015 V 5.09375 c 0,0.5190351 -0.134175,0.9356953 -0.402344,1.25 C 74.305028,6.6551711 73.950946,6.8125 73.509766,6.8125 73.189694,6.8125 72.937429,6.7288143 72.75,6.5644531 72.565455,6.3972085 72.472656,6.1732108 72.472656,5.890625 c 0,-0.354674 0.123111,-0.6048931 0.371094,-0.7519531 0.247983,-0.14706 0.694864,-0.2207031 1.337891,-0.2207031 z M 57.521484,11.251953 v 1.007813 h 0.796875 v -1.007813 z m 7.304688,0 v 6.730469 h 0.800781 v -2.738281 c 0,-0.472899 0.125064,-0.845206 0.373047,-1.119141 0.247983,-0.273935 0.585979,-0.412109 1.015625,-0.412109 0.357557,0 0.625909,0.113998 0.804687,0.341797 0.178779,0.227798 0.267579,0.570816 0.267579,1.029296 v 2.898438 h 0.796875 v -2.923828 c 0,-0.668979 -0.144219,-1.174438 -0.429688,-1.517578 -0.285469,-0.346024 -0.705198,-0.519532 -1.261719,-0.519532 -0.337373,0 -0.636967,0.07262 -0.896484,0.216797 -0.256634,0.144177 -0.479609,0.361107 -0.669922,0.652344 v -2.638672 z m -13.185547,0.273438 v 6.457031 h 0.873047 v -2.728516 h 0.951172 c 0.346023,0 0.619396,0.06964 0.818359,0.210938 0.201847,0.141293 0.409666,0.428799 0.623047,0.861328 l 0.826172,1.65625 h 0.9375 l -0.886719,-1.765625 c -0.178779,-0.363325 -0.356377,-0.647855 -0.535156,-0.855469 -0.175895,-0.207611 -0.357493,-0.34281 -0.544922,-0.40625 0.360441,-0.103807 0.632883,-0.290426 0.820313,-0.558594 0.190313,-0.268168 0.285156,-0.60514 0.285156,-1.011718 0,-0.622842 -0.181597,-1.087947 -0.544922,-1.396485 -0.363325,-0.308538 -0.914161,-0.46289 -1.652344,-0.46289 z m 18.632813,0.236328 v 1.376953 h -0.583985 v 0.617187 h 0.583985 v 2.63086 c 0,0.60554 0.117996,1.023223 0.351562,1.253906 0.233566,0.227799 0.657293,0.341797 1.271484,0.341797 h 0.816407 v -0.666016 h -0.816407 c -0.331605,0 -0.552534,-0.05551 -0.662109,-0.167968 -0.10669,-0.112458 -0.160156,-0.366676 -0.160156,-0.761719 v -2.63086 h 1.638672 v -0.617187 h -1.638672 v -1.376953 z m -17.759766,0.480469 h 1.097656 c 0.420995,-1e-6 0.739744,0.09782 0.953125,0.291015 0.216265,0.190313 0.324219,0.473821 0.324219,0.851563 0,0.377742 -0.107954,0.665248 -0.324219,0.861328 -0.213381,0.193196 -0.53213,0.289062 -0.953125,0.289062 h -1.097656 z m 9.070312,0.779296 c -0.594006,0 -1.072222,0.226974 -1.435546,0.679688 -0.363325,0.452714 -0.544922,1.053017 -0.544922,1.802734 0,0.746834 0.181597,1.346114 0.544922,1.798828 0.363324,0.452714 0.84154,0.679688 1.435546,0.679688 0.357558,0 0.665241,-0.0716 0.921875,-0.212891 0.256634,-0.141292 0.468452,-0.353202 0.632813,-0.638672 v 0.392579 c 0,0.550753 -0.131107,0.96137 -0.390625,1.232421 -0.259517,0.273936 -0.649956,0.41211 -1.171875,0.41211 -0.236449,0 -0.467514,-0.03124 -0.695313,-0.0918 -0.227799,-0.06055 -0.459794,-0.154375 -0.693359,-0.28125 v 0.77539 c 0.233565,0.08651 0.474672,0.149087 0.722656,0.189454 0.247984,0.04325 0.511314,0.06445 0.791016,0.06445 0.755485,0 1.317386,-0.201775 1.683594,-0.605469 0.366208,-0.400811 0.548828,-1.013201 0.548828,-1.837891 v -4.242187 h -0.794922 v 0.734375 c -0.164361,-0.285469 -0.376179,-0.499332 -0.632813,-0.640625 -0.256634,-0.141293 -0.564317,-0.210938 -0.921875,-0.210938 z m 13.998047,0 c -0.594006,0 -1.052044,0.123111 -1.375,0.371094 -0.322955,0.247983 -0.484375,0.601043 -0.484375,1.056641 0,0.374859 0.108977,0.670454 0.328125,0.886719 0.219149,0.213381 0.575276,0.370802 1.06836,0.474609 l 0.277343,0.06445 c 0.493084,0.106691 0.810902,0.218643 0.955078,0.333984 0.147061,0.115341 0.220704,0.281783 0.220704,0.498047 0,0.233566 -0.100888,0.415163 -0.302735,0.544922 -0.201847,0.126875 -0.490375,0.189453 -0.865234,0.189453 -0.279702,0 -0.562187,-0.03636 -0.847656,-0.111328 -0.28547,-0.07785 -0.575021,-0.194829 -0.869141,-0.347656 v 0.822266 c 0.311421,0.100923 0.607016,0.175589 0.886719,0.224609 0.282585,0.0519 0.554935,0.07813 0.814453,0.07813 0.622842,0 1.11017,-0.130178 1.464844,-0.392578 0.357558,-0.262402 0.537109,-0.618529 0.537109,-1.06836 0,-0.395043 -0.120042,-0.702727 -0.359375,-0.921875 -0.236449,-0.222032 -0.636001,-0.394517 -1.201172,-0.515625 l -0.273437,-0.06055 c -0.426762,-0.09516 -0.71027,-0.193069 -0.851563,-0.296876 -0.141293,-0.10669 -0.21289,-0.252954 -0.21289,-0.4375 0,-0.242216 0.09884,-0.423813 0.294921,-0.544921 0.198964,-0.121108 0.495582,-0.181641 0.890625,-0.181641 0.259518,0 0.509738,0.02826 0.751954,0.08594 0.242216,0.05767 0.476256,0.144424 0.701171,0.259765 V 13.28125 c -0.219148,-0.08651 -0.459232,-0.152059 -0.71875,-0.195312 -0.259517,-0.04325 -0.535958,-0.06445 -0.830078,-0.06445 z m -18.060547,0.117188 v 4.84375 h 0.796875 v -4.84375 z m 4.257813,0.548828 c 0.429645,0 0.763551,0.157421 1,0.474609 0.239333,0.317188 0.359375,0.765091 0.359375,1.341797 0,0.573822 -0.120042,1.01875 -0.359375,1.335938 -0.236449,0.317188 -0.570355,0.476562 -1,0.476562 -0.426763,0 -0.758714,-0.159374 -0.998047,-0.476562 -0.236449,-0.317188 -0.355469,-0.762116 -0.355469,-1.335938 0,-0.576706 0.11902,-1.024609 0.355469,-1.341797 0.239333,-0.317188 0.571284,-0.474609 0.998047,-0.474609 z m -1.494141,8.195312 v 2.621094 c -0.167244,-0.288352 -0.380085,-0.502215 -0.636718,-0.640625 -0.253751,-0.141292 -0.558458,-0.21289 -0.916016,-0.21289 -0.585356,0 -1.062549,0.23404 -1.431641,0.701171 -0.366208,0.467132 -0.548828,1.082499 -0.548828,1.84375 0,0.761252 0.18262,1.374665 0.548828,1.841797 0.369092,0.467132 0.846285,0.701172 1.431641,0.701172 0.357558,0 0.662265,-0.07058 0.916016,-0.208984 0.256633,-0.141293 0.469474,-0.356179 0.636718,-0.644531 v 0.726562 h 0.796875 v -6.728516 z m 21.507813,0 v 1.007813 h 0.796875 v -1.007813 z m -30.152344,0.271485 v 6.457031 h 4.160156 v -0.734375 h -3.287109 v -2.339844 h 3.076172 v -0.736328 h -3.076172 v -1.910156 h 3.208984 v -0.736328 z m 26.384766,0.238281 v 1.375 h -0.583985 v 0.619141 h 0.583985 v 2.628906 c 0,0.605541 0.116043,1.023224 0.349609,1.253906 0.233565,0.227799 0.657292,0.341797 1.271484,0.341797 h 0.81836 v -0.666016 h -0.81836 c -0.331606,0 -0.552535,-0.05551 -0.662109,-0.167968 -0.106691,-0.112458 -0.160156,-0.366676 -0.160156,-0.761719 v -2.628906 h 1.640625 v -0.619141 h -1.640625 v -1.375 z m -7.785157,1.257813 c -0.755484,0 -1.349743,0.226973 -1.785156,0.679687 -0.432529,0.452714 -0.648437,1.075148 -0.648437,1.865234 0,0.778553 0.214885,1.396988 0.644531,1.855469 0.429645,0.458481 1.008748,0.6875 1.738281,0.6875 0.268169,0 0.51941,-0.02623 0.755859,-0.07813 0.239333,-0.0519 0.471328,-0.130567 0.69336,-0.234375 v -0.734375 c -0.224915,0.12399 -0.451889,0.21781 -0.679688,0.28125 -0.224915,0.06055 -0.452911,0.08984 -0.683593,0.08984 -0.516152,0 -0.915703,-0.162442 -1.201172,-0.488281 -0.28547,-0.328722 -0.429688,-0.787783 -0.429688,-1.378907 0,-0.591123 0.144218,-1.051114 0.429688,-1.376953 0.285469,-0.328722 0.68502,-0.492187 1.201172,-0.492187 0.230682,0 0.458678,0.03226 0.683593,0.0957 0.227799,0.06055 0.454773,0.151399 0.679688,0.275391 v -0.744141 c -0.219149,-0.100923 -0.446122,-0.175589 -0.679688,-0.224609 -0.233566,-0.0519 -0.47365,-0.07813 -0.71875,-0.07813 z m 4.625,0 c -0.259517,0 -0.524892,0.03022 -0.798828,0.08789 -0.273935,0.05479 -0.558372,0.137542 -0.849609,0.25 v 0.736328 c 0.242217,-0.132643 0.495411,-0.232508 0.757812,-0.298828 0.262401,-0.06632 0.531775,-0.09961 0.808594,-0.09961 0.435413,0 0.772386,0.100887 1.011719,0.302734 0.242217,0.198964 0.363281,0.481448 0.363281,0.847656 v 0.07813 h -1.115234 c -0.723766,-10e-7 -1.268558,0.137243 -1.634766,0.414062 -0.363325,0.276819 -0.544922,0.689388 -0.544922,1.234375 0,0.467132 0.146264,0.839439 0.4375,1.119141 0.29412,0.276818 0.687627,0.416015 1.183594,0.416015 0.39216,0 0.725042,-0.07058 0.996094,-0.208984 0.271051,-0.141293 0.496071,-0.358224 0.677734,-0.652344 v 0.734375 h 0.796875 v -2.763672 c 0,-0.738183 -0.173507,-1.289019 -0.519531,-1.652344 -0.346023,-0.363324 -0.869615,-0.544921 -1.570313,-0.544921 z m 11.232422,0 c -0.69493,0 -1.239721,0.225951 -1.634765,0.675781 -0.39216,0.449831 -0.587891,1.073286 -0.587891,1.86914 0,0.792971 0.195731,1.414474 0.587891,1.867188 0.395044,0.44983 0.939835,0.675781 1.634765,0.675781 0.692047,0 1.235816,-0.225951 1.63086,-0.675781 0.395043,-0.452714 0.591796,-1.074217 0.591796,-1.867188 0,-0.795853 -0.196753,-1.419309 -0.591796,-1.86914 -0.395044,-0.44983 -0.938813,-0.675781 -1.63086,-0.675781 z m 5.826172,0 c -0.337373,0 -0.635014,0.07262 -0.894531,0.216797 -0.256634,0.144176 -0.479609,0.361107 -0.669922,0.652343 v -0.751953 h -0.800781 v 4.84375 h 0.800781 V 25.875 c 0,-0.472899 0.12311,-0.847158 0.371094,-1.121094 0.247983,-0.273934 0.585979,-0.410156 1.015625,-0.410156 0.357558,0 0.625909,0.113998 0.804687,0.341797 0.178779,0.227799 0.269531,0.570816 0.269531,1.029297 v 2.896484 h 0.794922 V 25.6875 c 0,-0.668979 -0.142265,-1.174438 -0.427734,-1.517578 -0.285469,-0.346023 -0.707151,-0.519531 -1.263672,-0.519531 z m -29.33789,0.117187 v 2.933594 c 0,0.666095 0.145241,1.171555 0.433593,1.517578 0.288353,0.346023 0.711057,0.519531 1.267578,0.519531 0.337373,0 0.632968,-0.0716 0.886719,-0.21289 0.256634,-0.144177 0.480632,-0.36213 0.673828,-0.65625 v 0.742187 h 0.796875 v -4.84375 h -0.796875 v 2.746094 c 0,0.472899 -0.126086,0.847158 -0.376953,1.121094 -0.247983,0.273934 -0.585979,0.410156 -1.015625,0.410156 -0.357557,0 -0.625909,-0.113998 -0.804687,-0.341797 -0.178779,-0.230682 -0.267579,-0.574722 -0.267579,-1.033203 v -2.902344 z m 19.207031,0 v 4.84375 h 0.796875 v -4.84375 z m -22.865235,0.548828 c 0.420995,0 0.751924,0.167464 0.994141,0.501953 0.242217,0.331606 0.363281,0.791597 0.363281,1.376953 0,0.585356 -0.121064,1.044417 -0.363281,1.378907 -0.242217,0.331606 -0.573146,0.498047 -0.994141,0.498047 -0.420995,0 -0.753877,-0.166441 -0.996093,-0.498047 -0.239333,-0.33449 -0.357422,-0.793551 -0.357422,-1.378907 0,-0.585356 0.118089,-1.045347 0.357422,-1.376953 0.242216,-0.334489 0.575098,-0.501953 0.996093,-0.501953 z m 27.169922,0.0098 c 0.423879,0 0.759829,0.168486 1.007813,0.505859 0.247984,0.33449 0.371094,0.789459 0.371093,1.363281 10e-7,0.576706 -0.123109,1.030746 -0.371093,1.365235 -0.247984,0.334489 -0.583934,0.501953 -1.007813,0.501953 -0.429646,0 -0.767641,-0.164488 -1.015625,-0.496094 -0.2451,-0.334489 -0.36914,-0.791504 -0.36914,-1.371094 0,-0.579589 0.125062,-1.035581 0.373047,-1.367187 0.247983,-0.334489 0.584956,-0.501953 1.011718,-0.501953 z m -10.730468,1.851562 h 0.791015 v 0.175782 c 0,0.519035 -0.134175,0.935695 -0.402344,1.25 -0.265284,0.31142 -0.617414,0.46875 -1.058593,0.46875 -0.320072,0 -0.57429,-0.08369 -0.761719,-0.248047 -0.184546,-0.167245 -0.277344,-0.391243 -0.277344,-0.673828 0,-0.354674 0.125064,-0.604893 0.373047,-0.751953 0.247984,-0.14706 0.692911,-0.220704 1.335938,-0.220704 z m -8.207032,6.333985 v 1.007812 h 0.794922 V 32.511753 Z M 51.640625,32.78519 v 6.457032 h 0.873047 v -2.728516 h 0.951172 c 0.346023,0 0.619396,0.06965 0.818359,0.210937 0.201847,0.141294 0.409666,0.428799 0.623047,0.861329 l 0.826172,1.65625 h 0.9375 l -0.886719,-1.765626 c -0.178779,-0.363324 -0.356377,-0.647854 -0.535156,-0.855468 -0.175895,-0.207612 -0.357493,-0.34281 -0.544922,-0.40625 0.360441,-0.103808 0.632883,-0.290426 0.820313,-0.558594 0.190313,-0.268168 0.285156,-0.605141 0.285156,-1.011719 0,-0.622842 -0.181597,-1.087947 -0.544922,-1.396484 -0.363325,-0.308538 -0.914161,-0.462891 -1.652344,-0.462891 z m 0.873047,0.716797 h 1.097656 c 0.420995,0 0.739744,0.09782 0.953125,0.291016 0.216265,0.190312 0.324219,0.47382 0.324219,0.851562 0,0.377743 -0.107954,0.665248 -0.324219,0.861328 -0.213381,0.193196 -0.53213,0.289063 -0.953125,0.289063 h -1.097656 z m 6.949219,0.779297 c -0.72665,0 -1.304729,0.234041 -1.734375,0.701172 -0.426762,0.464248 -0.640625,1.091795 -0.640625,1.884766 0,0.767018 0.22595,1.376341 0.675781,1.826171 0.452714,0.44983 1.065105,0.673829 1.83789,0.673829 0.308538,-10e-7 0.612223,-0.03226 0.91211,-0.0957 0.299887,-0.06344 0.593437,-0.154282 0.878906,-0.27539 v -0.753906 c -0.282585,0.149943 -0.569068,0.262918 -0.857422,0.33789 -0.285469,0.07497 -0.581065,0.113281 -0.886718,0.113281 -0.527686,0 -0.939325,-0.144218 -1.236329,-0.429687 -0.294122,-0.288353 -0.45954,-0.706036 -0.49414,-1.253906 h 3.660156 v -0.388672 c 0,-0.720882 -0.189687,-1.290873 -0.570313,-1.708985 C 60.63007,34.491115 60.114568,34.28125 59.462891,34.28125 Z m 12.154297,0 c -0.72665,0 -1.306683,0.234041 -1.736329,0.701172 -0.426762,0.464248 -0.638671,1.091795 -0.638671,1.884766 -10e-7,0.767018 0.223997,1.376341 0.673828,1.826171 0.452714,0.44983 1.065104,0.673829 1.83789,0.673829 0.308538,-10e-7 0.614176,-0.03226 0.914063,-0.0957 0.299887,-0.06344 0.591484,-0.154282 0.876953,-0.27539 v -0.753906 c -0.282586,0.149943 -0.567116,0.262918 -0.855469,0.33789 -0.285469,0.07497 -0.581065,0.113281 -0.886719,0.113281 -0.527686,0 -0.941278,-0.144218 -1.238281,-0.429687 -0.294122,-0.288353 -0.457587,-0.706036 -0.492187,-1.253906 h 3.658203 v -0.388672 c 0,-0.720882 -0.189687,-1.290873 -0.570313,-1.708985 -0.377742,-0.420994 -0.891291,-0.630859 -1.542968,-0.630859 z m -9.740235,0.117188 1.816406,4.84375 h 1.082032 l 1.816406,-4.84375 h -0.84375 l -1.513672,4.064453 -1.513672,-4.064453 z m 5.283203,0 v 4.84375 h 0.794922 v -4.84375 z m 6.996094,0 1.267578,4.84375 h 0.9375 l 1.046875,-3.970704 1.042969,3.970704 h 0.939453 l 1.265625,-4.84375 H 79.861328 L 78.871094,38.177734 77.875,34.398438 h -0.9375 l -0.990234,3.779296 -0.996094,-3.779296 z m -14.685547,0.55664 c 0.39216,0 0.70691,0.131107 0.943359,0.390625 0.2393,0.259517 0.361388,0.605603 0.367188,1.041016 l -2.835938,0.0059 c 0.04037,-0.455598 0.191747,-0.80968 0.457032,-1.060547 0.268168,-0.250867 0.624296,-0.376953 1.068359,-0.376953 z m 12.154297,0 c 0.39216,0 0.70691,0.131107 0.943359,0.390625 0.2393,0.259517 0.361388,0.605603 0.367188,1.041016 l -2.837891,0.0059 c 0.04037,-0.455598 0.1937,-0.80968 0.458985,-1.060547 0.268168,-0.250867 0.624296,-0.376953 1.068359,-0.376953 z"
     style="font-size:8.85820007px;font-family:WorkSans-Medium;fill:#ffffff"
     inkscape:connector-curvature="0" /></g><g
   aria-label=" "
   style="font-size:8.85820007px;font-family:WorkSans-Medium;fill:#ffffff"
   id="text1132"
   transform="translate(2,1.2999992)" /><g
   aria-label=" "
   style="font-size:8.85820007px;font-family:WorkSans-Medium;fill:#ffffff"
   id="text1146"
   transform="translate(2,1.2999992)" />
</svg>