<?xml version="1.0" encoding="utf-8"?>
<!-- Generator: Adobe Illustrator 21.1.0, SVG Export Plug-In . SVG Version: 6.00 Build 0)  -->
<svg version="1.2" baseProfile="tiny" id="Layer_1" xmlns="http://www.w3.org/2000/svg" xmlns:xlink="http://www.w3.org/1999/xlink"
	 x="0px" y="0px" viewBox="0 0 94.2 42.2" xml:space="preserve">
<g>
	<g>
		<path fill="#FFFFFF" d="M15.3,1.7v17.8h-3.7V12H3.7v7.5H0V1.7h3.7V9h7.8V1.7H15.3z"/>
		<path fill="#FFFFFF" d="M25.3,12.7H22v6.8h-3.7V1.7h7.8c2,0,3.6,0.5,4.8,1.4c1.1,1,1.7,2.3,1.7,4.1c0,1.3-0.3,2.3-0.9,3.2
			c-0.6,0.9-1.5,1.5-2.7,1.9l4.7,7.2h-4.2L25.3,12.7z M22,9.8h3.7c1.1,0,1.9-0.2,2.4-0.6c0.5-0.4,0.8-1.1,0.8-2c0-0.9-0.3-1.5-0.8-2
			c-0.5-0.4-1.3-0.6-2.4-0.6H22V9.8z"/>
		<path fill="#FFFFFF" d="M15.4,36.7v3H0V21.9h15v3H3.7v4.4H13v2.9H3.7v4.5H15.4z"/>
		<path fill="#FFFFFF" d="M25.3,32.9H22v6.8h-3.7V21.9h7.8c2,0,3.6,0.5,4.8,1.4c1.1,1,1.7,2.3,1.7,4.1c0,1.3-0.3,2.3-0.9,3.2
			c-0.6,0.9-1.5,1.5-2.7,1.9l4.7,7.2h-4.2L25.3,32.9z M22,30.1h3.7c1.1,0,1.9-0.2,2.4-0.6c0.5-0.4,0.8-1.1,0.8-2
			c0-0.9-0.3-1.5-0.8-2c-0.5-0.4-1.3-0.6-2.4-0.6H22V30.1z"/>
	</g>
	<g>
		<rect x="42.4" y="1.7" fill="#4A6CB2" width="0.8" height="38"/>
	</g>
	<text transform="matrix(1 0 0 1 50.7705 7.3524)" fill="#FFFFFF" font-family="'WorkSans-Medium'" font-size="8.8582px">H</text>
	<text transform="matrix(1 0 0 1 57.2548 7.3524)" fill="#FFFFFF" font-family="'WorkSans-Medium'" font-size="8.8582px">u</text>
	<text transform="matrix(1 0 0 1 62.7382 7.3524)" fill="#FFFFFF" font-family="'WorkSans-Medium'" font-size="8.8582px">m</text>
	<text transform="matrix(1 0 0 1 71.1445 7.3524)" fill="#FFFFFF" font-family="'WorkSans-Medium'" font-size="8.8582px">a</text>
	<text transform="matrix(1 0 0 1 76.1933 7.3524)" fill="#FFFFFF" font-family="'WorkSans-Medium'" font-size="8.8582px">n</text>
	<text transform="matrix(1 0 0 1 81.6767 7.3524)" fill="#FFFFFF" font-family="'WorkSans-Medium'" font-size="8.8582px"> </text>
	<text transform="matrix(1 0 0 1 50.7705 17.9823)" fill="#FFFFFF" font-family="'WorkSans-Medium'" font-size="8.8582px">R</text>
	<text transform="matrix(1 0 0 1 56.6875 17.9823)" fill="#FFFFFF" font-family="'WorkSans-Medium'" font-size="8.8582px">i</text>
	<text transform="matrix(1 0 0 1 59.1152 17.9823)" fill="#FFFFFF" font-family="'WorkSans-Medium'" font-size="8.8582px">g</text>
	<text transform="matrix(1 0 0 1 64.0224 17.9823)" fill="#FFFFFF" font-family="'WorkSans-Medium'" font-size="8.8582px">h</text>
	<text transform="matrix(1 0 0 1 69.4521 17.9823)" fill="#FFFFFF" font-family="'WorkSans-Medium'" font-size="8.8582px">t</text>
	<text transform="matrix(1 0 0 1 73.208 17.9823)" fill="#FFFFFF" font-family="'WorkSans-Medium'" font-size="8.8582px">s</text>
	<text transform="matrix(1 0 0 1 77.8935 17.9823)" fill="#FFFFFF" font-family="'WorkSans-Medium'" font-size="8.8582px"> </text>
	<text transform="matrix(1 0 0 1 50.7705 28.6122)" fill="#FFFFFF" font-family="'WorkSans-Medium'" font-size="8.8582px">E</text>
	<text transform="matrix(1 0 0 1 56.2627 28.6122)" fill="#FFFFFF" font-family="'WorkSans-Medium'" font-size="8.8582px">d</text>
	<text transform="matrix(1 0 0 1 61.834 28.6122)" fill="#FFFFFF" font-family="'WorkSans-Medium'" font-size="8.8582px">u</text>
	<text transform="matrix(1 0 0 1 67.3173 28.6122)" fill="#FFFFFF" font-family="'WorkSans-Medium'" font-size="8.8582px">c</text>
	<text transform="matrix(1 0 0 1 72.331 28.6122)" fill="#FFFFFF" font-family="'WorkSans-Medium'" font-size="8.8582px">a</text>
	<text transform="matrix(1 0 0 1 77.2031 28.6122)" fill="#FFFFFF" font-family="'WorkSans-Medium'" font-size="8.8582px">t</text>
	<text transform="matrix(1 0 0 1 80.9589 28.6122)" fill="#FFFFFF" font-family="'WorkSans-Medium'" font-size="8.8582px">i</text>
	<text transform="matrix(1 0 0 1 83.3857 28.6122)" fill="#FFFFFF" font-family="'WorkSans-Medium'" font-size="8.8582px">o</text>
	<text transform="matrix(1 0 0 1 88.7539 28.6122)" fill="#FFFFFF" font-family="'WorkSans-Medium'" font-size="8.8582px">n</text>
	<text transform="matrix(1 0 0 1 50.7705 39.2421)" fill="#FFFFFF" font-family="'WorkSans-Medium'" font-size="8.8582px">R</text>
	<text transform="matrix(1 0 0 1 56.5996 39.2421)" fill="#FFFFFF" font-family="'WorkSans-Medium'" font-size="8.8582px">e</text>
	<text transform="matrix(1 0 0 1 61.6132 39.2421)" fill="#FFFFFF" font-family="'WorkSans-Medium'" font-size="8.8582px">v</text>
	<text transform="matrix(1 0 0 1 66.3252 39.2421)" fill="#FFFFFF" font-family="'WorkSans-Medium'" font-size="8.8582px">i</text>
	<text transform="matrix(1 0 0 1 68.7529 39.2421)" fill="#FFFFFF" font-family="'WorkSans-Medium'" font-size="8.8582px">e</text>
	<text transform="matrix(1 0 0 1 73.7841 39.2421)" fill="#FFFFFF" font-family="'WorkSans-Medium'" font-size="8.8582px">w</text>
</g>
</svg>
