<?xml version="1.0" encoding="UTF-8" standalone="no"?>
<svg
   width="132.52425mm"
   height="21.079243mm"
   viewBox="0 0 132.52424 21.079242"
   version="1.1"
   id="svg8"
   xmlns="http://www.w3.org/2000/svg"
   xmlns:svg="http://www.w3.org/2000/svg"
   xmlns:rdf="http://www.w3.org/1999/02/22-rdf-syntax-ns#"
   xmlns:cc="http://creativecommons.org/ns#"
   xmlns:dc="http://purl.org/dc/elements/1.1/">
  <defs
     id="defs2">
    <clipPath
       clipPathUnits="userSpaceOnUse"
       id="clipPath1201">
      <rect
         style="font-variation-settings:normal;opacity:1;vector-effect:none;fill:#ff0000;fill-opacity:1;stroke:none;stroke-width:0.264583px;stroke-linecap:butt;stroke-linejoin:miter;stroke-miterlimit:4;stroke-dasharray:none;stroke-dashoffset:0;stroke-opacity:1;paint-order:stroke fill markers;stop-color:#000000;stop-opacity:1"
         id="rect1203"
         width="61.252811"
         height="75.30117"
         x="-279.77457"
         y="-45.618797" />
    </clipPath>
    <clipPath
       clipPathUnits="userSpaceOnUse"
       id="clipPath1625">
      <path
         d="M 8.871e-6,0 H 595.32001 V 841.92 H 8.871e-6 Z"
         clip-rule="evenodd"
         id="path1623" />
    </clipPath>
    <clipPath
       clipPathUnits="userSpaceOnUse"
       id="clipPath1633">
      <path
         d="M 8.871e-6,0 H 595.32001 V 841.92 H 8.871e-6 Z"
         clip-rule="evenodd"
         id="path1631" />
    </clipPath>
    <clipPath
       clipPathUnits="userSpaceOnUse"
       id="clipPath1645">
      <path
         d="M 8.871e-6,0 H 595.32001 V 841.92 H 8.871e-6 Z"
         clip-rule="evenodd"
         id="path1643" />
    </clipPath>
    <clipPath
       clipPathUnits="userSpaceOnUse"
       id="clipPath1657">
      <path
         d="M 8.871e-6,0 H 595.32001 V 841.92 H 8.871e-6 Z"
         clip-rule="evenodd"
         id="path1655" />
    </clipPath>
    <clipPath
       clipPathUnits="userSpaceOnUse"
       id="clipPath1669">
      <path
         d="M 8.871e-6,0 H 595.32001 V 841.92 H 8.871e-6 Z"
         clip-rule="evenodd"
         id="path1667" />
    </clipPath>
    <clipPath
       clipPathUnits="userSpaceOnUse"
       id="clipPath1677">
      <path
         d="M 8.871e-6,0 H 595.32001 V 841.92 H 8.871e-6 Z"
         clip-rule="evenodd"
         id="path1675" />
    </clipPath>
    <clipPath
       clipPathUnits="userSpaceOnUse"
       id="clipPath1689">
      <path
         d="M 8.871e-6,0 H 595.32001 V 841.92 H 8.871e-6 Z"
         clip-rule="evenodd"
         id="path1687" />
    </clipPath>
    <clipPath
       clipPathUnits="userSpaceOnUse"
       id="clipPath1701">
      <path
         d="M 8.871e-6,0 H 595.32001 V 841.92 H 8.871e-6 Z"
         clip-rule="evenodd"
         id="path1699" />
    </clipPath>
    <clipPath
       clipPathUnits="userSpaceOnUse"
       id="clipPath1713">
      <path
         d="M 8.871e-6,0 H 595.32001 V 841.92 H 8.871e-6 Z"
         clip-rule="evenodd"
         id="path1711" />
    </clipPath>
    <clipPath
       clipPathUnits="userSpaceOnUse"
       id="clipPath1725">
      <path
         d="M 8.871e-6,0 H 595.32001 V 841.92 H 8.871e-6 Z"
         clip-rule="evenodd"
         id="path1723" />
    </clipPath>
    <clipPath
       clipPathUnits="userSpaceOnUse"
       id="clipPath1737">
      <path
         d="M 8.871e-6,0 H 595.32001 V 841.92 H 8.871e-6 Z"
         clip-rule="evenodd"
         id="path1735" />
    </clipPath>
    <clipPath
       clipPathUnits="userSpaceOnUse"
       id="clipPath1749">
      <path
         d="M 8.871e-6,0 H 595.32001 V 841.92 H 8.871e-6 Z"
         clip-rule="evenodd"
         id="path1747" />
    </clipPath>
    <clipPath
       clipPathUnits="userSpaceOnUse"
       id="clipPath1757">
      <path
         d="M 8.871e-6,0 H 595.32001 V 841.92 H 8.871e-6 Z"
         clip-rule="evenodd"
         id="path1755" />
    </clipPath>
    <clipPath
       clipPathUnits="userSpaceOnUse"
       id="clipPath1769">
      <path
         d="M 8.871e-6,0 H 595.32001 V 841.92 H 8.871e-6 Z"
         clip-rule="evenodd"
         id="path1767" />
    </clipPath>
    <clipPath
       clipPathUnits="userSpaceOnUse"
       id="clipPath1779">
      <path
         d="M 8.871e-6,0 H 595.32001 V 841.92 H 8.871e-6 Z"
         clip-rule="evenodd"
         id="path1777" />
    </clipPath>
    <clipPath
       clipPathUnits="userSpaceOnUse"
       id="clipPath1791">
      <path
         d="M 8.871e-6,0 H 595.32001 V 841.92 H 8.871e-6 Z"
         clip-rule="evenodd"
         id="path1789" />
    </clipPath>
    <clipPath
       clipPathUnits="userSpaceOnUse"
       id="clipPath1803">
      <path
         d="M 8.871e-6,0 H 595.32001 V 841.92 H 8.871e-6 Z"
         clip-rule="evenodd"
         id="path1801" />
    </clipPath>
    <clipPath
       clipPathUnits="userSpaceOnUse"
       id="clipPath1811">
      <path
         d="M 8.871e-6,0 H 595.32001 V 841.92 H 8.871e-6 Z"
         clip-rule="evenodd"
         id="path1809" />
    </clipPath>
    <clipPath
       clipPathUnits="userSpaceOnUse"
       id="clipPath1819">
      <path
         d="M 8.871e-6,0 H 595.32001 V 841.92 H 8.871e-6 Z"
         clip-rule="evenodd"
         id="path1817" />
    </clipPath>
    <clipPath
       clipPathUnits="userSpaceOnUse"
       id="clipPath1831">
      <path
         d="M 8.871e-6,0 H 595.32001 V 841.92 H 8.871e-6 Z"
         clip-rule="evenodd"
         id="path1829" />
    </clipPath>
    <clipPath
       clipPathUnits="userSpaceOnUse"
       id="clipPath1843">
      <path
         d="M 8.871e-6,0 H 595.32001 V 841.92 H 8.871e-6 Z"
         clip-rule="evenodd"
         id="path1841" />
    </clipPath>
    <clipPath
       clipPathUnits="userSpaceOnUse"
       id="clipPath1855">
      <path
         d="M 8.871e-6,0 H 595.32001 V 841.92 H 8.871e-6 Z"
         clip-rule="evenodd"
         id="path1853" />
    </clipPath>
    <clipPath
       clipPathUnits="userSpaceOnUse"
       id="clipPath1867">
      <path
         d="M 8.871e-6,0 H 595.32001 V 841.92 H 8.871e-6 Z"
         clip-rule="evenodd"
         id="path1865" />
    </clipPath>
    <clipPath
       clipPathUnits="userSpaceOnUse"
       id="clipPath1879">
      <path
         d="M 8.871e-6,0 H 595.32001 V 841.92 H 8.871e-6 Z"
         clip-rule="evenodd"
         id="path1877" />
    </clipPath>
    <clipPath
       clipPathUnits="userSpaceOnUse"
       id="clipPath1887">
      <path
         d="M 8.871e-6,0 H 595.32001 V 841.92 H 8.871e-6 Z"
         clip-rule="evenodd"
         id="path1885" />
    </clipPath>
    <clipPath
       clipPathUnits="userSpaceOnUse"
       id="clipPath1899">
      <path
         d="M 8.871e-6,0 H 595.32001 V 841.92 H 8.871e-6 Z"
         clip-rule="evenodd"
         id="path1897" />
    </clipPath>
    <clipPath
       clipPathUnits="userSpaceOnUse"
       id="clipPath1911">
      <path
         d="M 8.871e-6,0 H 595.32001 V 841.92 H 8.871e-6 Z"
         clip-rule="evenodd"
         id="path1909" />
    </clipPath>
    <clipPath
       clipPathUnits="userSpaceOnUse"
       id="clipPath1919">
      <path
         d="M 8.871e-6,0 H 595.32001 V 841.92 H 8.871e-6 Z"
         clip-rule="evenodd"
         id="path1917" />
    </clipPath>
    <clipPath
       clipPathUnits="userSpaceOnUse"
       id="clipPath1927">
      <path
         d="M 8.871e-6,0 H 595.32001 V 841.92 H 8.871e-6 Z"
         clip-rule="evenodd"
         id="path1925" />
    </clipPath>
    <clipPath
       clipPathUnits="userSpaceOnUse"
       id="clipPath1939">
      <path
         d="M 8.871e-6,0 H 595.32001 V 841.92 H 8.871e-6 Z"
         clip-rule="evenodd"
         id="path1937" />
    </clipPath>
    <clipPath
       clipPathUnits="userSpaceOnUse"
       id="clipPath1951">
      <path
         d="M 8.871e-6,0 H 595.32001 V 841.92 H 8.871e-6 Z"
         clip-rule="evenodd"
         id="path1949" />
    </clipPath>
    <clipPath
       clipPathUnits="userSpaceOnUse"
       id="clipPath1963">
      <path
         d="M 8.871e-6,0 H 595.32001 V 841.92 H 8.871e-6 Z"
         clip-rule="evenodd"
         id="path1961" />
    </clipPath>
    <clipPath
       clipPathUnits="userSpaceOnUse"
       id="clipPath1975">
      <path
         d="M 8.871e-6,0 H 595.32001 V 841.92 H 8.871e-6 Z"
         clip-rule="evenodd"
         id="path1973" />
    </clipPath>
    <clipPath
       clipPathUnits="userSpaceOnUse"
       id="clipPath1987">
      <path
         d="M 8.871e-6,0 H 595.32001 V 841.92 H 8.871e-6 Z"
         clip-rule="evenodd"
         id="path1985" />
    </clipPath>
    <clipPath
       clipPathUnits="userSpaceOnUse"
       id="clipPath1999">
      <path
         d="M 8.871e-6,0 H 595.32001 V 841.92 H 8.871e-6 Z"
         clip-rule="evenodd"
         id="path1997" />
    </clipPath>
    <clipPath
       clipPathUnits="userSpaceOnUse"
       id="clipPath2011">
      <path
         d="M 8.871e-6,0 H 595.32001 V 841.92 H 8.871e-6 Z"
         clip-rule="evenodd"
         id="path2009" />
    </clipPath>
    <clipPath
       clipPathUnits="userSpaceOnUse"
       id="clipPath2023">
      <path
         d="M 8.871e-6,0 H 595.32001 V 841.92 H 8.871e-6 Z"
         clip-rule="evenodd"
         id="path2021" />
    </clipPath>
    <clipPath
       clipPathUnits="userSpaceOnUse"
       id="clipPath2031">
      <path
         d="M 8.871e-6,0 H 595.32001 V 841.92 H 8.871e-6 Z"
         clip-rule="evenodd"
         id="path2029" />
    </clipPath>
    <clipPath
       clipPathUnits="userSpaceOnUse"
       id="clipPath2041">
      <path
         d="M 8.871e-6,0 H 595.32001 V 841.92 H 8.871e-6 Z"
         clip-rule="evenodd"
         id="path2039" />
    </clipPath>
    <clipPath
       clipPathUnits="userSpaceOnUse"
       id="clipPath2049">
      <path
         d="m 70.85,761.47 h 453.6 v 45.05 H 70.85 Z"
         clip-rule="evenodd"
         id="path2047" />
    </clipPath>
    <clipPath
       clipPathUnits="userSpaceOnUse"
       id="clipPath2059">
      <path
         d="M 0,0 H 87.008 V 8.766 H 0 Z"
         id="path2057" />
    </clipPath>
    <clipPath
       clipPathUnits="userSpaceOnUse"
       id="clipPath2069">
      <path
         d="m 0.085044,0.040938 h 86.88 v 8.64 h -86.88 z"
         clip-rule="evenodd"
         id="path2067" />
    </clipPath>
    <clipPath
       clipPathUnits="userSpaceOnUse"
       id="clipPath2141">
      <path
         d="M 8.871e-6,0 H 595.32001 V 841.92 H 8.871e-6 Z"
         clip-rule="evenodd"
         id="path2139" />
    </clipPath>
    <clipPath
       clipPathUnits="userSpaceOnUse"
       id="clipPath2153">
      <path
         d="M 8.871e-6,0 H 595.32001 V 841.92 H 8.871e-6 Z"
         clip-rule="evenodd"
         id="path2151" />
    </clipPath>
    <clipPath
       clipPathUnits="userSpaceOnUse"
       id="clipPath2161">
      <path
         d="M 8.871e-6,0 H 595.32001 V 841.92 H 8.871e-6 Z"
         clip-rule="evenodd"
         id="path2159" />
    </clipPath>
    <clipPath
       clipPathUnits="userSpaceOnUse"
       id="clipPath2173">
      <path
         d="M 8.871e-6,0 H 595.32001 V 841.92 H 8.871e-6 Z"
         clip-rule="evenodd"
         id="path2171" />
    </clipPath>
    <clipPath
       clipPathUnits="userSpaceOnUse"
       id="clipPath2185">
      <path
         d="M 8.871e-6,0 H 595.32001 V 841.92 H 8.871e-6 Z"
         clip-rule="evenodd"
         id="path2183" />
    </clipPath>
    <clipPath
       clipPathUnits="userSpaceOnUse"
       id="clipPath2197">
      <path
         d="M 8.871e-6,0 H 595.32001 V 841.92 H 8.871e-6 Z"
         clip-rule="evenodd"
         id="path2195" />
    </clipPath>
    <clipPath
       clipPathUnits="userSpaceOnUse"
       id="clipPath2205">
      <path
         d="M 8.871e-6,0 H 595.32001 V 841.92 H 8.871e-6 Z"
         clip-rule="evenodd"
         id="path2203" />
    </clipPath>
    <clipPath
       clipPathUnits="userSpaceOnUse"
       id="clipPath2217">
      <path
         d="M 8.871e-6,0 H 595.32001 V 841.92 H 8.871e-6 Z"
         clip-rule="evenodd"
         id="path2215" />
    </clipPath>
    <clipPath
       clipPathUnits="userSpaceOnUse"
       id="clipPath2229">
      <path
         d="M 8.871e-6,0 H 595.32001 V 841.92 H 8.871e-6 Z"
         clip-rule="evenodd"
         id="path2227" />
    </clipPath>
    <clipPath
       clipPathUnits="userSpaceOnUse"
       id="clipPath2237">
      <path
         d="M 8.871e-6,0 H 595.32001 V 841.92 H 8.871e-6 Z"
         clip-rule="evenodd"
         id="path2235" />
    </clipPath>
    <clipPath
       clipPathUnits="userSpaceOnUse"
       id="clipPath2249">
      <path
         d="M 8.871e-6,0 H 595.32001 V 841.92 H 8.871e-6 Z"
         clip-rule="evenodd"
         id="path2247" />
    </clipPath>
    <clipPath
       clipPathUnits="userSpaceOnUse"
       id="clipPath2257">
      <path
         d="M 8.871e-6,0 H 595.32001 V 841.92 H 8.871e-6 Z"
         clip-rule="evenodd"
         id="path2255" />
    </clipPath>
    <clipPath
       clipPathUnits="userSpaceOnUse"
       id="clipPath2269">
      <path
         d="M 8.871e-6,0 H 595.32001 V 841.92 H 8.871e-6 Z"
         clip-rule="evenodd"
         id="path2267" />
    </clipPath>
    <clipPath
       clipPathUnits="userSpaceOnUse"
       id="clipPath2277">
      <path
         d="M 8.871e-6,0 H 595.32001 V 841.92 H 8.871e-6 Z"
         clip-rule="evenodd"
         id="path2275" />
    </clipPath>
    <clipPath
       clipPathUnits="userSpaceOnUse"
       id="clipPath2289">
      <path
         d="M 8.871e-6,0 H 595.32001 V 841.92 H 8.871e-6 Z"
         clip-rule="evenodd"
         id="path2287" />
    </clipPath>
    <clipPath
       clipPathUnits="userSpaceOnUse"
       id="clipPath2301">
      <path
         d="M 8.871e-6,0 H 595.32001 V 841.92 H 8.871e-6 Z"
         clip-rule="evenodd"
         id="path2299" />
    </clipPath>
    <clipPath
       clipPathUnits="userSpaceOnUse"
       id="clipPath2313">
      <path
         d="M 8.871e-6,0 H 595.32001 V 841.92 H 8.871e-6 Z"
         clip-rule="evenodd"
         id="path2311" />
    </clipPath>
    <clipPath
       clipPathUnits="userSpaceOnUse"
       id="clipPath2325">
      <path
         d="M 8.871e-6,0 H 595.32001 V 841.92 H 8.871e-6 Z"
         clip-rule="evenodd"
         id="path2323" />
    </clipPath>
    <clipPath
       clipPathUnits="userSpaceOnUse"
       id="clipPath2337">
      <path
         d="M 8.871e-6,0 H 595.32001 V 841.92 H 8.871e-6 Z"
         clip-rule="evenodd"
         id="path2335" />
    </clipPath>
    <clipPath
       clipPathUnits="userSpaceOnUse"
       id="clipPath2349">
      <path
         d="M 8.871e-6,0 H 595.32001 V 841.92 H 8.871e-6 Z"
         clip-rule="evenodd"
         id="path2347" />
    </clipPath>
    <clipPath
       clipPathUnits="userSpaceOnUse"
       id="clipPath2361">
      <path
         d="M 8.871e-6,0 H 595.32001 V 841.92 H 8.871e-6 Z"
         clip-rule="evenodd"
         id="path2359" />
    </clipPath>
    <clipPath
       clipPathUnits="userSpaceOnUse"
       id="clipPath2373">
      <path
         d="M 8.871e-6,0 H 595.32001 V 841.92 H 8.871e-6 Z"
         clip-rule="evenodd"
         id="path2371" />
    </clipPath>
    <clipPath
       clipPathUnits="userSpaceOnUse"
       id="clipPath2385">
      <path
         d="M 8.871e-6,0 H 595.32001 V 841.92 H 8.871e-6 Z"
         clip-rule="evenodd"
         id="path2383" />
    </clipPath>
    <clipPath
       clipPathUnits="userSpaceOnUse"
       id="clipPath2397">
      <path
         d="M 8.871e-6,0 H 595.32001 V 841.92 H 8.871e-6 Z"
         clip-rule="evenodd"
         id="path2395" />
    </clipPath>
    <clipPath
       clipPathUnits="userSpaceOnUse"
       id="clipPath2409">
      <path
         d="M 8.871e-6,0 H 595.32001 V 841.92 H 8.871e-6 Z"
         clip-rule="evenodd"
         id="path2407" />
    </clipPath>
    <clipPath
       clipPathUnits="userSpaceOnUse"
       id="clipPath2421">
      <path
         d="M 8.871e-6,0 H 595.32001 V 841.92 H 8.871e-6 Z"
         clip-rule="evenodd"
         id="path2419" />
    </clipPath>
    <clipPath
       clipPathUnits="userSpaceOnUse"
       id="clipPath2433">
      <path
         d="M 8.871e-6,0 H 595.32001 V 841.92 H 8.871e-6 Z"
         clip-rule="evenodd"
         id="path2431" />
    </clipPath>
    <clipPath
       clipPathUnits="userSpaceOnUse"
       id="clipPath2445">
      <path
         d="M 8.871e-6,0 H 595.32001 V 841.92 H 8.871e-6 Z"
         clip-rule="evenodd"
         id="path2443" />
    </clipPath>
    <clipPath
       clipPathUnits="userSpaceOnUse"
       id="clipPath2457">
      <path
         d="M 8.871e-6,0 H 595.32001 V 841.92 H 8.871e-6 Z"
         clip-rule="evenodd"
         id="path2455" />
    </clipPath>
    <clipPath
       clipPathUnits="userSpaceOnUse"
       id="clipPath2469">
      <path
         d="M 8.871e-6,0 H 595.32001 V 841.92 H 8.871e-6 Z"
         clip-rule="evenodd"
         id="path2467" />
    </clipPath>
    <clipPath
       clipPathUnits="userSpaceOnUse"
       id="clipPath2477">
      <path
         d="M 8.871e-6,0 H 595.32001 V 841.92 H 8.871e-6 Z"
         clip-rule="evenodd"
         id="path2475" />
    </clipPath>
    <clipPath
       clipPathUnits="userSpaceOnUse"
       id="clipPath2489">
      <path
         d="M 8.871e-6,0 H 595.32001 V 841.92 H 8.871e-6 Z"
         clip-rule="evenodd"
         id="path2487" />
    </clipPath>
    <clipPath
       clipPathUnits="userSpaceOnUse"
       id="clipPath2501">
      <path
         d="M 8.871e-6,0 H 595.32001 V 841.92 H 8.871e-6 Z"
         clip-rule="evenodd"
         id="path2499" />
    </clipPath>
    <clipPath
       clipPathUnits="userSpaceOnUse"
       id="clipPath2513">
      <path
         d="M 8.871e-6,0 H 595.32001 V 841.92 H 8.871e-6 Z"
         clip-rule="evenodd"
         id="path2511" />
    </clipPath>
    <clipPath
       clipPathUnits="userSpaceOnUse"
       id="clipPath2525">
      <path
         d="M 8.871e-6,0 H 595.32001 V 841.92 H 8.871e-6 Z"
         clip-rule="evenodd"
         id="path2523" />
    </clipPath>
    <clipPath
       clipPathUnits="userSpaceOnUse"
       id="clipPath2533">
      <path
         d="M 8.871e-6,0 H 595.32001 V 841.92 H 8.871e-6 Z"
         clip-rule="evenodd"
         id="path2531" />
    </clipPath>
    <clipPath
       clipPathUnits="userSpaceOnUse"
       id="clipPath2545">
      <path
         d="M 8.871e-6,0 H 595.32001 V 841.92 H 8.871e-6 Z"
         clip-rule="evenodd"
         id="path2543" />
    </clipPath>
    <clipPath
       clipPathUnits="userSpaceOnUse"
       id="clipPath2553">
      <path
         d="M 8.871e-6,0 H 595.32001 V 841.92 H 8.871e-6 Z"
         clip-rule="evenodd"
         id="path2551" />
    </clipPath>
    <clipPath
       clipPathUnits="userSpaceOnUse"
       id="clipPath2565">
      <path
         d="M 8.871e-6,0 H 595.32001 V 841.92 H 8.871e-6 Z"
         clip-rule="evenodd"
         id="path2563" />
    </clipPath>
    <clipPath
       clipPathUnits="userSpaceOnUse"
       id="clipPath2577">
      <path
         d="M 8.871e-6,0 H 595.32001 V 841.92 H 8.871e-6 Z"
         clip-rule="evenodd"
         id="path2575" />
    </clipPath>
    <clipPath
       clipPathUnits="userSpaceOnUse"
       id="clipPath2589">
      <path
         d="M 8.871e-6,0 H 595.32001 V 841.92 H 8.871e-6 Z"
         clip-rule="evenodd"
         id="path2587" />
    </clipPath>
    <clipPath
       clipPathUnits="userSpaceOnUse"
       id="clipPath2601">
      <path
         d="M 8.871e-6,0 H 595.32001 V 841.92 H 8.871e-6 Z"
         clip-rule="evenodd"
         id="path2599" />
    </clipPath>
    <clipPath
       clipPathUnits="userSpaceOnUse"
       id="clipPath2613">
      <path
         d="M 8.871e-6,0 H 595.32001 V 841.92 H 8.871e-6 Z"
         clip-rule="evenodd"
         id="path2611" />
    </clipPath>
    <clipPath
       clipPathUnits="userSpaceOnUse"
       id="clipPath2625">
      <path
         d="M 8.871e-6,0 H 595.32001 V 841.92 H 8.871e-6 Z"
         clip-rule="evenodd"
         id="path2623" />
    </clipPath>
  </defs>
  <metadata
     id="metadata5">
    <rdf:RDF>
      <cc:Work
         rdf:about="">
        <dc:format>image/svg+xml</dc:format>
        <dc:type
           rdf:resource="http://purl.org/dc/dcmitype/StillImage" />
      </cc:Work>
    </rdf:RDF>
  </metadata>
  <g
     aria-label="Tidsskriftet Arkiv"
     id="text901"
     style="font-stretch:condensed;font-size:11.6838px;line-height:1.25;font-family:'Bodoni MT';-inkscape-font-specification:'Bodoni MT, Condensed';letter-spacing:0px;word-spacing:0px;fill:#ffffff;stroke:#000000;stroke-width:0.505028;stroke-linecap:round;stroke-linejoin:round;stroke-miterlimit:4;stroke-dasharray:none;paint-order:stroke fill markers"
     transform="matrix(1.5522516,0,0,1.5913798,-57.275756,42.658487)">
    <path
       d="m 59.618237,-23.32907 h -0.176854 q -0.08557,-0.947027 -0.376529,-1.369195 -0.290954,-0.422169 -0.872862,-0.422169 v 7.079881 h 0.502039 v 0.176854 h -1.973924 v -0.176854 h 0.502039 v -7.079881 q -0.587613,0 -0.878567,0.422169 -0.290954,0.422168 -0.370824,1.369195 h -0.176854 v -1.968218 h 3.822336 z"
       id="path825"
       style="fill:#ffffff;stroke:#000000;stroke-width:0.505028;stroke-linecap:round;stroke-linejoin:round;stroke-miterlimit:4;stroke-dasharray:none;paint-order:stroke fill markers" />
    <path
       d="m 60.998843,-25.297288 q 0.205379,0 0.353709,0.148329 0.148329,0.14833 0.148329,0.359414 0,0.205379 -0.148329,0.353709 -0.14833,0.148329 -0.353709,0.148329 -0.211084,0 -0.359414,-0.148329 -0.142624,-0.14833 -0.142624,-0.353709 0,-0.211084 0.142624,-0.359414 0.14833,-0.148329 0.359414,-0.148329 z m 0.935617,7.433589 h -1.871234 v -0.176854 h 0.490628 v -4.683789 h -0.490628 v -0.176855 h 1.380605 v 4.860644 h 0.490629 z"
       id="path827"
       style="fill:#ffffff;stroke:#000000;stroke-width:0.505028;stroke-linecap:round;stroke-linejoin:round;stroke-miterlimit:4;stroke-dasharray:none;paint-order:stroke fill markers" />
    <path
       d="m 66.064865,-17.863699 h -1.3749 v -0.336594 q -0.290954,0.416464 -0.735942,0.416464 -0.633253,0 -1.061127,-0.730238 -0.427873,-0.730237 -0.427873,-1.871233 0,-1.140996 0.427873,-1.871234 0.427874,-0.735942 1.061127,-0.735942 0.444988,0 0.735942,0.422168 v -2.550126 h -0.490628 v -0.176854 h 1.3749 v 7.256735 h 0.490628 z m -1.3749,-0.901387 v -3.246134 q 0,-0.308069 -0.205379,-0.530563 -0.20538,-0.228199 -0.416464,-0.228199 -0.308069,0 -0.484923,0.302364 -0.17115,0.302364 -0.17115,0.855747 v 2.453142 q 0,0.547678 0.17115,0.850042 0.176854,0.302364 0.484923,0.302364 0.211084,0 0.416464,-0.2282 0.205379,-0.228199 0.205379,-0.530563 z"
       id="path829"
       style="fill:#ffffff;stroke:#000000;stroke-width:0.505028;stroke-linecap:round;stroke-linejoin:round;stroke-miterlimit:4;stroke-dasharray:none;paint-order:stroke fill markers" />
    <path
       d="m 68.797551,-21.440722 q -0.09699,-0.673187 -0.376529,-1.021191 -0.279544,-0.353709 -0.684598,-0.353709 -0.251019,0 -0.399348,0.176854 -0.14833,0.17115 -0.14833,0.439284 0,0.290954 0.15974,0.530563 0.159739,0.233904 0.735942,0.730238 1.112471,0.958436 1.112471,1.859823 0,0.684598 -0.342298,0.992667 -0.336594,0.302364 -0.838633,0.302364 -0.462103,0 -0.781582,-0.18256 -0.148329,-0.09698 -0.245314,-0.09698 -0.09698,0 -0.131215,0.199674 h -0.171149 v -1.717199 h 0.171149 q 0.09699,0.798697 0.399349,1.215161 0.308069,0.410758 0.735943,0.410758 0.262429,0 0.439283,-0.188264 0.182559,-0.188264 0.182559,-0.467808 0,-0.348004 -0.228199,-0.673188 -0.228199,-0.330889 -0.815812,-0.832927 -0.918502,-0.798697 -0.918502,-1.6031 0,-0.633252 0.336594,-0.952731 0.342299,-0.319479 0.747352,-0.319479 0.450694,0 0.758763,0.199674 0.102689,0.05705 0.176854,0.05705 0.12551,0 0.12551,-0.165445 h 0.176854 v 1.460475 z"
       id="path831"
       style="fill:#ffffff;stroke:#000000;stroke-width:0.505028;stroke-linecap:round;stroke-linejoin:round;stroke-miterlimit:4;stroke-dasharray:none;paint-order:stroke fill markers" />
    <path
       d="m 71.952405,-21.440722 q -0.09699,-0.673187 -0.376529,-1.021191 -0.279544,-0.353709 -0.684598,-0.353709 -0.251019,0 -0.399348,0.176854 -0.14833,0.17115 -0.14833,0.439284 0,0.290954 0.15974,0.530563 0.159739,0.233904 0.735942,0.730238 1.112471,0.958436 1.112471,1.859823 0,0.684598 -0.342299,0.992667 -0.336593,0.302364 -0.838632,0.302364 -0.462103,0 -0.781582,-0.18256 -0.148329,-0.09698 -0.245314,-0.09698 -0.09698,0 -0.131215,0.199674 h -0.171149 v -1.717199 h 0.171149 q 0.09699,0.798697 0.399349,1.215161 0.308069,0.410758 0.735942,0.410758 0.262429,0 0.439284,-0.188264 0.182559,-0.188264 0.182559,-0.467808 0,-0.348004 -0.228199,-0.673188 -0.228199,-0.330889 -0.815812,-0.832927 -0.918502,-0.798697 -0.918502,-1.6031 0,-0.633252 0.336594,-0.952731 0.342299,-0.319479 0.747352,-0.319479 0.450694,0 0.758763,0.199674 0.102689,0.05705 0.176854,0.05705 0.12551,0 0.12551,-0.165445 h 0.176854 v 1.460475 z"
       id="path833"
       style="fill:#ffffff;stroke:#000000;stroke-width:0.505028;stroke-linecap:round;stroke-linejoin:round;stroke-miterlimit:4;stroke-dasharray:none;paint-order:stroke fill markers" />
    <path
       d="m 74.491121,-17.863699 h -1.69438 v -0.176854 h 0.490629 v -7.079881 h -0.490629 v -0.176854 h 1.380606 v 7.256735 h 0.313774 z m 2.299107,0 h -1.728609 v -0.176854 h 0.330888 l -1.101061,-2.675636 0.901387,-1.180931 q 0.370824,-0.490628 0.399349,-0.559088 0.02853,-0.06846 0.02853,-0.12551 0,-0.142624 -0.18256,-0.142624 h -0.256724 v -0.176855 h 1.306441 v 0.176855 h -0.176855 q -0.245314,0 -0.433578,0.239609 l -0.884272,1.175226 1.380605,3.268954 h 0.416464 z"
       id="path835"
       style="fill:#ffffff;stroke:#000000;stroke-width:0.505028;stroke-linecap:round;stroke-linejoin:round;stroke-miterlimit:4;stroke-dasharray:none;paint-order:stroke fill markers" />
    <path
       d="m 78.438969,-22.524668 q 0.216789,-0.467808 0.735942,-0.467808 0.279544,0 0.473513,0.188264 0.199675,0.188264 0.199675,0.456398 0,0.211085 -0.13692,0.365119 -0.136919,0.14833 -0.353709,0.14833 -0.193969,0 -0.325184,-0.12551 -0.125509,-0.131214 -0.125509,-0.308069 0,-0.142624 0.136919,-0.353709 0.04564,-0.06275 0.04564,-0.07987 0,-0.07987 -0.09128,-0.07987 -0.21679,0 -0.399349,0.302364 -0.182559,0.302364 -0.182559,0.701713 v 3.736762 h 0.490628 v 0.176854 h -1.871234 v -0.176854 h 0.490629 v -4.683789 h -0.490629 v -0.176855 h 1.380606 v 0.376529 z"
       id="path837"
       style="fill:#ffffff;stroke:#000000;stroke-width:0.505028;stroke-linecap:round;stroke-linejoin:round;stroke-miterlimit:4;stroke-dasharray:none;paint-order:stroke fill markers" />
    <path
       d="m 81.068963,-25.297288 q 0.20538,0 0.353709,0.148329 0.14833,0.14833 0.14833,0.359414 0,0.205379 -0.14833,0.353709 -0.148329,0.148329 -0.353709,0.148329 -0.211084,0 -0.359414,-0.148329 -0.142624,-0.14833 -0.142624,-0.353709 0,-0.211084 0.142624,-0.359414 0.14833,-0.148329 0.359414,-0.148329 z m 0.935617,7.433589 h -1.871234 v -0.176854 h 0.490629 v -4.683789 h -0.490629 v -0.176855 h 1.380606 v 4.860644 h 0.490628 z"
       id="path839"
       style="fill:#ffffff;stroke:#000000;stroke-width:0.505028;stroke-linecap:round;stroke-linejoin:round;stroke-miterlimit:4;stroke-dasharray:none;paint-order:stroke fill markers" />
    <path
       d="m 82.854622,-22.901197 q -0.07416,-0.678892 -0.07416,-0.935616 0,-0.724533 0.256724,-1.129586 0.256724,-0.410759 0.701712,-0.410759 0.290954,0 0.507744,0.233904 0.216789,0.228199 0.216789,0.524858 0,0.19397 -0.108395,0.325184 -0.102689,0.131215 -0.251019,0.131215 -0.171149,0 -0.285249,-0.12551 -0.1141,-0.125509 -0.1141,-0.319479 0,-0.165444 0.09128,-0.296659 0.09698,-0.131214 0.09698,-0.159739 0,-0.1141 -0.199674,-0.1141 -0.165445,0 -0.285249,0.199675 -0.119805,0.193969 -0.119805,0.479218 0,0.901387 0.382234,1.597394 h 0.587613 v 0.176855 h -0.490629 v 4.683789 h 0.490629 v 0.176854 h -1.871234 v -0.176854 h 0.490628 v -4.683789 h -0.490628 v -0.176855 z"
       id="path841"
       style="fill:#ffffff;stroke:#000000;stroke-width:0.505028;stroke-linecap:round;stroke-linejoin:round;stroke-miterlimit:4;stroke-dasharray:none;paint-order:stroke fill markers" />
    <path
       d="m 86.870928,-18.890595 q -0.154034,1.118176 -0.947026,1.118176 -0.319479,0 -0.519154,-0.21679 -0.193969,-0.222494 -0.193969,-0.599022 v -4.136111 h -0.593318 v -0.176855 h 0.593318 v -1.39772 h 0.889977 v 1.39772 h 0.593318 v 0.176855 h -0.593318 v 4.392835 q 0,0.211084 0.136919,0.211084 0.319479,0 0.444989,-0.770172 z"
       id="path843"
       style="fill:#ffffff;stroke:#000000;stroke-width:0.505028;stroke-linecap:round;stroke-linejoin:round;stroke-miterlimit:4;stroke-dasharray:none;paint-order:stroke fill markers" />
    <path
       d="m 90.196931,-20.259791 h -1.916873 v 1.158111 q 0,0.519154 0.216789,0.821517 0.21679,0.302364 0.541973,0.302364 0.376529,0 0.633253,-0.410758 0.256724,-0.410759 0.325184,-1.158111 h 0.188264 q -0.07416,0.901387 -0.382233,1.334965 -0.308069,0.427874 -0.901387,0.427874 -0.753057,0 -1.163816,-0.684598 -0.405054,-0.684598 -0.405054,-1.939693 0,-1.255096 0.382234,-1.916874 0.387939,-0.667482 1.129586,-0.667482 0.673188,0 1.009782,0.684597 0.342298,0.684598 0.342298,2.048088 z m -0.907091,-0.199674 v -1.517525 q 0,-0.393643 -0.119805,-0.616138 -0.119805,-0.222494 -0.325184,-0.222494 -0.262429,0 -0.416463,0.273839 -0.14833,0.273839 -0.14833,0.730238 v 1.35208 z"
       id="path845"
       style="fill:#ffffff;stroke:#000000;stroke-width:0.505028;stroke-linecap:round;stroke-linejoin:round;stroke-miterlimit:4;stroke-dasharray:none;paint-order:stroke fill markers" />
    <path
       d="m 92.946732,-18.890595 q -0.154034,1.118176 -0.947027,1.118176 -0.319479,0 -0.519153,-0.21679 -0.193969,-0.222494 -0.193969,-0.599022 v -4.136111 h -0.593318 v -0.176855 h 0.593318 v -1.39772 h 0.889977 v 1.39772 h 0.593318 v 0.176855 H 92.17656 v 4.392835 q 0,0.211084 0.136919,0.211084 0.319479,0 0.444989,-0.770172 z"
       id="path847"
       style="fill:#ffffff;stroke:#000000;stroke-width:0.505028;stroke-linecap:round;stroke-linejoin:round;stroke-miterlimit:4;stroke-dasharray:none;paint-order:stroke fill markers" />
    <path
       d="m 99.672906,-17.863699 h -1.928284 v -0.176854 h 0.479219 l -0.410759,-1.905464 h -1.34067 q -0.290954,1.437655 -0.290954,1.55746 0,0.348004 0.370823,0.348004 h 0.268135 v 0.176854 h -1.517525 v -0.176854 h 0.154034 q 0.427874,0 0.547678,-0.593318 l 1.363491,-6.766107 h 0.222494 l 1.614509,7.359425 h 0.467809 z m -1.894054,-2.253467 -0.656072,-3.074985 -0.616138,3.074985 z"
       id="path849"
       style="fill:#ffffff;stroke:#000000;stroke-width:0.505028;stroke-linecap:round;stroke-linejoin:round;stroke-miterlimit:4;stroke-dasharray:none;paint-order:stroke fill markers" />
    <path
       d="m 101.28741,-22.524668 q 0.21679,-0.467808 0.73595,-0.467808 0.27954,0 0.47351,0.188264 0.19967,0.188264 0.19967,0.456398 0,0.211085 -0.13691,0.365119 -0.13692,0.14833 -0.35371,0.14833 -0.19397,0 -0.32519,-0.12551 -0.12551,-0.131214 -0.12551,-0.308069 0,-0.142624 0.13692,-0.353709 0.0456,-0.06275 0.0456,-0.07987 0,-0.07987 -0.0913,-0.07987 -0.21679,0 -0.39935,0.302364 -0.18256,0.302364 -0.18256,0.701713 v 3.736762 h 0.49063 v 0.176854 h -1.871231 v -0.176854 h 0.490631 v -4.683789 h -0.490631 v -0.176855 h 1.380601 v 0.376529 z"
       id="path851"
       style="fill:#ffffff;stroke:#000000;stroke-width:0.505028;stroke-linecap:round;stroke-linejoin:round;stroke-miterlimit:4;stroke-dasharray:none;paint-order:stroke fill markers" />
    <path
       d="m 104.67617,-17.863699 h -1.69438 v -0.176854 h 0.49063 v -7.079881 h -0.49063 v -0.176854 h 1.38061 v 7.256735 h 0.31377 z m 2.29911,0 h -1.72861 v -0.176854 h 0.33089 l -1.10106,-2.675636 0.90139,-1.180931 q 0.37082,-0.490628 0.39934,-0.559088 0.0285,-0.06846 0.0285,-0.12551 0,-0.142624 -0.18256,-0.142624 h -0.25672 v -0.176855 h 1.30644 v 0.176855 h -0.17686 q -0.24531,0 -0.43358,0.239609 l -0.88427,1.175226 1.38061,3.268954 h 0.41646 z"
       id="path853"
       style="fill:#ffffff;stroke:#000000;stroke-width:0.505028;stroke-linecap:round;stroke-linejoin:round;stroke-miterlimit:4;stroke-dasharray:none;paint-order:stroke fill markers" />
    <path
       d="m 108.15621,-25.297288 q 0.20538,0 0.35371,0.148329 0.14833,0.14833 0.14833,0.359414 0,0.205379 -0.14833,0.353709 -0.14833,0.148329 -0.35371,0.148329 -0.21108,0 -0.35941,-0.148329 -0.14263,-0.14833 -0.14263,-0.353709 0,-0.211084 0.14263,-0.359414 0.14833,-0.148329 0.35941,-0.148329 z m 0.93562,7.433589 h -1.87124 v -0.176854 h 0.49063 v -4.683789 h -0.49063 v -0.176855 h 1.38061 v 4.860644 h 0.49063 z"
       id="path855"
       style="fill:#ffffff;stroke:#000000;stroke-width:0.505028;stroke-linecap:round;stroke-linejoin:round;stroke-miterlimit:4;stroke-dasharray:none;paint-order:stroke fill markers" />
    <path
       d="m 112.66314,-22.724342 q -0.29095,0.01712 -0.42217,0.131214 -0.12551,0.1141 -0.25102,0.593318 l -1.1467,4.227391 h -0.10839 l -1.40913,-4.951923 h -0.41076 v -0.176855 h 1.79707 v 0.176855 H 110.21 l 0.86716,3.189084 0.4621,-1.745724 q 0.21679,-0.810107 0.23391,-0.889977 0.0171,-0.08557 0.0171,-0.176855 0,-0.148329 -0.10839,-0.262429 -0.10269,-0.114099 -0.24532,-0.114099 h -0.24531 v -0.176855 h 1.47188 z"
       id="path857"
       style="fill:#ffffff;stroke:#000000;stroke-width:0.505028;stroke-linecap:round;stroke-linejoin:round;stroke-miterlimit:4;stroke-dasharray:none;paint-order:stroke fill markers" />
  </g>
  <g
     id="g1481"
     style="stroke-width:1.9324"
     transform="matrix(0.51749243,0,0,0.51749243,1.3098382,-3.7312032)">
    <g
       id="path989"
       style="font-variation-settings:normal;opacity:1;vector-effect:none;fill:#ffffff;fill-opacity:1;stroke:#000000;stroke-width:0.512083;stroke-linecap:round;stroke-linejoin:round;stroke-miterlimit:4;stroke-dasharray:none;stroke-dashoffset:0;stroke-opacity:1;paint-order:stroke fill markers;stop-color:#000000;stop-opacity:1"
       transform="translate(141.21376,-147.81914)">
      <g
         id="path1014"
         style="opacity:1;stroke-width:0.512083">
        <path
           style="color:#000000;font-style:normal;font-variant:normal;font-weight:normal;font-stretch:normal;font-size:medium;line-height:normal;font-family:sans-serif;font-variant-ligatures:normal;font-variant-position:normal;font-variant-caps:normal;font-variant-numeric:normal;font-variant-alternates:normal;font-variant-east-asian:normal;font-feature-settings:normal;font-variation-settings:normal;text-indent:0;text-align:start;text-decoration:none;text-decoration-line:none;text-decoration-style:solid;text-decoration-color:#000000;letter-spacing:normal;word-spacing:normal;text-transform:none;writing-mode:lr-tb;direction:ltr;text-orientation:mixed;dominant-baseline:auto;baseline-shift:baseline;text-anchor:start;white-space:normal;shape-padding:0;shape-margin:0;inline-size:0;clip-rule:nonzero;display:inline;overflow:visible;visibility:visible;isolation:auto;mix-blend-mode:normal;color-interpolation:sRGB;color-interpolation-filters:linearRGB;solid-color:#000000;solid-opacity:1;vector-effect:none;fill:#000000;fill-opacity:1;fill-rule:nonzero;stroke:none;stroke-width:0.512083;stroke-linecap:round;stroke-linejoin:round;stroke-miterlimit:4;stroke-dasharray:none;stroke-dashoffset:0;stroke-opacity:1;paint-order:stroke fill markers;color-rendering:auto;image-rendering:auto;shape-rendering:auto;text-rendering:auto;enable-background:accumulate;stop-color:#000000;stop-opacity:1"
           d="m -139.2207,181.47266 a 0.13249999,0.13249999 0 0 0 -0.10157,0.0488 0.13249999,0.13249999 0 0 0 0.0215,0.1875 l 5.0625,4.00782 c -1.25314,0.0254 -2.76482,0.0516 -4.44141,0.0684 -1.06426,0.0106 -2.06482,0.0189 -2.81054,0.0254 -0.37286,0.003 -0.68218,0.006 -0.9043,0.008 -0.22213,0.002 -0.34517,0.004 -0.38281,0.006 a 0.13249999,0.13249999 0 0 0 -0.12891,0.13672 0.13249999,0.13249999 0 0 0 0.13867,0.12695 c 0.01,-3.9e-4 0.15503,-0.002 0.37696,-0.004 0.22192,-0.002 0.53144,-0.005 0.90429,-0.008 0.74572,-0.007 1.74411,-0.0147 2.8086,-0.0254 1.84534,-0.0185 3.64678,-0.0454 4.89257,-0.0742 l 1.58594,0.25782 a 0.13251324,0.13251324 0 0 0 0.0176,0 l 12.70117,0.34765 a 0.13251324,0.13251324 0 0 0 0.004,0 c 0.34163,0 0.59709,-0.0889 0.76562,-0.24609 0.16854,-0.15717 0.23828,-0.37359 0.23828,-0.58985 0,-0.23902 -0.11241,-0.43028 -0.26172,-0.54882 -0.1493,-0.11855 -0.33002,-0.17443 -0.49414,-0.17969 a 0.13251324,0.13251324 0 0 0 -0.006,0 c -0.55186,0.007 -0.93601,0.0216 -1.37695,0.0332 -4.97568,0.13055 -7.92612,0.32404 -11.85351,0.48633 -0.0514,0.002 -0.0596,0.0149 -0.0723,0.0215 -0.0129,0.007 -0.0249,0.0127 -0.0371,0.0195 -0.0243,0.0138 -0.054,0.03 -0.0937,0.0469 -0.0796,0.0338 -0.19757,0.0688 -0.37305,0.0742 -0.14541,0.004 -0.54591,0.007 -0.73046,0.0117 l -0.0566,-0.01 -5.3086,-4.20117 a 0.13249999,0.13249999 0 0 0 -0.084,-0.0273 z m 19.98437,3.81054 c 0.10672,0.003 0.23871,0.0459 0.33594,0.12305 0.0972,0.0772 0.16406,0.18004 0.16406,0.33984 0,0.16173 -0.0466,0.29608 -0.15429,0.39649 -0.10702,0.0998 -0.28878,0.17292 -0.58204,0.17383 l -12.69336,-0.34571 -0.5,-0.0801 c 0.0276,-0.009 0.0787,-0.0118 0.10157,-0.0215 0.0527,-0.0224 0.0942,-0.0453 0.12109,-0.0605 0.008,-0.004 0.0107,-0.007 0.0156,-0.01 3.91791,-0.1622 6.86133,-0.35226 11.82226,-0.48242 0.4409,-0.0116 0.82417,-0.0262 1.36914,-0.0332 z"
           id="path1126" />
        <path
           style="color:#000000;font-style:normal;font-variant:normal;font-weight:normal;font-stretch:normal;font-size:medium;line-height:normal;font-family:sans-serif;font-variant-ligatures:normal;font-variant-position:normal;font-variant-caps:normal;font-variant-numeric:normal;font-variant-alternates:normal;font-variant-east-asian:normal;font-feature-settings:normal;font-variation-settings:normal;text-indent:0;text-align:start;text-decoration:none;text-decoration-line:none;text-decoration-style:solid;text-decoration-color:#000000;letter-spacing:normal;word-spacing:normal;text-transform:none;writing-mode:lr-tb;direction:ltr;text-orientation:mixed;dominant-baseline:auto;baseline-shift:baseline;text-anchor:start;white-space:normal;shape-padding:0;shape-margin:0;inline-size:0;clip-rule:nonzero;display:inline;overflow:visible;visibility:visible;isolation:auto;mix-blend-mode:normal;color-interpolation:sRGB;color-interpolation-filters:linearRGB;solid-color:#000000;solid-opacity:1;vector-effect:none;fill:none;fill-opacity:1;fill-rule:nonzero;stroke:none;stroke-width:0.512083;stroke-linecap:round;stroke-linejoin:round;stroke-miterlimit:4;stroke-dasharray:none;stroke-dashoffset:0;stroke-opacity:1;paint-order:stroke fill markers;color-rendering:auto;image-rendering:auto;shape-rendering:auto;text-rendering:auto;enable-background:accumulate;stop-color:#000000;stop-opacity:1"
           d="m -139.21855,181.60422 5.33445,4.22292 1.70526,0.27569 12.70292,0.34689 c 0.63812,0 0.87147,-0.32615 0.87147,-0.70414 0,-0.39883 -0.35767,-0.58657 -0.6285,-0.59526 -0.55029,0.007 -0.93381,0.0217 -1.37567,0.0333 -4.97364,0.1305 -7.92134,0.32277 -11.85031,0.48512 -0.0315,10e-4 -0.19365,0.15194 -0.57809,0.1638 -2.25189,0.0695 -9.54596,0.11629 -9.73591,0.12375"
           id="path1128" />
      </g>
      <g
         id="path1016"
         style="opacity:1;stroke-width:0.512083">
        <path
           id="path14209"
           style="baseline-shift:baseline;display:inline;overflow:visible;vector-effect:none;fill:#000000;stroke:none;enable-background:accumulate;stop-color:#000000;stop-opacity:1"
           d="m -139.21484,180.63281 c -0.29853,-0.001 -0.58002,0.13548 -0.76368,0.36719 -0.33226,0.41733 -0.26045,1.03442 0.15821,1.36523 l 3.21875,2.55079 c -0.66271,0.0116 -1.30048,0.0234 -2.08789,0.0312 -1.06338,0.0107 -2.0626,0.0189 -2.8086,0.0254 -0.37304,0.003 -0.68179,0.006 -0.90429,0.008 -0.22228,0.002 -0.32684,0.002 -0.41016,0.006 -0.53331,0.0211 -0.95249,0.47819 -0.93164,1.00976 0.0176,0.44249 0.35992,0.73757 0.76172,0.83789 0.006,0.006 0.0114,0.0122 0.0176,0.0176 a 0.30682732,0.30682732 0 0 0 0.20312,0.0762 c 2.8e-4,0 0.002,1.8e-4 0.0137,0 0.006,3e-5 0.012,1.6e-4 0.0195,0 0.0154,-3.2e-4 0.0433,-0.001 0.0742,-0.002 0.0685,-0.001 0.16395,-0.003 0.27149,-0.004 0.22152,-0.002 0.53163,-0.005 0.90429,-0.008 0.74498,-0.007 1.74701,-0.0147 2.8125,-0.0254 1.81481,-0.0182 3.56285,-0.0459 4.81641,-0.0742 l 1.50977,0.2461 c 0.0191,0.003 0.0392,0.005 0.0586,0.006 a 0.30682732,0.30682732 0 0 0 0.006,0 h 0.004 0.006 l -0.01,-0.002 -0.0176,-0.004 c 0.009,10e-4 0.0201,0.003 0.0391,0.006 h 0.002 0.004 c 0.003,4e-4 0.003,0.002 0.006,0.002 a 0.30682732,0.30682732 0 0 0 0.008,0 c 0.009,0.001 0.0234,0.004 0.0234,0.004 l -0.043,-0.004 h -0.008 c 0.0166,0.003 0.034,0.005 0.0508,0.006 a 0.30682732,0.30682732 0 0 0 0.006,0 l 12.70313,0.3457 a 0.30682732,0.30682732 0 0 0 0.006,0 c 0.002,2e-5 0.004,2e-5 0.006,0 0.004,1e-5 0.007,4e-5 0.01,0 h 0.004 c 0.48883,0 0.975,-0.13228 1.33789,-0.4707 0.36582,-0.34114 0.50586,-0.80035 0.50586,-1.20313 0,-0.50864 -0.24633,-0.94008 -0.58008,-1.20507 -0.30398,-0.24133 -0.65861,-0.35069 -0.99023,-0.36133 a 0.30682732,0.30682732 0 0 0 -0.008,0 c -0.004,-7e-5 -0.007,-2e-5 -0.01,0 h -0.0117 c -0.009,-9e-5 -0.005,-9e-5 -0.0137,0 -0.56174,0.007 -0.95349,0.0218 -1.38868,0.0332 -4.98849,0.13089 -7.94579,0.32251 -11.86328,0.48438 -0.11959,0.004 -0.23442,0.0241 -0.33984,0.0684 -0.0426,0.0179 -0.0753,0.0396 -0.10547,0.0586 -0.007,0.004 -0.0176,0.008 -0.0234,0.0117 a 0.30682732,0.30682732 0 0 0 -0.002,0.002 c 0.0296,-0.0178 0.0354,-0.0194 -0.004,0.002 a 0.30682732,0.30682732 0 0 0 -0.006,0.004 0.30682732,0.30682732 0 0 0 -0.0176,0.01 c -0.0365,0.0155 0.0239,0.005 -0.0703,0.008 -0.0771,0.002 -0.28689,0.006 -0.46289,0.01 l -5.08593,-4.02539 h -0.002 c -0.16858,-0.13306 -0.37758,-0.20661 -0.59375,-0.20898 -0.001,-2e-5 -0.002,-0.002 -0.004,-0.002 a 0.30682732,0.30682732 0 0 0 0,-0.002 z m 6.23437,4.22071 c -0.0293,0.0226 -0.0623,0.0486 -0.0625,0.0488 l 0.0371,-0.0332 c 0.006,-0.004 0.0133,-0.008 0.0254,-0.0156 z m -1.45703,0.75781 0.0781,0.0625 c -0.0279,5.8e-4 -0.0713,10e-4 -0.0996,0.002 0.004,-0.011 0.0157,-0.016 0.0195,-0.0273 0.004,-0.0125 -10e-4,-0.0245 0.002,-0.0371 z m 6.86133,0.0351 c -0.0272,0.0688 -0.0807,0.12279 -0.0801,0.20313 5.7e-4,0.0799 0.0542,0.13313 0.082,0.20117 l -4.58594,-0.125 h -0.0156 l -0.30469,-0.0488 c 0.0197,-0.009 0.0372,-0.0173 0.0586,-0.0293 a 0.30682732,0.30682732 0 0 0 0.002,0 c 0.008,-0.004 -0.003,2.1e-4 0.004,-0.004 1.60345,-0.0664 3.35718,-0.1274 4.83985,-0.19727 z m 0.50781,0.16211 0.004,0.0762 c -0.001,5e-5 -0.002,0 -0.002,0 0,0 -0.002,-0.0596 -0.002,-0.0762 z m -15.68555,0.78516 c 5.6e-4,0.004 0.004,0.0273 0.004,0.0273 0,0 -0.001,0.0387 -0.002,0.0547 z" />
        <path
           id="path1132"
           style="baseline-shift:baseline;display:inline;overflow:visible;vector-effect:none;fill:#000000;stroke:none;enable-background:accumulate;stop-color:#000000;stop-opacity:1"
           d="m -139.2168,180.93945 c -0.20372,-7.4e-4 -0.39549,0.093 -0.52148,0.25196 -0.22735,0.28556 -0.17892,0.70733 0.10742,0.93359 l 3.89453,3.08398 c -0.93232,0.0165 -1.83618,0.0338 -2.94922,0.0449 -1.06374,0.0107 -2.06469,0.0189 -2.81054,0.0254 -0.37287,0.003 -0.68177,0.006 -0.9043,0.008 -0.22235,0.002 -0.32629,0.003 -0.40039,0.006 -0.36422,0.0144 -0.65099,0.32757 -0.63672,0.69141 0.0141,0.35478 0.31766,0.62093 0.66406,0.625 a 0.13433766,0.13433766 0 0 0 0.0117,0.0117 c 2.8e-4,0 0.003,1.1e-4 0.01,0 a 0.13433766,0.13433766 0 0 0 0.002,0 c -0.002,5e-5 0.005,2.2e-4 0.0156,0 0.0163,-3.4e-4 0.0435,-9.8e-4 0.0762,-0.002 0.0671,-0.001 0.16398,-0.003 0.27343,-0.004 0.22151,-0.002 0.53146,-0.005 0.9043,-0.008 0.74544,-0.007 1.74551,-0.0147 2.81055,-0.0254 1.82475,-0.0183 3.58883,-0.0457 4.8418,-0.0742 l 1.54296,0.25 a 0.13433766,0.13433766 0 0 0 0.0176,0.002 c 0.005,1.3e-4 0.009,1e-4 0.0137,0 l 0.0195,0.002 c 6.3e-4,1.5e-4 0.001,-1.5e-4 0.002,0 l 0.0137,0.002 c 0.001,2.5e-4 0.003,0.002 0.004,0.002 a 0.13433766,0.13433766 0 0 0 0.0176,0.002 l 12.70313,0.3457 a 0.13433766,0.13433766 0 0 0 0.002,0 c 0.003,4e-5 0.005,4e-5 0.008,0 h 0.008 c 0.43386,0 0.83718,-0.11662 1.1289,-0.38867 0.2933,-0.27351 0.40821,-0.64654 0.40821,-0.97852 0,-0.40776 -0.20113,-0.75545 -0.46485,-0.96484 -0.24872,-0.19746 -0.53666,-0.28619 -0.80859,-0.29492 a 0.13433766,0.13433766 0 0 0 -0.002,0 c -0.002,-3e-5 -0.004,-2e-5 -0.006,0 h -0.0156 c -10e-4,-1e-5 -0.005,-1e-5 -0.006,0 -0.55814,0.007 -0.94749,0.0217 -1.38476,0.0332 -4.98382,0.13077 -7.93828,0.32236 -11.85938,0.48438 -0.0926,0.003 -0.16831,0.018 -0.23242,0.0449 -0.0324,0.0136 -0.0562,0.0275 -0.0762,0.041 -0.004,0.003 -0.007,0.006 -0.0117,0.01 -0.001,9.6e-4 -0.003,8.3e-4 -0.004,0.002 -0.005,0.003 -0.0119,0.006 -0.0156,0.008 -0.003,0.002 -0.005,0.004 -0.008,0.006 -0.003,0.002 -0.007,0.004 -0.01,0.006 -0.008,0.005 -0.016,0.008 -0.0332,0.0156 -0.0379,0.0161 -0.0661,0.0277 -0.17969,0.0312 -0.10245,0.003 -0.38561,0.006 -0.57617,0.01 l -5.17383,-4.09375 c -0.1161,-0.092 -0.2614,-0.14358 -0.41016,-0.14453 z m 0,0.53516 c 0.03,1.9e-4 0.0554,0.009 0.0781,0.0273 l 5.24805,4.15235 c 0.0484,0.039 0.10968,0.0599 0.17187,0.0586 a 0.13433766,0.13433766 0 0 0 0.002,0 c 0.15956,-0.004 0.52751,-0.004 0.67578,-0.01 0.17529,-0.006 0.30057,-0.0464 0.375,-0.0781 0.033,-0.014 0.063,-0.0276 0.0937,-0.0449 0.028,-0.0159 0.0271,-0.0183 0.0332,-0.0215 a 0.13433766,0.13433766 0 0 0 0.002,0 c 0.0102,-0.005 0.0173,-0.0128 0.0234,-0.0156 -0.0158,0.006 -0.003,-0.002 0.0508,-0.004 3.92738,-0.16228 6.87588,-0.35382 11.85156,-0.48437 0.43968,-0.0115 0.82368,-0.0262 1.37305,-0.0332 h 0.0137 c 0.17077,0.006 0.33515,0.0562 0.48828,0.17774 0.13654,0.10841 0.26172,0.32063 0.26172,0.54687 0,0.20977 -0.0718,0.4345 -0.23633,0.58789 -0.16638,0.15517 -0.42618,0.24414 -0.76562,0.24414 h -0.006 l -12.68946,-0.3457 -0.0371,-0.002 -1.5586,-0.25391 h -0.002 c -0.0162,-0.003 -0.0324,-0.004 -0.0488,-0.004 a 0.13433766,0.13433766 0 0 0 -0.002,0 c -1.2502,0.0287 -3.02568,0.0559 -4.85742,0.0742 -1.06439,0.0107 -2.06471,0.0189 -2.81055,0.0254 -0.37286,0.003 -0.68238,0.006 -0.9043,0.008 -0.11227,10e-4 -0.2089,0.003 -0.27539,0.004 -0.0347,6.8e-4 -0.0621,0.002 -0.0723,0.002 -0.01,-5.8e-4 -0.0195,-5.1e-4 -0.0293,0 h -0.002 c -0.0752,0.002 -0.12783,-0.0484 -0.13086,-0.125 -0.003,-0.0756 0.0469,-0.12888 0.12304,-0.13282 0.0591,-0.002 0.16482,-0.004 0.38672,-0.006 0.22211,-0.002 0.53145,-0.005 0.9043,-0.008 0.74545,-0.007 1.74615,-0.0147 2.81055,-0.0254 1.39904,-0.014 2.51167,-0.0366 3.69921,-0.0566 0.10914,-0.002 0.21302,-0.0783 0.24805,-0.18164 0.035,-0.10337 -4.1e-4,-0.22711 -0.0859,-0.29492 l -4.48242,-3.54883 c -0.06,-0.0474 -0.0692,-0.12367 -0.0215,-0.18359 0.0243,-0.0306 0.0627,-0.049 0.10351,-0.0488 z m 19.9668,3.80469 c -0.53764,0.007 -0.91846,0.0217 -1.35547,0.0332 -2.71711,0.0712 -4.4805,0.17252 -6.47461,0.26562 0.006,-2.9e-4 -0.002,-3e-5 -0.006,0 -0.13972,10e-4 -0.2647,0.12981 -0.26367,0.26954 0.001,0.13972 0.12785,0.26642 0.26758,0.26562 h 0.008 l 7.5918,0.20703 a 0.13433766,0.13433766 0 0 0 0.002,0 c 0.002,3e-5 0.004,2e-5 0.006,0 0.29207,-6.2e-4 0.47594,-0.075 0.58399,-0.17578 0.10395,-0.0969 0.15624,-0.24068 0.15624,-0.39844 0,-0.057 -0.005,-0.13421 -0.0469,-0.21093 -0.0406,-0.0738 -0.10011,-0.11737 -0.11719,-0.13086 -0.1008,-0.08 -0.21717,-0.12018 -0.33398,-0.125 -4.8e-4,-2e-5 -0.0154,-6e-5 -0.01,0 -0.003,-4e-5 -0.005,-4e-5 -0.008,0 z m -13.23633,0.24609 c -0.002,0.002 -0.0137,0.01 -0.0176,0.0117 0.005,-0.003 0.0103,-0.006 0.0176,-0.0117 z" />
        <path
           style="color:#000000;font-style:normal;font-variant:normal;font-weight:normal;font-stretch:normal;font-size:medium;line-height:normal;font-family:sans-serif;font-variant-ligatures:normal;font-variant-position:normal;font-variant-caps:normal;font-variant-numeric:normal;font-variant-alternates:normal;font-variant-east-asian:normal;font-feature-settings:normal;font-variation-settings:normal;text-indent:0;text-align:start;text-decoration:none;text-decoration-line:none;text-decoration-style:solid;text-decoration-color:#000000;letter-spacing:normal;word-spacing:normal;text-transform:none;writing-mode:lr-tb;direction:ltr;text-orientation:mixed;dominant-baseline:auto;baseline-shift:baseline;text-anchor:start;white-space:normal;shape-padding:0;shape-margin:0;inline-size:0;clip-rule:nonzero;display:inline;overflow:visible;visibility:visible;isolation:auto;mix-blend-mode:normal;color-interpolation:sRGB;color-interpolation-filters:linearRGB;solid-color:#000000;solid-opacity:1;vector-effect:none;fill:#ffffff;fill-opacity:1;fill-rule:nonzero;stroke:none;stroke-width:0.512083;stroke-linecap:round;stroke-linejoin:round;stroke-miterlimit:4;stroke-dasharray:none;stroke-dashoffset:0;stroke-opacity:1;paint-order:stroke fill markers;color-rendering:auto;image-rendering:auto;shape-rendering:auto;text-rendering:auto;enable-background:accumulate;stop-color:#000000;stop-opacity:1"
           d="m -139.2168,181.20703 c -0.12172,-4.4e-4 -0.23691,0.055 -0.3125,0.15039 -0.13688,0.17193 -0.10798,0.42236 0.0645,0.5586 l 4.48242,3.54882 c -1.18812,0.0201 -2.30164,0.0426 -3.69922,0.0566 -1.06405,0.0107 -2.06482,0.0189 -2.81055,0.0254 -0.37286,0.003 -0.68197,0.006 -0.90429,0.008 -0.22233,0.002 -0.3272,0.003 -0.39258,0.006 -0.21895,0.009 -0.38944,0.19315 -0.38086,0.41211 0.009,0.21895 0.19315,0.38944 0.41211,0.38086 -0.0179,7e-4 0.14742,-0.004 0.36914,-0.006 0.22172,-0.002 0.53144,-0.005 0.90429,-0.008 0.74571,-0.007 1.74586,-0.0147 2.81055,-0.0254 1.83266,-0.0183 3.60921,-0.0455 4.86133,-0.0742 l 1.57031,0.25391 0.0527,0.006 12.70312,0.3457 h 0.01 c 0.38667,0 0.71801,-0.10261 0.94726,-0.3164 0.22926,-0.21379 0.32227,-0.51254 0.32227,-0.78321 0,-0.31805 -0.16202,-0.59606 -0.36328,-0.75586 -0.20127,-0.15979 -0.42901,-0.22922 -0.65039,-0.23632 h -0.0176 c -0.55501,0.007 -0.94177,0.0217 -1.38086,0.0332 -4.97975,0.13066 -7.93123,0.32222 -11.85547,0.48437 -0.14824,0.006 -0.16358,0.0394 -0.18555,0.0508 -0.0224,0.0116 -0.0321,0.0192 -0.043,0.0254 -0.0218,0.0123 -0.0415,0.0218 -0.0684,0.0332 -0.0538,0.0228 -0.13528,0.0503 -0.27735,0.0547 -0.13382,0.004 -0.50794,0.006 -0.67578,0.01 l -5.24805,-4.15234 c -0.0695,-0.0551 -0.15544,-0.0854 -0.24414,-0.0859 z m 19.97071,4.33985 c 4.7e-4,1e-5 10e-4,-2e-5 0.002,0 0.0497,0.002 0.13484,0.0308 0.17969,0.0664 0.0453,0.0359 0.0625,0.052 0.0625,0.13281 0,0.10733 -0.0234,0.15935 -0.0703,0.20313 -0.0467,0.0436 -0.15335,0.10298 -0.40234,0.10351 l -7.85136,-0.22294 c 1.99949,-0.0933 4.0107,-0.17841 6.72831,-0.24971 0.43893,-0.0115 0.81715,-0.0262 1.35157,-0.0332 z"
           id="path1134" />
      </g>
    </g>
    <g
       id="path997"
       style="opacity:1;stroke-width:1.9324"
       transform="translate(141.21376,-147.81914)">
      <path
         id="path14383"
         style="baseline-shift:baseline;display:inline;overflow:visible;vector-effect:none;stroke-linecap:round;stroke-linejoin:round;paint-order:stroke fill markers;enable-background:accumulate;stop-color:#000000;stop-opacity:1"
         d="m -132.80469,184.06055 c -0.28456,0.007 -0.47706,0.16844 -0.5664,0.25195 -0.16701,0.15617 -0.2454,0.36255 -0.2793,0.58008 -0.035,0.22404 -0.0178,0.5132 0.18164,0.74804 0.0567,0.0665 0.10504,0.19079 0.12109,0.32227 0.0161,0.13148 -0.003,0.26911 -0.0215,0.31836 -0.18401,0.4882 0.0659,1.04247 0.55469,1.22656 0.4869,0.18328 1.03841,-0.0646 1.22265,-0.55078 0.29128,-0.77088 0.2542,-1.81532 -0.36523,-2.46484 -0.27606,-0.28947 -0.56305,-0.43748 -0.8457,-0.43164 a 0.30738516,0.30738516 0 0 0 -0.002,0 z" />
      <path
         id="path1150"
         style="baseline-shift:baseline;display:inline;overflow:visible;vector-effect:none;stroke-linecap:round;stroke-linejoin:round;paint-order:stroke fill markers;enable-background:accumulate;stop-color:#000000;stop-opacity:1"
         d="m -132.79688,184.36719 c -0.17203,0.004 -0.29186,0.10134 -0.36523,0.16992 -0.094,0.0879 -0.15948,0.23508 -0.18555,0.40234 -0.0261,0.16727 -0.008,0.35915 0.11328,0.50196 0.22199,0.26056 0.24101,0.71453 0.15235,0.94921 -0.12453,0.33039 0.0446,0.70563 0.375,0.83008 0.33011,0.12509 0.70319,-0.0434 0.82812,-0.37304 0.25184,-0.66651 0.19744,-1.62016 -0.30078,-2.14258 -0.24096,-0.25266 -0.44539,-0.34144 -0.61719,-0.33789 z m 0.0391,0.50781 h 0.002 a 0.08638823,0.08638823 0 0 0 0.004,0 c 0.0497,-0.003 0.0911,0.0152 0.12304,0.0527 0.45501,0.53408 0.48371,1.23418 0.29102,1.74415 -0.0316,0.0835 -0.11078,0.12112 -0.19336,0.0898 a 0.08638823,0.08638823 0 0 0 -0.002,0 c -0.0829,-0.031 -0.12074,-0.11335 -0.0899,-0.19531 0.15544,-0.41137 0.13959,-1.00865 -0.23242,-1.44532 -0.0579,-0.0682 -0.0517,-0.15145 0.0156,-0.20898 0.0254,-0.0215 0.052,-0.0345 0.082,-0.0371 z" />
      <path
         style="color:#000000;font-style:normal;font-variant:normal;font-weight:normal;font-stretch:normal;font-size:medium;line-height:normal;font-family:sans-serif;font-variant-ligatures:normal;font-variant-position:normal;font-variant-caps:normal;font-variant-numeric:normal;font-variant-alternates:normal;font-variant-east-asian:normal;font-feature-settings:normal;font-variation-settings:normal;text-indent:0;text-align:start;text-decoration:none;text-decoration-line:none;text-decoration-style:solid;text-decoration-color:#000000;letter-spacing:normal;word-spacing:normal;text-transform:none;writing-mode:lr-tb;direction:ltr;text-orientation:mixed;dominant-baseline:auto;baseline-shift:baseline;text-anchor:start;white-space:normal;shape-padding:0;shape-margin:0;inline-size:0;clip-rule:nonzero;display:inline;overflow:visible;visibility:visible;isolation:auto;mix-blend-mode:normal;color-interpolation:sRGB;color-interpolation-filters:linearRGB;solid-color:#000000;solid-opacity:1;vector-effect:none;fill:#ffffff;fill-opacity:1;fill-rule:nonzero;stroke:none;stroke-width:0.512083;stroke-linecap:round;stroke-linejoin:round;stroke-miterlimit:4;stroke-dasharray:none;stroke-dashoffset:0;stroke-opacity:1;paint-order:stroke fill markers;color-rendering:auto;image-rendering:auto;shape-rendering:auto;text-rendering:auto;enable-background:accumulate;stop-color:#000000;stop-opacity:1"
         d="m -132.76975,184.62913 c -0.0849,0.006 -0.16567,0.0386 -0.23047,0.0937 -0.16632,0.14202 -0.1864,0.39183 -0.0449,0.55859 0.29932,0.35134 0.31683,0.8705 0.19336,1.19727 -0.0774,0.2055 0.0267,0.43483 0.23242,0.51172 0.20495,0.0777 0.43404,-0.0255 0.51172,-0.23047 0.2216,-0.58647 0.18814,-1.38162 -0.33203,-1.99219 -0.0817,-0.096 -0.20427,-0.14752 -0.33008,-0.13867 z"
         id="path1152" />
    </g>
    <g
       id="path999"
       style="opacity:1;stroke-width:1.9324"
       transform="translate(141.21376,-147.81914)">
      <path
         id="path14484"
         style="baseline-shift:baseline;display:inline;overflow:visible;vector-effect:none;stroke-linecap:round;stroke-linejoin:round;paint-order:stroke fill markers;enable-background:accumulate;stop-color:#000000;stop-opacity:1"
         d="m -133.86719,184.83008 c -4e-5,0 -0.008,0.002 -0.01,0.002 -0.0687,-0.002 -0.11966,0.049 -0.18555,0.0606 -1.9e-4,1.3e-4 1.5e-4,0.002 0,0.002 -0.39801,0.0697 -0.74581,0.3322 -0.82031,0.74609 -0.0166,0.0914 -0.0167,0.0647 0,0.043 0.0227,-0.0295 0.0344,-0.0266 -0.0352,0.0117 -0.47564,0.26307 -0.65279,0.8719 -0.38672,1.34766 0.26335,0.46999 0.86563,0.64731 1.33985,0.38476 0.48025,-0.26521 0.90313,-0.76155 1.02539,-1.43164 a 0.28827763,0.28827763 0 0 0 0,-0.002 c 0.0968,-0.53338 -0.26155,-1.05264 -0.79688,-1.14844 a 0.28827763,0.28827763 0 0 0 -0.006,-0.002 c 0.003,5.1e-4 -0.0553,-0.0108 -0.12304,-0.0137 a 0.28827763,0.28827763 0 0 0 -0.002,0 z m -0.0215,0.002 c -0.0254,0.003 -0.0701,0.008 -0.0703,0.008 -7e-5,2e-5 -0.008,0.004 -0.0117,0.006 0.007,-9.7e-4 0.0789,-0.0131 0.082,-0.0137 z m -0.10352,1.14258 a 0.28827763,0.28827763 0 0 0 0.082,0.0352 c -0.001,2e-5 -0.003,0.002 -0.004,0.002 l -0.0293,-0.004 c -8.7e-4,-8e-5 -0.001,9e-5 -0.002,0 -0.0125,-0.002 -0.0297,-0.0244 -0.0469,-0.0332 z" />
      <path
         id="path1156"
         style="baseline-shift:baseline;display:inline;overflow:visible;vector-effect:none;stroke-linecap:round;stroke-linejoin:round;paint-order:stroke fill markers;enable-background:accumulate;stop-color:#000000;stop-opacity:1"
         d="m -133.87891,185.11719 c -0.003,-1.3e-4 -0.005,0.004 -0.008,0.004 -0.34483,-0.0113 -0.65147,0.22909 -0.71289,0.57032 -0.0202,0.1114 -0.0389,0.14746 -0.0547,0.16797 -0.0157,0.0204 -0.0439,0.0432 -0.125,0.0879 -0.33692,0.18634 -0.46175,0.61834 -0.27343,0.95507 h -0.002 c 0.18641,0.33512 0.61508,0.45951 0.95117,0.27344 0.41012,-0.22648 0.77517,-0.65121 0.88086,-1.23047 a 0.17101688,0.17101688 0 0 0 0,-0.002 c 0.0686,-0.37794 -0.18542,-0.74662 -0.56445,-0.81445 -0.0194,-0.003 -0.0494,-0.01 -0.0898,-0.0117 z m -0.0293,0.60547 c 0.002,0 0.007,0.001 0.008,0.002 h 0.002 c 6.5e-4,1e-4 0.001,-1.2e-4 0.002,0 a 0.17101688,0.17101688 0 0 0 0.004,0 c 0.0565,0.0101 0.0848,0.0524 0.0742,0.10937 -0.0706,0.38928 -0.31162,0.66251 -0.57617,0.8086 -0.0496,0.0275 -0.0991,0.0131 -0.12695,-0.0371 a 0.17101688,0.17101688 0 0 0 -0.002,0 c -0.0287,-0.0513 -0.0155,-0.097 0.0352,-0.125 0.10736,-0.0593 0.22139,-0.13307 0.3125,-0.25195 0.092,-0.12004 0.14205,-0.26331 0.17187,-0.42774 a 0.17101688,0.17101688 0 0 0 0,-0.002 c 0.009,-0.0477 0.0461,-0.0773 0.0957,-0.0762 z" />
      <path
         style="color:#000000;font-style:normal;font-variant:normal;font-weight:normal;font-stretch:normal;font-size:medium;line-height:normal;font-family:sans-serif;font-variant-ligatures:normal;font-variant-position:normal;font-variant-caps:normal;font-variant-numeric:normal;font-variant-alternates:normal;font-variant-east-asian:normal;font-feature-settings:normal;font-variation-settings:normal;text-indent:0;text-align:start;text-decoration:none;text-decoration-line:none;text-decoration-style:solid;text-decoration-color:#000000;letter-spacing:normal;word-spacing:normal;text-transform:none;writing-mode:lr-tb;direction:ltr;text-orientation:mixed;dominant-baseline:auto;baseline-shift:baseline;text-anchor:start;white-space:normal;shape-padding:0;shape-margin:0;inline-size:0;clip-rule:nonzero;display:inline;overflow:visible;visibility:visible;isolation:auto;mix-blend-mode:normal;color-interpolation:sRGB;color-interpolation-filters:linearRGB;solid-color:#000000;solid-opacity:1;vector-effect:none;fill:#ffffff;fill-opacity:1;fill-rule:nonzero;stroke:none;stroke-width:0.512083;stroke-linecap:round;stroke-linejoin:round;stroke-miterlimit:4;stroke-dasharray:none;stroke-dashoffset:0;stroke-opacity:1;paint-order:stroke fill markers;color-rendering:auto;image-rendering:auto;shape-rendering:auto;text-rendering:auto;enable-background:accumulate;stop-color:#000000;stop-opacity:1"
         d="m -133.89336,185.42057 c -0.19854,-0.009 -0.37299,0.13058 -0.4082,0.32617 -0.0498,0.27453 -0.14281,0.3623 -0.33203,0.4668 -0.19244,0.10644 -0.26164,0.34907 -0.1543,0.54101 0.10639,0.19128 0.34757,0.26031 0.53906,0.1543 0.33728,-0.18626 0.64065,-0.53486 0.72852,-1.01953 0.0401,-0.21642 -0.10366,-0.4241 -0.32031,-0.46289 -0.0174,-0.003 -0.035,-0.005 -0.0527,-0.006 z"
         id="path1158" />
    </g>
    <g
       id="path1001"
       style="opacity:1;stroke-width:1.9324"
       transform="translate(141.21376,-147.81914)">
      <path
         id="path14463"
         style="baseline-shift:baseline;display:inline;overflow:visible;vector-effect:none;stroke-linecap:round;stroke-linejoin:round;paint-order:stroke fill markers;enable-background:accumulate;stop-color:#000000;stop-opacity:1"
         d="m -134.31836,184.66211 c -0.0453,-9.8e-4 -0.0803,0.0331 -0.12305,0.0449 a 0.14691855,0.14691855 0 0 0 -0.0234,-0.008 c -0.0972,0.0142 -0.28803,0.0331 -0.45118,0.17773 v -0.002 l -0.88086,0.77148 a 0.14691855,0.14691855 0 0 0 -0.004,0.01 c -0.34527,0.30936 -0.38005,0.84625 -0.0742,1.19531 a 0.14691855,0.14691855 0 0 0 0.002,0 c 0.30763,0.34959 0.84623,0.38587 1.19727,0.0801 a 0.14691855,0.14691855 0 0 0 0.002,0 l 0.88281,-0.77539 c 0.35184,-0.30761 0.39122,-0.85258 0.082,-1.20508 -0.12708,-0.14492 -0.28296,-0.1912 -0.39063,-0.21875 -0.003,-0.005 -0.0106,-0.0151 -0.0586,-0.0351 a 0.14691855,0.14691855 0 0 0 -0.0508,-0.0117 c -0.004,-1.8e-4 -0.008,3e-5 -0.0117,0 -0.0248,-0.0121 -0.0613,-0.0221 -0.0918,-0.0234 a 0.14691855,0.14691855 0 0 0 -0.004,0 z" />
      <path
         id="path1162"
         style="baseline-shift:baseline;display:inline;overflow:visible;vector-effect:none;stroke-linecap:round;stroke-linejoin:round;paint-order:stroke fill markers;enable-background:accumulate;stop-color:#000000;stop-opacity:1"
         d="m -134.32031,184.80859 c -0.0775,-0.002 -0.1568,0.0268 -0.21485,0.0781 l 0.0918,-0.043 c -0.1022,0.0149 -0.24907,0.0309 -0.375,0.14258 l -0.88086,0.77148 a 0.17566843,0.17566843 0 0 0 0,0.002 c -0.29002,0.2554 -0.31882,0.70376 -0.0644,0.99414 0.25459,0.28932 0.70182,0.31934 0.99219,0.0664 l 0.88281,-0.77539 c 0.29144,-0.2548 0.32411,-0.70456 0.0684,-0.99609 -0.10731,-0.12238 -0.24292,-0.1577 -0.34766,-0.1836 -0.016,-0.0106 -0.0292,-0.0258 -0.0469,-0.0332 a 0.17566843,0.17566843 0 0 0 -0.0352,0.002 c -4.9e-4,-2.7e-4 -0.001,2.8e-4 -0.002,0 a 0.17566843,0.17566843 0 0 0 -0.0156,0 l 0.006,-0.004 c -0.0191,-0.009 -0.0228,-0.02 -0.0566,-0.0215 a 0.17566843,0.17566843 0 0 0 -0.002,0 z m -0.0273,0.61719 c 6.2e-4,4e-5 0.001,-5e-5 0.002,0 0.0236,0.002 0.046,0.0128 0.0605,0.0293 0.0362,0.0412 0.034,0.0884 -0.008,0.125 l -0.88281,0.77539 c -0.0405,0.0353 -0.089,0.0331 -0.125,-0.008 a 0.17566843,0.17566843 0 0 0 -0.002,-0.002 c -0.0359,-0.0407 -0.0318,-0.0868 0.008,-0.12304 l 0.88281,-0.77344 a 0.17566843,0.17566843 0 0 0 0.004,-0.002 c 0.0167,-0.0148 0.0383,-0.0219 0.0605,-0.0215 z" />
      <path
         style="color:#000000;font-style:normal;font-variant:normal;font-weight:normal;font-stretch:normal;font-size:medium;line-height:normal;font-family:sans-serif;font-variant-ligatures:normal;font-variant-position:normal;font-variant-caps:normal;font-variant-numeric:normal;font-variant-alternates:normal;font-variant-east-asian:normal;font-feature-settings:normal;font-variation-settings:normal;text-indent:0;text-align:start;text-decoration:none;text-decoration-line:none;text-decoration-style:solid;text-decoration-color:#000000;letter-spacing:normal;word-spacing:normal;text-transform:none;writing-mode:lr-tb;direction:ltr;text-orientation:mixed;dominant-baseline:auto;baseline-shift:baseline;text-anchor:start;white-space:normal;shape-padding:0;shape-margin:0;inline-size:0;clip-rule:nonzero;display:inline;overflow:visible;visibility:visible;isolation:auto;mix-blend-mode:normal;color-interpolation:sRGB;color-interpolation-filters:linearRGB;solid-color:#000000;solid-opacity:1;vector-effect:none;fill:#ffffff;fill-opacity:1;fill-rule:nonzero;stroke:none;stroke-width:0.512083;stroke-linecap:round;stroke-linejoin:round;stroke-miterlimit:4;stroke-dasharray:none;stroke-dashoffset:0;stroke-opacity:1;paint-order:stroke fill markers;color-rendering:auto;image-rendering:auto;shape-rendering:auto;text-rendering:auto;enable-background:accumulate;stop-color:#000000;stop-opacity:1"
         d="m -134.33288,185.1171 c -0.10314,-0.005 -0.20402,0.0311 -0.28125,0.0996 l -0.88281,0.77344 c -0.16465,0.145 -0.18042,0.39608 -0.0352,0.56054 0.14428,0.16396 0.39391,0.18054 0.5586,0.0371 l 0.88281,-0.77539 c 0.16522,-0.14445 0.18184,-0.39557 0.0371,-0.56054 -0.071,-0.0809 -0.17178,-0.12958 -0.2793,-0.13477 z"
         id="path1164" />
    </g>
    <g
       id="g1433"
       style="stroke-width:1.9324">
      <g
         id="path993"
         style="opacity:1;stroke-width:1.9324"
         transform="translate(141.21376,-147.81914)">
        <path
           id="path13443"
           style="baseline-shift:baseline;display:inline;overflow:visible;vector-effect:none;stroke-linecap:round;stroke-linejoin:round;paint-order:stroke fill markers;enable-background:accumulate;stop-color:#000000;stop-opacity:1"
           d="m -119.51562,155.0293 c -0.57073,0 -1.0523,0.46091 -1.0586,1.04297 -1e-5,0.001 -1e-5,0.003 0,0.004 0.006,3.15795 -0.0438,7.04444 -0.0723,10.45117 l -0.004,0.39844 -0.11914,17.32422 c -1e-5,0.001 -1e-5,0.003 0,0.004 v 0.008 0.002 c -1e-5,0.002 -1e-5,0.004 0,0.006 0.009,0.65873 -0.0848,1.32293 0.23437,2.02539 0.18309,0.40292 0.51691,0.73982 0.94922,0.92578 0.39752,0.171 0.82087,0.21485 1.27539,0.21485 h 229.60231 c 0.57792,-5.6e-4 1.05395,-0.47597 1.05274,-1.05469 -5.8e-4,-0.57754 -0.47518,-1.05218 -1.05274,-1.05274 h -229.60218 c -0.20743,0 -0.25985,-0.0224 -0.3164,-0.0332 -0.005,-0.0488 -0.0118,-0.0899 -0.0156,-0.15625 -0.0124,-0.21567 -0.0171,-0.51988 -0.0215,-0.8789 v -0.006 l 0.12109,-17.36914 c 0,-6.7e-4 0,-0.001 0,-0.002 l 0.002,-0.44922 v -0.002 c 2e-5,-0.002 0.0171,-2.50769 0.0352,-5.05469 0.0181,-2.54799 0.0371,-5.09793 0.0371,-5.29297 0,-0.5825 -0.48161,-1.05468 -1.04687,-1.05468 z m 0.19335,0.61523 c 0.0306,6.5e-4 -0.0436,0.0319 -0.11132,0.0469 0.0385,-0.0142 0.088,-0.0441 0.11132,-0.0469 z" />
        <path
           id="path1144"
           style="baseline-shift:baseline;display:inline;overflow:visible;vector-effect:none;stroke-linecap:round;stroke-linejoin:round;paint-order:stroke fill markers;enable-background:accumulate;stop-color:#000000;stop-opacity:1"
           d="m -119.51562,155.47852 c -0.32594,0 -0.60579,0.26603 -0.60938,0.59765 0.006,3.16337 -0.0438,7.04986 -0.0723,10.45508 l -0.004,0.39844 -0.11914,17.32422 v 0.008 0.002 c 0.009,0.69307 -0.0628,1.2777 0.19531,1.84571 0.13638,0.30014 0.38909,0.55629 0.7168,0.69726 0.3166,0.13619 0.67391,0.17969 1.09765,0.17969 H 64.252971 c 0.33177,-3.2e-4 0.60483,-0.2736 0.60352,-0.60547 -3.3e-4,-0.33074 -0.27278,-0.6032 -0.60352,-0.60352 H -118.31068 c -0.33215,0 -0.54322,-0.0475 -0.61914,-0.0801 -0.0561,-0.0241 -0.0743,-0.0332 -0.0723,-0.0312 0.002,0.002 -0.004,-0.0102 -0.0254,-0.0566 -0.007,-0.0154 -0.0228,-0.0727 -0.0352,-0.1504 -0.0124,-0.0777 -0.0225,-0.17784 -0.0293,-0.29492 -0.0135,-0.23498 -0.0171,-0.54224 -0.0215,-0.90429 v -0.008 l 0.12109,-17.37109 0.002,-0.45117 c 0,0 0.0171,-2.50857 0.0352,-5.05664 0.0181,-2.54807 0.0371,-5.12984 0.0371,-5.28907 0,-0.34493 -0.27323,-0.60546 -0.59765,-0.60546 z m -0.006,0.41406 c 0.0959,-0.002 0.42177,0.24568 0.18945,0.1914 l -0.19531,28.16797 v 0.008 0.002 c 0.004,0.36333 0.009,0.67474 0.0234,0.92578 0.0144,0.24986 0.0315,0.4394 0.10157,0.59375 0.0567,0.12468 0.1564,0.22946 0.30859,0.29492 0.16847,0.0725 0.41627,0.11524 0.7832,0.11524 H 64.252931 c 0.10868,1e-4 0.18935,0.0808 0.18946,0.18945 4.3e-4,0.10909 -0.0807,0.19141 -0.18946,0.19141 H -118.31072 c -0.39552,0 -0.69229,-0.0407 -0.93359,-0.14454 -0.23002,-0.0989 -0.41321,-0.28633 -0.50586,-0.49023 -0.19947,-0.43901 -0.14761,-0.95716 -0.15625,-1.67578 v -0.008 l 0.19531,-28.17188 v -0.002 c 0.002,-0.10744 0.0827,-0.18745 0.18946,-0.1875 z" />
        <path
           style="color:#000000;font-style:normal;font-variant:normal;font-weight:normal;font-stretch:normal;font-size:medium;line-height:normal;font-family:sans-serif;font-variant-ligatures:normal;font-variant-position:normal;font-variant-caps:normal;font-variant-numeric:normal;font-variant-alternates:normal;font-variant-east-asian:normal;font-feature-settings:normal;font-variation-settings:normal;text-indent:0;text-align:start;text-decoration:none;text-decoration-line:none;text-decoration-style:solid;text-decoration-color:#000000;letter-spacing:normal;word-spacing:normal;text-transform:none;writing-mode:lr-tb;direction:ltr;text-orientation:mixed;dominant-baseline:auto;baseline-shift:baseline;text-anchor:start;white-space:normal;shape-padding:0;shape-margin:0;inline-size:0;clip-rule:nonzero;display:inline;overflow:visible;visibility:visible;isolation:auto;mix-blend-mode:normal;color-interpolation:sRGB;color-interpolation-filters:linearRGB;solid-color:#000000;solid-opacity:1;vector-effect:none;fill:#ffffff;fill-opacity:1;fill-rule:nonzero;stroke:none;stroke-width:0.512083;stroke-linecap:round;stroke-linejoin:round;stroke-miterlimit:4;stroke-dasharray:none;stroke-dashoffset:0;stroke-opacity:1;paint-order:stroke fill markers;color-rendering:auto;image-rendering:auto;shape-rendering:auto;text-rendering:auto;enable-background:accumulate;stop-color:#000000;stop-opacity:1"
           d="m -119.51758,155.68555 c -0.21889,-0.002 -0.39802,0.17369 -0.40039,0.39257 -0.0651,9.39193 -0.13607,18.72613 -0.19531,28.17579 v 0.008 c 0.009,0.70706 -0.0534,1.25726 0.17578,1.76172 0.11461,0.25222 0.33216,0.47366 0.61133,0.59375 0.27916,0.12008 0.60603,0.16211 1.01562,0.16211 h 229.59976 c 0.21965,-2.1e-4 0.39736,-0.17879 0.39649,-0.39844 -2.2e-4,-0.21888 -0.17761,-0.39627 -0.39649,-0.39648 h -229.59976 c -0.34988,0 -0.5769,-0.0442 -0.70117,-0.0977 -0.12427,-0.0535 -0.15809,-0.0923 -0.20312,-0.19141 -0.0896,-0.19716 -0.0966,-0.70941 -0.10547,-1.43554 v -0.008 l 0.19531,-28.16797 c 8.7e-4,-0.21813 -0.17446,-0.39607 -0.39258,-0.39843 z"
           id="path1146" />
      </g>
      <g
         id="path991"
         style="opacity:1;stroke-width:1.9324"
         transform="translate(141.21376,-147.81914)">
        <path
           id="path13540"
           style="baseline-shift:baseline;display:inline;overflow:visible;vector-effect:none;stroke-linecap:round;stroke-linejoin:round;paint-order:stroke fill markers;enable-background:accumulate;stop-color:#000000;stop-opacity:1"
           d="m -136.66406,165.46875 c -0.23257,0.0226 -0.44543,0.12067 -0.61133,0.26953 -0.4327,0.38692 -0.47666,1.06285 -0.0918,1.50195 a 0.45314769,0.45314769 0 0 0 0.0137,0.0156 c 3.40788,3.84149 8.22085,8.80502 14.07227,12.43555 -1.41628,1.6169 -2.69184,3.46939 -2.86133,5.91015 -0.14557,2.09643 0.5079,4.42935 1.80274,5.77344 1.03143,1.07068 2.26206,1.57014 3.46679,1.62695 l 0.0156,1.65235 c -0.0191,0.58222 0.43964,1.08141 1.02344,1.10742 0.58809,0.026 1.09395,-0.43809 1.11718,-1.02734 a 0.45314769,0.45314769 0 0 0 0,-0.0117 c 1e-5,-5.8e-4 0,-10e-4 0,-0.002 v -0.0117 -0.002 l -0.0156,-2.13867 c 0.0441,-0.0282 0.0704,-0.043 0.13672,-0.0859 l -0.0879,0.0254 a 0.45314769,0.45314769 0 0 0 0.10547,-0.0352 c 0.54838,-0.38536 0.95073,-1.03427 0.92578,-1.78711 -0.0219,-0.65819 -0.36147,-1.14556 -0.71875,-1.53321 0.0794,-0.0539 0.11413,-0.0804 0.21289,-0.14648 0.43292,-0.28972 1.08353,-0.72881 1.51758,-1.48242 0.58224,-1.01092 0.74475,-2.30229 0.26953,-3.44922 -0.49239,-1.18834 -1.76073,-2.05487 -3.45313,-2.00977 -1.22841,0.0327 -2.17021,0.77074 -2.7207,1.6211 -0.53933,0.83312 -0.78867,1.79941 -0.76758,2.68164 0.0198,0.82382 0.37973,1.51199 0.81445,2.0332 0.42716,0.51216 0.92902,0.89975 1.37891,1.23242 0.0863,0.0638 0.16239,0.12459 0.24023,0.18555 -0.005,0.29929 -7.2e-4,0.65028 0.002,0.99609 -0.61202,-0.0713 -1.32922,-0.30862 -1.92188,-0.92383 -0.27201,-0.28234 -0.64748,-0.97192 -0.88672,-1.75 -0.23977,-0.77974 -0.37037,-1.66969 -0.32031,-2.39062 0.13074,-1.88291 1.22534,-3.41113 2.5918,-4.93359 3.69212,2.01372 7.76276,3.4469 12.17187,3.63086 1.68336,0.0703 4.20918,-0.082 6.45117,-0.75 1.12001,-0.33368 2.18706,-0.79598 3.033208,-1.50782 0.858174,-0.72194 1.47722,-1.76066 1.476562,-2.99804 -7.46e-4,-1.40505 -0.509373,-2.6499 -1.40625,-3.58203 -0.89076,-0.92579 -2.10963,-1.53924 -3.52734,-1.92969 -2.83334,-0.78036 -6.55046,-0.71949 -10.72266,-0.0469 -0.44307,0.0714 -1.0499,0.0357 -1.63477,0.0117 0.44477,-0.95741 0.76514,-1.99301 0.63868,-3.16992 -0.10427,-0.96935 -0.50183,-1.96491 -1.21485,-2.76172 -0.7211,-0.8058 -1.79905,-1.38788 -3.08984,-1.38867 -0.93183,-5.6e-4 -2.02728,0.20576 -2.93945,0.91406 -0.93028,0.72237 -1.53346,1.95659 -1.48829,3.54883 0.0316,1.11528 0.5564,2.07393 1.29493,2.78516 0.73085,0.70385 1.66357,1.20032 2.66015,1.55859 0.16196,0.0582 0.29771,0.0672 0.45313,0.10352 -0.50342,0.59198 -1.00181,1.18058 -1.61914,1.78124 -0.36264,0.35287 -0.66265,0.71112 -0.96875,1.05469 -5.69092,-3.46061 -10.49458,-8.38438 -13.91797,-12.24414 -0.22494,-0.25495 -0.55849,-0.38666 -0.89453,-0.35742 a 0.45314769,0.45314769 0 0 0 -0.006,0 z m 17.42578,2.99609 c 0.68103,4.1e-4 1.1112,0.24567 1.49609,0.67578 0.37103,0.41461 0.62694,1.03737 0.6836,1.56446 0.10444,0.972 -0.18465,1.8025 -0.70118,2.67773 -0.44524,-0.0752 -0.8917,-0.14258 -1.22851,-0.26367 -0.79495,-0.28576 -1.4722,-0.67546 -1.89844,-1.08594 -0.43786,-0.42169 -0.6241,-0.7928 -0.63867,-1.30664 -0.0308,-1.08336 0.2389,-1.47324 0.6582,-1.79883 0.38607,-0.29977 1.0327,-0.46325 1.62891,-0.46289 z m 11.16797,6.79493 c 1.66412,-9.6e-4 3.1243,0.16216 4.28711,0.48242 1.16379,0.32052 2.02308,0.79506 2.55664,1.34961 0.54251,0.56384 0.80419,1.17455 0.80468,2.10156 3.1e-4,0.57729 -0.1937,0.91899 -0.71484,1.35742 -0.502,0.4223 -1.32065,0.8167 -2.26367,1.09766 -1.88965,0.56297 -4.29909,0.71873 -5.75,0.6582 -3.82994,-0.15981 -7.42983,-1.39364 -10.78125,-3.16406 0.17985,-0.20236 0.36554,-0.41922 0.54492,-0.59375 0.93637,-0.91113 1.79878,-1.84732 2.56641,-2.83399 1.1116,0.13688 2.22177,0.19294 3.22461,0.0312 1.9939,-0.32141 3.86154,-0.48537 5.52539,-0.48632 z m -11.69727,8.94531 c 0.52061,-0.0139 0.82824,0.0805 1.02149,0.19726 0.19701,0.119 0.30512,0.26033 0.40039,0.49024 0.16136,0.38942 0.0976,1.13195 -0.15039,1.5625 -0.1286,0.22328 -0.47584,0.52072 -0.85352,0.77344 -0.18865,0.12624 -0.3998,0.25491 -0.61328,0.42578 -0.0375,0.03 -0.0373,0.062 -0.0684,0.0937 -0.32379,-0.24939 -0.64509,-0.50164 -0.82617,-0.71875 -0.23399,-0.28055 -0.30809,-0.44876 -0.31446,-0.71485 -0.009,-0.39411 0.15511,-1.05668 0.42188,-1.46875 0.2871,-0.4435 0.53816,-0.62879 0.98242,-0.64062 z m -0.60547,8.02344 c 0.0419,0.11399 0.12096,0.33208 0.1211,0.33203 9e-5,-4e-5 -0.0528,0.0156 -0.0527,0.0156 9e-5,-2e-5 -0.10358,0.0117 -0.10351,0.0117 l -0.008,-0.35351 c 0.004,-1.6e-4 0.008,0.002 0.0117,0.002 a 0.45314769,0.45314769 0 0 0 0.002,0 c 0.0148,-6.9e-4 0.0151,-0.006 0.0293,-0.008 z" />
        <path
           id="path1138"
           style="baseline-shift:baseline;display:inline;overflow:visible;vector-effect:none;stroke-linecap:round;stroke-linejoin:round;paint-order:stroke fill markers;enable-background:accumulate;stop-color:#000000;stop-opacity:1"
           d="m -136.62109,165.91992 c -0.13188,0.0128 -0.25467,0.0693 -0.35157,0.15625 -0.25038,0.22389 -0.27656,0.61211 -0.0547,0.86524 a 0.08717704,0.08717704 0 0 0 0.002,0.002 c 3.48499,3.92927 8.41805,9.04469 14.41406,12.6582 -1.52773,1.68313 -2.90753,3.54634 -3.08008,6.03125 -0.13699,1.97281 0.51978,4.22573 1.67774,5.42774 1.07445,1.11533 2.34206,1.57106 3.55273,1.51562 0.01,-4e-4 0.0244,-0.003 0.0371,-0.004 l 0.0195,2.09765 c -0.011,0.3354 0.25404,0.62371 0.58985,0.63867 0.33922,0.015 0.63115,-0.25239 0.64453,-0.59179 a 0.08717704,0.08717704 0 0 0 0,-0.002 0.08717704,0.08717704 0 0 0 0,-0.002 l -0.0176,-2.39453 c 0.1132,-0.0653 0.16771,-0.10158 0.3457,-0.2168 a 0.08717704,0.08717704 0 0 0 0.004,0 c 0.43913,-0.30858 0.75172,-0.81823 0.73242,-1.40039 -0.0201,-0.60487 -0.3718,-1.07415 -0.75391,-1.43945 -0.053,-0.0506 -0.1006,-0.0821 -0.14648,-0.11524 0.0109,-0.0354 0.0221,-0.0715 0.0312,-0.10742 1.5e-4,-6e-4 -1.5e-4,-10e-4 0,-0.002 0.003,-0.003 10e-4,7.3e-4 0.006,-0.006 0.0186,-0.0228 0.0225,-0.0297 0.0586,-0.0586 0.0945,-0.0756 0.28561,-0.2003 0.5,-0.34375 0.42807,-0.28647 1.00343,-0.68348 1.37696,-1.33203 0.51628,-0.89638 0.65816,-2.04961 0.24414,-3.04883 -0.41902,-1.01128 -1.4858,-1.77145 -3.02344,-1.73047 -1.05418,0.0281 -1.86232,0.65832 -2.35156,1.41406 -0.48606,0.75084 -0.71413,1.63724 -0.69532,2.42383 0.0168,0.69891 0.32023,1.28781 0.70899,1.75391 0.38655,0.46348 0.85751,0.83042 1.30078,1.1582 0.16596,0.12271 0.30141,0.23161 0.44922,0.34765 -0.0113,0.041 -0.024,0.0835 -0.0254,0.14063 -0.01,0.44313 0.003,1.08762 0.002,1.58008 -0.004,0.001 -0.0111,0.006 -0.0195,0.006 -0.79578,0.0351 -1.86126,-0.28513 -2.68164,-1.13672 -0.36513,-0.379 -0.74002,-1.10517 -0.99414,-1.93164 -0.2542,-0.82667 -0.39327,-1.75717 -0.33789,-2.55469 0.14932,-2.15056 1.41518,-3.84386 2.91406,-5.47461 3.73705,2.08837 7.86277,3.56402 12.32031,3.75 1.6361,0.0683 4.13325,-0.0841 6.30274,-0.73047 1.08443,-0.32308 2.0955,-0.76939 2.87109,-1.42187 0.779009,-0.65535 1.315034,-1.56189 1.314455,-2.65039 -6.89e-4,-1.298 -0.461277,-2.41741 -1.279295,-3.26758 -0.81627,-0.84837 -1.95774,-1.43083 -3.32227,-1.80664 -2.72839,-0.75145 -6.39529,-0.70355 -10.52929,-0.0371 -0.68086,0.10974 -1.52481,0.0955 -2.38672,0.0215 0.6069,-1.07031 1.0104,-2.2453 0.86718,-3.57812 -0.0946,-0.8795 -0.45862,-1.78934 -1.10156,-2.50782 -0.64533,-0.72114 -1.59595,-1.23757 -2.75195,-1.23828 -0.864,-5.2e-4 -1.85662,0.1929 -2.66211,0.81836 -0.8107,0.62952 -1.35434,1.70295 -1.3125,3.17774 0.0278,0.98192 0.48574,1.82693 1.15625,2.47265 0.6683,0.64361 1.543,1.11565 2.49805,1.45899 0.38403,0.13804 0.77652,0.19401 1.15625,0.25976 -0.64209,0.79062 -1.33396,1.573 -2.15821,2.375 -0.43309,0.42142 -0.8129,0.89561 -1.21484,1.32422 -5.89924,-3.50985 -10.82989,-8.59483 -14.32813,-12.53906 -0.12935,-0.14661 -0.32062,-0.22205 -0.51562,-0.20508 a 0.08717704,0.08717704 0 0 0 -0.002,0 z m 0.043,0.4375 c 0.0558,-0.005 0.1093,0.0184 0.14648,0.0606 3.5399,3.99118 8.54555,9.16546 14.58203,12.71875 0.0867,0.0512 0.19913,0.0368 0.26953,-0.0352 0.47226,-0.48436 0.87851,-1.01162 1.32422,-1.44531 0.93323,-0.90806 1.72952,-1.7941 2.44141,-2.69336 a 0.08717704,0.08717704 0 0 0 0,-0.002 c 0.0973,-0.12474 0.0296,-0.3158 -0.125,-0.34961 a 0.08717704,0.08717704 0 0 0 -0.002,0 c -0.5205,-0.11154 -1.03104,-0.16297 -1.46875,-0.32031 -0.91452,-0.32877 -1.7346,-0.77658 -2.34179,-1.36133 -0.60531,-0.58296 -0.99531,-1.31409 -1.01953,-2.16797 -0.0387,-1.36311 0.44399,-2.27743 1.14062,-2.81836 0.70104,-0.54436 1.5947,-0.7251 2.39258,-0.72461 1.02651,6.2e-4 1.85113,0.44986 2.42383,1.08984 0.57481,0.64235 0.91109,1.4707 0.99609,2.26172 0.14456,1.3453 -0.28622,2.52366 -0.96875,3.62891 -0.0824,0.13433 0.007,0.31486 0.16406,0.33203 1.01028,0.10904 1.99837,0.11619 2.82813,-0.0176 4.09671,-0.66036 7.71595,-0.69785 10.3418,0.0254 1.31263,0.36152 2.37919,0.91637 3.12304,1.68946 0.74237,0.77154 1.153664,1.76719 1.154299,2.96289 5.03e-4,0.9456 -0.454453,1.7224 -1.158199,2.31445 -0.70666,0.59447 -1.66147,1.02327 -2.71094,1.33594 -2.0985,0.6252 -4.56843,0.77727 -6.1582,0.71093 -4.43622,-0.18507 -8.55733,-1.65957 -12.29297,-3.77148 -0.0881,-0.0495 -0.20076,-0.0311 -0.26953,0.043 -1.56485,1.68699 -2.96888,3.50217 -3.13282,5.86328 -0.0605,0.87093 0.0895,1.84357 0.35742,2.71484 0.26785,0.8711 0.64944,1.64013 1.09961,2.10743 0.91288,0.94758 2.08875,1.31444 3.01758,1.27343 0.0864,-0.004 0.15411,-0.0323 0.19336,-0.0488 0.0368,-0.0154 0.0454,-0.0193 0.0586,-0.0215 0.10664,-0.0149 0.18768,-0.10585 0.18946,-0.21289 a 0.08717704,0.08717704 0 0 0 0,-0.002 c 0.004,-0.51481 -0.0125,-1.26349 -0.002,-1.73047 a 0.08717704,0.08717704 0 0 0 0,-0.002 v -0.002 c 5.6e-4,-0.027 -1e-4,-0.0266 0.008,-0.0488 a 0.08717704,0.08717704 0 0 0 0,-0.002 c 0.006,-0.018 0.0288,-0.0647 0.043,-0.12891 0.0191,-0.0841 -0.0147,-0.17066 -0.082,-0.22265 a 0.08717704,0.08717704 0 0 0 0,-0.002 c -0.18871,-0.143 -0.34835,-0.28167 -0.57227,-0.44727 -0.43698,-0.32311 -0.88028,-0.66881 -1.22656,-1.08399 -0.34429,-0.4128 -0.58964,-0.90519 -0.60352,-1.48437 -0.0166,-0.69311 0.18765,-1.50428 0.62109,-2.17383 0.43071,-0.66532 1.10974,-1.18733 1.9961,-1.21094 1.39144,-0.037 2.25599,0.61361 2.60547,1.45704 0.35379,0.85387 0.23098,1.87785 -0.22071,2.6621 -0.31439,0.54586 -0.81888,0.90554 -1.24023,1.1875 -0.21037,0.14077 -0.39621,0.25833 -0.52734,0.36329 -0.0185,0.0148 -0.0234,0.022 -0.0332,0.0312 -0.0764,0.0291 -0.13823,0.0897 -0.14648,0.17382 -0.0132,0.13832 -0.0481,0.18063 -0.0996,0.3125 l 0.002,-0.002 c -0.0353,0.0877 -0.0106,0.18907 0.0605,0.25 0.0962,0.0817 0.19194,0.14117 0.23633,0.18359 0.34411,0.32898 0.60251,0.69259 0.61718,1.13477 0.0138,0.4161 -0.21089,0.79067 -0.54492,1.02539 -0.0107,0.008 -0.0618,0.0291 -0.13086,0.043 -0.0707,0.0142 -0.16759,0.028 -0.27148,0.0723 a 0.08717704,0.08717704 0 0 0 -0.002,0 c -0.0802,0.0344 -0.13232,0.11417 -0.13282,0.20117 l 0.0176,2.64258 c -0.004,0.10219 -0.0818,0.17441 -0.18359,0.16992 -0.10183,-0.005 -0.17196,-0.0803 -0.16797,-0.18164 a 0.08717704,0.08717704 0 0 0 0,-0.002 0.08717704,0.08717704 0 0 0 0,-0.002 l -0.0195,-2.38476 c -8.8e-4,-0.12787 -0.11525,-0.2291 -0.24219,-0.2168 h -0.002 c -0.0772,0.008 -0.13716,0.036 -0.16211,0.0469 -0.0251,0.011 -0.0206,0.008 -0.0195,0.008 -1.03389,0.0457 -2.30255,-0.35487 -3.28907,-1.37891 -1.02024,-1.05905 -1.68114,-3.24256 -1.55273,-5.0918 0.16859,-2.42801 1.54391,-4.25278 3.12109,-5.96484 0.0928,-0.10097 0.0686,-0.26526 -0.0488,-0.33594 -6.02386,-3.57869 -11.00204,-8.74736 -14.51758,-12.71094 l -0.002,-0.002 c -0.0649,-0.076 -0.0576,-0.18136 0.0176,-0.24805 a 0.08717704,0.08717704 0 0 0 0,-0.002 0.08717704,0.08717704 0 0 0 0.002,0 c 0.0241,-0.0211 0.0566,-0.0358 0.0918,-0.041 z m 17.33984,1.21289 c -0.74289,-4.5e-4 -1.56097,0.17495 -2.17578,0.65235 -0.60975,0.47346 -1.04211,1.25179 -1.00586,2.52929 0.0214,0.75284 0.35901,1.3893 0.91406,1.92383 0.55695,0.53638 1.33555,0.96641 2.2168,1.2832 0.59797,0.21497 1.24312,0.29548 1.85742,0.40235 0.0853,0.0149 0.17244,-0.022 0.2207,-0.0937 0.74757,-1.12257 1.18301,-2.30051 1.03711,-3.6582 -0.0772,-0.71851 -0.3837,-1.48488 -0.90234,-2.06446 -0.51629,-0.57692 -1.23755,-0.97404 -2.16211,-0.97461 z m 0,0.44141 c 0.80242,4.8e-4 1.38398,0.3233 1.83398,0.82617 0.44666,0.49912 0.7296,1.19241 0.79688,1.81836 0.12809,1.19209 -0.2398,2.21205 -0.90235,3.24219 -0.57383,-0.0964 -1.14194,-0.17775 -1.63085,-0.35352 -0.8391,-0.30163 -1.56739,-0.71061 -2.06055,-1.18554 -0.49594,-0.47762 -0.75941,-0.98654 -0.77735,-1.61915 -0.0335,-1.17875 0.32231,-1.7726 0.83399,-2.16992 0.50405,-0.39138 1.23447,-0.559 1.90625,-0.55859 z m 11.16797,6.35351 c -1.72216,9.9e-4 -3.63497,0.17229 -5.66797,0.5 -0.97293,0.15684 -2.14526,0.10492 -3.33203,-0.0625 -0.0788,-0.01 -0.15798,0.0222 -0.20508,0.0859 -0.77574,1.04325 -1.71695,2.03145 -2.73242,3.01953 -0.43904,0.42721 -0.78434,0.88585 -1.1836,1.29297 -0.098,0.1014 -0.0735,0.27356 0.0488,0.34375 3.64893,2.04054 7.65636,3.47699 11.95313,3.65625 1.55123,0.0647 4.00267,-0.0894 6.04297,-0.69726 1.02049,-0.30404 1.93613,-0.72288 2.58593,-1.26953 0.646565,-0.54394 1.03365,-1.20675 1.033206,-2.04102 -5.93e-4,-1.11579 -0.373455,-2.01065 -1.056636,-2.7207 -0.68471,-0.71162 -1.69019,-1.23986 -2.96094,-1.58985 -1.27103,-0.35006 -2.80332,-0.51854 -4.52539,-0.51758 z m 0,0.44141 c 1.69345,-9.7e-4 3.19013,0.16257 4.4082,0.49805 1.21836,0.33555 2.15116,0.83807 2.76172,1.47265 0.61272,0.63681 0.931098,1.39494 0.93164,2.41602 3.75e-4,0.70401 -0.29468,1.21522 -0.87695,1.70508 -0.57771,0.48599 -1.44299,0.89078 -2.42578,1.18359 -1.96662,0.5859 -4.39621,0.74041 -5.89844,0.67774 -4.11495,-0.1717 -7.9648,-1.53466 -11.50391,-3.47852 0.33187,-0.36182 0.63278,-0.72783 0.97071,-1.05664 0.99254,-0.96578 1.91639,-1.94379 2.69921,-2.98047 1.16919,0.15739 2.33043,0.21682 3.33594,0.0547 2.01384,-0.32463 3.90429,-0.49122 5.59766,-0.49219 z m -11.72071,8.50391 c -0.75385,0.02 -1.321,0.45446 -1.70703,1.05078 -0.38921,0.60122 -0.58303,1.3628 -0.56836,1.97656 0.0117,0.4847 0.21523,0.89177 0.52539,1.26367 0.3122,0.37432 0.73247,0.70822 1.16407,1.02735 0.10928,0.0808 0.21743,0.1767 0.34961,0.27343 0.12616,0.0908 0.31151,0.0192 0.34375,-0.13281 0.0395,-0.19377 0.14353,-0.31084 0.27734,-0.41797 0.15487,-0.12396 0.34782,-0.24436 0.55469,-0.38281 0.41278,-0.27623 0.86602,-0.60852 1.13086,-1.06836 0.39772,-0.69056 0.50222,-1.61833 0.19922,-2.34961 -0.14863,-0.35868 -0.39074,-0.68687 -0.76368,-0.91211 -0.37273,-0.22512 -0.86523,-0.34519 -1.50586,-0.32812 z m 0.0117,0.4414 c 0.58083,-0.0155 0.9828,0.0897 1.26758,0.26172 0.28504,0.17216 0.46244,0.41174 0.58399,0.70508 0.23566,0.56874 0.15043,1.39648 -0.17579,1.96289 -0.19969,0.34673 -0.59662,0.65783 -0.99414,0.92383 -0.19854,0.13286 -0.39779,0.25487 -0.58203,0.40234 -0.12056,0.0965 -0.2012,0.24432 -0.27343,0.39453 -0.0521,-0.0423 -0.10135,-0.084 -0.16211,-0.1289 -0.42327,-0.31297 -0.82124,-0.63107 -1.08985,-0.95313 -0.27147,-0.32548 -0.41099,-0.62094 -0.41992,-0.99414 -0.0122,-0.50845 0.16345,-1.21576 0.49414,-1.72656 0.33533,-0.518 0.7544,-0.83175 1.35156,-0.84766 z m 0.36914,6.27344 c -0.11946,-2.8e-4 -0.2192,0.0974 -0.2207,0.2168 -0.005,0.28795 0.005,0.72387 0.002,1.00586 -0.002,0.17505 0.20804,0.28368 0.34961,0.17968 0.23724,-0.17462 0.39038,-0.41216 0.38086,-0.69921 -0.005,-0.14595 -0.0747,-0.25968 -0.13867,-0.35352 -0.0653,-0.0958 -0.13948,-0.18491 -0.19727,-0.26172 -0.0413,-0.0547 -0.10706,-0.0877 -0.17578,-0.0879 z" />
        <path
           style="color:#000000;font-style:normal;font-variant:normal;font-weight:normal;font-stretch:normal;font-size:medium;line-height:normal;font-family:sans-serif;font-variant-ligatures:normal;font-variant-position:normal;font-variant-caps:normal;font-variant-numeric:normal;font-variant-alternates:normal;font-variant-east-asian:normal;font-feature-settings:normal;font-variation-settings:normal;text-indent:0;text-align:start;text-decoration:none;text-decoration-line:none;text-decoration-style:solid;text-decoration-color:#000000;letter-spacing:normal;word-spacing:normal;text-transform:none;writing-mode:lr-tb;direction:ltr;text-orientation:mixed;dominant-baseline:auto;baseline-shift:baseline;text-anchor:start;white-space:normal;shape-padding:0;shape-margin:0;inline-size:0;clip-rule:nonzero;display:inline;overflow:visible;visibility:visible;isolation:auto;mix-blend-mode:normal;color-interpolation:sRGB;color-interpolation-filters:linearRGB;solid-color:#000000;solid-opacity:1;vector-effect:none;fill:#ffffff;fill-opacity:1;fill-rule:nonzero;stroke:none;stroke-width:0.512083;stroke-linecap:round;stroke-linejoin:round;stroke-miterlimit:4;stroke-dasharray:none;stroke-dashoffset:0;stroke-opacity:1;paint-order:stroke fill markers;color-rendering:auto;image-rendering:auto;shape-rendering:auto;text-rendering:auto;enable-background:accumulate;stop-color:#000000;stop-opacity:1"
           d="m -136.59961,166.13867 c -0.0842,0.008 -0.16359,0.0431 -0.22656,0.0996 -0.16337,0.14483 -0.17908,0.39443 -0.0352,0.5586 3.52102,3.9699 8.51134,9.15435 14.57031,12.7539 -1.58673,1.72241 -3.00589,3.59478 -3.17968,6.09766 -0.13274,1.91151 0.5255,4.12858 1.61523,5.25976 1.03173,1.07098 2.35881,1.49575 3.45703,1.44727 0.0747,-0.003 0.12261,-0.051 0.19532,-0.0586 l 0.0195,2.3782 c 0.002,0.21841 0.16072,0.40239 0.3789,0.41211 0.21971,0.01 0.40541,-0.16111 0.41407,-0.38086 l -0.0176,-2.53297 c 0.13913,-0.0592 0.32383,-0.16947 0.44336,-0.25344 0.38645,-0.27157 0.65522,-0.71371 0.63867,-1.21289 -0.0174,-0.52358 -0.32251,-0.94004 -0.68555,-1.28711 -0.0724,-0.0692 -0.16804,-0.12709 -0.24609,-0.19336 0.0444,-0.11364 0.0393,-0.0867 0.10266,-0.27385 0.0634,-0.18711 0.43222,-0.37782 0.622,-0.5054 0.425,-0.28441 0.96457,-0.66246 1.30859,-1.25977 0.48407,-0.84048 0.61643,-1.92869 0.23242,-2.85547 -0.38401,-0.92678 -1.35039,-1.63276 -2.81445,-1.59375 -0.97016,0.0258 -1.71399,0.60218 -2.17383,1.3125 -0.45984,0.71033 -0.6759,1.55881 -0.6582,2.29883 0.0153,0.63891 0.28972,1.17968 0.65625,1.61914 0.36652,0.43946 0.82357,0.79567 1.26367,1.12109 0.21689,0.16038 0.37497,0.2973 0.57031,0.44532 -0.0185,0.0837 -0.0546,0.12527 -0.0566,0.22656 -0.0107,0.47732 0.006,1.2261 0.002,1.73437 -0.0899,0.0138 -0.13245,0.0621 -0.23047,0.0664 -0.8625,0.0381 -1.98287,-0.30537 -2.84961,-1.20508 -0.81637,-0.84742 -1.5104,-2.98566 -1.39453,-4.6543 0.15847,-2.28234 1.51835,-4.05316 3.07421,-5.73046 3.75774,2.1244 7.9115,3.6139 12.39063,3.80078 1.613,0.0673 4.09639,-0.0849 6.23047,-0.72071 1.06704,-0.3179 2.04985,-0.75539 2.79101,-1.3789 0.74117,-0.62352 1.236873,-1.46555 1.236332,-2.48242 -6.62e-4,-1.24668 -0.436725,-2.3045 -1.216802,-3.11524 -0.78007,-0.81073 -1.88403,-1.37937 -3.22265,-1.74805 -2.67723,-0.73735 -6.32016,-0.69462 -10.43555,-0.0312 -0.80148,0.12919 -1.77373,0.12505 -2.76953,0.0176 0.69773,-1.12986 1.14904,-2.36249 0.99805,-3.76757 -0.0898,-0.83547 -0.43994,-1.70435 -1.04883,-2.38477 -0.60889,-0.68042 -1.50221,-1.17143 -2.5933,-1.17209 -0.83105,-5.1e-4 -1.76859,0.19454 -2.52193,0.77951 -0.75335,0.58497 -1.26681,1.57934 -1.22657,2.99805 0.026,0.91775 0.45009,1.70607 1.08789,2.32031 0.63781,0.61424 1.4851,1.0741 2.41992,1.41016 0.47333,0.17015 0.99383,0.22008 1.49805,0.32812 -0.70602,0.89185 -1.49509,1.77009 -2.42187,2.67188 -0.46133,0.44889 -0.86978,0.97908 -1.33008,1.45117 -6.00182,-3.53289 -10.99509,-8.69296 -14.5293,-12.67774 -0.0833,-0.0944 -0.20655,-0.14374 -0.33203,-0.13281 z m 17.36133,1.65235 c 0.86301,5.2e-4 1.51527,0.3609 1.99805,0.90039 0.48277,0.53948 0.77732,1.26876 0.84961,1.9414 0.13955,1.29865 -0.27152,2.41488 -1.00196,3.51172 -0.62111,-0.10805 -1.25582,-0.18895 -1.82226,-0.39258 -0.86025,-0.30924 -1.61349,-0.72859 -2.13868,-1.23437 -0.52518,-0.50578 -0.82607,-1.07928 -0.8457,-1.77149 -0.0348,-1.22749 0.3602,-1.91499 0.91992,-2.34961 0.55973,-0.43462 1.33338,-0.60589 2.04102,-0.60546 z m 11.16797,6.79492 c 1.70774,-9.7e-4 3.22217,0.16502 4.46679,0.50781 1.24463,0.34279 2.21366,0.85811 2.86133,1.53125 0.64768,0.67314 0.993576,1.50028 0.994143,2.56836 4.09e-4,0.76838 -0.341223,1.35663 -0.955073,1.87305 -0.61386,0.51641 -1.50408,0.9281 -2.50586,1.22656 -2.00357,0.59692 -4.44389,0.7512 -5.97071,0.6875 -4.25366,-0.17747 -8.22805,-1.59844 -11.85547,-3.62695 0.41214,-0.42027 0.7559,-0.87475 1.17969,-1.28711 1.01929,-0.9918 1.96899,-1.98867 2.75586,-3.04688 1.20012,0.1693 2.38891,0.22492 3.39649,0.0625 2.02343,-0.32617 3.92506,-0.49512 5.63281,-0.49609 z m -11.71485,8.94531 c 1.22125,-0.0325 1.79077,0.45243 2.06055,1.10352 0.26978,0.65108 0.17493,1.52697 -0.1875,2.15625 -0.23264,0.40392 -0.65687,0.72465 -1.0625,0.99609 -0.20281,0.13572 -0.39862,0.25671 -0.56836,0.39258 -0.15431,0.12353 -0.30348,0.2898 -0.35547,0.54492 -0.12089,-0.0885 -0.22717,-0.18435 -0.34765,-0.27344 -0.42744,-0.31605 -0.83635,-0.6418 -1.12696,-0.99023 -0.2906,-0.34844 -0.4624,-0.70067 -0.47265,-1.12891 -0.0134,-0.56177 0.171,-1.29508 0.53125,-1.85156 0.36024,-0.55648 0.85457,-0.93125 1.52929,-0.94922 z m 0.375,6.71484 c 0.12589,0.16735 0.28614,0.34116 0.29102,0.48829 0.007,0.2161 -0.0856,0.36583 -0.28906,0.51562 0.003,-0.28928 -0.007,-0.72518 -0.002,-1.00391 z"
           id="path1140" />
      </g>
      <g
         id="path995"
         style="opacity:1;stroke-width:1.9324"
         transform="translate(141.21376,-147.81914)">
        <path
           id="path14442"
           style="baseline-shift:baseline;display:inline;overflow:visible;vector-effect:none;stroke-linecap:round;stroke-linejoin:round;paint-order:stroke fill markers;enable-background:accumulate;stop-color:#000000;stop-opacity:1"
           d="m -134.14062,184.03516 c -0.21355,0.007 -0.42844,0.0984 -0.59376,0.26757 a 0.20429674,0.20429674 0 0 0 -0.002,0.002 c -0.008,0.009 -0.0161,0.0177 -0.0234,0.0273 -0.26677,0.34847 -0.20848,0.83656 0.10157,1.13281 2.6e-4,5.2e-4 -2.7e-4,10e-4 0,0.002 3.1e-4,2.9e-4 0.002,-3e-4 0.002,0 0.0201,0.0191 0.0305,0.0452 0.0527,0.0625 l -0.0449,-0.0566 a 0.20429674,0.20429674 0 0 0 0.16992,0.10156 l -0.12109,-0.041 c 0.26621,0.20461 0.32413,0.29497 0.36719,0.39453 0.0369,0.0859 0.0638,0.22528 0.0547,0.53711 -0.0131,0.46922 0.36217,0.86868 0.83203,0.88282 0.19875,0.006 0.4059,-0.0397 0.56836,-0.17774 0.16087,-0.13667 0.24557,-0.33295 0.28711,-0.54297 0.0743,-0.37593 0.0897,-0.93138 -0.26758,-1.58398 -0.18643,-0.34053 -0.46692,-0.66015 -0.8086,-0.85156 -0.17156,-0.0962 -0.36562,-0.1629 -0.57421,-0.15625 z" />
        <path
           id="path1168"
           style="baseline-shift:baseline;display:inline;overflow:visible;vector-effect:none;stroke-linecap:round;stroke-linejoin:round;paint-order:stroke fill markers;enable-background:accumulate;stop-color:#000000;stop-opacity:1"
           d="m -134.13477,184.24023 c -0.1614,0.005 -0.32297,0.0719 -0.45312,0.20508 a 0.12281404,0.12281404 0 0 0 -0.01,0.0117 c -0.21665,0.283 -0.16143,0.6919 0.11914,0.91016 a 0.12281404,0.12281404 0 0 0 0.002,0.004 c 5e-4,3.9e-4 0.001,-3.8e-4 0.002,0 0.28017,0.21534 0.37352,0.34472 0.42969,0.47461 0.0542,0.12544 0.0818,0.29847 0.0723,0.625 -0.01,0.35747 0.27516,0.66112 0.63282,0.67188 0.16444,0.005 0.3155,-0.0319 0.42968,-0.12891 0.11418,-0.097 0.18274,-0.24369 0.21875,-0.42578 0.0686,-0.3469 0.0874,-0.83807 -0.24609,-1.44727 -0.17015,-0.3108 -0.43193,-0.60532 -0.72852,-0.77148 -0.14826,-0.0831 -0.30734,-0.13405 -0.46875,-0.12891 z m 0.0527,0.47266 c 0.0317,-3.5e-4 0.0628,0.01 0.0879,0.0293 0.3401,0.26117 0.55651,0.50869 0.67773,0.78906 0.12209,0.28243 0.14768,0.58769 0.13672,0.96289 -0.002,0.0825 -0.0616,0.13912 -0.14453,0.13672 -0.0825,-0.002 -0.13913,-0.0616 -0.13672,-0.14453 0.0105,-0.35897 -0.0157,-0.61799 -0.11328,-0.84375 -0.0966,-0.22343 -0.27312,-0.43303 -0.5918,-0.67774 -0.0658,-0.0503 -0.0748,-0.1292 -0.0254,-0.19531 0.0278,-0.0356 0.0682,-0.0563 0.10938,-0.0566 z" />
        <path
           style="color:#000000;font-style:normal;font-variant:normal;font-weight:normal;font-stretch:normal;font-size:medium;line-height:normal;font-family:sans-serif;font-variant-ligatures:normal;font-variant-position:normal;font-variant-caps:normal;font-variant-numeric:normal;font-variant-alternates:normal;font-variant-east-asian:normal;font-feature-settings:normal;font-variation-settings:normal;text-indent:0;text-align:start;text-decoration:none;text-decoration-line:none;text-decoration-style:solid;text-decoration-color:#000000;letter-spacing:normal;word-spacing:normal;text-transform:none;writing-mode:lr-tb;direction:ltr;text-orientation:mixed;dominant-baseline:auto;baseline-shift:baseline;text-anchor:start;white-space:normal;shape-padding:0;shape-margin:0;inline-size:0;clip-rule:nonzero;display:inline;overflow:visible;visibility:visible;isolation:auto;mix-blend-mode:normal;color-interpolation:sRGB;color-interpolation-filters:linearRGB;solid-color:#000000;solid-opacity:1;vector-effect:none;fill:#ffffff;fill-opacity:1;fill-rule:nonzero;stroke:none;stroke-width:0.512083;stroke-linecap:round;stroke-linejoin:round;stroke-miterlimit:4;stroke-dasharray:none;stroke-dashoffset:0;stroke-opacity:1;paint-order:stroke fill markers;color-rendering:auto;image-rendering:auto;shape-rendering:auto;text-rendering:auto;enable-background:accumulate;stop-color:#000000;stop-opacity:1"
           d="m -134.08456,184.45754 c -0.1217,0.001 -0.23617,0.058 -0.31055,0.1543 -0.13334,0.17417 -0.10011,0.42348 0.0742,0.55664 0.29962,0.23008 0.43578,0.40055 0.51172,0.57617 0.0759,0.17562 0.10182,0.39151 0.0918,0.73437 -0.006,0.21893 0.16585,0.40162 0.38477,0.40821 0.21893,0.006 0.34416,-0.0747 0.4082,-0.38477 0.064,-0.31007 0.0219,-0.6485 -0.10481,-1.01233 -0.14377,-0.33253 -0.49173,-0.73167 -0.70719,-0.89711 -0.21547,-0.16544 -0.25925,-0.13645 -0.34815,-0.13545 z"
           id="path1170" />
      </g>
    </g>
    <path
       style="fill:#000000;stroke:none;stroke-width:0.511279px;stroke-linecap:butt;stroke-linejoin:miter;stroke-opacity:1"
       d="m 20.47446,34.855627 v 1.483186 l 0.629389,-0.452854 0.007,-1.07557 z"
       id="path1340" />
    <path
       style="font-variation-settings:normal;opacity:1;vector-effect:none;fill:#000000;fill-opacity:1;stroke:none;stroke-width:0.511279px;stroke-linecap:butt;stroke-linejoin:miter;stroke-miterlimit:4;stroke-dasharray:none;stroke-dashoffset:0;stroke-opacity:1;stop-color:#000000;stop-opacity:1"
       d="m 21.904749,34.80258 -0.007,1.0579 0.549726,0.05358 0.007,-1.05966 z"
       id="path1353" />
    <path
       style="fill:#ffffff;stroke:none;stroke-width:0.511279px;stroke-linecap:butt;stroke-linejoin:miter;stroke-opacity:1"
       d="m 21.111679,34.228722 -0.0087,2.456047 0.794212,-0.07477 0.009,-2.460955 z"
       id="path1369" />
    <path
       style="fill:#000000;stroke:none;stroke-width:0.511279px;stroke-linecap:butt;stroke-linejoin:miter;stroke-opacity:1"
       d="m 20.550157,19.140856 0.004,1.0821 0.659432,-0.04745 0.008,-1.07922 z"
       id="path1371" />
    <path
       style="font-variation-settings:normal;opacity:1;vector-effect:none;fill:#000000;fill-opacity:1;stroke:none;stroke-width:0.511279px;stroke-linecap:butt;stroke-linejoin:miter;stroke-miterlimit:4;stroke-dasharray:none;stroke-dashoffset:0;stroke-opacity:1;stop-color:#000000;stop-opacity:1"
       d="m 22.013969,19.05006 0.658247,-0.01229 -0.0199,1.05868 -0.645687,0.0098 z"
       id="path1373" />
    <path
       style="fill:#000000;stroke:none;stroke-width:0.511279px;stroke-linecap:butt;stroke-linejoin:miter;stroke-opacity:1"
       d="m 22.951699,27.34956 c 0.34027,-0.3776 0.70141,-0.73149 0.97445,-1.18544 l -0.621922,-0.330503 c -0.30987,0.4606 -0.66054,0.84817 -1.00583,1.24538 z"
       id="path1383" />
    <path
       style="fill:#000000;stroke:none;stroke-width:0.511279px;stroke-linecap:butt;stroke-linejoin:miter;stroke-opacity:1"
       d="m 23.978199,27.38052 c 0.23976,-0.31315 0.53121,-0.74425 0.87497,-1.29473 l 0.500678,0.243499 c -0.25685,0.42317 -0.51407,0.85372 -0.76562,1.17279 z"
       id="path1385" />
    <path
       style="fill:#000000;stroke:none;stroke-width:0.511279px;stroke-linecap:butt;stroke-linejoin:miter;stroke-opacity:1"
       d="m 18.072793,31.699203 0.530166,0.384576 1.13951,-1.23849 -0.551176,-0.386076"
       id="path1391" />
    <path
       style="fill:#000000;stroke:none;stroke-width:0.511279px;stroke-linecap:butt;stroke-linejoin:miter;stroke-opacity:1"
       d="m 19.916018,32.857987 -0.627939,-0.352169 1.24187,-1.35109 0.611029,0.353669"
       id="path1393" />
    <path
       style="fill:#ffffff;stroke:none;stroke-width:0.511279px;stroke-linecap:butt;stroke-linejoin:miter;stroke-opacity:1"
       d="m 21.222914,18.373492 c 0.03564,-0.46634 0.796056,-0.265509 0.794407,-0.0013 l -0.0045,0.855206 -0.792122,0.191877"
       id="path1395" />
    <path
       style="fill:#ffffff;stroke:none;stroke-width:0.511279px;stroke-linecap:butt;stroke-linejoin:miter;stroke-opacity:1"
       d="m 21.214819,20.00956 c 0.27298,-0.0767 0.53879,-0.0916 0.79274,-0.0376 l -0.001,1.016231 c -0.04358,1.042237 -0.759527,1.001552 -0.79539,0.065 z"
       id="path1397" />
    <path
       style="fill:#000000;stroke:none;stroke-width:0.511279px;stroke-linecap:butt;stroke-linejoin:miter;stroke-opacity:1"
       d="m 20.36668,43.637131 v 1.07227 l 0.643339,0.04905 0.001,-1.259"
       id="path1399" />
    <path
       style="fill:#000000;stroke:none;stroke-width:0.511279px;stroke-linecap:butt;stroke-linejoin:miter;stroke-opacity:1"
       d="m 21.804279,44.60861 0.643508,-0.148972 c -0.0085,-0.582053 -0.226878,-1.441933 -0.407407,-1.691086 l -0.236742,0.109049"
       id="path1401" />
    <path
       style="fill:#000000;stroke:none;stroke-width:0.511279px;stroke-linecap:butt;stroke-linejoin:miter;stroke-opacity:1"
       d="m 21.065279,41.71604 c 0.16643,0.13591 0.44927,0.29622 0.92144,0.95136 l -0.143569,1.246215 c -0.0754,-0.528553 -0.583432,-1.286451 -0.995672,-1.600581"
       id="path1403" />
    <path
       style="fill:#000000;stroke:none;stroke-width:0.511279px;stroke-linecap:butt;stroke-linejoin:miter;stroke-opacity:1"
       d="m 21.108549,40.74231 0.94773,0.74253 0.413697,-0.636184 -0.812972,-0.650762"
       id="path1405" />
    <path
       style="fill:#000000;stroke:none;stroke-width:0.511279px;stroke-linecap:butt;stroke-linejoin:miter;stroke-opacity:1"
       d="m 20.964334,37.725863 c 0.0255,0.03777 1.026279,0.05997 1.078759,-0.286952 l 0.147136,0.623656 c -0.0232,0.0763 -0.52055,0.16913 -0.90621,0.15863 l -0.34328,-0.009"
       id="path1407" />
    <path
       style="fill:#000000;stroke:none;stroke-width:0.511279px;stroke-linecap:butt;stroke-linejoin:miter;stroke-opacity:1"
       d="m 22.063679,38.99972 c 0.37535,-0.16792 0.82619,-0.42745 0.93857,-0.96701 l 0.25924,-0.06482 c -1.6e-4,0.64489 -0.541658,1.035002 -0.729058,1.147712 z"
       id="path1409" />
    <path
       style="fill:#ffffff;stroke:none;stroke-width:0.511279px;stroke-linecap:butt;stroke-linejoin:miter;stroke-opacity:1"
       d="m 20.486215,38.203284 c 0.537007,-0.05588 2.453413,0.178771 2.045527,-0.971644 -0.148733,-0.32477 0.227563,-0.348147 0.491107,0.336825 0.263545,0.684972 -0.337028,1.245541 -0.898016,1.382038 -0.527945,0.128458 -1.208412,0.08256 -1.447385,0.01872 -0.499604,-0.133501 -0.111467,-0.492448 -0.191233,-0.765926 z"
       id="path1415" />
  </g>
</svg>
